<?xml version="1.0" encoding="UTF-8" standalone="no"?>
<!DOCTYPE svg PUBLIC "-//W3C//DTD SVG 1.1//EN"
 "http://www.w3.org/Graphics/SVG/1.1/DTD/svg11.dtd">
<!-- Generated by graphviz version 2.43.0 (0)
 -->
<!-- Title: include/depz/processing/adaptive_temporal_kalman_filter.h Pages: 1 -->
<svg width="284pt" height="184pt"
 viewBox="0.00 0.00 283.50 184.00" xmlns="http://www.w3.org/2000/svg" xmlns:xlink="http://www.w3.org/1999/xlink">
<g id="graph0" class="graph" transform="scale(1 1) rotate(0) translate(4 180)">
<title>include/depz/processing/adaptive_temporal_kalman_filter.h</title>
<polygon fill="white" stroke="transparent" points="-4,4 -4,-180 279.5,-180 279.5,4 -4,4"/>
<!-- Node1 -->
<g id="node1" class="node">
<title>Node1</title>
<g id="a_node1"><a xlink:title=" ">
<polygon fill="#bfbfbf" stroke="black" points="68.5,-134.5 68.5,-175.5 221.5,-175.5 221.5,-134.5 68.5,-134.5"/>
<text text-anchor="start" x="76.5" y="-163.5" font-family="Helvetica,sans-Serif" font-size="10.00">include/depz/processing</text>
<text text-anchor="start" x="76.5" y="-152.5" font-family="Helvetica,sans-Serif" font-size="10.00">/adaptive_temporal_kalman</text>
<text text-anchor="middle" x="145" y="-141.5" font-family="Helvetica,sans-Serif" font-size="10.00">_filter.h</text>
</a>
</g>
</g>
<!-- Node2 -->
<g id="node2" class="node">
<title>Node2</title>
<g id="a_node2"><a xlink:href="filter__chain_8h.html" target="_top" xlink:title=" ">
<polygon fill="white" stroke="black" points="0,-67.5 0,-97.5 144,-97.5 144,-67.5 0,-67.5"/>
<text text-anchor="start" x="8" y="-85.5" font-family="Helvetica,sans-Serif" font-size="10.00">include/depz/core/pipeline</text>
<text text-anchor="middle" x="72" y="-74.5" font-family="Helvetica,sans-Serif" font-size="10.00">/filter_chain.h</text>
</a>
</g>
</g>
<!-- Node1&#45;&gt;Node2 -->
<g id="edge1" class="edge">
<title>Node1&#45;&gt;Node2</title>
<path fill="none" stroke="midnightblue" d="M117.36,-127.31C107.02,-117.32 95.66,-106.35 86.9,-97.89"/>
<polygon fill="midnightblue" stroke="midnightblue" points="115.04,-129.93 124.67,-134.36 119.9,-124.9 115.04,-129.93"/>
</g>
<!-- Node4 -->
<g id="node4" class="node">
<title>Node4</title>
<g id="a_node4"><a xlink:href="depz_8h.html" target="_top" xlink:title="Single umbrella header that pulls in the whole iStereoLab public API.">
<polygon fill="white" stroke="black" points="162.5,-73 162.5,-92 275.5,-92 275.5,-73 162.5,-73"/>
<text text-anchor="middle" x="219" y="-80" font-family="Helvetica,sans-Serif" font-size="10.00">include/depz/depz.h</text>
</a>
</g>
</g>
<!-- Node1&#45;&gt;Node4 -->
<g id="edge3" class="edge">
<title>Node1&#45;&gt;Node4</title>
<path fill="none" stroke="midnightblue" d="M173.06,-127.27C186.1,-114.84 200.72,-100.91 209.9,-92.17"/>
<polygon fill="midnightblue" stroke="midnightblue" points="170.44,-124.93 165.61,-134.36 175.27,-130 170.44,-124.93"/>
</g>
<!-- Node3 -->
<g id="node3" class="node">
<title>Node3</title>
<g id="a_node3"><a xlink:href="depth__pipeline_8h.html" target="_top" xlink:title=" ">
<polygon fill="white" stroke="black" points="0,-0.5 0,-30.5 144,-30.5 144,-0.5 0,-0.5"/>
<text text-anchor="start" x="8" y="-18.5" font-family="Helvetica,sans-Serif" font-size="10.00">include/depz/core/pipeline</text>
<text text-anchor="middle" x="72" y="-7.5" font-family="Helvetica,sans-Serif" font-size="10.00">/depth_pipeline.h</text>
</a>
</g>
</g>
<!-- Node2&#45;&gt;Node3 -->
<g id="edge2" class="edge">
<title>Node2&#45;&gt;Node3</title>
<path fill="none" stroke="midnightblue" d="M72,-57.11C72,-48.15 72,-38.32 72,-30.58"/>
<polygon fill="midnightblue" stroke="midnightblue" points="68.5,-57.4 72,-67.4 75.5,-57.4 68.5,-57.4"/>
</g>
</g>
</svg>
