<?xml version="1.0" encoding="UTF-8" standalone="no"?>
<!DOCTYPE svg PUBLIC "-//W3C//DTD SVG 1.1//EN"
 "http://www.w3.org/Graphics/SVG/1.1/DTD/svg11.dtd">
<!-- Generated by graphviz version 2.43.0 (0)
 -->
<!-- Title: include/depz/processing/adaptivetemporalfilterv2.h Pages: 1 -->
<svg width="386pt" height="151pt"
 viewBox="0.00 0.00 386.00 151.00" xmlns="http://www.w3.org/2000/svg" xmlns:xlink="http://www.w3.org/1999/xlink">
<g id="graph0" class="graph" transform="scale(1 1) rotate(0) translate(4 147)">
<title>include/depz/processing/adaptivetemporalfilterv2.h</title>
<polygon fill="white" stroke="transparent" points="-4,4 -4,-147 382,-147 382,4 -4,4"/>
<!-- Node1 -->
<g id="node1" class="node">
<title>Node1</title>
<g id="a_node1"><a xlink:title=" ">
<polygon fill="#bfbfbf" stroke="black" points="150,-112.5 150,-142.5 300,-142.5 300,-112.5 150,-112.5"/>
<text text-anchor="start" x="158" y="-130.5" font-family="Helvetica,sans-Serif" font-size="10.00">include/depz/processing</text>
<text text-anchor="middle" x="225" y="-119.5" font-family="Helvetica,sans-Serif" font-size="10.00">/adaptivetemporalfilterv2.h</text>
</a>
</g>
</g>
<!-- Node2 -->
<g id="node2" class="node">
<title>Node2</title>
<g id="a_node2"><a xlink:href="idepthfilter_8h.html" target="_top" xlink:title="Abstract interface for depth&#45;map and disparity&#45;map filters.">
<polygon fill="white" stroke="black" points="84,-56.5 84,-75.5 244,-75.5 244,-56.5 84,-56.5"/>
<text text-anchor="middle" x="164" y="-63.5" font-family="Helvetica,sans-Serif" font-size="10.00">depz/processing/idepthfilter.h</text>
</a>
</g>
</g>
<!-- Node1&#45;&gt;Node2 -->
<g id="edge1" class="edge">
<title>Node1&#45;&gt;Node2</title>
<path fill="none" stroke="midnightblue" d="M210.54,-112.4C201.41,-103.49 189.58,-91.95 180.14,-82.74"/>
<polygon fill="midnightblue" stroke="midnightblue" points="182.48,-80.13 172.88,-75.66 177.59,-85.15 182.48,-80.13"/>
</g>
<!-- Node3 -->
<g id="node3" class="node">
<title>Node3</title>
<g id="a_node3"><a xlink:title=" ">
<polygon fill="white" stroke="#bfbfbf" points="0,-0.5 0,-19.5 116,-19.5 116,-0.5 0,-0.5"/>
<text text-anchor="middle" x="58" y="-7.5" font-family="Helvetica,sans-Serif" font-size="10.00">opencv2/opencv.hpp</text>
</a>
</g>
</g>
<!-- Node1&#45;&gt;Node3 -->
<g id="edge4" class="edge">
<title>Node1&#45;&gt;Node3</title>
<path fill="none" stroke="midnightblue" d="M149.78,-116.33C122.91,-109.14 94.5,-96.89 75,-76 63.44,-63.62 59.53,-44.37 58.3,-30.03"/>
<polygon fill="midnightblue" stroke="midnightblue" points="61.79,-29.63 57.8,-19.81 54.8,-29.97 61.79,-29.63"/>
</g>
<!-- Node5 -->
<g id="node5" class="node">
<title>Node5</title>
<g id="a_node5"><a xlink:title=" ">
<polygon fill="white" stroke="#bfbfbf" points="262,-56.5 262,-75.5 310,-75.5 310,-56.5 262,-56.5"/>
<text text-anchor="middle" x="286" y="-63.5" font-family="Helvetica,sans-Serif" font-size="10.00">mutex</text>
</a>
</g>
</g>
<!-- Node1&#45;&gt;Node5 -->
<g id="edge5" class="edge">
<title>Node1&#45;&gt;Node5</title>
<path fill="none" stroke="midnightblue" d="M239.46,-112.4C248.59,-103.49 260.42,-91.95 269.86,-82.74"/>
<polygon fill="midnightblue" stroke="midnightblue" points="272.41,-85.15 277.12,-75.66 267.52,-80.13 272.41,-85.15"/>
</g>
<!-- Node6 -->
<g id="node6" class="node">
<title>Node6</title>
<g id="a_node6"><a xlink:title=" ">
<polygon fill="white" stroke="#bfbfbf" points="328,-56.5 328,-75.5 378,-75.5 378,-56.5 328,-56.5"/>
<text text-anchor="middle" x="353" y="-63.5" font-family="Helvetica,sans-Serif" font-size="10.00">atomic</text>
</a>
</g>
</g>
<!-- Node1&#45;&gt;Node6 -->
<g id="edge6" class="edge">
<title>Node1&#45;&gt;Node6</title>
<path fill="none" stroke="midnightblue" d="M255.33,-112.4C276.52,-102.55 304.59,-89.5 325.2,-79.92"/>
<polygon fill="midnightblue" stroke="midnightblue" points="326.78,-83.05 334.37,-75.66 323.83,-76.7 326.78,-83.05"/>
</g>
<!-- Node2&#45;&gt;Node3 -->
<g id="edge2" class="edge">
<title>Node2&#45;&gt;Node3</title>
<path fill="none" stroke="midnightblue" d="M146.97,-56.32C129.97,-47.66 103.62,-34.24 84.01,-24.25"/>
<polygon fill="midnightblue" stroke="midnightblue" points="85.49,-21.08 74.99,-19.65 82.31,-27.31 85.49,-21.08"/>
</g>
<!-- Node4 -->
<g id="node4" class="node">
<title>Node4</title>
<g id="a_node4"><a xlink:title=" ">
<polygon fill="white" stroke="#bfbfbf" points="135,-0.5 135,-19.5 193,-19.5 193,-0.5 135,-0.5"/>
<text text-anchor="middle" x="164" y="-7.5" font-family="Helvetica,sans-Serif" font-size="10.00">memory</text>
</a>
</g>
</g>
<!-- Node2&#45;&gt;Node4 -->
<g id="edge3" class="edge">
<title>Node2&#45;&gt;Node4</title>
<path fill="none" stroke="midnightblue" d="M164,-56.08C164,-49.01 164,-38.86 164,-29.99"/>
<polygon fill="midnightblue" stroke="midnightblue" points="167.5,-29.75 164,-19.75 160.5,-29.75 167.5,-29.75"/>
</g>
</g>
</svg>
