<?xml version="1.0" encoding="UTF-8" standalone="no"?>
<!DOCTYPE svg PUBLIC "-//W3C//DTD SVG 1.1//EN"
 "http://www.w3.org/Graphics/SVG/1.1/DTD/svg11.dtd">
<!-- Generated by graphviz version 2.43.0 (0)
 -->
<!-- Title: include/depz/core/filters/builtin.h Pages: 1 -->
<svg width="367pt" height="341pt"
 viewBox="0.00 0.00 367.36 341.00" xmlns="http://www.w3.org/2000/svg" xmlns:xlink="http://www.w3.org/1999/xlink">
<g id="graph0" class="graph" transform="scale(1 1) rotate(0) translate(4 337)">
<title>include/depz/core/filters/builtin.h</title>
<polygon fill="white" stroke="transparent" points="-4,4 -4,-337 363.36,-337 363.36,4 -4,4"/>
<!-- Node1 -->
<g id="node1" class="node">
<title>Node1</title>
<g id="a_node1"><a xlink:title=" ">
<polygon fill="#bfbfbf" stroke="black" points="112.5,-302.5 112.5,-332.5 245.5,-332.5 245.5,-302.5 112.5,-302.5"/>
<text text-anchor="start" x="120.5" y="-320.5" font-family="Helvetica,sans-Serif" font-size="10.00">include/depz/core/filters</text>
<text text-anchor="middle" x="179" y="-309.5" font-family="Helvetica,sans-Serif" font-size="10.00">/builtin.h</text>
</a>
</g>
</g>
<!-- Node2 -->
<g id="node2" class="node">
<title>Node2</title>
<g id="a_node2"><a xlink:href="ifilter_8h.html" target="_top" xlink:title=" ">
<polygon fill="white" stroke="black" points="113.5,-246.5 113.5,-265.5 244.5,-265.5 244.5,-246.5 113.5,-246.5"/>
<text text-anchor="middle" x="179" y="-253.5" font-family="Helvetica,sans-Serif" font-size="10.00">depz/core/filters/ifilter.h</text>
</a>
</g>
</g>
<!-- Node1&#45;&gt;Node2 -->
<g id="edge1" class="edge">
<title>Node1&#45;&gt;Node2</title>
<path fill="none" stroke="midnightblue" d="M179,-302.4C179,-294.47 179,-284.46 179,-275.86"/>
<polygon fill="midnightblue" stroke="midnightblue" points="182.5,-275.66 179,-265.66 175.5,-275.66 182.5,-275.66"/>
</g>
<!-- Node4 -->
<g id="node4" class="node">
<title>Node4</title>
<g id="a_node4"><a xlink:href="param__spec_8h.html" target="_top" xlink:title=" ">
<polygon fill="white" stroke="black" points="90.5,-123.5 90.5,-142.5 225.5,-142.5 225.5,-123.5 90.5,-123.5"/>
<text text-anchor="middle" x="158" y="-130.5" font-family="Helvetica,sans-Serif" font-size="10.00">depz/core/param_spec.h</text>
</a>
</g>
</g>
<!-- Node1&#45;&gt;Node4 -->
<g id="edge14" class="edge">
<title>Node1&#45;&gt;Node4</title>
<path fill="none" stroke="midnightblue" d="M149.37,-302.47C134.13,-293.88 116.41,-281.55 105,-266 89.61,-245.03 91.82,-235.73 88,-210 85.98,-196.37 81.4,-191.09 88,-179 95.82,-164.68 110.36,-154.24 124.18,-147.04"/>
<polygon fill="midnightblue" stroke="midnightblue" points="126.02,-150.03 133.53,-142.56 123,-143.72 126.02,-150.03"/>
</g>
<!-- Node7 -->
<g id="node6" class="node">
<title>Node7</title>
<g id="a_node6"><a xlink:title=" ">
<polygon fill="white" stroke="#bfbfbf" points="31,-0.5 31,-19.5 81,-19.5 81,-0.5 31,-0.5"/>
<text text-anchor="middle" x="56" y="-7.5" font-family="Helvetica,sans-Serif" font-size="10.00">cstdint</text>
</a>
</g>
</g>
<!-- Node1&#45;&gt;Node7 -->
<g id="edge16" class="edge">
<title>Node1&#45;&gt;Node7</title>
<path fill="none" stroke="midnightblue" d="M118.9,-302.48C66.9,-286.35 0,-254.2 0,-195.5 0,-195.5 0,-195.5 0,-132 0,-91.72 25.88,-50.29 42.45,-27.88"/>
<polygon fill="midnightblue" stroke="midnightblue" points="45.37,-29.83 48.68,-19.76 39.82,-25.57 45.37,-29.83"/>
</g>
<!-- Node13 -->
<g id="node10" class="node">
<title>Node13</title>
<g id="a_node10"><a xlink:title=" ">
<polygon fill="white" stroke="#bfbfbf" points="307.5,-62 307.5,-81 354.5,-81 354.5,-62 307.5,-62"/>
<text text-anchor="middle" x="331" y="-69" font-family="Helvetica,sans-Serif" font-size="10.00">vector</text>
</a>
</g>
</g>
<!-- Node1&#45;&gt;Node13 -->
<g id="edge17" class="edge">
<title>Node1&#45;&gt;Node13</title>
<path fill="none" stroke="midnightblue" d="M226.43,-302.44C268.02,-287.22 325.55,-258.38 350,-210 369.85,-170.71 351.7,-117.49 339.67,-90.21"/>
<polygon fill="midnightblue" stroke="midnightblue" points="342.84,-88.72 335.45,-81.12 336.48,-91.66 342.84,-88.72"/>
</g>
<!-- Node14 -->
<g id="node11" class="node">
<title>Node14</title>
<g id="a_node11"><a xlink:title=" ">
<polygon fill="white" stroke="#bfbfbf" points="237.5,-185 237.5,-204 340.5,-204 340.5,-185 237.5,-185"/>
<text text-anchor="middle" x="289" y="-192" font-family="Helvetica,sans-Serif" font-size="10.00">opencv2/core.hpp</text>
</a>
</g>
</g>
<!-- Node1&#45;&gt;Node14 -->
<g id="edge15" class="edge">
<title>Node1&#45;&gt;Node14</title>
<path fill="none" stroke="midnightblue" d="M206.93,-302.38C222.3,-293.54 240.86,-280.99 254,-266 267.48,-250.62 277.16,-229.12 282.88,-213.92"/>
<polygon fill="midnightblue" stroke="midnightblue" points="286.3,-214.74 286.34,-204.14 279.7,-212.4 286.3,-214.74"/>
</g>
<!-- Node3 -->
<g id="node3" class="node">
<title>Node3</title>
<g id="a_node3"><a xlink:href="icontrol__owner_8h.html" target="_top" xlink:title=" ">
<polygon fill="white" stroke="black" points="97,-179.5 97,-209.5 219,-209.5 219,-179.5 97,-179.5"/>
<text text-anchor="start" x="105" y="-197.5" font-family="Helvetica,sans-Serif" font-size="10.00">depz/controls/icontrol</text>
<text text-anchor="middle" x="158" y="-186.5" font-family="Helvetica,sans-Serif" font-size="10.00">_owner.h</text>
</a>
</g>
</g>
<!-- Node2&#45;&gt;Node3 -->
<g id="edge2" class="edge">
<title>Node2&#45;&gt;Node3</title>
<path fill="none" stroke="midnightblue" d="M175.99,-246.48C173.47,-239.32 169.73,-228.75 166.32,-219.08"/>
<polygon fill="midnightblue" stroke="midnightblue" points="169.58,-217.79 162.95,-209.52 162.98,-220.12 169.58,-217.79"/>
</g>
<!-- Node2&#45;&gt;Node14 -->
<g id="edge13" class="edge">
<title>Node2&#45;&gt;Node14</title>
<path fill="none" stroke="midnightblue" d="M194.76,-246.48C212.98,-236.62 243.17,-220.29 264.47,-208.77"/>
<polygon fill="midnightblue" stroke="midnightblue" points="266.14,-211.85 273.27,-204.01 262.81,-205.69 266.14,-211.85"/>
</g>
<!-- Node3&#45;&gt;Node4 -->
<g id="edge3" class="edge">
<title>Node3&#45;&gt;Node4</title>
<path fill="none" stroke="midnightblue" d="M158,-179.4C158,-171.47 158,-161.46 158,-152.86"/>
<polygon fill="midnightblue" stroke="midnightblue" points="161.5,-152.66 158,-142.66 154.5,-152.66 161.5,-152.66"/>
</g>
<!-- Node3&#45;&gt;Node13 -->
<g id="edge12" class="edge">
<title>Node3&#45;&gt;Node13</title>
<path fill="none" stroke="midnightblue" d="M180.11,-179.44C195.62,-169.47 216.75,-155.67 235,-143 261.95,-124.28 292.38,-101.68 311.62,-87.2"/>
<polygon fill="midnightblue" stroke="midnightblue" points="313.74,-89.98 319.62,-81.16 309.53,-84.39 313.74,-89.98"/>
</g>
<!-- Node5 -->
<g id="node5" class="node">
<title>Node5</title>
<g id="a_node5"><a xlink:href="iparameter__store_8h.html" target="_top" xlink:title="Type&#45;erased key/value parameter store interface.">
<polygon fill="white" stroke="red" points="129.5,-56.5 129.5,-86.5 250.5,-86.5 250.5,-56.5 129.5,-56.5"/>
<text text-anchor="start" x="137.5" y="-74.5" font-family="Helvetica,sans-Serif" font-size="10.00">depz/core/iparameter</text>
<text text-anchor="middle" x="190" y="-63.5" font-family="Helvetica,sans-Serif" font-size="10.00">_store.h</text>
</a>
</g>
</g>
<!-- Node4&#45;&gt;Node5 -->
<g id="edge4" class="edge">
<title>Node4&#45;&gt;Node5</title>
<path fill="none" stroke="midnightblue" d="M162.58,-123.48C166.51,-116.17 172.36,-105.3 177.64,-95.47"/>
<polygon fill="midnightblue" stroke="midnightblue" points="180.8,-96.99 182.46,-86.52 174.64,-93.67 180.8,-96.99"/>
</g>
<!-- Node8 -->
<g id="node7" class="node">
<title>Node8</title>
<g id="a_node7"><a xlink:title=" ">
<polygon fill="white" stroke="#bfbfbf" points="203,-0.5 203,-19.5 259,-19.5 259,-0.5 203,-0.5"/>
<text text-anchor="middle" x="231" y="-7.5" font-family="Helvetica,sans-Serif" font-size="10.00">optional</text>
</a>
</g>
</g>
<!-- Node4&#45;&gt;Node8 -->
<g id="edge8" class="edge">
<title>Node4&#45;&gt;Node8</title>
<path fill="none" stroke="midnightblue" d="M204.36,-123.47C225.07,-117.1 247.58,-106.05 260,-87 272.23,-68.23 258.17,-43.54 245.7,-27.48"/>
<polygon fill="midnightblue" stroke="midnightblue" points="248.2,-25 239.12,-19.53 242.81,-29.46 248.2,-25"/>
</g>
<!-- Node9 -->
<g id="node8" class="node">
<title>Node9</title>
<g id="a_node8"><a xlink:title=" ">
<polygon fill="white" stroke="#bfbfbf" points="127,-0.5 127,-19.5 171,-19.5 171,-0.5 127,-0.5"/>
<text text-anchor="middle" x="149" y="-7.5" font-family="Helvetica,sans-Serif" font-size="10.00">string</text>
</a>
</g>
</g>
<!-- Node4&#45;&gt;Node9 -->
<g id="edge9" class="edge">
<title>Node4&#45;&gt;Node9</title>
<path fill="none" stroke="midnightblue" d="M112.35,-123.43C91.76,-117.04 69.33,-106 57,-87 49.5,-75.44 49.71,-67.69 57,-56 70.02,-35.13 95.84,-23.67 116.82,-17.55"/>
<polygon fill="midnightblue" stroke="midnightblue" points="117.88,-20.89 126.66,-14.96 116.09,-14.13 117.88,-20.89"/>
</g>
<!-- Node12 -->
<g id="node9" class="node">
<title>Node12</title>
<g id="a_node9"><a xlink:title=" ">
<polygon fill="white" stroke="#bfbfbf" points="66.5,-62 66.5,-81 111.5,-81 111.5,-62 66.5,-62"/>
<text text-anchor="middle" x="89" y="-69" font-family="Helvetica,sans-Serif" font-size="10.00">utility</text>
</a>
</g>
</g>
<!-- Node4&#45;&gt;Node12 -->
<g id="edge10" class="edge">
<title>Node4&#45;&gt;Node12</title>
<path fill="none" stroke="midnightblue" d="M148.11,-123.48C137.35,-114.2 119.93,-99.17 106.78,-87.83"/>
<polygon fill="midnightblue" stroke="midnightblue" points="108.73,-84.89 98.87,-81.01 104.16,-90.19 108.73,-84.89"/>
</g>
<!-- Node4&#45;&gt;Node13 -->
<g id="edge11" class="edge">
<title>Node4&#45;&gt;Node13</title>
<path fill="none" stroke="midnightblue" d="M184.76,-123.45C212.08,-114.64 255.66,-100.34 293,-87 295.11,-86.25 297.27,-85.46 299.46,-84.65"/>
<polygon fill="midnightblue" stroke="midnightblue" points="300.82,-87.88 308.96,-81.09 298.36,-81.33 300.82,-87.88"/>
</g>
<!-- Node5&#45;&gt;Node7 -->
<g id="edge5" class="edge">
<title>Node5&#45;&gt;Node7</title>
<path fill="none" stroke="midnightblue" d="M158.24,-56.4C135.96,-46.51 106.41,-33.38 84.81,-23.79"/>
<polygon fill="midnightblue" stroke="midnightblue" points="86.06,-20.52 75.5,-19.66 83.22,-26.91 86.06,-20.52"/>
</g>
<!-- Node5&#45;&gt;Node8 -->
<g id="edge6" class="edge">
<title>Node5&#45;&gt;Node8</title>
<path fill="none" stroke="midnightblue" d="M199.72,-56.4C205.55,-47.93 213.02,-37.1 219.19,-28.14"/>
<polygon fill="midnightblue" stroke="midnightblue" points="222.24,-29.88 225.03,-19.66 216.48,-25.91 222.24,-29.88"/>
</g>
<!-- Node5&#45;&gt;Node9 -->
<g id="edge7" class="edge">
<title>Node5&#45;&gt;Node9</title>
<path fill="none" stroke="midnightblue" d="M180.28,-56.4C174.45,-47.93 166.98,-37.1 160.81,-28.14"/>
<polygon fill="midnightblue" stroke="midnightblue" points="163.52,-25.91 154.97,-19.66 157.76,-29.88 163.52,-25.91"/>
</g>
</g>
</svg>
