<?xml version="1.0" encoding="UTF-8" standalone="no"?>
<!DOCTYPE svg PUBLIC "-//W3C//DTD SVG 1.1//EN"
 "http://www.w3.org/Graphics/SVG/1.1/DTD/svg11.dtd">
<!-- Generated by graphviz version 2.43.0 (0)
 -->
<!-- Title: include/depz/stereo/calibration_params.h Pages: 1 -->
<svg width="614pt" height="285pt"
 viewBox="0.00 0.00 614.00 285.00" xmlns="http://www.w3.org/2000/svg" xmlns:xlink="http://www.w3.org/1999/xlink">
<g id="graph0" class="graph" transform="scale(1 1) rotate(0) translate(4 281)">
<title>include/depz/stereo/calibration_params.h</title>
<polygon fill="white" stroke="transparent" points="-4,4 -4,-281 610,-281 610,4 -4,4"/>
<!-- Node1 -->
<g id="node1" class="node">
<title>Node1</title>
<g id="a_node1"><a xlink:title=" ">
<polygon fill="#bfbfbf" stroke="black" points="367.5,-246.5 367.5,-276.5 489.5,-276.5 489.5,-246.5 367.5,-246.5"/>
<text text-anchor="start" x="375.5" y="-264.5" font-family="Helvetica,sans-Serif" font-size="10.00">include/depz/stereo</text>
<text text-anchor="middle" x="428.5" y="-253.5" font-family="Helvetica,sans-Serif" font-size="10.00">/calibration_params.h</text>
</a>
</g>
</g>
<!-- Node2 -->
<g id="node2" class="node">
<title>Node2</title>
<g id="a_node2"><a xlink:href="iparameter__store_8h.html" target="_top" xlink:title="Type&#45;erased key/value parameter store interface.">
<polygon fill="white" stroke="black" points="121,-56.5 121,-86.5 242,-86.5 242,-56.5 121,-56.5"/>
<text text-anchor="start" x="129" y="-74.5" font-family="Helvetica,sans-Serif" font-size="10.00">depz/core/iparameter</text>
<text text-anchor="middle" x="181.5" y="-63.5" font-family="Helvetica,sans-Serif" font-size="10.00">_store.h</text>
</a>
</g>
</g>
<!-- Node1&#45;&gt;Node2 -->
<g id="edge1" class="edge">
<title>Node1&#45;&gt;Node2</title>
<path fill="none" stroke="midnightblue" d="M367.37,-250.65C336.58,-243.36 300.04,-230.92 272.5,-210 232.77,-179.82 204.96,-127 191.25,-96.35"/>
<polygon fill="midnightblue" stroke="midnightblue" points="194.33,-94.66 187.15,-86.88 187.91,-97.45 194.33,-94.66"/>
</g>
<!-- Node6 -->
<g id="node6" class="node">
<title>Node6</title>
<g id="a_node6"><a xlink:title=" ">
<polygon fill="white" stroke="#bfbfbf" points="432.5,-0.5 432.5,-19.5 476.5,-19.5 476.5,-0.5 432.5,-0.5"/>
<text text-anchor="middle" x="454.5" y="-7.5" font-family="Helvetica,sans-Serif" font-size="10.00">string</text>
</a>
</g>
</g>
<!-- Node1&#45;&gt;Node6 -->
<g id="edge15" class="edge">
<title>Node1&#45;&gt;Node6</title>
<path fill="none" stroke="midnightblue" d="M439.39,-246.35C446.18,-236.67 454.39,-223.25 458.5,-210 478.79,-144.53 475.41,-123.96 466.5,-56 465.34,-47.18 462.97,-37.63 460.63,-29.61"/>
<polygon fill="midnightblue" stroke="midnightblue" points="463.9,-28.34 457.59,-19.83 457.21,-30.42 463.9,-28.34"/>
</g>
<!-- Node9 -->
<g id="node9" class="node">
<title>Node9</title>
<g id="a_node9"><a xlink:href="stereocalibration_8h.html" target="_top" xlink:title="Stereo camera calibration: load, validate, rectify.">
<polygon fill="white" stroke="black" points="281.5,-190.5 281.5,-209.5 449.5,-209.5 449.5,-190.5 281.5,-190.5"/>
<text text-anchor="middle" x="365.5" y="-197.5" font-family="Helvetica,sans-Serif" font-size="10.00">depz/stereo/stereocalibration.h</text>
</a>
</g>
</g>
<!-- Node1&#45;&gt;Node9 -->
<g id="edge8" class="edge">
<title>Node1&#45;&gt;Node9</title>
<path fill="none" stroke="midnightblue" d="M413.57,-246.4C404.13,-237.49 391.92,-225.95 382.17,-216.74"/>
<polygon fill="midnightblue" stroke="midnightblue" points="384.34,-213.98 374.67,-209.66 379.53,-219.07 384.34,-213.98"/>
</g>
<!-- Node11 -->
<g id="node11" class="node">
<title>Node11</title>
<g id="a_node11"><a xlink:title=" ">
<polygon fill="white" stroke="#bfbfbf" points="513,-190.5 513,-209.5 606,-209.5 606,-190.5 513,-190.5"/>
<text text-anchor="middle" x="559.5" y="-197.5" font-family="Helvetica,sans-Serif" font-size="10.00">unordered_map</text>
</a>
</g>
</g>
<!-- Node1&#45;&gt;Node11 -->
<g id="edge16" class="edge">
<title>Node1&#45;&gt;Node11</title>
<path fill="none" stroke="midnightblue" d="M459.55,-246.4C481.23,-236.55 509.96,-223.5 531.05,-213.92"/>
<polygon fill="midnightblue" stroke="midnightblue" points="532.78,-216.98 540.44,-209.66 529.89,-210.61 532.78,-216.98"/>
</g>
<!-- Node3 -->
<g id="node3" class="node">
<title>Node3</title>
<g id="a_node3"><a xlink:title=" ">
<polygon fill="white" stroke="#bfbfbf" points="298.5,-0.5 298.5,-19.5 414.5,-19.5 414.5,-0.5 298.5,-0.5"/>
<text text-anchor="middle" x="356.5" y="-7.5" font-family="Helvetica,sans-Serif" font-size="10.00">opencv2/opencv.hpp</text>
</a>
</g>
</g>
<!-- Node2&#45;&gt;Node3 -->
<g id="edge2" class="edge">
<title>Node2&#45;&gt;Node3</title>
<path fill="none" stroke="midnightblue" d="M222.97,-56.4C253.08,-46.16 293.35,-32.47 321.77,-22.81"/>
<polygon fill="midnightblue" stroke="midnightblue" points="322.95,-26.1 331.29,-19.57 320.7,-19.48 322.95,-26.1"/>
</g>
<!-- Node4 -->
<g id="node4" class="node">
<title>Node4</title>
<g id="a_node4"><a xlink:title=" ">
<polygon fill="white" stroke="#bfbfbf" points="156.5,-0.5 156.5,-19.5 206.5,-19.5 206.5,-0.5 156.5,-0.5"/>
<text text-anchor="middle" x="181.5" y="-7.5" font-family="Helvetica,sans-Serif" font-size="10.00">cstdint</text>
</a>
</g>
</g>
<!-- Node2&#45;&gt;Node4 -->
<g id="edge3" class="edge">
<title>Node2&#45;&gt;Node4</title>
<path fill="none" stroke="midnightblue" d="M181.5,-56.4C181.5,-48.47 181.5,-38.46 181.5,-29.86"/>
<polygon fill="midnightblue" stroke="midnightblue" points="185,-29.66 181.5,-19.66 178,-29.66 185,-29.66"/>
</g>
<!-- Node5 -->
<g id="node5" class="node">
<title>Node5</title>
<g id="a_node5"><a xlink:title=" ">
<polygon fill="white" stroke="#bfbfbf" points="224.5,-0.5 224.5,-19.5 280.5,-19.5 280.5,-0.5 224.5,-0.5"/>
<text text-anchor="middle" x="252.5" y="-7.5" font-family="Helvetica,sans-Serif" font-size="10.00">optional</text>
</a>
</g>
</g>
<!-- Node2&#45;&gt;Node5 -->
<g id="edge4" class="edge">
<title>Node2&#45;&gt;Node5</title>
<path fill="none" stroke="midnightblue" d="M198.33,-56.4C209.17,-47.31 223.28,-35.49 234.37,-26.19"/>
<polygon fill="midnightblue" stroke="midnightblue" points="236.75,-28.76 242.17,-19.66 232.26,-23.4 236.75,-28.76"/>
</g>
<!-- Node2&#45;&gt;Node6 -->
<g id="edge5" class="edge">
<title>Node2&#45;&gt;Node6</title>
<path fill="none" stroke="midnightblue" d="M242.21,-59.17C289.03,-50.13 355.58,-36.62 422.35,-20.15"/>
<polygon fill="midnightblue" stroke="midnightblue" points="423.35,-23.51 432.2,-17.69 421.66,-16.71 423.35,-23.51"/>
</g>
<!-- Node7 -->
<g id="node7" class="node">
<title>Node7</title>
<g id="a_node7"><a xlink:title=" ">
<polygon fill="white" stroke="#bfbfbf" points="0,-0.5 0,-19.5 69,-19.5 69,-0.5 0,-0.5"/>
<text text-anchor="middle" x="34.5" y="-7.5" font-family="Helvetica,sans-Serif" font-size="10.00">type_traits</text>
</a>
</g>
</g>
<!-- Node2&#45;&gt;Node7 -->
<g id="edge6" class="edge">
<title>Node2&#45;&gt;Node7</title>
<path fill="none" stroke="midnightblue" d="M146.66,-56.4C122,-46.42 89.21,-33.15 65.47,-23.53"/>
<polygon fill="midnightblue" stroke="midnightblue" points="66.47,-20.17 55.89,-19.66 63.85,-26.65 66.47,-20.17"/>
</g>
<!-- Node8 -->
<g id="node8" class="node">
<title>Node8</title>
<g id="a_node8"><a xlink:title=" ">
<polygon fill="white" stroke="#bfbfbf" points="87,-0.5 87,-19.5 138,-19.5 138,-0.5 87,-0.5"/>
<text text-anchor="middle" x="112.5" y="-7.5" font-family="Helvetica,sans-Serif" font-size="10.00">variant</text>
</a>
</g>
</g>
<!-- Node2&#45;&gt;Node8 -->
<g id="edge7" class="edge">
<title>Node2&#45;&gt;Node8</title>
<path fill="none" stroke="midnightblue" d="M165.15,-56.4C154.6,-47.31 140.9,-35.49 130.12,-26.19"/>
<polygon fill="midnightblue" stroke="midnightblue" points="132.4,-23.54 122.54,-19.66 127.83,-28.84 132.4,-23.54"/>
</g>
<!-- Node9&#45;&gt;Node5 -->
<g id="edge13" class="edge">
<title>Node9&#45;&gt;Node5</title>
<path fill="none" stroke="midnightblue" d="M341.84,-190.43C325.12,-183.19 303.46,-171.23 290.5,-154 262.14,-116.31 254.91,-59.11 253.09,-29.79"/>
<polygon fill="midnightblue" stroke="midnightblue" points="256.59,-29.52 252.62,-19.69 249.59,-29.85 256.59,-29.52"/>
</g>
<!-- Node9&#45;&gt;Node6 -->
<g id="edge14" class="edge">
<title>Node9&#45;&gt;Node6</title>
<path fill="none" stroke="midnightblue" d="M383.96,-190.46C398.15,-182.9 417.04,-170.52 427.5,-154 452.22,-114.99 455.4,-58.77 455.2,-29.81"/>
<polygon fill="midnightblue" stroke="midnightblue" points="458.7,-29.43 454.97,-19.51 451.7,-29.59 458.7,-29.43"/>
</g>
<!-- Node10 -->
<g id="node10" class="node">
<title>Node10</title>
<g id="a_node10"><a xlink:href="istereo__calibration__model_8h.html" target="_top" xlink:title=" ">
<polygon fill="white" stroke="black" points="299,-123.5 299,-153.5 418,-153.5 418,-123.5 299,-123.5"/>
<text text-anchor="start" x="307" y="-141.5" font-family="Helvetica,sans-Serif" font-size="10.00">depz/stereo/istereo</text>
<text text-anchor="middle" x="358.5" y="-130.5" font-family="Helvetica,sans-Serif" font-size="10.00">_calibration_model.h</text>
</a>
</g>
</g>
<!-- Node9&#45;&gt;Node10 -->
<g id="edge9" class="edge">
<title>Node9&#45;&gt;Node10</title>
<path fill="none" stroke="midnightblue" d="M364.5,-190.48C363.67,-183.47 362.46,-173.19 361.35,-163.7"/>
<polygon fill="midnightblue" stroke="midnightblue" points="364.79,-163.05 360.15,-153.52 357.84,-163.86 364.79,-163.05"/>
</g>
<!-- Node10&#45;&gt;Node2 -->
<g id="edge10" class="edge">
<title>Node10&#45;&gt;Node2</title>
<path fill="none" stroke="midnightblue" d="M320.09,-123.4C293.54,-113.64 258,-100.59 229.57,-90.15"/>
<polygon fill="midnightblue" stroke="midnightblue" points="230.43,-86.74 219.83,-86.58 228.01,-93.31 230.43,-86.74"/>
</g>
<!-- Node10&#45;&gt;Node3 -->
<g id="edge11" class="edge">
<title>Node10&#45;&gt;Node3</title>
<path fill="none" stroke="midnightblue" d="M358.28,-123.48C357.92,-100.72 357.21,-55.7 356.8,-30.06"/>
<polygon fill="midnightblue" stroke="midnightblue" points="360.3,-29.73 356.64,-19.79 353.3,-29.84 360.3,-29.73"/>
</g>
<!-- Node10&#45;&gt;Node6 -->
<g id="edge12" class="edge">
<title>Node10&#45;&gt;Node6</title>
<path fill="none" stroke="midnightblue" d="M369.14,-123.48C386.88,-100.1 422.43,-53.25 441.58,-28.02"/>
<polygon fill="midnightblue" stroke="midnightblue" points="444.57,-29.87 447.83,-19.79 439,-25.64 444.57,-29.87"/>
</g>
</g>
</svg>
