<?xml version="1.0" encoding="UTF-8" standalone="no"?>
<!DOCTYPE svg PUBLIC "-//W3C//DTD SVG 1.1//EN"
 "http://www.w3.org/Graphics/SVG/1.1/DTD/svg11.dtd">
<!-- Generated by graphviz version 2.43.0 (0)
 -->
<!-- Title: include/depz/stereo/camera_calibration_web_loader.h Pages: 1 -->
<svg width="485pt" height="296pt"
 viewBox="0.00 0.00 485.00 296.00" xmlns="http://www.w3.org/2000/svg" xmlns:xlink="http://www.w3.org/1999/xlink">
<g id="graph0" class="graph" transform="scale(1 1) rotate(0) translate(4 292)">
<title>include/depz/stereo/camera_calibration_web_loader.h</title>
<polygon fill="white" stroke="transparent" points="-4,4 -4,-292 481,-292 481,4 -4,4"/>
<!-- Node1 -->
<g id="node1" class="node">
<title>Node1</title>
<g id="a_node1"><a xlink:title="Download stereo calibration JSON by camera serial and parse it into StereoCalibration.">
<polygon fill="#bfbfbf" stroke="black" points="354.5,-246.5 354.5,-287.5 467.5,-287.5 467.5,-246.5 354.5,-246.5"/>
<text text-anchor="start" x="362.5" y="-275.5" font-family="Helvetica,sans-Serif" font-size="10.00">include/depz/stereo</text>
<text text-anchor="start" x="362.5" y="-264.5" font-family="Helvetica,sans-Serif" font-size="10.00">/camera_calibration</text>
<text text-anchor="middle" x="411" y="-253.5" font-family="Helvetica,sans-Serif" font-size="10.00">_web_loader.h</text>
</a>
</g>
</g>
<!-- Node2 -->
<g id="node2" class="node">
<title>Node2</title>
<g id="a_node2"><a xlink:title=" ">
<polygon fill="white" stroke="#bfbfbf" points="433,-0.5 433,-19.5 477,-19.5 477,-0.5 433,-0.5"/>
<text text-anchor="middle" x="455" y="-7.5" font-family="Helvetica,sans-Serif" font-size="10.00">string</text>
</a>
</g>
</g>
<!-- Node1&#45;&gt;Node2 -->
<g id="edge1" class="edge">
<title>Node1&#45;&gt;Node2</title>
<path fill="none" stroke="midnightblue" d="M427.47,-246.28C435.05,-236.09 443.37,-223.07 448,-210 470.3,-147.08 462.94,-65.86 457.98,-29.74"/>
<polygon fill="midnightblue" stroke="midnightblue" points="461.42,-29.06 456.49,-19.68 454.49,-30.09 461.42,-29.06"/>
</g>
<!-- Node3 -->
<g id="node3" class="node">
<title>Node3</title>
<g id="a_node3"><a xlink:href="stereocalibration_8h.html" target="_top" xlink:title="Stereo camera calibration: load, validate, rectify.">
<polygon fill="white" stroke="black" points="271,-190.5 271,-209.5 439,-209.5 439,-190.5 271,-190.5"/>
<text text-anchor="middle" x="355" y="-197.5" font-family="Helvetica,sans-Serif" font-size="10.00">depz/stereo/stereocalibration.h</text>
</a>
</g>
</g>
<!-- Node1&#45;&gt;Node3 -->
<g id="edge2" class="edge">
<title>Node1&#45;&gt;Node3</title>
<path fill="none" stroke="midnightblue" d="M394.2,-246.5C386.19,-237.2 376.72,-226.21 369.09,-217.36"/>
<polygon fill="midnightblue" stroke="midnightblue" points="371.63,-214.94 362.45,-209.65 366.33,-219.51 371.63,-214.94"/>
</g>
<!-- Node3&#45;&gt;Node2 -->
<g id="edge14" class="edge">
<title>Node3&#45;&gt;Node2</title>
<path fill="none" stroke="midnightblue" d="M372.85,-190.4C386.88,-182.74 405.86,-170.23 417,-154 443.57,-115.28 451.57,-58.94 453.97,-29.89"/>
<polygon fill="midnightblue" stroke="midnightblue" points="457.49,-29.77 454.68,-19.55 450.51,-29.29 457.49,-29.77"/>
</g>
<!-- Node4 -->
<g id="node4" class="node">
<title>Node4</title>
<g id="a_node4"><a xlink:href="istereo__calibration__model_8h.html" target="_top" xlink:title=" ">
<polygon fill="white" stroke="black" points="288.5,-123.5 288.5,-153.5 407.5,-153.5 407.5,-123.5 288.5,-123.5"/>
<text text-anchor="start" x="296.5" y="-141.5" font-family="Helvetica,sans-Serif" font-size="10.00">depz/stereo/istereo</text>
<text text-anchor="middle" x="348" y="-130.5" font-family="Helvetica,sans-Serif" font-size="10.00">_calibration_model.h</text>
</a>
</g>
</g>
<!-- Node3&#45;&gt;Node4 -->
<g id="edge3" class="edge">
<title>Node3&#45;&gt;Node4</title>
<path fill="none" stroke="midnightblue" d="M354,-190.48C353.17,-183.47 351.96,-173.19 350.85,-163.7"/>
<polygon fill="midnightblue" stroke="midnightblue" points="354.29,-163.05 349.65,-153.52 347.34,-163.86 354.29,-163.05"/>
</g>
<!-- Node8 -->
<g id="node8" class="node">
<title>Node8</title>
<g id="a_node8"><a xlink:title=" ">
<polygon fill="white" stroke="#bfbfbf" points="0,-0.5 0,-19.5 56,-19.5 56,-0.5 0,-0.5"/>
<text text-anchor="middle" x="28" y="-7.5" font-family="Helvetica,sans-Serif" font-size="10.00">optional</text>
</a>
</g>
</g>
<!-- Node3&#45;&gt;Node8 -->
<g id="edge13" class="edge">
<title>Node3&#45;&gt;Node8</title>
<path fill="none" stroke="midnightblue" d="M340.1,-190.43C288.28,-160.64 115.65,-61.39 51.91,-24.75"/>
<polygon fill="midnightblue" stroke="midnightblue" points="53.4,-21.57 42.99,-19.62 49.91,-27.64 53.4,-21.57"/>
</g>
<!-- Node4&#45;&gt;Node2 -->
<g id="edge12" class="edge">
<title>Node4&#45;&gt;Node2</title>
<path fill="none" stroke="midnightblue" d="M359.86,-123.48C379.72,-100 419.61,-52.84 440.88,-27.69"/>
<polygon fill="midnightblue" stroke="midnightblue" points="443.78,-29.68 447.57,-19.79 438.44,-25.16 443.78,-29.68"/>
</g>
<!-- Node5 -->
<g id="node5" class="node">
<title>Node5</title>
<g id="a_node5"><a xlink:href="iparameter__store_8h.html" target="_top" xlink:title="Type&#45;erased key/value parameter store interface.">
<polygon fill="white" stroke="black" points="195.5,-56.5 195.5,-86.5 316.5,-86.5 316.5,-56.5 195.5,-56.5"/>
<text text-anchor="start" x="203.5" y="-74.5" font-family="Helvetica,sans-Serif" font-size="10.00">depz/core/iparameter</text>
<text text-anchor="middle" x="256" y="-63.5" font-family="Helvetica,sans-Serif" font-size="10.00">_store.h</text>
</a>
</g>
</g>
<!-- Node4&#45;&gt;Node5 -->
<g id="edge4" class="edge">
<title>Node4&#45;&gt;Node5</title>
<path fill="none" stroke="midnightblue" d="M328.04,-123.4C315.26,-114.37 298.48,-102.51 284.33,-92.52"/>
<polygon fill="midnightblue" stroke="midnightblue" points="286.11,-89.49 275.92,-86.58 282.07,-95.21 286.11,-89.49"/>
</g>
<!-- Node6 -->
<g id="node6" class="node">
<title>Node6</title>
<g id="a_node6"><a xlink:title=" ">
<polygon fill="white" stroke="#bfbfbf" points="299,-0.5 299,-19.5 415,-19.5 415,-0.5 299,-0.5"/>
<text text-anchor="middle" x="357" y="-7.5" font-family="Helvetica,sans-Serif" font-size="10.00">opencv2/opencv.hpp</text>
</a>
</g>
</g>
<!-- Node4&#45;&gt;Node6 -->
<g id="edge11" class="edge">
<title>Node4&#45;&gt;Node6</title>
<path fill="none" stroke="midnightblue" d="M349,-123.48C350.62,-100.72 353.82,-55.7 355.64,-30.06"/>
<polygon fill="midnightblue" stroke="midnightblue" points="359.16,-30.01 356.37,-19.79 352.17,-29.51 359.16,-30.01"/>
</g>
<!-- Node5&#45;&gt;Node2 -->
<g id="edge8" class="edge">
<title>Node5&#45;&gt;Node2</title>
<path fill="none" stroke="midnightblue" d="M302.91,-56.47C339.92,-45.41 390.57,-30.26 423.04,-20.56"/>
<polygon fill="midnightblue" stroke="midnightblue" points="424.32,-23.83 432.9,-17.61 422.32,-17.12 424.32,-23.83"/>
</g>
<!-- Node5&#45;&gt;Node6 -->
<g id="edge5" class="edge">
<title>Node5&#45;&gt;Node6</title>
<path fill="none" stroke="midnightblue" d="M279.94,-56.4C296.13,-46.86 317.41,-34.32 333.5,-24.84"/>
<polygon fill="midnightblue" stroke="midnightblue" points="335.46,-27.75 342.3,-19.66 331.91,-21.72 335.46,-27.75"/>
</g>
<!-- Node7 -->
<g id="node7" class="node">
<title>Node7</title>
<g id="a_node7"><a xlink:title=" ">
<polygon fill="white" stroke="#bfbfbf" points="231,-0.5 231,-19.5 281,-19.5 281,-0.5 231,-0.5"/>
<text text-anchor="middle" x="256" y="-7.5" font-family="Helvetica,sans-Serif" font-size="10.00">cstdint</text>
</a>
</g>
</g>
<!-- Node5&#45;&gt;Node7 -->
<g id="edge6" class="edge">
<title>Node5&#45;&gt;Node7</title>
<path fill="none" stroke="midnightblue" d="M256,-56.4C256,-48.47 256,-38.46 256,-29.86"/>
<polygon fill="midnightblue" stroke="midnightblue" points="259.5,-29.66 256,-19.66 252.5,-29.66 259.5,-29.66"/>
</g>
<!-- Node5&#45;&gt;Node8 -->
<g id="edge7" class="edge">
<title>Node5&#45;&gt;Node8</title>
<path fill="none" stroke="midnightblue" d="M202.26,-56.47C160.38,-45.55 103.28,-30.64 66.03,-20.92"/>
<polygon fill="midnightblue" stroke="midnightblue" points="66.64,-17.47 56.08,-18.33 64.87,-24.24 66.64,-17.47"/>
</g>
<!-- Node9 -->
<g id="node9" class="node">
<title>Node9</title>
<g id="a_node9"><a xlink:title=" ">
<polygon fill="white" stroke="#bfbfbf" points="74.5,-0.5 74.5,-19.5 143.5,-19.5 143.5,-0.5 74.5,-0.5"/>
<text text-anchor="middle" x="109" y="-7.5" font-family="Helvetica,sans-Serif" font-size="10.00">type_traits</text>
</a>
</g>
</g>
<!-- Node5&#45;&gt;Node9 -->
<g id="edge9" class="edge">
<title>Node5&#45;&gt;Node9</title>
<path fill="none" stroke="midnightblue" d="M221.16,-56.4C196.5,-46.42 163.71,-33.15 139.97,-23.53"/>
<polygon fill="midnightblue" stroke="midnightblue" points="140.97,-20.17 130.39,-19.66 138.35,-26.65 140.97,-20.17"/>
</g>
<!-- Node10 -->
<g id="node10" class="node">
<title>Node10</title>
<g id="a_node10"><a xlink:title=" ">
<polygon fill="white" stroke="#bfbfbf" points="161.5,-0.5 161.5,-19.5 212.5,-19.5 212.5,-0.5 161.5,-0.5"/>
<text text-anchor="middle" x="187" y="-7.5" font-family="Helvetica,sans-Serif" font-size="10.00">variant</text>
</a>
</g>
</g>
<!-- Node5&#45;&gt;Node10 -->
<g id="edge10" class="edge">
<title>Node5&#45;&gt;Node10</title>
<path fill="none" stroke="midnightblue" d="M239.65,-56.4C229.1,-47.31 215.4,-35.49 204.62,-26.19"/>
<polygon fill="midnightblue" stroke="midnightblue" points="206.9,-23.54 197.04,-19.66 202.33,-28.84 206.9,-23.54"/>
</g>
</g>
</svg>
