<?xml version="1.0" encoding="UTF-8" standalone="no"?>
<!DOCTYPE svg PUBLIC "-//W3C//DTD SVG 1.1//EN"
 "http://www.w3.org/Graphics/SVG/1.1/DTD/svg11.dtd">
<!-- Generated by graphviz version 2.43.0 (0)
 -->
<!-- Title: include/depz/camera/camera_control.h Pages: 1 -->
<svg width="485pt" height="218pt"
 viewBox="0.00 0.00 485.00 218.00" xmlns="http://www.w3.org/2000/svg" xmlns:xlink="http://www.w3.org/1999/xlink">
<g id="graph0" class="graph" transform="scale(1 1) rotate(0) translate(4 214)">
<title>include/depz/camera/camera_control.h</title>
<polygon fill="white" stroke="transparent" points="-4,4 -4,-214 481,-214 481,4 -4,4"/>
<!-- Node1 -->
<g id="node1" class="node">
<title>Node1</title>
<g id="a_node1"><a xlink:title=" ">
<polygon fill="#bfbfbf" stroke="black" points="156,-179.5 156,-209.5 274,-209.5 274,-179.5 156,-179.5"/>
<text text-anchor="start" x="164" y="-197.5" font-family="Helvetica,sans-Serif" font-size="10.00">include/depz/camera</text>
<text text-anchor="middle" x="215" y="-186.5" font-family="Helvetica,sans-Serif" font-size="10.00">/camera_control.h</text>
</a>
</g>
</g>
<!-- Node2 -->
<g id="node2" class="node">
<title>Node2</title>
<g id="a_node2"><a xlink:href="param__spec_8h.html" target="_top" xlink:title=" ">
<polygon fill="white" stroke="black" points="147.5,-123.5 147.5,-142.5 282.5,-142.5 282.5,-123.5 147.5,-123.5"/>
<text text-anchor="middle" x="215" y="-130.5" font-family="Helvetica,sans-Serif" font-size="10.00">depz/core/param_spec.h</text>
</a>
</g>
</g>
<!-- Node1&#45;&gt;Node2 -->
<g id="edge1" class="edge">
<title>Node1&#45;&gt;Node2</title>
<path fill="none" stroke="midnightblue" d="M215,-179.4C215,-171.47 215,-161.46 215,-152.86"/>
<polygon fill="midnightblue" stroke="midnightblue" points="218.5,-152.66 215,-142.66 211.5,-152.66 218.5,-152.66"/>
</g>
<!-- Node6 -->
<g id="node6" class="node">
<title>Node6</title>
<g id="a_node6"><a xlink:title=" ">
<polygon fill="white" stroke="#bfbfbf" points="0,-0.5 0,-19.5 56,-19.5 56,-0.5 0,-0.5"/>
<text text-anchor="middle" x="28" y="-7.5" font-family="Helvetica,sans-Serif" font-size="10.00">optional</text>
</a>
</g>
</g>
<!-- Node1&#45;&gt;Node6 -->
<g id="edge13" class="edge">
<title>Node1&#45;&gt;Node6</title>
<path fill="none" stroke="midnightblue" d="M187.4,-179.43C154.92,-161.69 101.09,-128.43 67,-87 52.47,-69.34 41.29,-45.38 34.7,-29.11"/>
<polygon fill="midnightblue" stroke="midnightblue" points="37.92,-27.74 31.04,-19.68 31.4,-30.27 37.92,-27.74"/>
</g>
<!-- Node7 -->
<g id="node7" class="node">
<title>Node7</title>
<g id="a_node7"><a xlink:title=" ">
<polygon fill="white" stroke="#bfbfbf" points="433,-0.5 433,-19.5 477,-19.5 477,-0.5 433,-0.5"/>
<text text-anchor="middle" x="455" y="-7.5" font-family="Helvetica,sans-Serif" font-size="10.00">string</text>
</a>
</g>
</g>
<!-- Node1&#45;&gt;Node7 -->
<g id="edge14" class="edge">
<title>Node1&#45;&gt;Node7</title>
<path fill="none" stroke="midnightblue" d="M252.45,-179.38C293.93,-162.33 361,-130.45 407,-87 424.66,-70.32 438.59,-45.82 446.8,-29.18"/>
<polygon fill="midnightblue" stroke="midnightblue" points="450.04,-30.51 451.15,-19.97 443.71,-27.52 450.04,-30.51"/>
</g>
<!-- Node3 -->
<g id="node3" class="node">
<title>Node3</title>
<g id="a_node3"><a xlink:href="iparameter__store_8h.html" target="_top" xlink:title="Type&#45;erased key/value parameter store interface.">
<polygon fill="white" stroke="black" points="243.5,-56.5 243.5,-86.5 364.5,-86.5 364.5,-56.5 243.5,-56.5"/>
<text text-anchor="start" x="251.5" y="-74.5" font-family="Helvetica,sans-Serif" font-size="10.00">depz/core/iparameter</text>
<text text-anchor="middle" x="304" y="-63.5" font-family="Helvetica,sans-Serif" font-size="10.00">_store.h</text>
</a>
</g>
</g>
<!-- Node2&#45;&gt;Node3 -->
<g id="edge2" class="edge">
<title>Node2&#45;&gt;Node3</title>
<path fill="none" stroke="midnightblue" d="M227.75,-123.48C239.92,-115.34 258.69,-102.79 274.56,-92.18"/>
<polygon fill="midnightblue" stroke="midnightblue" points="276.66,-94.99 283.02,-86.52 272.77,-89.17 276.66,-94.99"/>
</g>
<!-- Node2&#45;&gt;Node6 -->
<g id="edge9" class="edge">
<title>Node2&#45;&gt;Node6</title>
<path fill="none" stroke="midnightblue" d="M215.34,-123.36C215.46,-107.69 213.37,-74.48 195,-56 192.67,-53.66 114.63,-33.27 66.07,-20.75"/>
<polygon fill="midnightblue" stroke="midnightblue" points="66.74,-17.32 56.19,-18.21 65,-24.09 66.74,-17.32"/>
</g>
<!-- Node2&#45;&gt;Node7 -->
<g id="edge10" class="edge">
<title>Node2&#45;&gt;Node7</title>
<path fill="none" stroke="midnightblue" d="M268.68,-123.45C300.73,-116.76 341.41,-105.43 374,-87 401.3,-71.56 426.61,-45.06 441.43,-27.79"/>
<polygon fill="midnightblue" stroke="midnightblue" points="444.46,-29.62 448.19,-19.7 439.09,-25.14 444.46,-29.62"/>
</g>
<!-- Node10 -->
<g id="node10" class="node">
<title>Node10</title>
<g id="a_node10"><a xlink:title=" ">
<polygon fill="white" stroke="#bfbfbf" points="76.5,-62 76.5,-81 121.5,-81 121.5,-62 76.5,-62"/>
<text text-anchor="middle" x="99" y="-69" font-family="Helvetica,sans-Serif" font-size="10.00">utility</text>
</a>
</g>
</g>
<!-- Node2&#45;&gt;Node10 -->
<g id="edge11" class="edge">
<title>Node2&#45;&gt;Node10</title>
<path fill="none" stroke="midnightblue" d="M198.38,-123.48C179.08,-113.58 147.04,-97.14 124.57,-85.62"/>
<polygon fill="midnightblue" stroke="midnightblue" points="126.08,-82.46 115.59,-81.01 122.89,-88.69 126.08,-82.46"/>
</g>
<!-- Node11 -->
<g id="node11" class="node">
<title>Node11</title>
<g id="a_node11"><a xlink:title=" ">
<polygon fill="white" stroke="#bfbfbf" points="139.5,-62 139.5,-81 186.5,-81 186.5,-62 139.5,-62"/>
<text text-anchor="middle" x="163" y="-69" font-family="Helvetica,sans-Serif" font-size="10.00">vector</text>
</a>
</g>
</g>
<!-- Node2&#45;&gt;Node11 -->
<g id="edge12" class="edge">
<title>Node2&#45;&gt;Node11</title>
<path fill="none" stroke="midnightblue" d="M207.55,-123.48C199.67,-114.46 187.06,-100.02 177.26,-88.81"/>
<polygon fill="midnightblue" stroke="midnightblue" points="179.65,-86.24 170.44,-81.01 174.38,-90.84 179.65,-86.24"/>
</g>
<!-- Node4 -->
<g id="node4" class="node">
<title>Node4</title>
<g id="a_node4"><a xlink:title=" ">
<polygon fill="white" stroke="#bfbfbf" points="74,-0.5 74,-19.5 190,-19.5 190,-0.5 74,-0.5"/>
<text text-anchor="middle" x="132" y="-7.5" font-family="Helvetica,sans-Serif" font-size="10.00">opencv2/opencv.hpp</text>
</a>
</g>
</g>
<!-- Node3&#45;&gt;Node4 -->
<g id="edge3" class="edge">
<title>Node3&#45;&gt;Node4</title>
<path fill="none" stroke="midnightblue" d="M263.24,-56.4C233.78,-46.21 194.41,-32.59 166.5,-22.93"/>
<polygon fill="midnightblue" stroke="midnightblue" points="167.37,-19.53 156.78,-19.57 165.08,-26.15 167.37,-19.53"/>
</g>
<!-- Node5 -->
<g id="node5" class="node">
<title>Node5</title>
<g id="a_node5"><a xlink:title=" ">
<polygon fill="white" stroke="#bfbfbf" points="208,-0.5 208,-19.5 258,-19.5 258,-0.5 208,-0.5"/>
<text text-anchor="middle" x="233" y="-7.5" font-family="Helvetica,sans-Serif" font-size="10.00">cstdint</text>
</a>
</g>
</g>
<!-- Node3&#45;&gt;Node5 -->
<g id="edge4" class="edge">
<title>Node3&#45;&gt;Node5</title>
<path fill="none" stroke="midnightblue" d="M287.17,-56.4C276.33,-47.31 262.22,-35.49 251.13,-26.19"/>
<polygon fill="midnightblue" stroke="midnightblue" points="253.24,-23.4 243.33,-19.66 248.75,-28.76 253.24,-23.4"/>
</g>
<!-- Node3&#45;&gt;Node6 -->
<g id="edge5" class="edge">
<title>Node3&#45;&gt;Node6</title>
<path fill="none" stroke="midnightblue" d="M243.48,-58.24C197.46,-48.8 132.32,-35.18 66.41,-20.27"/>
<polygon fill="midnightblue" stroke="midnightblue" points="66.79,-16.77 56.26,-17.97 65.24,-23.59 66.79,-16.77"/>
</g>
<!-- Node3&#45;&gt;Node7 -->
<g id="edge6" class="edge">
<title>Node3&#45;&gt;Node7</title>
<path fill="none" stroke="midnightblue" d="M339.78,-56.4C365.23,-46.37 399.1,-33.03 423.52,-23.4"/>
<polygon fill="midnightblue" stroke="midnightblue" points="425.01,-26.58 433.03,-19.66 422.44,-20.07 425.01,-26.58"/>
</g>
<!-- Node8 -->
<g id="node8" class="node">
<title>Node8</title>
<g id="a_node8"><a xlink:title=" ">
<polygon fill="white" stroke="#bfbfbf" points="276.5,-0.5 276.5,-19.5 345.5,-19.5 345.5,-0.5 276.5,-0.5"/>
<text text-anchor="middle" x="311" y="-7.5" font-family="Helvetica,sans-Serif" font-size="10.00">type_traits</text>
</a>
</g>
</g>
<!-- Node3&#45;&gt;Node8 -->
<g id="edge7" class="edge">
<title>Node3&#45;&gt;Node8</title>
<path fill="none" stroke="midnightblue" d="M305.66,-56.4C306.59,-48.47 307.77,-38.46 308.78,-29.86"/>
<polygon fill="midnightblue" stroke="midnightblue" points="312.29,-30 309.98,-19.66 305.34,-29.18 312.29,-30"/>
</g>
<!-- Node9 -->
<g id="node9" class="node">
<title>Node9</title>
<g id="a_node9"><a xlink:title=" ">
<polygon fill="white" stroke="#bfbfbf" points="363.5,-0.5 363.5,-19.5 414.5,-19.5 414.5,-0.5 363.5,-0.5"/>
<text text-anchor="middle" x="389" y="-7.5" font-family="Helvetica,sans-Serif" font-size="10.00">variant</text>
</a>
</g>
</g>
<!-- Node3&#45;&gt;Node9 -->
<g id="edge8" class="edge">
<title>Node3&#45;&gt;Node9</title>
<path fill="none" stroke="midnightblue" d="M324.14,-56.4C337.39,-47.13 354.68,-35.03 368.08,-25.65"/>
<polygon fill="midnightblue" stroke="midnightblue" points="370.45,-28.26 376.63,-19.66 366.43,-22.53 370.45,-28.26"/>
</g>
</g>
</svg>
