<?xml version="1.0" encoding="UTF-8" standalone="no"?>
<!DOCTYPE svg PUBLIC "-//W3C//DTD SVG 1.1//EN"
 "http://www.w3.org/Graphics/SVG/1.1/DTD/svg11.dtd">
<!-- Generated by graphviz version 2.43.0 (0)
 -->
<!-- Title: include/depz/camera/camera_spec.h Pages: 1 -->
<!--zoomable 296 -->
<svg id="main" version="1.1" xmlns="http://www.w3.org/2000/svg" xmlns:xlink="http://www.w3.org/1999/xlink" xml:space="preserve" onload="init(evt)">
<style type="text/css"><![CDATA[
.edge:hover path { stroke: red; }
.edge:hover polygon { stroke: red; fill: red; }
]]></style>
<script type="text/javascript"><![CDATA[
var edges = document.getElementsByTagName('g');
if (edges && edges.length) {
  for (var i=0;i<edges.length;i++) {
    if (edges[i].id.substr(0,4)=='edge') {
      edges[i].setAttribute('class','edge');
    }
  }
}
]]></script>
        <defs>
                <circle id="rim" cx="0" cy="0" r="7"/>
                <circle id="rim2" cx="0" cy="0" r="3.5"/>
                <g id="zoomPlus">
                        <use xlink:href="#rim" fill="#404040">
                                <set attributeName="fill" to="#808080" begin="zoomplus.mouseover" end="zoomplus.mouseout"/>
                        </use>
                        <path d="M-4,0h8M0,-4v8" fill="none" stroke="white" stroke-width="1.5" pointer-events="none"/>
                </g>
                <g id="zoomMin">
                        <use xlink:href="#rim" fill="#404040">
                                <set attributeName="fill" to="#808080" begin="zoomminus.mouseover" end="zoomminus.mouseout"/>
                        </use>
                        <path d="M-4,0h8" fill="none" stroke="white" stroke-width="1.5" pointer-events="none"/>
                </g>
                <g id="dirArrow">
                        <path fill="none" stroke="white" stroke-width="1.5" d="M0,-3.0v7 M-2.5,-0.5L0,-3.0L2.5,-0.5"/>
                </g>
               <g id="resetDef">
                       <use xlink:href="#rim2" fill="#404040">
                               <set attributeName="fill" to="#808080" begin="reset.mouseover" end="reset.mouseout"/>
                       </use>
               </g>
        </defs>

<script type="text/javascript">
var viewWidth = 624;
var viewHeight = 296;
var sectionId = 'dynsection-0';
</script>
<script xlink:href="svgpan.js"/>
<svg id="graph" class="graph">
<g id="viewport">
<title>include/depz/camera/camera_spec.h</title>
<polygon fill="white" stroke="transparent" points="-4,4 -4,-292 619.5,-292 619.5,4 -4,4"/>
<!-- Node1 -->
<g id="node1" class="node">
<title>Node1</title>
<g id="a_node1"><a xlink:title=" ">
<polygon fill="#bfbfbf" stroke="black" points="390,-257.5 390,-287.5 508,-287.5 508,-257.5 390,-257.5"/>
<text text-anchor="start" x="398" y="-275.5" font-family="Helvetica,sans-Serif" font-size="10.00">include/depz/camera</text>
<text text-anchor="middle" x="449" y="-264.5" font-family="Helvetica,sans-Serif" font-size="10.00">/camera_spec.h</text>
</a>
</g>
</g>
<!-- Node2 -->
<g id="node2" class="node">
<title>Node2</title>
<g id="a_node2"><a xlink:href="camera__control_8h.html" target="_top" xlink:title=" ">
<polygon fill="white" stroke="black" points="245.5,-190.5 245.5,-220.5 364.5,-220.5 364.5,-190.5 245.5,-190.5"/>
<text text-anchor="start" x="253.5" y="-208.5" font-family="Helvetica,sans-Serif" font-size="10.00">depz/camera/camera</text>
<text text-anchor="middle" x="305" y="-197.5" font-family="Helvetica,sans-Serif" font-size="10.00">_control.h</text>
</a>
</g>
</g>
<!-- Node1&#45;&gt;Node2 -->
<g id="edge1" class="edge">
<title>Node1&#45;&gt;Node2</title>
<path fill="none" stroke="midnightblue" d="M417.75,-257.4C396.53,-247.81 368.25,-235.05 345.32,-224.7"/>
<polygon fill="midnightblue" stroke="midnightblue" points="346.74,-221.5 336.18,-220.58 343.86,-227.88 346.74,-221.5"/>
</g>
<!-- Node8 -->
<g id="node8" class="node">
<title>Node8</title>
<g id="a_node8"><a xlink:title=" ">
<polygon fill="white" stroke="#bfbfbf" points="433,-0.5 433,-19.5 477,-19.5 477,-0.5 433,-0.5"/>
<text text-anchor="middle" x="455" y="-7.5" font-family="Helvetica,sans-Serif" font-size="10.00">string</text>
</a>
</g>
</g>
<!-- Node1&#45;&gt;Node8 -->
<g id="edge18" class="edge">
<title>Node1&#45;&gt;Node8</title>
<path fill="none" stroke="midnightblue" d="M450.38,-257.37C451.31,-247.25 452.45,-233.3 453,-221 456.12,-150.66 455.67,-66.95 455.26,-30.06"/>
<polygon fill="midnightblue" stroke="midnightblue" points="458.76,-29.76 455.14,-19.81 451.76,-29.85 458.76,-29.76"/>
</g>
<!-- Node12 -->
<g id="node12" class="node">
<title>Node12</title>
<g id="a_node12"><a xlink:title=" ">
<polygon fill="white" stroke="#bfbfbf" points="392.5,-62 392.5,-81 439.5,-81 439.5,-62 392.5,-62"/>
<text text-anchor="middle" x="416" y="-69" font-family="Helvetica,sans-Serif" font-size="10.00">vector</text>
</a>
</g>
</g>
<!-- Node1&#45;&gt;Node12 -->
<g id="edge19" class="edge">
<title>Node1&#45;&gt;Node12</title>
<path fill="none" stroke="midnightblue" d="M446.63,-257.19C440.78,-221.91 425.66,-130.78 419.11,-91.25"/>
<polygon fill="midnightblue" stroke="midnightblue" points="422.56,-90.65 417.47,-81.36 415.65,-91.8 422.56,-90.65"/>
</g>
<!-- Node13 -->
<g id="node13" class="node">
<title>Node13</title>
<g id="a_node13"><a xlink:href="capture__mode_8h.html" target="_top" xlink:title="CaptureMode POD describing one camera resolution/format/rate.">
<polygon fill="white" stroke="black" points="496.5,-123.5 496.5,-153.5 615.5,-153.5 615.5,-123.5 496.5,-123.5"/>
<text text-anchor="start" x="504.5" y="-141.5" font-family="Helvetica,sans-Serif" font-size="10.00">depz/camera/capture</text>
<text text-anchor="middle" x="556" y="-130.5" font-family="Helvetica,sans-Serif" font-size="10.00">_mode.h</text>
</a>
</g>
</g>
<!-- Node1&#45;&gt;Node13 -->
<g id="edge16" class="edge">
<title>Node1&#45;&gt;Node13</title>
<path fill="none" stroke="midnightblue" d="M460.45,-257.37C479.11,-234.35 516.22,-188.57 538.3,-161.34"/>
<polygon fill="midnightblue" stroke="midnightblue" points="541.05,-163.5 544.63,-153.52 535.62,-159.09 541.05,-163.5"/>
</g>
<!-- Node3 -->
<g id="node3" class="node">
<title>Node3</title>
<g id="a_node3"><a xlink:href="param__spec_8h.html" target="_top" xlink:title=" ">
<polygon fill="white" stroke="black" points="200.5,-129 200.5,-148 335.5,-148 335.5,-129 200.5,-129"/>
<text text-anchor="middle" x="268" y="-136" font-family="Helvetica,sans-Serif" font-size="10.00">depz/core/param_spec.h</text>
</a>
</g>
</g>
<!-- Node2&#45;&gt;Node3 -->
<g id="edge2" class="edge">
<title>Node2&#45;&gt;Node3</title>
<path fill="none" stroke="midnightblue" d="M296.97,-190.4C291.37,-180.56 283.87,-167.38 277.9,-156.89"/>
<polygon fill="midnightblue" stroke="midnightblue" points="280.94,-155.15 272.95,-148.19 274.85,-158.62 280.94,-155.15"/>
</g>
<!-- Node7 -->
<g id="node7" class="node">
<title>Node7</title>
<g id="a_node7"><a xlink:title=" ">
<polygon fill="white" stroke="#bfbfbf" points="0,-0.5 0,-19.5 56,-19.5 56,-0.5 0,-0.5"/>
<text text-anchor="middle" x="28" y="-7.5" font-family="Helvetica,sans-Serif" font-size="10.00">optional</text>
</a>
</g>
</g>
<!-- Node2&#45;&gt;Node7 -->
<g id="edge14" class="edge">
<title>Node2&#45;&gt;Node7</title>
<path fill="none" stroke="midnightblue" d="M251.98,-190.48C198.3,-173.84 116,-141.29 64,-87 48.26,-70.57 38.34,-45.97 32.99,-29.25"/>
<polygon fill="midnightblue" stroke="midnightblue" points="36.32,-28.15 30.12,-19.56 29.6,-30.14 36.32,-28.15"/>
</g>
<!-- Node2&#45;&gt;Node8 -->
<g id="edge15" class="edge">
<title>Node2&#45;&gt;Node8</title>
<path fill="none" stroke="midnightblue" d="M317.76,-190.24C326,-180.52 336.54,-167.09 344,-154 367.22,-113.28 352.96,-91.99 383,-56 394.31,-42.45 410.8,-31.72 425.14,-24.15"/>
<polygon fill="midnightblue" stroke="midnightblue" points="426.8,-27.24 434.18,-19.63 423.67,-20.97 426.8,-27.24"/>
</g>
<!-- Node4 -->
<g id="node4" class="node">
<title>Node4</title>
<g id="a_node4"><a xlink:href="iparameter__store_8h.html" target="_top" xlink:title="Type&#45;erased key/value parameter store interface.">
<polygon fill="white" stroke="black" points="113.5,-56.5 113.5,-86.5 234.5,-86.5 234.5,-56.5 113.5,-56.5"/>
<text text-anchor="start" x="121.5" y="-74.5" font-family="Helvetica,sans-Serif" font-size="10.00">depz/core/iparameter</text>
<text text-anchor="middle" x="174" y="-63.5" font-family="Helvetica,sans-Serif" font-size="10.00">_store.h</text>
</a>
</g>
</g>
<!-- Node3&#45;&gt;Node4 -->
<g id="edge3" class="edge">
<title>Node3&#45;&gt;Node4</title>
<path fill="none" stroke="midnightblue" d="M255.32,-128.73C241.89,-119.44 220.22,-104.46 202.63,-92.3"/>
<polygon fill="midnightblue" stroke="midnightblue" points="204.59,-89.4 194.37,-86.59 200.61,-95.16 204.59,-89.4"/>
</g>
<!-- Node3&#45;&gt;Node7 -->
<g id="edge10" class="edge">
<title>Node3&#45;&gt;Node7</title>
<path fill="none" stroke="midnightblue" d="M219.14,-128.96C185.1,-121.51 139.6,-108.44 104,-87 78,-71.34 54.36,-44.9 40.58,-27.7"/>
<polygon fill="midnightblue" stroke="midnightblue" points="43.21,-25.39 34.31,-19.65 37.69,-29.69 43.21,-25.39"/>
</g>
<!-- Node3&#45;&gt;Node8 -->
<g id="edge11" class="edge">
<title>Node3&#45;&gt;Node8</title>
<path fill="none" stroke="midnightblue" d="M274.82,-128.81C287.9,-112.62 318.06,-77.56 350,-56 372.71,-40.68 401.48,-28.79 423.16,-21.09"/>
<polygon fill="midnightblue" stroke="midnightblue" points="424.56,-24.31 432.87,-17.75 422.28,-17.69 424.56,-24.31"/>
</g>
<!-- Node11 -->
<g id="node11" class="node">
<title>Node11</title>
<g id="a_node11"><a xlink:title=" ">
<polygon fill="white" stroke="#bfbfbf" points="252.5,-62 252.5,-81 297.5,-81 297.5,-62 252.5,-62"/>
<text text-anchor="middle" x="275" y="-69" font-family="Helvetica,sans-Serif" font-size="10.00">utility</text>
</a>
</g>
</g>
<!-- Node3&#45;&gt;Node11 -->
<g id="edge12" class="edge">
<title>Node3&#45;&gt;Node11</title>
<path fill="none" stroke="midnightblue" d="M268.94,-128.73C269.97,-119.18 271.65,-103.62 272.98,-91.28"/>
<polygon fill="midnightblue" stroke="midnightblue" points="276.48,-91.44 274.07,-81.13 269.52,-90.7 276.48,-91.44"/>
</g>
<!-- Node3&#45;&gt;Node12 -->
<g id="edge13" class="edge">
<title>Node3&#45;&gt;Node12</title>
<path fill="none" stroke="midnightblue" d="M287.65,-128.87C313.09,-117.7 357.6,-98.15 386.95,-85.26"/>
<polygon fill="midnightblue" stroke="midnightblue" points="388.52,-88.39 396.27,-81.17 385.7,-81.98 388.52,-88.39"/>
</g>
<!-- Node5 -->
<g id="node5" class="node">
<title>Node5</title>
<g id="a_node5"><a xlink:title=" ">
<polygon fill="white" stroke="#bfbfbf" points="231,-0.5 231,-19.5 347,-19.5 347,-0.5 231,-0.5"/>
<text text-anchor="middle" x="289" y="-7.5" font-family="Helvetica,sans-Serif" font-size="10.00">opencv2/opencv.hpp</text>
</a>
</g>
</g>
<!-- Node4&#45;&gt;Node5 -->
<g id="edge4" class="edge">
<title>Node4&#45;&gt;Node5</title>
<path fill="none" stroke="midnightblue" d="M201.25,-56.4C220.03,-46.68 244.83,-33.86 263.27,-24.31"/>
<polygon fill="midnightblue" stroke="midnightblue" points="264.99,-27.36 272.27,-19.66 261.78,-21.14 264.99,-27.36"/>
</g>
<!-- Node6 -->
<g id="node6" class="node">
<title>Node6</title>
<g id="a_node6"><a xlink:title=" ">
<polygon fill="white" stroke="#bfbfbf" points="365,-0.5 365,-19.5 415,-19.5 415,-0.5 365,-0.5"/>
<text text-anchor="middle" x="390" y="-7.5" font-family="Helvetica,sans-Serif" font-size="10.00">cstdint</text>
</a>
</g>
</g>
<!-- Node4&#45;&gt;Node6 -->
<g id="edge5" class="edge">
<title>Node4&#45;&gt;Node6</title>
<path fill="none" stroke="midnightblue" d="M224.92,-56.47C264.99,-45.44 319.77,-30.34 355.03,-20.63"/>
<polygon fill="midnightblue" stroke="midnightblue" points="356.15,-23.95 364.86,-17.92 354.29,-17.21 356.15,-23.95"/>
</g>
<!-- Node4&#45;&gt;Node7 -->
<g id="edge6" class="edge">
<title>Node4&#45;&gt;Node7</title>
<path fill="none" stroke="midnightblue" d="M139.4,-56.4C114.9,-46.42 82.34,-33.15 58.75,-23.53"/>
<polygon fill="midnightblue" stroke="midnightblue" points="59.83,-20.19 49.24,-19.66 57.18,-26.67 59.83,-20.19"/>
</g>
<!-- Node4&#45;&gt;Node8 -->
<g id="edge7" class="edge">
<title>Node4&#45;&gt;Node8</title>
<path fill="none" stroke="midnightblue" d="M234.57,-57.73C237.42,-57.14 240.24,-56.56 243,-56 320.22,-40.21 342.59,-39.49 422.65,-20.17"/>
<polygon fill="midnightblue" stroke="midnightblue" points="423.82,-23.49 432.71,-17.72 422.17,-16.69 423.82,-23.49"/>
</g>
<!-- Node9 -->
<g id="node9" class="node">
<title>Node9</title>
<g id="a_node9"><a xlink:title=" ">
<polygon fill="white" stroke="#bfbfbf" points="74.5,-0.5 74.5,-19.5 143.5,-19.5 143.5,-0.5 74.5,-0.5"/>
<text text-anchor="middle" x="109" y="-7.5" font-family="Helvetica,sans-Serif" font-size="10.00">type_traits</text>
</a>
</g>
</g>
<!-- Node4&#45;&gt;Node9 -->
<g id="edge8" class="edge">
<title>Node4&#45;&gt;Node9</title>
<path fill="none" stroke="midnightblue" d="M158.6,-56.4C148.76,-47.4 136.01,-35.72 125.89,-26.47"/>
<polygon fill="midnightblue" stroke="midnightblue" points="128.2,-23.83 118.46,-19.66 123.47,-28.99 128.2,-23.83"/>
</g>
<!-- Node10 -->
<g id="node10" class="node">
<title>Node10</title>
<g id="a_node10"><a xlink:title=" ">
<polygon fill="white" stroke="#bfbfbf" points="161.5,-0.5 161.5,-19.5 212.5,-19.5 212.5,-0.5 161.5,-0.5"/>
<text text-anchor="middle" x="187" y="-7.5" font-family="Helvetica,sans-Serif" font-size="10.00">variant</text>
</a>
</g>
</g>
<!-- Node4&#45;&gt;Node10 -->
<g id="edge9" class="edge">
<title>Node4&#45;&gt;Node10</title>
<path fill="none" stroke="midnightblue" d="M177.08,-56.4C178.83,-48.38 181.05,-38.23 182.94,-29.57"/>
<polygon fill="midnightblue" stroke="midnightblue" points="186.39,-30.17 185.11,-19.66 179.55,-28.68 186.39,-30.17"/>
</g>
<!-- Node13&#45;&gt;Node8 -->
<g id="edge17" class="edge">
<title>Node13&#45;&gt;Node8</title>
<path fill="none" stroke="midnightblue" d="M544.81,-123.48C526.06,-100 488.41,-52.84 468.33,-27.69"/>
<polygon fill="midnightblue" stroke="midnightblue" points="470.99,-25.42 462.02,-19.79 465.52,-29.79 470.99,-25.42"/>
</g>
</g>
</svg>
        <g id="navigator" transform="translate(0 0)" fill="#404254">
                <rect fill="#f2f5e9" fill-opacity="0.5" stroke="#606060" stroke-width=".5" x="0" y="0" width="60" height="60"/>
                <use id="zoomplus" xlink:href="#zoomPlus" x="17" y="9" onmousedown="handleZoom(evt,'in')"/>
                <use id="zoomminus" xlink:href="#zoomMin" x="42" y="9" onmousedown="handleZoom(evt,'out')"/>
                <use id="reset" xlink:href="#resetDef" x="30" y="36" onmousedown="handleReset()"/>
                <g id="arrowUp" xlink:href="#dirArrow" transform="translate(30 24)" onmousedown="handlePan(0,-1)">
                  <use xlink:href="#rim" fill="#404040">
                        <set attributeName="fill" to="#808080" begin="arrowUp.mouseover" end="arrowUp.mouseout"/>
                  </use>
                  <path fill="none" stroke="white" stroke-width="1.5" d="M0,-3.0v7 M-2.5,-0.5L0,-3.0L2.5,-0.5"/>
                </g>
                <g id="arrowRight" xlink:href="#dirArrow" transform="rotate(90) translate(36 -43)" onmousedown="handlePan(1,0)">
                  <use xlink:href="#rim" fill="#404040">
                        <set attributeName="fill" to="#808080" begin="arrowRight.mouseover" end="arrowRight.mouseout"/>
                  </use>
                  <path fill="none" stroke="white" stroke-width="1.5" d="M0,-3.0v7 M-2.5,-0.5L0,-3.0L2.5,-0.5"/>
                </g>
                <g id="arrowDown" xlink:href="#dirArrow" transform="rotate(180) translate(-30 -48)" onmousedown="handlePan(0,1)">
                  <use xlink:href="#rim" fill="#404040">
                        <set attributeName="fill" to="#808080" begin="arrowDown.mouseover" end="arrowDown.mouseout"/>
                  </use>
                  <path fill="none" stroke="white" stroke-width="1.5" d="M0,-3.0v7 M-2.5,-0.5L0,-3.0L2.5,-0.5"/>
                </g>
                <g id="arrowLeft" xlink:href="#dirArrow" transform="rotate(270) translate(-36 17)" onmousedown="handlePan(-1,0)">
                  <use xlink:href="#rim" fill="#404040">
                        <set attributeName="fill" to="#808080" begin="arrowLeft.mouseover" end="arrowLeft.mouseout"/>
                  </use>
                  <path fill="none" stroke="white" stroke-width="1.5" d="M0,-3.0v7 M-2.5,-0.5L0,-3.0L2.5,-0.5"/>
                </g>
        </g>
        <svg viewBox="0 0 15 15" width="100%" height="30px" preserveAspectRatio="xMaxYMin meet">
         <g id="arrow_out" transform="scale(0.3 0.3)">
          <a xlink:href="camera__spec_8h__incl_org.svg" target="_base">
           <rect id="button" ry="5" rx="5" y="6" x="6" height="38" width="38"
                fill="#f2f5e9" fill-opacity="0.5" stroke="#606060" stroke-width="1.0"/>
           <path id="arrow"
             d="M 11.500037,31.436501 C 11.940474,20.09759 22.043105,11.32322 32.158766,21.979434 L 37.068811,17.246167 C 37.068811,17.246167 37.088388,32 37.088388,32 L 22.160133,31.978069 C 22.160133,31.978069 26.997745,27.140456 26.997745,27.140456 C 18.528582,18.264221 13.291696,25.230495 11.500037,31.436501 z"
             style="fill:#404040;"/>
          </a>
         </g>
        </svg>
</svg>
