<?xml version="1.0" encoding="UTF-8" standalone="no"?>
<!DOCTYPE svg PUBLIC "-//W3C//DTD SVG 1.1//EN"
 "http://www.w3.org/Graphics/SVG/1.1/DTD/svg11.dtd">
<!-- Generated by graphviz version 2.43.0 (0)
 -->
<!-- Title: include/depz/camera/camera_identity_resolver.h Pages: 1 -->
<svg width="206pt" height="162pt"
 viewBox="0.00 0.00 206.00 162.00" xmlns="http://www.w3.org/2000/svg" xmlns:xlink="http://www.w3.org/1999/xlink">
<g id="graph0" class="graph" transform="scale(1 1) rotate(0) translate(4 158)">
<title>include/depz/camera/camera_identity_resolver.h</title>
<polygon fill="white" stroke="transparent" points="-4,4 -4,-158 202,-158 202,4 -4,4"/>
<!-- Node1 -->
<g id="node1" class="node">
<title>Node1</title>
<g id="a_node1"><a xlink:title="Cross&#45;OS camera identity resolution from driver / sysfs metadata.">
<polygon fill="#bfbfbf" stroke="black" points="46,-123.5 46,-153.5 198,-153.5 198,-123.5 46,-123.5"/>
<text text-anchor="start" x="54" y="-141.5" font-family="Helvetica,sans-Serif" font-size="10.00">include/depz/camera</text>
<text text-anchor="middle" x="122" y="-130.5" font-family="Helvetica,sans-Serif" font-size="10.00">/camera_identity_resolver.h</text>
</a>
</g>
</g>
<!-- Node2 -->
<g id="node2" class="node">
<title>Node2</title>
<g id="a_node2"><a xlink:href="stereo__pipeline_8hpp.html" target="_top" xlink:title=" ">
<polygon fill="white" stroke="black" points="0,-56.5 0,-86.5 144,-86.5 144,-56.5 0,-56.5"/>
<text text-anchor="start" x="8" y="-74.5" font-family="Helvetica,sans-Serif" font-size="10.00">include/depz/core/pipeline</text>
<text text-anchor="middle" x="72" y="-63.5" font-family="Helvetica,sans-Serif" font-size="10.00">/stereo_pipeline.hpp</text>
</a>
</g>
</g>
<!-- Node1&#45;&gt;Node2 -->
<g id="edge1" class="edge">
<title>Node1&#45;&gt;Node2</title>
<path fill="none" stroke="midnightblue" d="M105.04,-115.45C97.69,-105.9 89.31,-95 82.83,-86.58"/>
<polygon fill="midnightblue" stroke="midnightblue" points="102.28,-117.6 111.15,-123.4 107.83,-113.34 102.28,-117.6"/>
</g>
<!-- Node3 -->
<g id="node3" class="node">
<title>Node3</title>
<g id="a_node3"><a xlink:href="depz_8h.html" target="_top" xlink:title="Single umbrella header that pulls in the whole iStereoLab public API.">
<polygon fill="white" stroke="black" points="65.5,-0.5 65.5,-19.5 178.5,-19.5 178.5,-0.5 65.5,-0.5"/>
<text text-anchor="middle" x="122" y="-7.5" font-family="Helvetica,sans-Serif" font-size="10.00">include/depz/depz.h</text>
</a>
</g>
</g>
<!-- Node1&#45;&gt;Node3 -->
<g id="edge3" class="edge">
<title>Node1&#45;&gt;Node3</title>
<path fill="none" stroke="midnightblue" d="M139.41,-115.09C144.88,-106.75 150.21,-96.89 153,-87 156.74,-73.74 157.09,-69.16 153,-56 148.6,-41.87 138.05,-28.25 130.48,-19.77"/>
<polygon fill="midnightblue" stroke="midnightblue" points="136.4,-113.29 133.54,-123.49 142.14,-117.3 136.4,-113.29"/>
</g>
<!-- Node2&#45;&gt;Node3 -->
<g id="edge2" class="edge">
<title>Node2&#45;&gt;Node3</title>
<path fill="none" stroke="midnightblue" d="M90.32,-48.7C98.78,-38.64 108.34,-27.26 114.72,-19.66"/>
<polygon fill="midnightblue" stroke="midnightblue" points="87.6,-46.49 83.85,-56.4 92.96,-51 87.6,-46.49"/>
</g>
</g>
</svg>
