<?xml version="1.0" encoding="UTF-8" standalone="no"?>
<!DOCTYPE svg PUBLIC "-//W3C//DTD SVG 1.1//EN"
 "http://www.w3.org/Graphics/SVG/1.1/DTD/svg11.dtd">
<!-- Generated by graphviz version 2.43.0 (0)
 -->
<!-- Title: stereocam::inference::NeuralInferenceBase Pages: 1 -->
<svg width="676pt" height="235pt"
 viewBox="0.00 0.00 676.00 235.00" xmlns="http://www.w3.org/2000/svg" xmlns:xlink="http://www.w3.org/1999/xlink">
<g id="graph0" class="graph" transform="scale(1 1) rotate(0) translate(4 231)">
<title>stereocam::inference::NeuralInferenceBase</title>
<polygon fill="white" stroke="transparent" points="-4,4 -4,-231 672,-231 672,4 -4,4"/>
<!-- Node1 -->
<g id="node1" class="node">
<title>Node1</title>
<g id="a_node1"><a xlink:title="Shared partial implementation of DepthInferenceBase.">
<polygon fill="#bfbfbf" stroke="black" points="307,-98.5 307,-128.5 432,-128.5 432,-98.5 307,-98.5"/>
<text text-anchor="start" x="315" y="-116.5" font-family="Helvetica,sans-Serif" font-size="10.00">stereocam::inference</text>
<text text-anchor="middle" x="369.5" y="-105.5" font-family="Helvetica,sans-Serif" font-size="10.00">::NeuralInferenceBase</text>
</a>
</g>
</g>
<!-- Node4 -->
<g id="node4" class="node">
<title>Node4</title>
<g id="a_node4"><a xlink:href="classstereocam_1_1inference_1_1CREStereoCombinedInferenceCpp.html" target="_top" xlink:title="CREStereo combined stereo with 4 inputs (full + half&#45;resolution pairs).">
<polygon fill="white" stroke="black" points="474,-196.5 474,-226.5 662,-226.5 662,-196.5 474,-196.5"/>
<text text-anchor="start" x="482" y="-214.5" font-family="Helvetica,sans-Serif" font-size="10.00">stereocam::inference</text>
<text text-anchor="middle" x="568" y="-203.5" font-family="Helvetica,sans-Serif" font-size="10.00">::CREStereoCombinedInferenceCpp</text>
</a>
</g>
</g>
<!-- Node1&#45;&gt;Node4 -->
<g id="edge3" class="edge">
<title>Node1&#45;&gt;Node4</title>
<path fill="none" stroke="midnightblue" d="M393.46,-135.33C412.16,-151.95 439.95,-174.17 468,-187.5 475.19,-190.92 482.91,-193.87 490.75,-196.42"/>
<polygon fill="midnightblue" stroke="midnightblue" points="395.79,-132.72 386.04,-128.59 391.09,-137.9 395.79,-132.72"/>
</g>
<!-- Node5 -->
<g id="node5" class="node">
<title>Node5</title>
<g id="a_node5"><a xlink:href="classstereocam_1_1inference_1_1CREStereoInitialInferenceCpp.html" target="_top" xlink:title="CREStereo single&#45;pass stereo (raw 0&#45;255 input, disparity = output ch 0).">
<polygon fill="white" stroke="black" points="485,-147.5 485,-177.5 651,-177.5 651,-147.5 485,-147.5"/>
<text text-anchor="start" x="493" y="-165.5" font-family="Helvetica,sans-Serif" font-size="10.00">stereocam::inference</text>
<text text-anchor="middle" x="568" y="-154.5" font-family="Helvetica,sans-Serif" font-size="10.00">::CREStereoInitialInferenceCpp</text>
</a>
</g>
</g>
<!-- Node1&#45;&gt;Node5 -->
<g id="edge4" class="edge">
<title>Node1&#45;&gt;Node5</title>
<path fill="none" stroke="midnightblue" d="M438.53,-131.06C448.41,-133.58 458.46,-136.12 468,-138.5 479.75,-141.43 492.31,-144.51 504.39,-147.45"/>
<polygon fill="midnightblue" stroke="midnightblue" points="439.28,-127.65 428.73,-128.56 437.55,-134.43 439.28,-127.65"/>
</g>
<!-- Node6 -->
<g id="node6" class="node">
<title>Node6</title>
<g id="a_node6"><a xlink:href="classstereocam_1_1inference_1_1DepthAnythingV2SmallInferenceCpp.html" target="_top" xlink:title="Mono relative&#45;depth network with a user&#45;tunable affine post&#45;scale.">
<polygon fill="white" stroke="black" points="468,-98.5 468,-128.5 668,-128.5 668,-98.5 468,-98.5"/>
<text text-anchor="start" x="476" y="-116.5" font-family="Helvetica,sans-Serif" font-size="10.00">stereocam::inference</text>
<text text-anchor="middle" x="568" y="-105.5" font-family="Helvetica,sans-Serif" font-size="10.00">::DepthAnythingV2SmallInferenceCpp</text>
</a>
</g>
</g>
<!-- Node1&#45;&gt;Node6 -->
<g id="edge5" class="edge">
<title>Node1&#45;&gt;Node6</title>
<path fill="none" stroke="midnightblue" d="M442.17,-113.5C450.52,-113.5 459.15,-113.5 467.78,-113.5"/>
<polygon fill="midnightblue" stroke="midnightblue" points="442.13,-110 432.13,-113.5 442.13,-117 442.13,-110"/>
</g>
<!-- Node7 -->
<g id="node7" class="node">
<title>Node7</title>
<g id="a_node7"><a xlink:href="classstereocam_1_1inference_1_1LightStereoInferenceCpp.html" target="_top" xlink:title="Fast stereo network with ImageNet normalization; output squeezed to 2D.">
<polygon fill="white" stroke="black" points="496.5,-49.5 496.5,-79.5 639.5,-79.5 639.5,-49.5 496.5,-49.5"/>
<text text-anchor="start" x="504.5" y="-67.5" font-family="Helvetica,sans-Serif" font-size="10.00">stereocam::inference</text>
<text text-anchor="middle" x="568" y="-56.5" font-family="Helvetica,sans-Serif" font-size="10.00">::LightStereoInferenceCpp</text>
</a>
</g>
</g>
<!-- Node1&#45;&gt;Node7 -->
<g id="edge6" class="edge">
<title>Node1&#45;&gt;Node7</title>
<path fill="none" stroke="midnightblue" d="M438.53,-95.94C448.41,-93.42 458.46,-90.88 468,-88.5 479.75,-85.57 492.31,-82.49 504.39,-79.55"/>
<polygon fill="midnightblue" stroke="midnightblue" points="437.55,-92.57 428.73,-98.44 439.28,-99.35 437.55,-92.57"/>
</g>
<!-- Node8 -->
<g id="node8" class="node">
<title>Node8</title>
<g id="a_node8"><a xlink:href="classstereocam_1_1inference_1_1Metric3DV2VitSmallInferenceCpp.html" target="_top" xlink:title="Mono metric&#45;depth network with CSTM canonical&#45;focal depth recovery.">
<polygon fill="white" stroke="black" points="475.5,-0.5 475.5,-30.5 660.5,-30.5 660.5,-0.5 475.5,-0.5"/>
<text text-anchor="start" x="483.5" y="-18.5" font-family="Helvetica,sans-Serif" font-size="10.00">stereocam::inference</text>
<text text-anchor="middle" x="568" y="-7.5" font-family="Helvetica,sans-Serif" font-size="10.00">::Metric3DV2VitSmallInferenceCpp</text>
</a>
</g>
</g>
<!-- Node1&#45;&gt;Node8 -->
<g id="edge7" class="edge">
<title>Node1&#45;&gt;Node8</title>
<path fill="none" stroke="midnightblue" d="M393.46,-91.67C412.16,-75.05 439.95,-52.83 468,-39.5 475.19,-36.08 482.91,-33.13 490.75,-30.58"/>
<polygon fill="midnightblue" stroke="midnightblue" points="391.09,-89.1 386.04,-98.41 395.79,-94.28 391.09,-89.1"/>
</g>
<!-- Node2 -->
<g id="node2" class="node">
<title>Node2</title>
<g id="a_node2"><a xlink:href="classstereocam_1_1inference_1_1DepthInferenceBase.html" target="_top" xlink:title="Pipeline&#45;facing abstract base for a neural depth network.">
<polygon fill="white" stroke="black" points="149,-98.5 149,-128.5 271,-128.5 271,-98.5 149,-98.5"/>
<text text-anchor="start" x="157" y="-116.5" font-family="Helvetica,sans-Serif" font-size="10.00">stereocam::inference</text>
<text text-anchor="middle" x="210" y="-105.5" font-family="Helvetica,sans-Serif" font-size="10.00">::DepthInferenceBase</text>
</a>
</g>
</g>
<!-- Node2&#45;&gt;Node1 -->
<g id="edge1" class="edge">
<title>Node2&#45;&gt;Node1</title>
<path fill="none" stroke="midnightblue" d="M281.64,-113.5C290.07,-113.5 298.63,-113.5 306.92,-113.5"/>
<polygon fill="midnightblue" stroke="midnightblue" points="281.44,-110 271.44,-113.5 281.44,-117 281.44,-110"/>
</g>
<!-- Node3 -->
<g id="node3" class="node">
<title>Node3</title>
<g id="a_node3"><a xlink:href="classstereocam_1_1controls_1_1IControlOwner.html" target="_top" xlink:title="Language&#45;neutral base class for objects with self&#45;describing runtime parameters.">
<polygon fill="white" stroke="black" points="0,-98.5 0,-128.5 113,-128.5 113,-98.5 0,-98.5"/>
<text text-anchor="start" x="8" y="-116.5" font-family="Helvetica,sans-Serif" font-size="10.00">stereocam::controls</text>
<text text-anchor="middle" x="56.5" y="-105.5" font-family="Helvetica,sans-Serif" font-size="10.00">::IControlOwner</text>
</a>
</g>
</g>
<!-- Node3&#45;&gt;Node2 -->
<g id="edge2" class="edge">
<title>Node3&#45;&gt;Node2</title>
<path fill="none" stroke="midnightblue" d="M123.3,-113.5C131.8,-113.5 140.46,-113.5 148.86,-113.5"/>
<polygon fill="midnightblue" stroke="midnightblue" points="123.05,-110 113.05,-113.5 123.05,-117 123.05,-110"/>
</g>
</g>
</svg>
