<?xml version="1.0" encoding="UTF-8" standalone="no"?>
<!DOCTYPE svg PUBLIC "-//W3C//DTD SVG 1.1//EN"
 "http://www.w3.org/Graphics/SVG/1.1/DTD/svg11.dtd">
<!-- Generated by graphviz version 2.43.0 (0)
 -->
<!-- Title: depz_camera_sdk.calibration.opencv_basic.OpenCVBasicCalibration Pages: 1 -->
<svg width="241pt" height="240pt"
 viewBox="0.00 0.00 241.00 240.00" xmlns="http://www.w3.org/2000/svg" xmlns:xlink="http://www.w3.org/1999/xlink">
<g id="graph0" class="graph" transform="scale(1 1) rotate(0) translate(4 236)">
<title>depz_camera_sdk.calibration.opencv_basic.OpenCVBasicCalibration</title>
<polygon fill="white" stroke="transparent" points="-4,4 -4,-236 237,-236 237,4 -4,4"/>
<!-- Node1 -->
<g id="node1" class="node">
<title>Node1</title>
<g id="a_node1"><a xlink:title=" ">
<polygon fill="#bfbfbf" stroke="black" points="0,-67.5 0,-97.5 197,-97.5 197,-67.5 0,-67.5"/>
<text text-anchor="start" x="8" y="-85.5" font-family="Helvetica,sans-Serif" font-size="10.00">depz_camera_sdk.calibration.opencv</text>
<text text-anchor="middle" x="98.5" y="-74.5" font-family="Helvetica,sans-Serif" font-size="10.00">_basic.OpenCVBasicCalibration</text>
</a>
</g>
</g>
<!-- Node5 -->
<g id="node5" class="node">
<title>Node5</title>
<g id="a_node5"><a xlink:href="classdepz__camera__sdk_1_1calibration_1_1opencv__basic_1_1OpenCV5Calibration.html" target="_top" xlink:title=" ">
<polygon fill="white" stroke="black" points="0,-0.5 0,-30.5 197,-30.5 197,-0.5 0,-0.5"/>
<text text-anchor="start" x="8" y="-18.5" font-family="Helvetica,sans-Serif" font-size="10.00">depz_camera_sdk.calibration.opencv</text>
<text text-anchor="middle" x="98.5" y="-7.5" font-family="Helvetica,sans-Serif" font-size="10.00">_basic.OpenCV5Calibration</text>
</a>
</g>
</g>
<!-- Node1&#45;&gt;Node5 -->
<g id="edge4" class="edge">
<title>Node1&#45;&gt;Node5</title>
<path fill="none" stroke="midnightblue" d="M98.5,-57.11C98.5,-48.15 98.5,-38.32 98.5,-30.58"/>
<polygon fill="midnightblue" stroke="midnightblue" points="95,-57.4 98.5,-67.4 102,-57.4 95,-57.4"/>
</g>
<!-- Node2 -->
<g id="node2" class="node">
<title>Node2</title>
<g id="a_node2"><a xlink:href="classdepz__camera__sdk_1_1calibration_1_1base_1_1Calibration.html" target="_top" xlink:title=" ">
<polygon fill="white" stroke="black" points="4.5,-134.5 4.5,-164.5 192.5,-164.5 192.5,-134.5 4.5,-134.5"/>
<text text-anchor="start" x="12.5" y="-152.5" font-family="Helvetica,sans-Serif" font-size="10.00">depz_camera_sdk.calibration.base.</text>
<text text-anchor="middle" x="98.5" y="-141.5" font-family="Helvetica,sans-Serif" font-size="10.00">Calibration</text>
</a>
</g>
</g>
<!-- Node2&#45;&gt;Node1 -->
<g id="edge1" class="edge">
<title>Node2&#45;&gt;Node1</title>
<path fill="none" stroke="midnightblue" d="M98.5,-124.11C98.5,-115.15 98.5,-105.32 98.5,-97.58"/>
<polygon fill="midnightblue" stroke="midnightblue" points="95,-124.4 98.5,-134.4 102,-124.4 95,-124.4"/>
</g>
<!-- Node3 -->
<g id="node3" class="node">
<title>Node3</title>
<g id="a_node3"><a xlink:title=" ">
<polygon fill="white" stroke="#bfbfbf" points="23,-207 23,-226 60,-226 60,-207 23,-207"/>
<text text-anchor="middle" x="41.5" y="-214" font-family="Helvetica,sans-Serif" font-size="10.00">ABC</text>
</a>
</g>
</g>
<!-- Node3&#45;&gt;Node2 -->
<g id="edge2" class="edge">
<title>Node3&#45;&gt;Node2</title>
<path fill="none" stroke="midnightblue" d="M55.98,-198.99C65.3,-188.36 77.28,-174.7 86.15,-164.59"/>
<polygon fill="midnightblue" stroke="midnightblue" points="53.15,-196.91 49.19,-206.73 58.41,-201.52 53.15,-196.91"/>
</g>
<!-- Node4 -->
<g id="node4" class="node">
<title>Node4</title>
<g id="a_node4"><a xlink:href="classdepz__camera__sdk_1_1__controls_1_1ControlOwner.html" target="_top" xlink:title=" ">
<polygon fill="white" stroke="black" points="78,-201.5 78,-231.5 233,-231.5 233,-201.5 78,-201.5"/>
<text text-anchor="start" x="86" y="-219.5" font-family="Helvetica,sans-Serif" font-size="10.00">depz_camera_sdk._controls.</text>
<text text-anchor="middle" x="155.5" y="-208.5" font-family="Helvetica,sans-Serif" font-size="10.00">ControlOwner</text>
</a>
</g>
</g>
<!-- Node4&#45;&gt;Node2 -->
<g id="edge3" class="edge">
<title>Node4&#45;&gt;Node2</title>
<path fill="none" stroke="midnightblue" d="M136.41,-193.74C127.98,-184.12 118.31,-173.09 110.84,-164.58"/>
<polygon fill="midnightblue" stroke="midnightblue" points="133.91,-196.18 143.13,-201.4 139.17,-191.57 133.91,-196.18"/>
</g>
</g>
</svg>
