<?xml version="1.0" encoding="UTF-8" standalone="no"?>
<!DOCTYPE svg PUBLIC "-//W3C//DTD SVG 1.1//EN"
 "http://www.w3.org/Graphics/SVG/1.1/DTD/svg11.dtd">
<!-- Generated by graphviz version 2.43.0 (0)
 -->
<!-- Title: stereocam::inference::LightStereoInferenceCpp Pages: 1 -->
<svg width="151pt" height="240pt"
 viewBox="0.00 0.00 151.00 240.00" xmlns="http://www.w3.org/2000/svg" xmlns:xlink="http://www.w3.org/1999/xlink">
<g id="graph0" class="graph" transform="scale(1 1) rotate(0) translate(4 236)">
<title>stereocam::inference::LightStereoInferenceCpp</title>
<polygon fill="white" stroke="transparent" points="-4,4 -4,-236 147,-236 147,4 -4,4"/>
<!-- Node1 -->
<g id="node1" class="node">
<title>Node1</title>
<g id="a_node1"><a xlink:title="Fast stereo network with ImageNet normalization; output squeezed to 2D.">
<polygon fill="#bfbfbf" stroke="black" points="0,-0.5 0,-30.5 143,-30.5 143,-0.5 0,-0.5"/>
<text text-anchor="start" x="8" y="-18.5" font-family="Helvetica,sans-Serif" font-size="10.00">stereocam::inference</text>
<text text-anchor="middle" x="71.5" y="-7.5" font-family="Helvetica,sans-Serif" font-size="10.00">::LightStereoInferenceCpp</text>
</a>
</g>
</g>
<!-- Node2 -->
<g id="node2" class="node">
<title>Node2</title>
<g id="a_node2"><a xlink:href="classstereocam_1_1inference_1_1NeuralInferenceBase.html" target="_top" xlink:title="Shared partial implementation of DepthInferenceBase.">
<polygon fill="white" stroke="black" points="9,-67.5 9,-97.5 134,-97.5 134,-67.5 9,-67.5"/>
<text text-anchor="start" x="17" y="-85.5" font-family="Helvetica,sans-Serif" font-size="10.00">stereocam::inference</text>
<text text-anchor="middle" x="71.5" y="-74.5" font-family="Helvetica,sans-Serif" font-size="10.00">::NeuralInferenceBase</text>
</a>
</g>
</g>
<!-- Node2&#45;&gt;Node1 -->
<g id="edge1" class="edge">
<title>Node2&#45;&gt;Node1</title>
<path fill="none" stroke="midnightblue" d="M71.5,-57.11C71.5,-48.15 71.5,-38.32 71.5,-30.58"/>
<polygon fill="midnightblue" stroke="midnightblue" points="68,-57.4 71.5,-67.4 75,-57.4 68,-57.4"/>
</g>
<!-- Node3 -->
<g id="node3" class="node">
<title>Node3</title>
<g id="a_node3"><a xlink:href="classstereocam_1_1inference_1_1DepthInferenceBase.html" target="_top" xlink:title="Pipeline&#45;facing abstract base for a neural depth network.">
<polygon fill="white" stroke="black" points="10.5,-134.5 10.5,-164.5 132.5,-164.5 132.5,-134.5 10.5,-134.5"/>
<text text-anchor="start" x="18.5" y="-152.5" font-family="Helvetica,sans-Serif" font-size="10.00">stereocam::inference</text>
<text text-anchor="middle" x="71.5" y="-141.5" font-family="Helvetica,sans-Serif" font-size="10.00">::DepthInferenceBase</text>
</a>
</g>
</g>
<!-- Node3&#45;&gt;Node2 -->
<g id="edge2" class="edge">
<title>Node3&#45;&gt;Node2</title>
<path fill="none" stroke="midnightblue" d="M71.5,-124.11C71.5,-115.15 71.5,-105.32 71.5,-97.58"/>
<polygon fill="midnightblue" stroke="midnightblue" points="68,-124.4 71.5,-134.4 75,-124.4 68,-124.4"/>
</g>
<!-- Node4 -->
<g id="node4" class="node">
<title>Node4</title>
<g id="a_node4"><a xlink:href="classstereocam_1_1controls_1_1IControlOwner.html" target="_top" xlink:title="Language&#45;neutral base class for objects with self&#45;describing runtime parameters.">
<polygon fill="white" stroke="black" points="15,-201.5 15,-231.5 128,-231.5 128,-201.5 15,-201.5"/>
<text text-anchor="start" x="23" y="-219.5" font-family="Helvetica,sans-Serif" font-size="10.00">stereocam::controls</text>
<text text-anchor="middle" x="71.5" y="-208.5" font-family="Helvetica,sans-Serif" font-size="10.00">::IControlOwner</text>
</a>
</g>
</g>
<!-- Node4&#45;&gt;Node3 -->
<g id="edge3" class="edge">
<title>Node4&#45;&gt;Node3</title>
<path fill="none" stroke="midnightblue" d="M71.5,-191.11C71.5,-182.15 71.5,-172.32 71.5,-164.58"/>
<polygon fill="midnightblue" stroke="midnightblue" points="68,-191.4 71.5,-201.4 75,-191.4 68,-191.4"/>
</g>
</g>
</svg>
