<?xml version="1.0" encoding="UTF-8" standalone="no"?>
<!DOCTYPE svg PUBLIC "-//W3C//DTD SVG 1.1//EN"
 "http://www.w3.org/Graphics/SVG/1.1/DTD/svg11.dtd">
<!-- Generated by graphviz version 2.43.0 (0)
 -->
<!-- Title: depz_camera_sdk.inference.base.NeuralStereoInferenceBase Pages: 1 -->
<svg width="250pt" height="307pt"
 viewBox="0.00 0.00 249.50 307.00" xmlns="http://www.w3.org/2000/svg" xmlns:xlink="http://www.w3.org/1999/xlink">
<g id="graph0" class="graph" transform="scale(1 1) rotate(0) translate(4 303)">
<title>depz_camera_sdk.inference.base.NeuralStereoInferenceBase</title>
<polygon fill="white" stroke="transparent" points="-4,4 -4,-303 245.5,-303 245.5,4 -4,4"/>
<!-- Node1 -->
<g id="node1" class="node">
<title>Node1</title>
<g id="a_node1"><a xlink:title=" ">
<polygon fill="#bfbfbf" stroke="black" points="16,-67.5 16,-97.5 198,-97.5 198,-67.5 16,-67.5"/>
<text text-anchor="start" x="24" y="-85.5" font-family="Helvetica,sans-Serif" font-size="10.00">depz_camera_sdk.inference.base.</text>
<text text-anchor="middle" x="107" y="-74.5" font-family="Helvetica,sans-Serif" font-size="10.00">NeuralStereoInferenceBase</text>
</a>
</g>
</g>
<!-- Node6 -->
<g id="node6" class="node">
<title>Node6</title>
<g id="a_node6"><a xlink:href="classdepz__camera__sdk_1_1inference_1_1native__runtime_1_1NativeStereoInferenceRuntime.html" target="_top" xlink:title=" ">
<polygon fill="white" stroke="black" points="0,-0.5 0,-30.5 214,-30.5 214,-0.5 0,-0.5"/>
<text text-anchor="start" x="8" y="-18.5" font-family="Helvetica,sans-Serif" font-size="10.00">depz_camera_sdk.inference.native</text>
<text text-anchor="middle" x="107" y="-7.5" font-family="Helvetica,sans-Serif" font-size="10.00">_runtime.NativeStereoInferenceRuntime</text>
</a>
</g>
</g>
<!-- Node1&#45;&gt;Node6 -->
<g id="edge5" class="edge">
<title>Node1&#45;&gt;Node6</title>
<path fill="none" stroke="midnightblue" d="M107,-57.11C107,-48.15 107,-38.32 107,-30.58"/>
<polygon fill="midnightblue" stroke="midnightblue" points="103.5,-57.4 107,-67.4 110.5,-57.4 103.5,-57.4"/>
</g>
<!-- Node2 -->
<g id="node2" class="node">
<title>Node2</title>
<g id="a_node2"><a xlink:href="classdepz__camera__sdk_1_1inference_1_1base_1_1NeuralInferenceBase.html" target="_top" xlink:title=" ">
<polygon fill="white" stroke="black" points="16,-134.5 16,-164.5 198,-164.5 198,-134.5 16,-134.5"/>
<text text-anchor="start" x="24" y="-152.5" font-family="Helvetica,sans-Serif" font-size="10.00">depz_camera_sdk.inference.base.</text>
<text text-anchor="middle" x="107" y="-141.5" font-family="Helvetica,sans-Serif" font-size="10.00">NeuralInferenceBase</text>
</a>
</g>
</g>
<!-- Node2&#45;&gt;Node1 -->
<g id="edge1" class="edge">
<title>Node2&#45;&gt;Node1</title>
<path fill="none" stroke="midnightblue" d="M107,-124.11C107,-115.15 107,-105.32 107,-97.58"/>
<polygon fill="midnightblue" stroke="midnightblue" points="103.5,-124.4 107,-134.4 110.5,-124.4 103.5,-124.4"/>
</g>
<!-- Node3 -->
<g id="node3" class="node">
<title>Node3</title>
<g id="a_node3"><a xlink:href="classdepz__camera__sdk_1_1inference_1_1base_1_1DepthInferenceBase.html" target="_top" xlink:title=" ">
<polygon fill="white" stroke="black" points="16,-201.5 16,-231.5 198,-231.5 198,-201.5 16,-201.5"/>
<text text-anchor="start" x="24" y="-219.5" font-family="Helvetica,sans-Serif" font-size="10.00">depz_camera_sdk.inference.base.</text>
<text text-anchor="middle" x="107" y="-208.5" font-family="Helvetica,sans-Serif" font-size="10.00">DepthInferenceBase</text>
</a>
</g>
</g>
<!-- Node3&#45;&gt;Node2 -->
<g id="edge2" class="edge">
<title>Node3&#45;&gt;Node2</title>
<path fill="none" stroke="midnightblue" d="M107,-191.11C107,-182.15 107,-172.32 107,-164.58"/>
<polygon fill="midnightblue" stroke="midnightblue" points="103.5,-191.4 107,-201.4 110.5,-191.4 103.5,-191.4"/>
</g>
<!-- Node4 -->
<g id="node4" class="node">
<title>Node4</title>
<g id="a_node4"><a xlink:title=" ">
<polygon fill="white" stroke="#bfbfbf" points="31.5,-274 31.5,-293 68.5,-293 68.5,-274 31.5,-274"/>
<text text-anchor="middle" x="50" y="-281" font-family="Helvetica,sans-Serif" font-size="10.00">ABC</text>
</a>
</g>
</g>
<!-- Node4&#45;&gt;Node3 -->
<g id="edge3" class="edge">
<title>Node4&#45;&gt;Node3</title>
<path fill="none" stroke="midnightblue" d="M64.48,-265.99C73.8,-255.36 85.78,-241.7 94.65,-231.59"/>
<polygon fill="midnightblue" stroke="midnightblue" points="61.65,-263.91 57.69,-273.73 66.91,-268.52 61.65,-263.91"/>
</g>
<!-- Node5 -->
<g id="node5" class="node">
<title>Node5</title>
<g id="a_node5"><a xlink:href="classdepz__camera__sdk_1_1__controls_1_1ControlOwner.html" target="_top" xlink:title=" ">
<polygon fill="white" stroke="black" points="86.5,-268.5 86.5,-298.5 241.5,-298.5 241.5,-268.5 86.5,-268.5"/>
<text text-anchor="start" x="94.5" y="-286.5" font-family="Helvetica,sans-Serif" font-size="10.00">depz_camera_sdk._controls.</text>
<text text-anchor="middle" x="164" y="-275.5" font-family="Helvetica,sans-Serif" font-size="10.00">ControlOwner</text>
</a>
</g>
</g>
<!-- Node5&#45;&gt;Node3 -->
<g id="edge4" class="edge">
<title>Node5&#45;&gt;Node3</title>
<path fill="none" stroke="midnightblue" d="M144.91,-260.74C136.48,-251.12 126.81,-240.09 119.34,-231.58"/>
<polygon fill="midnightblue" stroke="midnightblue" points="142.41,-263.18 151.63,-268.4 147.67,-258.57 142.41,-263.18"/>
</g>
</g>
</svg>
