<?xml version="1.0" encoding="UTF-8" standalone="no"?>
<!DOCTYPE svg PUBLIC "-//W3C//DTD SVG 1.1//EN"
 "http://www.w3.org/Graphics/SVG/1.1/DTD/svg11.dtd">
<!-- Generated by graphviz version 2.43.0 (0)
 -->
<!-- Title: depz_camera_sdk.inference.native_runtime.NativeMonoInferenceRuntime Pages: 1 -->
<svg width="1078pt" height="88pt"
 viewBox="0.00 0.00 1078.00 88.00" xmlns="http://www.w3.org/2000/svg" xmlns:xlink="http://www.w3.org/1999/xlink">
<g id="graph0" class="graph" transform="scale(1 1) rotate(0) translate(4 84)">
<title>depz_camera_sdk.inference.native_runtime.NativeMonoInferenceRuntime</title>
<polygon fill="white" stroke="transparent" points="-4,4 -4,-84 1074,-84 1074,4 -4,4"/>
<!-- Node1 -->
<g id="node1" class="node">
<title>Node1</title>
<g id="a_node1"><a xlink:title=" ">
<polygon fill="#bfbfbf" stroke="black" points="861,-24.5 861,-54.5 1070,-54.5 1070,-24.5 861,-24.5"/>
<text text-anchor="start" x="869" y="-42.5" font-family="Helvetica,sans-Serif" font-size="10.00">depz_camera_sdk.inference.native</text>
<text text-anchor="middle" x="965.5" y="-31.5" font-family="Helvetica,sans-Serif" font-size="10.00">_runtime.NativeMonoInferenceRuntime</text>
</a>
</g>
</g>
<!-- Node2 -->
<g id="node2" class="node">
<title>Node2</title>
<g id="a_node2"><a xlink:href="classdepz__camera__sdk_1_1inference_1_1native__runtime_1_1__NativeNeuralRuntimeBase.html" target="_top" xlink:title=" ">
<polygon fill="white" stroke="black" points="627,-49.5 627,-79.5 825,-79.5 825,-49.5 627,-49.5"/>
<text text-anchor="start" x="635" y="-67.5" font-family="Helvetica,sans-Serif" font-size="10.00">depz_camera_sdk.inference.native</text>
<text text-anchor="middle" x="726" y="-56.5" font-family="Helvetica,sans-Serif" font-size="10.00">_runtime._NativeNeuralRuntimeBase</text>
</a>
</g>
</g>
<!-- Node2&#45;&gt;Node1 -->
<g id="edge1" class="edge">
<title>Node2&#45;&gt;Node1</title>
<path fill="none" stroke="midnightblue" d="M835.28,-53.1C843.8,-52.21 852.39,-51.3 860.88,-50.41"/>
<polygon fill="midnightblue" stroke="midnightblue" points="834.89,-49.62 825.31,-54.15 835.63,-56.58 834.89,-49.62"/>
</g>
<!-- Node3 -->
<g id="node3" class="node">
<title>Node3</title>
<g id="a_node3"><a xlink:href="classdepz__camera__sdk_1_1inference_1_1base_1_1DepthInferenceBase.html" target="_top" xlink:title=" ">
<polygon fill="white" stroke="black" points="191,-24.5 191,-54.5 373,-54.5 373,-24.5 191,-24.5"/>
<text text-anchor="start" x="199" y="-42.5" font-family="Helvetica,sans-Serif" font-size="10.00">depz_camera_sdk.inference.base.</text>
<text text-anchor="middle" x="282" y="-31.5" font-family="Helvetica,sans-Serif" font-size="10.00">DepthInferenceBase</text>
</a>
</g>
</g>
<!-- Node3&#45;&gt;Node2 -->
<g id="edge2" class="edge">
<title>Node3&#45;&gt;Node2</title>
<path fill="none" stroke="midnightblue" d="M383.36,-45.18C456.26,-49.3 554.42,-54.85 626.81,-58.95"/>
<polygon fill="midnightblue" stroke="midnightblue" points="383.43,-41.67 373.24,-44.6 383.03,-48.66 383.43,-41.67"/>
</g>
<!-- Node7 -->
<g id="node7" class="node">
<title>Node7</title>
<g id="a_node7"><a xlink:href="classdepz__camera__sdk_1_1inference_1_1base_1_1NeuralInferenceBase.html" target="_top" xlink:title=" ">
<polygon fill="white" stroke="black" points="409,-2.5 409,-32.5 591,-32.5 591,-2.5 409,-2.5"/>
<text text-anchor="start" x="417" y="-20.5" font-family="Helvetica,sans-Serif" font-size="10.00">depz_camera_sdk.inference.base.</text>
<text text-anchor="middle" x="500" y="-9.5" font-family="Helvetica,sans-Serif" font-size="10.00">NeuralInferenceBase</text>
</a>
</g>
</g>
<!-- Node3&#45;&gt;Node7 -->
<g id="edge7" class="edge">
<title>Node3&#45;&gt;Node7</title>
<path fill="none" stroke="midnightblue" d="M383.06,-29.31C391.63,-28.44 400.27,-27.56 408.76,-26.69"/>
<polygon fill="midnightblue" stroke="midnightblue" points="382.63,-25.83 373.04,-30.33 383.34,-32.8 382.63,-25.83"/>
</g>
<!-- Node4 -->
<g id="node4" class="node">
<title>Node4</title>
<g id="a_node4"><a xlink:title=" ">
<polygon fill="white" stroke="#bfbfbf" points="59,-52 59,-71 96,-71 96,-52 59,-52"/>
<text text-anchor="middle" x="77.5" y="-59" font-family="Helvetica,sans-Serif" font-size="10.00">ABC</text>
</a>
</g>
</g>
<!-- Node4&#45;&gt;Node3 -->
<g id="edge3" class="edge">
<title>Node4&#45;&gt;Node3</title>
<path fill="none" stroke="midnightblue" d="M106.34,-58.48C128.31,-56.09 160.24,-52.62 190.81,-49.3"/>
<polygon fill="midnightblue" stroke="midnightblue" points="105.68,-55.03 96.12,-59.59 106.44,-61.99 105.68,-55.03"/>
</g>
<!-- Node5 -->
<g id="node5" class="node">
<title>Node5</title>
<g id="a_node5"><a xlink:href="classdepz__camera__sdk_1_1__controls_1_1ControlOwner.html" target="_top" xlink:title=" ">
<polygon fill="white" stroke="black" points="0,-2.5 0,-32.5 155,-32.5 155,-2.5 0,-2.5"/>
<text text-anchor="start" x="8" y="-20.5" font-family="Helvetica,sans-Serif" font-size="10.00">depz_camera_sdk._controls.</text>
<text text-anchor="middle" x="77.5" y="-9.5" font-family="Helvetica,sans-Serif" font-size="10.00">ControlOwner</text>
</a>
</g>
</g>
<!-- Node5&#45;&gt;Node3 -->
<g id="edge4" class="edge">
<title>Node5&#45;&gt;Node3</title>
<path fill="none" stroke="midnightblue" d="M165.26,-26.93C173.69,-27.84 182.26,-28.77 190.72,-29.69"/>
<polygon fill="midnightblue" stroke="midnightblue" points="165.38,-23.42 155.06,-25.82 164.62,-30.38 165.38,-23.42"/>
</g>
<!-- Node6 -->
<g id="node6" class="node">
<title>Node6</title>
<g id="a_node6"><a xlink:href="classdepz__camera__sdk_1_1inference_1_1base_1_1NeuralMonoInferenceBase.html" target="_top" xlink:title=" ">
<polygon fill="white" stroke="black" points="635,-0.5 635,-30.5 817,-30.5 817,-0.5 635,-0.5"/>
<text text-anchor="start" x="643" y="-18.5" font-family="Helvetica,sans-Serif" font-size="10.00">depz_camera_sdk.inference.base.</text>
<text text-anchor="middle" x="726" y="-7.5" font-family="Helvetica,sans-Serif" font-size="10.00">NeuralMonoInferenceBase</text>
</a>
</g>
</g>
<!-- Node6&#45;&gt;Node1 -->
<g id="edge5" class="edge">
<title>Node6&#45;&gt;Node1</title>
<path fill="none" stroke="midnightblue" d="M827.27,-25.63C838.39,-26.76 849.74,-27.9 860.91,-29.03"/>
<polygon fill="midnightblue" stroke="midnightblue" points="827.43,-22.13 817.13,-24.61 826.72,-29.1 827.43,-22.13"/>
</g>
<!-- Node7&#45;&gt;Node6 -->
<g id="edge6" class="edge">
<title>Node7&#45;&gt;Node6</title>
<path fill="none" stroke="midnightblue" d="M601.3,-16.6C612.42,-16.51 623.69,-16.4 634.68,-16.31"/>
<polygon fill="midnightblue" stroke="midnightblue" points="601.11,-13.11 591.14,-16.7 601.17,-20.11 601.11,-13.11"/>
</g>
</g>
</svg>
