<?xml version="1.0" encoding="UTF-8" standalone="no"?>
<!DOCTYPE svg PUBLIC "-//W3C//DTD SVG 1.1//EN"
 "http://www.w3.org/Graphics/SVG/1.1/DTD/svg11.dtd">
<!-- Generated by graphviz version 2.43.0 (0)
 -->
<!-- Title: depz_camera_sdk.platform.base.PlatformBackend Pages: 1 -->
<svg width="494pt" height="88pt"
 viewBox="0.00 0.00 494.00 88.00" xmlns="http://www.w3.org/2000/svg" xmlns:xlink="http://www.w3.org/1999/xlink">
<g id="graph0" class="graph" transform="scale(1 1) rotate(0) translate(4 84)">
<title>depz_camera_sdk.platform.base.PlatformBackend</title>
<polygon fill="white" stroke="transparent" points="-4,4 -4,-84 490,-84 490,4 -4,4"/>
<!-- Node1 -->
<g id="node1" class="node">
<title>Node1</title>
<g id="a_node1"><a xlink:title=" ">
<polygon fill="#bfbfbf" stroke="black" points="73,-24.5 73,-54.5 252,-54.5 252,-24.5 73,-24.5"/>
<text text-anchor="start" x="81" y="-42.5" font-family="Helvetica,sans-Serif" font-size="10.00">depz_camera_sdk.platform.base.</text>
<text text-anchor="middle" x="162.5" y="-31.5" font-family="Helvetica,sans-Serif" font-size="10.00">PlatformBackend</text>
</a>
</g>
</g>
<!-- Node3 -->
<g id="node3" class="node">
<title>Node3</title>
<g id="a_node3"><a xlink:href="classdepz__camera__sdk_1_1platform_1_1linux_1_1LinuxBackend.html" target="_top" xlink:title=" ">
<polygon fill="white" stroke="black" points="297.5,-49.5 297.5,-79.5 476.5,-79.5 476.5,-49.5 297.5,-49.5"/>
<text text-anchor="start" x="305.5" y="-67.5" font-family="Helvetica,sans-Serif" font-size="10.00">depz_camera_sdk.platform.linux.</text>
<text text-anchor="middle" x="387" y="-56.5" font-family="Helvetica,sans-Serif" font-size="10.00">LinuxBackend</text>
</a>
</g>
</g>
<!-- Node1&#45;&gt;Node3 -->
<g id="edge2" class="edge">
<title>Node1&#45;&gt;Node3</title>
<path fill="none" stroke="midnightblue" d="M262.28,-50.6C273.97,-51.91 285.83,-53.25 297.36,-54.54"/>
<polygon fill="midnightblue" stroke="midnightblue" points="262.41,-47.09 252.08,-49.45 261.62,-54.05 262.41,-47.09"/>
</g>
<!-- Node4 -->
<g id="node4" class="node">
<title>Node4</title>
<g id="a_node4"><a xlink:href="classdepz__camera__sdk_1_1platform_1_1windows_1_1WindowsBackend.html" target="_top" xlink:title=" ">
<polygon fill="white" stroke="black" points="288,-0.5 288,-30.5 486,-30.5 486,-0.5 288,-0.5"/>
<text text-anchor="start" x="296" y="-18.5" font-family="Helvetica,sans-Serif" font-size="10.00">depz_camera_sdk.platform.windows.</text>
<text text-anchor="middle" x="387" y="-7.5" font-family="Helvetica,sans-Serif" font-size="10.00">WindowsBackend</text>
</a>
</g>
</g>
<!-- Node1&#45;&gt;Node4 -->
<g id="edge3" class="edge">
<title>Node1&#45;&gt;Node4</title>
<path fill="none" stroke="midnightblue" d="M262.07,-28.87C270.63,-27.94 279.29,-27.01 287.85,-26.09"/>
<polygon fill="midnightblue" stroke="midnightblue" points="261.64,-25.39 252.08,-29.95 262.39,-32.35 261.64,-25.39"/>
</g>
<!-- Node2 -->
<g id="node2" class="node">
<title>Node2</title>
<g id="a_node2"><a xlink:title=" ">
<polygon fill="white" stroke="#bfbfbf" points="0,-30 0,-49 37,-49 37,-30 0,-30"/>
<text text-anchor="middle" x="18.5" y="-37" font-family="Helvetica,sans-Serif" font-size="10.00">ABC</text>
</a>
</g>
</g>
<!-- Node2&#45;&gt;Node1 -->
<g id="edge1" class="edge">
<title>Node2&#45;&gt;Node1</title>
<path fill="none" stroke="midnightblue" d="M47.28,-39.5C54.98,-39.5 63.78,-39.5 72.99,-39.5"/>
<polygon fill="midnightblue" stroke="midnightblue" points="47.2,-36 37.2,-39.5 47.2,-43 47.2,-36"/>
</g>
</g>
</svg>
