<?xml version="1.0" encoding="UTF-8" standalone="no"?>
<!DOCTYPE svg PUBLIC "-//W3C//DTD SVG 1.1//EN"
 "http://www.w3.org/Graphics/SVG/1.1/DTD/svg11.dtd">
<!-- Generated by graphviz version 2.43.0 (0)
 -->
<!-- Title: stereocam::recorder::IMkvSource Pages: 1 -->
<svg width="149pt" height="106pt"
 viewBox="0.00 0.00 149.00 106.00" xmlns="http://www.w3.org/2000/svg" xmlns:xlink="http://www.w3.org/1999/xlink">
<g id="graph0" class="graph" transform="scale(1 1) rotate(0) translate(4 102)">
<title>stereocam::recorder::IMkvSource</title>
<polygon fill="white" stroke="transparent" points="-4,4 -4,-102 145,-102 145,4 -4,4"/>
<!-- Node1 -->
<g id="node1" class="node">
<title>Node1</title>
<g id="a_node1"><a xlink:title="Demuxes a recorded MJPG stream plus its metadata streams and attachments back out of a Matroska conta...">
<polygon fill="#bfbfbf" stroke="black" points="13,-67.5 13,-97.5 128,-97.5 128,-67.5 13,-67.5"/>
<text text-anchor="start" x="21" y="-85.5" font-family="Helvetica,sans-Serif" font-size="10.00">stereocam::recorder</text>
<text text-anchor="middle" x="70.5" y="-74.5" font-family="Helvetica,sans-Serif" font-size="10.00">::IMkvSource</text>
</a>
</g>
</g>
<!-- Node2 -->
<g id="node2" class="node">
<title>Node2</title>
<g id="a_node2"><a xlink:href="classstereocam_1_1recorder_1_1LibavMkvSourceAdapter.html" target="_top" xlink:title="libavformat&#45;backed IMkvSource: random&#45;access MJPG replay with pre&#45;scanned metadata.">
<polygon fill="white" stroke="black" points="0,-0.5 0,-30.5 141,-30.5 141,-0.5 0,-0.5"/>
<text text-anchor="start" x="8" y="-18.5" font-family="Helvetica,sans-Serif" font-size="10.00">stereocam::recorder</text>
<text text-anchor="middle" x="70.5" y="-7.5" font-family="Helvetica,sans-Serif" font-size="10.00">::LibavMkvSourceAdapter</text>
</a>
</g>
</g>
<!-- Node1&#45;&gt;Node2 -->
<g id="edge1" class="edge">
<title>Node1&#45;&gt;Node2</title>
<path fill="none" stroke="midnightblue" d="M70.5,-57.11C70.5,-48.15 70.5,-38.32 70.5,-30.58"/>
<polygon fill="midnightblue" stroke="midnightblue" points="67,-57.4 70.5,-67.4 74,-57.4 67,-57.4"/>
</g>
</g>
</svg>
