<?xml version="1.0" encoding="UTF-8" standalone="no"?>
<!DOCTYPE svg PUBLIC "-//W3C//DTD SVG 1.1//EN"
 "http://www.w3.org/Graphics/SVG/1.1/DTD/svg11.dtd">
<!-- Generated by graphviz version 2.43.0 (0)
 -->
<!-- Title: depz_camera_sdk.sources.base.FrameSource Pages: 1 -->
<svg width="476pt" height="88pt"
 viewBox="0.00 0.00 476.00 88.00" xmlns="http://www.w3.org/2000/svg" xmlns:xlink="http://www.w3.org/1999/xlink">
<g id="graph0" class="graph" transform="scale(1 1) rotate(0) translate(4 84)">
<title>depz_camera_sdk.sources.base.FrameSource</title>
<polygon fill="white" stroke="transparent" points="-4,4 -4,-84 472,-84 472,4 -4,4"/>
<!-- Node1 -->
<g id="node1" class="node">
<title>Node1</title>
<g id="a_node1"><a xlink:title=" ">
<polygon fill="#bfbfbf" stroke="black" points="73,-24.5 73,-54.5 247,-54.5 247,-24.5 73,-24.5"/>
<text text-anchor="start" x="81" y="-42.5" font-family="Helvetica,sans-Serif" font-size="10.00">depz_camera_sdk.sources.base.</text>
<text text-anchor="middle" x="160" y="-31.5" font-family="Helvetica,sans-Serif" font-size="10.00">FrameSource</text>
</a>
</g>
</g>
<!-- Node3 -->
<g id="node3" class="node">
<title>Node3</title>
<g id="a_node3"><a xlink:href="classdepz__camera__sdk_1_1sources_1_1camera__source_1_1CameraSource.html" target="_top" xlink:title=" ">
<polygon fill="white" stroke="black" points="283,-49.5 283,-79.5 468,-79.5 468,-49.5 283,-49.5"/>
<text text-anchor="start" x="291" y="-67.5" font-family="Helvetica,sans-Serif" font-size="10.00">depz_camera_sdk.sources.camera</text>
<text text-anchor="middle" x="375.5" y="-56.5" font-family="Helvetica,sans-Serif" font-size="10.00">_source.CameraSource</text>
</a>
</g>
</g>
<!-- Node1&#45;&gt;Node3 -->
<g id="edge2" class="edge">
<title>Node1&#45;&gt;Node3</title>
<path fill="none" stroke="midnightblue" d="M257.43,-50.79C265.85,-51.78 274.35,-52.77 282.72,-53.75"/>
<polygon fill="midnightblue" stroke="midnightblue" points="257.56,-47.28 247.22,-49.6 256.75,-54.24 257.56,-47.28"/>
</g>
<!-- Node4 -->
<g id="node4" class="node">
<title>Node4</title>
<g id="a_node4"><a xlink:href="classdepz__camera__sdk_1_1sources_1_1mkv__source_1_1MkvSource.html" target="_top" xlink:title=" ">
<polygon fill="white" stroke="black" points="290.5,-0.5 290.5,-30.5 460.5,-30.5 460.5,-0.5 290.5,-0.5"/>
<text text-anchor="start" x="298.5" y="-18.5" font-family="Helvetica,sans-Serif" font-size="10.00">depz_camera_sdk.sources.mkv</text>
<text text-anchor="middle" x="375.5" y="-7.5" font-family="Helvetica,sans-Serif" font-size="10.00">_source.MkvSource</text>
</a>
</g>
</g>
<!-- Node1&#45;&gt;Node4 -->
<g id="edge3" class="edge">
<title>Node1&#45;&gt;Node4</title>
<path fill="none" stroke="midnightblue" d="M257.3,-28.67C268.34,-27.43 279.52,-26.18 290.38,-24.96"/>
<polygon fill="midnightblue" stroke="midnightblue" points="256.77,-25.21 247.22,-29.81 257.55,-32.17 256.77,-25.21"/>
</g>
<!-- Node2 -->
<g id="node2" class="node">
<title>Node2</title>
<g id="a_node2"><a xlink:title=" ">
<polygon fill="white" stroke="#bfbfbf" points="0,-30 0,-49 37,-49 37,-30 0,-30"/>
<text text-anchor="middle" x="18.5" y="-37" font-family="Helvetica,sans-Serif" font-size="10.00">ABC</text>
</a>
</g>
</g>
<!-- Node2&#45;&gt;Node1 -->
<g id="edge1" class="edge">
<title>Node2&#45;&gt;Node1</title>
<path fill="none" stroke="midnightblue" d="M47.27,-39.5C54.97,-39.5 63.77,-39.5 72.97,-39.5"/>
<polygon fill="midnightblue" stroke="midnightblue" points="47.17,-36 37.17,-39.5 47.17,-43 47.17,-36"/>
</g>
</g>
</svg>
