<?xml version="1.0" encoding="UTF-8" standalone="no"?>
<!DOCTYPE svg PUBLIC "-//W3C//DTD SVG 1.1//EN"
 "http://www.w3.org/Graphics/SVG/1.1/DTD/svg11.dtd">
<!-- Generated by graphviz version 2.43.0 (0)
 -->
<!-- Title: stereocam::filters::PointCloudFilter Pages: 1 -->
<svg width="581pt" height="137pt"
 viewBox="0.00 0.00 581.00 137.00" xmlns="http://www.w3.org/2000/svg" xmlns:xlink="http://www.w3.org/1999/xlink">
<g id="graph0" class="graph" transform="scale(1 1) rotate(0) translate(4 133)">
<title>stereocam::filters::PointCloudFilter</title>
<polygon fill="white" stroke="transparent" points="-4,4 -4,-133 577,-133 577,4 -4,4"/>
<!-- Node1 -->
<g id="node1" class="node">
<title>Node1</title>
<g id="a_node1"><a xlink:title="Marker base for filters that consume the organized 3&#45;D point cloud.">
<polygon fill="#bfbfbf" stroke="black" points="287,-49.5 287,-79.5 389,-79.5 389,-49.5 287,-49.5"/>
<text text-anchor="start" x="295" y="-67.5" font-family="Helvetica,sans-Serif" font-size="10.00">stereocam::filters</text>
<text text-anchor="middle" x="338" y="-56.5" font-family="Helvetica,sans-Serif" font-size="10.00">::PointCloudFilter</text>
</a>
</g>
</g>
<!-- Node4 -->
<g id="node4" class="node">
<title>Node4</title>
<g id="a_node4"><a xlink:href="classstereocam_1_1filters_1_1BoundingBoxFilterCpp.html" target="_top" xlink:title="Drops cloud points outside an axis&#45;aligned 3D box (organized&#45;cloud stage).">
<polygon fill="white" stroke="black" points="433.5,-98.5 433.5,-128.5 564.5,-128.5 564.5,-98.5 433.5,-98.5"/>
<text text-anchor="start" x="441.5" y="-116.5" font-family="Helvetica,sans-Serif" font-size="10.00">stereocam::filters</text>
<text text-anchor="middle" x="499" y="-105.5" font-family="Helvetica,sans-Serif" font-size="10.00">::BoundingBoxFilterCpp</text>
</a>
</g>
</g>
<!-- Node1&#45;&gt;Node4 -->
<g id="edge3" class="edge">
<title>Node1&#45;&gt;Node4</title>
<path fill="none" stroke="midnightblue" d="M397.77,-82.61C414.68,-87.82 432.93,-93.45 449.16,-98.45"/>
<polygon fill="midnightblue" stroke="midnightblue" points="398.59,-79.2 388,-79.6 396.53,-85.89 398.59,-79.2"/>
</g>
<!-- Node5 -->
<g id="node5" class="node">
<title>Node5</title>
<g id="a_node5"><a xlink:href="classstereocam_1_1filters_1_1RayTsdfFilterCpp.html" target="_top" xlink:title="Per&#45;ray TSDF fusion on the organized cloud (organized&#45;cloud stage).">
<polygon fill="white" stroke="black" points="447,-49.5 447,-79.5 551,-79.5 551,-49.5 447,-49.5"/>
<text text-anchor="start" x="455" y="-67.5" font-family="Helvetica,sans-Serif" font-size="10.00">stereocam::filters</text>
<text text-anchor="middle" x="499" y="-56.5" font-family="Helvetica,sans-Serif" font-size="10.00">::RayTsdfFilterCpp</text>
</a>
</g>
</g>
<!-- Node1&#45;&gt;Node5 -->
<g id="edge4" class="edge">
<title>Node1&#45;&gt;Node5</title>
<path fill="none" stroke="midnightblue" d="M399.42,-64.5C415.08,-64.5 431.8,-64.5 446.93,-64.5"/>
<polygon fill="midnightblue" stroke="midnightblue" points="399.31,-61 389.31,-64.5 399.31,-68 399.31,-61"/>
</g>
<!-- Node6 -->
<g id="node6" class="node">
<title>Node6</title>
<g id="a_node6"><a xlink:href="classstereocam_1_1filters_1_1StatisticalOutlierFilterCpp.html" target="_top" xlink:title="Removes statistical outlier points from the organized cloud (organized&#45;cloud stage).">
<polygon fill="white" stroke="black" points="425,-0.5 425,-30.5 573,-30.5 573,-0.5 425,-0.5"/>
<text text-anchor="start" x="433" y="-18.5" font-family="Helvetica,sans-Serif" font-size="10.00">stereocam::filters</text>
<text text-anchor="middle" x="499" y="-7.5" font-family="Helvetica,sans-Serif" font-size="10.00">::StatisticalOutlierFilterCpp</text>
</a>
</g>
</g>
<!-- Node1&#45;&gt;Node6 -->
<g id="edge5" class="edge">
<title>Node1&#45;&gt;Node6</title>
<path fill="none" stroke="midnightblue" d="M397.77,-46.39C414.68,-41.18 432.93,-35.55 449.16,-30.55"/>
<polygon fill="midnightblue" stroke="midnightblue" points="396.53,-43.11 388,-49.4 398.59,-49.8 396.53,-43.11"/>
</g>
<!-- Node2 -->
<g id="node2" class="node">
<title>Node2</title>
<g id="a_node2"><a xlink:href="classstereocam_1_1filters_1_1IFilter.html" target="_top" xlink:title="Stage&#45;agnostic filter base class.">
<polygon fill="white" stroke="black" points="149,-49.5 149,-79.5 251,-79.5 251,-49.5 149,-49.5"/>
<text text-anchor="start" x="157" y="-67.5" font-family="Helvetica,sans-Serif" font-size="10.00">stereocam::filters</text>
<text text-anchor="middle" x="200" y="-56.5" font-family="Helvetica,sans-Serif" font-size="10.00">::IFilter</text>
</a>
</g>
</g>
<!-- Node2&#45;&gt;Node1 -->
<g id="edge1" class="edge">
<title>Node2&#45;&gt;Node1</title>
<path fill="none" stroke="midnightblue" d="M261.51,-64.5C270.01,-64.5 278.67,-64.5 286.95,-64.5"/>
<polygon fill="midnightblue" stroke="midnightblue" points="261.26,-61 251.25,-64.5 261.25,-68 261.26,-61"/>
</g>
<!-- Node3 -->
<g id="node3" class="node">
<title>Node3</title>
<g id="a_node3"><a xlink:href="classstereocam_1_1controls_1_1IControlOwner.html" target="_top" xlink:title="Language&#45;neutral base class for objects with self&#45;describing runtime parameters.">
<polygon fill="white" stroke="black" points="0,-49.5 0,-79.5 113,-79.5 113,-49.5 0,-49.5"/>
<text text-anchor="start" x="8" y="-67.5" font-family="Helvetica,sans-Serif" font-size="10.00">stereocam::controls</text>
<text text-anchor="middle" x="56.5" y="-56.5" font-family="Helvetica,sans-Serif" font-size="10.00">::IControlOwner</text>
</a>
</g>
</g>
<!-- Node3&#45;&gt;Node2 -->
<g id="edge2" class="edge">
<title>Node3&#45;&gt;Node2</title>
<path fill="none" stroke="midnightblue" d="M123.06,-64.5C131.68,-64.5 140.4,-64.5 148.71,-64.5"/>
<polygon fill="midnightblue" stroke="midnightblue" points="123.02,-61 113.02,-64.5 123.02,-68 123.02,-61"/>
</g>
</g>
</svg>
