<?xml version="1.0" encoding="UTF-8" standalone="no"?>
<!DOCTYPE svg PUBLIC "-//W3C//DTD SVG 1.1//EN"
 "http://www.w3.org/Graphics/SVG/1.1/DTD/svg11.dtd">
<!-- Generated by graphviz version 2.43.0 (0)
 -->
<!-- Title: depz_camera_sdk.inference.native_classical.NativeClassicalInferenceBase Pages: 1 -->
<svg width="249pt" height="173pt"
 viewBox="0.00 0.00 248.50 173.00" xmlns="http://www.w3.org/2000/svg" xmlns:xlink="http://www.w3.org/1999/xlink">
<g id="graph0" class="graph" transform="scale(1 1) rotate(0) translate(4 169)">
<title>depz_camera_sdk.inference.native_classical.NativeClassicalInferenceBase</title>
<polygon fill="white" stroke="transparent" points="-4,4 -4,-169 244.5,-169 244.5,4 -4,4"/>
<!-- Node1 -->
<g id="node1" class="node">
<title>Node1</title>
<g id="a_node1"><a xlink:title=" ">
<polygon fill="#bfbfbf" stroke="black" points="0,-0.5 0,-30.5 212,-30.5 212,-0.5 0,-0.5"/>
<text text-anchor="start" x="8" y="-18.5" font-family="Helvetica,sans-Serif" font-size="10.00">depz_camera_sdk.inference.native</text>
<text text-anchor="middle" x="106" y="-7.5" font-family="Helvetica,sans-Serif" font-size="10.00">_classical.NativeClassicalInferenceBase</text>
</a>
</g>
</g>
<!-- Node2 -->
<g id="node2" class="node">
<title>Node2</title>
<g id="a_node2"><a xlink:href="classdepz__camera__sdk_1_1inference_1_1base_1_1DepthInferenceBase.html" target="_top" xlink:title=" ">
<polygon fill="white" stroke="black" points="15,-67.5 15,-97.5 197,-97.5 197,-67.5 15,-67.5"/>
<text text-anchor="start" x="23" y="-85.5" font-family="Helvetica,sans-Serif" font-size="10.00">depz_camera_sdk.inference.base.</text>
<text text-anchor="middle" x="106" y="-74.5" font-family="Helvetica,sans-Serif" font-size="10.00">DepthInferenceBase</text>
</a>
</g>
</g>
<!-- Node2&#45;&gt;Node1 -->
<g id="edge1" class="edge">
<title>Node2&#45;&gt;Node1</title>
<path fill="none" stroke="midnightblue" d="M106,-57.11C106,-48.15 106,-38.32 106,-30.58"/>
<polygon fill="midnightblue" stroke="midnightblue" points="102.5,-57.4 106,-67.4 109.5,-57.4 102.5,-57.4"/>
</g>
<!-- Node3 -->
<g id="node3" class="node">
<title>Node3</title>
<g id="a_node3"><a xlink:title=" ">
<polygon fill="white" stroke="#bfbfbf" points="30.5,-140 30.5,-159 67.5,-159 67.5,-140 30.5,-140"/>
<text text-anchor="middle" x="49" y="-147" font-family="Helvetica,sans-Serif" font-size="10.00">ABC</text>
</a>
</g>
</g>
<!-- Node3&#45;&gt;Node2 -->
<g id="edge2" class="edge">
<title>Node3&#45;&gt;Node2</title>
<path fill="none" stroke="midnightblue" d="M63.48,-131.99C72.8,-121.36 84.78,-107.7 93.65,-97.59"/>
<polygon fill="midnightblue" stroke="midnightblue" points="60.65,-129.91 56.69,-139.73 65.91,-134.52 60.65,-129.91"/>
</g>
<!-- Node4 -->
<g id="node4" class="node">
<title>Node4</title>
<g id="a_node4"><a xlink:href="classdepz__camera__sdk_1_1__controls_1_1ControlOwner.html" target="_top" xlink:title=" ">
<polygon fill="white" stroke="black" points="85.5,-134.5 85.5,-164.5 240.5,-164.5 240.5,-134.5 85.5,-134.5"/>
<text text-anchor="start" x="93.5" y="-152.5" font-family="Helvetica,sans-Serif" font-size="10.00">depz_camera_sdk._controls.</text>
<text text-anchor="middle" x="163" y="-141.5" font-family="Helvetica,sans-Serif" font-size="10.00">ControlOwner</text>
</a>
</g>
</g>
<!-- Node4&#45;&gt;Node2 -->
<g id="edge3" class="edge">
<title>Node4&#45;&gt;Node2</title>
<path fill="none" stroke="midnightblue" d="M143.91,-126.74C135.48,-117.12 125.81,-106.09 118.34,-97.58"/>
<polygon fill="midnightblue" stroke="midnightblue" points="141.41,-129.18 150.63,-134.4 146.67,-124.57 141.41,-129.18"/>
</g>
</g>
</svg>
