<?xml version="1.0" encoding="UTF-8" standalone="no"?>
<!DOCTYPE svg PUBLIC "-//W3C//DTD SVG 1.1//EN"
 "http://www.w3.org/Graphics/SVG/1.1/DTD/svg11.dtd">
<!-- Generated by graphviz version 2.43.0 (0)
 -->
<!-- Title: depz_camera_sdk.inference.base.NeuralMonoInferenceBase Pages: 1 -->
<svg width="247pt" height="307pt"
 viewBox="0.00 0.00 247.00 307.00" xmlns="http://www.w3.org/2000/svg" xmlns:xlink="http://www.w3.org/1999/xlink">
<g id="graph0" class="graph" transform="scale(1 1) rotate(0) translate(4 303)">
<title>depz_camera_sdk.inference.base.NeuralMonoInferenceBase</title>
<polygon fill="white" stroke="transparent" points="-4,4 -4,-303 243,-303 243,4 -4,4"/>
<!-- Node1 -->
<g id="node1" class="node">
<title>Node1</title>
<g id="a_node1"><a xlink:title=" ">
<polygon fill="#bfbfbf" stroke="black" points="13.5,-67.5 13.5,-97.5 195.5,-97.5 195.5,-67.5 13.5,-67.5"/>
<text text-anchor="start" x="21.5" y="-85.5" font-family="Helvetica,sans-Serif" font-size="10.00">depz_camera_sdk.inference.base.</text>
<text text-anchor="middle" x="104.5" y="-74.5" font-family="Helvetica,sans-Serif" font-size="10.00">NeuralMonoInferenceBase</text>
</a>
</g>
</g>
<!-- Node6 -->
<g id="node6" class="node">
<title>Node6</title>
<g id="a_node6"><a xlink:href="classdepz__camera__sdk_1_1inference_1_1native__runtime_1_1NativeMonoInferenceRuntime.html" target="_top" xlink:title=" ">
<polygon fill="white" stroke="black" points="0,-0.5 0,-30.5 209,-30.5 209,-0.5 0,-0.5"/>
<text text-anchor="start" x="8" y="-18.5" font-family="Helvetica,sans-Serif" font-size="10.00">depz_camera_sdk.inference.native</text>
<text text-anchor="middle" x="104.5" y="-7.5" font-family="Helvetica,sans-Serif" font-size="10.00">_runtime.NativeMonoInferenceRuntime</text>
</a>
</g>
</g>
<!-- Node1&#45;&gt;Node6 -->
<g id="edge5" class="edge">
<title>Node1&#45;&gt;Node6</title>
<path fill="none" stroke="midnightblue" d="M104.5,-57.11C104.5,-48.15 104.5,-38.32 104.5,-30.58"/>
<polygon fill="midnightblue" stroke="midnightblue" points="101,-57.4 104.5,-67.4 108,-57.4 101,-57.4"/>
</g>
<!-- Node2 -->
<g id="node2" class="node">
<title>Node2</title>
<g id="a_node2"><a xlink:href="classdepz__camera__sdk_1_1inference_1_1base_1_1NeuralInferenceBase.html" target="_top" xlink:title=" ">
<polygon fill="white" stroke="black" points="13.5,-134.5 13.5,-164.5 195.5,-164.5 195.5,-134.5 13.5,-134.5"/>
<text text-anchor="start" x="21.5" y="-152.5" font-family="Helvetica,sans-Serif" font-size="10.00">depz_camera_sdk.inference.base.</text>
<text text-anchor="middle" x="104.5" y="-141.5" font-family="Helvetica,sans-Serif" font-size="10.00">NeuralInferenceBase</text>
</a>
</g>
</g>
<!-- Node2&#45;&gt;Node1 -->
<g id="edge1" class="edge">
<title>Node2&#45;&gt;Node1</title>
<path fill="none" stroke="midnightblue" d="M104.5,-124.11C104.5,-115.15 104.5,-105.32 104.5,-97.58"/>
<polygon fill="midnightblue" stroke="midnightblue" points="101,-124.4 104.5,-134.4 108,-124.4 101,-124.4"/>
</g>
<!-- Node3 -->
<g id="node3" class="node">
<title>Node3</title>
<g id="a_node3"><a xlink:href="classdepz__camera__sdk_1_1inference_1_1base_1_1DepthInferenceBase.html" target="_top" xlink:title=" ">
<polygon fill="white" stroke="black" points="13.5,-201.5 13.5,-231.5 195.5,-231.5 195.5,-201.5 13.5,-201.5"/>
<text text-anchor="start" x="21.5" y="-219.5" font-family="Helvetica,sans-Serif" font-size="10.00">depz_camera_sdk.inference.base.</text>
<text text-anchor="middle" x="104.5" y="-208.5" font-family="Helvetica,sans-Serif" font-size="10.00">DepthInferenceBase</text>
</a>
</g>
</g>
<!-- Node3&#45;&gt;Node2 -->
<g id="edge2" class="edge">
<title>Node3&#45;&gt;Node2</title>
<path fill="none" stroke="midnightblue" d="M104.5,-191.11C104.5,-182.15 104.5,-172.32 104.5,-164.58"/>
<polygon fill="midnightblue" stroke="midnightblue" points="101,-191.4 104.5,-201.4 108,-191.4 101,-191.4"/>
</g>
<!-- Node4 -->
<g id="node4" class="node">
<title>Node4</title>
<g id="a_node4"><a xlink:title=" ">
<polygon fill="white" stroke="#bfbfbf" points="29,-274 29,-293 66,-293 66,-274 29,-274"/>
<text text-anchor="middle" x="47.5" y="-281" font-family="Helvetica,sans-Serif" font-size="10.00">ABC</text>
</a>
</g>
</g>
<!-- Node4&#45;&gt;Node3 -->
<g id="edge3" class="edge">
<title>Node4&#45;&gt;Node3</title>
<path fill="none" stroke="midnightblue" d="M61.98,-265.99C71.3,-255.36 83.28,-241.7 92.15,-231.59"/>
<polygon fill="midnightblue" stroke="midnightblue" points="59.15,-263.91 55.19,-273.73 64.41,-268.52 59.15,-263.91"/>
</g>
<!-- Node5 -->
<g id="node5" class="node">
<title>Node5</title>
<g id="a_node5"><a xlink:href="classdepz__camera__sdk_1_1__controls_1_1ControlOwner.html" target="_top" xlink:title=" ">
<polygon fill="white" stroke="black" points="84,-268.5 84,-298.5 239,-298.5 239,-268.5 84,-268.5"/>
<text text-anchor="start" x="92" y="-286.5" font-family="Helvetica,sans-Serif" font-size="10.00">depz_camera_sdk._controls.</text>
<text text-anchor="middle" x="161.5" y="-275.5" font-family="Helvetica,sans-Serif" font-size="10.00">ControlOwner</text>
</a>
</g>
</g>
<!-- Node5&#45;&gt;Node3 -->
<g id="edge4" class="edge">
<title>Node5&#45;&gt;Node3</title>
<path fill="none" stroke="midnightblue" d="M142.41,-260.74C133.98,-251.12 124.31,-240.09 116.84,-231.58"/>
<polygon fill="midnightblue" stroke="midnightblue" points="139.91,-263.18 149.13,-268.4 145.17,-258.57 139.91,-263.18"/>
</g>
</g>
</svg>
