<?xml version="1.0" encoding="UTF-8" standalone="no"?>
<!DOCTYPE svg PUBLIC "-//W3C//DTD SVG 1.1//EN"
 "http://www.w3.org/Graphics/SVG/1.1/DTD/svg11.dtd">
<!-- Generated by graphviz version 2.43.0 (0)
 -->
<!-- Title: stereocam::filters::IFilter Pages: 1 -->
<!--zoomable 333 -->
<svg id="main" version="1.1" xmlns="http://www.w3.org/2000/svg" xmlns:xlink="http://www.w3.org/1999/xlink" xml:space="preserve" onload="init(evt)">
<style type="text/css"><![CDATA[
.edge:hover path { stroke: red; }
.edge:hover polygon { stroke: red; fill: red; }
]]></style>
<script type="text/javascript"><![CDATA[
var edges = document.getElementsByTagName('g');
if (edges && edges.length) {
  for (var i=0;i<edges.length;i++) {
    if (edges[i].id.substr(0,4)=='edge') {
      edges[i].setAttribute('class','edge');
    }
  }
}
]]></script>
        <defs>
                <circle id="rim" cx="0" cy="0" r="7"/>
                <circle id="rim2" cx="0" cy="0" r="3.5"/>
                <g id="zoomPlus">
                        <use xlink:href="#rim" fill="#404040">
                                <set attributeName="fill" to="#808080" begin="zoomplus.mouseover" end="zoomplus.mouseout"/>
                        </use>
                        <path d="M-4,0h8M0,-4v8" fill="none" stroke="white" stroke-width="1.5" pointer-events="none"/>
                </g>
                <g id="zoomMin">
                        <use xlink:href="#rim" fill="#404040">
                                <set attributeName="fill" to="#808080" begin="zoomminus.mouseover" end="zoomminus.mouseout"/>
                        </use>
                        <path d="M-4,0h8" fill="none" stroke="white" stroke-width="1.5" pointer-events="none"/>
                </g>
                <g id="dirArrow">
                        <path fill="none" stroke="white" stroke-width="1.5" d="M0,-3.0v7 M-2.5,-0.5L0,-3.0L2.5,-0.5"/>
                </g>
               <g id="resetDef">
                       <use xlink:href="#rim2" fill="#404040">
                               <set attributeName="fill" to="#808080" begin="reset.mouseover" end="reset.mouseout"/>
                       </use>
               </g>
        </defs>

<script type="text/javascript">
var viewWidth = 581;
var viewHeight = 333;
var sectionId = 'dynsection-0';
</script>
<script xlink:href="svgpan.js"/>
<svg id="graph" class="graph">
<g id="viewport">
<title>stereocam::filters::IFilter</title>
<polygon fill="white" stroke="transparent" points="-4,4 -4,-329 577,-329 577,4 -4,4"/>
<!-- Node1 -->
<g id="node1" class="node">
<title>Node1</title>
<g id="a_node1"><a xlink:title="Stage&#45;agnostic filter base class.">
<polygon fill="#bfbfbf" stroke="black" points="149,-147.5 149,-177.5 251,-177.5 251,-147.5 149,-147.5"/>
<text text-anchor="start" x="157" y="-165.5" font-family="Helvetica,sans-Serif" font-size="10.00">stereocam::filters</text>
<text text-anchor="middle" x="200" y="-154.5" font-family="Helvetica,sans-Serif" font-size="10.00">::IFilter</text>
</a>
</g>
</g>
<!-- Node3 -->
<g id="node3" class="node">
<title>Node3</title>
<g id="a_node3"><a xlink:href="classstereocam_1_1filters_1_1DepthFilter.html" target="_top" xlink:title="Marker base for filters that consume the metric depth map.">
<polygon fill="white" stroke="black" points="287,-220.5 287,-250.5 389,-250.5 389,-220.5 287,-220.5"/>
<text text-anchor="start" x="295" y="-238.5" font-family="Helvetica,sans-Serif" font-size="10.00">stereocam::filters</text>
<text text-anchor="middle" x="338" y="-227.5" font-family="Helvetica,sans-Serif" font-size="10.00">::DepthFilter</text>
</a>
</g>
</g>
<!-- Node1&#45;&gt;Node3 -->
<g id="edge2" class="edge">
<title>Node1&#45;&gt;Node3</title>
<path fill="none" stroke="midnightblue" d="M238.05,-182.39C260.37,-194.37 288.35,-209.39 308.86,-220.39"/>
<polygon fill="midnightblue" stroke="midnightblue" points="239.65,-179.27 229.18,-177.63 236.33,-185.44 239.65,-179.27"/>
</g>
<!-- Node7 -->
<g id="node7" class="node">
<title>Node7</title>
<g id="a_node7"><a xlink:href="classstereocam_1_1filters_1_1DisparityFilter.html" target="_top" xlink:title="Marker base for filters that consume the raw disparity map.">
<polygon fill="white" stroke="black" points="287,-147.5 287,-177.5 389,-177.5 389,-147.5 287,-147.5"/>
<text text-anchor="start" x="295" y="-165.5" font-family="Helvetica,sans-Serif" font-size="10.00">stereocam::filters</text>
<text text-anchor="middle" x="338" y="-154.5" font-family="Helvetica,sans-Serif" font-size="10.00">::DisparityFilter</text>
</a>
</g>
</g>
<!-- Node1&#45;&gt;Node7 -->
<g id="edge6" class="edge">
<title>Node1&#45;&gt;Node7</title>
<path fill="none" stroke="midnightblue" d="M261.51,-162.5C270.01,-162.5 278.67,-162.5 286.95,-162.5"/>
<polygon fill="midnightblue" stroke="midnightblue" points="261.26,-159 251.25,-162.5 261.25,-166 261.26,-159"/>
</g>
<!-- Node9 -->
<g id="node9" class="node">
<title>Node9</title>
<g id="a_node9"><a xlink:href="classstereocam_1_1filters_1_1PointCloudFilter.html" target="_top" xlink:title="Marker base for filters that consume the organized 3&#45;D point cloud.">
<polygon fill="white" stroke="black" points="287,-74.5 287,-104.5 389,-104.5 389,-74.5 287,-74.5"/>
<text text-anchor="start" x="295" y="-92.5" font-family="Helvetica,sans-Serif" font-size="10.00">stereocam::filters</text>
<text text-anchor="middle" x="338" y="-81.5" font-family="Helvetica,sans-Serif" font-size="10.00">::PointCloudFilter</text>
</a>
</g>
</g>
<!-- Node1&#45;&gt;Node9 -->
<g id="edge8" class="edge">
<title>Node1&#45;&gt;Node9</title>
<path fill="none" stroke="midnightblue" d="M238.05,-142.61C260.37,-130.63 288.35,-115.61 308.86,-104.61"/>
<polygon fill="midnightblue" stroke="midnightblue" points="236.33,-139.56 229.18,-147.37 239.65,-145.73 236.33,-139.56"/>
</g>
<!-- Node2 -->
<g id="node2" class="node">
<title>Node2</title>
<g id="a_node2"><a xlink:href="classstereocam_1_1controls_1_1IControlOwner.html" target="_top" xlink:title="Language&#45;neutral base class for objects with self&#45;describing runtime parameters.">
<polygon fill="white" stroke="black" points="0,-147.5 0,-177.5 113,-177.5 113,-147.5 0,-147.5"/>
<text text-anchor="start" x="8" y="-165.5" font-family="Helvetica,sans-Serif" font-size="10.00">stereocam::controls</text>
<text text-anchor="middle" x="56.5" y="-154.5" font-family="Helvetica,sans-Serif" font-size="10.00">::IControlOwner</text>
</a>
</g>
</g>
<!-- Node2&#45;&gt;Node1 -->
<g id="edge1" class="edge">
<title>Node2&#45;&gt;Node1</title>
<path fill="none" stroke="midnightblue" d="M123.06,-162.5C131.68,-162.5 140.4,-162.5 148.71,-162.5"/>
<polygon fill="midnightblue" stroke="midnightblue" points="123.02,-159 113.02,-162.5 123.02,-166 123.02,-159"/>
</g>
<!-- Node4 -->
<g id="node4" class="node">
<title>Node4</title>
<g id="a_node4"><a xlink:href="classstereocam_1_1filters_1_1EdgeFilterCpp.html" target="_top" xlink:title="Drops pixels at depth discontinuities — boundary skirts and flyers (depth stage).">
<polygon fill="white" stroke="black" points="448,-294.5 448,-324.5 550,-324.5 550,-294.5 448,-294.5"/>
<text text-anchor="start" x="456" y="-312.5" font-family="Helvetica,sans-Serif" font-size="10.00">stereocam::filters</text>
<text text-anchor="middle" x="499" y="-301.5" font-family="Helvetica,sans-Serif" font-size="10.00">::EdgeFilterCpp</text>
</a>
</g>
</g>
<!-- Node3&#45;&gt;Node4 -->
<g id="edge3" class="edge">
<title>Node3&#45;&gt;Node4</title>
<path fill="none" stroke="midnightblue" d="M370.88,-256.18C386.73,-265.9 406.43,-277.16 425,-285.5 432.3,-288.78 440.19,-291.84 447.99,-294.6"/>
<polygon fill="midnightblue" stroke="midnightblue" points="372.36,-252.98 362.02,-250.66 368.66,-258.92 372.36,-252.98"/>
</g>
<!-- Node5 -->
<g id="node5" class="node">
<title>Node5</title>
<g id="a_node5"><a xlink:href="classstereocam_1_1filters_1_1TemporalEmaFilterCpp.html" target="_top" xlink:title="Smooths the depth map by per&#45;pixel EMA over consecutive frames (depth stage).">
<polygon fill="white" stroke="black" points="432.5,-245.5 432.5,-275.5 565.5,-275.5 565.5,-245.5 432.5,-245.5"/>
<text text-anchor="start" x="440.5" y="-263.5" font-family="Helvetica,sans-Serif" font-size="10.00">stereocam::filters</text>
<text text-anchor="middle" x="499" y="-252.5" font-family="Helvetica,sans-Serif" font-size="10.00">::TemporalEmaFilterCpp</text>
</a>
</g>
</g>
<!-- Node3&#45;&gt;Node5 -->
<g id="edge4" class="edge">
<title>Node3&#45;&gt;Node5</title>
<path fill="none" stroke="midnightblue" d="M399.43,-245C410.18,-246.69 421.41,-248.46 432.3,-250.17"/>
<polygon fill="midnightblue" stroke="midnightblue" points="399.73,-241.51 389.31,-243.41 398.64,-248.42 399.73,-241.51"/>
</g>
<!-- Node6 -->
<g id="node6" class="node">
<title>Node6</title>
<g id="a_node6"><a xlink:href="classstereocam_1_1filters_1_1ZClipFilterCpp.html" target="_top" xlink:title="Zeros depth pixels outside the [_min, _max] metre range (depth stage).">
<polygon fill="white" stroke="black" points="448,-196.5 448,-226.5 550,-226.5 550,-196.5 448,-196.5"/>
<text text-anchor="start" x="456" y="-214.5" font-family="Helvetica,sans-Serif" font-size="10.00">stereocam::filters</text>
<text text-anchor="middle" x="499" y="-203.5" font-family="Helvetica,sans-Serif" font-size="10.00">::ZClipFilterCpp</text>
</a>
</g>
</g>
<!-- Node3&#45;&gt;Node6 -->
<g id="edge5" class="edge">
<title>Node3&#45;&gt;Node6</title>
<path fill="none" stroke="midnightblue" d="M399.57,-226.36C415.48,-223.96 432.45,-221.39 447.75,-219.09"/>
<polygon fill="midnightblue" stroke="midnightblue" points="398.67,-222.95 389.31,-227.91 399.72,-229.87 398.67,-222.95"/>
</g>
<!-- Node8 -->
<g id="node8" class="node">
<title>Node8</title>
<g id="a_node8"><a xlink:href="classstereocam_1_1filters_1_1SpeckleFilterCpp.html" target="_top" xlink:title="Removes small speckle islands from a raw disparity map (disparity stage).">
<polygon fill="white" stroke="black" points="447,-147.5 447,-177.5 551,-177.5 551,-147.5 447,-147.5"/>
<text text-anchor="start" x="455" y="-165.5" font-family="Helvetica,sans-Serif" font-size="10.00">stereocam::filters</text>
<text text-anchor="middle" x="499" y="-154.5" font-family="Helvetica,sans-Serif" font-size="10.00">::SpeckleFilterCpp</text>
</a>
</g>
</g>
<!-- Node7&#45;&gt;Node8 -->
<g id="edge7" class="edge">
<title>Node7&#45;&gt;Node8</title>
<path fill="none" stroke="midnightblue" d="M399.42,-162.5C415.08,-162.5 431.8,-162.5 446.93,-162.5"/>
<polygon fill="midnightblue" stroke="midnightblue" points="399.31,-159 389.31,-162.5 399.31,-166 399.31,-159"/>
</g>
<!-- Node10 -->
<g id="node10" class="node">
<title>Node10</title>
<g id="a_node10"><a xlink:href="classstereocam_1_1filters_1_1BoundingBoxFilterCpp.html" target="_top" xlink:title="Drops cloud points outside an axis&#45;aligned 3D box (organized&#45;cloud stage).">
<polygon fill="white" stroke="black" points="433.5,-98.5 433.5,-128.5 564.5,-128.5 564.5,-98.5 433.5,-98.5"/>
<text text-anchor="start" x="441.5" y="-116.5" font-family="Helvetica,sans-Serif" font-size="10.00">stereocam::filters</text>
<text text-anchor="middle" x="499" y="-105.5" font-family="Helvetica,sans-Serif" font-size="10.00">::BoundingBoxFilterCpp</text>
</a>
</g>
</g>
<!-- Node9&#45;&gt;Node10 -->
<g id="edge9" class="edge">
<title>Node9&#45;&gt;Node10</title>
<path fill="none" stroke="midnightblue" d="M399.36,-98.61C410.51,-100.29 422.18,-102.06 433.44,-103.76"/>
<polygon fill="midnightblue" stroke="midnightblue" points="399.72,-95.13 389.31,-97.09 398.67,-102.05 399.72,-95.13"/>
</g>
<!-- Node11 -->
<g id="node11" class="node">
<title>Node11</title>
<g id="a_node11"><a xlink:href="classstereocam_1_1filters_1_1RayTsdfFilterCpp.html" target="_top" xlink:title="Per&#45;ray TSDF fusion on the organized cloud (organized&#45;cloud stage).">
<polygon fill="white" stroke="black" points="447,-49.5 447,-79.5 551,-79.5 551,-49.5 447,-49.5"/>
<text text-anchor="start" x="455" y="-67.5" font-family="Helvetica,sans-Serif" font-size="10.00">stereocam::filters</text>
<text text-anchor="middle" x="499" y="-56.5" font-family="Helvetica,sans-Serif" font-size="10.00">::RayTsdfFilterCpp</text>
</a>
</g>
</g>
<!-- Node9&#45;&gt;Node11 -->
<g id="edge10" class="edge">
<title>Node9&#45;&gt;Node11</title>
<path fill="none" stroke="midnightblue" d="M399.42,-80C415.08,-77.54 431.8,-74.91 446.93,-72.53"/>
<polygon fill="midnightblue" stroke="midnightblue" points="398.64,-76.58 389.31,-81.59 399.73,-83.49 398.64,-76.58"/>
</g>
<!-- Node12 -->
<g id="node12" class="node">
<title>Node12</title>
<g id="a_node12"><a xlink:href="classstereocam_1_1filters_1_1StatisticalOutlierFilterCpp.html" target="_top" xlink:title="Removes statistical outlier points from the organized cloud (organized&#45;cloud stage).">
<polygon fill="white" stroke="black" points="425,-0.5 425,-30.5 573,-30.5 573,-0.5 425,-0.5"/>
<text text-anchor="start" x="433" y="-18.5" font-family="Helvetica,sans-Serif" font-size="10.00">stereocam::filters</text>
<text text-anchor="middle" x="499" y="-7.5" font-family="Helvetica,sans-Serif" font-size="10.00">::StatisticalOutlierFilterCpp</text>
</a>
</g>
</g>
<!-- Node9&#45;&gt;Node12 -->
<g id="edge11" class="edge">
<title>Node9&#45;&gt;Node12</title>
<path fill="none" stroke="midnightblue" d="M370.88,-68.82C386.73,-59.1 406.43,-47.84 425,-39.5 432.18,-36.28 439.93,-33.26 447.6,-30.53"/>
<polygon fill="midnightblue" stroke="midnightblue" points="368.66,-66.08 362.02,-74.34 372.36,-72.02 368.66,-66.08"/>
</g>
</g>
</svg>
        <g id="navigator" transform="translate(0 0)" fill="#404254">
                <rect fill="#f2f5e9" fill-opacity="0.5" stroke="#606060" stroke-width=".5" x="0" y="0" width="60" height="60"/>
                <use id="zoomplus" xlink:href="#zoomPlus" x="17" y="9" onmousedown="handleZoom(evt,'in')"/>
                <use id="zoomminus" xlink:href="#zoomMin" x="42" y="9" onmousedown="handleZoom(evt,'out')"/>
                <use id="reset" xlink:href="#resetDef" x="30" y="36" onmousedown="handleReset()"/>
                <g id="arrowUp" xlink:href="#dirArrow" transform="translate(30 24)" onmousedown="handlePan(0,-1)">
                  <use xlink:href="#rim" fill="#404040">
                        <set attributeName="fill" to="#808080" begin="arrowUp.mouseover" end="arrowUp.mouseout"/>
                  </use>
                  <path fill="none" stroke="white" stroke-width="1.5" d="M0,-3.0v7 M-2.5,-0.5L0,-3.0L2.5,-0.5"/>
                </g>
                <g id="arrowRight" xlink:href="#dirArrow" transform="rotate(90) translate(36 -43)" onmousedown="handlePan(1,0)">
                  <use xlink:href="#rim" fill="#404040">
                        <set attributeName="fill" to="#808080" begin="arrowRight.mouseover" end="arrowRight.mouseout"/>
                  </use>
                  <path fill="none" stroke="white" stroke-width="1.5" d="M0,-3.0v7 M-2.5,-0.5L0,-3.0L2.5,-0.5"/>
                </g>
                <g id="arrowDown" xlink:href="#dirArrow" transform="rotate(180) translate(-30 -48)" onmousedown="handlePan(0,1)">
                  <use xlink:href="#rim" fill="#404040">
                        <set attributeName="fill" to="#808080" begin="arrowDown.mouseover" end="arrowDown.mouseout"/>
                  </use>
                  <path fill="none" stroke="white" stroke-width="1.5" d="M0,-3.0v7 M-2.5,-0.5L0,-3.0L2.5,-0.5"/>
                </g>
                <g id="arrowLeft" xlink:href="#dirArrow" transform="rotate(270) translate(-36 17)" onmousedown="handlePan(-1,0)">
                  <use xlink:href="#rim" fill="#404040">
                        <set attributeName="fill" to="#808080" begin="arrowLeft.mouseover" end="arrowLeft.mouseout"/>
                  </use>
                  <path fill="none" stroke="white" stroke-width="1.5" d="M0,-3.0v7 M-2.5,-0.5L0,-3.0L2.5,-0.5"/>
                </g>
        </g>
        <svg viewBox="0 0 15 15" width="100%" height="30px" preserveAspectRatio="xMaxYMin meet">
         <g id="arrow_out" transform="scale(0.3 0.3)">
          <a xlink:href="classstereocam_1_1filters_1_1IFilter__inherit__graph_org.svg" target="_base">
           <rect id="button" ry="5" rx="5" y="6" x="6" height="38" width="38"
                fill="#f2f5e9" fill-opacity="0.5" stroke="#606060" stroke-width="1.0"/>
           <path id="arrow"
             d="M 11.500037,31.436501 C 11.940474,20.09759 22.043105,11.32322 32.158766,21.979434 L 37.068811,17.246167 C 37.068811,17.246167 37.088388,32 37.088388,32 L 22.160133,31.978069 C 22.160133,31.978069 26.997745,27.140456 26.997745,27.140456 C 18.528582,18.264221 13.291696,25.230495 11.500037,31.436501 z"
             style="fill:#404040;"/>
          </a>
         </g>
        </svg>
</svg>
