<?xml version="1.0" encoding="UTF-8" standalone="no"?>
<!DOCTYPE svg PUBLIC "-//W3C//DTD SVG 1.1//EN"
 "http://www.w3.org/Graphics/SVG/1.1/DTD/svg11.dtd">
<!-- Generated by graphviz version 2.43.0 (0)
 -->
<!-- Title: stereocam::calibration::Calibration Pages: 1 -->
<svg width="471pt" height="88pt"
 viewBox="0.00 0.00 471.00 88.00" xmlns="http://www.w3.org/2000/svg" xmlns:xlink="http://www.w3.org/1999/xlink">
<g id="graph0" class="graph" transform="scale(1 1) rotate(0) translate(4 84)">
<title>stereocam::calibration::Calibration</title>
<polygon fill="white" stroke="transparent" points="-4,4 -4,-84 467,-84 467,4 -4,4"/>
<!-- Node1 -->
<g id="node1" class="node">
<title>Node1</title>
<g id="a_node1"><a xlink:title="Stereo / mono calibration runtime contract.">
<polygon fill="#bfbfbf" stroke="black" points="149,-24.5 149,-54.5 275,-54.5 275,-24.5 149,-24.5"/>
<text text-anchor="start" x="157" y="-42.5" font-family="Helvetica,sans-Serif" font-size="10.00">stereocam::calibration</text>
<text text-anchor="middle" x="212" y="-31.5" font-family="Helvetica,sans-Serif" font-size="10.00">::Calibration</text>
</a>
</g>
</g>
<!-- Node3 -->
<g id="node3" class="node">
<title>Node3</title>
<g id="a_node3"><a xlink:href="classstereocam_1_1calibration_1_1OpenCVBasicCalibration.html" target="_top" xlink:title="Pinhole (OpenCV5/8) stereo&#45;or&#45;mono calibration with canvas&#45;fit remap.">
<polygon fill="white" stroke="black" points="316.5,-49.5 316.5,-79.5 457.5,-79.5 457.5,-49.5 316.5,-49.5"/>
<text text-anchor="start" x="324.5" y="-67.5" font-family="Helvetica,sans-Serif" font-size="10.00">stereocam::calibration</text>
<text text-anchor="middle" x="387" y="-56.5" font-family="Helvetica,sans-Serif" font-size="10.00">::OpenCVBasicCalibration</text>
</a>
</g>
</g>
<!-- Node1&#45;&gt;Node3 -->
<g id="edge2" class="edge">
<title>Node1&#45;&gt;Node3</title>
<path fill="none" stroke="midnightblue" d="M285.53,-49.98C295.72,-51.45 306.17,-52.96 316.3,-54.43"/>
<polygon fill="midnightblue" stroke="midnightblue" points="285.85,-46.49 275.46,-48.53 284.85,-53.42 285.85,-46.49"/>
</g>
<!-- Node4 -->
<g id="node4" class="node">
<title>Node4</title>
<g id="a_node4"><a xlink:href="classstereocam_1_1calibration_1_1OpenCVFisheyeCalibration.html" target="_top" xlink:title="Stereo Kannala–Brandt fisheye calibration with lon/lat (ERP) rectification.">
<polygon fill="white" stroke="black" points="311,-0.5 311,-30.5 463,-30.5 463,-0.5 311,-0.5"/>
<text text-anchor="start" x="319" y="-18.5" font-family="Helvetica,sans-Serif" font-size="10.00">stereocam::calibration</text>
<text text-anchor="middle" x="387" y="-7.5" font-family="Helvetica,sans-Serif" font-size="10.00">::OpenCVFisheyeCalibration</text>
</a>
</g>
</g>
<!-- Node1&#45;&gt;Node4 -->
<g id="edge3" class="edge">
<title>Node1&#45;&gt;Node4</title>
<path fill="none" stroke="midnightblue" d="M285.58,-29.43C293.97,-28.27 302.53,-27.08 310.95,-25.91"/>
<polygon fill="midnightblue" stroke="midnightblue" points="284.88,-25.99 275.46,-30.84 285.84,-32.93 284.88,-25.99"/>
</g>
<!-- Node2 -->
<g id="node2" class="node">
<title>Node2</title>
<g id="a_node2"><a xlink:href="classstereocam_1_1controls_1_1IControlOwner.html" target="_top" xlink:title="Language&#45;neutral base class for objects with self&#45;describing runtime parameters.">
<polygon fill="white" stroke="black" points="0,-24.5 0,-54.5 113,-54.5 113,-24.5 0,-24.5"/>
<text text-anchor="start" x="8" y="-42.5" font-family="Helvetica,sans-Serif" font-size="10.00">stereocam::controls</text>
<text text-anchor="middle" x="56.5" y="-31.5" font-family="Helvetica,sans-Serif" font-size="10.00">::IControlOwner</text>
</a>
</g>
</g>
<!-- Node2&#45;&gt;Node1 -->
<g id="edge1" class="edge">
<title>Node2&#45;&gt;Node1</title>
<path fill="none" stroke="midnightblue" d="M123.53,-39.5C131.97,-39.5 140.59,-39.5 148.96,-39.5"/>
<polygon fill="midnightblue" stroke="midnightblue" points="123.35,-36 113.35,-39.5 123.35,-43 123.35,-36"/>
</g>
</g>
</svg>
