<?xml version="1.0" encoding="UTF-8" standalone="no"?>
<!DOCTYPE svg PUBLIC "-//W3C//DTD SVG 1.1//EN"
 "http://www.w3.org/Graphics/SVG/1.1/DTD/svg11.dtd">
<!-- Generated by graphviz version 2.43.0 (0)
 -->
<!-- Title: stereocam::filters::StatisticalOutlierFilterCpp Pages: 1 -->
<svg width="156pt" height="240pt"
 viewBox="0.00 0.00 156.00 240.00" xmlns="http://www.w3.org/2000/svg" xmlns:xlink="http://www.w3.org/1999/xlink">
<g id="graph0" class="graph" transform="scale(1 1) rotate(0) translate(4 236)">
<title>stereocam::filters::StatisticalOutlierFilterCpp</title>
<polygon fill="white" stroke="transparent" points="-4,4 -4,-236 152,-236 152,4 -4,4"/>
<!-- Node1 -->
<g id="node1" class="node">
<title>Node1</title>
<g id="a_node1"><a xlink:title="Removes statistical outlier points from the organized cloud (organized&#45;cloud stage).">
<polygon fill="#bfbfbf" stroke="black" points="0,-0.5 0,-30.5 148,-30.5 148,-0.5 0,-0.5"/>
<text text-anchor="start" x="8" y="-18.5" font-family="Helvetica,sans-Serif" font-size="10.00">stereocam::filters</text>
<text text-anchor="middle" x="74" y="-7.5" font-family="Helvetica,sans-Serif" font-size="10.00">::StatisticalOutlierFilterCpp</text>
</a>
</g>
</g>
<!-- Node2 -->
<g id="node2" class="node">
<title>Node2</title>
<g id="a_node2"><a xlink:href="classstereocam_1_1filters_1_1PointCloudFilter.html" target="_top" xlink:title="Marker base for filters that consume the organized 3&#45;D point cloud.">
<polygon fill="white" stroke="black" points="23,-67.5 23,-97.5 125,-97.5 125,-67.5 23,-67.5"/>
<text text-anchor="start" x="31" y="-85.5" font-family="Helvetica,sans-Serif" font-size="10.00">stereocam::filters</text>
<text text-anchor="middle" x="74" y="-74.5" font-family="Helvetica,sans-Serif" font-size="10.00">::PointCloudFilter</text>
</a>
</g>
</g>
<!-- Node2&#45;&gt;Node1 -->
<g id="edge1" class="edge">
<title>Node2&#45;&gt;Node1</title>
<path fill="none" stroke="midnightblue" d="M74,-57.11C74,-48.15 74,-38.32 74,-30.58"/>
<polygon fill="midnightblue" stroke="midnightblue" points="70.5,-57.4 74,-67.4 77.5,-57.4 70.5,-57.4"/>
</g>
<!-- Node3 -->
<g id="node3" class="node">
<title>Node3</title>
<g id="a_node3"><a xlink:href="classstereocam_1_1filters_1_1IFilter.html" target="_top" xlink:title="Stage&#45;agnostic filter base class.">
<polygon fill="white" stroke="black" points="23,-134.5 23,-164.5 125,-164.5 125,-134.5 23,-134.5"/>
<text text-anchor="start" x="31" y="-152.5" font-family="Helvetica,sans-Serif" font-size="10.00">stereocam::filters</text>
<text text-anchor="middle" x="74" y="-141.5" font-family="Helvetica,sans-Serif" font-size="10.00">::IFilter</text>
</a>
</g>
</g>
<!-- Node3&#45;&gt;Node2 -->
<g id="edge2" class="edge">
<title>Node3&#45;&gt;Node2</title>
<path fill="none" stroke="midnightblue" d="M74,-124.11C74,-115.15 74,-105.32 74,-97.58"/>
<polygon fill="midnightblue" stroke="midnightblue" points="70.5,-124.4 74,-134.4 77.5,-124.4 70.5,-124.4"/>
</g>
<!-- Node4 -->
<g id="node4" class="node">
<title>Node4</title>
<g id="a_node4"><a xlink:href="classstereocam_1_1controls_1_1IControlOwner.html" target="_top" xlink:title="Language&#45;neutral base class for objects with self&#45;describing runtime parameters.">
<polygon fill="white" stroke="black" points="17.5,-201.5 17.5,-231.5 130.5,-231.5 130.5,-201.5 17.5,-201.5"/>
<text text-anchor="start" x="25.5" y="-219.5" font-family="Helvetica,sans-Serif" font-size="10.00">stereocam::controls</text>
<text text-anchor="middle" x="74" y="-208.5" font-family="Helvetica,sans-Serif" font-size="10.00">::IControlOwner</text>
</a>
</g>
</g>
<!-- Node4&#45;&gt;Node3 -->
<g id="edge3" class="edge">
<title>Node4&#45;&gt;Node3</title>
<path fill="none" stroke="midnightblue" d="M74,-191.11C74,-182.15 74,-172.32 74,-164.58"/>
<polygon fill="midnightblue" stroke="midnightblue" points="70.5,-191.4 74,-201.4 77.5,-191.4 70.5,-191.4"/>
</g>
</g>
</svg>
