<?xml version="1.0" encoding="UTF-8" standalone="no"?>
<!DOCTYPE svg PUBLIC "-//W3C//DTD SVG 1.1//EN"
 "http://www.w3.org/Graphics/SVG/1.1/DTD/svg11.dtd">
<!-- Generated by graphviz version 2.43.0 (0)
 -->
<!-- Title: depz_camera_sdk._controls.ControlOwner Pages: 1 -->
<svg width="1132pt" height="372pt"
 viewBox="0.00 0.00 1132.00 372.00" xmlns="http://www.w3.org/2000/svg" xmlns:xlink="http://www.w3.org/1999/xlink">
<g id="graph0" class="graph" transform="scale(1 1) rotate(0) translate(4 368)">
<title>depz_camera_sdk._controls.ControlOwner</title>
<polygon fill="white" stroke="transparent" points="-4,4 -4,-368 1128,-368 1128,4 -4,4"/>
<!-- Node1 -->
<g id="node1" class="node">
<title>Node1</title>
<g id="a_node1"><a xlink:title=" ">
<polygon fill="#bfbfbf" stroke="black" points="0,-147.5 0,-177.5 155,-177.5 155,-147.5 0,-147.5"/>
<text text-anchor="start" x="8" y="-165.5" font-family="Helvetica,sans-Serif" font-size="10.00">depz_camera_sdk._controls.</text>
<text text-anchor="middle" x="77.5" y="-154.5" font-family="Helvetica,sans-Serif" font-size="10.00">ControlOwner</text>
</a>
</g>
</g>
<!-- Node2 -->
<g id="node2" class="node">
<title>Node2</title>
<g id="a_node2"><a xlink:href="classdepz__camera__sdk_1_1calibration_1_1base_1_1Calibration.html" target="_top" xlink:title=" ">
<polygon fill="white" stroke="black" points="191,-284.5 191,-314.5 379,-314.5 379,-284.5 191,-284.5"/>
<text text-anchor="start" x="199" y="-302.5" font-family="Helvetica,sans-Serif" font-size="10.00">depz_camera_sdk.calibration.base.</text>
<text text-anchor="middle" x="285" y="-291.5" font-family="Helvetica,sans-Serif" font-size="10.00">Calibration</text>
</a>
</g>
</g>
<!-- Node1&#45;&gt;Node2 -->
<g id="edge1" class="edge">
<title>Node1&#45;&gt;Node2</title>
<path fill="none" stroke="midnightblue" d="M109.69,-183.29C151.47,-211.15 224.6,-259.9 261.43,-284.46"/>
<polygon fill="midnightblue" stroke="midnightblue" points="111.54,-180.32 101.28,-177.68 107.66,-186.14 111.54,-180.32"/>
</g>
<!-- Node6 -->
<g id="node6" class="node">
<title>Node6</title>
<g id="a_node6"><a xlink:href="classdepz__camera__sdk_1_1inference_1_1base_1_1DepthInferenceBase.html" target="_top" xlink:title=" ">
<polygon fill="white" stroke="black" points="194,-147.5 194,-177.5 376,-177.5 376,-147.5 194,-147.5"/>
<text text-anchor="start" x="202" y="-165.5" font-family="Helvetica,sans-Serif" font-size="10.00">depz_camera_sdk.inference.base.</text>
<text text-anchor="middle" x="285" y="-154.5" font-family="Helvetica,sans-Serif" font-size="10.00">DepthInferenceBase</text>
</a>
</g>
</g>
<!-- Node1&#45;&gt;Node6 -->
<g id="edge5" class="edge">
<title>Node1&#45;&gt;Node6</title>
<path fill="none" stroke="midnightblue" d="M165.22,-162.5C174.7,-162.5 184.37,-162.5 193.89,-162.5"/>
<polygon fill="midnightblue" stroke="midnightblue" points="165.02,-159 155.02,-162.5 165.02,-166 165.02,-159"/>
</g>
<!-- Node17 -->
<g id="node17" class="node">
<title>Node17</title>
<g id="a_node17"><a xlink:href="classdepz__camera__sdk_1_1pipeline_1_1depth__pipeline_1_1DepthPipeline.html" target="_top" xlink:title=" ">
<polygon fill="white" stroke="black" points="196.5,-98.5 196.5,-128.5 373.5,-128.5 373.5,-98.5 196.5,-98.5"/>
<text text-anchor="start" x="204.5" y="-116.5" font-family="Helvetica,sans-Serif" font-size="10.00">depz_camera_sdk.pipeline.depth</text>
<text text-anchor="middle" x="285" y="-105.5" font-family="Helvetica,sans-Serif" font-size="10.00">_pipeline.DepthPipeline</text>
</a>
</g>
</g>
<!-- Node1&#45;&gt;Node17 -->
<g id="edge18" class="edge">
<title>Node1&#45;&gt;Node17</title>
<path fill="none" stroke="midnightblue" d="M151.49,-145.1C174.22,-139.68 199.08,-133.75 221.07,-128.51"/>
<polygon fill="midnightblue" stroke="midnightblue" points="150.47,-141.74 141.55,-147.47 152.09,-148.55 150.47,-141.74"/>
</g>
<!-- Node3 -->
<g id="node3" class="node">
<title>Node3</title>
<g id="a_node3"><a xlink:href="classdepz__camera__sdk_1_1calibration_1_1opencv__basic_1_1OpenCVBasicCalibration.html" target="_top" xlink:title=" ">
<polygon fill="white" stroke="black" points="429,-333.5 429,-363.5 626,-363.5 626,-333.5 429,-333.5"/>
<text text-anchor="start" x="437" y="-351.5" font-family="Helvetica,sans-Serif" font-size="10.00">depz_camera_sdk.calibration.opencv</text>
<text text-anchor="middle" x="527.5" y="-340.5" font-family="Helvetica,sans-Serif" font-size="10.00">_basic.OpenCVBasicCalibration</text>
</a>
</g>
</g>
<!-- Node2&#45;&gt;Node3 -->
<g id="edge2" class="edge">
<title>Node2&#45;&gt;Node3</title>
<path fill="none" stroke="midnightblue" d="M369.64,-316.54C396.72,-322.06 426.54,-328.13 452.85,-333.49"/>
<polygon fill="midnightblue" stroke="midnightblue" points="370.29,-313.1 359.79,-314.53 368.89,-319.96 370.29,-313.1"/>
</g>
<!-- Node5 -->
<g id="node5" class="node">
<title>Node5</title>
<g id="a_node5"><a xlink:href="classdepz__camera__sdk_1_1calibration_1_1opencv__fisheye_1_1OpenCVFisheyeCalibration.html" target="_top" xlink:title=" ">
<polygon fill="white" stroke="black" points="429,-284.5 429,-314.5 626,-314.5 626,-284.5 429,-284.5"/>
<text text-anchor="start" x="437" y="-302.5" font-family="Helvetica,sans-Serif" font-size="10.00">depz_camera_sdk.calibration.opencv</text>
<text text-anchor="middle" x="527.5" y="-291.5" font-family="Helvetica,sans-Serif" font-size="10.00">_fisheye.OpenCVFisheyeCalibration</text>
</a>
</g>
</g>
<!-- Node2&#45;&gt;Node5 -->
<g id="edge4" class="edge">
<title>Node2&#45;&gt;Node5</title>
<path fill="none" stroke="midnightblue" d="M389.69,-299.5C402.69,-299.5 415.95,-299.5 428.85,-299.5"/>
<polygon fill="midnightblue" stroke="midnightblue" points="389.33,-296 379.33,-299.5 389.33,-303 389.33,-296"/>
</g>
<!-- Node4 -->
<g id="node4" class="node">
<title>Node4</title>
<g id="a_node4"><a xlink:href="classdepz__camera__sdk_1_1calibration_1_1opencv__basic_1_1OpenCV5Calibration.html" target="_top" xlink:title=" ">
<polygon fill="white" stroke="black" points="676.5,-333.5 676.5,-363.5 873.5,-363.5 873.5,-333.5 676.5,-333.5"/>
<text text-anchor="start" x="684.5" y="-351.5" font-family="Helvetica,sans-Serif" font-size="10.00">depz_camera_sdk.calibration.opencv</text>
<text text-anchor="middle" x="775" y="-340.5" font-family="Helvetica,sans-Serif" font-size="10.00">_basic.OpenCV5Calibration</text>
</a>
</g>
</g>
<!-- Node3&#45;&gt;Node4 -->
<g id="edge3" class="edge">
<title>Node3&#45;&gt;Node4</title>
<path fill="none" stroke="midnightblue" d="M636.32,-348.5C649.59,-348.5 663.09,-348.5 676.2,-348.5"/>
<polygon fill="midnightblue" stroke="midnightblue" points="636.23,-345 626.23,-348.5 636.23,-352 636.23,-345"/>
</g>
<!-- Node7 -->
<g id="node7" class="node">
<title>Node7</title>
<g id="a_node7"><a xlink:href="classdepz__camera__sdk_1_1inference_1_1base_1_1NeuralInferenceBase.html" target="_top" xlink:title=" ">
<polygon fill="white" stroke="black" points="436.5,-196.5 436.5,-226.5 618.5,-226.5 618.5,-196.5 436.5,-196.5"/>
<text text-anchor="start" x="444.5" y="-214.5" font-family="Helvetica,sans-Serif" font-size="10.00">depz_camera_sdk.inference.base.</text>
<text text-anchor="middle" x="527.5" y="-203.5" font-family="Helvetica,sans-Serif" font-size="10.00">NeuralInferenceBase</text>
</a>
</g>
</g>
<!-- Node6&#45;&gt;Node7 -->
<g id="edge6" class="edge">
<title>Node6&#45;&gt;Node7</title>
<path fill="none" stroke="midnightblue" d="M369.64,-179.54C396.72,-185.06 426.54,-191.13 452.85,-196.49"/>
<polygon fill="midnightblue" stroke="midnightblue" points="370.29,-176.1 359.79,-177.53 368.89,-182.96 370.29,-176.1"/>
</g>
<!-- Node12 -->
<g id="node12" class="node">
<title>Node12</title>
<g id="a_node12"><a xlink:href="classdepz__camera__sdk_1_1inference_1_1cpp__adapter_1_1CppInferenceAdapter.html" target="_top" xlink:title=" ">
<polygon fill="white" stroke="black" points="441,-147.5 441,-177.5 614,-177.5 614,-147.5 441,-147.5"/>
<text text-anchor="start" x="449" y="-165.5" font-family="Helvetica,sans-Serif" font-size="10.00">depz_camera_sdk.inference.cpp</text>
<text text-anchor="middle" x="527.5" y="-154.5" font-family="Helvetica,sans-Serif" font-size="10.00">_adapter.CppInferenceAdapter</text>
</a>
</g>
</g>
<!-- Node6&#45;&gt;Node12 -->
<g id="edge11" class="edge">
<title>Node6&#45;&gt;Node12</title>
<path fill="none" stroke="midnightblue" d="M386.26,-162.5C404.43,-162.5 423.23,-162.5 440.93,-162.5"/>
<polygon fill="midnightblue" stroke="midnightblue" points="386.24,-159 376.24,-162.5 386.24,-166 386.24,-159"/>
</g>
<!-- Node13 -->
<g id="node13" class="node">
<title>Node13</title>
<g id="a_node13"><a xlink:href="classdepz__camera__sdk_1_1inference_1_1native__classical_1_1NativeClassicalInferenceBase.html" target="_top" xlink:title=" ">
<polygon fill="white" stroke="black" points="421.5,-98.5 421.5,-128.5 633.5,-128.5 633.5,-98.5 421.5,-98.5"/>
<text text-anchor="start" x="429.5" y="-116.5" font-family="Helvetica,sans-Serif" font-size="10.00">depz_camera_sdk.inference.native</text>
<text text-anchor="middle" x="527.5" y="-105.5" font-family="Helvetica,sans-Serif" font-size="10.00">_classical.NativeClassicalInferenceBase</text>
</a>
</g>
</g>
<!-- Node6&#45;&gt;Node13 -->
<g id="edge12" class="edge">
<title>Node6&#45;&gt;Node13</title>
<path fill="none" stroke="midnightblue" d="M369.64,-145.46C396.72,-139.94 426.54,-133.87 452.85,-128.51"/>
<polygon fill="midnightblue" stroke="midnightblue" points="368.89,-142.04 359.79,-147.47 370.29,-148.9 368.89,-142.04"/>
</g>
<!-- Node14 -->
<g id="node14" class="node">
<title>Node14</title>
<g id="a_node14"><a xlink:href="classdepz__camera__sdk_1_1inference_1_1native__classical_1_1NativeRectifyOnlyInferenceBase.html" target="_top" xlink:title=" ">
<polygon fill="white" stroke="black" points="415,-49.5 415,-79.5 640,-79.5 640,-49.5 415,-49.5"/>
<text text-anchor="start" x="423" y="-67.5" font-family="Helvetica,sans-Serif" font-size="10.00">depz_camera_sdk.inference.native</text>
<text text-anchor="middle" x="527.5" y="-56.5" font-family="Helvetica,sans-Serif" font-size="10.00">_classical.NativeRectifyOnlyInferenceBase</text>
</a>
</g>
</g>
<!-- Node6&#45;&gt;Node14 -->
<g id="edge13" class="edge">
<title>Node6&#45;&gt;Node14</title>
<path fill="none" stroke="midnightblue" d="M369.84,-143.02C373.01,-141.33 376.08,-139.5 379,-137.5 401.31,-122.24 392.32,-103.19 415,-88.5 420.32,-85.06 426.05,-82.1 432.01,-79.56"/>
<polygon fill="midnightblue" stroke="midnightblue" points="368.16,-139.94 360.64,-147.41 371.17,-146.26 368.16,-139.94"/>
</g>
<!-- Node15 -->
<g id="node15" class="node">
<title>Node15</title>
<g id="a_node15"><a xlink:href="classdepz__camera__sdk_1_1inference_1_1native__runtime_1_1__NativeNeuralRuntimeBase.html" target="_top" xlink:title=" ">
<polygon fill="white" stroke="black" points="676,-245.5 676,-275.5 874,-275.5 874,-245.5 676,-245.5"/>
<text text-anchor="start" x="684" y="-263.5" font-family="Helvetica,sans-Serif" font-size="10.00">depz_camera_sdk.inference.native</text>
<text text-anchor="middle" x="775" y="-252.5" font-family="Helvetica,sans-Serif" font-size="10.00">_runtime._NativeNeuralRuntimeBase</text>
</a>
</g>
</g>
<!-- Node6&#45;&gt;Node15 -->
<g id="edge14" class="edge">
<title>Node6&#45;&gt;Node15</title>
<path fill="none" stroke="midnightblue" d="M313.94,-183.56C338.97,-201.16 377.42,-225.13 415,-236.5 500.5,-262.37 602.5,-266.82 675.88,-265.72"/>
<polygon fill="midnightblue" stroke="midnightblue" points="315.84,-180.62 305.67,-177.64 311.76,-186.31 315.84,-180.62"/>
</g>
<!-- Node16 -->
<g id="node16" class="node">
<title>Node16</title>
<g id="a_node16"><a xlink:href="classdepz__camera__sdk_1_1inference_1_1neural__compat_1_1__NeuralCompatBase.html" target="_top" xlink:title=" ">
<polygon fill="white" stroke="black" points="434,-0.5 434,-30.5 621,-30.5 621,-0.5 434,-0.5"/>
<text text-anchor="start" x="442" y="-18.5" font-family="Helvetica,sans-Serif" font-size="10.00">depz_camera_sdk.inference.neural</text>
<text text-anchor="middle" x="527.5" y="-7.5" font-family="Helvetica,sans-Serif" font-size="10.00">_compat._NeuralCompatBase</text>
</a>
</g>
</g>
<!-- Node6&#45;&gt;Node16 -->
<g id="edge17" class="edge">
<title>Node6&#45;&gt;Node16</title>
<path fill="none" stroke="midnightblue" d="M373.64,-141.89C375.5,-140.52 377.3,-139.06 379,-137.5 413.24,-106.19 379.97,-69.93 415,-39.5 420.68,-34.56 427.13,-30.57 434,-27.33"/>
<polygon fill="midnightblue" stroke="midnightblue" points="371.61,-139.04 365.05,-147.36 375.37,-144.95 371.61,-139.04"/>
</g>
<!-- Node8 -->
<g id="node8" class="node">
<title>Node8</title>
<g id="a_node8"><a xlink:href="classdepz__camera__sdk_1_1inference_1_1base_1_1NeuralMonoInferenceBase.html" target="_top" xlink:title=" ">
<polygon fill="white" stroke="black" points="684,-196.5 684,-226.5 866,-226.5 866,-196.5 684,-196.5"/>
<text text-anchor="start" x="692" y="-214.5" font-family="Helvetica,sans-Serif" font-size="10.00">depz_camera_sdk.inference.base.</text>
<text text-anchor="middle" x="775" y="-203.5" font-family="Helvetica,sans-Serif" font-size="10.00">NeuralMonoInferenceBase</text>
</a>
</g>
</g>
<!-- Node7&#45;&gt;Node8 -->
<g id="edge7" class="edge">
<title>Node7&#45;&gt;Node8</title>
<path fill="none" stroke="midnightblue" d="M628.62,-211.5C646.95,-211.5 665.98,-211.5 683.99,-211.5"/>
<polygon fill="midnightblue" stroke="midnightblue" points="628.52,-208 618.52,-211.5 628.52,-215 628.52,-208"/>
</g>
<!-- Node10 -->
<g id="node10" class="node">
<title>Node10</title>
<g id="a_node10"><a xlink:href="classdepz__camera__sdk_1_1inference_1_1base_1_1NeuralStereoInferenceBase.html" target="_top" xlink:title=" ">
<polygon fill="white" stroke="black" points="684,-147.5 684,-177.5 866,-177.5 866,-147.5 684,-147.5"/>
<text text-anchor="start" x="692" y="-165.5" font-family="Helvetica,sans-Serif" font-size="10.00">depz_camera_sdk.inference.base.</text>
<text text-anchor="middle" x="775" y="-154.5" font-family="Helvetica,sans-Serif" font-size="10.00">NeuralStereoInferenceBase</text>
</a>
</g>
</g>
<!-- Node7&#45;&gt;Node10 -->
<g id="edge9" class="edge">
<title>Node7&#45;&gt;Node10</title>
<path fill="none" stroke="midnightblue" d="M613.87,-194.46C641.52,-188.94 671.96,-182.87 698.82,-177.51"/>
<polygon fill="midnightblue" stroke="midnightblue" points="612.95,-191.08 603.83,-196.47 614.32,-197.94 612.95,-191.08"/>
</g>
<!-- Node9 -->
<g id="node9" class="node">
<title>Node9</title>
<g id="a_node9"><a xlink:href="classdepz__camera__sdk_1_1inference_1_1native__runtime_1_1NativeMonoInferenceRuntime.html" target="_top" xlink:title=" ">
<polygon fill="white" stroke="black" points="912.5,-232.5 912.5,-262.5 1121.5,-262.5 1121.5,-232.5 912.5,-232.5"/>
<text text-anchor="start" x="920.5" y="-250.5" font-family="Helvetica,sans-Serif" font-size="10.00">depz_camera_sdk.inference.native</text>
<text text-anchor="middle" x="1017" y="-239.5" font-family="Helvetica,sans-Serif" font-size="10.00">_runtime.NativeMonoInferenceRuntime</text>
</a>
</g>
</g>
<!-- Node8&#45;&gt;Node9 -->
<g id="edge8" class="edge">
<title>Node8&#45;&gt;Node9</title>
<path fill="none" stroke="midnightblue" d="M876.02,-226.5C889.17,-228.47 902.64,-230.5 915.78,-232.47"/>
<polygon fill="midnightblue" stroke="midnightblue" points="876.46,-223.03 866.05,-225.01 875.42,-229.95 876.46,-223.03"/>
</g>
<!-- Node11 -->
<g id="node11" class="node">
<title>Node11</title>
<g id="a_node11"><a xlink:href="classdepz__camera__sdk_1_1inference_1_1native__runtime_1_1NativeStereoInferenceRuntime.html" target="_top" xlink:title=" ">
<polygon fill="white" stroke="black" points="910,-171.5 910,-201.5 1124,-201.5 1124,-171.5 910,-171.5"/>
<text text-anchor="start" x="918" y="-189.5" font-family="Helvetica,sans-Serif" font-size="10.00">depz_camera_sdk.inference.native</text>
<text text-anchor="middle" x="1017" y="-178.5" font-family="Helvetica,sans-Serif" font-size="10.00">_runtime.NativeStereoInferenceRuntime</text>
</a>
</g>
</g>
<!-- Node10&#45;&gt;Node11 -->
<g id="edge10" class="edge">
<title>Node10&#45;&gt;Node11</title>
<path fill="none" stroke="midnightblue" d="M876.14,-172.51C887.22,-173.62 898.53,-174.75 909.67,-175.87"/>
<polygon fill="midnightblue" stroke="midnightblue" points="876.35,-169.02 866.05,-171.5 875.65,-175.98 876.35,-169.02"/>
</g>
<!-- Node15&#45;&gt;Node9 -->
<g id="edge15" class="edge">
<title>Node15&#45;&gt;Node9</title>
<path fill="none" stroke="midnightblue" d="M884.37,-254.63C893.69,-254.12 903.11,-253.61 912.39,-253.11"/>
<polygon fill="midnightblue" stroke="midnightblue" points="884.11,-251.14 874.31,-255.17 884.48,-258.13 884.11,-251.14"/>
</g>
<!-- Node15&#45;&gt;Node11 -->
<g id="edge16" class="edge">
<title>Node15&#45;&gt;Node11</title>
<path fill="none" stroke="midnightblue" d="M851.35,-242.91C859.03,-240.86 866.69,-238.71 874,-236.5 890.28,-231.58 893.97,-229.19 910,-223.5 930.57,-216.2 953.43,-208.2 972.64,-201.52"/>
<polygon fill="midnightblue" stroke="midnightblue" points="850.42,-239.54 841.63,-245.45 852.19,-246.31 850.42,-239.54"/>
</g>
</g>
</svg>
