<?xml version="1.0" encoding="UTF-8" standalone="no"?>
<!DOCTYPE svg PUBLIC "-//W3C//DTD SVG 1.1//EN"
 "http://www.w3.org/Graphics/SVG/1.1/DTD/svg11.dtd">
<!-- Generated by graphviz version 2.43.0 (0)
 -->
<!-- Title: stereocam::IParameterStore Pages: 1 -->
<svg width="348pt" height="151pt"
 viewBox="0.00 0.00 347.50 151.00" xmlns="http://www.w3.org/2000/svg" xmlns:xlink="http://www.w3.org/1999/xlink">
<g id="graph0" class="graph" transform="scale(1 1) rotate(0) translate(4 147)">
<title>stereocam::IParameterStore</title>
<polygon fill="white" stroke="transparent" points="-4,4 -4,-147 343.5,-147 343.5,4 -4,4"/>
<!-- Node1 -->
<g id="node1" class="node">
<title>Node1</title>
<g id="a_node1"><a xlink:title="Abstract string&#45;keyed store of heterogeneous parameter values.">
<polygon fill="#bfbfbf" stroke="black" points="93.5,-123.5 93.5,-142.5 246.5,-142.5 246.5,-123.5 93.5,-123.5"/>
<text text-anchor="middle" x="170" y="-130.5" font-family="Helvetica,sans-Serif" font-size="10.00">stereocam::IParameterStore</text>
</a>
</g>
</g>
<!-- Node2 -->
<g id="node2" class="node">
<title>Node2</title>
<g id="a_node2"><a xlink:href="classstereocam_1_1IStereoCalibrationModel.html" target="_top" xlink:title="Interface that represents stereo calibration data + rectification behavior.">
<polygon fill="white" stroke="black" points="0,-56.5 0,-86.5 162,-86.5 162,-56.5 0,-56.5"/>
<text text-anchor="start" x="8" y="-74.5" font-family="Helvetica,sans-Serif" font-size="10.00">stereocam::IStereoCalibration</text>
<text text-anchor="middle" x="81" y="-63.5" font-family="Helvetica,sans-Serif" font-size="10.00">Model</text>
</a>
</g>
</g>
<!-- Node1&#45;&gt;Node2 -->
<g id="edge1" class="edge">
<title>Node1&#45;&gt;Node2</title>
<path fill="none" stroke="midnightblue" d="M148.67,-117.74C134.52,-108.28 116.05,-95.93 101.98,-86.52"/>
<polygon fill="midnightblue" stroke="midnightblue" points="146.99,-120.83 157.25,-123.48 150.88,-115.01 146.99,-120.83"/>
</g>
<!-- Node4 -->
<g id="node4" class="node">
<title>Node4</title>
<g id="a_node4"><a xlink:href="classstereocam_1_1StereoCalibrationParameterStore.html" target="_top" xlink:title="IParameterStore view over a StereoCalibration.">
<polygon fill="white" stroke="black" points="180.5,-56.5 180.5,-86.5 339.5,-86.5 339.5,-56.5 180.5,-56.5"/>
<text text-anchor="start" x="188.5" y="-74.5" font-family="Helvetica,sans-Serif" font-size="10.00">stereocam::StereoCalibration</text>
<text text-anchor="middle" x="260" y="-63.5" font-family="Helvetica,sans-Serif" font-size="10.00">ParameterStore</text>
</a>
</g>
</g>
<!-- Node1&#45;&gt;Node4 -->
<g id="edge3" class="edge">
<title>Node1&#45;&gt;Node4</title>
<path fill="none" stroke="midnightblue" d="M191.57,-117.74C205.88,-108.28 224.56,-95.93 238.79,-86.52"/>
<polygon fill="midnightblue" stroke="midnightblue" points="189.31,-115.04 182.89,-123.48 193.17,-120.88 189.31,-115.04"/>
</g>
<!-- Node3 -->
<g id="node3" class="node">
<title>Node3</title>
<g id="a_node3"><a xlink:href="classStereoCalibration.html" target="_top" xlink:title="Stereo calibration: load from JSON, rectify images, expose matrices.">
<polygon fill="white" stroke="black" points="30.5,-0.5 30.5,-19.5 131.5,-19.5 131.5,-0.5 30.5,-0.5"/>
<text text-anchor="middle" x="81" y="-7.5" font-family="Helvetica,sans-Serif" font-size="10.00">StereoCalibration</text>
</a>
</g>
</g>
<!-- Node2&#45;&gt;Node3 -->
<g id="edge2" class="edge">
<title>Node2&#45;&gt;Node3</title>
<path fill="none" stroke="midnightblue" d="M81,-46.29C81,-36.86 81,-26.65 81,-19.66"/>
<polygon fill="midnightblue" stroke="midnightblue" points="77.5,-46.4 81,-56.4 84.5,-46.4 77.5,-46.4"/>
</g>
</g>
</svg>
