<?xml version="1.0" encoding="UTF-8" standalone="no"?>
<!DOCTYPE svg PUBLIC "-//W3C//DTD SVG 1.1//EN"
 "http://www.w3.org/Graphics/SVG/1.1/DTD/svg11.dtd">
<!-- Generated by graphviz version 2.43.0 (0)
 -->
<!-- Title: stereocam::filters::DepthFilter Pages: 1 -->
<svg width="566pt" height="137pt"
 viewBox="0.00 0.00 566.00 137.00" xmlns="http://www.w3.org/2000/svg" xmlns:xlink="http://www.w3.org/1999/xlink">
<g id="graph0" class="graph" transform="scale(1 1) rotate(0) translate(4 133)">
<title>stereocam::filters::DepthFilter</title>
<polygon fill="white" stroke="transparent" points="-4,4 -4,-133 562,-133 562,4 -4,4"/>
<!-- Node1 -->
<g id="node1" class="node">
<title>Node1</title>
<g id="a_node1"><a xlink:title="Marker base for filters that consume the metric depth map.">
<polygon fill="#bfbfbf" stroke="black" points="287,-49.5 287,-79.5 389,-79.5 389,-49.5 287,-49.5"/>
<text text-anchor="start" x="295" y="-67.5" font-family="Helvetica,sans-Serif" font-size="10.00">stereocam::filters</text>
<text text-anchor="middle" x="338" y="-56.5" font-family="Helvetica,sans-Serif" font-size="10.00">::DepthFilter</text>
</a>
</g>
</g>
<!-- Node4 -->
<g id="node4" class="node">
<title>Node4</title>
<g id="a_node4"><a xlink:href="classstereocam_1_1filters_1_1EdgeFilterCpp.html" target="_top" xlink:title="Drops pixels at depth discontinuities — boundary skirts and flyers (depth stage).">
<polygon fill="white" stroke="black" points="440.5,-98.5 440.5,-128.5 542.5,-128.5 542.5,-98.5 440.5,-98.5"/>
<text text-anchor="start" x="448.5" y="-116.5" font-family="Helvetica,sans-Serif" font-size="10.00">stereocam::filters</text>
<text text-anchor="middle" x="491.5" y="-105.5" font-family="Helvetica,sans-Serif" font-size="10.00">::EdgeFilterCpp</text>
</a>
</g>
</g>
<!-- Node1&#45;&gt;Node4 -->
<g id="edge3" class="edge">
<title>Node1&#45;&gt;Node4</title>
<path fill="none" stroke="midnightblue" d="M395.45,-82.76C411.43,-87.93 428.64,-93.49 443.96,-98.45"/>
<polygon fill="midnightblue" stroke="midnightblue" points="396.28,-79.35 385.69,-79.6 394.13,-86.01 396.28,-79.35"/>
</g>
<!-- Node5 -->
<g id="node5" class="node">
<title>Node5</title>
<g id="a_node5"><a xlink:href="classstereocam_1_1filters_1_1TemporalEmaFilterCpp.html" target="_top" xlink:title="Smooths the depth map by per&#45;pixel EMA over consecutive frames (depth stage).">
<polygon fill="white" stroke="black" points="425,-49.5 425,-79.5 558,-79.5 558,-49.5 425,-49.5"/>
<text text-anchor="start" x="433" y="-67.5" font-family="Helvetica,sans-Serif" font-size="10.00">stereocam::filters</text>
<text text-anchor="middle" x="491.5" y="-56.5" font-family="Helvetica,sans-Serif" font-size="10.00">::TemporalEmaFilterCpp</text>
</a>
</g>
</g>
<!-- Node1&#45;&gt;Node5 -->
<g id="edge4" class="edge">
<title>Node1&#45;&gt;Node5</title>
<path fill="none" stroke="midnightblue" d="M399.16,-64.5C407.6,-64.5 416.32,-64.5 424.85,-64.5"/>
<polygon fill="midnightblue" stroke="midnightblue" points="399.03,-61 389.03,-64.5 399.03,-68 399.03,-61"/>
</g>
<!-- Node6 -->
<g id="node6" class="node">
<title>Node6</title>
<g id="a_node6"><a xlink:href="classstereocam_1_1filters_1_1ZClipFilterCpp.html" target="_top" xlink:title="Zeros depth pixels outside the [_min, _max] metre range (depth stage).">
<polygon fill="white" stroke="black" points="440.5,-0.5 440.5,-30.5 542.5,-30.5 542.5,-0.5 440.5,-0.5"/>
<text text-anchor="start" x="448.5" y="-18.5" font-family="Helvetica,sans-Serif" font-size="10.00">stereocam::filters</text>
<text text-anchor="middle" x="491.5" y="-7.5" font-family="Helvetica,sans-Serif" font-size="10.00">::ZClipFilterCpp</text>
</a>
</g>
</g>
<!-- Node1&#45;&gt;Node6 -->
<g id="edge5" class="edge">
<title>Node1&#45;&gt;Node6</title>
<path fill="none" stroke="midnightblue" d="M395.45,-46.24C411.43,-41.07 428.64,-35.51 443.96,-30.55"/>
<polygon fill="midnightblue" stroke="midnightblue" points="394.13,-42.99 385.69,-49.4 396.28,-49.65 394.13,-42.99"/>
</g>
<!-- Node2 -->
<g id="node2" class="node">
<title>Node2</title>
<g id="a_node2"><a xlink:href="classstereocam_1_1filters_1_1IFilter.html" target="_top" xlink:title="Stage&#45;agnostic filter base class.">
<polygon fill="white" stroke="black" points="149,-49.5 149,-79.5 251,-79.5 251,-49.5 149,-49.5"/>
<text text-anchor="start" x="157" y="-67.5" font-family="Helvetica,sans-Serif" font-size="10.00">stereocam::filters</text>
<text text-anchor="middle" x="200" y="-56.5" font-family="Helvetica,sans-Serif" font-size="10.00">::IFilter</text>
</a>
</g>
</g>
<!-- Node2&#45;&gt;Node1 -->
<g id="edge1" class="edge">
<title>Node2&#45;&gt;Node1</title>
<path fill="none" stroke="midnightblue" d="M261.51,-64.5C270.01,-64.5 278.67,-64.5 286.95,-64.5"/>
<polygon fill="midnightblue" stroke="midnightblue" points="261.26,-61 251.25,-64.5 261.25,-68 261.26,-61"/>
</g>
<!-- Node3 -->
<g id="node3" class="node">
<title>Node3</title>
<g id="a_node3"><a xlink:href="classstereocam_1_1controls_1_1IControlOwner.html" target="_top" xlink:title="Language&#45;neutral base class for objects with self&#45;describing runtime parameters.">
<polygon fill="white" stroke="black" points="0,-49.5 0,-79.5 113,-79.5 113,-49.5 0,-49.5"/>
<text text-anchor="start" x="8" y="-67.5" font-family="Helvetica,sans-Serif" font-size="10.00">stereocam::controls</text>
<text text-anchor="middle" x="56.5" y="-56.5" font-family="Helvetica,sans-Serif" font-size="10.00">::IControlOwner</text>
</a>
</g>
</g>
<!-- Node3&#45;&gt;Node2 -->
<g id="edge2" class="edge">
<title>Node3&#45;&gt;Node2</title>
<path fill="none" stroke="midnightblue" d="M123.06,-64.5C131.68,-64.5 140.4,-64.5 148.71,-64.5"/>
<polygon fill="midnightblue" stroke="midnightblue" points="123.02,-61 113.02,-64.5 123.02,-68 123.02,-61"/>
</g>
</g>
</svg>
