<?xml version="1.0" encoding="UTF-8" standalone="no"?>
<!DOCTYPE svg PUBLIC "-//W3C//DTD SVG 1.1//EN"
 "http://www.w3.org/Graphics/SVG/1.1/DTD/svg11.dtd">
<!-- Generated by graphviz version 2.43.0 (0)
 -->
<!-- Title: stereocam::inference::Metric3DV2VitSmallInferenceCpp Pages: 1 -->
<svg width="193pt" height="240pt"
 viewBox="0.00 0.00 193.00 240.00" xmlns="http://www.w3.org/2000/svg" xmlns:xlink="http://www.w3.org/1999/xlink">
<g id="graph0" class="graph" transform="scale(1 1) rotate(0) translate(4 236)">
<title>stereocam::inference::Metric3DV2VitSmallInferenceCpp</title>
<polygon fill="white" stroke="transparent" points="-4,4 -4,-236 189,-236 189,4 -4,4"/>
<!-- Node1 -->
<g id="node1" class="node">
<title>Node1</title>
<g id="a_node1"><a xlink:title="Mono metric&#45;depth network with CSTM canonical&#45;focal depth recovery.">
<polygon fill="#bfbfbf" stroke="black" points="0,-0.5 0,-30.5 185,-30.5 185,-0.5 0,-0.5"/>
<text text-anchor="start" x="8" y="-18.5" font-family="Helvetica,sans-Serif" font-size="10.00">stereocam::inference</text>
<text text-anchor="middle" x="92.5" y="-7.5" font-family="Helvetica,sans-Serif" font-size="10.00">::Metric3DV2VitSmallInferenceCpp</text>
</a>
</g>
</g>
<!-- Node2 -->
<g id="node2" class="node">
<title>Node2</title>
<g id="a_node2"><a xlink:href="classstereocam_1_1inference_1_1NeuralInferenceBase.html" target="_top" xlink:title="Shared partial implementation of DepthInferenceBase.">
<polygon fill="white" stroke="black" points="30,-67.5 30,-97.5 155,-97.5 155,-67.5 30,-67.5"/>
<text text-anchor="start" x="38" y="-85.5" font-family="Helvetica,sans-Serif" font-size="10.00">stereocam::inference</text>
<text text-anchor="middle" x="92.5" y="-74.5" font-family="Helvetica,sans-Serif" font-size="10.00">::NeuralInferenceBase</text>
</a>
</g>
</g>
<!-- Node2&#45;&gt;Node1 -->
<g id="edge1" class="edge">
<title>Node2&#45;&gt;Node1</title>
<path fill="none" stroke="midnightblue" d="M92.5,-57.11C92.5,-48.15 92.5,-38.32 92.5,-30.58"/>
<polygon fill="midnightblue" stroke="midnightblue" points="89,-57.4 92.5,-67.4 96,-57.4 89,-57.4"/>
</g>
<!-- Node3 -->
<g id="node3" class="node">
<title>Node3</title>
<g id="a_node3"><a xlink:href="classstereocam_1_1inference_1_1DepthInferenceBase.html" target="_top" xlink:title="Pipeline&#45;facing abstract base for a neural depth network.">
<polygon fill="white" stroke="black" points="31.5,-134.5 31.5,-164.5 153.5,-164.5 153.5,-134.5 31.5,-134.5"/>
<text text-anchor="start" x="39.5" y="-152.5" font-family="Helvetica,sans-Serif" font-size="10.00">stereocam::inference</text>
<text text-anchor="middle" x="92.5" y="-141.5" font-family="Helvetica,sans-Serif" font-size="10.00">::DepthInferenceBase</text>
</a>
</g>
</g>
<!-- Node3&#45;&gt;Node2 -->
<g id="edge2" class="edge">
<title>Node3&#45;&gt;Node2</title>
<path fill="none" stroke="midnightblue" d="M92.5,-124.11C92.5,-115.15 92.5,-105.32 92.5,-97.58"/>
<polygon fill="midnightblue" stroke="midnightblue" points="89,-124.4 92.5,-134.4 96,-124.4 89,-124.4"/>
</g>
<!-- Node4 -->
<g id="node4" class="node">
<title>Node4</title>
<g id="a_node4"><a xlink:href="classstereocam_1_1controls_1_1IControlOwner.html" target="_top" xlink:title="Language&#45;neutral base class for objects with self&#45;describing runtime parameters.">
<polygon fill="white" stroke="black" points="36,-201.5 36,-231.5 149,-231.5 149,-201.5 36,-201.5"/>
<text text-anchor="start" x="44" y="-219.5" font-family="Helvetica,sans-Serif" font-size="10.00">stereocam::controls</text>
<text text-anchor="middle" x="92.5" y="-208.5" font-family="Helvetica,sans-Serif" font-size="10.00">::IControlOwner</text>
</a>
</g>
</g>
<!-- Node4&#45;&gt;Node3 -->
<g id="edge3" class="edge">
<title>Node4&#45;&gt;Node3</title>
<path fill="none" stroke="midnightblue" d="M92.5,-191.11C92.5,-182.15 92.5,-172.32 92.5,-164.58"/>
<polygon fill="midnightblue" stroke="midnightblue" points="89,-191.4 92.5,-201.4 96,-191.4 89,-191.4"/>
</g>
</g>
</svg>
