<?xml version="1.0" encoding="UTF-8" standalone="no"?>
<!DOCTYPE svg PUBLIC "-//W3C//DTD SVG 1.1//EN"
 "http://www.w3.org/Graphics/SVG/1.1/DTD/svg11.dtd">
<!-- Generated by graphviz version 2.43.0 (0)
 -->
<!-- Title: stereocam::inference::DepthAnythingV2SmallInferenceCpp Pages: 1 -->
<svg width="208pt" height="240pt"
 viewBox="0.00 0.00 208.00 240.00" xmlns="http://www.w3.org/2000/svg" xmlns:xlink="http://www.w3.org/1999/xlink">
<g id="graph0" class="graph" transform="scale(1 1) rotate(0) translate(4 236)">
<title>stereocam::inference::DepthAnythingV2SmallInferenceCpp</title>
<polygon fill="white" stroke="transparent" points="-4,4 -4,-236 204,-236 204,4 -4,4"/>
<!-- Node1 -->
<g id="node1" class="node">
<title>Node1</title>
<g id="a_node1"><a xlink:title="Mono relative&#45;depth network with a user&#45;tunable affine post&#45;scale.">
<polygon fill="#bfbfbf" stroke="black" points="0,-0.5 0,-30.5 200,-30.5 200,-0.5 0,-0.5"/>
<text text-anchor="start" x="8" y="-18.5" font-family="Helvetica,sans-Serif" font-size="10.00">stereocam::inference</text>
<text text-anchor="middle" x="100" y="-7.5" font-family="Helvetica,sans-Serif" font-size="10.00">::DepthAnythingV2SmallInferenceCpp</text>
</a>
</g>
</g>
<!-- Node2 -->
<g id="node2" class="node">
<title>Node2</title>
<g id="a_node2"><a xlink:href="classstereocam_1_1inference_1_1NeuralInferenceBase.html" target="_top" xlink:title="Shared partial implementation of DepthInferenceBase.">
<polygon fill="white" stroke="black" points="37.5,-67.5 37.5,-97.5 162.5,-97.5 162.5,-67.5 37.5,-67.5"/>
<text text-anchor="start" x="45.5" y="-85.5" font-family="Helvetica,sans-Serif" font-size="10.00">stereocam::inference</text>
<text text-anchor="middle" x="100" y="-74.5" font-family="Helvetica,sans-Serif" font-size="10.00">::NeuralInferenceBase</text>
</a>
</g>
</g>
<!-- Node2&#45;&gt;Node1 -->
<g id="edge1" class="edge">
<title>Node2&#45;&gt;Node1</title>
<path fill="none" stroke="midnightblue" d="M100,-57.11C100,-48.15 100,-38.32 100,-30.58"/>
<polygon fill="midnightblue" stroke="midnightblue" points="96.5,-57.4 100,-67.4 103.5,-57.4 96.5,-57.4"/>
</g>
<!-- Node3 -->
<g id="node3" class="node">
<title>Node3</title>
<g id="a_node3"><a xlink:href="classstereocam_1_1inference_1_1DepthInferenceBase.html" target="_top" xlink:title="Pipeline&#45;facing abstract base for a neural depth network.">
<polygon fill="white" stroke="black" points="39,-134.5 39,-164.5 161,-164.5 161,-134.5 39,-134.5"/>
<text text-anchor="start" x="47" y="-152.5" font-family="Helvetica,sans-Serif" font-size="10.00">stereocam::inference</text>
<text text-anchor="middle" x="100" y="-141.5" font-family="Helvetica,sans-Serif" font-size="10.00">::DepthInferenceBase</text>
</a>
</g>
</g>
<!-- Node3&#45;&gt;Node2 -->
<g id="edge2" class="edge">
<title>Node3&#45;&gt;Node2</title>
<path fill="none" stroke="midnightblue" d="M100,-124.11C100,-115.15 100,-105.32 100,-97.58"/>
<polygon fill="midnightblue" stroke="midnightblue" points="96.5,-124.4 100,-134.4 103.5,-124.4 96.5,-124.4"/>
</g>
<!-- Node4 -->
<g id="node4" class="node">
<title>Node4</title>
<g id="a_node4"><a xlink:href="classstereocam_1_1controls_1_1IControlOwner.html" target="_top" xlink:title="Language&#45;neutral base class for objects with self&#45;describing runtime parameters.">
<polygon fill="white" stroke="black" points="43.5,-201.5 43.5,-231.5 156.5,-231.5 156.5,-201.5 43.5,-201.5"/>
<text text-anchor="start" x="51.5" y="-219.5" font-family="Helvetica,sans-Serif" font-size="10.00">stereocam::controls</text>
<text text-anchor="middle" x="100" y="-208.5" font-family="Helvetica,sans-Serif" font-size="10.00">::IControlOwner</text>
</a>
</g>
</g>
<!-- Node4&#45;&gt;Node3 -->
<g id="edge3" class="edge">
<title>Node4&#45;&gt;Node3</title>
<path fill="none" stroke="midnightblue" d="M100,-191.11C100,-182.15 100,-172.32 100,-164.58"/>
<polygon fill="midnightblue" stroke="midnightblue" points="96.5,-191.4 100,-201.4 103.5,-191.4 96.5,-191.4"/>
</g>
</g>
</svg>
