<?xml version="1.0" encoding="UTF-8" standalone="no"?>
<!DOCTYPE svg PUBLIC "-//W3C//DTD SVG 1.1//EN"
 "http://www.w3.org/Graphics/SVG/1.1/DTD/svg11.dtd">
<!-- Generated by graphviz version 2.43.0 (0)
 -->
<!-- Title: stereocam::engines::InferenceEngine Pages: 1 -->
<svg width="301pt" height="137pt"
 viewBox="0.00 0.00 301.00 137.00" xmlns="http://www.w3.org/2000/svg" xmlns:xlink="http://www.w3.org/1999/xlink">
<g id="graph0" class="graph" transform="scale(1 1) rotate(0) translate(4 133)">
<title>stereocam::engines::InferenceEngine</title>
<polygon fill="white" stroke="transparent" points="-4,4 -4,-133 297,-133 297,4 -4,4"/>
<!-- Node1 -->
<g id="node1" class="node">
<title>Node1</title>
<g id="a_node1"><a xlink:title="Abstract single&#45;shot inference engine over a loaded model.">
<polygon fill="#bfbfbf" stroke="black" points="0,-49.5 0,-79.5 113,-79.5 113,-49.5 0,-49.5"/>
<text text-anchor="start" x="8" y="-67.5" font-family="Helvetica,sans-Serif" font-size="10.00">stereocam::engines</text>
<text text-anchor="middle" x="56.5" y="-56.5" font-family="Helvetica,sans-Serif" font-size="10.00">::InferenceEngine</text>
</a>
</g>
</g>
<!-- Node2 -->
<g id="node2" class="node">
<title>Node2</title>
<g id="a_node2"><a xlink:href="classstereocam_1_1engines_1_1OnnxEngineAdapter.html" target="_top" xlink:title="ONNX Runtime&#45;backed InferenceEngine.">
<polygon fill="white" stroke="black" points="161.5,-98.5 161.5,-128.5 280.5,-128.5 280.5,-98.5 161.5,-98.5"/>
<text text-anchor="start" x="169.5" y="-116.5" font-family="Helvetica,sans-Serif" font-size="10.00">stereocam::engines</text>
<text text-anchor="middle" x="221" y="-105.5" font-family="Helvetica,sans-Serif" font-size="10.00">::OnnxEngineAdapter</text>
</a>
</g>
</g>
<!-- Node1&#45;&gt;Node2 -->
<g id="edge1" class="edge">
<title>Node1&#45;&gt;Node2</title>
<path fill="none" stroke="midnightblue" d="M117.57,-82.61C134.84,-87.82 153.49,-93.45 170.08,-98.45"/>
<polygon fill="midnightblue" stroke="midnightblue" points="118.17,-79.14 107.58,-79.6 116.15,-85.84 118.17,-79.14"/>
</g>
<!-- Node3 -->
<g id="node3" class="node">
<title>Node3</title>
<g id="a_node3"><a xlink:href="classstereocam_1_1engines_1_1OpenVINOEngineAdapter.html" target="_top" xlink:title="OpenVINO&#45;backed InferenceEngine with an InferRequest pool.">
<polygon fill="white" stroke="black" points="149,-49.5 149,-79.5 293,-79.5 293,-49.5 149,-49.5"/>
<text text-anchor="start" x="157" y="-67.5" font-family="Helvetica,sans-Serif" font-size="10.00">stereocam::engines</text>
<text text-anchor="middle" x="221" y="-56.5" font-family="Helvetica,sans-Serif" font-size="10.00">::OpenVINOEngineAdapter</text>
</a>
</g>
</g>
<!-- Node1&#45;&gt;Node3 -->
<g id="edge2" class="edge">
<title>Node1&#45;&gt;Node3</title>
<path fill="none" stroke="midnightblue" d="M123.46,-64.5C131.79,-64.5 140.35,-64.5 148.76,-64.5"/>
<polygon fill="midnightblue" stroke="midnightblue" points="123.42,-61 113.42,-64.5 123.42,-68 123.42,-61"/>
</g>
<!-- Node4 -->
<g id="node4" class="node">
<title>Node4</title>
<g id="a_node4"><a xlink:href="classstereocam_1_1engines_1_1TensorRTEngineAdapter.html" target="_top" xlink:title="TensorRT&#45;backed InferenceEngine over a pre&#45;compiled engine file.">
<polygon fill="white" stroke="black" points="152.5,-0.5 152.5,-30.5 289.5,-30.5 289.5,-0.5 152.5,-0.5"/>
<text text-anchor="start" x="160.5" y="-18.5" font-family="Helvetica,sans-Serif" font-size="10.00">stereocam::engines</text>
<text text-anchor="middle" x="221" y="-7.5" font-family="Helvetica,sans-Serif" font-size="10.00">::TensorRTEngineAdapter</text>
</a>
</g>
</g>
<!-- Node1&#45;&gt;Node4 -->
<g id="edge3" class="edge">
<title>Node1&#45;&gt;Node4</title>
<path fill="none" stroke="midnightblue" d="M117.57,-46.39C134.84,-41.18 153.49,-35.55 170.08,-30.55"/>
<polygon fill="midnightblue" stroke="midnightblue" points="116.15,-43.16 107.58,-49.4 118.17,-49.86 116.15,-43.16"/>
</g>
</g>
</svg>
