<?xml version="1.0" encoding="UTF-8" standalone="no"?>
<!DOCTYPE svg PUBLIC "-//W3C//DTD SVG 1.1//EN"
 "http://www.w3.org/Graphics/SVG/1.1/DTD/svg11.dtd">
<!-- Generated by graphviz version 2.43.0 (0)
 -->
<!-- Title: depz_camera_sdk.engines.base.InferenceEngine Pages: 1 -->
<svg width="486pt" height="137pt"
 viewBox="0.00 0.00 486.00 137.00" xmlns="http://www.w3.org/2000/svg" xmlns:xlink="http://www.w3.org/1999/xlink">
<g id="graph0" class="graph" transform="scale(1 1) rotate(0) translate(4 133)">
<title>depz_camera_sdk.engines.base.InferenceEngine</title>
<polygon fill="white" stroke="transparent" points="-4,4 -4,-133 482,-133 482,4 -4,4"/>
<!-- Node1 -->
<g id="node1" class="node">
<title>Node1</title>
<g id="a_node1"><a xlink:title=" ">
<polygon fill="#bfbfbf" stroke="black" points="73,-49.5 73,-79.5 248,-79.5 248,-49.5 73,-49.5"/>
<text text-anchor="start" x="81" y="-67.5" font-family="Helvetica,sans-Serif" font-size="10.00">depz_camera_sdk.engines.base.</text>
<text text-anchor="middle" x="160.5" y="-56.5" font-family="Helvetica,sans-Serif" font-size="10.00">InferenceEngine</text>
</a>
</g>
</g>
<!-- Node3 -->
<g id="node3" class="node">
<title>Node3</title>
<g id="a_node3"><a xlink:href="classdepz__camera__sdk_1_1engines_1_1onnx__engine_1_1OnnxEngine.html" target="_top" xlink:title=" ">
<polygon fill="white" stroke="black" points="294.5,-98.5 294.5,-128.5 467.5,-128.5 467.5,-98.5 294.5,-98.5"/>
<text text-anchor="start" x="302.5" y="-116.5" font-family="Helvetica,sans-Serif" font-size="10.00">depz_camera_sdk.engines.onnx</text>
<text text-anchor="middle" x="381" y="-105.5" font-family="Helvetica,sans-Serif" font-size="10.00">_engine.OnnxEngine</text>
</a>
</g>
</g>
<!-- Node1&#45;&gt;Node3 -->
<g id="edge2" class="edge">
<title>Node1&#45;&gt;Node3</title>
<path fill="none" stroke="midnightblue" d="M238.46,-81.76C262.8,-87.22 289.5,-93.21 313.08,-98.49"/>
<polygon fill="midnightblue" stroke="midnightblue" points="239.07,-78.31 228.54,-79.53 237.53,-85.14 239.07,-78.31"/>
</g>
<!-- Node4 -->
<g id="node4" class="node">
<title>Node4</title>
<g id="a_node4"><a xlink:href="classdepz__camera__sdk_1_1engines_1_1openvino__engine_1_1OpenVINOEngine.html" target="_top" xlink:title=" ">
<polygon fill="white" stroke="black" points="284,-49.5 284,-79.5 478,-79.5 478,-49.5 284,-49.5"/>
<text text-anchor="start" x="292" y="-67.5" font-family="Helvetica,sans-Serif" font-size="10.00">depz_camera_sdk.engines.openvino</text>
<text text-anchor="middle" x="381" y="-56.5" font-family="Helvetica,sans-Serif" font-size="10.00">_engine.OpenVINOEngine</text>
</a>
</g>
</g>
<!-- Node1&#45;&gt;Node4 -->
<g id="edge3" class="edge">
<title>Node1&#45;&gt;Node4</title>
<path fill="none" stroke="midnightblue" d="M258.37,-64.5C266.79,-64.5 275.3,-64.5 283.71,-64.5"/>
<polygon fill="midnightblue" stroke="midnightblue" points="258.17,-61 248.17,-64.5 258.17,-68 258.17,-61"/>
</g>
<!-- Node5 -->
<g id="node5" class="node">
<title>Node5</title>
<g id="a_node5"><a xlink:href="classdepz__camera__sdk_1_1engines_1_1tensorrt__engine_1_1TensorRTEngine.html" target="_top" xlink:title=" ">
<polygon fill="white" stroke="black" points="287.5,-0.5 287.5,-30.5 474.5,-30.5 474.5,-0.5 287.5,-0.5"/>
<text text-anchor="start" x="295.5" y="-18.5" font-family="Helvetica,sans-Serif" font-size="10.00">depz_camera_sdk.engines.tensorrt</text>
<text text-anchor="middle" x="381" y="-7.5" font-family="Helvetica,sans-Serif" font-size="10.00">_engine.TensorRTEngine</text>
</a>
</g>
</g>
<!-- Node1&#45;&gt;Node5 -->
<g id="edge4" class="edge">
<title>Node1&#45;&gt;Node5</title>
<path fill="none" stroke="midnightblue" d="M238.46,-47.24C262.8,-41.78 289.5,-35.79 313.08,-30.51"/>
<polygon fill="midnightblue" stroke="midnightblue" points="237.53,-43.86 228.54,-49.47 239.07,-50.69 237.53,-43.86"/>
</g>
<!-- Node2 -->
<g id="node2" class="node">
<title>Node2</title>
<g id="a_node2"><a xlink:title=" ">
<polygon fill="white" stroke="#bfbfbf" points="0,-55 0,-74 37,-74 37,-55 0,-55"/>
<text text-anchor="middle" x="18.5" y="-62" font-family="Helvetica,sans-Serif" font-size="10.00">ABC</text>
</a>
</g>
</g>
<!-- Node2&#45;&gt;Node1 -->
<g id="edge1" class="edge">
<title>Node2&#45;&gt;Node1</title>
<path fill="none" stroke="midnightblue" d="M47.28,-64.5C54.95,-64.5 63.7,-64.5 72.85,-64.5"/>
<polygon fill="midnightblue" stroke="midnightblue" points="47.23,-61 37.23,-64.5 47.23,-68 47.23,-61"/>
</g>
</g>
</svg>
