<?xml version="1.0" encoding="UTF-8" standalone="no"?>
<!DOCTYPE svg PUBLIC "-//W3C//DTD SVG 1.1//EN"
 "http://www.w3.org/Graphics/SVG/1.1/DTD/svg11.dtd">
<!-- Generated by graphviz version 2.43.0 (0)
 -->
<!-- Title: IDepthFilter Pages: 1 -->
<svg width="336pt" height="84pt"
 viewBox="0.00 0.00 336.00 84.00" xmlns="http://www.w3.org/2000/svg" xmlns:xlink="http://www.w3.org/1999/xlink">
<g id="graph0" class="graph" transform="scale(1 1) rotate(0) translate(4 80)">
<title>IDepthFilter</title>
<polygon fill="white" stroke="transparent" points="-4,4 -4,-80 332,-80 332,4 -4,4"/>
<!-- Node1 -->
<g id="node1" class="node">
<title>Node1</title>
<g id="a_node1"><a xlink:title="Pure&#45;virtual interface for a single&#45;stage depth / disparity filter.">
<polygon fill="#bfbfbf" stroke="black" points="120.5,-56.5 120.5,-75.5 194.5,-75.5 194.5,-56.5 120.5,-56.5"/>
<text text-anchor="middle" x="157.5" y="-63.5" font-family="Helvetica,sans-Serif" font-size="10.00">IDepthFilter</text>
</a>
</g>
</g>
<!-- Node2 -->
<g id="node2" class="node">
<title>Node2</title>
<g id="a_node2"><a xlink:href="classAdaptiveTemporalFilterV2.html" target="_top" xlink:title="Adaptive Exponential Moving Average (EMA) filter for depth map stabilisation.">
<polygon fill="white" stroke="black" points="0,-0.5 0,-19.5 143,-19.5 143,-0.5 0,-0.5"/>
<text text-anchor="middle" x="71.5" y="-7.5" font-family="Helvetica,sans-Serif" font-size="10.00">AdaptiveTemporalFilterV2</text>
</a>
</g>
</g>
<!-- Node1&#45;&gt;Node2 -->
<g id="edge1" class="edge">
<title>Node1&#45;&gt;Node2</title>
<path fill="none" stroke="midnightblue" d="M135.05,-50.9C119.28,-41 98.69,-28.07 85.28,-19.65"/>
<polygon fill="midnightblue" stroke="midnightblue" points="133.35,-53.97 143.68,-56.32 137.07,-48.04 133.35,-53.97"/>
</g>
<!-- Node3 -->
<g id="node3" class="node">
<title>Node3</title>
<g id="a_node3"><a xlink:href="classAdaptiveTemporalKalmanFilter.html" target="_top" xlink:title="Per&#45;pixel adaptive Kalman filter for depth / disparity map stabilisation.">
<polygon fill="white" stroke="black" points="161,-0.5 161,-19.5 328,-19.5 328,-0.5 161,-0.5"/>
<text text-anchor="middle" x="244.5" y="-7.5" font-family="Helvetica,sans-Serif" font-size="10.00">AdaptiveTemporalKalmanFilter</text>
</a>
</g>
</g>
<!-- Node1&#45;&gt;Node3 -->
<g id="edge2" class="edge">
<title>Node1&#45;&gt;Node3</title>
<path fill="none" stroke="midnightblue" d="M180.22,-50.9C196.17,-41 217,-28.07 230.56,-19.65"/>
<polygon fill="midnightblue" stroke="midnightblue" points="178.13,-48.08 171.48,-56.32 181.82,-54.02 178.13,-48.08"/>
</g>
</g>
</svg>
