<?xml version="1.0" encoding="UTF-8" standalone="no"?>
<!DOCTYPE svg PUBLIC "-//W3C//DTD SVG 1.1//EN"
 "http://www.w3.org/Graphics/SVG/1.1/DTD/svg11.dtd">
<!-- Generated by graphviz version 2.43.0 (0)
 -->
<!-- Title: stereocam::controls::IControlOwner Pages: 1 -->
<!--zoomable 578 -->
<svg id="main" version="1.1" xmlns="http://www.w3.org/2000/svg" xmlns:xlink="http://www.w3.org/1999/xlink" xml:space="preserve" onload="init(evt)">
<style type="text/css"><![CDATA[
.edge:hover path { stroke: red; }
.edge:hover polygon { stroke: red; fill: red; }
]]></style>
<script type="text/javascript"><![CDATA[
var edges = document.getElementsByTagName('g');
if (edges && edges.length) {
  for (var i=0;i<edges.length;i++) {
    if (edges[i].id.substr(0,4)=='edge') {
      edges[i].setAttribute('class','edge');
    }
  }
}
]]></script>
        <defs>
                <circle id="rim" cx="0" cy="0" r="7"/>
                <circle id="rim2" cx="0" cy="0" r="3.5"/>
                <g id="zoomPlus">
                        <use xlink:href="#rim" fill="#404040">
                                <set attributeName="fill" to="#808080" begin="zoomplus.mouseover" end="zoomplus.mouseout"/>
                        </use>
                        <path d="M-4,0h8M0,-4v8" fill="none" stroke="white" stroke-width="1.5" pointer-events="none"/>
                </g>
                <g id="zoomMin">
                        <use xlink:href="#rim" fill="#404040">
                                <set attributeName="fill" to="#808080" begin="zoomminus.mouseover" end="zoomminus.mouseout"/>
                        </use>
                        <path d="M-4,0h8" fill="none" stroke="white" stroke-width="1.5" pointer-events="none"/>
                </g>
                <g id="dirArrow">
                        <path fill="none" stroke="white" stroke-width="1.5" d="M0,-3.0v7 M-2.5,-0.5L0,-3.0L2.5,-0.5"/>
                </g>
               <g id="resetDef">
                       <use xlink:href="#rim2" fill="#404040">
                               <set attributeName="fill" to="#808080" begin="reset.mouseover" end="reset.mouseout"/>
                       </use>
               </g>
        </defs>

<script type="text/javascript">
var viewWidth = 707;
var viewHeight = 578;
var sectionId = 'dynsection-0';
</script>
<script xlink:href="svgpan.js"/>
<svg id="graph" class="graph">
<g id="viewport">
<title>stereocam::controls::IControlOwner</title>
<polygon fill="white" stroke="transparent" points="-4,4 -4,-574 703,-574 703,4 -4,4"/>
<!-- Node1 -->
<g id="node1" class="node">
<title>Node1</title>
<g id="a_node1"><a xlink:title="Language&#45;neutral base class for objects with self&#45;describing runtime parameters.">
<polygon fill="#bfbfbf" stroke="black" points="0,-392.5 0,-422.5 113,-422.5 113,-392.5 0,-392.5"/>
<text text-anchor="start" x="8" y="-410.5" font-family="Helvetica,sans-Serif" font-size="10.00">stereocam::controls</text>
<text text-anchor="middle" x="56.5" y="-399.5" font-family="Helvetica,sans-Serif" font-size="10.00">::IControlOwner</text>
</a>
</g>
</g>
<!-- Node2 -->
<g id="node2" class="node">
<title>Node2</title>
<g id="a_node2"><a xlink:href="classstereocam_1_1calibration_1_1Calibration.html" target="_top" xlink:title="Stereo / mono calibration runtime contract.">
<polygon fill="white" stroke="black" points="149,-490.5 149,-520.5 275,-520.5 275,-490.5 149,-490.5"/>
<text text-anchor="start" x="157" y="-508.5" font-family="Helvetica,sans-Serif" font-size="10.00">stereocam::calibration</text>
<text text-anchor="middle" x="212" y="-497.5" font-family="Helvetica,sans-Serif" font-size="10.00">::Calibration</text>
</a>
</g>
</g>
<!-- Node1&#45;&gt;Node2 -->
<g id="edge1" class="edge">
<title>Node1&#45;&gt;Node2</title>
<path fill="none" stroke="midnightblue" d="M89.75,-428.09C118.91,-446.71 161.17,-473.69 187.33,-490.39"/>
<polygon fill="midnightblue" stroke="midnightblue" points="91.46,-425.03 81.15,-422.6 87.69,-430.93 91.46,-425.03"/>
</g>
<!-- Node5 -->
<g id="node5" class="node">
<title>Node5</title>
<g id="a_node5"><a xlink:href="classstereocam_1_1filters_1_1IFilter.html" target="_top" xlink:title="Stage&#45;agnostic filter base class.">
<polygon fill="white" stroke="black" points="161,-392.5 161,-422.5 263,-422.5 263,-392.5 161,-392.5"/>
<text text-anchor="start" x="169" y="-410.5" font-family="Helvetica,sans-Serif" font-size="10.00">stereocam::filters</text>
<text text-anchor="middle" x="212" y="-399.5" font-family="Helvetica,sans-Serif" font-size="10.00">::IFilter</text>
</a>
</g>
</g>
<!-- Node1&#45;&gt;Node5 -->
<g id="edge4" class="edge">
<title>Node1&#45;&gt;Node5</title>
<path fill="none" stroke="midnightblue" d="M123.68,-407.5C136.12,-407.5 148.93,-407.5 160.79,-407.5"/>
<polygon fill="midnightblue" stroke="midnightblue" points="123.35,-404 113.35,-407.5 123.35,-411 123.35,-404"/>
</g>
<!-- Node16 -->
<g id="node16" class="node">
<title>Node16</title>
<g id="a_node16"><a xlink:href="classstereocam_1_1inference_1_1DepthInferenceBase.html" target="_top" xlink:title="Pipeline&#45;facing abstract base for a neural depth network.">
<polygon fill="white" stroke="black" points="151,-221.5 151,-251.5 273,-251.5 273,-221.5 151,-221.5"/>
<text text-anchor="start" x="159" y="-239.5" font-family="Helvetica,sans-Serif" font-size="10.00">stereocam::inference</text>
<text text-anchor="middle" x="212" y="-228.5" font-family="Helvetica,sans-Serif" font-size="10.00">::DepthInferenceBase</text>
</a>
</g>
</g>
<!-- Node1&#45;&gt;Node16 -->
<g id="edge15" class="edge">
<title>Node1&#45;&gt;Node16</title>
<path fill="none" stroke="midnightblue" d="M78.2,-384.44C110.03,-348.98 170.13,-282.03 197.19,-251.89"/>
<polygon fill="midnightblue" stroke="midnightblue" points="75.2,-382.55 71.12,-392.32 80.41,-387.22 75.2,-382.55"/>
</g>
<!-- Node3 -->
<g id="node3" class="node">
<title>Node3</title>
<g id="a_node3"><a xlink:href="classstereocam_1_1calibration_1_1OpenCVBasicCalibration.html" target="_top" xlink:title="Pinhole (OpenCV5/8) stereo&#45;or&#45;mono calibration with canvas&#45;fit remap.">
<polygon fill="white" stroke="black" points="316.5,-539.5 316.5,-569.5 457.5,-569.5 457.5,-539.5 316.5,-539.5"/>
<text text-anchor="start" x="324.5" y="-557.5" font-family="Helvetica,sans-Serif" font-size="10.00">stereocam::calibration</text>
<text text-anchor="middle" x="387" y="-546.5" font-family="Helvetica,sans-Serif" font-size="10.00">::OpenCVBasicCalibration</text>
</a>
</g>
</g>
<!-- Node2&#45;&gt;Node3 -->
<g id="edge2" class="edge">
<title>Node2&#45;&gt;Node3</title>
<path fill="none" stroke="midnightblue" d="M276.18,-523.39C294.78,-528.66 314.95,-534.38 332.86,-539.45"/>
<polygon fill="midnightblue" stroke="midnightblue" points="276.89,-519.96 266.32,-520.6 274.99,-526.69 276.89,-519.96"/>
</g>
<!-- Node4 -->
<g id="node4" class="node">
<title>Node4</title>
<g id="a_node4"><a xlink:href="classstereocam_1_1calibration_1_1OpenCVFisheyeCalibration.html" target="_top" xlink:title="Stereo Kannala–Brandt fisheye calibration with lon/lat (ERP) rectification.">
<polygon fill="white" stroke="black" points="311,-490.5 311,-520.5 463,-520.5 463,-490.5 311,-490.5"/>
<text text-anchor="start" x="319" y="-508.5" font-family="Helvetica,sans-Serif" font-size="10.00">stereocam::calibration</text>
<text text-anchor="middle" x="387" y="-497.5" font-family="Helvetica,sans-Serif" font-size="10.00">::OpenCVFisheyeCalibration</text>
</a>
</g>
</g>
<!-- Node2&#45;&gt;Node4 -->
<g id="edge3" class="edge">
<title>Node2&#45;&gt;Node4</title>
<path fill="none" stroke="midnightblue" d="M285.58,-505.5C293.97,-505.5 302.53,-505.5 310.95,-505.5"/>
<polygon fill="midnightblue" stroke="midnightblue" points="285.46,-502 275.46,-505.5 285.46,-509 285.46,-502"/>
</g>
<!-- Node6 -->
<g id="node6" class="node">
<title>Node6</title>
<g id="a_node6"><a xlink:href="classstereocam_1_1filters_1_1DepthFilter.html" target="_top" xlink:title="Marker base for filters that consume the metric depth map.">
<polygon fill="white" stroke="black" points="336,-441.5 336,-471.5 438,-471.5 438,-441.5 336,-441.5"/>
<text text-anchor="start" x="344" y="-459.5" font-family="Helvetica,sans-Serif" font-size="10.00">stereocam::filters</text>
<text text-anchor="middle" x="387" y="-448.5" font-family="Helvetica,sans-Serif" font-size="10.00">::DepthFilter</text>
</a>
</g>
</g>
<!-- Node5&#45;&gt;Node6 -->
<g id="edge5" class="edge">
<title>Node5&#45;&gt;Node6</title>
<path fill="none" stroke="midnightblue" d="M272.9,-424.47C293.41,-430.27 316.12,-436.71 335.77,-442.27"/>
<polygon fill="midnightblue" stroke="midnightblue" points="273.61,-421.03 263.04,-421.67 271.71,-427.77 273.61,-421.03"/>
</g>
<!-- Node10 -->
<g id="node10" class="node">
<title>Node10</title>
<g id="a_node10"><a xlink:href="classstereocam_1_1filters_1_1DisparityFilter.html" target="_top" xlink:title="Marker base for filters that consume the raw disparity map.">
<polygon fill="white" stroke="black" points="336,-392.5 336,-422.5 438,-422.5 438,-392.5 336,-392.5"/>
<text text-anchor="start" x="344" y="-410.5" font-family="Helvetica,sans-Serif" font-size="10.00">stereocam::filters</text>
<text text-anchor="middle" x="387" y="-399.5" font-family="Helvetica,sans-Serif" font-size="10.00">::DisparityFilter</text>
</a>
</g>
</g>
<!-- Node5&#45;&gt;Node10 -->
<g id="edge9" class="edge">
<title>Node5&#45;&gt;Node10</title>
<path fill="none" stroke="midnightblue" d="M273.18,-407.5C293.61,-407.5 316.21,-407.5 335.77,-407.5"/>
<polygon fill="midnightblue" stroke="midnightblue" points="273.04,-404 263.04,-407.5 273.04,-411 273.04,-404"/>
</g>
<!-- Node12 -->
<g id="node12" class="node">
<title>Node12</title>
<g id="a_node12"><a xlink:href="classstereocam_1_1filters_1_1PointCloudFilter.html" target="_top" xlink:title="Marker base for filters that consume the organized 3&#45;D point cloud.">
<polygon fill="white" stroke="black" points="336,-319.5 336,-349.5 438,-349.5 438,-319.5 336,-319.5"/>
<text text-anchor="start" x="344" y="-337.5" font-family="Helvetica,sans-Serif" font-size="10.00">stereocam::filters</text>
<text text-anchor="middle" x="387" y="-326.5" font-family="Helvetica,sans-Serif" font-size="10.00">::PointCloudFilter</text>
</a>
</g>
</g>
<!-- Node5&#45;&gt;Node12 -->
<g id="edge11" class="edge">
<title>Node5&#45;&gt;Node12</title>
<path fill="none" stroke="midnightblue" d="M258.25,-388.41C286.94,-376.3 323.54,-360.86 350.2,-349.61"/>
<polygon fill="midnightblue" stroke="midnightblue" points="256.7,-385.26 248.85,-392.37 259.42,-391.71 256.7,-385.26"/>
</g>
<!-- Node7 -->
<g id="node7" class="node">
<title>Node7</title>
<g id="a_node7"><a xlink:href="classstereocam_1_1filters_1_1EdgeFilterCpp.html" target="_top" xlink:title="Drops pixels at depth discontinuities — boundary skirts and flyers (depth stage).">
<polygon fill="white" stroke="black" points="548,-539.5 548,-569.5 650,-569.5 650,-539.5 548,-539.5"/>
<text text-anchor="start" x="556" y="-557.5" font-family="Helvetica,sans-Serif" font-size="10.00">stereocam::filters</text>
<text text-anchor="middle" x="599" y="-546.5" font-family="Helvetica,sans-Serif" font-size="10.00">::EdgeFilterCpp</text>
</a>
</g>
</g>
<!-- Node6&#45;&gt;Node7 -->
<g id="edge6" class="edge">
<title>Node6&#45;&gt;Node7</title>
<path fill="none" stroke="midnightblue" d="M447.48,-472.42C452.96,-475.02 458.24,-478.03 463,-481.5 484.84,-497.41 476.51,-515.52 499,-530.5 513.43,-540.11 531.31,-545.88 547.9,-549.34"/>
<polygon fill="midnightblue" stroke="midnightblue" points="448.69,-469.13 438.12,-468.41 445.93,-475.56 448.69,-469.13"/>
</g>
<!-- Node8 -->
<g id="node8" class="node">
<title>Node8</title>
<g id="a_node8"><a xlink:href="classstereocam_1_1filters_1_1TemporalEmaFilterCpp.html" target="_top" xlink:title="Smooths the depth map by per&#45;pixel EMA over consecutive frames (depth stage).">
<polygon fill="white" stroke="black" points="532.5,-490.5 532.5,-520.5 665.5,-520.5 665.5,-490.5 532.5,-490.5"/>
<text text-anchor="start" x="540.5" y="-508.5" font-family="Helvetica,sans-Serif" font-size="10.00">stereocam::filters</text>
<text text-anchor="middle" x="599" y="-497.5" font-family="Helvetica,sans-Serif" font-size="10.00">::TemporalEmaFilterCpp</text>
</a>
</g>
</g>
<!-- Node6&#45;&gt;Node8 -->
<g id="edge7" class="edge">
<title>Node6&#45;&gt;Node8</title>
<path fill="none" stroke="midnightblue" d="M448.04,-470.51C474.8,-476.75 506.37,-484.12 533.62,-490.48"/>
<polygon fill="midnightblue" stroke="midnightblue" points="448.57,-467.04 438.03,-468.17 446.98,-473.86 448.57,-467.04"/>
</g>
<!-- Node9 -->
<g id="node9" class="node">
<title>Node9</title>
<g id="a_node9"><a xlink:href="classstereocam_1_1filters_1_1ZClipFilterCpp.html" target="_top" xlink:title="Zeros depth pixels outside the [_min, _max] metre range (depth stage).">
<polygon fill="white" stroke="black" points="548,-441.5 548,-471.5 650,-471.5 650,-441.5 548,-441.5"/>
<text text-anchor="start" x="556" y="-459.5" font-family="Helvetica,sans-Serif" font-size="10.00">stereocam::filters</text>
<text text-anchor="middle" x="599" y="-448.5" font-family="Helvetica,sans-Serif" font-size="10.00">::ZClipFilterCpp</text>
</a>
</g>
</g>
<!-- Node6&#45;&gt;Node9 -->
<g id="edge8" class="edge">
<title>Node6&#45;&gt;Node9</title>
<path fill="none" stroke="midnightblue" d="M448.05,-456.5C479.67,-456.5 518,-456.5 547.99,-456.5"/>
<polygon fill="midnightblue" stroke="midnightblue" points="448.03,-453 438.03,-456.5 448.03,-460 448.03,-453"/>
</g>
<!-- Node11 -->
<g id="node11" class="node">
<title>Node11</title>
<g id="a_node11"><a xlink:href="classstereocam_1_1filters_1_1SpeckleFilterCpp.html" target="_top" xlink:title="Removes small speckle islands from a raw disparity map (disparity stage).">
<polygon fill="white" stroke="black" points="547,-392.5 547,-422.5 651,-422.5 651,-392.5 547,-392.5"/>
<text text-anchor="start" x="555" y="-410.5" font-family="Helvetica,sans-Serif" font-size="10.00">stereocam::filters</text>
<text text-anchor="middle" x="599" y="-399.5" font-family="Helvetica,sans-Serif" font-size="10.00">::SpeckleFilterCpp</text>
</a>
</g>
</g>
<!-- Node10&#45;&gt;Node11 -->
<g id="edge10" class="edge">
<title>Node10&#45;&gt;Node11</title>
<path fill="none" stroke="midnightblue" d="M448.34,-407.5C479.52,-407.5 517.16,-407.5 546.89,-407.5"/>
<polygon fill="midnightblue" stroke="midnightblue" points="448.03,-404 438.03,-407.5 448.03,-411 448.03,-404"/>
</g>
<!-- Node13 -->
<g id="node13" class="node">
<title>Node13</title>
<g id="a_node13"><a xlink:href="classstereocam_1_1filters_1_1BoundingBoxFilterCpp.html" target="_top" xlink:title="Drops cloud points outside an axis&#45;aligned 3D box (organized&#45;cloud stage).">
<polygon fill="white" stroke="black" points="533.5,-343.5 533.5,-373.5 664.5,-373.5 664.5,-343.5 533.5,-343.5"/>
<text text-anchor="start" x="541.5" y="-361.5" font-family="Helvetica,sans-Serif" font-size="10.00">stereocam::filters</text>
<text text-anchor="middle" x="599" y="-350.5" font-family="Helvetica,sans-Serif" font-size="10.00">::BoundingBoxFilterCpp</text>
</a>
</g>
</g>
<!-- Node12&#45;&gt;Node13 -->
<g id="edge12" class="edge">
<title>Node12&#45;&gt;Node13</title>
<path fill="none" stroke="midnightblue" d="M447.99,-341.36C474.64,-344.4 506.05,-347.99 533.23,-351.1"/>
<polygon fill="midnightblue" stroke="midnightblue" points="448.37,-337.88 438.03,-340.22 447.57,-344.83 448.37,-337.88"/>
</g>
<!-- Node14 -->
<g id="node14" class="node">
<title>Node14</title>
<g id="a_node14"><a xlink:href="classstereocam_1_1filters_1_1RayTsdfFilterCpp.html" target="_top" xlink:title="Per&#45;ray TSDF fusion on the organized cloud (organized&#45;cloud stage).">
<polygon fill="white" stroke="black" points="547,-294.5 547,-324.5 651,-324.5 651,-294.5 547,-294.5"/>
<text text-anchor="start" x="555" y="-312.5" font-family="Helvetica,sans-Serif" font-size="10.00">stereocam::filters</text>
<text text-anchor="middle" x="599" y="-301.5" font-family="Helvetica,sans-Serif" font-size="10.00">::RayTsdfFilterCpp</text>
</a>
</g>
</g>
<!-- Node12&#45;&gt;Node14 -->
<g id="edge13" class="edge">
<title>Node12&#45;&gt;Node14</title>
<path fill="none" stroke="midnightblue" d="M448.34,-327.32C479.52,-323.6 517.16,-319.12 546.89,-315.58"/>
<polygon fill="midnightblue" stroke="midnightblue" points="447.55,-323.89 438.03,-328.54 448.38,-330.84 447.55,-323.89"/>
</g>
<!-- Node15 -->
<g id="node15" class="node">
<title>Node15</title>
<g id="a_node15"><a xlink:href="classstereocam_1_1filters_1_1StatisticalOutlierFilterCpp.html" target="_top" xlink:title="Removes statistical outlier points from the organized cloud (organized&#45;cloud stage).">
<polygon fill="white" stroke="black" points="525,-245.5 525,-275.5 673,-275.5 673,-245.5 525,-245.5"/>
<text text-anchor="start" x="533" y="-263.5" font-family="Helvetica,sans-Serif" font-size="10.00">stereocam::filters</text>
<text text-anchor="middle" x="599" y="-252.5" font-family="Helvetica,sans-Serif" font-size="10.00">::StatisticalOutlierFilterCpp</text>
</a>
</g>
</g>
<!-- Node12&#45;&gt;Node15 -->
<g id="edge14" class="edge">
<title>Node12&#45;&gt;Node15</title>
<path fill="none" stroke="midnightblue" d="M427.73,-315.01C448.61,-305.27 474.82,-293.82 499,-285.5 509.56,-281.86 520.92,-278.5 532.04,-275.5"/>
<polygon fill="midnightblue" stroke="midnightblue" points="426.09,-311.92 418.54,-319.35 429.08,-318.25 426.09,-311.92"/>
</g>
<!-- Node17 -->
<g id="node17" class="node">
<title>Node17</title>
<g id="a_node17"><a xlink:href="classstereocam_1_1inference_1_1NeuralInferenceBase.html" target="_top" xlink:title="Shared partial implementation of DepthInferenceBase.">
<polygon fill="white" stroke="black" points="324.5,-122.5 324.5,-152.5 449.5,-152.5 449.5,-122.5 324.5,-122.5"/>
<text text-anchor="start" x="332.5" y="-140.5" font-family="Helvetica,sans-Serif" font-size="10.00">stereocam::inference</text>
<text text-anchor="middle" x="387" y="-129.5" font-family="Helvetica,sans-Serif" font-size="10.00">::NeuralInferenceBase</text>
</a>
</g>
</g>
<!-- Node16&#45;&gt;Node17 -->
<g id="edge16" class="edge">
<title>Node16&#45;&gt;Node17</title>
<path fill="none" stroke="midnightblue" d="M248.16,-216.38C281.22,-197.46 329.97,-169.56 359.76,-152.51"/>
<polygon fill="midnightblue" stroke="midnightblue" points="246.22,-213.46 239.27,-221.46 249.69,-219.53 246.22,-213.46"/>
</g>
<!-- Node18 -->
<g id="node18" class="node">
<title>Node18</title>
<g id="a_node18"><a xlink:href="classstereocam_1_1inference_1_1CREStereoCombinedInferenceCpp.html" target="_top" xlink:title="CREStereo combined stereo with 4 inputs (full + half&#45;resolution pairs).">
<polygon fill="white" stroke="black" points="505,-196.5 505,-226.5 693,-226.5 693,-196.5 505,-196.5"/>
<text text-anchor="start" x="513" y="-214.5" font-family="Helvetica,sans-Serif" font-size="10.00">stereocam::inference</text>
<text text-anchor="middle" x="599" y="-203.5" font-family="Helvetica,sans-Serif" font-size="10.00">::CREStereoCombinedInferenceCpp</text>
</a>
</g>
</g>
<!-- Node17&#45;&gt;Node18 -->
<g id="edge17" class="edge">
<title>Node17&#45;&gt;Node18</title>
<path fill="none" stroke="midnightblue" d="M426.77,-157.1C447.76,-167.16 474.38,-179.05 499,-187.5 508.53,-190.77 518.73,-193.78 528.82,-196.47"/>
<polygon fill="midnightblue" stroke="midnightblue" points="428.07,-153.84 417.54,-152.62 425.01,-160.14 428.07,-153.84"/>
</g>
<!-- Node19 -->
<g id="node19" class="node">
<title>Node19</title>
<g id="a_node19"><a xlink:href="classstereocam_1_1inference_1_1CREStereoInitialInferenceCpp.html" target="_top" xlink:title="CREStereo single&#45;pass stereo (raw 0&#45;255 input, disparity = output ch 0).">
<polygon fill="white" stroke="black" points="516,-147.5 516,-177.5 682,-177.5 682,-147.5 516,-147.5"/>
<text text-anchor="start" x="524" y="-165.5" font-family="Helvetica,sans-Serif" font-size="10.00">stereocam::inference</text>
<text text-anchor="middle" x="599" y="-154.5" font-family="Helvetica,sans-Serif" font-size="10.00">::CREStereoInitialInferenceCpp</text>
</a>
</g>
</g>
<!-- Node17&#45;&gt;Node19 -->
<g id="edge18" class="edge">
<title>Node17&#45;&gt;Node19</title>
<path fill="none" stroke="midnightblue" d="M459.72,-146.04C477.75,-148.18 497.24,-150.5 515.73,-152.71"/>
<polygon fill="midnightblue" stroke="midnightblue" points="459.93,-142.54 449.59,-144.83 459.1,-149.49 459.93,-142.54"/>
</g>
<!-- Node20 -->
<g id="node20" class="node">
<title>Node20</title>
<g id="a_node20"><a xlink:href="classstereocam_1_1inference_1_1DepthAnythingV2SmallInferenceCpp.html" target="_top" xlink:title="Mono relative&#45;depth network with a user&#45;tunable affine post&#45;scale.">
<polygon fill="white" stroke="black" points="499,-98.5 499,-128.5 699,-128.5 699,-98.5 499,-98.5"/>
<text text-anchor="start" x="507" y="-116.5" font-family="Helvetica,sans-Serif" font-size="10.00">stereocam::inference</text>
<text text-anchor="middle" x="599" y="-105.5" font-family="Helvetica,sans-Serif" font-size="10.00">::DepthAnythingV2SmallInferenceCpp</text>
</a>
</g>
</g>
<!-- Node17&#45;&gt;Node20 -->
<g id="edge19" class="edge">
<title>Node17&#45;&gt;Node20</title>
<path fill="none" stroke="midnightblue" d="M459.58,-129.32C472.25,-127.87 485.65,-126.34 498.92,-124.82"/>
<polygon fill="midnightblue" stroke="midnightblue" points="459.13,-125.85 449.59,-130.46 459.92,-132.8 459.13,-125.85"/>
</g>
<!-- Node21 -->
<g id="node21" class="node">
<title>Node21</title>
<g id="a_node21"><a xlink:href="classstereocam_1_1inference_1_1LightStereoInferenceCpp.html" target="_top" xlink:title="Fast stereo network with ImageNet normalization; output squeezed to 2D.">
<polygon fill="white" stroke="black" points="527.5,-49.5 527.5,-79.5 670.5,-79.5 670.5,-49.5 527.5,-49.5"/>
<text text-anchor="start" x="535.5" y="-67.5" font-family="Helvetica,sans-Serif" font-size="10.00">stereocam::inference</text>
<text text-anchor="middle" x="599" y="-56.5" font-family="Helvetica,sans-Serif" font-size="10.00">::LightStereoInferenceCpp</text>
</a>
</g>
</g>
<!-- Node17&#45;&gt;Node21 -->
<g id="edge20" class="edge">
<title>Node17&#45;&gt;Node21</title>
<path fill="none" stroke="midnightblue" d="M428.22,-118.25C449.03,-108.76 475.04,-97.65 499,-89.5 509.66,-85.88 521.12,-82.51 532.33,-79.5"/>
<polygon fill="midnightblue" stroke="midnightblue" points="426.67,-115.11 419.05,-122.47 429.6,-121.47 426.67,-115.11"/>
</g>
<!-- Node22 -->
<g id="node22" class="node">
<title>Node22</title>
<g id="a_node22"><a xlink:href="classstereocam_1_1inference_1_1Metric3DV2VitSmallInferenceCpp.html" target="_top" xlink:title="Mono metric&#45;depth network with CSTM canonical&#45;focal depth recovery.">
<polygon fill="white" stroke="black" points="506.5,-0.5 506.5,-30.5 691.5,-30.5 691.5,-0.5 506.5,-0.5"/>
<text text-anchor="start" x="514.5" y="-18.5" font-family="Helvetica,sans-Serif" font-size="10.00">stereocam::inference</text>
<text text-anchor="middle" x="599" y="-7.5" font-family="Helvetica,sans-Serif" font-size="10.00">::Metric3DV2VitSmallInferenceCpp</text>
</a>
</g>
</g>
<!-- Node17&#45;&gt;Node22 -->
<g id="edge21" class="edge">
<title>Node17&#45;&gt;Node22</title>
<path fill="none" stroke="midnightblue" d="M408.04,-114.59C428.69,-92.41 462.86,-59.44 499,-40.5 506.38,-36.63 514.39,-33.34 522.54,-30.55"/>
<polygon fill="midnightblue" stroke="midnightblue" points="405.23,-112.48 401.07,-122.22 410.4,-117.2 405.23,-112.48"/>
</g>
</g>
</svg>
        <g id="navigator" transform="translate(0 0)" fill="#404254">
                <rect fill="#f2f5e9" fill-opacity="0.5" stroke="#606060" stroke-width=".5" x="0" y="0" width="60" height="60"/>
                <use id="zoomplus" xlink:href="#zoomPlus" x="17" y="9" onmousedown="handleZoom(evt,'in')"/>
                <use id="zoomminus" xlink:href="#zoomMin" x="42" y="9" onmousedown="handleZoom(evt,'out')"/>
                <use id="reset" xlink:href="#resetDef" x="30" y="36" onmousedown="handleReset()"/>
                <g id="arrowUp" xlink:href="#dirArrow" transform="translate(30 24)" onmousedown="handlePan(0,-1)">
                  <use xlink:href="#rim" fill="#404040">
                        <set attributeName="fill" to="#808080" begin="arrowUp.mouseover" end="arrowUp.mouseout"/>
                  </use>
                  <path fill="none" stroke="white" stroke-width="1.5" d="M0,-3.0v7 M-2.5,-0.5L0,-3.0L2.5,-0.5"/>
                </g>
                <g id="arrowRight" xlink:href="#dirArrow" transform="rotate(90) translate(36 -43)" onmousedown="handlePan(1,0)">
                  <use xlink:href="#rim" fill="#404040">
                        <set attributeName="fill" to="#808080" begin="arrowRight.mouseover" end="arrowRight.mouseout"/>
                  </use>
                  <path fill="none" stroke="white" stroke-width="1.5" d="M0,-3.0v7 M-2.5,-0.5L0,-3.0L2.5,-0.5"/>
                </g>
                <g id="arrowDown" xlink:href="#dirArrow" transform="rotate(180) translate(-30 -48)" onmousedown="handlePan(0,1)">
                  <use xlink:href="#rim" fill="#404040">
                        <set attributeName="fill" to="#808080" begin="arrowDown.mouseover" end="arrowDown.mouseout"/>
                  </use>
                  <path fill="none" stroke="white" stroke-width="1.5" d="M0,-3.0v7 M-2.5,-0.5L0,-3.0L2.5,-0.5"/>
                </g>
                <g id="arrowLeft" xlink:href="#dirArrow" transform="rotate(270) translate(-36 17)" onmousedown="handlePan(-1,0)">
                  <use xlink:href="#rim" fill="#404040">
                        <set attributeName="fill" to="#808080" begin="arrowLeft.mouseover" end="arrowLeft.mouseout"/>
                  </use>
                  <path fill="none" stroke="white" stroke-width="1.5" d="M0,-3.0v7 M-2.5,-0.5L0,-3.0L2.5,-0.5"/>
                </g>
        </g>
        <svg viewBox="0 0 15 15" width="100%" height="30px" preserveAspectRatio="xMaxYMin meet">
         <g id="arrow_out" transform="scale(0.3 0.3)">
          <a xlink:href="classstereocam_1_1controls_1_1IControlOwner__inherit__graph_org.svg" target="_base">
           <rect id="button" ry="5" rx="5" y="6" x="6" height="38" width="38"
                fill="#f2f5e9" fill-opacity="0.5" stroke="#606060" stroke-width="1.0"/>
           <path id="arrow"
             d="M 11.500037,31.436501 C 11.940474,20.09759 22.043105,11.32322 32.158766,21.979434 L 37.068811,17.246167 C 37.068811,17.246167 37.088388,32 37.088388,32 L 22.160133,31.978069 C 22.160133,31.978069 26.997745,27.140456 26.997745,27.140456 C 18.528582,18.264221 13.291696,25.230495 11.500037,31.436501 z"
             style="fill:#404040;"/>
          </a>
         </g>
        </svg>
</svg>
