<?xml version="1.0" encoding="UTF-8" standalone="no"?>
<!DOCTYPE svg PUBLIC "-//W3C//DTD SVG 1.1//EN"
 "http://www.w3.org/Graphics/SVG/1.1/DTD/svg11.dtd">
<!-- Generated by graphviz version 2.43.0 (0)
 -->
<!-- Title: depz_camera_sdk.inference.base.DepthInferenceBase Pages: 1 -->
<svg width="1126pt" height="284pt"
 viewBox="0.00 0.00 1126.00 284.00" xmlns="http://www.w3.org/2000/svg" xmlns:xlink="http://www.w3.org/1999/xlink">
<g id="graph0" class="graph" transform="scale(1 1) rotate(0) translate(4 280)">
<title>depz_camera_sdk.inference.base.DepthInferenceBase</title>
<polygon fill="white" stroke="transparent" points="-4,4 -4,-280 1122,-280 1122,4 -4,4"/>
<!-- Node1 -->
<g id="node1" class="node">
<title>Node1</title>
<g id="a_node1"><a xlink:title=" ">
<polygon fill="#bfbfbf" stroke="black" points="191,-122.5 191,-152.5 373,-152.5 373,-122.5 191,-122.5"/>
<text text-anchor="start" x="199" y="-140.5" font-family="Helvetica,sans-Serif" font-size="10.00">depz_camera_sdk.inference.base.</text>
<text text-anchor="middle" x="282" y="-129.5" font-family="Helvetica,sans-Serif" font-size="10.00">DepthInferenceBase</text>
</a>
</g>
</g>
<!-- Node4 -->
<g id="node4" class="node">
<title>Node4</title>
<g id="a_node4"><a xlink:href="classdepz__camera__sdk_1_1inference_1_1base_1_1NeuralInferenceBase.html" target="_top" xlink:title=" ">
<polygon fill="white" stroke="black" points="430.5,-196.5 430.5,-226.5 612.5,-226.5 612.5,-196.5 430.5,-196.5"/>
<text text-anchor="start" x="438.5" y="-214.5" font-family="Helvetica,sans-Serif" font-size="10.00">depz_camera_sdk.inference.base.</text>
<text text-anchor="middle" x="521.5" y="-203.5" font-family="Helvetica,sans-Serif" font-size="10.00">NeuralInferenceBase</text>
</a>
</g>
</g>
<!-- Node1&#45;&gt;Node4 -->
<g id="edge3" class="edge">
<title>Node1&#45;&gt;Node4</title>
<path fill="none" stroke="midnightblue" d="M327.04,-156.51C350.98,-166.35 381.27,-178.05 409,-186.5 420.86,-190.11 433.58,-193.45 446.02,-196.44"/>
<polygon fill="midnightblue" stroke="midnightblue" points="328.11,-153.16 317.54,-152.55 325.43,-159.62 328.11,-153.16"/>
</g>
<!-- Node9 -->
<g id="node9" class="node">
<title>Node9</title>
<g id="a_node9"><a xlink:href="classdepz__camera__sdk_1_1inference_1_1cpp__adapter_1_1CppInferenceAdapter.html" target="_top" xlink:title=" ">
<polygon fill="white" stroke="black" points="435,-147.5 435,-177.5 608,-177.5 608,-147.5 435,-147.5"/>
<text text-anchor="start" x="443" y="-165.5" font-family="Helvetica,sans-Serif" font-size="10.00">depz_camera_sdk.inference.cpp</text>
<text text-anchor="middle" x="521.5" y="-154.5" font-family="Helvetica,sans-Serif" font-size="10.00">_adapter.CppInferenceAdapter</text>
</a>
</g>
</g>
<!-- Node1&#45;&gt;Node9 -->
<g id="edge8" class="edge">
<title>Node1&#45;&gt;Node9</title>
<path fill="none" stroke="midnightblue" d="M383.16,-148.04C400.32,-149.85 418.01,-151.71 434.75,-153.47"/>
<polygon fill="midnightblue" stroke="midnightblue" points="383.44,-144.55 373.13,-146.99 382.71,-151.51 383.44,-144.55"/>
</g>
<!-- Node10 -->
<g id="node10" class="node">
<title>Node10</title>
<g id="a_node10"><a xlink:href="classdepz__camera__sdk_1_1inference_1_1native__classical_1_1NativeClassicalInferenceBase.html" target="_top" xlink:title=" ">
<polygon fill="white" stroke="black" points="415.5,-98.5 415.5,-128.5 627.5,-128.5 627.5,-98.5 415.5,-98.5"/>
<text text-anchor="start" x="423.5" y="-116.5" font-family="Helvetica,sans-Serif" font-size="10.00">depz_camera_sdk.inference.native</text>
<text text-anchor="middle" x="521.5" y="-105.5" font-family="Helvetica,sans-Serif" font-size="10.00">_classical.NativeClassicalInferenceBase</text>
</a>
</g>
</g>
<!-- Node1&#45;&gt;Node10 -->
<g id="edge9" class="edge">
<title>Node1&#45;&gt;Node10</title>
<path fill="none" stroke="midnightblue" d="M383.22,-127.37C393.83,-126.3 404.64,-125.21 415.3,-124.13"/>
<polygon fill="midnightblue" stroke="midnightblue" points="382.72,-123.9 373.13,-128.39 383.43,-130.87 382.72,-123.9"/>
</g>
<!-- Node11 -->
<g id="node11" class="node">
<title>Node11</title>
<g id="a_node11"><a xlink:href="classdepz__camera__sdk_1_1inference_1_1native__classical_1_1NativeRectifyOnlyInferenceBase.html" target="_top" xlink:title=" ">
<polygon fill="white" stroke="black" points="409,-49.5 409,-79.5 634,-79.5 634,-49.5 409,-49.5"/>
<text text-anchor="start" x="417" y="-67.5" font-family="Helvetica,sans-Serif" font-size="10.00">depz_camera_sdk.inference.native</text>
<text text-anchor="middle" x="521.5" y="-56.5" font-family="Helvetica,sans-Serif" font-size="10.00">_classical.NativeRectifyOnlyInferenceBase</text>
</a>
</g>
</g>
<!-- Node1&#45;&gt;Node11 -->
<g id="edge10" class="edge">
<title>Node1&#45;&gt;Node11</title>
<path fill="none" stroke="midnightblue" d="M326.76,-118.5C350.73,-108.61 381.14,-96.86 409,-88.5 419.91,-85.23 431.54,-82.22 443.02,-79.51"/>
<polygon fill="midnightblue" stroke="midnightblue" points="325.13,-115.39 317.25,-122.48 327.82,-121.85 325.13,-115.39"/>
</g>
<!-- Node12 -->
<g id="node12" class="node">
<title>Node12</title>
<g id="a_node12"><a xlink:href="classdepz__camera__sdk_1_1inference_1_1native__runtime_1_1__NativeNeuralRuntimeBase.html" target="_top" xlink:title=" ">
<polygon fill="white" stroke="black" points="670,-245.5 670,-275.5 868,-275.5 868,-245.5 670,-245.5"/>
<text text-anchor="start" x="678" y="-263.5" font-family="Helvetica,sans-Serif" font-size="10.00">depz_camera_sdk.inference.native</text>
<text text-anchor="middle" x="769" y="-252.5" font-family="Helvetica,sans-Serif" font-size="10.00">_runtime._NativeNeuralRuntimeBase</text>
</a>
</g>
</g>
<!-- Node1&#45;&gt;Node12 -->
<g id="edge11" class="edge">
<title>Node1&#45;&gt;Node12</title>
<path fill="none" stroke="midnightblue" d="M303.88,-160.29C327.01,-183.82 366.68,-219.31 409,-235.5 492.89,-267.58 595.76,-271.52 669.85,-268.8"/>
<polygon fill="midnightblue" stroke="midnightblue" points="306.14,-157.6 296.69,-152.82 301.1,-162.45 306.14,-157.6"/>
</g>
<!-- Node13 -->
<g id="node13" class="node">
<title>Node13</title>
<g id="a_node13"><a xlink:href="classdepz__camera__sdk_1_1inference_1_1neural__compat_1_1__NeuralCompatBase.html" target="_top" xlink:title=" ">
<polygon fill="white" stroke="black" points="428,-0.5 428,-30.5 615,-30.5 615,-0.5 428,-0.5"/>
<text text-anchor="start" x="436" y="-18.5" font-family="Helvetica,sans-Serif" font-size="10.00">depz_camera_sdk.inference.neural</text>
<text text-anchor="middle" x="521.5" y="-7.5" font-family="Helvetica,sans-Serif" font-size="10.00">_compat._NeuralCompatBase</text>
</a>
</g>
</g>
<!-- Node1&#45;&gt;Node13 -->
<g id="edge14" class="edge">
<title>Node1&#45;&gt;Node13</title>
<path fill="none" stroke="midnightblue" d="M305.16,-115.12C328.8,-92.56 368.39,-58.45 409,-39.5 416.36,-36.07 424.22,-33.12 432.23,-30.59"/>
<polygon fill="midnightblue" stroke="midnightblue" points="302.51,-112.82 297.77,-122.29 307.38,-117.84 302.51,-112.82"/>
</g>
<!-- Node2 -->
<g id="node2" class="node">
<title>Node2</title>
<g id="a_node2"><a xlink:title=" ">
<polygon fill="white" stroke="#bfbfbf" points="59,-150 59,-169 96,-169 96,-150 59,-150"/>
<text text-anchor="middle" x="77.5" y="-157" font-family="Helvetica,sans-Serif" font-size="10.00">ABC</text>
</a>
</g>
</g>
<!-- Node2&#45;&gt;Node1 -->
<g id="edge1" class="edge">
<title>Node2&#45;&gt;Node1</title>
<path fill="none" stroke="midnightblue" d="M106.34,-156.48C128.31,-154.09 160.24,-150.62 190.81,-147.3"/>
<polygon fill="midnightblue" stroke="midnightblue" points="105.68,-153.03 96.12,-157.59 106.44,-159.99 105.68,-153.03"/>
</g>
<!-- Node3 -->
<g id="node3" class="node">
<title>Node3</title>
<g id="a_node3"><a xlink:href="classdepz__camera__sdk_1_1__controls_1_1ControlOwner.html" target="_top" xlink:title=" ">
<polygon fill="white" stroke="black" points="0,-100.5 0,-130.5 155,-130.5 155,-100.5 0,-100.5"/>
<text text-anchor="start" x="8" y="-118.5" font-family="Helvetica,sans-Serif" font-size="10.00">depz_camera_sdk._controls.</text>
<text text-anchor="middle" x="77.5" y="-107.5" font-family="Helvetica,sans-Serif" font-size="10.00">ControlOwner</text>
</a>
</g>
</g>
<!-- Node3&#45;&gt;Node1 -->
<g id="edge2" class="edge">
<title>Node3&#45;&gt;Node1</title>
<path fill="none" stroke="midnightblue" d="M165.26,-124.93C173.69,-125.84 182.26,-126.77 190.72,-127.69"/>
<polygon fill="midnightblue" stroke="midnightblue" points="165.38,-121.42 155.06,-123.82 164.62,-128.38 165.38,-121.42"/>
</g>
<!-- Node5 -->
<g id="node5" class="node">
<title>Node5</title>
<g id="a_node5"><a xlink:href="classdepz__camera__sdk_1_1inference_1_1base_1_1NeuralMonoInferenceBase.html" target="_top" xlink:title=" ">
<polygon fill="white" stroke="black" points="678,-147.5 678,-177.5 860,-177.5 860,-147.5 678,-147.5"/>
<text text-anchor="start" x="686" y="-165.5" font-family="Helvetica,sans-Serif" font-size="10.00">depz_camera_sdk.inference.base.</text>
<text text-anchor="middle" x="769" y="-154.5" font-family="Helvetica,sans-Serif" font-size="10.00">NeuralMonoInferenceBase</text>
</a>
</g>
</g>
<!-- Node4&#45;&gt;Node5 -->
<g id="edge4" class="edge">
<title>Node4&#45;&gt;Node5</title>
<path fill="none" stroke="midnightblue" d="M607.87,-194.46C635.52,-188.94 665.96,-182.87 692.82,-177.51"/>
<polygon fill="midnightblue" stroke="midnightblue" points="606.95,-191.08 597.83,-196.47 608.32,-197.94 606.95,-191.08"/>
</g>
<!-- Node7 -->
<g id="node7" class="node">
<title>Node7</title>
<g id="a_node7"><a xlink:href="classdepz__camera__sdk_1_1inference_1_1base_1_1NeuralStereoInferenceBase.html" target="_top" xlink:title=" ">
<polygon fill="white" stroke="black" points="678,-196.5 678,-226.5 860,-226.5 860,-196.5 678,-196.5"/>
<text text-anchor="start" x="686" y="-214.5" font-family="Helvetica,sans-Serif" font-size="10.00">depz_camera_sdk.inference.base.</text>
<text text-anchor="middle" x="769" y="-203.5" font-family="Helvetica,sans-Serif" font-size="10.00">NeuralStereoInferenceBase</text>
</a>
</g>
</g>
<!-- Node4&#45;&gt;Node7 -->
<g id="edge6" class="edge">
<title>Node4&#45;&gt;Node7</title>
<path fill="none" stroke="midnightblue" d="M622.62,-211.5C640.95,-211.5 659.98,-211.5 677.99,-211.5"/>
<polygon fill="midnightblue" stroke="midnightblue" points="622.52,-208 612.52,-211.5 622.52,-215 622.52,-208"/>
</g>
<!-- Node6 -->
<g id="node6" class="node">
<title>Node6</title>
<g id="a_node6"><a xlink:href="classdepz__camera__sdk_1_1inference_1_1native__runtime_1_1NativeMonoInferenceRuntime.html" target="_top" xlink:title=" ">
<polygon fill="white" stroke="black" points="906.5,-171.5 906.5,-201.5 1115.5,-201.5 1115.5,-171.5 906.5,-171.5"/>
<text text-anchor="start" x="914.5" y="-189.5" font-family="Helvetica,sans-Serif" font-size="10.00">depz_camera_sdk.inference.native</text>
<text text-anchor="middle" x="1011" y="-178.5" font-family="Helvetica,sans-Serif" font-size="10.00">_runtime.NativeMonoInferenceRuntime</text>
</a>
</g>
</g>
<!-- Node5&#45;&gt;Node6 -->
<g id="edge5" class="edge">
<title>Node5&#45;&gt;Node6</title>
<path fill="none" stroke="midnightblue" d="M870.36,-172.54C882.18,-173.72 894.26,-174.93 906.12,-176.11"/>
<polygon fill="midnightblue" stroke="midnightblue" points="870.35,-169.02 860.05,-171.5 869.65,-175.98 870.35,-169.02"/>
</g>
<!-- Node8 -->
<g id="node8" class="node">
<title>Node8</title>
<g id="a_node8"><a xlink:href="classdepz__camera__sdk_1_1inference_1_1native__runtime_1_1NativeStereoInferenceRuntime.html" target="_top" xlink:title=" ">
<polygon fill="white" stroke="black" points="904,-232.5 904,-262.5 1118,-262.5 1118,-232.5 904,-232.5"/>
<text text-anchor="start" x="912" y="-250.5" font-family="Helvetica,sans-Serif" font-size="10.00">depz_camera_sdk.inference.native</text>
<text text-anchor="middle" x="1011" y="-239.5" font-family="Helvetica,sans-Serif" font-size="10.00">_runtime.NativeStereoInferenceRuntime</text>
</a>
</g>
</g>
<!-- Node7&#45;&gt;Node8 -->
<g id="edge7" class="edge">
<title>Node7&#45;&gt;Node8</title>
<path fill="none" stroke="midnightblue" d="M870.02,-226.5C883.17,-228.47 896.64,-230.5 909.78,-232.47"/>
<polygon fill="midnightblue" stroke="midnightblue" points="870.46,-223.03 860.05,-225.01 869.42,-229.95 870.46,-223.03"/>
</g>
<!-- Node12&#45;&gt;Node6 -->
<g id="edge12" class="edge">
<title>Node12&#45;&gt;Node6</title>
<path fill="none" stroke="midnightblue" d="M842.45,-242.86C851.09,-240.51 859.77,-238.03 868,-235.5 884.26,-230.5 887.95,-228.12 904,-222.5 923.99,-215.5 946.18,-207.93 965.06,-201.55"/>
<polygon fill="midnightblue" stroke="midnightblue" points="841.48,-239.5 832.73,-245.46 843.29,-246.26 841.48,-239.5"/>
</g>
<!-- Node12&#45;&gt;Node8 -->
<g id="edge13" class="edge">
<title>Node12&#45;&gt;Node8</title>
<path fill="none" stroke="midnightblue" d="M878.47,-254.62C886.84,-254.17 895.29,-253.71 903.65,-253.26"/>
<polygon fill="midnightblue" stroke="midnightblue" points="878.11,-251.14 868.31,-255.17 878.48,-258.13 878.11,-251.14"/>
</g>
</g>
</svg>
