<?xml version="1.0" encoding="UTF-8" standalone="no"?>
<!DOCTYPE svg PUBLIC "-//W3C//DTD SVG 1.1//EN"
 "http://www.w3.org/Graphics/SVG/1.1/DTD/svg11.dtd">
<!-- Generated by graphviz version 2.43.0 (0)
 -->
<!-- Title: depz_camera_sdk.calibration.base.Calibration Pages: 1 -->
<svg width="853pt" height="88pt"
 viewBox="0.00 0.00 853.00 88.00" xmlns="http://www.w3.org/2000/svg" xmlns:xlink="http://www.w3.org/1999/xlink">
<g id="graph0" class="graph" transform="scale(1 1) rotate(0) translate(4 84)">
<title>depz_camera_sdk.calibration.base.Calibration</title>
<polygon fill="white" stroke="transparent" points="-4,4 -4,-84 849,-84 849,4 -4,4"/>
<!-- Node1 -->
<g id="node1" class="node">
<title>Node1</title>
<g id="a_node1"><a xlink:title=" ">
<polygon fill="#bfbfbf" stroke="black" points="191,-24.5 191,-54.5 379,-54.5 379,-24.5 191,-24.5"/>
<text text-anchor="start" x="199" y="-42.5" font-family="Helvetica,sans-Serif" font-size="10.00">depz_camera_sdk.calibration.base.</text>
<text text-anchor="middle" x="285" y="-31.5" font-family="Helvetica,sans-Serif" font-size="10.00">Calibration</text>
</a>
</g>
</g>
<!-- Node4 -->
<g id="node4" class="node">
<title>Node4</title>
<g id="a_node4"><a xlink:href="classdepz__camera__sdk_1_1calibration_1_1opencv__basic_1_1OpenCVBasicCalibration.html" target="_top" xlink:title=" ">
<polygon fill="white" stroke="black" points="415,-49.5 415,-79.5 612,-79.5 612,-49.5 415,-49.5"/>
<text text-anchor="start" x="423" y="-67.5" font-family="Helvetica,sans-Serif" font-size="10.00">depz_camera_sdk.calibration.opencv</text>
<text text-anchor="middle" x="513.5" y="-56.5" font-family="Helvetica,sans-Serif" font-size="10.00">_basic.OpenCVBasicCalibration</text>
</a>
</g>
</g>
<!-- Node1&#45;&gt;Node4 -->
<g id="edge3" class="edge">
<title>Node1&#45;&gt;Node4</title>
<path fill="none" stroke="midnightblue" d="M389.15,-50.89C397.75,-51.83 406.43,-52.79 414.98,-53.74"/>
<polygon fill="midnightblue" stroke="midnightblue" points="389.43,-47.39 379.11,-49.78 388.66,-54.35 389.43,-47.39"/>
</g>
<!-- Node6 -->
<g id="node6" class="node">
<title>Node6</title>
<g id="a_node6"><a xlink:href="classdepz__camera__sdk_1_1calibration_1_1opencv__fisheye_1_1OpenCVFisheyeCalibration.html" target="_top" xlink:title=" ">
<polygon fill="white" stroke="black" points="415,-0.5 415,-30.5 612,-30.5 612,-0.5 415,-0.5"/>
<text text-anchor="start" x="423" y="-18.5" font-family="Helvetica,sans-Serif" font-size="10.00">depz_camera_sdk.calibration.opencv</text>
<text text-anchor="middle" x="513.5" y="-7.5" font-family="Helvetica,sans-Serif" font-size="10.00">_fisheye.OpenCVFisheyeCalibration</text>
</a>
</g>
</g>
<!-- Node1&#45;&gt;Node6 -->
<g id="edge5" class="edge">
<title>Node1&#45;&gt;Node6</title>
<path fill="none" stroke="midnightblue" d="M389.15,-28.57C397.75,-27.66 406.43,-26.74 414.98,-25.83"/>
<polygon fill="midnightblue" stroke="midnightblue" points="388.68,-25.1 379.11,-29.63 389.42,-32.06 388.68,-25.1"/>
</g>
<!-- Node2 -->
<g id="node2" class="node">
<title>Node2</title>
<g id="a_node2"><a xlink:title=" ">
<polygon fill="white" stroke="#bfbfbf" points="59,-52 59,-71 96,-71 96,-52 59,-52"/>
<text text-anchor="middle" x="77.5" y="-59" font-family="Helvetica,sans-Serif" font-size="10.00">ABC</text>
</a>
</g>
</g>
<!-- Node2&#45;&gt;Node1 -->
<g id="edge1" class="edge">
<title>Node2&#45;&gt;Node1</title>
<path fill="none" stroke="midnightblue" d="M106.2,-58.53C128.07,-56.19 159.93,-52.78 190.66,-49.49"/>
<polygon fill="midnightblue" stroke="midnightblue" points="105.59,-55.08 96.02,-59.62 106.34,-62.04 105.59,-55.08"/>
</g>
<!-- Node3 -->
<g id="node3" class="node">
<title>Node3</title>
<g id="a_node3"><a xlink:href="classdepz__camera__sdk_1_1__controls_1_1ControlOwner.html" target="_top" xlink:title=" ">
<polygon fill="white" stroke="black" points="0,-2.5 0,-32.5 155,-32.5 155,-2.5 0,-2.5"/>
<text text-anchor="start" x="8" y="-20.5" font-family="Helvetica,sans-Serif" font-size="10.00">depz_camera_sdk._controls.</text>
<text text-anchor="middle" x="77.5" y="-9.5" font-family="Helvetica,sans-Serif" font-size="10.00">ControlOwner</text>
</a>
</g>
</g>
<!-- Node3&#45;&gt;Node1 -->
<g id="edge2" class="edge">
<title>Node3&#45;&gt;Node1</title>
<path fill="none" stroke="midnightblue" d="M165.22,-26.78C173.65,-27.69 182.24,-28.61 190.73,-29.51"/>
<polygon fill="midnightblue" stroke="midnightblue" points="165.34,-23.28 155.02,-25.69 164.59,-30.24 165.34,-23.28"/>
</g>
<!-- Node5 -->
<g id="node5" class="node">
<title>Node5</title>
<g id="a_node5"><a xlink:href="classdepz__camera__sdk_1_1calibration_1_1opencv__basic_1_1OpenCV5Calibration.html" target="_top" xlink:title=" ">
<polygon fill="white" stroke="black" points="648,-49.5 648,-79.5 845,-79.5 845,-49.5 648,-49.5"/>
<text text-anchor="start" x="656" y="-67.5" font-family="Helvetica,sans-Serif" font-size="10.00">depz_camera_sdk.calibration.opencv</text>
<text text-anchor="middle" x="746.5" y="-56.5" font-family="Helvetica,sans-Serif" font-size="10.00">_basic.OpenCV5Calibration</text>
</a>
</g>
</g>
<!-- Node4&#45;&gt;Node5 -->
<g id="edge4" class="edge">
<title>Node4&#45;&gt;Node5</title>
<path fill="none" stroke="midnightblue" d="M622.15,-64.5C630.72,-64.5 639.35,-64.5 647.85,-64.5"/>
<polygon fill="midnightblue" stroke="midnightblue" points="622.13,-61 612.13,-64.5 622.13,-68 622.13,-61"/>
</g>
</g>
</svg>
