<?xml version="1.0" encoding="UTF-8" standalone="no"?>
<!DOCTYPE svg PUBLIC "-//W3C//DTD SVG 1.1//EN"
 "http://www.w3.org/Graphics/SVG/1.1/DTD/svg11.dtd">
<!-- Generated by graphviz version 2.43.0 (0)
 -->
<!-- Title: include/depz/utils/cv_image_wrapper.hpp Pages: 1 -->
<svg width="304pt" height="162pt"
 viewBox="0.00 0.00 303.50 162.00" xmlns="http://www.w3.org/2000/svg" xmlns:xlink="http://www.w3.org/1999/xlink">
<g id="graph0" class="graph" transform="scale(1 1) rotate(0) translate(4 158)">
<title>include/depz/utils/cv_image_wrapper.hpp</title>
<polygon fill="white" stroke="transparent" points="-4,4 -4,-158 299.5,-158 299.5,4 -4,4"/>
<!-- Node1 -->
<g id="node1" class="node">
<title>Node1</title>
<g id="a_node1"><a xlink:title=" ">
<polygon fill="#bfbfbf" stroke="black" points="106.5,-123.5 106.5,-153.5 238.5,-153.5 238.5,-123.5 106.5,-123.5"/>
<text text-anchor="start" x="114.5" y="-141.5" font-family="Helvetica,sans-Serif" font-size="10.00">include/depz/utils</text>
<text text-anchor="middle" x="172.5" y="-130.5" font-family="Helvetica,sans-Serif" font-size="10.00">/cv_image_wrapper.hpp</text>
</a>
</g>
</g>
<!-- Node2 -->
<g id="node2" class="node">
<title>Node2</title>
<g id="a_node2"><a xlink:href="pipeline__image_8hpp.html" target="_top" xlink:title=" ">
<polygon fill="white" stroke="black" points="55.5,-56.5 55.5,-86.5 161.5,-86.5 161.5,-56.5 55.5,-56.5"/>
<text text-anchor="start" x="63.5" y="-74.5" font-family="Helvetica,sans-Serif" font-size="10.00">depz/utils/pipeline</text>
<text text-anchor="middle" x="108.5" y="-63.5" font-family="Helvetica,sans-Serif" font-size="10.00">_image.hpp</text>
</a>
</g>
</g>
<!-- Node1&#45;&gt;Node2 -->
<g id="edge1" class="edge">
<title>Node1&#45;&gt;Node2</title>
<path fill="none" stroke="midnightblue" d="M158.61,-123.4C150.14,-114.79 139.15,-103.63 129.61,-93.94"/>
<polygon fill="midnightblue" stroke="midnightblue" points="131.87,-91.25 122.36,-86.58 126.88,-96.16 131.87,-91.25"/>
</g>
<!-- Node5 -->
<g id="node5" class="node">
<title>Node5</title>
<g id="a_node5"><a xlink:title=" ">
<polygon fill="white" stroke="#bfbfbf" points="179.5,-62 179.5,-81 295.5,-81 295.5,-62 179.5,-62"/>
<text text-anchor="middle" x="237.5" y="-69" font-family="Helvetica,sans-Serif" font-size="10.00">opencv2/opencv.hpp</text>
</a>
</g>
</g>
<!-- Node1&#45;&gt;Node5 -->
<g id="edge4" class="edge">
<title>Node1&#45;&gt;Node5</title>
<path fill="none" stroke="midnightblue" d="M186.6,-123.4C196.94,-113.06 210.98,-99.02 221.69,-88.31"/>
<polygon fill="midnightblue" stroke="midnightblue" points="224.21,-90.74 228.81,-81.19 219.26,-85.79 224.21,-90.74"/>
</g>
<!-- Node3 -->
<g id="node3" class="node">
<title>Node3</title>
<g id="a_node3"><a xlink:href="utils_2types_8hpp.html" target="_top" xlink:title=" ">
<polygon fill="white" stroke="black" points="0,-0.5 0,-19.5 115,-19.5 115,-0.5 0,-0.5"/>
<text text-anchor="middle" x="57.5" y="-7.5" font-family="Helvetica,sans-Serif" font-size="10.00">depz/utils/types.hpp</text>
</a>
</g>
</g>
<!-- Node2&#45;&gt;Node3 -->
<g id="edge2" class="edge">
<title>Node2&#45;&gt;Node3</title>
<path fill="none" stroke="midnightblue" d="M96.41,-56.4C88.93,-47.66 79.28,-36.41 71.47,-27.3"/>
<polygon fill="midnightblue" stroke="midnightblue" points="74.09,-24.97 64.92,-19.66 68.77,-29.53 74.09,-24.97"/>
</g>
<!-- Node4 -->
<g id="node4" class="node">
<title>Node4</title>
<g id="a_node4"><a xlink:title=" ">
<polygon fill="white" stroke="#bfbfbf" points="133,-0.5 133,-19.5 186,-19.5 186,-0.5 133,-0.5"/>
<text text-anchor="middle" x="159.5" y="-7.5" font-family="Helvetica,sans-Serif" font-size="10.00">stdint.h</text>
</a>
</g>
</g>
<!-- Node2&#45;&gt;Node4 -->
<g id="edge3" class="edge">
<title>Node2&#45;&gt;Node4</title>
<path fill="none" stroke="midnightblue" d="M120.59,-56.4C128.07,-47.66 137.72,-36.41 145.53,-27.3"/>
<polygon fill="midnightblue" stroke="midnightblue" points="148.23,-29.53 152.08,-19.66 142.91,-24.97 148.23,-29.53"/>
</g>
</g>
</svg>
