<?xml version="1.0" encoding="UTF-8" standalone="no"?>
<!DOCTYPE svg PUBLIC "-//W3C//DTD SVG 1.1//EN"
 "http://www.w3.org/Graphics/SVG/1.1/DTD/svg11.dtd">
<!-- Generated by graphviz version 2.43.0 (0)
 -->
<!-- Title: include/depz/core/pipeline/depth_pipeline.h Pages: 1 -->
<!--zoomable 419 -->
<svg id="main" version="1.1" xmlns="http://www.w3.org/2000/svg" xmlns:xlink="http://www.w3.org/1999/xlink" xml:space="preserve" onload="init(evt)">
<style type="text/css"><![CDATA[
.edge:hover path { stroke: red; }
.edge:hover polygon { stroke: red; fill: red; }
]]></style>
<script type="text/javascript"><![CDATA[
var edges = document.getElementsByTagName('g');
if (edges && edges.length) {
  for (var i=0;i<edges.length;i++) {
    if (edges[i].id.substr(0,4)=='edge') {
      edges[i].setAttribute('class','edge');
    }
  }
}
]]></script>
        <defs>
                <circle id="rim" cx="0" cy="0" r="7"/>
                <circle id="rim2" cx="0" cy="0" r="3.5"/>
                <g id="zoomPlus">
                        <use xlink:href="#rim" fill="#404040">
                                <set attributeName="fill" to="#808080" begin="zoomplus.mouseover" end="zoomplus.mouseout"/>
                        </use>
                        <path d="M-4,0h8M0,-4v8" fill="none" stroke="white" stroke-width="1.5" pointer-events="none"/>
                </g>
                <g id="zoomMin">
                        <use xlink:href="#rim" fill="#404040">
                                <set attributeName="fill" to="#808080" begin="zoomminus.mouseover" end="zoomminus.mouseout"/>
                        </use>
                        <path d="M-4,0h8" fill="none" stroke="white" stroke-width="1.5" pointer-events="none"/>
                </g>
                <g id="dirArrow">
                        <path fill="none" stroke="white" stroke-width="1.5" d="M0,-3.0v7 M-2.5,-0.5L0,-3.0L2.5,-0.5"/>
                </g>
               <g id="resetDef">
                       <use xlink:href="#rim2" fill="#404040">
                               <set attributeName="fill" to="#808080" begin="reset.mouseover" end="reset.mouseout"/>
                       </use>
               </g>
        </defs>

<script type="text/javascript">
var viewWidth = 1463;
var viewHeight = 419;
var sectionId = 'dynsection-0';
</script>
<script xlink:href="svgpan.js"/>
<svg id="graph" class="graph">
<g id="viewport">
<title>include/depz/core/pipeline/depth_pipeline.h</title>
<polygon fill="white" stroke="transparent" points="-4,4 -4,-415 1459.08,-415 1459.08,4 -4,4"/>
<!-- Node1 -->
<g id="node1" class="node">
<title>Node1</title>
<g id="a_node1"><a xlink:title=" ">
<polygon fill="#bfbfbf" stroke="black" points="685.08,-380.5 685.08,-410.5 829.08,-410.5 829.08,-380.5 685.08,-380.5"/>
<text text-anchor="start" x="693.08" y="-398.5" font-family="Helvetica,sans-Serif" font-size="10.00">include/depz/core/pipeline</text>
<text text-anchor="middle" x="757.08" y="-387.5" font-family="Helvetica,sans-Serif" font-size="10.00">/depth_pipeline.h</text>
</a>
</g>
</g>
<!-- Node2 -->
<g id="node2" class="node">
<title>Node2</title>
<g id="a_node2"><a xlink:href="frame__packet_8h.html" target="_top" xlink:title=" ">
<polygon fill="white" stroke="black" points="634.08,-179.5 634.08,-209.5 740.08,-209.5 740.08,-179.5 634.08,-179.5"/>
<text text-anchor="start" x="642.08" y="-197.5" font-family="Helvetica,sans-Serif" font-size="10.00">depz/core/pipeline</text>
<text text-anchor="middle" x="687.08" y="-186.5" font-family="Helvetica,sans-Serif" font-size="10.00">/frame_packet.h</text>
</a>
</g>
</g>
<!-- Node1&#45;&gt;Node2 -->
<g id="edge1" class="edge">
<title>Node1&#45;&gt;Node2</title>
<path fill="none" stroke="midnightblue" d="M752.05,-380.19C740.14,-346.34 710.15,-261.08 695.45,-219.31"/>
<polygon fill="midnightblue" stroke="midnightblue" points="698.69,-217.95 692.07,-209.68 692.09,-220.28 698.69,-217.95"/>
</g>
<!-- Node6 -->
<g id="node6" class="node">
<title>Node6</title>
<g id="a_node6"><a xlink:href="filter__chain_8h.html" target="_top" xlink:title=" ">
<polygon fill="white" stroke="black" points="756.08,-313.5 756.08,-343.5 862.08,-343.5 862.08,-313.5 756.08,-313.5"/>
<text text-anchor="start" x="764.08" y="-331.5" font-family="Helvetica,sans-Serif" font-size="10.00">depz/core/pipeline</text>
<text text-anchor="middle" x="809.08" y="-320.5" font-family="Helvetica,sans-Serif" font-size="10.00">/filter_chain.h</text>
</a>
</g>
</g>
<!-- Node1&#45;&gt;Node6 -->
<g id="edge5" class="edge">
<title>Node1&#45;&gt;Node6</title>
<path fill="none" stroke="midnightblue" d="M768.36,-380.4C775.11,-371.96 783.83,-361.07 791.46,-351.52"/>
<polygon fill="midnightblue" stroke="midnightblue" points="794.31,-353.57 797.82,-343.58 788.84,-349.2 794.31,-353.57"/>
</g>
<!-- Node7 -->
<g id="node7" class="node">
<title>Node7</title>
<g id="a_node7"><a xlink:title=" ">
<polygon fill="white" stroke="#bfbfbf" points="796.08,-185 796.08,-204 844.08,-204 844.08,-185 796.08,-185"/>
<text text-anchor="middle" x="820.08" y="-192" font-family="Helvetica,sans-Serif" font-size="10.00">mutex</text>
</a>
</g>
</g>
<!-- Node1&#45;&gt;Node7 -->
<g id="edge52" class="edge">
<title>Node1&#45;&gt;Node7</title>
<path fill="none" stroke="midnightblue" d="M753.53,-380.46C751.18,-370.39 748.3,-356.45 747.08,-344 742.77,-300 741.25,-283.85 764.08,-246 772.68,-231.75 786.55,-219.2 798.33,-210.17"/>
<polygon fill="midnightblue" stroke="midnightblue" points="800.43,-212.97 806.44,-204.25 796.3,-207.32 800.43,-212.97"/>
</g>
<!-- Node9 -->
<g id="node9" class="node">
<title>Node9</title>
<g id="a_node9"><a xlink:title=" ">
<polygon fill="white" stroke="#bfbfbf" points="188.58,-0.5 188.58,-19.5 235.58,-19.5 235.58,-0.5 188.58,-0.5"/>
<text text-anchor="middle" x="212.08" y="-7.5" font-family="Helvetica,sans-Serif" font-size="10.00">vector</text>
</a>
</g>
</g>
<!-- Node1&#45;&gt;Node9 -->
<g id="edge55" class="edge">
<title>Node1&#45;&gt;Node9</title>
<path fill="none" stroke="midnightblue" d="M684.93,-389.45C495.97,-375.25 1.08,-331.49 1.08,-262.5 1.08,-262.5 1.08,-262.5 1.08,-126.5 1.08,-94.05 -3.24,-78.56 20.08,-56 42.37,-34.43 129.3,-20.85 178.2,-14.76"/>
<polygon fill="midnightblue" stroke="midnightblue" points="178.8,-18.21 188.31,-13.54 177.96,-11.26 178.8,-18.21"/>
</g>
<!-- Node13 -->
<g id="node13" class="node">
<title>Node13</title>
<g id="a_node13"><a xlink:title=" ">
<polygon fill="white" stroke="#bfbfbf" points="594.08,-118 594.08,-137 652.08,-137 652.08,-118 594.08,-118"/>
<text text-anchor="middle" x="623.08" y="-125" font-family="Helvetica,sans-Serif" font-size="10.00">memory</text>
</a>
</g>
</g>
<!-- Node1&#45;&gt;Node13 -->
<g id="edge51" class="edge">
<title>Node1&#45;&gt;Node13</title>
<path fill="none" stroke="midnightblue" d="M742.32,-380.47C713.28,-351.76 649.44,-282.83 625.08,-210 618.22,-189.5 618.84,-164.45 620.45,-147.57"/>
<polygon fill="midnightblue" stroke="midnightblue" points="623.96,-147.69 621.64,-137.35 617,-146.88 623.96,-147.69"/>
</g>
<!-- Node14 -->
<g id="node14" class="node">
<title>Node14</title>
<g id="a_node14"><a xlink:title=" ">
<polygon fill="white" stroke="#bfbfbf" points="996.08,-185 996.08,-204 1046.08,-204 1046.08,-185 996.08,-185"/>
<text text-anchor="middle" x="1021.08" y="-192" font-family="Helvetica,sans-Serif" font-size="10.00">atomic</text>
</a>
</g>
</g>
<!-- Node1&#45;&gt;Node14 -->
<g id="edge48" class="edge">
<title>Node1&#45;&gt;Node14</title>
<path fill="none" stroke="midnightblue" d="M829.25,-388.5C900.15,-378.32 1004.78,-350.9 1055.08,-277 1069.17,-256.31 1051.45,-228.85 1036.77,-211.68"/>
<polygon fill="midnightblue" stroke="midnightblue" points="1039.27,-209.22 1029.96,-204.16 1034.08,-213.92 1039.27,-209.22"/>
</g>
<!-- Node15 -->
<g id="node15" class="node">
<title>Node15</title>
<g id="a_node15"><a xlink:href="idepth__calibration_8h.html" target="_top" xlink:title="Calibration interface the DepthPipeline worker loop depends on.">
<polygon fill="white" stroke="black" points="380.08,-313.5 380.08,-343.5 496.08,-343.5 496.08,-313.5 380.08,-313.5"/>
<text text-anchor="start" x="388.08" y="-331.5" font-family="Helvetica,sans-Serif" font-size="10.00">depz/core/pipeline</text>
<text text-anchor="middle" x="438.08" y="-320.5" font-family="Helvetica,sans-Serif" font-size="10.00">/idepth_calibration.h</text>
</a>
</g>
</g>
<!-- Node1&#45;&gt;Node15 -->
<g id="edge18" class="edge">
<title>Node1&#45;&gt;Node15</title>
<path fill="none" stroke="midnightblue" d="M688.26,-380.48C634.4,-369.5 559.89,-354.32 506.21,-343.38"/>
<polygon fill="midnightblue" stroke="midnightblue" points="506.6,-339.89 496.1,-341.32 505.2,-346.75 506.6,-339.89"/>
</g>
<!-- Node16 -->
<g id="node16" class="node">
<title>Node16</title>
<g id="a_node16"><a xlink:href="ineural__inference_8h.html" target="_top" xlink:title="Architecture&#45;agnostic orchestration interface for neural depth networks.">
<polygon fill="white" stroke="black" points="284.58,-179.5 284.58,-209.5 397.58,-209.5 397.58,-179.5 284.58,-179.5"/>
<text text-anchor="start" x="292.58" y="-197.5" font-family="Helvetica,sans-Serif" font-size="10.00">depz/core/inference</text>
<text text-anchor="middle" x="341.08" y="-186.5" font-family="Helvetica,sans-Serif" font-size="10.00">/ineural_inference.h</text>
</a>
</g>
</g>
<!-- Node1&#45;&gt;Node16 -->
<g id="edge47" class="edge">
<title>Node1&#45;&gt;Node16</title>
<path fill="none" stroke="midnightblue" d="M684.91,-394.74C585.93,-393.49 415.25,-385.21 371.08,-344 337.04,-312.24 335.73,-253.41 338.16,-220.13"/>
<polygon fill="midnightblue" stroke="midnightblue" points="341.67,-220.17 339.09,-209.89 334.7,-219.54 341.67,-220.17"/>
</g>
<!-- Node21 -->
<g id="node19" class="node">
<title>Node21</title>
<g id="a_node19"><a xlink:title=" ">
<polygon fill="white" stroke="#bfbfbf" points="800.08,-0.5 800.08,-19.5 844.08,-19.5 844.08,-0.5 800.08,-0.5"/>
<text text-anchor="middle" x="822.08" y="-7.5" font-family="Helvetica,sans-Serif" font-size="10.00">string</text>
</a>
</g>
</g>
<!-- Node1&#45;&gt;Node21 -->
<g id="edge53" class="edge">
<title>Node1&#45;&gt;Node21</title>
<path fill="none" stroke="midnightblue" d="M829.22,-387.42C951.92,-373.35 1188.08,-336.65 1188.08,-262.5 1188.08,-262.5 1188.08,-262.5 1188.08,-126.5 1188.08,-86.48 1166.77,-75.95 1132.08,-56 1085.2,-29.05 924.09,-16.81 854.51,-12.7"/>
<polygon fill="midnightblue" stroke="midnightblue" points="854.34,-9.18 844.16,-12.1 853.94,-16.17 854.34,-9.18"/>
</g>
<!-- Node27 -->
<g id="node23" class="node">
<title>Node27</title>
<g id="a_node23"><a xlink:href="frame__processor_8h.html" target="_top" xlink:title="Single&#45;call per&#45;frame postprocess chain (disparity→depth→cloud).">
<polygon fill="white" stroke="black" points="454.08,-246.5 454.08,-276.5 564.08,-276.5 564.08,-246.5 454.08,-246.5"/>
<text text-anchor="start" x="462.08" y="-264.5" font-family="Helvetica,sans-Serif" font-size="10.00">depz/core/pipeline</text>
<text text-anchor="middle" x="509.08" y="-253.5" font-family="Helvetica,sans-Serif" font-size="10.00">/frame_processor.h</text>
</a>
</g>
</g>
<!-- Node1&#45;&gt;Node27 -->
<g id="edge41" class="edge">
<title>Node1&#45;&gt;Node27</title>
<path fill="none" stroke="midnightblue" d="M685.05,-384.27C650.66,-376.95 610.12,-364.61 578.08,-344 554.63,-328.92 534.92,-303.43 522.65,-284.97"/>
<polygon fill="midnightblue" stroke="midnightblue" points="525.59,-283.06 517.24,-276.54 519.7,-286.85 525.59,-283.06"/>
</g>
<!-- Node28 -->
<g id="node24" class="node">
<title>Node28</title>
<g id="a_node24"><a xlink:href="iframe__source_8h.html" target="_top" xlink:title="Abstract interface for raw frame sources feeding the DepthPipeline.">
<polygon fill="white" stroke="black" points="1020.08,-112.5 1020.08,-142.5 1160.08,-142.5 1160.08,-112.5 1020.08,-112.5"/>
<text text-anchor="start" x="1028.08" y="-130.5" font-family="Helvetica,sans-Serif" font-size="10.00">depz/core/sources/iframe</text>
<text text-anchor="middle" x="1090.08" y="-119.5" font-family="Helvetica,sans-Serif" font-size="10.00">_source.h</text>
</a>
</g>
</g>
<!-- Node1&#45;&gt;Node28 -->
<g id="edge42" class="edge">
<title>Node1&#45;&gt;Node28</title>
<path fill="none" stroke="midnightblue" d="M829.21,-392.29C882.52,-387.88 955.23,-375.85 1011.08,-344 1045.8,-324.2 1054.46,-313.35 1071.08,-277 1089.66,-236.37 1091.85,-183.35 1091.29,-152.9"/>
<polygon fill="midnightblue" stroke="midnightblue" points="1094.79,-152.65 1090.98,-142.77 1087.79,-152.87 1094.79,-152.65"/>
</g>
<!-- Node30 -->
<g id="node26" class="node">
<title>Node30</title>
<g id="a_node26"><a xlink:title=" ">
<polygon fill="white" stroke="#bfbfbf" points="1216.58,-319 1216.58,-338 1323.58,-338 1323.58,-319 1216.58,-319"/>
<text text-anchor="middle" x="1270.08" y="-326" font-family="Helvetica,sans-Serif" font-size="10.00">condition_variable</text>
</a>
</g>
</g>
<!-- Node1&#45;&gt;Node30 -->
<g id="edge49" class="edge">
<title>Node1&#45;&gt;Node30</title>
<path fill="none" stroke="midnightblue" d="M829.44,-388.46C917.74,-380.6 1071.43,-365.29 1202.08,-344 1208.88,-342.89 1216.04,-341.56 1223.04,-340.15"/>
<polygon fill="midnightblue" stroke="midnightblue" points="1224.06,-343.51 1233.15,-338.06 1222.65,-336.66 1224.06,-343.51"/>
</g>
<!-- Node31 -->
<g id="node27" class="node">
<title>Node31</title>
<g id="a_node27"><a xlink:title=" ">
<polygon fill="white" stroke="#bfbfbf" points="1341.58,-319 1341.58,-338 1388.58,-338 1388.58,-319 1341.58,-319"/>
<text text-anchor="middle" x="1365.08" y="-326" font-family="Helvetica,sans-Serif" font-size="10.00">deque</text>
</a>
</g>
</g>
<!-- Node1&#45;&gt;Node31 -->
<g id="edge50" class="edge">
<title>Node1&#45;&gt;Node31</title>
<path fill="none" stroke="midnightblue" d="M829.08,-391.22C961.75,-384.67 1239.74,-368.48 1333.08,-344 1335.24,-343.43 1337.43,-342.73 1339.61,-341.95"/>
<polygon fill="midnightblue" stroke="midnightblue" points="1340.96,-345.18 1348.86,-338.13 1338.28,-338.71 1340.96,-345.18"/>
</g>
<!-- Node32 -->
<g id="node28" class="node">
<title>Node32</title>
<g id="a_node28"><a xlink:title=" ">
<polygon fill="white" stroke="#bfbfbf" points="1407.08,-319 1407.08,-338 1455.08,-338 1455.08,-319 1407.08,-319"/>
<text text-anchor="middle" x="1431.08" y="-326" font-family="Helvetica,sans-Serif" font-size="10.00">thread</text>
</a>
</g>
</g>
<!-- Node1&#45;&gt;Node32 -->
<g id="edge54" class="edge">
<title>Node1&#45;&gt;Node32</title>
<path fill="none" stroke="midnightblue" d="M829.28,-391.85C973.42,-386.07 1292.12,-370.64 1398.08,-344 1400.38,-343.42 1402.73,-342.69 1405.06,-341.88"/>
<polygon fill="midnightblue" stroke="midnightblue" points="1406.36,-345.12 1414.34,-338.15 1403.75,-338.63 1406.36,-345.12"/>
</g>
<!-- Node3 -->
<g id="node3" class="node">
<title>Node3</title>
<g id="a_node3"><a xlink:title=" ">
<polygon fill="white" stroke="#bfbfbf" points="472.58,-118 472.58,-137 575.58,-137 575.58,-118 472.58,-118"/>
<text text-anchor="middle" x="524.08" y="-125" font-family="Helvetica,sans-Serif" font-size="10.00">opencv2/core.hpp</text>
</a>
</g>
</g>
<!-- Node2&#45;&gt;Node3 -->
<g id="edge2" class="edge">
<title>Node2&#45;&gt;Node3</title>
<path fill="none" stroke="midnightblue" d="M651.71,-179.4C622.86,-167.89 582.5,-151.8 554.94,-140.81"/>
<polygon fill="midnightblue" stroke="midnightblue" points="556,-137.46 545.41,-137.01 553.41,-143.96 556,-137.46"/>
</g>
<!-- Node4 -->
<g id="node4" class="node">
<title>Node4</title>
<g id="a_node4"><a xlink:title=" ">
<polygon fill="white" stroke="#bfbfbf" points="942.08,-56.5 942.08,-75.5 992.08,-75.5 992.08,-56.5 942.08,-56.5"/>
<text text-anchor="middle" x="967.08" y="-63.5" font-family="Helvetica,sans-Serif" font-size="10.00">cstdint</text>
</a>
</g>
</g>
<!-- Node2&#45;&gt;Node4 -->
<g id="edge3" class="edge">
<title>Node2&#45;&gt;Node4</title>
<path fill="none" stroke="midnightblue" d="M710.12,-179.43C739.06,-162.12 790.58,-132.52 837.08,-112 868.47,-98.15 905.56,-85.68 932.08,-77.39"/>
<polygon fill="midnightblue" stroke="midnightblue" points="933.16,-80.72 941.69,-74.43 931.1,-74.03 933.16,-80.72"/>
</g>
<!-- Node5 -->
<g id="node5" class="node">
<title>Node5</title>
<g id="a_node5"><a xlink:title=" ">
<polygon fill="white" stroke="#bfbfbf" points="670.58,-118 670.58,-137 717.58,-137 717.58,-118 670.58,-118"/>
<text text-anchor="middle" x="694.08" y="-125" font-family="Helvetica,sans-Serif" font-size="10.00">cmath</text>
</a>
</g>
</g>
<!-- Node2&#45;&gt;Node5 -->
<g id="edge4" class="edge">
<title>Node2&#45;&gt;Node5</title>
<path fill="none" stroke="midnightblue" d="M688.6,-179.4C689.62,-169.96 690.96,-157.45 692.07,-147.19"/>
<polygon fill="midnightblue" stroke="midnightblue" points="695.55,-147.51 693.14,-137.19 688.59,-146.76 695.55,-147.51"/>
</g>
<!-- Node6&#45;&gt;Node3 -->
<g id="edge10" class="edge">
<title>Node6&#45;&gt;Node3</title>
<path fill="none" stroke="midnightblue" d="M785.3,-313.47C749.69,-292.21 680.77,-250.06 625.08,-210 594.83,-188.24 561.52,-160.58 541.72,-143.73"/>
<polygon fill="midnightblue" stroke="midnightblue" points="543.98,-141.06 534.11,-137.22 539.43,-146.38 543.98,-141.06"/>
</g>
<!-- Node6&#45;&gt;Node4 -->
<g id="edge6" class="edge">
<title>Node6&#45;&gt;Node4</title>
<path fill="none" stroke="midnightblue" d="M862.09,-324.26C926.98,-319.05 1031.21,-306.27 1055.08,-277 1082.61,-243.25 1073.73,-218.36 1055.08,-179 1044.26,-156.17 1027.45,-162.24 1011.08,-143 995.84,-125.09 983,-101.18 975.19,-85"/>
<polygon fill="midnightblue" stroke="midnightblue" points="978.21,-83.2 970.81,-75.62 971.87,-86.16 978.21,-83.2"/>
</g>
<!-- Node6&#45;&gt;Node7 -->
<g id="edge7" class="edge">
<title>Node6&#45;&gt;Node7</title>
<path fill="none" stroke="midnightblue" d="M827.5,-313.29C837.74,-304.18 849.51,-291.38 855.08,-277 860.06,-264.15 859.19,-259.15 855.08,-246 851.13,-233.37 842.79,-221.13 835.25,-211.86"/>
<polygon fill="midnightblue" stroke="midnightblue" points="837.87,-209.54 828.69,-204.25 832.57,-214.11 837.87,-209.54"/>
</g>
<!-- Node8 -->
<g id="node8" class="node">
<title>Node8</title>
<g id="a_node8"><a xlink:title=" ">
<polygon fill="white" stroke="#bfbfbf" points="772.58,-252 772.58,-271 845.58,-271 845.58,-252 772.58,-252"/>
<text text-anchor="middle" x="809.08" y="-259" font-family="Helvetica,sans-Serif" font-size="10.00">string_view</text>
</a>
</g>
</g>
<!-- Node6&#45;&gt;Node8 -->
<g id="edge8" class="edge">
<title>Node6&#45;&gt;Node8</title>
<path fill="none" stroke="midnightblue" d="M809.08,-313.4C809.08,-304.06 809.08,-291.71 809.08,-281.52"/>
<polygon fill="midnightblue" stroke="midnightblue" points="812.58,-281.19 809.08,-271.19 805.58,-281.19 812.58,-281.19"/>
</g>
<!-- Node6&#45;&gt;Node9 -->
<g id="edge9" class="edge">
<title>Node6&#45;&gt;Node9</title>
<path fill="none" stroke="midnightblue" d="M792.28,-313.31C782.44,-304.01 770.68,-291.03 764.08,-277 732.08,-209 783.4,-161.76 727.08,-112 654.62,-47.98 348.33,-20.69 245.73,-13.23"/>
<polygon fill="midnightblue" stroke="midnightblue" points="245.84,-9.73 235.62,-12.51 245.35,-16.71 245.84,-9.73"/>
</g>
<!-- Node10 -->
<g id="node10" class="node">
<title>Node10</title>
<g id="a_node10"><a xlink:href="adaptive__temporal__kalman__filter_8h.html" target="_top" xlink:title=" ">
<polygon fill="white" stroke="black" points="902.58,-246.5 902.58,-276.5 1045.58,-276.5 1045.58,-246.5 902.58,-246.5"/>
<text text-anchor="start" x="910.58" y="-264.5" font-family="Helvetica,sans-Serif" font-size="10.00">depz/processing/adaptive</text>
<text text-anchor="middle" x="974.08" y="-253.5" font-family="Helvetica,sans-Serif" font-size="10.00">_temporal_kalman_filter.h</text>
</a>
</g>
</g>
<!-- Node6&#45;&gt;Node10 -->
<g id="edge11" class="edge">
<title>Node6&#45;&gt;Node10</title>
<path fill="none" stroke="midnightblue" d="M844.88,-313.4C869.53,-303.69 902.47,-290.71 928.92,-280.29"/>
<polygon fill="midnightblue" stroke="midnightblue" points="930.33,-283.5 938.35,-276.58 927.76,-276.99 930.33,-283.5"/>
</g>
<!-- Node10&#45;&gt;Node7 -->
<g id="edge16" class="edge">
<title>Node10&#45;&gt;Node7</title>
<path fill="none" stroke="midnightblue" d="M939.85,-246.41C915.58,-236.37 882.27,-222.5 853.08,-210 851.71,-209.41 850.32,-208.81 848.91,-208.2"/>
<polygon fill="midnightblue" stroke="midnightblue" points="850.16,-204.93 839.6,-204.15 847.37,-211.35 850.16,-204.93"/>
</g>
<!-- Node11 -->
<g id="node11" class="node">
<title>Node11</title>
<g id="a_node11"><a xlink:href="idepthfilter_8h.html" target="_top" xlink:title="Abstract interface for depth&#45;map and disparity&#45;map filters.">
<polygon fill="white" stroke="black" points="862.08,-185 862.08,-204 940.08,-204 940.08,-185 862.08,-185"/>
<text text-anchor="middle" x="901.08" y="-192" font-family="Helvetica,sans-Serif" font-size="10.00">idepthfilter.h</text>
</a>
</g>
</g>
<!-- Node10&#45;&gt;Node11 -->
<g id="edge12" class="edge">
<title>Node10&#45;&gt;Node11</title>
<path fill="none" stroke="midnightblue" d="M958.24,-246.4C946.52,-235.96 930.56,-221.75 918.49,-211"/>
<polygon fill="midnightblue" stroke="midnightblue" points="920.64,-208.23 910.85,-204.19 915.99,-213.46 920.64,-208.23"/>
</g>
<!-- Node12 -->
<g id="node12" class="node">
<title>Node12</title>
<g id="a_node12"><a xlink:title=" ">
<polygon fill="white" stroke="#bfbfbf" points="846.08,-118 846.08,-137 962.08,-137 962.08,-118 846.08,-118"/>
<text text-anchor="middle" x="904.08" y="-125" font-family="Helvetica,sans-Serif" font-size="10.00">opencv2/opencv.hpp</text>
</a>
</g>
</g>
<!-- Node10&#45;&gt;Node12 -->
<g id="edge15" class="edge">
<title>Node10&#45;&gt;Node12</title>
<path fill="none" stroke="midnightblue" d="M971.63,-246.21C968.32,-229.33 961.35,-200.8 949.08,-179 941.79,-166.05 930.71,-153.56 921.37,-144.24"/>
<polygon fill="midnightblue" stroke="midnightblue" points="923.69,-141.62 914.05,-137.22 918.84,-146.67 923.69,-141.62"/>
</g>
<!-- Node10&#45;&gt;Node14 -->
<g id="edge17" class="edge">
<title>Node10&#45;&gt;Node14</title>
<path fill="none" stroke="midnightblue" d="M984.28,-246.4C991.46,-236.46 1001.12,-223.11 1008.74,-212.57"/>
<polygon fill="midnightblue" stroke="midnightblue" points="1011.77,-214.35 1014.79,-204.19 1006.1,-210.25 1011.77,-214.35"/>
</g>
<!-- Node11&#45;&gt;Node12 -->
<g id="edge13" class="edge">
<title>Node11&#45;&gt;Node12</title>
<path fill="none" stroke="midnightblue" d="M901.49,-184.73C901.93,-175.18 902.64,-159.62 903.21,-147.28"/>
<polygon fill="midnightblue" stroke="midnightblue" points="906.72,-147.28 903.68,-137.13 899.72,-146.96 906.72,-147.28"/>
</g>
<!-- Node11&#45;&gt;Node13 -->
<g id="edge14" class="edge">
<title>Node11&#45;&gt;Node13</title>
<path fill="none" stroke="midnightblue" d="M874.56,-184.94C867.61,-182.84 860.1,-180.72 853.08,-179 769.17,-158.48 745.31,-166.14 662.08,-143 659.43,-142.26 656.71,-141.43 653.99,-140.53"/>
<polygon fill="midnightblue" stroke="midnightblue" points="654.92,-137.15 644.32,-137.14 652.6,-143.75 654.92,-137.15"/>
</g>
<!-- Node15&#45;&gt;Node3 -->
<g id="edge40" class="edge">
<title>Node15&#45;&gt;Node3</title>
<path fill="none" stroke="midnightblue" d="M437.18,-313.21C436.61,-296.57 437.15,-268.5 445.08,-246 459.29,-205.68 490.65,-165.91 509.3,-144.56"/>
<polygon fill="midnightblue" stroke="midnightblue" points="511.94,-146.86 515.99,-137.07 506.72,-142.2 511.94,-146.86"/>
</g>
<!-- Node15&#45;&gt;Node16 -->
<g id="edge19" class="edge">
<title>Node15&#45;&gt;Node16</title>
<path fill="none" stroke="midnightblue" d="M427.7,-313.37C410.85,-290.45 377.43,-244.97 357.39,-217.69"/>
<polygon fill="midnightblue" stroke="midnightblue" points="360.13,-215.51 351.39,-209.52 354.49,-219.66 360.13,-215.51"/>
</g>
<!-- Node15&#45;&gt;Node27 -->
<g id="edge36" class="edge">
<title>Node15&#45;&gt;Node27</title>
<path fill="none" stroke="midnightblue" d="M453.49,-313.4C463.07,-304.62 475.57,-293.18 486.28,-283.37"/>
<polygon fill="midnightblue" stroke="midnightblue" points="488.69,-285.91 493.7,-276.58 483.97,-280.75 488.69,-285.91"/>
</g>
<!-- Node16&#45;&gt;Node3 -->
<g id="edge31" class="edge">
<title>Node16&#45;&gt;Node3</title>
<path fill="none" stroke="midnightblue" d="M380.79,-179.4C413.61,-167.74 459.68,-151.37 490.64,-140.38"/>
<polygon fill="midnightblue" stroke="midnightblue" points="491.88,-143.65 500.13,-137.01 489.54,-137.06 491.88,-143.65"/>
</g>
<!-- Node16&#45;&gt;Node9 -->
<g id="edge35" class="edge">
<title>Node16&#45;&gt;Node9</title>
<path fill="none" stroke="midnightblue" d="M304.65,-179.39C287.49,-171.1 267.99,-159.06 255.08,-143 227.85,-109.15 217.65,-57.53 214,-29.94"/>
<polygon fill="midnightblue" stroke="midnightblue" points="217.44,-29.24 212.8,-19.71 210.48,-30.05 217.44,-29.24"/>
</g>
<!-- Node16&#45;&gt;Node13 -->
<g id="edge32" class="edge">
<title>Node16&#45;&gt;Node13</title>
<path fill="none" stroke="midnightblue" d="M397.92,-184.4C447.78,-175.79 521.97,-161.44 585.08,-143 587.66,-142.25 590.31,-141.4 592.96,-140.49"/>
<polygon fill="midnightblue" stroke="midnightblue" points="594.17,-143.78 602.38,-137.09 591.79,-137.2 594.17,-143.78"/>
</g>
<!-- Node17 -->
<g id="node17" class="node">
<title>Node17</title>
<g id="a_node17"><a xlink:href="icontrol__owner_8h.html" target="_top" xlink:title=" ">
<polygon fill="white" stroke="black" points="81.08,-112.5 81.08,-142.5 203.08,-142.5 203.08,-112.5 81.08,-112.5"/>
<text text-anchor="start" x="89.08" y="-130.5" font-family="Helvetica,sans-Serif" font-size="10.00">depz/controls/icontrol</text>
<text text-anchor="middle" x="142.08" y="-119.5" font-family="Helvetica,sans-Serif" font-size="10.00">_owner.h</text>
</a>
</g>
</g>
<!-- Node16&#45;&gt;Node17 -->
<g id="edge20" class="edge">
<title>Node16&#45;&gt;Node17</title>
<path fill="none" stroke="midnightblue" d="M297.9,-179.4C267.65,-169.52 227.05,-156.25 194.87,-145.74"/>
<polygon fill="midnightblue" stroke="midnightblue" points="195.77,-142.35 185.18,-142.58 193.6,-149.01 195.77,-142.35"/>
</g>
<!-- Node16&#45;&gt;Node21 -->
<g id="edge33" class="edge">
<title>Node16&#45;&gt;Node21</title>
<path fill="none" stroke="midnightblue" d="M320.61,-179.3C298.89,-162.51 270,-134.06 288.08,-112 352.27,-33.7 684.18,-15.7 789.78,-11.93"/>
<polygon fill="midnightblue" stroke="midnightblue" points="789.96,-15.42 799.84,-11.59 789.73,-8.43 789.96,-15.42"/>
</g>
<!-- Node24 -->
<g id="node20" class="node">
<title>Node24</title>
<g id="a_node20"><a xlink:title=" ">
<polygon fill="white" stroke="#bfbfbf" points="7.58,-0.5 7.58,-19.5 52.58,-19.5 52.58,-0.5 7.58,-0.5"/>
<text text-anchor="middle" x="30.08" y="-7.5" font-family="Helvetica,sans-Serif" font-size="10.00">utility</text>
</a>
</g>
</g>
<!-- Node16&#45;&gt;Node24 -->
<g id="edge34" class="edge">
<title>Node16&#45;&gt;Node24</title>
<path fill="none" stroke="midnightblue" d="M284.47,-187.64C216.4,-179.77 106.96,-164.3 72.08,-143 39.91,-123.36 32.3,-111.66 20.08,-76 14.83,-60.66 18.48,-42.33 22.77,-29.06"/>
<polygon fill="midnightblue" stroke="midnightblue" points="26.07,-30.24 26.2,-19.64 19.49,-27.84 26.07,-30.24"/>
</g>
<!-- Node25 -->
<g id="node21" class="node">
<title>Node25</title>
<g id="a_node21"><a xlink:href="iinference__engine_8h.html" target="_top" xlink:title="Backend&#45;agnostic ML inference engine interface (Adapter pattern).">
<polygon fill="white" stroke="black" points="297.58,-112.5 297.58,-142.5 454.58,-142.5 454.58,-112.5 297.58,-112.5"/>
<text text-anchor="start" x="305.58" y="-130.5" font-family="Helvetica,sans-Serif" font-size="10.00">depz/core/engines/iinference</text>
<text text-anchor="middle" x="376.08" y="-119.5" font-family="Helvetica,sans-Serif" font-size="10.00">_engine.h</text>
</a>
</g>
</g>
<!-- Node16&#45;&gt;Node25 -->
<g id="edge26" class="edge">
<title>Node16&#45;&gt;Node25</title>
<path fill="none" stroke="midnightblue" d="M348.68,-179.4C353.08,-171.22 358.73,-160.73 363.75,-151.39"/>
<polygon fill="midnightblue" stroke="midnightblue" points="366.84,-153.04 368.5,-142.58 360.68,-149.72 366.84,-153.04"/>
</g>
<!-- Node17&#45;&gt;Node9 -->
<g id="edge25" class="edge">
<title>Node17&#45;&gt;Node9</title>
<path fill="none" stroke="midnightblue" d="M150.8,-112.37C157.04,-102.26 165.61,-88.31 173.08,-76 182.77,-60.04 193.69,-41.81 201.51,-28.73"/>
<polygon fill="midnightblue" stroke="midnightblue" points="204.69,-30.23 206.81,-19.85 198.68,-26.64 204.69,-30.23"/>
</g>
<!-- Node18 -->
<g id="node18" class="node">
<title>Node18</title>
<g id="a_node18"><a xlink:href="param__spec_8h.html" target="_top" xlink:title=" ">
<polygon fill="white" stroke="red" points="29.58,-56.5 29.58,-75.5 164.58,-75.5 164.58,-56.5 29.58,-56.5"/>
<text text-anchor="middle" x="97.08" y="-63.5" font-family="Helvetica,sans-Serif" font-size="10.00">depz/core/param_spec.h</text>
</a>
</g>
</g>
<!-- Node17&#45;&gt;Node18 -->
<g id="edge21" class="edge">
<title>Node17&#45;&gt;Node18</title>
<path fill="none" stroke="midnightblue" d="M131.42,-112.4C124.94,-103.84 116.65,-92.87 109.83,-83.86"/>
<polygon fill="midnightblue" stroke="midnightblue" points="112.45,-81.52 103.63,-75.66 106.87,-85.74 112.45,-81.52"/>
</g>
<!-- Node18&#45;&gt;Node9 -->
<g id="edge24" class="edge">
<title>Node18&#45;&gt;Node9</title>
<path fill="none" stroke="midnightblue" d="M115.3,-56.44C133.98,-47.68 163.24,-33.94 184.7,-23.86"/>
<polygon fill="midnightblue" stroke="midnightblue" points="186.38,-26.93 193.94,-19.52 183.4,-20.6 186.38,-26.93"/>
</g>
<!-- Node18&#45;&gt;Node21 -->
<g id="edge22" class="edge">
<title>Node18&#45;&gt;Node21</title>
<path fill="none" stroke="midnightblue" d="M164.64,-59.97C316.36,-48.67 679.51,-21.62 789.78,-13.41"/>
<polygon fill="midnightblue" stroke="midnightblue" points="790.23,-16.88 799.94,-12.65 789.71,-9.9 790.23,-16.88"/>
</g>
<!-- Node18&#45;&gt;Node24 -->
<g id="edge23" class="edge">
<title>Node18&#45;&gt;Node24</title>
<path fill="none" stroke="midnightblue" d="M86.32,-56.32C76.31,-48.26 61.19,-36.08 49.15,-26.37"/>
<polygon fill="midnightblue" stroke="midnightblue" points="51.02,-23.38 41.04,-19.83 46.63,-28.83 51.02,-23.38"/>
</g>
<!-- Node25&#45;&gt;Node4 -->
<g id="edge28" class="edge">
<title>Node25&#45;&gt;Node4</title>
<path fill="none" stroke="midnightblue" d="M454.72,-113.2C457.88,-112.78 461.01,-112.37 464.08,-112 666.77,-87.38 719.84,-104.07 922.08,-76 925.32,-75.55 928.67,-75.01 932.02,-74.43"/>
<polygon fill="midnightblue" stroke="midnightblue" points="932.76,-77.85 941.94,-72.58 931.47,-70.97 932.76,-77.85"/>
</g>
<!-- Node25&#45;&gt;Node9 -->
<g id="edge30" class="edge">
<title>Node25&#45;&gt;Node9</title>
<path fill="none" stroke="midnightblue" d="M355.97,-112.34C324.68,-90.3 264.63,-48.01 232.9,-25.66"/>
<polygon fill="midnightblue" stroke="midnightblue" points="234.58,-22.57 224.39,-19.67 230.55,-28.29 234.58,-22.57"/>
</g>
<!-- Node25&#45;&gt;Node21 -->
<g id="edge29" class="edge">
<title>Node25&#45;&gt;Node21</title>
<path fill="none" stroke="midnightblue" d="M430.32,-112.45C524.33,-88.11 714.7,-38.81 790.2,-19.26"/>
<polygon fill="midnightblue" stroke="midnightblue" points="791.26,-22.6 800.06,-16.7 789.51,-15.82 791.26,-22.6"/>
</g>
<!-- Node26 -->
<g id="node22" class="node">
<title>Node26</title>
<g id="a_node22"><a xlink:title=" ">
<polygon fill="white" stroke="#bfbfbf" points="859.58,-56.5 859.58,-75.5 912.58,-75.5 912.58,-56.5 859.58,-56.5"/>
<text text-anchor="middle" x="886.08" y="-63.5" font-family="Helvetica,sans-Serif" font-size="10.00">cstddef</text>
</a>
</g>
</g>
<!-- Node25&#45;&gt;Node26 -->
<g id="edge27" class="edge">
<title>Node25&#45;&gt;Node26</title>
<path fill="none" stroke="midnightblue" d="M454.72,-113.27C457.88,-112.83 461.01,-112.4 464.08,-112 628.79,-90.49 671.54,-98.73 836.08,-76 840.36,-75.41 844.82,-74.72 849.26,-73.98"/>
<polygon fill="midnightblue" stroke="midnightblue" points="850.16,-77.37 859.42,-72.22 848.97,-70.48 850.16,-77.37"/>
</g>
<!-- Node27&#45;&gt;Node3 -->
<g id="edge38" class="edge">
<title>Node27&#45;&gt;Node3</title>
<path fill="none" stroke="midnightblue" d="M509.99,-246.33C511.1,-230.05 513.21,-202.54 516.08,-179 517.38,-168.36 519.23,-156.52 520.83,-146.98"/>
<polygon fill="midnightblue" stroke="midnightblue" points="524.29,-147.5 522.53,-137.05 517.39,-146.31 524.29,-147.5"/>
</g>
<!-- Node27&#45;&gt;Node13 -->
<g id="edge39" class="edge">
<title>Node27&#45;&gt;Node13</title>
<path fill="none" stroke="midnightblue" d="M521.28,-246.37C542.54,-221.76 586.27,-171.12 608.87,-144.96"/>
<polygon fill="midnightblue" stroke="midnightblue" points="611.77,-146.95 615.66,-137.1 606.47,-142.38 611.77,-146.95"/>
</g>
<!-- Node27&#45;&gt;Node16 -->
<g id="edge37" class="edge">
<title>Node27&#45;&gt;Node16</title>
<path fill="none" stroke="midnightblue" d="M472.63,-246.4C447.53,-236.69 413.99,-223.71 387.06,-213.29"/>
<polygon fill="midnightblue" stroke="midnightblue" points="388.05,-209.92 377.46,-209.58 385.53,-216.45 388.05,-209.92"/>
</g>
<!-- Node28&#45;&gt;Node4 -->
<g id="edge44" class="edge">
<title>Node28&#45;&gt;Node4</title>
<path fill="none" stroke="midnightblue" d="M1060.93,-112.4C1040.66,-102.59 1013.84,-89.62 994.06,-80.05"/>
<polygon fill="midnightblue" stroke="midnightblue" points="995.5,-76.86 984.98,-75.66 992.46,-83.16 995.5,-76.86"/>
</g>
<!-- Node28&#45;&gt;Node21 -->
<g id="edge46" class="edge">
<title>Node28&#45;&gt;Node21</title>
<path fill="none" stroke="midnightblue" d="M1076.29,-112.43C1059.83,-96.43 1030.78,-70.65 1001.08,-56 953.08,-32.33 891.53,-20.39 854.53,-14.95"/>
<polygon fill="midnightblue" stroke="midnightblue" points="854.72,-11.44 844.33,-13.53 853.75,-18.38 854.72,-11.44"/>
</g>
<!-- Node28&#45;&gt;Node26 -->
<g id="edge43" class="edge">
<title>Node28&#45;&gt;Node26</title>
<path fill="none" stroke="midnightblue" d="M1041.99,-112.47C1005.38,-101.8 955.75,-87.32 922.41,-77.6"/>
<polygon fill="midnightblue" stroke="midnightblue" points="923.2,-74.18 912.62,-74.74 921.24,-80.9 923.2,-74.18"/>
</g>
<!-- Node29 -->
<g id="node25" class="node">
<title>Node29</title>
<g id="a_node25"><a xlink:title=" ">
<polygon fill="white" stroke="#bfbfbf" points="1057.58,-56.5 1057.58,-75.5 1122.58,-75.5 1122.58,-56.5 1057.58,-56.5"/>
<text text-anchor="middle" x="1090.08" y="-63.5" font-family="Helvetica,sans-Serif" font-size="10.00">functional</text>
</a>
</g>
</g>
<!-- Node28&#45;&gt;Node29 -->
<g id="edge45" class="edge">
<title>Node28&#45;&gt;Node29</title>
<path fill="none" stroke="midnightblue" d="M1090.08,-112.4C1090.08,-104.47 1090.08,-94.46 1090.08,-85.86"/>
<polygon fill="midnightblue" stroke="midnightblue" points="1093.58,-85.66 1090.08,-75.66 1086.58,-85.66 1093.58,-85.66"/>
</g>
</g>
</svg>
        <g id="navigator" transform="translate(0 0)" fill="#404254">
                <rect fill="#f2f5e9" fill-opacity="0.5" stroke="#606060" stroke-width=".5" x="0" y="0" width="60" height="60"/>
                <use id="zoomplus" xlink:href="#zoomPlus" x="17" y="9" onmousedown="handleZoom(evt,'in')"/>
                <use id="zoomminus" xlink:href="#zoomMin" x="42" y="9" onmousedown="handleZoom(evt,'out')"/>
                <use id="reset" xlink:href="#resetDef" x="30" y="36" onmousedown="handleReset()"/>
                <g id="arrowUp" xlink:href="#dirArrow" transform="translate(30 24)" onmousedown="handlePan(0,-1)">
                  <use xlink:href="#rim" fill="#404040">
                        <set attributeName="fill" to="#808080" begin="arrowUp.mouseover" end="arrowUp.mouseout"/>
                  </use>
                  <path fill="none" stroke="white" stroke-width="1.5" d="M0,-3.0v7 M-2.5,-0.5L0,-3.0L2.5,-0.5"/>
                </g>
                <g id="arrowRight" xlink:href="#dirArrow" transform="rotate(90) translate(36 -43)" onmousedown="handlePan(1,0)">
                  <use xlink:href="#rim" fill="#404040">
                        <set attributeName="fill" to="#808080" begin="arrowRight.mouseover" end="arrowRight.mouseout"/>
                  </use>
                  <path fill="none" stroke="white" stroke-width="1.5" d="M0,-3.0v7 M-2.5,-0.5L0,-3.0L2.5,-0.5"/>
                </g>
                <g id="arrowDown" xlink:href="#dirArrow" transform="rotate(180) translate(-30 -48)" onmousedown="handlePan(0,1)">
                  <use xlink:href="#rim" fill="#404040">
                        <set attributeName="fill" to="#808080" begin="arrowDown.mouseover" end="arrowDown.mouseout"/>
                  </use>
                  <path fill="none" stroke="white" stroke-width="1.5" d="M0,-3.0v7 M-2.5,-0.5L0,-3.0L2.5,-0.5"/>
                </g>
                <g id="arrowLeft" xlink:href="#dirArrow" transform="rotate(270) translate(-36 17)" onmousedown="handlePan(-1,0)">
                  <use xlink:href="#rim" fill="#404040">
                        <set attributeName="fill" to="#808080" begin="arrowLeft.mouseover" end="arrowLeft.mouseout"/>
                  </use>
                  <path fill="none" stroke="white" stroke-width="1.5" d="M0,-3.0v7 M-2.5,-0.5L0,-3.0L2.5,-0.5"/>
                </g>
        </g>
        <svg viewBox="0 0 15 15" width="100%" height="30px" preserveAspectRatio="xMaxYMin meet">
         <g id="arrow_out" transform="scale(0.3 0.3)">
          <a xlink:href="depth__pipeline_8h__incl_org.svg" target="_base">
           <rect id="button" ry="5" rx="5" y="6" x="6" height="38" width="38"
                fill="#f2f5e9" fill-opacity="0.5" stroke="#606060" stroke-width="1.0"/>
           <path id="arrow"
             d="M 11.500037,31.436501 C 11.940474,20.09759 22.043105,11.32322 32.158766,21.979434 L 37.068811,17.246167 C 37.068811,17.246167 37.088388,32 37.088388,32 L 22.160133,31.978069 C 22.160133,31.978069 26.997745,27.140456 26.997745,27.140456 C 18.528582,18.264221 13.291696,25.230495 11.500037,31.436501 z"
             style="fill:#404040;"/>
          </a>
         </g>
        </svg>
</svg>
