<?xml version="1.0" encoding="UTF-8" standalone="no"?>
<!DOCTYPE svg PUBLIC "-//W3C//DTD SVG 1.1//EN"
 "http://www.w3.org/Graphics/SVG/1.1/DTD/svg11.dtd">
<!-- Generated by graphviz version 2.43.0 (0)
 -->
<!-- Title: include/depz/stereo/depth_utils.h Pages: 1 -->
<svg width="379pt" height="263pt"
 viewBox="0.00 0.00 379.00 263.00" xmlns="http://www.w3.org/2000/svg" xmlns:xlink="http://www.w3.org/1999/xlink">
<g id="graph0" class="graph" transform="scale(1 1) rotate(0) translate(4 259)">
<title>include/depz/stereo/depth_utils.h</title>
<polygon fill="white" stroke="transparent" points="-4,4 -4,-259 375,-259 375,4 -4,4"/>
<!-- Node1 -->
<g id="node1" class="node">
<title>Node1</title>
<g id="a_node1"><a xlink:title="Disparity&#45;to&#45;depth and point&#45;cloud conversion utilities.">
<polygon fill="#bfbfbf" stroke="black" points="198,-224.5 198,-254.5 310,-254.5 310,-224.5 198,-224.5"/>
<text text-anchor="start" x="206" y="-242.5" font-family="Helvetica,sans-Serif" font-size="10.00">include/depz/stereo</text>
<text text-anchor="middle" x="254" y="-231.5" font-family="Helvetica,sans-Serif" font-size="10.00">/depth_utils.h</text>
</a>
</g>
</g>
<!-- Node2 -->
<g id="node2" class="node">
<title>Node2</title>
<g id="a_node2"><a xlink:title=" ">
<polygon fill="white" stroke="#bfbfbf" points="0,-168.5 0,-187.5 116,-187.5 116,-168.5 0,-168.5"/>
<text text-anchor="middle" x="58" y="-175.5" font-family="Helvetica,sans-Serif" font-size="10.00">opencv2/opencv.hpp</text>
</a>
</g>
</g>
<!-- Node1&#45;&gt;Node2 -->
<g id="edge1" class="edge">
<title>Node1&#45;&gt;Node2</title>
<path fill="none" stroke="midnightblue" d="M207.55,-224.4C173.54,-214.07 127.94,-200.23 96.07,-190.56"/>
<polygon fill="midnightblue" stroke="midnightblue" points="96.82,-187.13 86.23,-187.57 94.79,-193.82 96.82,-187.13"/>
</g>
<!-- Node3 -->
<g id="node3" class="node">
<title>Node3</title>
<g id="a_node3"><a xlink:href="types_8hpp.html" target="_top" xlink:title="Core SDK&#45;wide data structures and enumerations.">
<polygon fill="white" stroke="black" points="134.5,-168.5 134.5,-187.5 225.5,-187.5 225.5,-168.5 134.5,-168.5"/>
<text text-anchor="middle" x="180" y="-175.5" font-family="Helvetica,sans-Serif" font-size="10.00">depz/types.hpp</text>
</a>
</g>
</g>
<!-- Node1&#45;&gt;Node3 -->
<g id="edge2" class="edge">
<title>Node1&#45;&gt;Node3</title>
<path fill="none" stroke="midnightblue" d="M236.46,-224.4C225.16,-215.31 210.46,-203.49 198.89,-194.19"/>
<polygon fill="midnightblue" stroke="midnightblue" points="200.75,-191.2 190.77,-187.66 196.37,-196.65 200.75,-191.2"/>
</g>
<!-- Node5 -->
<g id="node5" class="node">
<title>Node5</title>
<g id="a_node5"><a xlink:title=" ">
<polygon fill="white" stroke="#bfbfbf" points="189.5,-0.5 189.5,-19.5 236.5,-19.5 236.5,-0.5 189.5,-0.5"/>
<text text-anchor="middle" x="213" y="-7.5" font-family="Helvetica,sans-Serif" font-size="10.00">cmath</text>
</a>
</g>
</g>
<!-- Node1&#45;&gt;Node5 -->
<g id="edge12" class="edge">
<title>Node1&#45;&gt;Node5</title>
<path fill="none" stroke="midnightblue" d="M261.47,-224.25C272.86,-200.61 292.04,-151.93 280,-112 269.89,-78.46 244.59,-45.82 228.13,-27.1"/>
<polygon fill="midnightblue" stroke="midnightblue" points="230.59,-24.6 221.28,-19.53 225.39,-29.29 230.59,-24.6"/>
</g>
<!-- Node9 -->
<g id="node9" class="node">
<title>Node9</title>
<g id="a_node9"><a xlink:title=" ">
<polygon fill="white" stroke="#bfbfbf" points="223.5,-112.5 223.5,-131.5 270.5,-131.5 270.5,-112.5 223.5,-112.5"/>
<text text-anchor="middle" x="247" y="-119.5" font-family="Helvetica,sans-Serif" font-size="10.00">vector</text>
</a>
</g>
</g>
<!-- Node1&#45;&gt;Node9 -->
<g id="edge11" class="edge">
<title>Node1&#45;&gt;Node9</title>
<path fill="none" stroke="midnightblue" d="M253.14,-224.34C251.89,-203.62 249.55,-165.02 248.15,-141.9"/>
<polygon fill="midnightblue" stroke="midnightblue" points="251.62,-141.44 247.53,-131.67 244.64,-141.86 251.62,-141.44"/>
</g>
<!-- Node11 -->
<g id="node11" class="node">
<title>Node11</title>
<g id="a_node11"><a xlink:title=" ">
<polygon fill="white" stroke="#bfbfbf" points="327,-168.5 327,-187.5 371,-187.5 371,-168.5 327,-168.5"/>
<text text-anchor="middle" x="349" y="-175.5" font-family="Helvetica,sans-Serif" font-size="10.00">limits</text>
</a>
</g>
</g>
<!-- Node1&#45;&gt;Node11 -->
<g id="edge13" class="edge">
<title>Node1&#45;&gt;Node11</title>
<path fill="none" stroke="midnightblue" d="M276.51,-224.4C291.6,-214.95 311.39,-202.56 326.47,-193.11"/>
<polygon fill="midnightblue" stroke="midnightblue" points="328.56,-195.93 335.18,-187.66 324.84,-190 328.56,-195.93"/>
</g>
<!-- Node4 -->
<g id="node4" class="node">
<title>Node4</title>
<g id="a_node4"><a xlink:href="vec3_8hpp.html" target="_top" xlink:title="3&#45;D single&#45;precision floating&#45;point vector.">
<polygon fill="white" stroke="black" points="9.5,-56.5 9.5,-75.5 98.5,-75.5 98.5,-56.5 9.5,-56.5"/>
<text text-anchor="middle" x="54" y="-63.5" font-family="Helvetica,sans-Serif" font-size="10.00">math/vec3.hpp</text>
</a>
</g>
</g>
<!-- Node3&#45;&gt;Node4 -->
<g id="edge3" class="edge">
<title>Node3&#45;&gt;Node4</title>
<path fill="none" stroke="midnightblue" d="M134.22,-168.77C96.67,-160.98 47.83,-148.09 36,-132 25.74,-118.05 33.34,-98.53 41.59,-84.53"/>
<polygon fill="midnightblue" stroke="midnightblue" points="44.71,-86.15 47.19,-75.85 38.83,-82.35 44.71,-86.15"/>
</g>
<!-- Node7 -->
<g id="node7" class="node">
<title>Node7</title>
<g id="a_node7"><a xlink:href="mat4_8hpp.html" target="_top" xlink:title="4×4 single&#45;precision floating&#45;point matrix.">
<polygon fill="white" stroke="black" points="45,-112.5 45,-131.5 137,-131.5 137,-112.5 45,-112.5"/>
<text text-anchor="middle" x="91" y="-119.5" font-family="Helvetica,sans-Serif" font-size="10.00">math/mat4.hpp</text>
</a>
</g>
</g>
<!-- Node3&#45;&gt;Node7 -->
<g id="edge6" class="edge">
<title>Node3&#45;&gt;Node7</title>
<path fill="none" stroke="midnightblue" d="M165.7,-168.32C151.82,-159.9 130.51,-146.97 114.2,-137.07"/>
<polygon fill="midnightblue" stroke="midnightblue" points="115.63,-133.85 105.26,-131.65 112,-139.83 115.63,-133.85"/>
</g>
<!-- Node3&#45;&gt;Node9 -->
<g id="edge9" class="edge">
<title>Node3&#45;&gt;Node9</title>
<path fill="none" stroke="midnightblue" d="M190.76,-168.32C200.77,-160.26 215.89,-148.08 227.93,-138.37"/>
<polygon fill="midnightblue" stroke="midnightblue" points="230.45,-140.83 236.04,-131.83 226.06,-135.38 230.45,-140.83"/>
</g>
<!-- Node10 -->
<g id="node10" class="node">
<title>Node10</title>
<g id="a_node10"><a xlink:title=" ">
<polygon fill="white" stroke="#bfbfbf" points="155,-112.5 155,-131.5 205,-131.5 205,-112.5 155,-112.5"/>
<text text-anchor="middle" x="180" y="-119.5" font-family="Helvetica,sans-Serif" font-size="10.00">cstdint</text>
</a>
</g>
</g>
<!-- Node3&#45;&gt;Node10 -->
<g id="edge10" class="edge">
<title>Node3&#45;&gt;Node10</title>
<path fill="none" stroke="midnightblue" d="M180,-168.08C180,-161.01 180,-150.86 180,-141.99"/>
<polygon fill="midnightblue" stroke="midnightblue" points="183.5,-141.75 180,-131.75 176.5,-141.75 183.5,-141.75"/>
</g>
<!-- Node4&#45;&gt;Node5 -->
<g id="edge4" class="edge">
<title>Node4&#45;&gt;Node5</title>
<path fill="none" stroke="midnightblue" d="M79.19,-56.44C106.41,-47.2 149.91,-32.43 179.88,-22.25"/>
<polygon fill="midnightblue" stroke="midnightblue" points="181.14,-25.52 189.48,-18.99 178.88,-18.89 181.14,-25.52"/>
</g>
<!-- Node6 -->
<g id="node6" class="node">
<title>Node6</title>
<g id="a_node6"><a xlink:title=" ">
<polygon fill="white" stroke="#bfbfbf" points="22,-0.5 22,-19.5 86,-19.5 86,-0.5 22,-0.5"/>
<text text-anchor="middle" x="54" y="-7.5" font-family="Helvetica,sans-Serif" font-size="10.00">algorithm</text>
</a>
</g>
</g>
<!-- Node4&#45;&gt;Node6 -->
<g id="edge5" class="edge">
<title>Node4&#45;&gt;Node6</title>
<path fill="none" stroke="midnightblue" d="M54,-56.08C54,-49.01 54,-38.86 54,-29.99"/>
<polygon fill="midnightblue" stroke="midnightblue" points="57.5,-29.75 54,-19.75 50.5,-29.75 57.5,-29.75"/>
</g>
<!-- Node7&#45;&gt;Node4 -->
<g id="edge7" class="edge">
<title>Node7&#45;&gt;Node4</title>
<path fill="none" stroke="midnightblue" d="M84.89,-112.08C79.72,-104.53 72.15,-93.49 65.81,-84.23"/>
<polygon fill="midnightblue" stroke="midnightblue" points="68.54,-82.02 60,-75.75 62.76,-85.98 68.54,-82.02"/>
</g>
<!-- Node8 -->
<g id="node8" class="node">
<title>Node8</title>
<g id="a_node8"><a xlink:title=" ">
<polygon fill="white" stroke="#bfbfbf" points="117,-56.5 117,-75.5 167,-75.5 167,-56.5 117,-56.5"/>
<text text-anchor="middle" x="142" y="-63.5" font-family="Helvetica,sans-Serif" font-size="10.00">cstring</text>
</a>
</g>
</g>
<!-- Node7&#45;&gt;Node8 -->
<g id="edge8" class="edge">
<title>Node7&#45;&gt;Node8</title>
<path fill="none" stroke="midnightblue" d="M99.42,-112.08C106.85,-104.22 117.85,-92.57 126.81,-83.08"/>
<polygon fill="midnightblue" stroke="midnightblue" points="129.41,-85.42 133.74,-75.75 124.32,-80.62 129.41,-85.42"/>
</g>
</g>
</svg>
