<?xml version="1.0" encoding="UTF-8" standalone="no"?>
<!DOCTYPE svg PUBLIC "-//W3C//DTD SVG 1.1//EN"
 "http://www.w3.org/Graphics/SVG/1.1/DTD/svg11.dtd">
<!-- Generated by graphviz version 2.43.0 (0)
 -->
<!-- Title: include/depz/camera/depz_specs.h Pages: 1 -->
<svg width="516pt" height="363pt"
 viewBox="0.00 0.00 515.96 363.00" xmlns="http://www.w3.org/2000/svg" xmlns:xlink="http://www.w3.org/1999/xlink">
<g id="graph0" class="graph" transform="scale(1 1) rotate(0) translate(4 359)">
<title>include/depz/camera/depz_specs.h</title>
<polygon fill="white" stroke="transparent" points="-4,4 -4,-359 511.96,-359 511.96,4 -4,4"/>
<!-- Node1 -->
<g id="node1" class="node">
<title>Node1</title>
<g id="a_node1"><a xlink:title=" ">
<polygon fill="#bfbfbf" stroke="black" points="347.46,-324.5 347.46,-354.5 465.46,-354.5 465.46,-324.5 347.46,-324.5"/>
<text text-anchor="start" x="355.46" y="-342.5" font-family="Helvetica,sans-Serif" font-size="10.00">include/depz/camera</text>
<text text-anchor="middle" x="406.46" y="-331.5" font-family="Helvetica,sans-Serif" font-size="10.00">/depz_specs.h</text>
</a>
</g>
</g>
<!-- Node2 -->
<g id="node2" class="node">
<title>Node2</title>
<g id="a_node2"><a xlink:href="camera__spec_8h.html" target="_top" xlink:title=" ">
<polygon fill="white" stroke="black" points="245.96,-257.5 245.96,-287.5 364.96,-287.5 364.96,-257.5 245.96,-257.5"/>
<text text-anchor="start" x="253.96" y="-275.5" font-family="Helvetica,sans-Serif" font-size="10.00">depz/camera/camera</text>
<text text-anchor="middle" x="305.46" y="-264.5" font-family="Helvetica,sans-Serif" font-size="10.00">_spec.h</text>
</a>
</g>
</g>
<!-- Node1&#45;&gt;Node2 -->
<g id="edge1" class="edge">
<title>Node1&#45;&gt;Node2</title>
<path fill="none" stroke="midnightblue" d="M384.54,-324.4C370.38,-315.28 351.75,-303.29 336.13,-293.24"/>
<polygon fill="midnightblue" stroke="midnightblue" points="337.64,-290.05 327.33,-287.58 333.85,-295.93 337.64,-290.05"/>
</g>
<!-- Node13 -->
<g id="node9" class="node">
<title>Node13</title>
<g id="a_node9"><a xlink:title=" ">
<polygon fill="white" stroke="#bfbfbf" points="460.96,-62 460.96,-81 507.96,-81 507.96,-62 460.96,-62"/>
<text text-anchor="middle" x="484.46" y="-69" font-family="Helvetica,sans-Serif" font-size="10.00">vector</text>
</a>
</g>
</g>
<!-- Node1&#45;&gt;Node13 -->
<g id="edge17" class="edge">
<title>Node1&#45;&gt;Node13</title>
<path fill="none" stroke="midnightblue" d="M410.65,-324.2C423.83,-279.25 464.41,-140.87 479.09,-90.81"/>
<polygon fill="midnightblue" stroke="midnightblue" points="482.5,-91.63 481.95,-81.05 475.78,-89.66 482.5,-91.63"/>
</g>
<!-- Node3 -->
<g id="node3" class="node">
<title>Node3</title>
<g id="a_node3"><a xlink:href="camera__control_8h.html" target="_top" xlink:title=" ">
<polygon fill="white" stroke="black" points="245.96,-190.5 245.96,-220.5 364.96,-220.5 364.96,-190.5 245.96,-190.5"/>
<text text-anchor="start" x="253.96" y="-208.5" font-family="Helvetica,sans-Serif" font-size="10.00">depz/camera/camera</text>
<text text-anchor="middle" x="305.46" y="-197.5" font-family="Helvetica,sans-Serif" font-size="10.00">_control.h</text>
</a>
</g>
</g>
<!-- Node2&#45;&gt;Node3 -->
<g id="edge2" class="edge">
<title>Node2&#45;&gt;Node3</title>
<path fill="none" stroke="midnightblue" d="M305.46,-257.4C305.46,-249.64 305.46,-239.81 305.46,-230.86"/>
<polygon fill="midnightblue" stroke="midnightblue" points="308.96,-230.58 305.46,-220.58 301.96,-230.58 308.96,-230.58"/>
</g>
<!-- Node9 -->
<g id="node7" class="node">
<title>Node9</title>
<g id="a_node7"><a xlink:title=" ">
<polygon fill="white" stroke="#bfbfbf" points="93.46,-0.5 93.46,-19.5 137.46,-19.5 137.46,-0.5 93.46,-0.5"/>
<text text-anchor="middle" x="115.46" y="-7.5" font-family="Helvetica,sans-Serif" font-size="10.00">string</text>
</a>
</g>
</g>
<!-- Node2&#45;&gt;Node9 -->
<g id="edge15" class="edge">
<title>Node2&#45;&gt;Node9</title>
<path fill="none" stroke="midnightblue" d="M245.7,-267.29C175.13,-258.74 60.75,-232.77 8.46,-154 -24.14,-104.88 50.7,-49.85 91.37,-24.78"/>
<polygon fill="midnightblue" stroke="midnightblue" points="93.19,-27.77 99.95,-19.62 89.58,-21.77 93.19,-27.77"/>
</g>
<!-- Node2&#45;&gt;Node13 -->
<g id="edge16" class="edge">
<title>Node2&#45;&gt;Node13</title>
<path fill="none" stroke="midnightblue" d="M327.88,-257.29C341.8,-247.9 359.61,-234.81 373.46,-221 416.06,-178.53 455.61,-118.93 473.87,-89.85"/>
<polygon fill="midnightblue" stroke="midnightblue" points="476.92,-91.56 479.22,-81.22 470.97,-87.87 476.92,-91.56"/>
</g>
<!-- Node14 -->
<g id="node10" class="node">
<title>Node14</title>
<g id="a_node10"><a xlink:href="capture__mode_8h.html" target="_top" xlink:title="CaptureMode POD describing one camera resolution/format/rate.">
<polygon fill="white" stroke="black" points="17.96,-123.5 17.96,-153.5 136.96,-153.5 136.96,-123.5 17.96,-123.5"/>
<text text-anchor="start" x="25.96" y="-141.5" font-family="Helvetica,sans-Serif" font-size="10.00">depz/camera/capture</text>
<text text-anchor="middle" x="77.46" y="-130.5" font-family="Helvetica,sans-Serif" font-size="10.00">_mode.h</text>
</a>
</g>
</g>
<!-- Node2&#45;&gt;Node14 -->
<g id="edge13" class="edge">
<title>Node2&#45;&gt;Node14</title>
<path fill="none" stroke="midnightblue" d="M281.06,-257.37C239.92,-233.56 156.72,-185.39 110.43,-158.59"/>
<polygon fill="midnightblue" stroke="midnightblue" points="112.09,-155.51 101.68,-153.52 108.59,-161.56 112.09,-155.51"/>
</g>
<!-- Node4 -->
<g id="node4" class="node">
<title>Node4</title>
<g id="a_node4"><a xlink:href="param__spec_8h.html" target="_top" xlink:title=" ">
<polygon fill="white" stroke="black" points="237.96,-129 237.96,-148 372.96,-148 372.96,-129 237.96,-129"/>
<text text-anchor="middle" x="305.46" y="-136" font-family="Helvetica,sans-Serif" font-size="10.00">depz/core/param_spec.h</text>
</a>
</g>
</g>
<!-- Node3&#45;&gt;Node4 -->
<g id="edge3" class="edge">
<title>Node3&#45;&gt;Node4</title>
<path fill="none" stroke="midnightblue" d="M305.46,-190.4C305.46,-181.06 305.46,-168.71 305.46,-158.52"/>
<polygon fill="midnightblue" stroke="midnightblue" points="308.96,-158.19 305.46,-148.19 301.96,-158.19 308.96,-158.19"/>
</g>
<!-- Node8 -->
<g id="node6" class="node">
<title>Node8</title>
<g id="a_node6"><a xlink:title=" ">
<polygon fill="white" stroke="#bfbfbf" points="366.46,-0.5 366.46,-19.5 422.46,-19.5 422.46,-0.5 366.46,-0.5"/>
<text text-anchor="middle" x="394.46" y="-7.5" font-family="Helvetica,sans-Serif" font-size="10.00">optional</text>
</a>
</g>
</g>
<!-- Node3&#45;&gt;Node8 -->
<g id="edge11" class="edge">
<title>Node3&#45;&gt;Node8</title>
<path fill="none" stroke="midnightblue" d="M337.61,-190.42C353.15,-182.02 370.71,-169.87 381.46,-154 407.12,-116.1 402.66,-58.99 398.08,-29.74"/>
<polygon fill="midnightblue" stroke="midnightblue" points="401.49,-28.92 396.33,-19.67 394.6,-30.12 401.49,-28.92"/>
</g>
<!-- Node3&#45;&gt;Node9 -->
<g id="edge12" class="edge">
<title>Node3&#45;&gt;Node9</title>
<path fill="none" stroke="midnightblue" d="M274.51,-190.44C237.25,-171.95 175.35,-135.98 140.46,-87 128.15,-69.72 121.63,-46 118.37,-29.68"/>
<polygon fill="midnightblue" stroke="midnightblue" points="121.8,-28.97 116.61,-19.74 114.91,-30.19 121.8,-28.97"/>
</g>
<!-- Node5 -->
<g id="node5" class="node">
<title>Node5</title>
<g id="a_node5"><a xlink:href="iparameter__store_8h.html" target="_top" xlink:title="Type&#45;erased key/value parameter store interface.">
<polygon fill="white" stroke="red" points="244.96,-56.5 244.96,-86.5 365.96,-86.5 365.96,-56.5 244.96,-56.5"/>
<text text-anchor="start" x="252.96" y="-74.5" font-family="Helvetica,sans-Serif" font-size="10.00">depz/core/iparameter</text>
<text text-anchor="middle" x="305.46" y="-63.5" font-family="Helvetica,sans-Serif" font-size="10.00">_store.h</text>
</a>
</g>
</g>
<!-- Node4&#45;&gt;Node5 -->
<g id="edge4" class="edge">
<title>Node4&#45;&gt;Node5</title>
<path fill="none" stroke="midnightblue" d="M305.46,-128.73C305.46,-120.54 305.46,-107.92 305.46,-96.71"/>
<polygon fill="midnightblue" stroke="midnightblue" points="308.96,-96.59 305.46,-86.59 301.96,-96.59 308.96,-96.59"/>
</g>
<!-- Node4&#45;&gt;Node8 -->
<g id="edge7" class="edge">
<title>Node4&#45;&gt;Node8</title>
<path fill="none" stroke="midnightblue" d="M323.16,-129C338.94,-120.52 361.5,-106.01 374.46,-87 386.2,-69.78 391.05,-46.05 393.05,-29.71"/>
<polygon fill="midnightblue" stroke="midnightblue" points="396.54,-30.05 394.03,-19.75 389.57,-29.36 396.54,-30.05"/>
</g>
<!-- Node4&#45;&gt;Node9 -->
<g id="edge8" class="edge">
<title>Node4&#45;&gt;Node9</title>
<path fill="none" stroke="midnightblue" d="M266.5,-128.92C238.34,-121.32 200.48,-108.09 172.46,-87 151.53,-71.25 134.63,-45.79 124.82,-28.73"/>
<polygon fill="midnightblue" stroke="midnightblue" points="127.78,-26.85 119.88,-19.79 121.65,-30.24 127.78,-26.85"/>
</g>
<!-- Node12 -->
<g id="node8" class="node">
<title>Node12</title>
<g id="a_node8"><a xlink:title=" ">
<polygon fill="white" stroke="#bfbfbf" points="181.96,-62 181.96,-81 226.96,-81 226.96,-62 181.96,-62"/>
<text text-anchor="middle" x="204.46" y="-69" font-family="Helvetica,sans-Serif" font-size="10.00">utility</text>
</a>
</g>
</g>
<!-- Node4&#45;&gt;Node12 -->
<g id="edge9" class="edge">
<title>Node4&#45;&gt;Node12</title>
<path fill="none" stroke="midnightblue" d="M291.84,-128.73C275.03,-117.92 246.23,-99.38 226.32,-86.57"/>
<polygon fill="midnightblue" stroke="midnightblue" points="228.17,-83.6 217.87,-81.13 224.38,-89.48 228.17,-83.6"/>
</g>
<!-- Node4&#45;&gt;Node13 -->
<g id="edge10" class="edge">
<title>Node4&#45;&gt;Node13</title>
<path fill="none" stroke="midnightblue" d="M329.23,-128.87C360.61,-117.47 416.02,-97.35 451.45,-84.49"/>
<polygon fill="midnightblue" stroke="midnightblue" points="452.67,-87.77 460.88,-81.06 450.28,-81.19 452.67,-87.77"/>
</g>
<!-- Node5&#45;&gt;Node8 -->
<g id="edge5" class="edge">
<title>Node5&#45;&gt;Node8</title>
<path fill="none" stroke="midnightblue" d="M326.55,-56.4C340.55,-47.04 358.87,-34.79 372.95,-25.38"/>
<polygon fill="midnightblue" stroke="midnightblue" points="375.14,-28.13 381.51,-19.66 371.25,-22.31 375.14,-28.13"/>
</g>
<!-- Node5&#45;&gt;Node9 -->
<g id="edge6" class="edge">
<title>Node5&#45;&gt;Node9</title>
<path fill="none" stroke="midnightblue" d="M260.43,-56.4C225.63,-45.5 178.32,-30.68 147.35,-20.99"/>
<polygon fill="midnightblue" stroke="midnightblue" points="148.1,-17.55 137.51,-17.91 146.01,-24.23 148.1,-17.55"/>
</g>
<!-- Node14&#45;&gt;Node9 -->
<g id="edge14" class="edge">
<title>Node14&#45;&gt;Node9</title>
<path fill="none" stroke="midnightblue" d="M81.56,-123.35C86.28,-107.07 94.32,-79.58 101.46,-56 104.13,-47.18 107.16,-37.41 109.72,-29.23"/>
<polygon fill="midnightblue" stroke="midnightblue" points="113.08,-30.2 112.74,-19.61 106.4,-28.11 113.08,-30.2"/>
</g>
</g>
</svg>
