<?xml version="1.0" encoding="UTF-8" standalone="no"?>
<!DOCTYPE svg PUBLIC "-//W3C//DTD SVG 1.1//EN"
 "http://www.w3.org/Graphics/SVG/1.1/DTD/svg11.dtd">
<!-- Generated by graphviz version 2.43.0 (0)
 -->
<!-- Title: include/depz/depz.h Pages: 1 -->
<svg width="2213pt" height="408pt"
 viewBox="0.00 0.00 2213.00 408.00" xmlns="http://www.w3.org/2000/svg" xmlns:xlink="http://www.w3.org/1999/xlink">
<g id="graph0" class="graph" transform="scale(1 1) rotate(0) translate(4 404)">
<title>include/depz/depz.h</title>
<polygon fill="white" stroke="transparent" points="-4,4 -4,-404 2209,-404 2209,4 -4,4"/>
<!-- Node1 -->
<g id="node1" class="node">
<title>Node1</title>
<g id="a_node1"><a xlink:title="Single umbrella header that pulls in the whole iStereoLab public API.">
<polygon fill="#bfbfbf" stroke="black" points="1059.5,-380.5 1059.5,-399.5 1172.5,-399.5 1172.5,-380.5 1059.5,-380.5"/>
<text text-anchor="middle" x="1116" y="-387.5" font-family="Helvetica,sans-Serif" font-size="10.00">include/depz/depz.h</text>
</a>
</g>
</g>
<!-- Node2 -->
<g id="node2" class="node">
<title>Node2</title>
<g id="a_node2"><a xlink:href="vec3_8hpp.html" target="_top" xlink:title="3&#45;D single&#45;precision floating&#45;point vector.">
<polygon fill="white" stroke="black" points="105.5,-56.5 105.5,-75.5 194.5,-75.5 194.5,-56.5 105.5,-56.5"/>
<text text-anchor="middle" x="150" y="-63.5" font-family="Helvetica,sans-Serif" font-size="10.00">math/vec3.hpp</text>
</a>
</g>
</g>
<!-- Node1&#45;&gt;Node2 -->
<g id="edge1" class="edge">
<title>Node1&#45;&gt;Node2</title>
<path fill="none" stroke="midnightblue" d="M1059.35,-389.51C900.82,-390.37 455.26,-388.61 317,-344 222.42,-313.48 178.3,-300.84 138,-210 119.54,-168.38 133.55,-113.31 143.08,-85.2"/>
<polygon fill="midnightblue" stroke="midnightblue" points="146.47,-86.12 146.55,-75.53 139.88,-83.76 146.47,-86.12"/>
</g>
<!-- Node5 -->
<g id="node5" class="node">
<title>Node5</title>
<g id="a_node5"><a xlink:href="mat4_8hpp.html" target="_top" xlink:title="4×4 single&#45;precision floating&#45;point matrix.">
<polygon fill="white" stroke="black" points="0,-118 0,-137 92,-137 92,-118 0,-118"/>
<text text-anchor="middle" x="46" y="-125" font-family="Helvetica,sans-Serif" font-size="10.00">math/mat4.hpp</text>
</a>
</g>
</g>
<!-- Node1&#45;&gt;Node5 -->
<g id="edge4" class="edge">
<title>Node1&#45;&gt;Node5</title>
<path fill="none" stroke="midnightblue" d="M1059.33,-388.31C851.67,-385.54 142.47,-373.93 105,-344 44.2,-295.43 42.46,-190.65 44.55,-147.58"/>
<polygon fill="midnightblue" stroke="midnightblue" points="48.06,-147.58 45.18,-137.38 41.07,-147.15 48.06,-147.58"/>
</g>
<!-- Node7 -->
<g id="node7" class="node">
<title>Node7</title>
<g id="a_node7"><a xlink:href="types_8hpp.html" target="_top" xlink:title="Core SDK&#45;wide data structures and enumerations.">
<polygon fill="white" stroke="black" points="147.5,-185 147.5,-204 212.5,-204 212.5,-185 147.5,-185"/>
<text text-anchor="middle" x="180" y="-192" font-family="Helvetica,sans-Serif" font-size="10.00">types.hpp</text>
</a>
</g>
</g>
<!-- Node1&#45;&gt;Node7 -->
<g id="edge7" class="edge">
<title>Node1&#45;&gt;Node7</title>
<path fill="none" stroke="midnightblue" d="M1059.11,-388.17C951.16,-385.85 709.44,-377.08 509,-344 391.69,-324.64 350.92,-339.87 250,-277 223.85,-260.71 202.3,-231.5 190.3,-212.84"/>
<polygon fill="midnightblue" stroke="midnightblue" points="193.17,-210.82 184.92,-204.16 187.22,-214.5 193.17,-210.82"/>
</g>
<!-- Node10 -->
<g id="node10" class="node">
<title>Node10</title>
<g id="a_node10"><a xlink:href="iframesource_8h.html" target="_top" xlink:title=" ">
<polygon fill="white" stroke="black" points="1074,-118 1074,-137 1206,-137 1206,-118 1074,-118"/>
<text text-anchor="middle" x="1140" y="-125" font-family="Helvetica,sans-Serif" font-size="10.00">pipeline/iframesource.h</text>
</a>
</g>
</g>
<!-- Node1&#45;&gt;Node10 -->
<g id="edge12" class="edge">
<title>Node1&#45;&gt;Node10</title>
<path fill="none" stroke="midnightblue" d="M1113.02,-380.37C1101.22,-345.6 1059.27,-215.94 1077,-179 1084.54,-163.29 1099.61,-150.93 1113.13,-142.37"/>
<polygon fill="midnightblue" stroke="midnightblue" points="1115.29,-145.16 1122.12,-137.06 1111.73,-139.13 1115.29,-145.16"/>
</g>
<!-- Node13 -->
<g id="node13" class="node">
<title>Node13</title>
<g id="a_node13"><a xlink:href="gstreamer__framesource_8h.html" target="_top" xlink:title=" ">
<polygon fill="white" stroke="black" points="1503.5,-179.5 1503.5,-209.5 1612.5,-209.5 1612.5,-179.5 1503.5,-179.5"/>
<text text-anchor="start" x="1511.5" y="-197.5" font-family="Helvetica,sans-Serif" font-size="10.00">pipeline/gstreamer</text>
<text text-anchor="middle" x="1558" y="-186.5" font-family="Helvetica,sans-Serif" font-size="10.00">_framesource.h</text>
</a>
</g>
</g>
<!-- Node1&#45;&gt;Node13 -->
<g id="edge15" class="edge">
<title>Node1&#45;&gt;Node13</title>
<path fill="none" stroke="midnightblue" d="M1172.71,-384.33C1220.03,-378.93 1288.46,-367.53 1344,-344 1420.65,-311.53 1497.71,-248.97 1534.97,-216.39"/>
<polygon fill="midnightblue" stroke="midnightblue" points="1537.55,-218.78 1542.72,-209.53 1532.91,-213.54 1537.55,-218.78"/>
</g>
<!-- Node15 -->
<g id="node15" class="node">
<title>Node15</title>
<g id="a_node15"><a xlink:href="stereo__pipeline_8hpp.html" target="_top" xlink:title=" ">
<polygon fill="white" stroke="black" points="903.5,-252 903.5,-271 1058.5,-271 1058.5,-252 903.5,-252"/>
<text text-anchor="middle" x="981" y="-259" font-family="Helvetica,sans-Serif" font-size="10.00">pipeline/stereo_pipeline.hpp</text>
</a>
</g>
</g>
<!-- Node1&#45;&gt;Node15 -->
<g id="edge19" class="edge">
<title>Node1&#45;&gt;Node15</title>
<path fill="none" stroke="midnightblue" d="M1106.72,-380.31C1084.27,-359.27 1026.77,-305.39 997.97,-278.4"/>
<polygon fill="midnightblue" stroke="midnightblue" points="1000.03,-275.54 990.34,-271.26 995.25,-280.65 1000.03,-275.54"/>
</g>
<!-- Node16 -->
<g id="node16" class="node">
<title>Node16</title>
<g id="a_node16"><a xlink:href="camera__identity__resolver_8h.html" target="_top" xlink:title="Cross&#45;OS camera identity resolution from driver / sysfs metadata.">
<polygon fill="white" stroke="black" points="1085.5,-179.5 1085.5,-209.5 1204.5,-209.5 1204.5,-179.5 1085.5,-179.5"/>
<text text-anchor="start" x="1093.5" y="-197.5" font-family="Helvetica,sans-Serif" font-size="10.00">depz/camera/camera</text>
<text text-anchor="middle" x="1145" y="-186.5" font-family="Helvetica,sans-Serif" font-size="10.00">_identity_resolver.h</text>
</a>
</g>
</g>
<!-- Node1&#45;&gt;Node16 -->
<g id="edge76" class="edge">
<title>Node1&#45;&gt;Node16</title>
<path fill="none" stroke="midnightblue" d="M1117.28,-380.44C1121.48,-352.45 1134.88,-263.03 1141.39,-219.61"/>
<polygon fill="midnightblue" stroke="midnightblue" points="1144.86,-220.04 1142.88,-209.63 1137.94,-219 1144.86,-220.04"/>
</g>
<!-- Node17 -->
<g id="node17" class="node">
<title>Node17</title>
<g id="a_node17"><a xlink:href="istereo__calibration__model_8h.html" target="_top" xlink:title=" ">
<polygon fill="white" stroke="black" points="833.5,-179.5 833.5,-209.5 952.5,-209.5 952.5,-179.5 833.5,-179.5"/>
<text text-anchor="start" x="841.5" y="-197.5" font-family="Helvetica,sans-Serif" font-size="10.00">depz/stereo/istereo</text>
<text text-anchor="middle" x="893" y="-186.5" font-family="Helvetica,sans-Serif" font-size="10.00">_calibration_model.h</text>
</a>
</g>
</g>
<!-- Node1&#45;&gt;Node17 -->
<g id="edge52" class="edge">
<title>Node1&#45;&gt;Node17</title>
<path fill="none" stroke="midnightblue" d="M1070.69,-380.4C1018.19,-367.76 933.92,-338.65 895,-277 884.3,-260.05 884.83,-236.92 887.43,-219.62"/>
<polygon fill="midnightblue" stroke="midnightblue" points="890.89,-220.19 889.24,-209.72 884,-218.93 890.89,-220.19"/>
</g>
<!-- Node22 -->
<g id="node22" class="node">
<title>Node22</title>
<g id="a_node22"><a xlink:href="istereo__inference_8h.html" target="_top" xlink:title=" ">
<polygon fill="white" stroke="black" points="1375,-179.5 1375,-209.5 1485,-209.5 1485,-179.5 1375,-179.5"/>
<text text-anchor="start" x="1383" y="-197.5" font-family="Helvetica,sans-Serif" font-size="10.00">depz/stereo/istereo</text>
<text text-anchor="middle" x="1430" y="-186.5" font-family="Helvetica,sans-Serif" font-size="10.00">_inference.h</text>
</a>
</g>
</g>
<!-- Node1&#45;&gt;Node22 -->
<g id="edge75" class="edge">
<title>Node1&#45;&gt;Node22</title>
<path fill="none" stroke="midnightblue" d="M1172.53,-381.34C1236.66,-369.75 1340.3,-341.77 1402,-277 1416.85,-261.41 1423.86,-237.58 1427.14,-219.71"/>
<polygon fill="midnightblue" stroke="midnightblue" points="1430.61,-220.16 1428.71,-209.74 1423.7,-219.07 1430.61,-220.16"/>
</g>
<!-- Node23 -->
<g id="node23" class="node">
<title>Node23</title>
<g id="a_node23"><a xlink:href="idepthfilter_8h.html" target="_top" xlink:title="Abstract interface for depth&#45;map and disparity&#45;map filters.">
<polygon fill="white" stroke="black" points="483,-185 483,-204 643,-204 643,-185 483,-185"/>
<text text-anchor="middle" x="563" y="-192" font-family="Helvetica,sans-Serif" font-size="10.00">depz/processing/idepthfilter.h</text>
</a>
</g>
</g>
<!-- Node1&#45;&gt;Node23 -->
<g id="edge77" class="edge">
<title>Node1&#45;&gt;Node23</title>
<path fill="none" stroke="midnightblue" d="M1070.69,-380.43C1031.63,-372.54 973.98,-359.71 925,-344 796.63,-302.83 649.75,-236.25 590.19,-208.4"/>
<polygon fill="midnightblue" stroke="midnightblue" points="591.62,-205.2 581.08,-204.12 588.64,-211.54 591.62,-205.2"/>
</g>
<!-- Node24 -->
<g id="node24" class="node">
<title>Node24</title>
<g id="a_node24"><a xlink:href="block__queue_8hpp.html" target="_top" xlink:title=" ">
<polygon fill="white" stroke="black" points="1630.5,-185 1630.5,-204 1779.5,-204 1779.5,-185 1630.5,-185"/>
<text text-anchor="middle" x="1705" y="-192" font-family="Helvetica,sans-Serif" font-size="10.00">depz/utils/block_queue.hpp</text>
</a>
</g>
</g>
<!-- Node1&#45;&gt;Node24 -->
<g id="edge87" class="edge">
<title>Node1&#45;&gt;Node24</title>
<path fill="none" stroke="midnightblue" d="M1172.57,-384.13C1228.12,-378.31 1314.8,-366.39 1387,-344 1446.65,-325.5 1614.65,-241.42 1679.25,-208.64"/>
<polygon fill="midnightblue" stroke="midnightblue" points="1681.02,-211.67 1688.35,-204.01 1677.85,-205.43 1681.02,-211.67"/>
</g>
<!-- Node30 -->
<g id="node30" class="node">
<title>Node30</title>
<g id="a_node30"><a xlink:href="stereocalibration_8h.html" target="_top" xlink:title="Stereo camera calibration: load, validate, rectify.">
<polygon fill="white" stroke="black" points="1873,-252 1873,-271 2015,-271 2015,-252 1873,-252"/>
<text text-anchor="middle" x="1944" y="-259" font-family="Helvetica,sans-Serif" font-size="10.00">stereo/stereocalibration.h</text>
</a>
</g>
</g>
<!-- Node1&#45;&gt;Node30 -->
<g id="edge53" class="edge">
<title>Node1&#45;&gt;Node30</title>
<path fill="none" stroke="midnightblue" d="M1172.8,-387.7C1352.14,-383.33 1896.24,-368.16 1925,-344 1943.05,-328.84 1945.85,-300.16 1945.48,-281.19"/>
<polygon fill="midnightblue" stroke="midnightblue" points="1948.97,-280.88 1944.97,-271.07 1941.98,-281.24 1948.97,-280.88"/>
</g>
<!-- Node31 -->
<g id="node31" class="node">
<title>Node31</title>
<g id="a_node31"><a xlink:href="calibration__params_8h.html" target="_top" xlink:title=" ">
<polygon fill="white" stroke="black" points="1618,-313.5 1618,-343.5 1720,-343.5 1720,-313.5 1618,-313.5"/>
<text text-anchor="start" x="1626" y="-331.5" font-family="Helvetica,sans-Serif" font-size="10.00">stereo/calibration</text>
<text text-anchor="middle" x="1669" y="-320.5" font-family="Helvetica,sans-Serif" font-size="10.00">_params.h</text>
</a>
</g>
</g>
<!-- Node1&#45;&gt;Node31 -->
<g id="edge57" class="edge">
<title>Node1&#45;&gt;Node31</title>
<path fill="none" stroke="midnightblue" d="M1172.52,-383.01C1253.34,-374.44 1406.55,-358.14 1537,-344 1560.16,-341.49 1585.59,-338.7 1607.9,-336.25"/>
<polygon fill="midnightblue" stroke="midnightblue" points="1608.36,-339.72 1617.92,-335.15 1607.59,-332.76 1608.36,-339.72"/>
</g>
<!-- Node33 -->
<g id="node33" class="node">
<title>Node33</title>
<g id="a_node33"><a xlink:href="camera__calibration__web__loader_8h.html" target="_top" xlink:title="Download stereo calibration JSON by camera serial and parse it into StereoCalibration.">
<polygon fill="white" stroke="black" points="1772,-313.5 1772,-343.5 1916,-343.5 1916,-313.5 1772,-313.5"/>
<text text-anchor="start" x="1780" y="-331.5" font-family="Helvetica,sans-Serif" font-size="10.00">stereo/camera_calibration</text>
<text text-anchor="middle" x="1844" y="-320.5" font-family="Helvetica,sans-Serif" font-size="10.00">_web_loader.h</text>
</a>
</g>
</g>
<!-- Node1&#45;&gt;Node33 -->
<g id="edge62" class="edge">
<title>Node1&#45;&gt;Node33</title>
<path fill="none" stroke="midnightblue" d="M1172.71,-385.83C1280.99,-379.55 1524.6,-364.37 1729,-344 1739.66,-342.94 1750.85,-341.69 1761.9,-340.38"/>
<polygon fill="midnightblue" stroke="midnightblue" points="1762.47,-343.84 1771.98,-339.17 1761.64,-336.89 1762.47,-343.84"/>
</g>
<!-- Node34 -->
<g id="node34" class="node">
<title>Node34</title>
<g id="a_node34"><a xlink:href="stereo__depth_8h.html" target="_top" xlink:title=" ">
<polygon fill="white" stroke="black" points="1269.5,-252 1269.5,-271 1392.5,-271 1392.5,-252 1269.5,-252"/>
<text text-anchor="middle" x="1331" y="-259" font-family="Helvetica,sans-Serif" font-size="10.00">stereo/stereo_depth.h</text>
</a>
</g>
</g>
<!-- Node1&#45;&gt;Node34 -->
<g id="edge65" class="edge">
<title>Node1&#45;&gt;Node34</title>
<path fill="none" stroke="midnightblue" d="M1130.78,-380.31C1167.54,-358.68 1263.32,-302.32 1307.74,-276.18"/>
<polygon fill="midnightblue" stroke="midnightblue" points="1309.56,-279.18 1316.4,-271.09 1306.01,-273.14 1309.56,-279.18"/>
</g>
<!-- Node35 -->
<g id="node35" class="node">
<title>Node35</title>
<g id="a_node35"><a xlink:href="depth__utils_8h.html" target="_top" xlink:title="Disparity&#45;to&#45;depth and point&#45;cloud conversion utilities.">
<polygon fill="white" stroke="black" points="259.5,-252 259.5,-271 372.5,-271 372.5,-252 259.5,-252"/>
<text text-anchor="middle" x="316" y="-259" font-family="Helvetica,sans-Serif" font-size="10.00">stereo/depth_utils.h</text>
</a>
</g>
</g>
<!-- Node1&#45;&gt;Node35 -->
<g id="edge69" class="edge">
<title>Node1&#45;&gt;Node35</title>
<path fill="none" stroke="midnightblue" d="M1059.36,-386.06C971.76,-380.94 798.34,-368.51 653,-344 543.92,-325.6 417.79,-291.62 355.29,-273.91"/>
<polygon fill="midnightblue" stroke="midnightblue" points="356.04,-270.48 345.46,-271.11 354.12,-277.21 356.04,-270.48"/>
</g>
<!-- Node37 -->
<g id="node37" class="node">
<title>Node37</title>
<g id="a_node37"><a xlink:href="adaptive__temporal__kalman__filter_8h.html" target="_top" xlink:title=" ">
<polygon fill="white" stroke="black" points="491.5,-246.5 491.5,-276.5 634.5,-276.5 634.5,-246.5 491.5,-246.5"/>
<text text-anchor="start" x="499.5" y="-264.5" font-family="Helvetica,sans-Serif" font-size="10.00">processing/adaptive</text>
<text text-anchor="middle" x="563" y="-253.5" font-family="Helvetica,sans-Serif" font-size="10.00">_temporal_kalman_filter.h</text>
</a>
</g>
</g>
<!-- Node1&#45;&gt;Node37 -->
<g id="edge78" class="edge">
<title>Node1&#45;&gt;Node37</title>
<path fill="none" stroke="midnightblue" d="M1059.19,-387.94C983.91,-385.27 847.6,-375.98 736,-344 684.51,-329.25 629.21,-300.72 595.35,-281.64"/>
<polygon fill="midnightblue" stroke="midnightblue" points="596.81,-278.44 586.39,-276.53 593.34,-284.52 596.81,-278.44"/>
</g>
<!-- Node38 -->
<g id="node38" class="node">
<title>Node38</title>
<g id="a_node38"><a xlink:href="logger_8hpp.html" target="_top" xlink:title="SDK stream&#45;style logger and the LOG_* macros.">
<polygon fill="white" stroke="black" points="2043,-319 2043,-338 2135,-338 2135,-319 2043,-319"/>
<text text-anchor="middle" x="2089" y="-326" font-family="Helvetica,sans-Serif" font-size="10.00">utils/logger.hpp</text>
</a>
</g>
</g>
<!-- Node1&#45;&gt;Node38 -->
<g id="edge83" class="edge">
<title>Node1&#45;&gt;Node38</title>
<path fill="none" stroke="midnightblue" d="M1172.74,-387.08C1308.54,-382.25 1662.92,-368.2 1958,-344 1982.63,-341.98 2009.8,-339.08 2032.98,-336.41"/>
<polygon fill="midnightblue" stroke="midnightblue" points="2033.46,-339.88 2042.99,-335.24 2032.65,-332.92 2033.46,-339.88"/>
</g>
<!-- Node3 -->
<g id="node3" class="node">
<title>Node3</title>
<g id="a_node3"><a xlink:title=" ">
<polygon fill="white" stroke="#bfbfbf" points="208.5,-0.5 208.5,-19.5 255.5,-19.5 255.5,-0.5 208.5,-0.5"/>
<text text-anchor="middle" x="232" y="-7.5" font-family="Helvetica,sans-Serif" font-size="10.00">cmath</text>
</a>
</g>
</g>
<!-- Node2&#45;&gt;Node3 -->
<g id="edge2" class="edge">
<title>Node2&#45;&gt;Node3</title>
<path fill="none" stroke="midnightblue" d="M163.17,-56.32C175.85,-47.98 195.23,-35.21 210.21,-25.35"/>
<polygon fill="midnightblue" stroke="midnightblue" points="212.43,-28.08 218.86,-19.65 208.58,-22.23 212.43,-28.08"/>
</g>
<!-- Node4 -->
<g id="node4" class="node">
<title>Node4</title>
<g id="a_node4"><a xlink:title=" ">
<polygon fill="white" stroke="#bfbfbf" points="118,-0.5 118,-19.5 182,-19.5 182,-0.5 118,-0.5"/>
<text text-anchor="middle" x="150" y="-7.5" font-family="Helvetica,sans-Serif" font-size="10.00">algorithm</text>
</a>
</g>
</g>
<!-- Node2&#45;&gt;Node4 -->
<g id="edge3" class="edge">
<title>Node2&#45;&gt;Node4</title>
<path fill="none" stroke="midnightblue" d="M150,-56.08C150,-49.01 150,-38.86 150,-29.99"/>
<polygon fill="midnightblue" stroke="midnightblue" points="153.5,-29.75 150,-19.75 146.5,-29.75 153.5,-29.75"/>
</g>
<!-- Node5&#45;&gt;Node2 -->
<g id="edge5" class="edge">
<title>Node5&#45;&gt;Node2</title>
<path fill="none" stroke="midnightblue" d="M60.9,-117.98C77.97,-108.21 106.16,-92.08 126.26,-80.58"/>
<polygon fill="midnightblue" stroke="midnightblue" points="128.19,-83.51 135.13,-75.51 124.71,-77.44 128.19,-83.51"/>
</g>
<!-- Node6 -->
<g id="node6" class="node">
<title>Node6</title>
<g id="a_node6"><a xlink:title=" ">
<polygon fill="white" stroke="#bfbfbf" points="21,-56.5 21,-75.5 71,-75.5 71,-56.5 21,-56.5"/>
<text text-anchor="middle" x="46" y="-63.5" font-family="Helvetica,sans-Serif" font-size="10.00">cstring</text>
</a>
</g>
</g>
<!-- Node5&#45;&gt;Node6 -->
<g id="edge6" class="edge">
<title>Node5&#45;&gt;Node6</title>
<path fill="none" stroke="midnightblue" d="M46,-117.98C46,-109.58 46,-96.48 46,-85.66"/>
<polygon fill="midnightblue" stroke="midnightblue" points="49.5,-85.51 46,-75.51 42.5,-85.51 49.5,-85.51"/>
</g>
<!-- Node7&#45;&gt;Node2 -->
<g id="edge8" class="edge">
<title>Node7&#45;&gt;Node2</title>
<path fill="none" stroke="midnightblue" d="M177.94,-184.81C173.12,-164.49 161.04,-113.55 154.45,-85.78"/>
<polygon fill="midnightblue" stroke="midnightblue" points="157.79,-84.68 152.08,-75.76 150.98,-86.29 157.79,-84.68"/>
</g>
<!-- Node7&#45;&gt;Node5 -->
<g id="edge9" class="edge">
<title>Node7&#45;&gt;Node5</title>
<path fill="none" stroke="midnightblue" d="M162.21,-184.87C139.38,-173.8 99.57,-154.49 73,-141.6"/>
<polygon fill="midnightblue" stroke="midnightblue" points="74.39,-138.38 63.87,-137.17 71.34,-144.68 74.39,-138.38"/>
</g>
<!-- Node8 -->
<g id="node8" class="node">
<title>Node8</title>
<g id="a_node8"><a xlink:title=" ">
<polygon fill="white" stroke="#bfbfbf" points="303.5,-118 303.5,-137 350.5,-137 350.5,-118 303.5,-118"/>
<text text-anchor="middle" x="327" y="-125" font-family="Helvetica,sans-Serif" font-size="10.00">vector</text>
</a>
</g>
</g>
<!-- Node7&#45;&gt;Node8 -->
<g id="edge10" class="edge">
<title>Node7&#45;&gt;Node8</title>
<path fill="none" stroke="midnightblue" d="M199.52,-184.87C224.78,-173.7 269,-154.15 298.14,-141.26"/>
<polygon fill="midnightblue" stroke="midnightblue" points="299.67,-144.41 307.4,-137.17 296.84,-138.01 299.67,-144.41"/>
</g>
<!-- Node9 -->
<g id="node9" class="node">
<title>Node9</title>
<g id="a_node9"><a xlink:title=" ">
<polygon fill="white" stroke="#bfbfbf" points="459,-56.5 459,-75.5 509,-75.5 509,-56.5 459,-56.5"/>
<text text-anchor="middle" x="484" y="-63.5" font-family="Helvetica,sans-Serif" font-size="10.00">cstdint</text>
</a>
</g>
</g>
<!-- Node7&#45;&gt;Node9 -->
<g id="edge11" class="edge">
<title>Node7&#45;&gt;Node9</title>
<path fill="none" stroke="midnightblue" d="M189.36,-184.92C208.01,-168.29 251.75,-131.58 295,-112 345.7,-89.05 409.55,-76.99 448.54,-71.32"/>
<polygon fill="midnightblue" stroke="midnightblue" points="449.43,-74.73 458.85,-69.88 448.46,-67.79 449.43,-74.73"/>
</g>
<!-- Node11 -->
<g id="node11" class="node">
<title>Node11</title>
<g id="a_node11"><a xlink:title=" ">
<polygon fill="white" stroke="#bfbfbf" points="734,-56.5 734,-75.5 850,-75.5 850,-56.5 734,-56.5"/>
<text text-anchor="middle" x="792" y="-63.5" font-family="Helvetica,sans-Serif" font-size="10.00">opencv2/opencv.hpp</text>
</a>
</g>
</g>
<!-- Node10&#45;&gt;Node11 -->
<g id="edge13" class="edge">
<title>Node10&#45;&gt;Node11</title>
<path fill="none" stroke="midnightblue" d="M1090.14,-117.98C1027.22,-107.22 919.1,-88.73 851.8,-77.22"/>
<polygon fill="midnightblue" stroke="midnightblue" points="852.21,-73.74 841.77,-75.51 851.03,-80.64 852.21,-73.74"/>
</g>
<!-- Node12 -->
<g id="node12" class="node">
<title>Node12</title>
<g id="a_node12"><a xlink:title=" ">
<polygon fill="white" stroke="#bfbfbf" points="1408,-56.5 1408,-75.5 1452,-75.5 1452,-56.5 1408,-56.5"/>
<text text-anchor="middle" x="1430" y="-63.5" font-family="Helvetica,sans-Serif" font-size="10.00">string</text>
</a>
</g>
</g>
<!-- Node10&#45;&gt;Node12 -->
<g id="edge14" class="edge">
<title>Node10&#45;&gt;Node12</title>
<path fill="none" stroke="midnightblue" d="M1181.55,-117.98C1239.99,-105.99 1345.2,-84.4 1397.98,-73.57"/>
<polygon fill="midnightblue" stroke="midnightblue" points="1398.71,-76.99 1407.8,-71.55 1397.3,-70.14 1398.71,-76.99"/>
</g>
<!-- Node13&#45;&gt;Node10 -->
<g id="edge16" class="edge">
<title>Node13&#45;&gt;Node10</title>
<path fill="none" stroke="midnightblue" d="M1503.25,-180.79C1500.12,-180.16 1497.03,-179.56 1494,-179 1398.86,-161.47 1288.37,-146.57 1216.48,-137.59"/>
<polygon fill="midnightblue" stroke="midnightblue" points="1216.51,-134.07 1206.16,-136.31 1215.65,-141.01 1216.51,-134.07"/>
</g>
<!-- Node13&#45;&gt;Node12 -->
<g id="edge18" class="edge">
<title>Node13&#45;&gt;Node12</title>
<path fill="none" stroke="midnightblue" d="M1554.75,-179.45C1550.02,-161.75 1539.69,-131.32 1521,-112 1504.72,-95.17 1480.83,-83.69 1461.62,-76.54"/>
<polygon fill="midnightblue" stroke="midnightblue" points="1462.65,-73.19 1452.06,-73.19 1460.34,-79.8 1462.65,-73.19"/>
</g>
<!-- Node14 -->
<g id="node14" class="node">
<title>Node14</title>
<g id="a_node14"><a xlink:title=" ">
<polygon fill="white" stroke="#bfbfbf" points="1286,-118 1286,-137 1344,-137 1344,-118 1286,-118"/>
<text text-anchor="middle" x="1315" y="-125" font-family="Helvetica,sans-Serif" font-size="10.00">memory</text>
</a>
</g>
</g>
<!-- Node13&#45;&gt;Node14 -->
<g id="edge17" class="edge">
<title>Node13&#45;&gt;Node14</title>
<path fill="none" stroke="midnightblue" d="M1505.57,-179.48C1460.04,-167.3 1395.13,-149.93 1354.04,-138.94"/>
<polygon fill="midnightblue" stroke="midnightblue" points="1354.7,-135.5 1344.13,-136.29 1352.89,-142.26 1354.7,-135.5"/>
</g>
<!-- Node15&#45;&gt;Node10 -->
<g id="edge24" class="edge">
<title>Node15&#45;&gt;Node10</title>
<path fill="none" stroke="midnightblue" d="M985.79,-251.89C995.07,-235.84 1016.9,-201 1043,-179 1062.34,-162.7 1087.81,-149.69 1107.8,-140.96"/>
<polygon fill="midnightblue" stroke="midnightblue" points="1109.28,-144.14 1117.13,-137.02 1106.55,-137.69 1109.28,-144.14"/>
</g>
<!-- Node15&#45;&gt;Node11 -->
<g id="edge47" class="edge">
<title>Node15&#45;&gt;Node11</title>
<path fill="none" stroke="midnightblue" d="M903.47,-253.16C846.56,-245.97 776.15,-232.72 758,-210 728.11,-172.58 760.32,-113.16 779.64,-84.12"/>
<polygon fill="midnightblue" stroke="midnightblue" points="782.57,-86.04 785.37,-75.82 776.81,-82.07 782.57,-86.04"/>
</g>
<!-- Node15&#45;&gt;Node12 -->
<g id="edge48" class="edge">
<title>Node15&#45;&gt;Node12</title>
<path fill="none" stroke="midnightblue" d="M982.64,-251.91C988.28,-225.02 1009.73,-142.42 1065,-112 1121.9,-80.69 1318.86,-70.73 1397.35,-67.95"/>
<polygon fill="midnightblue" stroke="midnightblue" points="1397.73,-71.44 1407.61,-67.61 1397.5,-64.45 1397.73,-71.44"/>
</g>
<!-- Node15&#45;&gt;Node14 -->
<g id="edge51" class="edge">
<title>Node15&#45;&gt;Node14</title>
<path fill="none" stroke="midnightblue" d="M1058.69,-252.83C1105.45,-246.03 1165.18,-233.35 1214,-210 1248.5,-193.49 1281.66,-163.04 1300.08,-144.4"/>
<polygon fill="midnightblue" stroke="midnightblue" points="1302.6,-146.83 1307.04,-137.21 1297.57,-141.96 1302.6,-146.83"/>
</g>
<!-- Node15&#45;&gt;Node16 -->
<g id="edge20" class="edge">
<title>Node15&#45;&gt;Node16</title>
<path fill="none" stroke="midnightblue" d="M1002.78,-251.87C1027.49,-242.07 1068.48,-225.83 1100.12,-213.29"/>
<polygon fill="midnightblue" stroke="midnightblue" points="1101.6,-216.47 1109.61,-209.53 1099.02,-209.96 1101.6,-216.47"/>
</g>
<!-- Node15&#45;&gt;Node17 -->
<g id="edge25" class="edge">
<title>Node15&#45;&gt;Node17</title>
<path fill="none" stroke="midnightblue" d="M969.13,-251.73C956.67,-242.53 936.64,-227.73 920.25,-215.63"/>
<polygon fill="midnightblue" stroke="midnightblue" points="922.2,-212.72 912.07,-209.59 918.04,-218.35 922.2,-212.72"/>
</g>
<!-- Node15&#45;&gt;Node22 -->
<g id="edge35" class="edge">
<title>Node15&#45;&gt;Node22</title>
<path fill="none" stroke="midnightblue" d="M1040.16,-251.94C1124.23,-239.77 1277.7,-217.55 1364.9,-204.92"/>
<polygon fill="midnightblue" stroke="midnightblue" points="1365.54,-208.37 1374.94,-203.47 1364.54,-201.44 1365.54,-208.37"/>
</g>
<!-- Node15&#45;&gt;Node23 -->
<g id="edge39" class="edge">
<title>Node15&#45;&gt;Node23</title>
<path fill="none" stroke="midnightblue" d="M924.51,-251.99C858.95,-242.08 747.6,-225.13 652,-210 643.24,-208.61 633.99,-207.13 624.91,-205.66"/>
<polygon fill="midnightblue" stroke="midnightblue" points="625.19,-202.16 614.76,-204.01 624.07,-209.07 625.19,-202.16"/>
</g>
<!-- Node15&#45;&gt;Node24 -->
<g id="edge42" class="edge">
<title>Node15&#45;&gt;Node24</title>
<path fill="none" stroke="midnightblue" d="M1058.7,-256.75C1179.52,-250.38 1419.61,-235.59 1622,-210 1631.27,-208.83 1641.09,-207.34 1650.59,-205.76"/>
<polygon fill="midnightblue" stroke="midnightblue" points="1651.48,-209.16 1660.75,-204.03 1650.3,-202.26 1651.48,-209.16"/>
</g>
<!-- Node28 -->
<g id="node28" class="node">
<title>Node28</title>
<g id="a_node28"><a xlink:title=" ">
<polygon fill="white" stroke="#bfbfbf" points="767,-185 767,-204 815,-204 815,-185 767,-185"/>
<text text-anchor="middle" x="791" y="-192" font-family="Helvetica,sans-Serif" font-size="10.00">thread</text>
</a>
</g>
</g>
<!-- Node15&#45;&gt;Node28 -->
<g id="edge49" class="edge">
<title>Node15&#45;&gt;Node28</title>
<path fill="none" stroke="midnightblue" d="M951.98,-251.96C920.45,-242.49 868.72,-226.36 825,-210 823.35,-209.38 821.66,-208.73 819.96,-208.06"/>
<polygon fill="midnightblue" stroke="midnightblue" points="820.88,-204.65 810.3,-204.09 818.22,-211.12 820.88,-204.65"/>
</g>
<!-- Node29 -->
<g id="node29" class="node">
<title>Node29</title>
<g id="a_node29"><a xlink:title=" ">
<polygon fill="white" stroke="#bfbfbf" points="661,-185 661,-204 711,-204 711,-185 661,-185"/>
<text text-anchor="middle" x="686" y="-192" font-family="Helvetica,sans-Serif" font-size="10.00">atomic</text>
</a>
</g>
</g>
<!-- Node15&#45;&gt;Node29 -->
<g id="edge50" class="edge">
<title>Node15&#45;&gt;Node29</title>
<path fill="none" stroke="midnightblue" d="M924.2,-251.99C871.91,-243.53 792.46,-229.06 725,-210 722.35,-209.25 719.63,-208.41 716.92,-207.51"/>
<polygon fill="midnightblue" stroke="midnightblue" points="717.85,-204.12 707.25,-204.11 715.52,-210.73 717.85,-204.12"/>
</g>
<!-- Node16&#45;&gt;Node8 -->
<g id="edge23" class="edge">
<title>Node16&#45;&gt;Node8</title>
<path fill="none" stroke="midnightblue" d="M1085.18,-188.75C924.32,-175.96 486.16,-141.15 360.88,-131.19"/>
<polygon fill="midnightblue" stroke="midnightblue" points="360.98,-127.69 350.73,-130.39 360.43,-134.67 360.98,-127.69"/>
</g>
<!-- Node16&#45;&gt;Node12 -->
<g id="edge22" class="edge">
<title>Node16&#45;&gt;Node12</title>
<path fill="none" stroke="midnightblue" d="M1164.21,-179.34C1189.13,-161.53 1234.45,-130.98 1277,-112 1317.1,-94.11 1366.22,-81.12 1397.81,-73.82"/>
<polygon fill="midnightblue" stroke="midnightblue" points="1398.83,-77.18 1407.81,-71.56 1397.29,-70.35 1398.83,-77.18"/>
</g>
<!-- Node16&#45;&gt;Node14 -->
<g id="edge21" class="edge">
<title>Node16&#45;&gt;Node14</title>
<path fill="none" stroke="midnightblue" d="M1181.89,-179.4C1212.11,-167.84 1254.44,-151.66 1283.19,-140.66"/>
<polygon fill="midnightblue" stroke="midnightblue" points="1284.66,-143.85 1292.75,-137.01 1282.16,-137.31 1284.66,-143.85"/>
</g>
<!-- Node17&#45;&gt;Node11 -->
<g id="edge33" class="edge">
<title>Node17&#45;&gt;Node11</title>
<path fill="none" stroke="midnightblue" d="M861.86,-179.47C846.11,-170.95 827.87,-158.68 816,-143 803.24,-126.15 797.16,-102.35 794.34,-85.89"/>
<polygon fill="midnightblue" stroke="midnightblue" points="797.78,-85.23 792.86,-75.85 790.85,-86.25 797.78,-85.23"/>
</g>
<!-- Node17&#45;&gt;Node12 -->
<g id="edge34" class="edge">
<title>Node17&#45;&gt;Node12</title>
<path fill="none" stroke="midnightblue" d="M922.58,-179.29C941.87,-169.7 967.39,-156.38 989,-143 1009.03,-130.6 1010.02,-120.49 1032,-112 1098.73,-86.23 1315.25,-72.82 1397.71,-68.54"/>
<polygon fill="midnightblue" stroke="midnightblue" points="1397.94,-72.04 1407.75,-68.03 1397.59,-65.04 1397.94,-72.04"/>
</g>
<!-- Node18 -->
<g id="node18" class="node">
<title>Node18</title>
<g id="a_node18"><a xlink:href="iparameter__store_8h.html" target="_top" xlink:title="Type&#45;erased key/value parameter store interface.">
<polygon fill="white" stroke="black" points="858.5,-112.5 858.5,-142.5 979.5,-142.5 979.5,-112.5 858.5,-112.5"/>
<text text-anchor="start" x="866.5" y="-130.5" font-family="Helvetica,sans-Serif" font-size="10.00">depz/core/iparameter</text>
<text text-anchor="middle" x="919" y="-119.5" font-family="Helvetica,sans-Serif" font-size="10.00">_store.h</text>
</a>
</g>
</g>
<!-- Node17&#45;&gt;Node18 -->
<g id="edge26" class="edge">
<title>Node17&#45;&gt;Node18</title>
<path fill="none" stroke="midnightblue" d="M898.64,-179.4C901.84,-171.39 905.94,-161.16 909.61,-151.98"/>
<polygon fill="midnightblue" stroke="midnightblue" points="912.91,-153.16 913.37,-142.58 906.41,-150.56 912.91,-153.16"/>
</g>
<!-- Node18&#45;&gt;Node9 -->
<g id="edge28" class="edge">
<title>Node18&#45;&gt;Node9</title>
<path fill="none" stroke="midnightblue" d="M858.06,-118.16C765.79,-105.54 593.57,-81.99 519.43,-71.85"/>
<polygon fill="midnightblue" stroke="midnightblue" points="519.61,-68.34 509.23,-70.45 518.66,-75.27 519.61,-68.34"/>
</g>
<!-- Node18&#45;&gt;Node11 -->
<g id="edge27" class="edge">
<title>Node18&#45;&gt;Node11</title>
<path fill="none" stroke="midnightblue" d="M888.9,-112.4C867.88,-102.55 840.03,-89.5 819.58,-79.92"/>
<polygon fill="midnightblue" stroke="midnightblue" points="821.02,-76.73 810.48,-75.66 818.05,-83.07 821.02,-76.73"/>
</g>
<!-- Node18&#45;&gt;Node12 -->
<g id="edge30" class="edge">
<title>Node18&#45;&gt;Node12</title>
<path fill="none" stroke="midnightblue" d="M979.5,-114.33C984.4,-113.49 989.28,-112.7 994,-112 1144,-89.8 1324.66,-74.9 1397.36,-69.38"/>
<polygon fill="midnightblue" stroke="midnightblue" points="1397.97,-72.84 1407.68,-68.6 1397.45,-65.86 1397.97,-72.84"/>
</g>
<!-- Node19 -->
<g id="node19" class="node">
<title>Node19</title>
<g id="a_node19"><a xlink:title=" ">
<polygon fill="white" stroke="#bfbfbf" points="1893,-56.5 1893,-75.5 1949,-75.5 1949,-56.5 1893,-56.5"/>
<text text-anchor="middle" x="1921" y="-63.5" font-family="Helvetica,sans-Serif" font-size="10.00">optional</text>
</a>
</g>
</g>
<!-- Node18&#45;&gt;Node19 -->
<g id="edge29" class="edge">
<title>Node18&#45;&gt;Node19</title>
<path fill="none" stroke="midnightblue" d="M979.68,-119.84C1005.9,-117.12 1036.93,-114.13 1065,-112 1380.45,-88.06 1762.27,-72.85 1882.71,-68.38"/>
<polygon fill="midnightblue" stroke="midnightblue" points="1883.03,-71.87 1892.89,-68 1882.77,-64.87 1883.03,-71.87"/>
</g>
<!-- Node20 -->
<g id="node20" class="node">
<title>Node20</title>
<g id="a_node20"><a xlink:title=" ">
<polygon fill="white" stroke="#bfbfbf" points="950.5,-56.5 950.5,-75.5 1019.5,-75.5 1019.5,-56.5 950.5,-56.5"/>
<text text-anchor="middle" x="985" y="-63.5" font-family="Helvetica,sans-Serif" font-size="10.00">type_traits</text>
</a>
</g>
</g>
<!-- Node18&#45;&gt;Node20 -->
<g id="edge31" class="edge">
<title>Node18&#45;&gt;Node20</title>
<path fill="none" stroke="midnightblue" d="M934.64,-112.4C944.63,-103.4 957.58,-91.72 967.85,-82.47"/>
<polygon fill="midnightblue" stroke="midnightblue" points="970.31,-84.95 975.4,-75.66 965.63,-79.75 970.31,-84.95"/>
</g>
<!-- Node21 -->
<g id="node21" class="node">
<title>Node21</title>
<g id="a_node21"><a xlink:title=" ">
<polygon fill="white" stroke="#bfbfbf" points="881.5,-56.5 881.5,-75.5 932.5,-75.5 932.5,-56.5 881.5,-56.5"/>
<text text-anchor="middle" x="907" y="-63.5" font-family="Helvetica,sans-Serif" font-size="10.00">variant</text>
</a>
</g>
</g>
<!-- Node18&#45;&gt;Node21 -->
<g id="edge32" class="edge">
<title>Node18&#45;&gt;Node21</title>
<path fill="none" stroke="midnightblue" d="M916.16,-112.4C914.54,-104.38 912.49,-94.23 910.75,-85.57"/>
<polygon fill="midnightblue" stroke="midnightblue" points="914.15,-84.77 908.75,-75.66 907.29,-86.15 914.15,-84.77"/>
</g>
<!-- Node22&#45;&gt;Node11 -->
<g id="edge36" class="edge">
<title>Node22&#45;&gt;Node11</title>
<path fill="none" stroke="midnightblue" d="M1421.41,-179.24C1409.01,-160.1 1384.11,-126.81 1353,-112 1256.42,-66.02 979.51,-85.91 873,-76 868.88,-75.62 864.64,-75.2 860.37,-74.77"/>
<polygon fill="midnightblue" stroke="midnightblue" points="860.68,-71.29 850.38,-73.74 859.96,-78.25 860.68,-71.29"/>
</g>
<!-- Node22&#45;&gt;Node12 -->
<g id="edge37" class="edge">
<title>Node22&#45;&gt;Node12</title>
<path fill="none" stroke="midnightblue" d="M1430,-179.48C1430,-156.72 1430,-111.7 1430,-86.06"/>
<polygon fill="midnightblue" stroke="midnightblue" points="1433.5,-85.79 1430,-75.79 1426.5,-85.79 1433.5,-85.79"/>
</g>
<!-- Node22&#45;&gt;Node14 -->
<g id="edge38" class="edge">
<title>Node22&#45;&gt;Node14</title>
<path fill="none" stroke="midnightblue" d="M1405.05,-179.4C1385.4,-168.29 1358.21,-152.92 1338.85,-141.98"/>
<polygon fill="midnightblue" stroke="midnightblue" points="1340.48,-138.88 1330.05,-137.01 1337.03,-144.97 1340.48,-138.88"/>
</g>
<!-- Node23&#45;&gt;Node11 -->
<g id="edge40" class="edge">
<title>Node23&#45;&gt;Node11</title>
<path fill="none" stroke="midnightblue" d="M578.74,-184.81C617.97,-163.13 720.33,-106.59 767.52,-80.52"/>
<polygon fill="midnightblue" stroke="midnightblue" points="769.39,-83.49 776.45,-75.59 766.01,-77.36 769.39,-83.49"/>
</g>
<!-- Node23&#45;&gt;Node14 -->
<g id="edge41" class="edge">
<title>Node23&#45;&gt;Node14</title>
<path fill="none" stroke="midnightblue" d="M609.99,-184.96C623.52,-182.75 638.31,-180.55 652,-179 901.14,-150.81 965.62,-169.01 1215,-143 1235.08,-140.91 1257.31,-137.77 1275.7,-134.94"/>
<polygon fill="midnightblue" stroke="midnightblue" points="1276.42,-138.37 1285.76,-133.37 1275.34,-131.46 1276.42,-138.37"/>
</g>
<!-- Node24&#45;&gt;Node19 -->
<g id="edge45" class="edge">
<title>Node24&#45;&gt;Node19</title>
<path fill="none" stroke="midnightblue" d="M1719.85,-184.81C1756.77,-163.18 1853,-106.82 1897.63,-80.68"/>
<polygon fill="midnightblue" stroke="midnightblue" points="1899.47,-83.66 1906.34,-75.59 1895.94,-77.62 1899.47,-83.66"/>
</g>
<!-- Node25 -->
<g id="node25" class="node">
<title>Node25</title>
<g id="a_node25"><a xlink:title=" ">
<polygon fill="white" stroke="#bfbfbf" points="1661.5,-118 1661.5,-137 1768.5,-137 1768.5,-118 1661.5,-118"/>
<text text-anchor="middle" x="1715" y="-125" font-family="Helvetica,sans-Serif" font-size="10.00">condition_variable</text>
</a>
</g>
</g>
<!-- Node24&#45;&gt;Node25 -->
<g id="edge43" class="edge">
<title>Node24&#45;&gt;Node25</title>
<path fill="none" stroke="midnightblue" d="M1706.35,-184.73C1707.82,-175.18 1710.21,-159.62 1712.11,-147.28"/>
<polygon fill="midnightblue" stroke="midnightblue" points="1715.61,-147.54 1713.67,-137.13 1708.69,-146.48 1715.61,-147.54"/>
</g>
<!-- Node26 -->
<g id="node26" class="node">
<title>Node26</title>
<g id="a_node26"><a xlink:title=" ">
<polygon fill="white" stroke="#bfbfbf" points="1464,-118 1464,-137 1512,-137 1512,-118 1464,-118"/>
<text text-anchor="middle" x="1488" y="-125" font-family="Helvetica,sans-Serif" font-size="10.00">mutex</text>
</a>
</g>
</g>
<!-- Node24&#45;&gt;Node26 -->
<g id="edge44" class="edge">
<title>Node24&#45;&gt;Node26</title>
<path fill="none" stroke="midnightblue" d="M1676.18,-184.87C1636.27,-172.91 1564.28,-151.35 1521.85,-138.64"/>
<polygon fill="midnightblue" stroke="midnightblue" points="1522.83,-135.28 1512.25,-135.76 1520.82,-141.99 1522.83,-135.28"/>
</g>
<!-- Node27 -->
<g id="node27" class="node">
<title>Node27</title>
<g id="a_node27"><a xlink:title=" ">
<polygon fill="white" stroke="#bfbfbf" points="1596.5,-118 1596.5,-137 1643.5,-137 1643.5,-118 1596.5,-118"/>
<text text-anchor="middle" x="1620" y="-125" font-family="Helvetica,sans-Serif" font-size="10.00">queue</text>
</a>
</g>
</g>
<!-- Node24&#45;&gt;Node27 -->
<g id="edge46" class="edge">
<title>Node24&#45;&gt;Node27</title>
<path fill="none" stroke="midnightblue" d="M1693.54,-184.73C1679.64,-174.11 1656.02,-156.05 1639.31,-143.26"/>
<polygon fill="midnightblue" stroke="midnightblue" points="1641.35,-140.42 1631.28,-137.13 1637.1,-145.98 1641.35,-140.42"/>
</g>
<!-- Node30&#45;&gt;Node12 -->
<g id="edge56" class="edge">
<title>Node30&#45;&gt;Node12</title>
<path fill="none" stroke="midnightblue" d="M1942.01,-251.9C1935.43,-225.66 1911.76,-146.39 1859,-112 1793.66,-69.4 1550.6,-66.33 1462.31,-66.67"/>
<polygon fill="midnightblue" stroke="midnightblue" points="1462.08,-63.17 1452.1,-66.73 1462.12,-70.17 1462.08,-63.17"/>
</g>
<!-- Node30&#45;&gt;Node17 -->
<g id="edge54" class="edge">
<title>Node30&#45;&gt;Node17</title>
<path fill="none" stroke="midnightblue" d="M1873,-255.61C1830.15,-252.7 1774.44,-249.01 1725,-246 1437.09,-228.47 1364.8,-229.33 1077,-210 1039.33,-207.47 997.37,-204.2 963.03,-201.4"/>
<polygon fill="midnightblue" stroke="midnightblue" points="962.89,-197.88 952.64,-200.55 962.32,-204.86 962.89,-197.88"/>
</g>
<!-- Node30&#45;&gt;Node19 -->
<g id="edge55" class="edge">
<title>Node30&#45;&gt;Node19</title>
<path fill="none" stroke="midnightblue" d="M1942.98,-251.94C1939.52,-222.79 1928.13,-126.97 1923.25,-85.93"/>
<polygon fill="midnightblue" stroke="midnightblue" points="1926.71,-85.42 1922.06,-75.91 1919.76,-86.25 1926.71,-85.42"/>
</g>
<!-- Node31&#45;&gt;Node12 -->
<g id="edge60" class="edge">
<title>Node31&#45;&gt;Node12</title>
<path fill="none" stroke="midnightblue" d="M1692.49,-313.39C1721.75,-294.24 1770.18,-256.96 1789,-210 1798.24,-186.96 1781.33,-115.22 1778,-112 1733.44,-68.94 1539.95,-65.9 1462.36,-66.47"/>
<polygon fill="midnightblue" stroke="midnightblue" points="1462.17,-62.97 1452.21,-66.57 1462.24,-69.97 1462.17,-62.97"/>
</g>
<!-- Node31&#45;&gt;Node18 -->
<g id="edge58" class="edge">
<title>Node31&#45;&gt;Node18</title>
<path fill="none" stroke="midnightblue" d="M1617.94,-327.15C1521.48,-325.54 1317.07,-317.31 1261,-277 1221.78,-248.8 1252.56,-208.1 1214,-179 1196.33,-165.66 1071.4,-147.7 989.88,-137.18"/>
<polygon fill="midnightblue" stroke="midnightblue" points="990.03,-133.67 979.67,-135.87 989.15,-140.61 990.03,-133.67"/>
</g>
<!-- Node31&#45;&gt;Node30 -->
<g id="edge59" class="edge">
<title>Node31&#45;&gt;Node30</title>
<path fill="none" stroke="midnightblue" d="M1720.08,-315.43C1771.09,-303.37 1848.77,-285.01 1897.94,-273.39"/>
<polygon fill="midnightblue" stroke="midnightblue" points="1898.75,-276.79 1907.67,-271.09 1897.14,-269.98 1898.75,-276.79"/>
</g>
<!-- Node32 -->
<g id="node32" class="node">
<title>Node32</title>
<g id="a_node32"><a xlink:title=" ">
<polygon fill="white" stroke="#bfbfbf" points="1622.5,-252 1622.5,-271 1715.5,-271 1715.5,-252 1622.5,-252"/>
<text text-anchor="middle" x="1669" y="-259" font-family="Helvetica,sans-Serif" font-size="10.00">unordered_map</text>
</a>
</g>
</g>
<!-- Node31&#45;&gt;Node32 -->
<g id="edge61" class="edge">
<title>Node31&#45;&gt;Node32</title>
<path fill="none" stroke="midnightblue" d="M1669,-313.4C1669,-304.06 1669,-291.71 1669,-281.52"/>
<polygon fill="midnightblue" stroke="midnightblue" points="1672.5,-281.19 1669,-271.19 1665.5,-281.19 1672.5,-281.19"/>
</g>
<!-- Node33&#45;&gt;Node12 -->
<g id="edge63" class="edge">
<title>Node33&#45;&gt;Node12</title>
<path fill="none" stroke="midnightblue" d="M1845.8,-313.26C1849.83,-274.36 1855.04,-165.58 1796,-112 1747.45,-67.94 1542.33,-65.58 1462.23,-66.39"/>
<polygon fill="midnightblue" stroke="midnightblue" points="1462.18,-62.89 1452.23,-66.52 1462.27,-69.89 1462.18,-62.89"/>
</g>
<!-- Node33&#45;&gt;Node30 -->
<g id="edge64" class="edge">
<title>Node33&#45;&gt;Node30</title>
<path fill="none" stroke="midnightblue" d="M1865.7,-313.4C1882.47,-302.5 1905.57,-287.48 1922.33,-276.58"/>
<polygon fill="midnightblue" stroke="midnightblue" points="1924.44,-279.39 1930.91,-271.01 1920.62,-273.52 1924.44,-279.39"/>
</g>
<!-- Node34&#45;&gt;Node11 -->
<g id="edge68" class="edge">
<title>Node34&#45;&gt;Node11</title>
<path fill="none" stroke="midnightblue" d="M1322.23,-251.94C1303.92,-234.65 1259.52,-195.8 1214,-179 1061.49,-122.72 991.98,-222.18 850,-143 826.63,-129.96 809.69,-103.2 800.35,-85.17"/>
<polygon fill="midnightblue" stroke="midnightblue" points="803.38,-83.41 795.84,-75.96 797.1,-86.49 803.38,-83.41"/>
</g>
<!-- Node34&#45;&gt;Node14 -->
<g id="edge67" class="edge">
<title>Node34&#45;&gt;Node14</title>
<path fill="none" stroke="midnightblue" d="M1330.33,-251.92C1329.12,-237.04 1326.4,-205.51 1323,-179 1321.64,-168.37 1319.78,-156.53 1318.2,-146.99"/>
<polygon fill="midnightblue" stroke="midnightblue" points="1321.64,-146.33 1316.51,-137.06 1314.73,-147.5 1321.64,-146.33"/>
</g>
<!-- Node34&#45;&gt;Node22 -->
<g id="edge66" class="edge">
<title>Node34&#45;&gt;Node22</title>
<path fill="none" stroke="midnightblue" d="M1344.35,-251.73C1358.57,-242.4 1381.53,-227.32 1400.1,-215.13"/>
<polygon fill="midnightblue" stroke="midnightblue" points="1402.1,-218 1408.54,-209.59 1398.26,-212.15 1402.1,-218"/>
</g>
<!-- Node35&#45;&gt;Node3 -->
<g id="edge73" class="edge">
<title>Node35&#45;&gt;Node3</title>
<path fill="none" stroke="midnightblue" d="M301.93,-251.99C288.76,-243.22 269.71,-228.27 260,-210 228.24,-150.23 228.54,-66.76 230.54,-29.84"/>
<polygon fill="midnightblue" stroke="midnightblue" points="234.05,-29.79 231.22,-19.58 227.07,-29.33 234.05,-29.79"/>
</g>
<!-- Node35&#45;&gt;Node7 -->
<g id="edge71" class="edge">
<title>Node35&#45;&gt;Node7</title>
<path fill="none" stroke="midnightblue" d="M297.94,-251.87C274.77,-240.8 234.37,-221.49 207.4,-208.6"/>
<polygon fill="midnightblue" stroke="midnightblue" points="208.67,-205.32 198.13,-204.17 205.65,-211.64 208.67,-205.32"/>
</g>
<!-- Node35&#45;&gt;Node8 -->
<g id="edge72" class="edge">
<title>Node35&#45;&gt;Node8</title>
<path fill="none" stroke="midnightblue" d="M317.17,-251.94C318.5,-241.91 320.67,-224.77 322,-210 323.92,-188.64 325.32,-164.06 326.14,-147.53"/>
<polygon fill="midnightblue" stroke="midnightblue" points="329.66,-147.23 326.63,-137.08 322.67,-146.9 329.66,-147.23"/>
</g>
<!-- Node35&#45;&gt;Node11 -->
<g id="edge70" class="edge">
<title>Node35&#45;&gt;Node11</title>
<path fill="none" stroke="midnightblue" d="M323.07,-251.95C345.18,-225.87 416.19,-146.99 494,-112 567.91,-78.77 661.46,-69.27 723.84,-66.96"/>
<polygon fill="midnightblue" stroke="midnightblue" points="724.07,-70.45 733.96,-66.64 723.85,-63.46 724.07,-70.45"/>
</g>
<!-- Node36 -->
<g id="node36" class="node">
<title>Node36</title>
<g id="a_node36"><a xlink:title=" ">
<polygon fill="white" stroke="#bfbfbf" points="269,-185 269,-204 313,-204 313,-185 269,-185"/>
<text text-anchor="middle" x="291" y="-192" font-family="Helvetica,sans-Serif" font-size="10.00">limits</text>
</a>
</g>
</g>
<!-- Node35&#45;&gt;Node36 -->
<g id="edge74" class="edge">
<title>Node35&#45;&gt;Node36</title>
<path fill="none" stroke="midnightblue" d="M312.63,-251.73C308.88,-241.99 302.72,-225.98 297.94,-213.53"/>
<polygon fill="midnightblue" stroke="midnightblue" points="301.17,-212.2 294.32,-204.13 294.64,-214.72 301.17,-212.2"/>
</g>
<!-- Node37&#45;&gt;Node11 -->
<g id="edge80" class="edge">
<title>Node37&#45;&gt;Node11</title>
<path fill="none" stroke="midnightblue" d="M510.31,-246.45C492.09,-238.79 473.6,-227.23 463,-210 455.78,-198.27 455.05,-190.25 463,-179 521.72,-95.88 645.9,-73.67 723.77,-68.19"/>
<polygon fill="midnightblue" stroke="midnightblue" points="724.21,-71.67 733.97,-67.55 723.77,-64.68 724.21,-71.67"/>
</g>
<!-- Node37&#45;&gt;Node23 -->
<g id="edge79" class="edge">
<title>Node37&#45;&gt;Node23</title>
<path fill="none" stroke="midnightblue" d="M563,-246.4C563,-237.06 563,-224.71 563,-214.52"/>
<polygon fill="midnightblue" stroke="midnightblue" points="566.5,-214.19 563,-204.19 559.5,-214.19 566.5,-214.19"/>
</g>
<!-- Node37&#45;&gt;Node26 -->
<g id="edge81" class="edge">
<title>Node37&#45;&gt;Node26</title>
<path fill="none" stroke="midnightblue" d="M528.18,-246.38C493.95,-230.59 450.06,-203.94 474,-179 507.84,-143.74 1304.26,-146.61 1353,-143 1387.24,-140.46 1426.22,-136.12 1453.47,-132.84"/>
<polygon fill="midnightblue" stroke="midnightblue" points="1454.15,-136.29 1463.66,-131.6 1453.31,-129.34 1454.15,-136.29"/>
</g>
<!-- Node37&#45;&gt;Node29 -->
<g id="edge82" class="edge">
<title>Node37&#45;&gt;Node29</title>
<path fill="none" stroke="midnightblue" d="M589.69,-246.4C610.89,-235.19 640.32,-219.64 661.05,-208.69"/>
<polygon fill="midnightblue" stroke="midnightblue" points="662.7,-211.77 669.9,-204.01 659.43,-205.58 662.7,-211.77"/>
</g>
<!-- Node38&#45;&gt;Node12 -->
<g id="edge86" class="edge">
<title>Node38&#45;&gt;Node12</title>
<path fill="none" stroke="midnightblue" d="M2093.08,-318.77C2099.75,-303.12 2111,-269.72 2098,-246 2044.78,-148.91 1992.64,-148.19 1888,-112 1809,-84.68 1553.16,-71.96 1462.35,-68.22"/>
<polygon fill="midnightblue" stroke="midnightblue" points="1462.25,-64.71 1452.11,-67.81 1461.96,-71.71 1462.25,-64.71"/>
</g>
<!-- Node39 -->
<g id="node39" class="node">
<title>Node39</title>
<g id="a_node39"><a xlink:title=" ">
<polygon fill="white" stroke="#bfbfbf" points="2145,-252 2145,-271 2205,-271 2205,-252 2145,-252"/>
<text text-anchor="middle" x="2175" y="-259" font-family="Helvetica,sans-Serif" font-size="10.00">iostream</text>
</a>
</g>
</g>
<!-- Node38&#45;&gt;Node39 -->
<g id="edge84" class="edge">
<title>Node38&#45;&gt;Node39</title>
<path fill="none" stroke="midnightblue" d="M2100.6,-318.73C2114.65,-308.11 2138.55,-290.05 2155.47,-277.26"/>
<polygon fill="midnightblue" stroke="midnightblue" points="2157.72,-279.95 2163.59,-271.13 2153.5,-274.36 2157.72,-279.95"/>
</g>
<!-- Node40 -->
<g id="node40" class="node">
<title>Node40</title>
<g id="a_node40"><a xlink:title=" ">
<polygon fill="white" stroke="#bfbfbf" points="2033,-252 2033,-271 2089,-271 2089,-252 2033,-252"/>
<text text-anchor="middle" x="2061" y="-259" font-family="Helvetica,sans-Serif" font-size="10.00">sstream</text>
</a>
</g>
</g>
<!-- Node38&#45;&gt;Node40 -->
<g id="edge85" class="edge">
<title>Node38&#45;&gt;Node40</title>
<path fill="none" stroke="midnightblue" d="M2085.22,-318.73C2081.03,-308.99 2074.13,-292.98 2068.77,-280.53"/>
<polygon fill="midnightblue" stroke="midnightblue" points="2071.89,-278.93 2064.72,-271.13 2065.46,-281.7 2071.89,-278.93"/>
</g>
</g>
</svg>
