<?xml version="1.0" encoding="UTF-8" standalone="no"?>
<!DOCTYPE svg PUBLIC "-//W3C//DTD SVG 1.1//EN"
 "http://www.w3.org/Graphics/SVG/1.1/DTD/svg11.dtd">
<!-- Generated by graphviz version 2.43.0 (0)
 -->
<!-- Title: include/depz/controls Pages: 1 -->
<svg width="96pt" height="167pt"
 viewBox="0.00 0.00 96.00 167.00" xmlns="http://www.w3.org/2000/svg" xmlns:xlink="http://www.w3.org/1999/xlink">
<g id="graph0" class="graph" transform="scale(1 1) rotate(0) translate(4 163)">
<title>include/depz/controls</title>
<polygon fill="white" stroke="transparent" points="-4,4 -4,-163 92,-163 92,4 -4,4"/>
<g id="clust1" class="cluster">
<title>clusterdir_a1e9a1d5c6cda4eb70d04ce20d0abc26</title>
<g id="a_clust1"><a xlink:href="dir_a1e9a1d5c6cda4eb70d04ce20d0abc26.html" target="_top" xlink:title="depz">
<polygon fill="#ddddee" stroke="black" points="8,-8 8,-151 80,-151 80,-8 8,-8"/>
<text text-anchor="middle" x="44" y="-139" font-family="Helvetica,sans-Serif" font-size="10.00">depz</text>
</a>
</g>
</g>
<!-- dir_71232ddc3ae1bd3a847a61b9d91f14d6 -->
<g id="node1" class="node">
<title>dir_71232ddc3ae1bd3a847a61b9d91f14d6</title>
<g id="a_node1"><a xlink:href="dir_71232ddc3ae1bd3a847a61b9d91f14d6.html" target="_top" xlink:title="core">
<polygon fill="white" stroke="red" points="71,-52 17,-52 17,-16 71,-16 71,-52"/>
<text text-anchor="middle" x="44" y="-31.5" font-family="Helvetica,sans-Serif" font-size="10.00">core</text>
</a>
</g>
</g>
<!-- dir_152ce2f476906bac31d97c2be7b6a47b -->
<g id="node2" class="node">
<title>dir_152ce2f476906bac31d97c2be7b6a47b</title>
<g id="a_node2"><a xlink:href="dir_152ce2f476906bac31d97c2be7b6a47b.html" target="_top" xlink:title="controls">
<polygon fill="#eeeeff" stroke="black" points="72,-124 16,-124 16,-88 72,-88 72,-124"/>
<text text-anchor="middle" x="44" y="-103.5" font-family="Helvetica,sans-Serif" font-size="10.00">controls</text>
</a>
</g>
</g>
<!-- dir_152ce2f476906bac31d97c2be7b6a47b&#45;&gt;dir_71232ddc3ae1bd3a847a61b9d91f14d6 -->
<g id="edge1" class="edge">
<title>dir_152ce2f476906bac31d97c2be7b6a47b&#45;&gt;dir_71232ddc3ae1bd3a847a61b9d91f14d6</title>
<path fill="none" stroke="black" d="M44,-87.7C44,-79.98 44,-70.71 44,-62.11"/>
<polygon fill="black" stroke="black" points="47.5,-62.1 44,-52.1 40.5,-62.1 47.5,-62.1"/>
<g id="a_edge1&#45;headlabel"><a xlink:href="dir_000014_000015.html" target="_top" xlink:title="1">
<text text-anchor="middle" x="50.34" y="-63.2" font-family="Helvetica,sans-Serif" font-size="10.00">1</text>
</a>
</g>
</g>
</g>
</svg>
