<?xml version="1.0" encoding="UTF-8" standalone="no"?>
<!DOCTYPE svg PUBLIC "-//W3C//DTD SVG 1.1//EN"
 "http://www.w3.org/Graphics/SVG/1.1/DTD/svg11.dtd">
<!-- Generated by graphviz version 2.43.0 (0)
 -->
<!-- Title: include/depz Pages: 1 -->
<svg width="296pt" height="399pt"
 viewBox="0.00 0.00 296.00 399.00" xmlns="http://www.w3.org/2000/svg" xmlns:xlink="http://www.w3.org/1999/xlink">
<g id="graph0" class="graph" transform="scale(1 1) rotate(0) translate(4 395)">
<title>include/depz</title>
<polygon fill="white" stroke="transparent" points="-4,4 -4,-395 292,-395 292,4 -4,4"/>
<g id="clust1" class="cluster">
<title>clusterdir_d44c64559bbebec7f509842c48db8b23</title>
<g id="a_clust1"><a xlink:href="dir_d44c64559bbebec7f509842c48db8b23.html" target="_top" xlink:title="include">
<polygon fill="#ddddee" stroke="black" points="8,-8 8,-383 280,-383 280,-8 8,-8"/>
<text text-anchor="middle" x="144" y="-371" font-family="Helvetica,sans-Serif" font-size="10.00">include</text>
</a>
</g>
</g>
<g id="clust2" class="cluster">
<title>clusterdir_a1e9a1d5c6cda4eb70d04ce20d0abc26</title>
<g id="a_clust2"><a xlink:href="dir_a1e9a1d5c6cda4eb70d04ce20d0abc26.html" target="_top">
<polygon fill="#eeeeff" stroke="black" points="16,-16 16,-356 272,-356 272,-16 16,-16"/>
</a>
</g>
</g>
<!-- dir_a1e9a1d5c6cda4eb70d04ce20d0abc26 -->
<g id="node1" class="node">
<title>dir_a1e9a1d5c6cda4eb70d04ce20d0abc26</title>
<text text-anchor="middle" x="195" y="-327.5" font-family="Helvetica,sans-Serif" font-size="10.00">depz</text>
</g>
<!-- dir_fa2b85903e75369b41e8101548aa372e -->
<g id="node3" class="node">
<title>dir_fa2b85903e75369b41e8101548aa372e</title>
<g id="a_node3"><a xlink:href="dir_fa2b85903e75369b41e8101548aa372e.html" target="_top" xlink:title="camera">
<polygon fill="white" stroke="black" points="195,-276 141,-276 141,-240 195,-240 195,-276"/>
<text text-anchor="middle" x="168" y="-255.5" font-family="Helvetica,sans-Serif" font-size="10.00">camera</text>
</a>
</g>
</g>
<!-- dir_a1e9a1d5c6cda4eb70d04ce20d0abc26&#45;&gt;dir_fa2b85903e75369b41e8101548aa372e -->
<g id="edge10" class="edge">
<title>dir_a1e9a1d5c6cda4eb70d04ce20d0abc26&#45;&gt;dir_fa2b85903e75369b41e8101548aa372e</title>
<path fill="none" stroke="black" d="M188.33,-311.7C185.29,-303.81 181.62,-294.3 178.24,-285.55"/>
<polygon fill="black" stroke="black" points="181.46,-284.17 174.6,-276.1 174.93,-286.69 181.46,-284.17"/>
<g id="a_edge10&#45;headlabel"><a xlink:href="dir_000011_000013.html" target="_top" xlink:title="2">
<text text-anchor="middle" x="185.4" y="-284.01" font-family="Helvetica,sans-Serif" font-size="10.00">2</text>
</a>
</g>
</g>
<!-- dir_00ac3533ce26e64154e27327dce16a2c -->
<g id="node7" class="node">
<title>dir_00ac3533ce26e64154e27327dce16a2c</title>
<g id="a_node7"><a xlink:href="dir_00ac3533ce26e64154e27327dce16a2c.html" target="_top" xlink:title="math">
<polygon fill="white" stroke="black" points="123,-276 69,-276 69,-240 123,-240 123,-276"/>
<text text-anchor="middle" x="96" y="-255.5" font-family="Helvetica,sans-Serif" font-size="10.00">math</text>
</a>
</g>
</g>
<!-- dir_a1e9a1d5c6cda4eb70d04ce20d0abc26&#45;&gt;dir_00ac3533ce26e64154e27327dce16a2c -->
<g id="edge7" class="edge">
<title>dir_a1e9a1d5c6cda4eb70d04ce20d0abc26&#45;&gt;dir_00ac3533ce26e64154e27327dce16a2c</title>
<path fill="none" stroke="black" d="M170.78,-311.88C158.08,-302.89 142.34,-291.76 128.58,-282.03"/>
<polygon fill="black" stroke="black" points="130.5,-279.11 120.31,-276.19 126.46,-284.82 130.5,-279.11"/>
<g id="a_edge7&#45;headlabel"><a xlink:href="dir_000011_000024.html" target="_top" xlink:title="4">
<text text-anchor="middle" x="135.07" y="-276.36" font-family="Helvetica,sans-Serif" font-size="10.00">4</text>
</a>
</g>
</g>
<!-- dir_8b81fdc9ef9af08c698f95a9dffd974a -->
<g id="node8" class="node">
<title>dir_8b81fdc9ef9af08c698f95a9dffd974a</title>
<g id="a_node8"><a xlink:href="dir_8b81fdc9ef9af08c698f95a9dffd974a.html" target="_top" xlink:title="processing">
<polygon fill="white" stroke="red" points="179.5,-60 110.5,-60 110.5,-24 179.5,-24 179.5,-60"/>
<text text-anchor="middle" x="145" y="-39.5" font-family="Helvetica,sans-Serif" font-size="10.00">processing</text>
</a>
</g>
</g>
<!-- dir_a1e9a1d5c6cda4eb70d04ce20d0abc26&#45;&gt;dir_8b81fdc9ef9af08c698f95a9dffd974a -->
<g id="edge9" class="edge">
<title>dir_a1e9a1d5c6cda4eb70d04ce20d0abc26&#45;&gt;dir_8b81fdc9ef9af08c698f95a9dffd974a</title>
<path fill="none" stroke="black" d="M167.99,-315.92C164.98,-314.56 161.93,-313.22 159,-312 115.79,-293.98 90.05,-311.9 60,-276 18.3,-226.19 40.58,-196.72 35,-132 33.63,-116.06 26.49,-109.55 35,-96 49.42,-73.05 76.88,-59.8 100.76,-52.29"/>
<polygon fill="black" stroke="black" points="101.75,-55.65 110.38,-49.5 99.8,-48.92 101.75,-55.65"/>
<g id="a_edge9&#45;headlabel"><a xlink:href="dir_000011_000025.html" target="_top" xlink:title="5">
<text text-anchor="middle" x="99.09" y="-56.87" font-family="Helvetica,sans-Serif" font-size="10.00">5</text>
</a>
</g>
</g>
<!-- dir_66f39e0ec9e36a0668d7605678ca9a99 -->
<g id="node10" class="node">
<title>dir_66f39e0ec9e36a0668d7605678ca9a99</title>
<g id="a_node10"><a xlink:href="dir_66f39e0ec9e36a0668d7605678ca9a99.html" target="_top" xlink:title="utils">
<polygon fill="white" stroke="black" points="264,-132 210,-132 210,-96 264,-96 264,-132"/>
<text text-anchor="middle" x="237" y="-111.5" font-family="Helvetica,sans-Serif" font-size="10.00">utils</text>
</a>
</g>
</g>
<!-- dir_a1e9a1d5c6cda4eb70d04ce20d0abc26&#45;&gt;dir_66f39e0ec9e36a0668d7605678ca9a99 -->
<g id="edge8" class="edge">
<title>dir_a1e9a1d5c6cda4eb70d04ce20d0abc26&#45;&gt;dir_66f39e0ec9e36a0668d7605678ca9a99</title>
<path fill="none" stroke="black" d="M198.37,-311.85C205.65,-274.75 222.91,-186.81 231.68,-142.1"/>
<polygon fill="black" stroke="black" points="235.13,-142.72 233.62,-132.23 228.26,-141.37 235.13,-142.72"/>
<g id="a_edge8&#45;headlabel"><a xlink:href="dir_000011_000028.html" target="_top" xlink:title="3">
<text text-anchor="middle" x="237.22" y="-144.29" font-family="Helvetica,sans-Serif" font-size="10.00">3</text>
</a>
</g>
</g>
<!-- dir_4a72380f45dfd0b1638a11af9b7ee675 -->
<g id="node2" class="node">
<title>dir_4a72380f45dfd0b1638a11af9b7ee675</title>
<g id="a_node2"><a xlink:href="dir_4a72380f45dfd0b1638a11af9b7ee675.html" target="_top" xlink:title="c_api">
<polygon fill="white" stroke="black" points="150,-348 96,-348 96,-312 150,-312 150,-348"/>
<text text-anchor="middle" x="123" y="-327.5" font-family="Helvetica,sans-Serif" font-size="10.00">c_api</text>
</a>
</g>
</g>
<!-- dir_71232ddc3ae1bd3a847a61b9d91f14d6 -->
<g id="node5" class="node">
<title>dir_71232ddc3ae1bd3a847a61b9d91f14d6</title>
<g id="a_node5"><a xlink:href="dir_71232ddc3ae1bd3a847a61b9d91f14d6.html" target="_top" xlink:title="core">
<polygon fill="white" stroke="red" points="173,-204 119,-204 119,-168 173,-168 173,-204"/>
<text text-anchor="middle" x="146" y="-183.5" font-family="Helvetica,sans-Serif" font-size="10.00">core</text>
</a>
</g>
</g>
<!-- dir_fa2b85903e75369b41e8101548aa372e&#45;&gt;dir_71232ddc3ae1bd3a847a61b9d91f14d6 -->
<g id="edge11" class="edge">
<title>dir_fa2b85903e75369b41e8101548aa372e&#45;&gt;dir_71232ddc3ae1bd3a847a61b9d91f14d6</title>
<path fill="none" stroke="black" d="M156.65,-239.7C153.39,-231.9 150.22,-222.51 147.85,-213.83"/>
<polygon fill="black" stroke="black" points="151.25,-212.99 145.48,-204.1 144.45,-214.65 151.25,-212.99"/>
<g id="a_edge11&#45;headlabel"><a xlink:href="dir_000013_000015.html" target="_top" xlink:title="1">
<text text-anchor="middle" x="154.86" y="-213.31" font-family="Helvetica,sans-Serif" font-size="10.00">1</text>
</a>
</g>
</g>
<!-- dir_152ce2f476906bac31d97c2be7b6a47b -->
<g id="node4" class="node">
<title>dir_152ce2f476906bac31d97c2be7b6a47b</title>
<g id="a_node4"><a xlink:href="dir_152ce2f476906bac31d97c2be7b6a47b.html" target="_top" xlink:title="controls">
<polygon fill="white" stroke="black" points="100,-132 44,-132 44,-96 100,-96 100,-132"/>
<text text-anchor="middle" x="72" y="-111.5" font-family="Helvetica,sans-Serif" font-size="10.00">controls</text>
</a>
</g>
</g>
<!-- dir_152ce2f476906bac31d97c2be7b6a47b&#45;&gt;dir_71232ddc3ae1bd3a847a61b9d91f14d6 -->
<g id="edge6" class="edge">
<title>dir_152ce2f476906bac31d97c2be7b6a47b&#45;&gt;dir_71232ddc3ae1bd3a847a61b9d91f14d6</title>
<path fill="none" stroke="black" d="M95.98,-132.1C105.89,-140.64 117.15,-151.11 126.55,-160.48"/>
<polygon fill="black" stroke="black" points="124.12,-163 133.62,-167.7 129.12,-158.1 124.12,-163"/>
<g id="a_edge6&#45;headlabel"><a xlink:href="dir_000014_000015.html" target="_top" xlink:title="1">
<text text-anchor="middle" x="119.58" y="-159.92" font-family="Helvetica,sans-Serif" font-size="10.00">1</text>
</a>
</g>
</g>
<!-- dir_71232ddc3ae1bd3a847a61b9d91f14d6&#45;&gt;dir_fa2b85903e75369b41e8101548aa372e -->
<g id="edge4" class="edge">
<title>dir_71232ddc3ae1bd3a847a61b9d91f14d6&#45;&gt;dir_fa2b85903e75369b41e8101548aa372e</title>
<path fill="none" stroke="black" d="M157.27,-204.1C160.53,-211.88 163.71,-221.26 166.09,-229.95"/>
<polygon fill="black" stroke="black" points="162.7,-230.82 168.48,-239.7 169.5,-229.15 162.7,-230.82"/>
<g id="a_edge4&#45;headlabel"><a xlink:href="dir_000015_000013.html" target="_top" xlink:title="1">
<text text-anchor="middle" x="159.09" y="-225.5" font-family="Helvetica,sans-Serif" font-size="10.00">1</text>
</a>
</g>
</g>
<!-- dir_71232ddc3ae1bd3a847a61b9d91f14d6&#45;&gt;dir_152ce2f476906bac31d97c2be7b6a47b -->
<g id="edge2" class="edge">
<title>dir_71232ddc3ae1bd3a847a61b9d91f14d6&#45;&gt;dir_152ce2f476906bac31d97c2be7b6a47b</title>
<path fill="none" stroke="black" d="M121.79,-167.7C111.86,-159.14 100.6,-148.66 91.23,-139.3"/>
<polygon fill="black" stroke="black" points="93.68,-136.8 84.19,-132.1 88.68,-141.7 93.68,-136.8"/>
<g id="a_edge2&#45;headlabel"><a xlink:href="dir_000015_000014.html" target="_top" xlink:title="3">
<text text-anchor="middle" x="98.23" y="-134.89" font-family="Helvetica,sans-Serif" font-size="10.00">3</text>
</a>
</g>
</g>
<!-- dir_71232ddc3ae1bd3a847a61b9d91f14d6&#45;&gt;dir_8b81fdc9ef9af08c698f95a9dffd974a -->
<g id="edge3" class="edge">
<title>dir_71232ddc3ae1bd3a847a61b9d91f14d6&#45;&gt;dir_8b81fdc9ef9af08c698f95a9dffd974a</title>
<path fill="none" stroke="black" d="M161.18,-167.7C168.73,-157.94 177.07,-145.1 181,-132 185.6,-116.68 185.7,-111.29 181,-96 177.99,-86.22 172.49,-76.62 166.68,-68.33"/>
<polygon fill="black" stroke="black" points="169.41,-66.13 160.61,-60.23 163.81,-70.33 169.41,-66.13"/>
<g id="a_edge3&#45;headlabel"><a xlink:href="dir_000015_000025.html" target="_top" xlink:title="2">
<text text-anchor="middle" x="173.83" y="-64.8" font-family="Helvetica,sans-Serif" font-size="10.00">2</text>
</a>
</g>
</g>
<!-- dir_017cfc82b676ee061cd48d9a7b73a746 -->
<g id="node9" class="node">
<title>dir_017cfc82b676ee061cd48d9a7b73a746</title>
<g id="a_node9"><a xlink:href="dir_017cfc82b676ee061cd48d9a7b73a746.html" target="_top" xlink:title="stereo">
<polygon fill="white" stroke="black" points="172,-132 118,-132 118,-96 172,-96 172,-132"/>
<text text-anchor="middle" x="145" y="-111.5" font-family="Helvetica,sans-Serif" font-size="10.00">stereo</text>
</a>
</g>
</g>
<!-- dir_71232ddc3ae1bd3a847a61b9d91f14d6&#45;&gt;dir_017cfc82b676ee061cd48d9a7b73a746 -->
<g id="edge1" class="edge">
<title>dir_71232ddc3ae1bd3a847a61b9d91f14d6&#45;&gt;dir_017cfc82b676ee061cd48d9a7b73a746</title>
<path fill="none" stroke="black" d="M139.84,-167.7C138.93,-159.98 138.57,-150.71 138.79,-142.11"/>
<polygon fill="black" stroke="black" points="142.29,-142.28 139.35,-132.1 135.3,-141.89 142.29,-142.28"/>
<g id="a_edge1&#45;headlabel"><a xlink:href="dir_000015_000027.html" target="_top" xlink:title="4">
<text text-anchor="middle" x="144.92" y="-143.53" font-family="Helvetica,sans-Serif" font-size="10.00">4</text>
</a>
</g>
</g>
<!-- dir_71232ddc3ae1bd3a847a61b9d91f14d6&#45;&gt;dir_66f39e0ec9e36a0668d7605678ca9a99 -->
<g id="edge5" class="edge">
<title>dir_71232ddc3ae1bd3a847a61b9d91f14d6&#45;&gt;dir_66f39e0ec9e36a0668d7605678ca9a99</title>
<path fill="none" stroke="black" d="M168.49,-167.7C179.96,-158.88 194.06,-148.03 206.48,-138.47"/>
<polygon fill="black" stroke="black" points="208.97,-140.98 214.76,-132.1 204.7,-135.43 208.97,-140.98"/>
<g id="a_edge5&#45;headlabel"><a xlink:href="dir_000015_000028.html" target="_top" xlink:title="1">
<text text-anchor="middle" x="207.85" y="-142.92" font-family="Helvetica,sans-Serif" font-size="10.00">1</text>
</a>
</g>
</g>
<!-- dir_918ffd92481cf0aa980e6813142b12a0 -->
<g id="node6" class="node">
<title>dir_918ffd92481cf0aa980e6813142b12a0</title>
<g id="a_node6"><a xlink:href="dir_918ffd92481cf0aa980e6813142b12a0.html" target="_top" xlink:title="io">
<polygon fill="white" stroke="black" points="78,-348 24,-348 24,-312 78,-312 78,-348"/>
<text text-anchor="middle" x="51" y="-327.5" font-family="Helvetica,sans-Serif" font-size="10.00">io</text>
</a>
</g>
</g>
<!-- dir_017cfc82b676ee061cd48d9a7b73a746&#45;&gt;dir_71232ddc3ae1bd3a847a61b9d91f14d6 -->
<g id="edge12" class="edge">
<title>dir_017cfc82b676ee061cd48d9a7b73a746&#45;&gt;dir_71232ddc3ae1bd3a847a61b9d91f14d6</title>
<path fill="none" stroke="black" d="M151.14,-132.1C152.05,-139.79 152.42,-149.05 152.21,-157.67"/>
<polygon fill="black" stroke="black" points="148.72,-157.52 151.67,-167.7 155.71,-157.9 148.72,-157.52"/>
<g id="a_edge12&#45;headlabel"><a xlink:href="dir_000027_000015.html" target="_top" xlink:title="2">
<text text-anchor="middle" x="146.08" y="-151.28" font-family="Helvetica,sans-Serif" font-size="10.00">2</text>
</a>
</g>
</g>
<!-- dir_017cfc82b676ee061cd48d9a7b73a746&#45;&gt;dir_8b81fdc9ef9af08c698f95a9dffd974a -->
<g id="edge13" class="edge">
<title>dir_017cfc82b676ee061cd48d9a7b73a746&#45;&gt;dir_8b81fdc9ef9af08c698f95a9dffd974a</title>
<path fill="none" stroke="black" d="M145,-95.7C145,-87.98 145,-78.71 145,-70.11"/>
<polygon fill="black" stroke="black" points="148.5,-70.1 145,-60.1 141.5,-70.1 148.5,-70.1"/>
<g id="a_edge13&#45;headlabel"><a xlink:href="dir_000027_000025.html" target="_top" xlink:title="1">
<text text-anchor="middle" x="151.34" y="-71.2" font-family="Helvetica,sans-Serif" font-size="10.00">1</text>
</a>
</g>
</g>
</g>
</svg>
