<?xml version="1.0" encoding="UTF-8" standalone="no"?>
<!DOCTYPE svg PUBLIC "-//W3C//DTD SVG 1.1//EN"
 "http://www.w3.org/Graphics/SVG/1.1/DTD/svg11.dtd">
<!-- Generated by graphviz version 2.43.0 (0)
 -->
<!-- Title: include/depz/stereo Pages: 1 -->
<svg width="114pt" height="239pt"
 viewBox="0.00 0.00 114.00 239.00" xmlns="http://www.w3.org/2000/svg" xmlns:xlink="http://www.w3.org/1999/xlink">
<g id="graph0" class="graph" transform="scale(1 1) rotate(0) translate(4 235)">
<title>include/depz/stereo</title>
<polygon fill="white" stroke="transparent" points="-4,4 -4,-235 110,-235 110,4 -4,4"/>
<g id="clust1" class="cluster">
<title>clusterdir_a1e9a1d5c6cda4eb70d04ce20d0abc26</title>
<g id="a_clust1"><a xlink:href="dir_a1e9a1d5c6cda4eb70d04ce20d0abc26.html" target="_top" xlink:title="depz">
<polygon fill="#ddddee" stroke="black" points="8,-8 8,-223 98,-223 98,-8 8,-8"/>
<text text-anchor="middle" x="53" y="-211" font-family="Helvetica,sans-Serif" font-size="10.00">depz</text>
</a>
</g>
</g>
<!-- dir_71232ddc3ae1bd3a847a61b9d91f14d6 -->
<g id="node1" class="node">
<title>dir_71232ddc3ae1bd3a847a61b9d91f14d6</title>
<g id="a_node1"><a xlink:href="dir_71232ddc3ae1bd3a847a61b9d91f14d6.html" target="_top" xlink:title="core">
<polygon fill="white" stroke="red" points="70,-124 16,-124 16,-88 70,-88 70,-124"/>
<text text-anchor="middle" x="43" y="-103.5" font-family="Helvetica,sans-Serif" font-size="10.00">core</text>
</a>
</g>
</g>
<!-- dir_8b81fdc9ef9af08c698f95a9dffd974a -->
<g id="node2" class="node">
<title>dir_8b81fdc9ef9af08c698f95a9dffd974a</title>
<g id="a_node2"><a xlink:href="dir_8b81fdc9ef9af08c698f95a9dffd974a.html" target="_top" xlink:title="processing">
<polygon fill="white" stroke="red" points="87.5,-52 18.5,-52 18.5,-16 87.5,-16 87.5,-52"/>
<text text-anchor="middle" x="53" y="-31.5" font-family="Helvetica,sans-Serif" font-size="10.00">processing</text>
</a>
</g>
</g>
<!-- dir_71232ddc3ae1bd3a847a61b9d91f14d6&#45;&gt;dir_8b81fdc9ef9af08c698f95a9dffd974a -->
<g id="edge1" class="edge">
<title>dir_71232ddc3ae1bd3a847a61b9d91f14d6&#45;&gt;dir_8b81fdc9ef9af08c698f95a9dffd974a</title>
<path fill="none" stroke="black" d="M45.47,-87.7C46.57,-79.98 47.9,-70.71 49.13,-62.11"/>
<polygon fill="black" stroke="black" points="52.61,-62.5 50.56,-52.1 45.68,-61.51 52.61,-62.5"/>
<g id="a_edge1&#45;headlabel"><a xlink:href="dir_000015_000025.html" target="_top" xlink:title="2">
<text text-anchor="middle" x="54.91" y="-63.96" font-family="Helvetica,sans-Serif" font-size="10.00">2</text>
</a>
</g>
</g>
<!-- dir_017cfc82b676ee061cd48d9a7b73a746 -->
<g id="node3" class="node">
<title>dir_017cfc82b676ee061cd48d9a7b73a746</title>
<g id="a_node3"><a xlink:href="dir_017cfc82b676ee061cd48d9a7b73a746.html" target="_top" xlink:title="stereo">
<polygon fill="#eeeeff" stroke="black" points="80,-196 26,-196 26,-160 80,-160 80,-196"/>
<text text-anchor="middle" x="53" y="-175.5" font-family="Helvetica,sans-Serif" font-size="10.00">stereo</text>
</a>
</g>
</g>
<!-- dir_017cfc82b676ee061cd48d9a7b73a746&#45;&gt;dir_71232ddc3ae1bd3a847a61b9d91f14d6 -->
<g id="edge2" class="edge">
<title>dir_017cfc82b676ee061cd48d9a7b73a746&#45;&gt;dir_71232ddc3ae1bd3a847a61b9d91f14d6</title>
<path fill="none" stroke="black" d="M50.53,-159.7C49.43,-151.98 48.1,-142.71 46.87,-134.11"/>
<polygon fill="black" stroke="black" points="50.32,-133.51 45.44,-124.1 43.39,-134.5 50.32,-133.51"/>
<g id="a_edge2&#45;headlabel"><a xlink:href="dir_000027_000015.html" target="_top" xlink:title="2">
<text text-anchor="middle" x="53.64" y="-134.17" font-family="Helvetica,sans-Serif" font-size="10.00">2</text>
</a>
</g>
</g>
<!-- dir_017cfc82b676ee061cd48d9a7b73a746&#45;&gt;dir_8b81fdc9ef9af08c698f95a9dffd974a -->
<g id="edge3" class="edge">
<title>dir_017cfc82b676ee061cd48d9a7b73a746&#45;&gt;dir_8b81fdc9ef9af08c698f95a9dffd974a</title>
<path fill="none" stroke="black" d="M64.05,-159.61C69.74,-149.62 76.08,-136.58 79,-124 82.62,-108.41 82.62,-103.59 79,-88 76.9,-78.96 73.03,-69.68 68.91,-61.47"/>
<polygon fill="black" stroke="black" points="71.86,-59.55 64.05,-52.39 65.69,-62.86 71.86,-59.55"/>
<g id="a_edge3&#45;headlabel"><a xlink:href="dir_000027_000025.html" target="_top" xlink:title="1">
<text text-anchor="middle" x="76.06" y="-58.88" font-family="Helvetica,sans-Serif" font-size="10.00">1</text>
</a>
</g>
</g>
</g>
</svg>
