<?xml version="1.0" encoding="UTF-8" standalone="no"?>
<!DOCTYPE svg PUBLIC "-//W3C//DTD SVG 1.1//EN"
 "http://www.w3.org/Graphics/SVG/1.1/DTD/svg11.dtd">
<!-- Generated by graphviz version 2.43.0 (0)
 -->
<!-- Title: include/depz/core/recorder Pages: 1 -->
<svg width="98pt" height="167pt"
 viewBox="0.00 0.00 98.00 167.00" xmlns="http://www.w3.org/2000/svg" xmlns:xlink="http://www.w3.org/1999/xlink">
<g id="graph0" class="graph" transform="scale(1 1) rotate(0) translate(4 163)">
<title>include/depz/core/recorder</title>
<polygon fill="white" stroke="transparent" points="-4,4 -4,-163 94,-163 94,4 -4,4"/>
<g id="clust1" class="cluster">
<title>clusterdir_71232ddc3ae1bd3a847a61b9d91f14d6</title>
<g id="a_clust1"><a xlink:href="dir_71232ddc3ae1bd3a847a61b9d91f14d6.html" target="_top" xlink:title="core">
<polygon fill="#ddddee" stroke="black" points="8,-8 8,-151 82,-151 82,-8 8,-8"/>
<text text-anchor="middle" x="45" y="-139" font-family="Helvetica,sans-Serif" font-size="10.00">core</text>
</a>
</g>
</g>
<!-- dir_5677f301335a195fa4eb3b1b8d325271 -->
<g id="node1" class="node">
<title>dir_5677f301335a195fa4eb3b1b8d325271</title>
<g id="a_node1"><a xlink:href="dir_5677f301335a195fa4eb3b1b8d325271.html" target="_top" xlink:title="sources">
<polygon fill="none" stroke="black" points="72,-124 18,-124 18,-88 72,-88 72,-124"/>
<text text-anchor="middle" x="45" y="-103.5" font-family="Helvetica,sans-Serif" font-size="10.00">sources</text>
</a>
</g>
</g>
<!-- dir_c81c48c5757634c1fb74efccfe5b61ff -->
<g id="node2" class="node">
<title>dir_c81c48c5757634c1fb74efccfe5b61ff</title>
<g id="a_node2"><a xlink:href="dir_c81c48c5757634c1fb74efccfe5b61ff.html" target="_top" xlink:title="recorder">
<polygon fill="#eeeeff" stroke="black" points="73.5,-52 16.5,-52 16.5,-16 73.5,-16 73.5,-52"/>
<text text-anchor="middle" x="45" y="-31.5" font-family="Helvetica,sans-Serif" font-size="10.00">recorder</text>
</a>
</g>
</g>
<!-- dir_5677f301335a195fa4eb3b1b8d325271&#45;&gt;dir_c81c48c5757634c1fb74efccfe5b61ff -->
<g id="edge1" class="edge">
<title>dir_5677f301335a195fa4eb3b1b8d325271&#45;&gt;dir_c81c48c5757634c1fb74efccfe5b61ff</title>
<path fill="none" stroke="black" d="M39.08,-87.7C38.29,-79.98 38.06,-70.71 38.4,-62.11"/>
<polygon fill="black" stroke="black" points="41.9,-62.32 39.1,-52.1 34.92,-61.84 41.9,-62.32"/>
<g id="a_edge1&#45;headlabel"><a xlink:href="dir_000022_000021.html" target="_top" xlink:title="1">
<text text-anchor="middle" x="44.48" y="-63.61" font-family="Helvetica,sans-Serif" font-size="10.00">1</text>
</a>
</g>
</g>
<!-- dir_c81c48c5757634c1fb74efccfe5b61ff&#45;&gt;dir_5677f301335a195fa4eb3b1b8d325271 -->
<g id="edge2" class="edge">
<title>dir_c81c48c5757634c1fb74efccfe5b61ff&#45;&gt;dir_5677f301335a195fa4eb3b1b8d325271</title>
<path fill="none" stroke="black" d="M50.9,-52.1C51.7,-59.79 51.94,-69.05 51.6,-77.67"/>
<polygon fill="black" stroke="black" points="48.11,-77.48 50.92,-87.7 55.09,-77.96 48.11,-77.48"/>
<g id="a_edge2&#45;headlabel"><a xlink:href="dir_000021_000022.html" target="_top" xlink:title="1">
<text text-anchor="middle" x="45.52" y="-71.2" font-family="Helvetica,sans-Serif" font-size="10.00">1</text>
</a>
</g>
</g>
</g>
</svg>
