<?xml version="1.0" encoding="UTF-8" standalone="no"?>
<!DOCTYPE svg PUBLIC "-//W3C//DTD SVG 1.1//EN"
 "http://www.w3.org/Graphics/SVG/1.1/DTD/svg11.dtd">
<!-- Generated by graphviz version 2.43.0 (0)
 -->
<!-- Title: include/depz/core/calibration Pages: 1 -->
<svg width="192pt" height="223pt"
 viewBox="0.00 0.00 192.00 223.00" xmlns="http://www.w3.org/2000/svg" xmlns:xlink="http://www.w3.org/1999/xlink">
<g id="graph0" class="graph" transform="scale(1 1) rotate(0) translate(4 219)">
<title>include/depz/core/calibration</title>
<polygon fill="white" stroke="transparent" points="-4,4 -4,-219 188,-219 188,4 -4,4"/>
<g id="clust1" class="cluster">
<title>clusterdir_71232ddc3ae1bd3a847a61b9d91f14d6</title>
<g id="a_clust1"><a xlink:href="dir_71232ddc3ae1bd3a847a61b9d91f14d6.html" target="_top" xlink:title="core">
<polygon fill="#ddddee" stroke="black" points="8,-64 8,-207 92,-207 92,-64 8,-64"/>
<text text-anchor="middle" x="50" y="-195" font-family="Helvetica,sans-Serif" font-size="10.00">core</text>
</a>
</g>
</g>
<!-- dir_b782a4050b0cf0216045d3937f189ab0 -->
<g id="node1" class="node">
<title>dir_b782a4050b0cf0216045d3937f189ab0</title>
<g id="a_node1"><a xlink:href="dir_b782a4050b0cf0216045d3937f189ab0.html" target="_top" xlink:title="pipeline">
<polygon fill="none" stroke="black" points="72,-108 16,-108 16,-72 72,-72 72,-108"/>
<text text-anchor="middle" x="44" y="-87.5" font-family="Helvetica,sans-Serif" font-size="10.00">pipeline</text>
</a>
</g>
</g>
<!-- dir_017cfc82b676ee061cd48d9a7b73a746 -->
<g id="node3" class="node">
<title>dir_017cfc82b676ee061cd48d9a7b73a746</title>
<g id="a_node3"><a xlink:href="dir_017cfc82b676ee061cd48d9a7b73a746.html" target="_top" xlink:title="stereo">
<polygon fill="none" stroke="black" points="99,-36 45,-36 45,0 99,0 99,-36"/>
<text text-anchor="middle" x="72" y="-15.5" font-family="Helvetica,sans-Serif" font-size="10.00">stereo</text>
</a>
</g>
</g>
<!-- dir_b782a4050b0cf0216045d3937f189ab0&#45;&gt;dir_017cfc82b676ee061cd48d9a7b73a746 -->
<g id="edge4" class="edge">
<title>dir_b782a4050b0cf0216045d3937f189ab0&#45;&gt;dir_017cfc82b676ee061cd48d9a7b73a746</title>
<path fill="none" stroke="black" d="M50.92,-71.7C54.07,-63.81 57.88,-54.3 61.38,-45.55"/>
<polygon fill="black" stroke="black" points="64.69,-46.69 65.16,-36.1 58.19,-44.09 64.69,-46.69"/>
<g id="a_edge4&#45;headlabel"><a xlink:href="dir_000020_000027.html" target="_top" xlink:title="2">
<text text-anchor="middle" x="66" y="-48.58" font-family="Helvetica,sans-Serif" font-size="10.00">2</text>
</a>
</g>
</g>
<!-- dir_8c2815c4df525515e0d6debd381b6178 -->
<g id="node2" class="node">
<title>dir_8c2815c4df525515e0d6debd381b6178</title>
<g id="a_node2"><a xlink:href="dir_8c2815c4df525515e0d6debd381b6178.html" target="_top" xlink:title="calibration">
<polygon fill="#eeeeff" stroke="black" points="84,-180 16,-180 16,-144 84,-144 84,-180"/>
<text text-anchor="middle" x="50" y="-159.5" font-family="Helvetica,sans-Serif" font-size="10.00">calibration</text>
</a>
</g>
</g>
<!-- dir_8c2815c4df525515e0d6debd381b6178&#45;&gt;dir_b782a4050b0cf0216045d3937f189ab0 -->
<g id="edge3" class="edge">
<title>dir_8c2815c4df525515e0d6debd381b6178&#45;&gt;dir_b782a4050b0cf0216045d3937f189ab0</title>
<path fill="none" stroke="black" d="M48.52,-143.7C47.86,-135.98 47.06,-126.71 46.32,-118.11"/>
<polygon fill="black" stroke="black" points="49.81,-117.77 45.47,-108.1 42.83,-118.37 49.81,-117.77"/>
<g id="a_edge3&#45;headlabel"><a xlink:href="dir_000016_000020.html" target="_top" xlink:title="1">
<text text-anchor="middle" x="52.94" y="-118.61" font-family="Helvetica,sans-Serif" font-size="10.00">1</text>
</a>
</g>
</g>
<!-- dir_8c2815c4df525515e0d6debd381b6178&#45;&gt;dir_017cfc82b676ee061cd48d9a7b73a746 -->
<g id="edge1" class="edge">
<title>dir_8c2815c4df525515e0d6debd381b6178&#45;&gt;dir_017cfc82b676ee061cd48d9a7b73a746</title>
<path fill="none" stroke="black" d="M63.15,-143.91C69.92,-134.01 77.49,-120.96 81,-108 86.53,-87.58 83.63,-63.68 79.7,-45.79"/>
<polygon fill="black" stroke="black" points="83.09,-44.92 77.32,-36.03 76.29,-46.57 83.09,-44.92"/>
<g id="a_edge1&#45;headlabel"><a xlink:href="dir_000016_000027.html" target="_top" xlink:title="2">
<text text-anchor="middle" x="86.7" y="-45.24" font-family="Helvetica,sans-Serif" font-size="10.00">2</text>
</a>
</g>
</g>
<!-- dir_152ce2f476906bac31d97c2be7b6a47b -->
<g id="node4" class="node">
<title>dir_152ce2f476906bac31d97c2be7b6a47b</title>
<g id="a_node4"><a xlink:href="dir_152ce2f476906bac31d97c2be7b6a47b.html" target="_top" xlink:title="controls">
<polygon fill="none" stroke="black" points="184,-108 128,-108 128,-72 184,-72 184,-108"/>
<text text-anchor="middle" x="156" y="-87.5" font-family="Helvetica,sans-Serif" font-size="10.00">controls</text>
</a>
</g>
</g>
<!-- dir_8c2815c4df525515e0d6debd381b6178&#45;&gt;dir_152ce2f476906bac31d97c2be7b6a47b -->
<g id="edge2" class="edge">
<title>dir_8c2815c4df525515e0d6debd381b6178&#45;&gt;dir_152ce2f476906bac31d97c2be7b6a47b</title>
<path fill="none" stroke="black" d="M75.93,-143.88C89.66,-134.81 106.71,-123.55 121.54,-113.76"/>
<polygon fill="black" stroke="black" points="123.55,-116.62 129.97,-108.19 119.7,-110.78 123.55,-116.62"/>
<g id="a_edge2&#45;headlabel"><a xlink:href="dir_000016_000014.html" target="_top" xlink:title="1">
<text text-anchor="middle" x="122.12" y="-118.47" font-family="Helvetica,sans-Serif" font-size="10.00">1</text>
</a>
</g>
</g>
</g>
</svg>
