<?xml version="1.0" encoding="UTF-8" standalone="no"?>
<!DOCTYPE svg PUBLIC "-//W3C//DTD SVG 1.1//EN"
 "http://www.w3.org/Graphics/SVG/1.1/DTD/svg11.dtd">
<!-- Generated by graphviz version 2.43.0 (0)
 -->
<!-- Title: include/depz/core/pipeline Pages: 1 -->
<svg width="412pt" height="223pt"
 viewBox="0.00 0.00 412.00 223.00" xmlns="http://www.w3.org/2000/svg" xmlns:xlink="http://www.w3.org/1999/xlink">
<g id="graph0" class="graph" transform="scale(1 1) rotate(0) translate(4 219)">
<title>include/depz/core/pipeline</title>
<polygon fill="white" stroke="transparent" points="-4,4 -4,-219 408,-219 408,4 -4,4"/>
<g id="clust1" class="cluster">
<title>clusterdir_71232ddc3ae1bd3a847a61b9d91f14d6</title>
<g id="a_clust1"><a xlink:href="dir_71232ddc3ae1bd3a847a61b9d91f14d6.html" target="_top" xlink:title="core">
<polygon fill="#ddddee" stroke="black" points="8,-64 8,-207 158,-207 158,-64 8,-64"/>
<text text-anchor="middle" x="83" y="-195" font-family="Helvetica,sans-Serif" font-size="10.00">core</text>
</a>
</g>
</g>
<!-- dir_5677f301335a195fa4eb3b1b8d325271 -->
<g id="node1" class="node">
<title>dir_5677f301335a195fa4eb3b1b8d325271</title>
<g id="a_node1"><a xlink:href="dir_5677f301335a195fa4eb3b1b8d325271.html" target="_top" xlink:title="sources">
<polygon fill="none" stroke="black" points="70,-108 16,-108 16,-72 70,-72 70,-108"/>
<text text-anchor="middle" x="43" y="-87.5" font-family="Helvetica,sans-Serif" font-size="10.00">sources</text>
</a>
</g>
</g>
<!-- dir_96e519c76fb11d8368bdb588e3df091d -->
<g id="node2" class="node">
<title>dir_96e519c76fb11d8368bdb588e3df091d</title>
<g id="a_node2"><a xlink:href="dir_96e519c76fb11d8368bdb588e3df091d.html" target="_top" xlink:title="inference">
<polygon fill="none" stroke="black" points="150,-108 88,-108 88,-72 150,-72 150,-108"/>
<text text-anchor="middle" x="119" y="-87.5" font-family="Helvetica,sans-Serif" font-size="10.00">inference</text>
</a>
</g>
</g>
<!-- dir_b782a4050b0cf0216045d3937f189ab0 -->
<g id="node3" class="node">
<title>dir_b782a4050b0cf0216045d3937f189ab0</title>
<g id="a_node3"><a xlink:href="dir_b782a4050b0cf0216045d3937f189ab0.html" target="_top" xlink:title="pipeline">
<polygon fill="#eeeeff" stroke="black" points="150,-180 94,-180 94,-144 150,-144 150,-180"/>
<text text-anchor="middle" x="122" y="-159.5" font-family="Helvetica,sans-Serif" font-size="10.00">pipeline</text>
</a>
</g>
</g>
<!-- dir_b782a4050b0cf0216045d3937f189ab0&#45;&gt;dir_5677f301335a195fa4eb3b1b8d325271 -->
<g id="edge2" class="edge">
<title>dir_b782a4050b0cf0216045d3937f189ab0&#45;&gt;dir_5677f301335a195fa4eb3b1b8d325271</title>
<path fill="none" stroke="black" d="M102.47,-143.7C92.62,-134.97 80.51,-124.24 69.8,-114.75"/>
<polygon fill="black" stroke="black" points="72.11,-112.12 62.3,-108.1 67.47,-117.36 72.11,-112.12"/>
<g id="a_edge2&#45;headlabel"><a xlink:href="dir_000020_000022.html" target="_top" xlink:title="1">
<text text-anchor="middle" x="76.68" y="-109.88" font-family="Helvetica,sans-Serif" font-size="10.00">1</text>
</a>
</g>
</g>
<!-- dir_b782a4050b0cf0216045d3937f189ab0&#45;&gt;dir_96e519c76fb11d8368bdb588e3df091d -->
<g id="edge5" class="edge">
<title>dir_b782a4050b0cf0216045d3937f189ab0&#45;&gt;dir_96e519c76fb11d8368bdb588e3df091d</title>
<path fill="none" stroke="black" d="M121.26,-143.7C120.93,-135.98 120.53,-126.71 120.16,-118.11"/>
<polygon fill="black" stroke="black" points="123.66,-117.95 119.73,-108.1 116.66,-118.25 123.66,-117.95"/>
<g id="a_edge5&#45;headlabel"><a xlink:href="dir_000020_000019.html" target="_top" xlink:title="3">
<text text-anchor="middle" x="126.65" y="-118.92" font-family="Helvetica,sans-Serif" font-size="10.00">3</text>
</a>
</g>
</g>
<!-- dir_017cfc82b676ee061cd48d9a7b73a746 -->
<g id="node4" class="node">
<title>dir_017cfc82b676ee061cd48d9a7b73a746</title>
<g id="a_node4"><a xlink:href="dir_017cfc82b676ee061cd48d9a7b73a746.html" target="_top" xlink:title="stereo">
<polygon fill="none" stroke="black" points="222,-108 168,-108 168,-72 222,-72 222,-108"/>
<text text-anchor="middle" x="195" y="-87.5" font-family="Helvetica,sans-Serif" font-size="10.00">stereo</text>
</a>
</g>
</g>
<!-- dir_b782a4050b0cf0216045d3937f189ab0&#45;&gt;dir_017cfc82b676ee061cd48d9a7b73a746 -->
<g id="edge1" class="edge">
<title>dir_b782a4050b0cf0216045d3937f189ab0&#45;&gt;dir_017cfc82b676ee061cd48d9a7b73a746</title>
<path fill="none" stroke="black" d="M140.04,-143.7C149.06,-135.05 160.12,-124.45 169.94,-115.03"/>
<polygon fill="black" stroke="black" points="172.37,-117.55 177.16,-108.1 167.52,-112.5 172.37,-117.55"/>
<g id="a_edge1&#45;headlabel"><a xlink:href="dir_000020_000027.html" target="_top" xlink:title="2">
<text text-anchor="middle" x="171.74" y="-119.59" font-family="Helvetica,sans-Serif" font-size="10.00">2</text>
</a>
</g>
</g>
<!-- dir_66f39e0ec9e36a0668d7605678ca9a99 -->
<g id="node5" class="node">
<title>dir_66f39e0ec9e36a0668d7605678ca9a99</title>
<g id="a_node5"><a xlink:href="dir_66f39e0ec9e36a0668d7605678ca9a99.html" target="_top" xlink:title="utils">
<polygon fill="none" stroke="black" points="294,-108 240,-108 240,-72 294,-72 294,-108"/>
<text text-anchor="middle" x="267" y="-87.5" font-family="Helvetica,sans-Serif" font-size="10.00">utils</text>
</a>
</g>
</g>
<!-- dir_b782a4050b0cf0216045d3937f189ab0&#45;&gt;dir_66f39e0ec9e36a0668d7605678ca9a99 -->
<g id="edge3" class="edge">
<title>dir_b782a4050b0cf0216045d3937f189ab0&#45;&gt;dir_66f39e0ec9e36a0668d7605678ca9a99</title>
<path fill="none" stroke="black" d="M150.3,-147.34C173.25,-136.26 205.75,-120.57 230.63,-108.56"/>
<polygon fill="black" stroke="black" points="232.27,-111.65 239.75,-104.15 229.22,-105.35 232.27,-111.65"/>
<g id="a_edge3&#45;headlabel"><a xlink:href="dir_000020_000028.html" target="_top" xlink:title="1">
<text text-anchor="middle" x="230.27" y="-113.27" font-family="Helvetica,sans-Serif" font-size="10.00">1</text>
</a>
</g>
</g>
<!-- dir_8b81fdc9ef9af08c698f95a9dffd974a -->
<g id="node6" class="node">
<title>dir_8b81fdc9ef9af08c698f95a9dffd974a</title>
<g id="a_node6"><a xlink:href="dir_8b81fdc9ef9af08c698f95a9dffd974a.html" target="_top" xlink:title="processing">
<polygon fill="white" stroke="red" points="292.5,-36 223.5,-36 223.5,0 292.5,0 292.5,-36"/>
<text text-anchor="middle" x="258" y="-15.5" font-family="Helvetica,sans-Serif" font-size="10.00">processing</text>
</a>
</g>
</g>
<!-- dir_b782a4050b0cf0216045d3937f189ab0&#45;&gt;dir_8b81fdc9ef9af08c698f95a9dffd974a -->
<g id="edge4" class="edge">
<title>dir_b782a4050b0cf0216045d3937f189ab0&#45;&gt;dir_8b81fdc9ef9af08c698f95a9dffd974a</title>
<path fill="none" stroke="black" d="M150.36,-156.86C196.53,-149.49 284.64,-132.5 303,-108 314.73,-92.35 310.48,-82.07 303,-64 299.85,-56.39 294.72,-49.4 289.03,-43.31"/>
<polygon fill="black" stroke="black" points="291.23,-40.57 281.63,-36.1 286.35,-45.58 291.23,-40.57"/>
<g id="a_edge4&#45;headlabel"><a xlink:href="dir_000020_000025.html" target="_top" xlink:title="2">
<text text-anchor="middle" x="295.79" y="-38.55" font-family="Helvetica,sans-Serif" font-size="10.00">2</text>
</a>
</g>
</g>
<!-- dir_fa2b85903e75369b41e8101548aa372e -->
<g id="node7" class="node">
<title>dir_fa2b85903e75369b41e8101548aa372e</title>
<g id="a_node7"><a xlink:href="dir_fa2b85903e75369b41e8101548aa372e.html" target="_top" xlink:title="camera">
<polygon fill="none" stroke="black" points="404,-108 350,-108 350,-72 404,-72 404,-108"/>
<text text-anchor="middle" x="377" y="-87.5" font-family="Helvetica,sans-Serif" font-size="10.00">camera</text>
</a>
</g>
</g>
<!-- dir_b782a4050b0cf0216045d3937f189ab0&#45;&gt;dir_fa2b85903e75369b41e8101548aa372e -->
<g id="edge6" class="edge">
<title>dir_b782a4050b0cf0216045d3937f189ab0&#45;&gt;dir_fa2b85903e75369b41e8101548aa372e</title>
<path fill="none" stroke="black" d="M150.08,-155.45C191.34,-146.99 270.56,-129.54 336,-108 337.42,-107.53 338.86,-107.04 340.3,-106.53"/>
<polygon fill="black" stroke="black" points="341.75,-109.72 349.87,-102.92 339.28,-103.17 341.75,-109.72"/>
<g id="a_edge6&#45;headlabel"><a xlink:href="dir_000020_000013.html" target="_top" xlink:title="1">
<text text-anchor="middle" x="339.39" y="-111.15" font-family="Helvetica,sans-Serif" font-size="10.00">1</text>
</a>
</g>
</g>
<!-- dir_017cfc82b676ee061cd48d9a7b73a746&#45;&gt;dir_8b81fdc9ef9af08c698f95a9dffd974a -->
<g id="edge7" class="edge">
<title>dir_017cfc82b676ee061cd48d9a7b73a746&#45;&gt;dir_8b81fdc9ef9af08c698f95a9dffd974a</title>
<path fill="none" stroke="black" d="M210.57,-71.7C218.2,-63.22 227.52,-52.86 235.88,-43.58"/>
<polygon fill="black" stroke="black" points="238.52,-45.88 242.61,-36.1 233.31,-41.2 238.52,-45.88"/>
<g id="a_edge7&#45;headlabel"><a xlink:href="dir_000027_000025.html" target="_top" xlink:title="1">
<text text-anchor="middle" x="238.22" y="-47.95" font-family="Helvetica,sans-Serif" font-size="10.00">1</text>
</a>
</g>
</g>
</g>
</svg>
