<?xml version="1.0" encoding="UTF-8" standalone="no"?>
<!DOCTYPE svg PUBLIC "-//W3C//DTD SVG 1.1//EN"
 "http://www.w3.org/Graphics/SVG/1.1/DTD/svg11.dtd">
<!-- Generated by graphviz version 2.43.0 (0)
 -->
<!-- Title: include/depz/core/inference Pages: 1 -->
<svg width="158pt" height="167pt"
 viewBox="0.00 0.00 158.00 167.00" xmlns="http://www.w3.org/2000/svg" xmlns:xlink="http://www.w3.org/1999/xlink">
<g id="graph0" class="graph" transform="scale(1 1) rotate(0) translate(4 163)">
<title>include/depz/core/inference</title>
<polygon fill="white" stroke="transparent" points="-4,4 -4,-163 154,-163 154,4 -4,4"/>
<g id="clust1" class="cluster">
<title>clusterdir_71232ddc3ae1bd3a847a61b9d91f14d6</title>
<g id="a_clust1"><a xlink:href="dir_71232ddc3ae1bd3a847a61b9d91f14d6.html" target="_top" xlink:title="core">
<polygon fill="#ddddee" stroke="black" points="8,-8 8,-151 86,-151 86,-8 8,-8"/>
<text text-anchor="middle" x="47" y="-139" font-family="Helvetica,sans-Serif" font-size="10.00">core</text>
</a>
</g>
</g>
<!-- dir_9c33022977158ace281e7917f400894e -->
<g id="node1" class="node">
<title>dir_9c33022977158ace281e7917f400894e</title>
<g id="a_node1"><a xlink:href="dir_9c33022977158ace281e7917f400894e.html" target="_top" xlink:title="engines">
<polygon fill="none" stroke="black" points="74.5,-52 19.5,-52 19.5,-16 74.5,-16 74.5,-52"/>
<text text-anchor="middle" x="47" y="-31.5" font-family="Helvetica,sans-Serif" font-size="10.00">engines</text>
</a>
</g>
</g>
<!-- dir_96e519c76fb11d8368bdb588e3df091d -->
<g id="node2" class="node">
<title>dir_96e519c76fb11d8368bdb588e3df091d</title>
<g id="a_node2"><a xlink:href="dir_96e519c76fb11d8368bdb588e3df091d.html" target="_top" xlink:title="inference">
<polygon fill="#eeeeff" stroke="black" points="78,-124 16,-124 16,-88 78,-88 78,-124"/>
<text text-anchor="middle" x="47" y="-103.5" font-family="Helvetica,sans-Serif" font-size="10.00">inference</text>
</a>
</g>
</g>
<!-- dir_96e519c76fb11d8368bdb588e3df091d&#45;&gt;dir_9c33022977158ace281e7917f400894e -->
<g id="edge2" class="edge">
<title>dir_96e519c76fb11d8368bdb588e3df091d&#45;&gt;dir_9c33022977158ace281e7917f400894e</title>
<path fill="none" stroke="black" d="M47,-87.7C47,-79.98 47,-70.71 47,-62.11"/>
<polygon fill="black" stroke="black" points="50.5,-62.1 47,-52.1 43.5,-62.1 50.5,-62.1"/>
<g id="a_edge2&#45;headlabel"><a xlink:href="dir_000019_000017.html" target="_top" xlink:title="1">
<text text-anchor="middle" x="53.34" y="-63.2" font-family="Helvetica,sans-Serif" font-size="10.00">1</text>
</a>
</g>
</g>
<!-- dir_152ce2f476906bac31d97c2be7b6a47b -->
<g id="node3" class="node">
<title>dir_152ce2f476906bac31d97c2be7b6a47b</title>
<g id="a_node3"><a xlink:href="dir_152ce2f476906bac31d97c2be7b6a47b.html" target="_top" xlink:title="controls">
<polygon fill="none" stroke="black" points="150,-52 94,-52 94,-16 150,-16 150,-52"/>
<text text-anchor="middle" x="122" y="-31.5" font-family="Helvetica,sans-Serif" font-size="10.00">controls</text>
</a>
</g>
</g>
<!-- dir_96e519c76fb11d8368bdb588e3df091d&#45;&gt;dir_152ce2f476906bac31d97c2be7b6a47b -->
<g id="edge1" class="edge">
<title>dir_96e519c76fb11d8368bdb588e3df091d&#45;&gt;dir_152ce2f476906bac31d97c2be7b6a47b</title>
<path fill="none" stroke="black" d="M65.54,-87.7C74.8,-79.05 86.16,-68.45 96.26,-59.03"/>
<polygon fill="black" stroke="black" points="98.75,-61.49 103.67,-52.1 93.98,-56.37 98.75,-61.49"/>
<g id="a_edge1&#45;headlabel"><a xlink:href="dir_000019_000014.html" target="_top" xlink:title="1">
<text text-anchor="middle" x="98.06" y="-63.51" font-family="Helvetica,sans-Serif" font-size="10.00">1</text>
</a>
</g>
</g>
</g>
</svg>
