<?xml version="1.0" encoding="UTF-8" standalone="no"?>
<!DOCTYPE svg PUBLIC "-//W3C//DTD SVG 1.1//EN"
 "http://www.w3.org/Graphics/SVG/1.1/DTD/svg11.dtd">
<!-- Generated by graphviz version 2.43.0 (0)
 -->
<!-- Title: include/depz/core Pages: 1 -->
<!--zoomable 327 -->
<svg id="main" version="1.1" xmlns="http://www.w3.org/2000/svg" xmlns:xlink="http://www.w3.org/1999/xlink" xml:space="preserve" onload="init(evt)">
<style type="text/css"><![CDATA[
.edge:hover path { stroke: red; }
.edge:hover polygon { stroke: red; fill: red; }
]]></style>
<script type="text/javascript"><![CDATA[
var edges = document.getElementsByTagName('g');
if (edges && edges.length) {
  for (var i=0;i<edges.length;i++) {
    if (edges[i].id.substr(0,4)=='edge') {
      edges[i].setAttribute('class','edge');
    }
  }
}
]]></script>
        <defs>
                <circle id="rim" cx="0" cy="0" r="7"/>
                <circle id="rim2" cx="0" cy="0" r="3.5"/>
                <g id="zoomPlus">
                        <use xlink:href="#rim" fill="#404040">
                                <set attributeName="fill" to="#808080" begin="zoomplus.mouseover" end="zoomplus.mouseout"/>
                        </use>
                        <path d="M-4,0h8M0,-4v8" fill="none" stroke="white" stroke-width="1.5" pointer-events="none"/>
                </g>
                <g id="zoomMin">
                        <use xlink:href="#rim" fill="#404040">
                                <set attributeName="fill" to="#808080" begin="zoomminus.mouseover" end="zoomminus.mouseout"/>
                        </use>
                        <path d="M-4,0h8" fill="none" stroke="white" stroke-width="1.5" pointer-events="none"/>
                </g>
                <g id="dirArrow">
                        <path fill="none" stroke="white" stroke-width="1.5" d="M0,-3.0v7 M-2.5,-0.5L0,-3.0L2.5,-0.5"/>
                </g>
               <g id="resetDef">
                       <use xlink:href="#rim2" fill="#404040">
                               <set attributeName="fill" to="#808080" begin="reset.mouseover" end="reset.mouseout"/>
                       </use>
               </g>
        </defs>

<script type="text/javascript">
var viewWidth = 502;
var viewHeight = 327;
var sectionId = 'dynsection-0';
</script>
<script xlink:href="svgpan.js"/>
<svg id="graph" class="graph">
<g id="viewport">
<title>include/depz/core</title>
<polygon fill="white" stroke="transparent" points="-4,4 -4,-323 498,-323 498,4 -4,4"/>
<g id="clust1" class="cluster">
<title>clusterdir_a1e9a1d5c6cda4eb70d04ce20d0abc26</title>
<g id="a_clust1"><a xlink:href="dir_a1e9a1d5c6cda4eb70d04ce20d0abc26.html" target="_top" xlink:title="depz">
<polygon fill="#ddddee" stroke="black" points="8,-8 8,-311 486,-311 486,-8 8,-8"/>
<text text-anchor="middle" x="247" y="-299" font-family="Helvetica,sans-Serif" font-size="10.00">depz</text>
</a>
</g>
</g>
<g id="clust2" class="cluster">
<title>clusterdir_71232ddc3ae1bd3a847a61b9d91f14d6</title>
<g id="a_clust2"><a xlink:href="dir_71232ddc3ae1bd3a847a61b9d91f14d6.html" target="_top">
<polygon fill="#eeeeff" stroke="black" points="166,-16 166,-284 394,-284 394,-16 166,-16"/>
</a>
</g>
</g>
<!-- dir_017cfc82b676ee061cd48d9a7b73a746 -->
<g id="node1" class="node">
<title>dir_017cfc82b676ee061cd48d9a7b73a746</title>
<g id="a_node1"><a xlink:href="dir_017cfc82b676ee061cd48d9a7b73a746.html" target="_top" xlink:title="stereo">
<polygon fill="none" stroke="black" points="158,-204 104,-204 104,-168 158,-168 158,-204"/>
<text text-anchor="middle" x="131" y="-183.5" font-family="Helvetica,sans-Serif" font-size="10.00">stereo</text>
</a>
</g>
</g>
<!-- dir_8b81fdc9ef9af08c698f95a9dffd974a -->
<g id="node3" class="node">
<title>dir_8b81fdc9ef9af08c698f95a9dffd974a</title>
<g id="a_node3"><a xlink:href="dir_8b81fdc9ef9af08c698f95a9dffd974a.html" target="_top" xlink:title="processing">
<polygon fill="white" stroke="red" points="85.5,-132 16.5,-132 16.5,-96 85.5,-96 85.5,-132"/>
<text text-anchor="middle" x="51" y="-111.5" font-family="Helvetica,sans-Serif" font-size="10.00">processing</text>
</a>
</g>
</g>
<!-- dir_017cfc82b676ee061cd48d9a7b73a746&#45;&gt;dir_8b81fdc9ef9af08c698f95a9dffd974a -->
<g id="edge18" class="edge">
<title>dir_017cfc82b676ee061cd48d9a7b73a746&#45;&gt;dir_8b81fdc9ef9af08c698f95a9dffd974a</title>
<path fill="none" stroke="black" d="M111.22,-167.7C101.25,-158.97 88.99,-148.24 78.14,-138.75"/>
<polygon fill="black" stroke="black" points="80.38,-136.06 70.55,-132.1 75.77,-141.32 80.38,-136.06"/>
<g id="a_edge18&#45;headlabel"><a xlink:href="dir_000027_000025.html" target="_top" xlink:title="1">
<text text-anchor="middle" x="84.95" y="-133.79" font-family="Helvetica,sans-Serif" font-size="10.00">1</text>
</a>
</g>
</g>
<!-- dir_71232ddc3ae1bd3a847a61b9d91f14d6 -->
<g id="node6" class="node">
<title>dir_71232ddc3ae1bd3a847a61b9d91f14d6</title>
<text text-anchor="middle" x="359" y="-255.5" font-family="Helvetica,sans-Serif" font-size="10.00">core</text>
</g>
<!-- dir_017cfc82b676ee061cd48d9a7b73a746&#45;&gt;dir_71232ddc3ae1bd3a847a61b9d91f14d6 -->
<g id="edge17" class="edge">
<title>dir_017cfc82b676ee061cd48d9a7b73a746&#45;&gt;dir_71232ddc3ae1bd3a847a61b9d91f14d6</title>
<path fill="none" stroke="black" d="M158.19,-202.45C159.46,-203 160.74,-203.52 162,-204 227.65,-228.77 251.58,-217.3 321.97,-240.08"/>
<polygon fill="black" stroke="black" points="321.15,-243.5 331.74,-243.36 323.38,-236.86 321.15,-243.5"/>
<g id="a_edge17&#45;headlabel"><a xlink:href="dir_000027_000015.html" target="_top" xlink:title="2">
<text text-anchor="middle" x="316.84" y="-242.55" font-family="Helvetica,sans-Serif" font-size="10.00">2</text>
</a>
</g>
</g>
<!-- dir_152ce2f476906bac31d97c2be7b6a47b -->
<g id="node2" class="node">
<title>dir_152ce2f476906bac31d97c2be7b6a47b</title>
<g id="a_node2"><a xlink:href="dir_152ce2f476906bac31d97c2be7b6a47b.html" target="_top" xlink:title="controls">
<polygon fill="none" stroke="black" points="458,-204 402,-204 402,-168 458,-168 458,-204"/>
<text text-anchor="middle" x="430" y="-183.5" font-family="Helvetica,sans-Serif" font-size="10.00">controls</text>
</a>
</g>
</g>
<!-- dir_152ce2f476906bac31d97c2be7b6a47b&#45;&gt;dir_71232ddc3ae1bd3a847a61b9d91f14d6 -->
<g id="edge3" class="edge">
<title>dir_152ce2f476906bac31d97c2be7b6a47b&#45;&gt;dir_71232ddc3ae1bd3a847a61b9d91f14d6</title>
<path fill="none" stroke="black" d="M412.65,-204.1C404,-212.64 393.38,-223.11 383.87,-232.48"/>
<polygon fill="black" stroke="black" points="381.21,-230.18 376.55,-239.7 386.13,-235.17 381.21,-230.18"/>
<g id="a_edge3&#45;headlabel"><a xlink:href="dir_000014_000015.html" target="_top" xlink:title="1">
<text text-anchor="middle" x="381.78" y="-223.14" font-family="Helvetica,sans-Serif" font-size="10.00">1</text>
</a>
</g>
</g>
<!-- dir_fa2b85903e75369b41e8101548aa372e -->
<g id="node4" class="node">
<title>dir_fa2b85903e75369b41e8101548aa372e</title>
<g id="a_node4"><a xlink:href="dir_fa2b85903e75369b41e8101548aa372e.html" target="_top" xlink:title="camera">
<polygon fill="none" stroke="black" points="467,-132 413,-132 413,-96 467,-96 467,-132"/>
<text text-anchor="middle" x="440" y="-111.5" font-family="Helvetica,sans-Serif" font-size="10.00">camera</text>
</a>
</g>
</g>
<!-- dir_fa2b85903e75369b41e8101548aa372e&#45;&gt;dir_71232ddc3ae1bd3a847a61b9d91f14d6 -->
<g id="edge8" class="edge">
<title>dir_fa2b85903e75369b41e8101548aa372e&#45;&gt;dir_71232ddc3ae1bd3a847a61b9d91f14d6</title>
<path fill="none" stroke="black" d="M453.15,-132.17C465.8,-150.95 481.09,-181.39 467,-204 451.56,-228.77 420.8,-242.29 396.04,-249.46"/>
<polygon fill="black" stroke="black" points="394.97,-246.13 386.2,-252.08 396.77,-252.89 394.97,-246.13"/>
<g id="a_edge8&#45;headlabel"><a xlink:href="dir_000013_000015.html" target="_top" xlink:title="1">
<text text-anchor="middle" x="397.71" y="-239.96" font-family="Helvetica,sans-Serif" font-size="10.00">1</text>
</a>
</g>
</g>
<!-- dir_66f39e0ec9e36a0668d7605678ca9a99 -->
<g id="node5" class="node">
<title>dir_66f39e0ec9e36a0668d7605678ca9a99</title>
<g id="a_node5"><a xlink:href="dir_66f39e0ec9e36a0668d7605678ca9a99.html" target="_top" xlink:title="utils">
<polygon fill="none" stroke="black" points="158,-132 104,-132 104,-96 158,-96 158,-132"/>
<text text-anchor="middle" x="131" y="-111.5" font-family="Helvetica,sans-Serif" font-size="10.00">utils</text>
</a>
</g>
</g>
<!-- dir_8c2815c4df525515e0d6debd381b6178 -->
<g id="node7" class="node">
<title>dir_8c2815c4df525515e0d6debd381b6178</title>
<g id="a_node7"><a xlink:href="dir_8c2815c4df525515e0d6debd381b6178.html" target="_top" xlink:title="calibration">
<polygon fill="white" stroke="black" points="242,-276 174,-276 174,-240 242,-240 242,-276"/>
<text text-anchor="middle" x="208" y="-255.5" font-family="Helvetica,sans-Serif" font-size="10.00">calibration</text>
</a>
</g>
</g>
<!-- dir_8c2815c4df525515e0d6debd381b6178&#45;&gt;dir_017cfc82b676ee061cd48d9a7b73a746 -->
<g id="edge5" class="edge">
<title>dir_8c2815c4df525515e0d6debd381b6178&#45;&gt;dir_017cfc82b676ee061cd48d9a7b73a746</title>
<path fill="none" stroke="black" d="M188.97,-239.7C179.46,-231.05 167.79,-220.45 157.43,-211.03"/>
<polygon fill="black" stroke="black" points="159.57,-208.24 149.81,-204.1 154.86,-213.42 159.57,-208.24"/>
<g id="a_edge5&#45;headlabel"><a xlink:href="dir_000016_000027.html" target="_top" xlink:title="2">
<text text-anchor="middle" x="164.14" y="-206.06" font-family="Helvetica,sans-Serif" font-size="10.00">2</text>
</a>
</g>
</g>
<!-- dir_8c2815c4df525515e0d6debd381b6178&#45;&gt;dir_152ce2f476906bac31d97c2be7b6a47b -->
<g id="edge6" class="edge">
<title>dir_8c2815c4df525515e0d6debd381b6178&#45;&gt;dir_152ce2f476906bac31d97c2be7b6a47b</title>
<path fill="none" stroke="black" d="M242.12,-243.03C245.1,-241.95 248.09,-240.93 251,-240 311.96,-220.58 333.09,-227.21 392.45,-205.92"/>
<polygon fill="black" stroke="black" points="393.75,-209.17 401.91,-202.41 391.32,-202.61 393.75,-209.17"/>
<g id="a_edge6&#45;headlabel"><a xlink:href="dir_000016_000014.html" target="_top" xlink:title="1">
<text text-anchor="middle" x="391.37" y="-210.58" font-family="Helvetica,sans-Serif" font-size="10.00">1</text>
</a>
</g>
</g>
<!-- dir_b782a4050b0cf0216045d3937f189ab0 -->
<g id="node11" class="node">
<title>dir_b782a4050b0cf0216045d3937f189ab0</title>
<g id="a_node11"><a xlink:href="dir_b782a4050b0cf0216045d3937f189ab0.html" target="_top" xlink:title="pipeline">
<polygon fill="white" stroke="black" points="234,-204 178,-204 178,-168 234,-168 234,-204"/>
<text text-anchor="middle" x="206" y="-183.5" font-family="Helvetica,sans-Serif" font-size="10.00">pipeline</text>
</a>
</g>
</g>
<!-- dir_8c2815c4df525515e0d6debd381b6178&#45;&gt;dir_b782a4050b0cf0216045d3937f189ab0 -->
<g id="edge7" class="edge">
<title>dir_8c2815c4df525515e0d6debd381b6178&#45;&gt;dir_b782a4050b0cf0216045d3937f189ab0</title>
<path fill="none" stroke="black" d="M207.51,-239.7C207.29,-231.98 207.02,-222.71 206.77,-214.11"/>
<polygon fill="black" stroke="black" points="210.27,-214 206.49,-204.1 203.28,-214.2 210.27,-214"/>
<g id="a_edge7&#45;headlabel"><a xlink:href="dir_000016_000020.html" target="_top" xlink:title="1">
<text text-anchor="middle" x="213.21" y="-215.01" font-family="Helvetica,sans-Serif" font-size="10.00">1</text>
</a>
</g>
</g>
<!-- dir_9c33022977158ace281e7917f400894e -->
<g id="node8" class="node">
<title>dir_9c33022977158ace281e7917f400894e</title>
<g id="a_node8"><a xlink:href="dir_9c33022977158ace281e7917f400894e.html" target="_top" xlink:title="engines">
<polygon fill="white" stroke="black" points="345.5,-60 290.5,-60 290.5,-24 345.5,-24 345.5,-60"/>
<text text-anchor="middle" x="318" y="-39.5" font-family="Helvetica,sans-Serif" font-size="10.00">engines</text>
</a>
</g>
</g>
<!-- dir_590f5e79c575b2a37b644e4b5cb6d84b -->
<g id="node9" class="node">
<title>dir_590f5e79c575b2a37b644e4b5cb6d84b</title>
<g id="a_node9"><a xlink:href="dir_590f5e79c575b2a37b644e4b5cb6d84b.html" target="_top" xlink:title="filters">
<polygon fill="white" stroke="black" points="314,-276 260,-276 260,-240 314,-240 314,-276"/>
<text text-anchor="middle" x="287" y="-255.5" font-family="Helvetica,sans-Serif" font-size="10.00">filters</text>
</a>
</g>
</g>
<!-- dir_590f5e79c575b2a37b644e4b5cb6d84b&#45;&gt;dir_152ce2f476906bac31d97c2be7b6a47b -->
<g id="edge4" class="edge">
<title>dir_590f5e79c575b2a37b644e4b5cb6d84b&#45;&gt;dir_152ce2f476906bac31d97c2be7b6a47b</title>
<path fill="none" stroke="black" d="M314.22,-244.08C339.11,-232.25 374.43,-215.44 392.68,-206.56"/>
<polygon fill="black" stroke="black" points="394.34,-209.64 401.77,-202.08 391.25,-203.37 394.34,-209.64"/>
<g id="a_edge4&#45;headlabel"><a xlink:href="dir_000018_000014.html" target="_top" xlink:title="1">
<text text-anchor="middle" x="392.37" y="-211.28" font-family="Helvetica,sans-Serif" font-size="10.00">1</text>
</a>
</g>
</g>
<!-- dir_96e519c76fb11d8368bdb588e3df091d -->
<g id="node10" class="node">
<title>dir_96e519c76fb11d8368bdb588e3df091d</title>
<g id="a_node10"><a xlink:href="dir_96e519c76fb11d8368bdb588e3df091d.html" target="_top" xlink:title="inference">
<polygon fill="white" stroke="black" points="349,-132 287,-132 287,-96 349,-96 349,-132"/>
<text text-anchor="middle" x="318" y="-111.5" font-family="Helvetica,sans-Serif" font-size="10.00">inference</text>
</a>
</g>
</g>
<!-- dir_96e519c76fb11d8368bdb588e3df091d&#45;&gt;dir_152ce2f476906bac31d97c2be7b6a47b -->
<g id="edge9" class="edge">
<title>dir_96e519c76fb11d8368bdb588e3df091d&#45;&gt;dir_152ce2f476906bac31d97c2be7b6a47b</title>
<path fill="none" stroke="black" d="M345.5,-132.19C360.03,-141.27 378.04,-152.53 393.7,-162.31"/>
<polygon fill="black" stroke="black" points="392.27,-165.54 402.6,-167.88 395.98,-159.61 392.27,-165.54"/>
<g id="a_edge9&#45;headlabel"><a xlink:href="dir_000019_000014.html" target="_top" xlink:title="1">
<text text-anchor="middle" x="387.71" y="-163.55" font-family="Helvetica,sans-Serif" font-size="10.00">1</text>
</a>
</g>
</g>
<!-- dir_96e519c76fb11d8368bdb588e3df091d&#45;&gt;dir_9c33022977158ace281e7917f400894e -->
<g id="edge10" class="edge">
<title>dir_96e519c76fb11d8368bdb588e3df091d&#45;&gt;dir_9c33022977158ace281e7917f400894e</title>
<path fill="none" stroke="black" d="M318,-95.7C318,-87.98 318,-78.71 318,-70.11"/>
<polygon fill="black" stroke="black" points="321.5,-70.1 318,-60.1 314.5,-70.1 321.5,-70.1"/>
<g id="a_edge10&#45;headlabel"><a xlink:href="dir_000019_000017.html" target="_top" xlink:title="1">
<text text-anchor="middle" x="324.34" y="-71.2" font-family="Helvetica,sans-Serif" font-size="10.00">1</text>
</a>
</g>
</g>
<!-- dir_b782a4050b0cf0216045d3937f189ab0&#45;&gt;dir_017cfc82b676ee061cd48d9a7b73a746 -->
<g id="edge11" class="edge">
<title>dir_b782a4050b0cf0216045d3937f189ab0&#45;&gt;dir_017cfc82b676ee061cd48d9a7b73a746</title>
<path fill="none" stroke="black" d="M177.65,-186C174.51,-186 171.38,-186 168.25,-186"/>
<polygon fill="black" stroke="black" points="168.25,-182.5 158.25,-186 168.25,-189.5 168.25,-182.5"/>
<g id="a_edge11&#45;headlabel"><a xlink:href="dir_000020_000027.html" target="_top" xlink:title="2">
<text text-anchor="middle" x="171.84" y="-177.16" font-family="Helvetica,sans-Serif" font-size="10.00">2</text>
</a>
</g>
</g>
<!-- dir_b782a4050b0cf0216045d3937f189ab0&#45;&gt;dir_8b81fdc9ef9af08c698f95a9dffd974a -->
<g id="edge14" class="edge">
<title>dir_b782a4050b0cf0216045d3937f189ab0&#45;&gt;dir_8b81fdc9ef9af08c698f95a9dffd974a</title>
<path fill="none" stroke="black" d="M177.8,-169.86C176.52,-169.22 175.25,-168.6 174,-168 148.12,-155.57 118.58,-142.8 94.94,-132.91"/>
<polygon fill="black" stroke="black" points="96.11,-129.61 85.53,-129 93.42,-136.07 96.11,-129.61"/>
<g id="a_edge14&#45;headlabel"><a xlink:href="dir_000020_000025.html" target="_top" xlink:title="2">
<text text-anchor="middle" x="100.52" y="-125.87" font-family="Helvetica,sans-Serif" font-size="10.00">2</text>
</a>
</g>
</g>
<!-- dir_b782a4050b0cf0216045d3937f189ab0&#45;&gt;dir_fa2b85903e75369b41e8101548aa372e -->
<g id="edge16" class="edge">
<title>dir_b782a4050b0cf0216045d3937f189ab0&#45;&gt;dir_fa2b85903e75369b41e8101548aa372e</title>
<path fill="none" stroke="black" d="M234.08,-169.56C235.39,-169 236.7,-168.48 238,-168 306.35,-142.68 328.43,-153.75 398,-132 399.65,-131.48 401.33,-130.93 403.02,-130.35"/>
<polygon fill="black" stroke="black" points="404.49,-133.54 412.67,-126.81 402.08,-126.97 404.49,-133.54"/>
<g id="a_edge16&#45;headlabel"><a xlink:href="dir_000020_000013.html" target="_top" xlink:title="1">
<text text-anchor="middle" x="402.09" y="-134.94" font-family="Helvetica,sans-Serif" font-size="10.00">1</text>
</a>
</g>
</g>
<!-- dir_b782a4050b0cf0216045d3937f189ab0&#45;&gt;dir_66f39e0ec9e36a0668d7605678ca9a99 -->
<g id="edge13" class="edge">
<title>dir_b782a4050b0cf0216045d3937f189ab0&#45;&gt;dir_66f39e0ec9e36a0668d7605678ca9a99</title>
<path fill="none" stroke="black" d="M187.46,-167.7C178.2,-159.05 166.84,-148.45 156.74,-139.03"/>
<polygon fill="black" stroke="black" points="159.02,-136.37 149.33,-132.1 154.25,-141.49 159.02,-136.37"/>
<g id="a_edge13&#45;headlabel"><a xlink:href="dir_000020_000028.html" target="_top" xlink:title="1">
<text text-anchor="middle" x="163.59" y="-134.25" font-family="Helvetica,sans-Serif" font-size="10.00">1</text>
</a>
</g>
</g>
<!-- dir_b782a4050b0cf0216045d3937f189ab0&#45;&gt;dir_96e519c76fb11d8368bdb588e3df091d -->
<g id="edge15" class="edge">
<title>dir_b782a4050b0cf0216045d3937f189ab0&#45;&gt;dir_96e519c76fb11d8368bdb588e3df091d</title>
<path fill="none" stroke="black" d="M233.4,-167.88C247.91,-158.81 265.92,-147.55 281.59,-137.76"/>
<polygon fill="black" stroke="black" points="283.87,-140.46 290.5,-132.19 280.16,-134.52 283.87,-140.46"/>
<g id="a_edge15&#45;headlabel"><a xlink:href="dir_000020_000019.html" target="_top" xlink:title="3">
<text text-anchor="middle" x="282.33" y="-142.27" font-family="Helvetica,sans-Serif" font-size="10.00">3</text>
</a>
</g>
</g>
<!-- dir_5677f301335a195fa4eb3b1b8d325271 -->
<g id="node13" class="node">
<title>dir_5677f301335a195fa4eb3b1b8d325271</title>
<g id="a_node13"><a xlink:href="dir_5677f301335a195fa4eb3b1b8d325271.html" target="_top" xlink:title="sources">
<polygon fill="white" stroke="black" points="233,-132 179,-132 179,-96 233,-96 233,-132"/>
<text text-anchor="middle" x="206" y="-111.5" font-family="Helvetica,sans-Serif" font-size="10.00">sources</text>
</a>
</g>
</g>
<!-- dir_b782a4050b0cf0216045d3937f189ab0&#45;&gt;dir_5677f301335a195fa4eb3b1b8d325271 -->
<g id="edge12" class="edge">
<title>dir_b782a4050b0cf0216045d3937f189ab0&#45;&gt;dir_5677f301335a195fa4eb3b1b8d325271</title>
<path fill="none" stroke="black" d="M206,-167.7C206,-159.98 206,-150.71 206,-142.11"/>
<polygon fill="black" stroke="black" points="209.5,-142.1 206,-132.1 202.5,-142.1 209.5,-142.1"/>
<g id="a_edge12&#45;headlabel"><a xlink:href="dir_000020_000022.html" target="_top" xlink:title="1">
<text text-anchor="middle" x="212.34" y="-143.2" font-family="Helvetica,sans-Serif" font-size="10.00">1</text>
</a>
</g>
</g>
<!-- dir_c81c48c5757634c1fb74efccfe5b61ff -->
<g id="node12" class="node">
<title>dir_c81c48c5757634c1fb74efccfe5b61ff</title>
<g id="a_node12"><a xlink:href="dir_c81c48c5757634c1fb74efccfe5b61ff.html" target="_top" xlink:title="recorder">
<polygon fill="white" stroke="black" points="234.5,-60 177.5,-60 177.5,-24 234.5,-24 234.5,-60"/>
<text text-anchor="middle" x="206" y="-39.5" font-family="Helvetica,sans-Serif" font-size="10.00">recorder</text>
</a>
</g>
</g>
<!-- dir_c81c48c5757634c1fb74efccfe5b61ff&#45;&gt;dir_5677f301335a195fa4eb3b1b8d325271 -->
<g id="edge2" class="edge">
<title>dir_c81c48c5757634c1fb74efccfe5b61ff&#45;&gt;dir_5677f301335a195fa4eb3b1b8d325271</title>
<path fill="none" stroke="black" d="M211.9,-60.1C212.7,-67.79 212.94,-77.05 212.6,-85.67"/>
<polygon fill="black" stroke="black" points="209.11,-85.48 211.92,-95.7 216.09,-85.96 209.11,-85.48"/>
<g id="a_edge2&#45;headlabel"><a xlink:href="dir_000021_000022.html" target="_top" xlink:title="1">
<text text-anchor="middle" x="206.52" y="-79.2" font-family="Helvetica,sans-Serif" font-size="10.00">1</text>
</a>
</g>
</g>
<!-- dir_5677f301335a195fa4eb3b1b8d325271&#45;&gt;dir_c81c48c5757634c1fb74efccfe5b61ff -->
<g id="edge1" class="edge">
<title>dir_5677f301335a195fa4eb3b1b8d325271&#45;&gt;dir_c81c48c5757634c1fb74efccfe5b61ff</title>
<path fill="none" stroke="black" d="M200.08,-95.7C199.29,-87.98 199.06,-78.71 199.4,-70.11"/>
<polygon fill="black" stroke="black" points="202.9,-70.32 200.1,-60.1 195.92,-69.84 202.9,-70.32"/>
<g id="a_edge1&#45;headlabel"><a xlink:href="dir_000022_000021.html" target="_top" xlink:title="1">
<text text-anchor="middle" x="205.48" y="-71.61" font-family="Helvetica,sans-Serif" font-size="10.00">1</text>
</a>
</g>
</g>
</g>
</svg>
        <g id="navigator" transform="translate(0 0)" fill="#404254">
                <rect fill="#f2f5e9" fill-opacity="0.5" stroke="#606060" stroke-width=".5" x="0" y="0" width="60" height="60"/>
                <use id="zoomplus" xlink:href="#zoomPlus" x="17" y="9" onmousedown="handleZoom(evt,'in')"/>
                <use id="zoomminus" xlink:href="#zoomMin" x="42" y="9" onmousedown="handleZoom(evt,'out')"/>
                <use id="reset" xlink:href="#resetDef" x="30" y="36" onmousedown="handleReset()"/>
                <g id="arrowUp" xlink:href="#dirArrow" transform="translate(30 24)" onmousedown="handlePan(0,-1)">
                  <use xlink:href="#rim" fill="#404040">
                        <set attributeName="fill" to="#808080" begin="arrowUp.mouseover" end="arrowUp.mouseout"/>
                  </use>
                  <path fill="none" stroke="white" stroke-width="1.5" d="M0,-3.0v7 M-2.5,-0.5L0,-3.0L2.5,-0.5"/>
                </g>
                <g id="arrowRight" xlink:href="#dirArrow" transform="rotate(90) translate(36 -43)" onmousedown="handlePan(1,0)">
                  <use xlink:href="#rim" fill="#404040">
                        <set attributeName="fill" to="#808080" begin="arrowRight.mouseover" end="arrowRight.mouseout"/>
                  </use>
                  <path fill="none" stroke="white" stroke-width="1.5" d="M0,-3.0v7 M-2.5,-0.5L0,-3.0L2.5,-0.5"/>
                </g>
                <g id="arrowDown" xlink:href="#dirArrow" transform="rotate(180) translate(-30 -48)" onmousedown="handlePan(0,1)">
                  <use xlink:href="#rim" fill="#404040">
                        <set attributeName="fill" to="#808080" begin="arrowDown.mouseover" end="arrowDown.mouseout"/>
                  </use>
                  <path fill="none" stroke="white" stroke-width="1.5" d="M0,-3.0v7 M-2.5,-0.5L0,-3.0L2.5,-0.5"/>
                </g>
                <g id="arrowLeft" xlink:href="#dirArrow" transform="rotate(270) translate(-36 17)" onmousedown="handlePan(-1,0)">
                  <use xlink:href="#rim" fill="#404040">
                        <set attributeName="fill" to="#808080" begin="arrowLeft.mouseover" end="arrowLeft.mouseout"/>
                  </use>
                  <path fill="none" stroke="white" stroke-width="1.5" d="M0,-3.0v7 M-2.5,-0.5L0,-3.0L2.5,-0.5"/>
                </g>
        </g>
        <svg viewBox="0 0 15 15" width="100%" height="30px" preserveAspectRatio="xMaxYMin meet">
         <g id="arrow_out" transform="scale(0.3 0.3)">
          <a xlink:href="dir_71232ddc3ae1bd3a847a61b9d91f14d6_dep_org.svg" target="_base">
           <rect id="button" ry="5" rx="5" y="6" x="6" height="38" width="38"
                fill="#f2f5e9" fill-opacity="0.5" stroke="#606060" stroke-width="1.0"/>
           <path id="arrow"
             d="M 11.500037,31.436501 C 11.940474,20.09759 22.043105,11.32322 32.158766,21.979434 L 37.068811,17.246167 C 37.068811,17.246167 37.088388,32 37.088388,32 L 22.160133,31.978069 C 22.160133,31.978069 26.997745,27.140456 26.997745,27.140456 C 18.528582,18.264221 13.291696,25.230495 11.500037,31.436501 z"
             style="fill:#404040;"/>
          </a>
         </g>
        </svg>
</svg>
