<?xml version="1.0" encoding="UTF-8" standalone="no"?>
<!DOCTYPE svg PUBLIC "-//W3C//DTD SVG 1.1//EN"
 "http://www.w3.org/Graphics/SVG/1.1/DTD/svg11.dtd">
<!-- Generated by graphviz version 2.43.0 (0)
 -->
<!-- Title: include/depz/core/pipeline/filter_chain.h Pages: 1 -->
<svg width="570pt" height="218pt"
 viewBox="0.00 0.00 570.00 218.00" xmlns="http://www.w3.org/2000/svg" xmlns:xlink="http://www.w3.org/1999/xlink">
<g id="graph0" class="graph" transform="scale(1 1) rotate(0) translate(4 214)">
<title>include/depz/core/pipeline/filter_chain.h</title>
<polygon fill="white" stroke="transparent" points="-4,4 -4,-214 566,-214 566,4 -4,4"/>
<!-- Node1 -->
<g id="node1" class="node">
<title>Node1</title>
<g id="a_node1"><a xlink:title=" ">
<polygon fill="#bfbfbf" stroke="black" points="110,-179.5 110,-209.5 254,-209.5 254,-179.5 110,-179.5"/>
<text text-anchor="start" x="118" y="-197.5" font-family="Helvetica,sans-Serif" font-size="10.00">include/depz/core/pipeline</text>
<text text-anchor="middle" x="182" y="-186.5" font-family="Helvetica,sans-Serif" font-size="10.00">/filter_chain.h</text>
</a>
</g>
</g>
<!-- Node2 -->
<g id="node2" class="node">
<title>Node2</title>
<g id="a_node2"><a xlink:title=" ">
<polygon fill="white" stroke="#bfbfbf" points="0,-118 0,-137 50,-137 50,-118 0,-118"/>
<text text-anchor="middle" x="25" y="-125" font-family="Helvetica,sans-Serif" font-size="10.00">cstdint</text>
</a>
</g>
</g>
<!-- Node1&#45;&gt;Node2 -->
<g id="edge1" class="edge">
<title>Node1&#45;&gt;Node2</title>
<path fill="none" stroke="midnightblue" d="M147.93,-179.4C120.26,-167.94 81.61,-151.94 55.08,-140.95"/>
<polygon fill="midnightblue" stroke="midnightblue" points="56.13,-137.6 45.55,-137.01 53.45,-144.07 56.13,-137.6"/>
</g>
<!-- Node3 -->
<g id="node3" class="node">
<title>Node3</title>
<g id="a_node3"><a xlink:title=" ">
<polygon fill="white" stroke="#bfbfbf" points="183,-56.5 183,-75.5 231,-75.5 231,-56.5 183,-56.5"/>
<text text-anchor="middle" x="207" y="-63.5" font-family="Helvetica,sans-Serif" font-size="10.00">mutex</text>
</a>
</g>
</g>
<!-- Node1&#45;&gt;Node3 -->
<g id="edge2" class="edge">
<title>Node1&#45;&gt;Node3</title>
<path fill="none" stroke="midnightblue" d="M140.6,-179.4C123.97,-171.46 106.51,-159.71 97,-143 90.19,-131.03 89.32,-123.44 97,-112 113.78,-87.01 147.16,-75.88 172.77,-70.94"/>
<polygon fill="midnightblue" stroke="midnightblue" points="173.58,-74.36 182.85,-69.23 172.41,-67.45 173.58,-74.36"/>
</g>
<!-- Node4 -->
<g id="node4" class="node">
<title>Node4</title>
<g id="a_node4"><a xlink:title=" ">
<polygon fill="white" stroke="#bfbfbf" points="106.5,-118 106.5,-137 179.5,-137 179.5,-118 106.5,-118"/>
<text text-anchor="middle" x="143" y="-125" font-family="Helvetica,sans-Serif" font-size="10.00">string_view</text>
</a>
</g>
</g>
<!-- Node1&#45;&gt;Node4 -->
<g id="edge3" class="edge">
<title>Node1&#45;&gt;Node4</title>
<path fill="none" stroke="midnightblue" d="M173.54,-179.4C167.64,-169.56 159.73,-156.38 153.44,-145.89"/>
<polygon fill="midnightblue" stroke="midnightblue" points="156.36,-143.97 148.22,-137.19 150.36,-147.57 156.36,-143.97"/>
</g>
<!-- Node5 -->
<g id="node5" class="node">
<title>Node5</title>
<g id="a_node5"><a xlink:title=" ">
<polygon fill="white" stroke="#bfbfbf" points="197.5,-118 197.5,-137 244.5,-137 244.5,-118 197.5,-118"/>
<text text-anchor="middle" x="221" y="-125" font-family="Helvetica,sans-Serif" font-size="10.00">vector</text>
</a>
</g>
</g>
<!-- Node1&#45;&gt;Node5 -->
<g id="edge4" class="edge">
<title>Node1&#45;&gt;Node5</title>
<path fill="none" stroke="midnightblue" d="M190.46,-179.4C196.36,-169.56 204.27,-156.38 210.56,-145.89"/>
<polygon fill="midnightblue" stroke="midnightblue" points="213.64,-147.57 215.78,-137.19 207.64,-143.97 213.64,-147.57"/>
</g>
<!-- Node6 -->
<g id="node6" class="node">
<title>Node6</title>
<g id="a_node6"><a xlink:title=" ">
<polygon fill="white" stroke="#bfbfbf" points="262.5,-118 262.5,-137 365.5,-137 365.5,-118 262.5,-118"/>
<text text-anchor="middle" x="314" y="-125" font-family="Helvetica,sans-Serif" font-size="10.00">opencv2/core.hpp</text>
</a>
</g>
</g>
<!-- Node1&#45;&gt;Node6 -->
<g id="edge5" class="edge">
<title>Node1&#45;&gt;Node6</title>
<path fill="none" stroke="midnightblue" d="M210.64,-179.4C233.5,-168.14 265.26,-152.5 287.52,-141.54"/>
<polygon fill="midnightblue" stroke="midnightblue" points="289.3,-144.56 296.72,-137.01 286.21,-138.28 289.3,-144.56"/>
</g>
<!-- Node7 -->
<g id="node7" class="node">
<title>Node7</title>
<g id="a_node7"><a xlink:href="adaptive__temporal__kalman__filter_8h.html" target="_top" xlink:title=" ">
<polygon fill="white" stroke="black" points="383.5,-112.5 383.5,-142.5 526.5,-142.5 526.5,-112.5 383.5,-112.5"/>
<text text-anchor="start" x="391.5" y="-130.5" font-family="Helvetica,sans-Serif" font-size="10.00">depz/processing/adaptive</text>
<text text-anchor="middle" x="455" y="-119.5" font-family="Helvetica,sans-Serif" font-size="10.00">_temporal_kalman_filter.h</text>
</a>
</g>
</g>
<!-- Node1&#45;&gt;Node7 -->
<g id="edge6" class="edge">
<title>Node1&#45;&gt;Node7</title>
<path fill="none" stroke="midnightblue" d="M240.9,-179.48C283.45,-169.34 341.07,-155.63 385.81,-144.97"/>
<polygon fill="midnightblue" stroke="midnightblue" points="386.82,-148.33 395.73,-142.61 385.2,-141.52 386.82,-148.33"/>
</g>
<!-- Node7&#45;&gt;Node3 -->
<g id="edge11" class="edge">
<title>Node7&#45;&gt;Node3</title>
<path fill="none" stroke="midnightblue" d="M396.54,-112.47C348.06,-100.84 280.83,-84.71 240.83,-75.12"/>
<polygon fill="midnightblue" stroke="midnightblue" points="241.58,-71.7 231.04,-72.77 239.95,-78.5 241.58,-71.7"/>
</g>
<!-- Node8 -->
<g id="node8" class="node">
<title>Node8</title>
<g id="a_node8"><a xlink:href="idepthfilter_8h.html" target="_top" xlink:title="Abstract interface for depth&#45;map and disparity&#45;map filters.">
<polygon fill="white" stroke="black" points="416,-56.5 416,-75.5 494,-75.5 494,-56.5 416,-56.5"/>
<text text-anchor="middle" x="455" y="-63.5" font-family="Helvetica,sans-Serif" font-size="10.00">idepthfilter.h</text>
</a>
</g>
</g>
<!-- Node7&#45;&gt;Node8 -->
<g id="edge7" class="edge">
<title>Node7&#45;&gt;Node8</title>
<path fill="none" stroke="midnightblue" d="M455,-112.4C455,-104.47 455,-94.46 455,-85.86"/>
<polygon fill="midnightblue" stroke="midnightblue" points="458.5,-85.66 455,-75.66 451.5,-85.66 458.5,-85.66"/>
</g>
<!-- Node9 -->
<g id="node9" class="node">
<title>Node9</title>
<g id="a_node9"><a xlink:title=" ">
<polygon fill="white" stroke="#bfbfbf" points="330,-0.5 330,-19.5 446,-19.5 446,-0.5 330,-0.5"/>
<text text-anchor="middle" x="388" y="-7.5" font-family="Helvetica,sans-Serif" font-size="10.00">opencv2/opencv.hpp</text>
</a>
</g>
</g>
<!-- Node7&#45;&gt;Node9 -->
<g id="edge10" class="edge">
<title>Node7&#45;&gt;Node9</title>
<path fill="none" stroke="midnightblue" d="M437.73,-112.17C427.48,-102.83 414.96,-89.84 407,-76 398.66,-61.51 393.72,-43.07 390.98,-29.53"/>
<polygon fill="midnightblue" stroke="midnightblue" points="394.39,-28.72 389.17,-19.5 387.51,-29.97 394.39,-28.72"/>
</g>
<!-- Node11 -->
<g id="node11" class="node">
<title>Node11</title>
<g id="a_node11"><a xlink:title=" ">
<polygon fill="white" stroke="#bfbfbf" points="512,-56.5 512,-75.5 562,-75.5 562,-56.5 512,-56.5"/>
<text text-anchor="middle" x="537" y="-63.5" font-family="Helvetica,sans-Serif" font-size="10.00">atomic</text>
</a>
</g>
</g>
<!-- Node7&#45;&gt;Node11 -->
<g id="edge12" class="edge">
<title>Node7&#45;&gt;Node11</title>
<path fill="none" stroke="midnightblue" d="M474.43,-112.4C487.21,-103.13 503.89,-91.03 516.81,-81.65"/>
<polygon fill="midnightblue" stroke="midnightblue" points="519.03,-84.36 525.07,-75.66 514.92,-78.7 519.03,-84.36"/>
</g>
<!-- Node8&#45;&gt;Node9 -->
<g id="edge8" class="edge">
<title>Node8&#45;&gt;Node9</title>
<path fill="none" stroke="midnightblue" d="M444.24,-56.32C434.23,-48.26 419.11,-36.08 407.07,-26.37"/>
<polygon fill="midnightblue" stroke="midnightblue" points="408.94,-23.38 398.96,-19.83 404.55,-28.83 408.94,-23.38"/>
</g>
<!-- Node10 -->
<g id="node10" class="node">
<title>Node10</title>
<g id="a_node10"><a xlink:title=" ">
<polygon fill="white" stroke="#bfbfbf" points="464,-0.5 464,-19.5 522,-19.5 522,-0.5 464,-0.5"/>
<text text-anchor="middle" x="493" y="-7.5" font-family="Helvetica,sans-Serif" font-size="10.00">memory</text>
</a>
</g>
</g>
<!-- Node8&#45;&gt;Node10 -->
<g id="edge9" class="edge">
<title>Node8&#45;&gt;Node10</title>
<path fill="none" stroke="midnightblue" d="M461.27,-56.08C466.64,-48.46 474.52,-37.26 481.08,-27.94"/>
<polygon fill="midnightblue" stroke="midnightblue" points="483.95,-29.94 486.84,-19.75 478.22,-25.91 483.95,-29.94"/>
</g>
</g>
</svg>
