<?xml version="1.0" encoding="UTF-8" standalone="no"?>
<!DOCTYPE svg PUBLIC "-//W3C//DTD SVG 1.1//EN"
 "http://www.w3.org/Graphics/SVG/1.1/DTD/svg11.dtd">
<!-- Generated by graphviz version 2.43.0 (0)
 -->
<!-- Title: include/depz/core/sources/frame_decode.h Pages: 1 -->
<svg width="313pt" height="95pt"
 viewBox="0.00 0.00 312.50 95.00" xmlns="http://www.w3.org/2000/svg" xmlns:xlink="http://www.w3.org/1999/xlink">
<g id="graph0" class="graph" transform="scale(1 1) rotate(0) translate(4 91)">
<title>include/depz/core/sources/frame_decode.h</title>
<polygon fill="white" stroke="transparent" points="-4,4 -4,-91 308.5,-91 308.5,4 -4,4"/>
<!-- Node1 -->
<g id="node1" class="node">
<title>Node1</title>
<g id="a_node1"><a xlink:title=" ">
<polygon fill="#bfbfbf" stroke="black" points="111,-56.5 111,-86.5 254,-86.5 254,-56.5 111,-56.5"/>
<text text-anchor="start" x="119" y="-74.5" font-family="Helvetica,sans-Serif" font-size="10.00">include/depz/core/sources</text>
<text text-anchor="middle" x="182.5" y="-63.5" font-family="Helvetica,sans-Serif" font-size="10.00">/frame_decode.h</text>
</a>
</g>
</g>
<!-- Node2 -->
<g id="node2" class="node">
<title>Node2</title>
<g id="a_node2"><a xlink:title=" ">
<polygon fill="white" stroke="#bfbfbf" points="0,-0.5 0,-19.5 103,-19.5 103,-0.5 0,-0.5"/>
<text text-anchor="middle" x="51.5" y="-7.5" font-family="Helvetica,sans-Serif" font-size="10.00">opencv2/core.hpp</text>
</a>
</g>
</g>
<!-- Node1&#45;&gt;Node2 -->
<g id="edge1" class="edge">
<title>Node1&#45;&gt;Node2</title>
<path fill="none" stroke="midnightblue" d="M151.45,-56.4C129.77,-46.55 101.04,-33.5 79.95,-23.92"/>
<polygon fill="midnightblue" stroke="midnightblue" points="81.11,-20.61 70.56,-19.66 78.22,-26.98 81.11,-20.61"/>
</g>
<!-- Node3 -->
<g id="node3" class="node">
<title>Node3</title>
<g id="a_node3"><a xlink:title=" ">
<polygon fill="white" stroke="#bfbfbf" points="121,-0.5 121,-19.5 174,-19.5 174,-0.5 121,-0.5"/>
<text text-anchor="middle" x="147.5" y="-7.5" font-family="Helvetica,sans-Serif" font-size="10.00">cstddef</text>
</a>
</g>
</g>
<!-- Node1&#45;&gt;Node3 -->
<g id="edge2" class="edge">
<title>Node1&#45;&gt;Node3</title>
<path fill="none" stroke="midnightblue" d="M174.21,-56.4C169.28,-48.02 162.99,-37.33 157.75,-28.42"/>
<polygon fill="midnightblue" stroke="midnightblue" points="160.68,-26.5 152.59,-19.66 154.65,-30.05 160.68,-26.5"/>
</g>
<!-- Node4 -->
<g id="node4" class="node">
<title>Node4</title>
<g id="a_node4"><a xlink:title=" ">
<polygon fill="white" stroke="#bfbfbf" points="192.5,-0.5 192.5,-19.5 242.5,-19.5 242.5,-0.5 192.5,-0.5"/>
<text text-anchor="middle" x="217.5" y="-7.5" font-family="Helvetica,sans-Serif" font-size="10.00">cstdint</text>
</a>
</g>
</g>
<!-- Node1&#45;&gt;Node4 -->
<g id="edge3" class="edge">
<title>Node1&#45;&gt;Node4</title>
<path fill="none" stroke="midnightblue" d="M190.79,-56.4C195.72,-48.02 202.01,-37.33 207.25,-28.42"/>
<polygon fill="midnightblue" stroke="midnightblue" points="210.35,-30.05 212.41,-19.66 204.32,-26.5 210.35,-30.05"/>
</g>
<!-- Node5 -->
<g id="node5" class="node">
<title>Node5</title>
<g id="a_node5"><a xlink:title=" ">
<polygon fill="white" stroke="#bfbfbf" points="260.5,-0.5 260.5,-19.5 304.5,-19.5 304.5,-0.5 260.5,-0.5"/>
<text text-anchor="middle" x="282.5" y="-7.5" font-family="Helvetica,sans-Serif" font-size="10.00">string</text>
</a>
</g>
</g>
<!-- Node1&#45;&gt;Node5 -->
<g id="edge4" class="edge">
<title>Node1&#45;&gt;Node5</title>
<path fill="none" stroke="midnightblue" d="M206.2,-56.4C222.23,-46.86 243.3,-34.32 259.24,-24.84"/>
<polygon fill="midnightblue" stroke="midnightblue" points="261.14,-27.78 267.95,-19.66 257.57,-21.76 261.14,-27.78"/>
</g>
</g>
</svg>
