<?xml version="1.0" encoding="UTF-8" standalone="no"?>
<!DOCTYPE svg PUBLIC "-//W3C//DTD SVG 1.1//EN"
 "http://www.w3.org/Graphics/SVG/1.1/DTD/svg11.dtd">
<!-- Generated by graphviz version 2.43.0 (0)
 -->
<!-- Title: include/depz/core/pipeline/frame_processor.h Pages: 1 -->
<svg width="709pt" height="363pt"
 viewBox="0.00 0.00 708.50 363.00" xmlns="http://www.w3.org/2000/svg" xmlns:xlink="http://www.w3.org/1999/xlink">
<g id="graph0" class="graph" transform="scale(1 1) rotate(0) translate(4 359)">
<title>include/depz/core/pipeline/frame_processor.h</title>
<polygon fill="white" stroke="transparent" points="-4,4 -4,-359 704.5,-359 704.5,4 -4,4"/>
<!-- Node1 -->
<g id="node1" class="node">
<title>Node1</title>
<g id="a_node1"><a xlink:title="Single&#45;call per&#45;frame postprocess chain (disparity→depth→cloud).">
<polygon fill="#bfbfbf" stroke="black" points="500.5,-324.5 500.5,-354.5 644.5,-354.5 644.5,-324.5 500.5,-324.5"/>
<text text-anchor="start" x="508.5" y="-342.5" font-family="Helvetica,sans-Serif" font-size="10.00">include/depz/core/pipeline</text>
<text text-anchor="middle" x="572.5" y="-331.5" font-family="Helvetica,sans-Serif" font-size="10.00">/frame_processor.h</text>
</a>
</g>
</g>
<!-- Node2 -->
<g id="node2" class="node">
<title>Node2</title>
<g id="a_node2"><a xlink:href="ineural__inference_8h.html" target="_top" xlink:title="Architecture&#45;agnostic orchestration interface for neural depth networks.">
<polygon fill="white" stroke="black" points="415,-257.5 415,-287.5 528,-287.5 528,-257.5 415,-257.5"/>
<text text-anchor="start" x="423" y="-275.5" font-family="Helvetica,sans-Serif" font-size="10.00">depz/core/inference</text>
<text text-anchor="middle" x="471.5" y="-264.5" font-family="Helvetica,sans-Serif" font-size="10.00">/ineural_inference.h</text>
</a>
</g>
</g>
<!-- Node1&#45;&gt;Node2 -->
<g id="edge1" class="edge">
<title>Node1&#45;&gt;Node2</title>
<path fill="none" stroke="midnightblue" d="M550.58,-324.4C536.42,-315.28 517.79,-303.29 502.17,-293.24"/>
<polygon fill="midnightblue" stroke="midnightblue" points="503.68,-290.05 493.37,-287.58 499.89,-295.93 503.68,-290.05"/>
</g>
<!-- Node16 -->
<g id="node13" class="node">
<title>Node16</title>
<g id="a_node13"><a xlink:title=" ">
<polygon fill="white" stroke="#bfbfbf" points="521,-196 521,-215 624,-215 624,-196 521,-196"/>
<text text-anchor="middle" x="572.5" y="-203" font-family="Helvetica,sans-Serif" font-size="10.00">opencv2/core.hpp</text>
</a>
</g>
</g>
<!-- Node1&#45;&gt;Node16 -->
<g id="edge23" class="edge">
<title>Node1&#45;&gt;Node16</title>
<path fill="none" stroke="midnightblue" d="M572.5,-324.37C572.5,-300.5 572.5,-252.18 572.5,-225.41"/>
<polygon fill="midnightblue" stroke="midnightblue" points="576,-225.1 572.5,-215.1 569,-225.1 576,-225.1"/>
</g>
<!-- Node17 -->
<g id="node14" class="node">
<title>Node17</title>
<g id="a_node14"><a xlink:title=" ">
<polygon fill="white" stroke="#bfbfbf" points="642.5,-196 642.5,-215 700.5,-215 700.5,-196 642.5,-196"/>
<text text-anchor="middle" x="671.5" y="-203" font-family="Helvetica,sans-Serif" font-size="10.00">memory</text>
</a>
</g>
</g>
<!-- Node1&#45;&gt;Node17 -->
<g id="edge24" class="edge">
<title>Node1&#45;&gt;Node17</title>
<path fill="none" stroke="midnightblue" d="M583.09,-324.37C601.48,-299.86 639.2,-249.56 658.9,-223.3"/>
<polygon fill="midnightblue" stroke="midnightblue" points="661.85,-225.2 665.05,-215.1 656.25,-221 661.85,-225.2"/>
</g>
<!-- Node3 -->
<g id="node3" class="node">
<title>Node3</title>
<g id="a_node3"><a xlink:href="icontrol__owner_8h.html" target="_top" xlink:title=" ">
<polygon fill="white" stroke="black" points="146.5,-190.5 146.5,-220.5 268.5,-220.5 268.5,-190.5 146.5,-190.5"/>
<text text-anchor="start" x="154.5" y="-208.5" font-family="Helvetica,sans-Serif" font-size="10.00">depz/controls/icontrol</text>
<text text-anchor="middle" x="207.5" y="-197.5" font-family="Helvetica,sans-Serif" font-size="10.00">_owner.h</text>
</a>
</g>
</g>
<!-- Node2&#45;&gt;Node3 -->
<g id="edge2" class="edge">
<title>Node2&#45;&gt;Node3</title>
<path fill="none" stroke="midnightblue" d="M414.87,-257.56C373.68,-247.42 317.78,-233.65 274.39,-222.97"/>
<polygon fill="midnightblue" stroke="midnightblue" points="275.04,-219.53 264.5,-220.53 273.37,-226.32 275.04,-219.53"/>
</g>
<!-- Node9 -->
<g id="node8" class="node">
<title>Node9</title>
<g id="a_node8"><a xlink:title=" ">
<polygon fill="white" stroke="#bfbfbf" points="336.5,-0.5 336.5,-19.5 380.5,-19.5 380.5,-0.5 336.5,-0.5"/>
<text text-anchor="middle" x="358.5" y="-7.5" font-family="Helvetica,sans-Serif" font-size="10.00">string</text>
</a>
</g>
</g>
<!-- Node2&#45;&gt;Node9 -->
<g id="edge20" class="edge">
<title>Node2&#45;&gt;Node9</title>
<path fill="none" stroke="midnightblue" d="M476.44,-257.46C488.96,-219.05 517.23,-111.42 462.5,-56 442.96,-36.21 413.29,-24.56 390.64,-18.09"/>
<polygon fill="midnightblue" stroke="midnightblue" points="391.35,-14.65 380.78,-15.47 389.55,-21.42 391.35,-14.65"/>
</g>
<!-- Node12 -->
<g id="node9" class="node">
<title>Node12</title>
<g id="a_node9"><a xlink:title=" ">
<polygon fill="white" stroke="#bfbfbf" points="0,-62 0,-81 45,-81 45,-62 0,-62"/>
<text text-anchor="middle" x="22.5" y="-69" font-family="Helvetica,sans-Serif" font-size="10.00">utility</text>
</a>
</g>
</g>
<!-- Node2&#45;&gt;Node12 -->
<g id="edge21" class="edge">
<title>Node2&#45;&gt;Node12</title>
<path fill="none" stroke="midnightblue" d="M414.77,-268C332.11,-262.06 183.41,-247.92 137.5,-221 83.69,-189.44 46.09,-122.13 30.51,-90.12"/>
<polygon fill="midnightblue" stroke="midnightblue" points="33.67,-88.6 26.24,-81.05 27.34,-91.59 33.67,-88.6"/>
</g>
<!-- Node13 -->
<g id="node10" class="node">
<title>Node13</title>
<g id="a_node10"><a xlink:title=" ">
<polygon fill="white" stroke="#bfbfbf" points="280,-62 280,-81 327,-81 327,-62 280,-62"/>
<text text-anchor="middle" x="303.5" y="-69" font-family="Helvetica,sans-Serif" font-size="10.00">vector</text>
</a>
</g>
</g>
<!-- Node2&#45;&gt;Node13 -->
<g id="edge22" class="edge">
<title>Node2&#45;&gt;Node13</title>
<path fill="none" stroke="midnightblue" d="M440.47,-257.41C404.06,-239.12 344.92,-203.57 315.5,-154 304.06,-134.73 302.13,-108.52 302.35,-91.08"/>
<polygon fill="midnightblue" stroke="midnightblue" points="305.85,-91.18 302.73,-81.05 298.86,-90.91 305.85,-91.18"/>
</g>
<!-- Node14 -->
<g id="node11" class="node">
<title>Node14</title>
<g id="a_node11"><a xlink:href="iinference__engine_8h.html" target="_top" xlink:title="Backend&#45;agnostic ML inference engine interface (Adapter pattern).">
<polygon fill="white" stroke="black" points="325,-123.5 325,-153.5 482,-153.5 482,-123.5 325,-123.5"/>
<text text-anchor="start" x="333" y="-141.5" font-family="Helvetica,sans-Serif" font-size="10.00">depz/core/engines/iinference</text>
<text text-anchor="middle" x="403.5" y="-130.5" font-family="Helvetica,sans-Serif" font-size="10.00">_engine.h</text>
</a>
</g>
</g>
<!-- Node2&#45;&gt;Node14 -->
<g id="edge13" class="edge">
<title>Node2&#45;&gt;Node14</title>
<path fill="none" stroke="midnightblue" d="M464.22,-257.37C452.57,-234.75 429.59,-190.14 415.48,-162.76"/>
<polygon fill="midnightblue" stroke="midnightblue" points="418.42,-160.81 410.72,-153.52 412.19,-164.02 418.42,-160.81"/>
</g>
<!-- Node2&#45;&gt;Node16 -->
<g id="edge18" class="edge">
<title>Node2&#45;&gt;Node16</title>
<path fill="none" stroke="midnightblue" d="M493.42,-257.4C510.35,-246.5 533.69,-231.48 550.62,-220.58"/>
<polygon fill="midnightblue" stroke="midnightblue" points="552.77,-223.36 559.28,-215.01 548.98,-217.48 552.77,-223.36"/>
</g>
<!-- Node2&#45;&gt;Node17 -->
<g id="edge19" class="edge">
<title>Node2&#45;&gt;Node17</title>
<path fill="none" stroke="midnightblue" d="M519.25,-257.47C551.65,-247.74 595.36,-234.21 633.5,-221 635.75,-220.22 638.07,-219.39 640.4,-218.55"/>
<polygon fill="midnightblue" stroke="midnightblue" points="641.73,-221.79 649.88,-215.02 639.29,-215.23 641.73,-221.79"/>
</g>
<!-- Node4 -->
<g id="node4" class="node">
<title>Node4</title>
<g id="a_node4"><a xlink:href="param__spec_8h.html" target="_top" xlink:title=" ">
<polygon fill="white" stroke="black" points="95,-129 95,-148 230,-148 230,-129 95,-129"/>
<text text-anchor="middle" x="162.5" y="-136" font-family="Helvetica,sans-Serif" font-size="10.00">depz/core/param_spec.h</text>
</a>
</g>
</g>
<!-- Node3&#45;&gt;Node4 -->
<g id="edge3" class="edge">
<title>Node3&#45;&gt;Node4</title>
<path fill="none" stroke="midnightblue" d="M197.74,-190.4C190.86,-180.46 181.61,-167.11 174.32,-156.57"/>
<polygon fill="midnightblue" stroke="midnightblue" points="177.09,-154.42 168.52,-148.19 171.33,-158.41 177.09,-154.42"/>
</g>
<!-- Node3&#45;&gt;Node13 -->
<g id="edge12" class="edge">
<title>Node3&#45;&gt;Node13</title>
<path fill="none" stroke="midnightblue" d="M217.77,-190.37C235.6,-165.86 272.18,-115.56 291.28,-89.3"/>
<polygon fill="midnightblue" stroke="midnightblue" points="294.2,-91.24 297.25,-81.1 288.54,-87.13 294.2,-91.24"/>
</g>
<!-- Node5 -->
<g id="node5" class="node">
<title>Node5</title>
<g id="a_node5"><a xlink:href="iparameter__store_8h.html" target="_top" xlink:title="Type&#45;erased key/value parameter store interface.">
<polygon fill="white" stroke="red" points="102,-56.5 102,-86.5 223,-86.5 223,-56.5 102,-56.5"/>
<text text-anchor="start" x="110" y="-74.5" font-family="Helvetica,sans-Serif" font-size="10.00">depz/core/iparameter</text>
<text text-anchor="middle" x="162.5" y="-63.5" font-family="Helvetica,sans-Serif" font-size="10.00">_store.h</text>
</a>
</g>
</g>
<!-- Node4&#45;&gt;Node5 -->
<g id="edge4" class="edge">
<title>Node4&#45;&gt;Node5</title>
<path fill="none" stroke="midnightblue" d="M162.5,-128.73C162.5,-120.54 162.5,-107.92 162.5,-96.71"/>
<polygon fill="midnightblue" stroke="midnightblue" points="166,-96.59 162.5,-86.59 159,-96.59 166,-96.59"/>
</g>
<!-- Node8 -->
<g id="node7" class="node">
<title>Node8</title>
<g id="a_node7"><a xlink:title=" ">
<polygon fill="white" stroke="#bfbfbf" points="66.5,-0.5 66.5,-19.5 122.5,-19.5 122.5,-0.5 66.5,-0.5"/>
<text text-anchor="middle" x="94.5" y="-7.5" font-family="Helvetica,sans-Serif" font-size="10.00">optional</text>
</a>
</g>
</g>
<!-- Node4&#45;&gt;Node8 -->
<g id="edge8" class="edge">
<title>Node4&#45;&gt;Node8</title>
<path fill="none" stroke="midnightblue" d="M141.7,-128.99C125.01,-120.91 102.74,-107.01 92.5,-87 83.32,-69.05 85.8,-45.46 89.3,-29.36"/>
<polygon fill="midnightblue" stroke="midnightblue" points="92.72,-30.11 91.76,-19.56 85.93,-28.41 92.72,-30.11"/>
</g>
<!-- Node4&#45;&gt;Node9 -->
<g id="edge9" class="edge">
<title>Node4&#45;&gt;Node9</title>
<path fill="none" stroke="midnightblue" d="M174.57,-128.89C188.43,-118.95 211.79,-102.04 231.5,-87 249.1,-73.57 251.88,-67.99 270.5,-56 289.49,-43.77 312.21,-32.22 329.82,-23.88"/>
<polygon fill="midnightblue" stroke="midnightblue" points="331.42,-27 339.01,-19.6 328.47,-20.65 331.42,-27"/>
</g>
<!-- Node4&#45;&gt;Node12 -->
<g id="edge10" class="edge">
<title>Node4&#45;&gt;Node12</title>
<path fill="none" stroke="midnightblue" d="M143.91,-128.87C119.96,-117.75 78.11,-98.32 50.35,-85.43"/>
<polygon fill="midnightblue" stroke="midnightblue" points="51.71,-82.2 41.17,-81.17 48.76,-88.55 51.71,-82.2"/>
</g>
<!-- Node4&#45;&gt;Node13 -->
<g id="edge11" class="edge">
<title>Node4&#45;&gt;Node13</title>
<path fill="none" stroke="midnightblue" d="M181.22,-128.87C205.35,-117.75 247.5,-98.32 275.45,-85.43"/>
<polygon fill="midnightblue" stroke="midnightblue" points="277.08,-88.53 284.7,-81.17 274.15,-82.18 277.08,-88.53"/>
</g>
<!-- Node7 -->
<g id="node6" class="node">
<title>Node7</title>
<g id="a_node6"><a xlink:title=" ">
<polygon fill="white" stroke="#bfbfbf" points="149.5,-0.5 149.5,-19.5 199.5,-19.5 199.5,-0.5 149.5,-0.5"/>
<text text-anchor="middle" x="174.5" y="-7.5" font-family="Helvetica,sans-Serif" font-size="10.00">cstdint</text>
</a>
</g>
</g>
<!-- Node5&#45;&gt;Node7 -->
<g id="edge5" class="edge">
<title>Node5&#45;&gt;Node7</title>
<path fill="none" stroke="midnightblue" d="M165.34,-56.4C166.96,-48.38 169.01,-38.23 170.75,-29.57"/>
<polygon fill="midnightblue" stroke="midnightblue" points="174.21,-30.15 172.75,-19.66 167.35,-28.77 174.21,-30.15"/>
</g>
<!-- Node5&#45;&gt;Node8 -->
<g id="edge6" class="edge">
<title>Node5&#45;&gt;Node8</title>
<path fill="none" stroke="midnightblue" d="M146.38,-56.4C136.1,-47.4 122.75,-35.72 112.17,-26.47"/>
<polygon fill="midnightblue" stroke="midnightblue" points="114.23,-23.61 104.39,-19.66 109.62,-28.88 114.23,-23.61"/>
</g>
<!-- Node5&#45;&gt;Node9 -->
<g id="edge7" class="edge">
<title>Node5&#45;&gt;Node9</title>
<path fill="none" stroke="midnightblue" d="M208.95,-56.4C245.21,-45.39 294.64,-30.39 326.56,-20.7"/>
<polygon fill="midnightblue" stroke="midnightblue" points="327.72,-24 336.27,-17.75 325.69,-17.3 327.72,-24"/>
</g>
<!-- Node14&#45;&gt;Node7 -->
<g id="edge15" class="edge">
<title>Node14&#45;&gt;Node7</title>
<path fill="none" stroke="midnightblue" d="M395.52,-123.44C384.41,-105.17 362.58,-73.51 335.5,-56 296.74,-30.94 244,-19.65 209.61,-14.69"/>
<polygon fill="midnightblue" stroke="midnightblue" points="209.94,-11.2 199.56,-13.35 209.01,-18.14 209.94,-11.2"/>
</g>
<!-- Node14&#45;&gt;Node9 -->
<g id="edge16" class="edge">
<title>Node14&#45;&gt;Node9</title>
<path fill="none" stroke="midnightblue" d="M419.91,-123.33C436.97,-106.8 459.4,-78.84 445.5,-56 433.6,-36.46 410.18,-25.02 390.63,-18.58"/>
<polygon fill="midnightblue" stroke="midnightblue" points="391.43,-15.16 380.85,-15.64 389.42,-21.87 391.43,-15.16"/>
</g>
<!-- Node14&#45;&gt;Node13 -->
<g id="edge17" class="edge">
<title>Node14&#45;&gt;Node13</title>
<path fill="none" stroke="midnightblue" d="M381.8,-123.4C365.03,-112.5 341.93,-97.48 325.17,-86.58"/>
<polygon fill="midnightblue" stroke="midnightblue" points="326.88,-83.52 316.59,-81.01 323.06,-89.39 326.88,-83.52"/>
</g>
<!-- Node15 -->
<g id="node12" class="node">
<title>Node15</title>
<g id="a_node12"><a xlink:title=" ">
<polygon fill="white" stroke="#bfbfbf" points="384,-62 384,-81 437,-81 437,-62 384,-62"/>
<text text-anchor="middle" x="410.5" y="-69" font-family="Helvetica,sans-Serif" font-size="10.00">cstddef</text>
</a>
</g>
</g>
<!-- Node14&#45;&gt;Node15 -->
<g id="edge14" class="edge">
<title>Node14&#45;&gt;Node15</title>
<path fill="none" stroke="midnightblue" d="M405.02,-123.4C406.03,-113.96 407.38,-101.45 408.49,-91.19"/>
<polygon fill="midnightblue" stroke="midnightblue" points="411.97,-91.51 409.56,-81.19 405.01,-90.76 411.97,-91.51"/>
</g>
</g>
</svg>
