<?xml version="1.0" encoding="UTF-8" standalone="no"?>
<!DOCTYPE svg PUBLIC "-//W3C//DTD SVG 1.1//EN"
 "http://www.w3.org/Graphics/SVG/1.1/DTD/svg11.dtd">
<!-- Generated by graphviz version 2.43.0 (0)
 -->
<!-- Title: Flat C ABI Pages: 1 -->
<svg width="254pt" height="395pt"
 viewBox="0.00 0.00 254.00 395.00" xmlns="http://www.w3.org/2000/svg" xmlns:xlink="http://www.w3.org/1999/xlink">
<g id="graph0" class="graph" transform="scale(1 1) rotate(0) translate(4 391)">
<title>Flat C ABI</title>
<polygon fill="white" stroke="transparent" points="-4,4 -4,-391 250,-391 250,4 -4,4"/>
<!-- Node2 -->
<g id="node1" class="node">
<title>Node2</title>
<g id="a_node1"><a xlink:href="group__cabi__types.html" target="_top" xlink:title="Enums, the pixel&#45;buffer view, opaque handle typedefs, version and error queries.">
<polygon fill="white" stroke="black" points="236,-387 111,-387 111,-357 236,-357 236,-387"/>
<text text-anchor="start" x="119" y="-375" font-family="Helvetica,sans-Serif" font-size="10.00">Types, handles &amp; error</text>
<text text-anchor="middle" x="173.5" y="-364" font-family="Helvetica,sans-Serif" font-size="10.00"> codes</text>
</a>
</g>
</g>
<!-- Node4 -->
<g id="node2" class="node">
<title>Node4</title>
<g id="a_node2"><a xlink:href="group__cabi__calibration.html" target="_top" xlink:title="Build calibrations (JSON / web), introspect them, and rectify standalone.">
<polygon fill="white" stroke="black" points="208.5,-338.5 138.5,-338.5 138.5,-319.5 208.5,-319.5 208.5,-338.5"/>
<text text-anchor="middle" x="173.5" y="-326.5" font-family="Helvetica,sans-Serif" font-size="10.00">Calibration</text>
</a>
</g>
</g>
<!-- Node1 -->
<g id="node3" class="node">
<title>Node1</title>
<g id="a_node3"><a xlink:title="The language&#45;agnostic C interface (depz_c_api.h) — one function per SDK operation,...">
<polygon fill="#bfbfbf" stroke="black" points="65,-208.5 0,-208.5 0,-189.5 65,-189.5 65,-208.5"/>
<text text-anchor="middle" x="32.5" y="-196.5" font-family="Helvetica,sans-Serif" font-size="10.00">Flat C ABI</text>
</a>
</g>
</g>
<!-- Node1&#45;&gt;Node2 -->
<g id="edge1" class="edge">
<title>Node1&#45;&gt;Node2</title>
<path fill="none" stroke="black" d="M37.17,-218.77C44.08,-250.49 61.96,-312.74 101,-348 104.79,-351.42 109.08,-354.36 113.64,-356.88"/>
<polygon fill="black" stroke="black" points="40.52,-217.68 35.11,-208.57 33.66,-219.07 40.52,-217.68"/>
</g>
<!-- Node1&#45;&gt;Node4 -->
<g id="edge3" class="edge">
<title>Node1&#45;&gt;Node4</title>
<path fill="none" stroke="black" d="M39.77,-218.06C49.06,-243.26 68.91,-287.23 101,-311 111.8,-319 125.77,-323.47 138.49,-325.95"/>
<polygon fill="black" stroke="black" points="43.04,-216.81 36.43,-208.53 36.43,-219.12 43.04,-216.81"/>
</g>
<!-- Node9 -->
<g id="node4" class="node">
<title>Node9</title>
<g id="a_node4"><a xlink:href="group__cabi__controls.html" target="_top" xlink:title="Enumerate the tunable controls exposed by built&#45;in filters.">
<polygon fill="white" stroke="black" points="246,-301.5 101,-301.5 101,-282.5 246,-282.5 246,-301.5"/>
<text text-anchor="middle" x="173.5" y="-289.5" font-family="Helvetica,sans-Serif" font-size="10.00">Runtime control discovery</text>
</a>
</g>
</g>
<!-- Node1&#45;&gt;Node9 -->
<g id="edge8" class="edge">
<title>Node1&#45;&gt;Node9</title>
<path fill="none" stroke="black" d="M45.23,-217.35C57.19,-234.56 77.33,-259.73 101,-274 106.7,-277.44 113.04,-280.22 119.51,-282.47"/>
<polygon fill="black" stroke="black" points="47.93,-215.08 39.45,-208.72 42.11,-218.98 47.93,-215.08"/>
</g>
<!-- Node8 -->
<g id="node5" class="node">
<title>Node8</title>
<g id="a_node5"><a xlink:href="group__cabi__recorder.html" target="_top" xlink:title="Mux raw encoded frames into a replayable Matroska .mkv.">
<polygon fill="white" stroke="black" points="215,-264.5 132,-264.5 132,-245.5 215,-245.5 215,-264.5"/>
<text text-anchor="middle" x="173.5" y="-252.5" font-family="Helvetica,sans-Serif" font-size="10.00">MKV recorder</text>
</a>
</g>
</g>
<!-- Node1&#45;&gt;Node8 -->
<g id="edge7" class="edge">
<title>Node1&#45;&gt;Node8</title>
<path fill="none" stroke="black" d="M56.5,-213.98C69.21,-221.72 85.52,-230.82 101,-237 110.75,-240.89 121.59,-244.14 131.82,-246.75"/>
<polygon fill="black" stroke="black" points="58.28,-210.96 47.95,-208.63 54.58,-216.9 58.28,-210.96"/>
</g>
<!-- Node5 -->
<g id="node6" class="node">
<title>Node5</title>
<g id="a_node6"><a xlink:href="group__cabi__inference.html" target="_top" xlink:title="Construct neural inference handles from an architecture + model + engine slug.">
<polygon fill="white" stroke="black" points="225.5,-227.5 121.5,-227.5 121.5,-208.5 225.5,-208.5 225.5,-227.5"/>
<text text-anchor="middle" x="173.5" y="-215.5" font-family="Helvetica,sans-Serif" font-size="10.00">Inference engines</text>
</a>
</g>
</g>
<!-- Node1&#45;&gt;Node5 -->
<g id="edge4" class="edge">
<title>Node1&#45;&gt;Node5</title>
<path fill="none" stroke="black" d="M75.24,-204.71C89.77,-206.69 106.25,-208.94 121.46,-211.02"/>
<polygon fill="black" stroke="black" points="75.42,-201.2 65.04,-203.31 74.48,-208.13 75.42,-201.2"/>
</g>
<!-- Node3 -->
<g id="node7" class="node">
<title>Node3</title>
<g id="a_node7"><a xlink:href="group__cabi__sources.html" target="_top" xlink:title="Create frame sources (camera / mkv / gst pipeline) and grab raw frames directly.">
<polygon fill="white" stroke="black" points="217.5,-190.5 129.5,-190.5 129.5,-171.5 217.5,-171.5 217.5,-190.5"/>
<text text-anchor="middle" x="173.5" y="-178.5" font-family="Helvetica,sans-Serif" font-size="10.00">Frame sources</text>
</a>
</g>
</g>
<!-- Node1&#45;&gt;Node3 -->
<g id="edge2" class="edge">
<title>Node1&#45;&gt;Node3</title>
<path fill="none" stroke="black" d="M75.31,-193.59C92.44,-191.37 112.24,-188.8 129.49,-186.57"/>
<polygon fill="black" stroke="black" points="74.51,-190.16 65.04,-194.92 75.41,-197.1 74.51,-190.16"/>
</g>
<!-- Node6 -->
<g id="node8" class="node">
<title>Node6</title>
<g id="a_node8"><a xlink:href="group__cabi__pipeline.html" target="_top" xlink:title="Create/start/stop a DepthPipeline, pull frames, and tune it at runtime.">
<polygon fill="white" stroke="black" points="225.5,-153 121.5,-153 121.5,-123 225.5,-123 225.5,-153"/>
<text text-anchor="start" x="129.5" y="-141" font-family="Helvetica,sans-Serif" font-size="10.00">Pipeline (lifecycle</text>
<text text-anchor="middle" x="173.5" y="-130" font-family="Helvetica,sans-Serif" font-size="10.00"> &amp; control)</text>
</a>
</g>
</g>
<!-- Node1&#45;&gt;Node6 -->
<g id="edge5" class="edge">
<title>Node1&#45;&gt;Node6</title>
<path fill="none" stroke="black" d="M58.7,-184.37C71.2,-177.42 86.65,-169.29 101,-163 108.95,-159.52 117.55,-156.17 125.94,-153.11"/>
<polygon fill="black" stroke="black" points="56.78,-181.44 49.79,-189.4 60.22,-187.53 56.78,-181.44"/>
</g>
<!-- Node10 -->
<g id="node9" class="node">
<title>Node10</title>
<g id="a_node9"><a xlink:href="group__cabi__metrics.html" target="_top" xlink:title="Snapshot per&#45;stage latency percentiles and frame&#45;rate counters.">
<polygon fill="white" stroke="black" points="222.5,-104.5 124.5,-104.5 124.5,-85.5 222.5,-85.5 222.5,-104.5"/>
<text text-anchor="middle" x="173.5" y="-92.5" font-family="Helvetica,sans-Serif" font-size="10.00">Runtime metrics</text>
</a>
</g>
</g>
<!-- Node1&#45;&gt;Node10 -->
<g id="edge9" class="edge">
<title>Node1&#45;&gt;Node10</title>
<path fill="none" stroke="black" d="M43.32,-180.6C54.65,-161.14 75.11,-130.95 101,-114 107.98,-109.43 116.03,-105.95 124.15,-103.31"/>
<polygon fill="black" stroke="black" points="40.2,-179 38.37,-189.43 46.31,-182.42 40.2,-179"/>
</g>
<!-- Node7 -->
<g id="node10" class="node">
<title>Node7</title>
<g id="a_node10"><a xlink:href="group__cabi__frame.html" target="_top" xlink:title="Read a produced frame&#39;s streams, sample depth/3D, and encode JPEGs.">
<polygon fill="white" stroke="black" points="222.5,-67.5 124.5,-67.5 124.5,-48.5 222.5,-48.5 222.5,-67.5"/>
<text text-anchor="middle" x="173.5" y="-55.5" font-family="Helvetica,sans-Serif" font-size="10.00">Frame accessors</text>
</a>
</g>
</g>
<!-- Node1&#45;&gt;Node7 -->
<g id="edge6" class="edge">
<title>Node1&#45;&gt;Node7</title>
<path fill="none" stroke="black" d="M38.96,-179.5C47.58,-152.36 66.95,-103.57 101,-77 107.78,-71.71 115.92,-67.88 124.22,-65.12"/>
<polygon fill="black" stroke="black" points="35.52,-178.78 36,-189.36 42.22,-180.79 35.52,-178.78"/>
</g>
<!-- Node11 -->
<g id="node11" class="node">
<title>Node11</title>
<g id="a_node11"><a xlink:href="group__cabi__registry.html" target="_top" xlink:title="Cache&#45;dir override, engine/inference registries, and camera&#45;info fetch.">
<polygon fill="white" stroke="black" points="228.5,-30 118.5,-30 118.5,0 228.5,0 228.5,-30"/>
<text text-anchor="start" x="126.5" y="-18" font-family="Helvetica,sans-Serif" font-size="10.00">Registries, cache &amp;</text>
<text text-anchor="middle" x="173.5" y="-7" font-family="Helvetica,sans-Serif" font-size="10.00"> camera info</text>
</a>
</g>
</g>
<!-- Node1&#45;&gt;Node11 -->
<g id="edge10" class="edge">
<title>Node1&#45;&gt;Node11</title>
<path fill="none" stroke="black" d="M36.57,-179.34C42.78,-146.06 59.91,-78.5 101,-40 105.99,-35.32 111.9,-31.52 118.16,-28.42"/>
<polygon fill="black" stroke="black" points="33.12,-178.77 34.87,-189.22 40.02,-179.96 33.12,-178.77"/>
</g>
</g>
</svg>
