<?xml version="1.0" encoding="UTF-8" standalone="no"?>
<!DOCTYPE svg PUBLIC "-//W3C//DTD SVG 1.1//EN"
 "http://www.w3.org/Graphics/SVG/1.1/DTD/svg11.dtd">
<!-- Generated by graphviz version 2.43.0 (0)
 -->
<!-- Title: include/depz/core/pipeline/gstreamer_framesource.h Pages: 1 -->
<svg width="250pt" height="162pt"
 viewBox="0.00 0.00 250.00 162.00" xmlns="http://www.w3.org/2000/svg" xmlns:xlink="http://www.w3.org/1999/xlink">
<g id="graph0" class="graph" transform="scale(1 1) rotate(0) translate(4 158)">
<title>include/depz/core/pipeline/gstreamer_framesource.h</title>
<polygon fill="white" stroke="transparent" points="-4,4 -4,-158 246,-158 246,4 -4,4"/>
<!-- Node1 -->
<g id="node1" class="node">
<title>Node1</title>
<g id="a_node1"><a xlink:title=" ">
<polygon fill="#bfbfbf" stroke="black" points="83,-123.5 83,-153.5 229,-153.5 229,-123.5 83,-123.5"/>
<text text-anchor="start" x="91" y="-141.5" font-family="Helvetica,sans-Serif" font-size="10.00">include/depz/core/pipeline</text>
<text text-anchor="middle" x="156" y="-130.5" font-family="Helvetica,sans-Serif" font-size="10.00">/gstreamer_framesource.h</text>
</a>
</g>
</g>
<!-- Node2 -->
<g id="node2" class="node">
<title>Node2</title>
<g id="a_node2"><a xlink:href="iframesource_8h.html" target="_top" xlink:title=" ">
<polygon fill="white" stroke="black" points="22,-56.5 22,-86.5 128,-86.5 128,-56.5 22,-56.5"/>
<text text-anchor="start" x="30" y="-74.5" font-family="Helvetica,sans-Serif" font-size="10.00">depz/core/pipeline</text>
<text text-anchor="middle" x="75" y="-63.5" font-family="Helvetica,sans-Serif" font-size="10.00">/iframesource.h</text>
</a>
</g>
</g>
<!-- Node1&#45;&gt;Node2 -->
<g id="edge1" class="edge">
<title>Node1&#45;&gt;Node2</title>
<path fill="none" stroke="midnightblue" d="M138.42,-123.4C127.39,-114.54 112.96,-102.96 100.65,-93.09"/>
<polygon fill="midnightblue" stroke="midnightblue" points="102.53,-90.11 92.54,-86.58 98.15,-95.56 102.53,-90.11"/>
</g>
<!-- Node4 -->
<g id="node4" class="node">
<title>Node4</title>
<g id="a_node4"><a xlink:title=" ">
<polygon fill="white" stroke="#bfbfbf" points="134,-0.5 134,-19.5 178,-19.5 178,-0.5 134,-0.5"/>
<text text-anchor="middle" x="156" y="-7.5" font-family="Helvetica,sans-Serif" font-size="10.00">string</text>
</a>
</g>
</g>
<!-- Node1&#45;&gt;Node4 -->
<g id="edge5" class="edge">
<title>Node1&#45;&gt;Node4</title>
<path fill="none" stroke="midnightblue" d="M156,-123.48C156,-100.72 156,-55.7 156,-30.06"/>
<polygon fill="midnightblue" stroke="midnightblue" points="159.5,-29.79 156,-19.79 152.5,-29.79 159.5,-29.79"/>
</g>
<!-- Node5 -->
<g id="node5" class="node">
<title>Node5</title>
<g id="a_node5"><a xlink:title=" ">
<polygon fill="white" stroke="#bfbfbf" points="184,-62 184,-81 242,-81 242,-62 184,-62"/>
<text text-anchor="middle" x="213" y="-69" font-family="Helvetica,sans-Serif" font-size="10.00">memory</text>
</a>
</g>
</g>
<!-- Node1&#45;&gt;Node5 -->
<g id="edge4" class="edge">
<title>Node1&#45;&gt;Node5</title>
<path fill="none" stroke="midnightblue" d="M168.37,-123.4C177.26,-113.26 189.26,-99.57 198.59,-88.94"/>
<polygon fill="midnightblue" stroke="midnightblue" points="201.41,-91.02 205.38,-81.19 196.15,-86.41 201.41,-91.02"/>
</g>
<!-- Node3 -->
<g id="node3" class="node">
<title>Node3</title>
<g id="a_node3"><a xlink:title=" ">
<polygon fill="white" stroke="#bfbfbf" points="0,-0.5 0,-19.5 116,-19.5 116,-0.5 0,-0.5"/>
<text text-anchor="middle" x="58" y="-7.5" font-family="Helvetica,sans-Serif" font-size="10.00">opencv2/opencv.hpp</text>
</a>
</g>
</g>
<!-- Node2&#45;&gt;Node3 -->
<g id="edge2" class="edge">
<title>Node2&#45;&gt;Node3</title>
<path fill="none" stroke="midnightblue" d="M70.97,-56.4C68.65,-48.29 65.72,-38.01 63.22,-29.28"/>
<polygon fill="midnightblue" stroke="midnightblue" points="66.59,-28.31 60.47,-19.66 59.86,-30.23 66.59,-28.31"/>
</g>
<!-- Node2&#45;&gt;Node4 -->
<g id="edge3" class="edge">
<title>Node2&#45;&gt;Node4</title>
<path fill="none" stroke="midnightblue" d="M94.2,-56.4C106.82,-47.13 123.29,-35.03 136.06,-25.65"/>
<polygon fill="midnightblue" stroke="midnightblue" points="138.23,-28.4 144.21,-19.66 134.08,-22.76 138.23,-28.4"/>
</g>
</g>
</svg>
