<?xml version="1.0" encoding="UTF-8" standalone="no"?>
<!DOCTYPE svg PUBLIC "-//W3C//DTD SVG 1.1//EN"
 "http://www.w3.org/Graphics/SVG/1.1/DTD/svg11.dtd">
<!-- Generated by graphviz version 2.43.0 (0)
 -->
<!-- Title: include/depz/core/sources/gstreamer_frame_source_adapter.h Pages: 1 -->
<svg width="473pt" height="173pt"
 viewBox="0.00 0.00 473.00 173.00" xmlns="http://www.w3.org/2000/svg" xmlns:xlink="http://www.w3.org/1999/xlink">
<g id="graph0" class="graph" transform="scale(1 1) rotate(0) translate(4 169)">
<title>include/depz/core/sources/gstreamer_frame_source_adapter.h</title>
<polygon fill="white" stroke="transparent" points="-4,4 -4,-169 469,-169 469,4 -4,4"/>
<!-- Node1 -->
<g id="node1" class="node">
<title>Node1</title>
<g id="a_node1"><a xlink:title="Adapts the canonical IGStreamerCamera live backend to the FrameSource grab&#45;contract used at the head ...">
<polygon fill="#bfbfbf" stroke="black" points="227,-123.5 227,-164.5 370,-164.5 370,-123.5 227,-123.5"/>
<text text-anchor="start" x="235" y="-152.5" font-family="Helvetica,sans-Serif" font-size="10.00">include/depz/core/sources</text>
<text text-anchor="start" x="235" y="-141.5" font-family="Helvetica,sans-Serif" font-size="10.00">/gstreamer_frame_source</text>
<text text-anchor="middle" x="298.5" y="-130.5" font-family="Helvetica,sans-Serif" font-size="10.00">_adapter.h</text>
</a>
</g>
</g>
<!-- Node2 -->
<g id="node2" class="node">
<title>Node2</title>
<g id="a_node2"><a xlink:href="iframe__source_8h.html" target="_top" xlink:title="Abstract interface for raw frame sources feeding the DepthPipeline.">
<polygon fill="white" stroke="black" points="77.5,-56.5 77.5,-86.5 217.5,-86.5 217.5,-56.5 77.5,-56.5"/>
<text text-anchor="start" x="85.5" y="-74.5" font-family="Helvetica,sans-Serif" font-size="10.00">depz/core/sources/iframe</text>
<text text-anchor="middle" x="147.5" y="-63.5" font-family="Helvetica,sans-Serif" font-size="10.00">_source.h</text>
</a>
</g>
</g>
<!-- Node1&#45;&gt;Node2 -->
<g id="edge1" class="edge">
<title>Node1&#45;&gt;Node2</title>
<path fill="none" stroke="midnightblue" d="M256.44,-123.36C234.7,-113.21 208.32,-100.9 186.97,-90.93"/>
<polygon fill="midnightblue" stroke="midnightblue" points="188.39,-87.73 177.85,-86.67 185.43,-94.07 188.39,-87.73"/>
</g>
<!-- Node6 -->
<g id="node6" class="node">
<title>Node6</title>
<g id="a_node6"><a xlink:title=" ">
<polygon fill="white" stroke="#bfbfbf" points="223.5,-0.5 223.5,-19.5 267.5,-19.5 267.5,-0.5 223.5,-0.5"/>
<text text-anchor="middle" x="245.5" y="-7.5" font-family="Helvetica,sans-Serif" font-size="10.00">string</text>
</a>
</g>
</g>
<!-- Node1&#45;&gt;Node6 -->
<g id="edge8" class="edge">
<title>Node1&#45;&gt;Node6</title>
<path fill="none" stroke="midnightblue" d="M284.53,-123.3C277.69,-112.91 269.8,-99.7 264.5,-87 256.66,-68.21 251.49,-45.42 248.55,-29.72"/>
<polygon fill="midnightblue" stroke="midnightblue" points="251.97,-28.95 246.8,-19.7 245.08,-30.16 251.97,-28.95"/>
</g>
<!-- Node7 -->
<g id="node7" class="node">
<title>Node7</title>
<g id="a_node7"><a xlink:title=" ">
<polygon fill="white" stroke="#bfbfbf" points="273.5,-62 273.5,-81 323.5,-81 323.5,-62 273.5,-62"/>
<text text-anchor="middle" x="298.5" y="-69" font-family="Helvetica,sans-Serif" font-size="10.00">atomic</text>
</a>
</g>
</g>
<!-- Node1&#45;&gt;Node7 -->
<g id="edge6" class="edge">
<title>Node1&#45;&gt;Node7</title>
<path fill="none" stroke="midnightblue" d="M298.5,-123.36C298.5,-113.3 298.5,-101.1 298.5,-91.18"/>
<polygon fill="midnightblue" stroke="midnightblue" points="302,-91.17 298.5,-81.17 295,-91.17 302,-91.17"/>
</g>
<!-- Node8 -->
<g id="node8" class="node">
<title>Node8</title>
<g id="a_node8"><a xlink:title=" ">
<polygon fill="white" stroke="#bfbfbf" points="341.5,-62 341.5,-81 399.5,-81 399.5,-62 341.5,-62"/>
<text text-anchor="middle" x="370.5" y="-69" font-family="Helvetica,sans-Serif" font-size="10.00">memory</text>
</a>
</g>
</g>
<!-- Node1&#45;&gt;Node8 -->
<g id="edge7" class="edge">
<title>Node1&#45;&gt;Node8</title>
<path fill="none" stroke="midnightblue" d="M318.56,-123.36C329.83,-112.32 343.72,-98.72 354.3,-88.37"/>
<polygon fill="midnightblue" stroke="midnightblue" points="356.95,-90.67 361.64,-81.17 352.05,-85.67 356.95,-90.67"/>
</g>
<!-- Node9 -->
<g id="node9" class="node">
<title>Node9</title>
<g id="a_node9"><a xlink:title=" ">
<polygon fill="white" stroke="#bfbfbf" points="418,-62 418,-81 465,-81 465,-62 418,-62"/>
<text text-anchor="middle" x="441.5" y="-69" font-family="Helvetica,sans-Serif" font-size="10.00">vector</text>
</a>
</g>
</g>
<!-- Node1&#45;&gt;Node9 -->
<g id="edge9" class="edge">
<title>Node1&#45;&gt;Node9</title>
<path fill="none" stroke="midnightblue" d="M338.33,-123.36C362.7,-111.35 393.21,-96.3 414.72,-85.7"/>
<polygon fill="midnightblue" stroke="midnightblue" points="416.49,-88.73 423.91,-81.17 413.39,-82.46 416.49,-88.73"/>
</g>
<!-- Node3 -->
<g id="node3" class="node">
<title>Node3</title>
<g id="a_node3"><a xlink:title=" ">
<polygon fill="white" stroke="#bfbfbf" points="0,-0.5 0,-19.5 53,-19.5 53,-0.5 0,-0.5"/>
<text text-anchor="middle" x="26.5" y="-7.5" font-family="Helvetica,sans-Serif" font-size="10.00">cstddef</text>
</a>
</g>
</g>
<!-- Node2&#45;&gt;Node3 -->
<g id="edge2" class="edge">
<title>Node2&#45;&gt;Node3</title>
<path fill="none" stroke="midnightblue" d="M118.82,-56.4C98.98,-46.64 72.74,-33.74 53.31,-24.18"/>
<polygon fill="midnightblue" stroke="midnightblue" points="54.62,-20.93 44.11,-19.66 51.54,-27.21 54.62,-20.93"/>
</g>
<!-- Node4 -->
<g id="node4" class="node">
<title>Node4</title>
<g id="a_node4"><a xlink:title=" ">
<polygon fill="white" stroke="#bfbfbf" points="71.5,-0.5 71.5,-19.5 121.5,-19.5 121.5,-0.5 71.5,-0.5"/>
<text text-anchor="middle" x="96.5" y="-7.5" font-family="Helvetica,sans-Serif" font-size="10.00">cstdint</text>
</a>
</g>
</g>
<!-- Node2&#45;&gt;Node4 -->
<g id="edge3" class="edge">
<title>Node2&#45;&gt;Node4</title>
<path fill="none" stroke="midnightblue" d="M135.41,-56.4C127.93,-47.66 118.28,-36.41 110.47,-27.3"/>
<polygon fill="midnightblue" stroke="midnightblue" points="113.09,-24.97 103.92,-19.66 107.77,-29.53 113.09,-24.97"/>
</g>
<!-- Node5 -->
<g id="node5" class="node">
<title>Node5</title>
<g id="a_node5"><a xlink:title=" ">
<polygon fill="white" stroke="#bfbfbf" points="140,-0.5 140,-19.5 205,-19.5 205,-0.5 140,-0.5"/>
<text text-anchor="middle" x="172.5" y="-7.5" font-family="Helvetica,sans-Serif" font-size="10.00">functional</text>
</a>
</g>
</g>
<!-- Node2&#45;&gt;Node5 -->
<g id="edge4" class="edge">
<title>Node2&#45;&gt;Node5</title>
<path fill="none" stroke="midnightblue" d="M153.42,-56.4C156.87,-48.2 161.25,-37.78 164.94,-28.99"/>
<polygon fill="midnightblue" stroke="midnightblue" points="168.22,-30.23 168.86,-19.66 161.76,-27.52 168.22,-30.23"/>
</g>
<!-- Node2&#45;&gt;Node6 -->
<g id="edge5" class="edge">
<title>Node2&#45;&gt;Node6</title>
<path fill="none" stroke="midnightblue" d="M170.72,-56.4C186.29,-46.95 206.7,-34.56 222.26,-25.11"/>
<polygon fill="midnightblue" stroke="midnightblue" points="224.51,-27.84 231.24,-19.66 220.88,-21.86 224.51,-27.84"/>
</g>
</g>
</svg>
