<?xml version="1.0" encoding="UTF-8" standalone="no"?>
<!DOCTYPE svg PUBLIC "-//W3C//DTD SVG 1.1//EN"
 "http://www.w3.org/Graphics/SVG/1.1/DTD/svg11.dtd">
<!-- Generated by graphviz version 2.43.0 (0)
 -->
<!-- Title: include/depz/core/calibration/icalibration.h Pages: 1 -->
<svg width="674pt" height="285pt"
 viewBox="0.00 0.00 673.50 285.00" xmlns="http://www.w3.org/2000/svg" xmlns:xlink="http://www.w3.org/1999/xlink">
<g id="graph0" class="graph" transform="scale(1 1) rotate(0) translate(4 281)">
<title>include/depz/core/calibration/icalibration.h</title>
<polygon fill="white" stroke="transparent" points="-4,4 -4,-281 669.5,-281 669.5,4 -4,4"/>
<!-- Node1 -->
<g id="node1" class="node">
<title>Node1</title>
<g id="a_node1"><a xlink:title="Language&#45;neutral calibration ABC — the runtime contract every concrete stereo / mono calibration mode...">
<polygon fill="#bfbfbf" stroke="black" points="396.5,-246.5 396.5,-276.5 553.5,-276.5 553.5,-246.5 396.5,-246.5"/>
<text text-anchor="start" x="404.5" y="-264.5" font-family="Helvetica,sans-Serif" font-size="10.00">include/depz/core/calibration</text>
<text text-anchor="middle" x="475" y="-253.5" font-family="Helvetica,sans-Serif" font-size="10.00">/icalibration.h</text>
</a>
</g>
</g>
<!-- Node2 -->
<g id="node2" class="node">
<title>Node2</title>
<g id="a_node2"><a xlink:href="canvas__layout_8h.html" target="_top" xlink:title=" ">
<polygon fill="white" stroke="black" points="161.5,-179.5 161.5,-209.5 280.5,-209.5 280.5,-179.5 161.5,-179.5"/>
<text text-anchor="start" x="169.5" y="-197.5" font-family="Helvetica,sans-Serif" font-size="10.00">depz/core/calibration</text>
<text text-anchor="middle" x="221" y="-186.5" font-family="Helvetica,sans-Serif" font-size="10.00">/canvas_layout.h</text>
</a>
</g>
</g>
<!-- Node1&#45;&gt;Node2 -->
<g id="edge1" class="edge">
<title>Node1&#45;&gt;Node2</title>
<path fill="none" stroke="midnightblue" d="M420.2,-246.48C380.77,-236.39 327.45,-222.74 285.9,-212.11"/>
<polygon fill="midnightblue" stroke="midnightblue" points="286.7,-208.7 276.14,-209.61 284.96,-215.48 286.7,-208.7"/>
</g>
<!-- Node3 -->
<g id="node3" class="node">
<title>Node3</title>
<g id="a_node3"><a xlink:href="icontrol__owner_8h.html" target="_top" xlink:title=" ">
<polygon fill="white" stroke="black" points="299,-179.5 299,-209.5 421,-209.5 421,-179.5 299,-179.5"/>
<text text-anchor="start" x="307" y="-197.5" font-family="Helvetica,sans-Serif" font-size="10.00">depz/controls/icontrol</text>
<text text-anchor="middle" x="360" y="-186.5" font-family="Helvetica,sans-Serif" font-size="10.00">_owner.h</text>
</a>
</g>
</g>
<!-- Node1&#45;&gt;Node3 -->
<g id="edge2" class="edge">
<title>Node1&#45;&gt;Node3</title>
<path fill="none" stroke="midnightblue" d="M450.05,-246.4C433.62,-237.11 411.91,-224.84 393.92,-214.67"/>
<polygon fill="midnightblue" stroke="midnightblue" points="395.33,-211.45 384.9,-209.58 391.89,-217.54 395.33,-211.45"/>
</g>
<!-- Node8 -->
<g id="node8" class="node">
<title>Node8</title>
<g id="a_node8"><a xlink:title=" ">
<polygon fill="white" stroke="#bfbfbf" points="359,-0.5 359,-19.5 415,-19.5 415,-0.5 359,-0.5"/>
<text text-anchor="middle" x="387" y="-7.5" font-family="Helvetica,sans-Serif" font-size="10.00">optional</text>
</a>
</g>
</g>
<!-- Node1&#45;&gt;Node8 -->
<g id="edge17" class="edge">
<title>Node1&#45;&gt;Node8</title>
<path fill="none" stroke="midnightblue" d="M479.88,-246.48C491.18,-211.28 515.42,-117.61 477,-56 470.37,-45.36 442.89,-32.51 420.02,-23.27"/>
<polygon fill="midnightblue" stroke="midnightblue" points="421.17,-19.96 410.58,-19.55 418.6,-26.47 421.17,-19.96"/>
</g>
<!-- Node9 -->
<g id="node9" class="node">
<title>Node9</title>
<g id="a_node9"><a xlink:title=" ">
<polygon fill="white" stroke="#bfbfbf" points="433,-0.5 433,-19.5 477,-19.5 477,-0.5 433,-0.5"/>
<text text-anchor="middle" x="455" y="-7.5" font-family="Helvetica,sans-Serif" font-size="10.00">string</text>
</a>
</g>
</g>
<!-- Node1&#45;&gt;Node9 -->
<g id="edge18" class="edge">
<title>Node1&#45;&gt;Node9</title>
<path fill="none" stroke="midnightblue" d="M488.36,-246.32C496.34,-236.84 505.73,-223.64 510,-210 530.42,-144.67 539.31,-117.85 510,-56 503.87,-43.07 492.01,-32.62 480.86,-25.05"/>
<polygon fill="midnightblue" stroke="midnightblue" points="482.53,-21.97 472.2,-19.61 478.81,-27.9 482.53,-21.97"/>
</g>
<!-- Node12 -->
<g id="node12" class="node">
<title>Node12</title>
<g id="a_node12"><a xlink:title=" ">
<polygon fill="white" stroke="#bfbfbf" points="422.5,-62 422.5,-81 467.5,-81 467.5,-62 422.5,-62"/>
<text text-anchor="middle" x="445" y="-69" font-family="Helvetica,sans-Serif" font-size="10.00">utility</text>
</a>
</g>
</g>
<!-- Node1&#45;&gt;Node12 -->
<g id="edge19" class="edge">
<title>Node1&#45;&gt;Node12</title>
<path fill="none" stroke="midnightblue" d="M472.75,-246.37C467.41,-212.94 454.01,-128.97 448,-91.3"/>
<polygon fill="midnightblue" stroke="midnightblue" points="451.42,-90.53 446.39,-81.21 444.51,-91.63 451.42,-90.53"/>
</g>
<!-- Node14 -->
<g id="node14" class="node">
<title>Node14</title>
<g id="a_node14"><a xlink:title=" ">
<polygon fill="white" stroke="#bfbfbf" points="562.5,-185 562.5,-204 665.5,-204 665.5,-185 562.5,-185"/>
<text text-anchor="middle" x="614" y="-192" font-family="Helvetica,sans-Serif" font-size="10.00">opencv2/core.hpp</text>
</a>
</g>
</g>
<!-- Node1&#45;&gt;Node14 -->
<g id="edge16" class="edge">
<title>Node1&#45;&gt;Node14</title>
<path fill="none" stroke="midnightblue" d="M505.16,-246.4C529.44,-235.04 563.28,-219.22 586.75,-208.24"/>
<polygon fill="midnightblue" stroke="midnightblue" points="588.23,-211.41 595.81,-204.01 585.27,-205.07 588.23,-211.41"/>
</g>
<!-- Node4 -->
<g id="node4" class="node">
<title>Node4</title>
<g id="a_node4"><a xlink:href="param__spec_8h.html" target="_top" xlink:title=" ">
<polygon fill="white" stroke="black" points="289.5,-123.5 289.5,-142.5 424.5,-142.5 424.5,-123.5 289.5,-123.5"/>
<text text-anchor="middle" x="357" y="-130.5" font-family="Helvetica,sans-Serif" font-size="10.00">depz/core/param_spec.h</text>
</a>
</g>
</g>
<!-- Node3&#45;&gt;Node4 -->
<g id="edge3" class="edge">
<title>Node3&#45;&gt;Node4</title>
<path fill="none" stroke="midnightblue" d="M359.29,-179.4C358.89,-171.47 358.38,-161.46 357.95,-152.86"/>
<polygon fill="midnightblue" stroke="midnightblue" points="361.44,-152.47 357.44,-142.66 354.44,-152.82 361.44,-152.47"/>
</g>
<!-- Node13 -->
<g id="node13" class="node">
<title>Node13</title>
<g id="a_node13"><a xlink:title=" ">
<polygon fill="white" stroke="#bfbfbf" points="141.5,-62 141.5,-81 188.5,-81 188.5,-62 141.5,-62"/>
<text text-anchor="middle" x="165" y="-69" font-family="Helvetica,sans-Serif" font-size="10.00">vector</text>
</a>
</g>
</g>
<!-- Node3&#45;&gt;Node13 -->
<g id="edge15" class="edge">
<title>Node3&#45;&gt;Node13</title>
<path fill="none" stroke="midnightblue" d="M337.25,-179.38C299.65,-156.05 224.97,-109.71 187.52,-86.47"/>
<polygon fill="midnightblue" stroke="midnightblue" points="189.19,-83.39 178.85,-81.09 185.5,-89.34 189.19,-83.39"/>
</g>
<!-- Node5 -->
<g id="node5" class="node">
<title>Node5</title>
<g id="a_node5"><a xlink:href="iparameter__store_8h.html" target="_top" xlink:title="Type&#45;erased key/value parameter store interface.">
<polygon fill="white" stroke="black" points="206.5,-56.5 206.5,-86.5 327.5,-86.5 327.5,-56.5 206.5,-56.5"/>
<text text-anchor="start" x="214.5" y="-74.5" font-family="Helvetica,sans-Serif" font-size="10.00">depz/core/iparameter</text>
<text text-anchor="middle" x="267" y="-63.5" font-family="Helvetica,sans-Serif" font-size="10.00">_store.h</text>
</a>
</g>
</g>
<!-- Node4&#45;&gt;Node5 -->
<g id="edge4" class="edge">
<title>Node4&#45;&gt;Node5</title>
<path fill="none" stroke="midnightblue" d="M344.11,-123.48C331.8,-115.34 312.82,-102.79 296.77,-92.18"/>
<polygon fill="midnightblue" stroke="midnightblue" points="298.48,-89.12 288.21,-86.52 294.62,-94.96 298.48,-89.12"/>
</g>
<!-- Node4&#45;&gt;Node8 -->
<g id="edge11" class="edge">
<title>Node4&#45;&gt;Node8</title>
<path fill="none" stroke="midnightblue" d="M359.16,-123.3C364,-103.76 375.83,-56.06 382.4,-29.55"/>
<polygon fill="midnightblue" stroke="midnightblue" points="385.85,-30.17 384.86,-19.62 379.06,-28.49 385.85,-30.17"/>
</g>
<!-- Node4&#45;&gt;Node9 -->
<g id="edge12" class="edge">
<title>Node4&#45;&gt;Node9</title>
<path fill="none" stroke="midnightblue" d="M363.07,-123.36C373.22,-109.05 394.44,-79.64 414,-56 422.17,-46.13 431.8,-35.51 439.67,-27.07"/>
<polygon fill="midnightblue" stroke="midnightblue" points="442.27,-29.42 446.58,-19.74 437.17,-24.62 442.27,-29.42"/>
</g>
<!-- Node4&#45;&gt;Node12 -->
<g id="edge13" class="edge">
<title>Node4&#45;&gt;Node12</title>
<path fill="none" stroke="midnightblue" d="M369.61,-123.48C383.72,-113.93 406.83,-98.31 423.75,-86.87"/>
<polygon fill="midnightblue" stroke="midnightblue" points="426.09,-89.51 432.42,-81.01 422.17,-83.71 426.09,-89.51"/>
</g>
<!-- Node4&#45;&gt;Node13 -->
<g id="edge14" class="edge">
<title>Node4&#45;&gt;Node13</title>
<path fill="none" stroke="midnightblue" d="M320.6,-123.44C287.85,-115.33 238.61,-102.18 197,-87 195.38,-86.41 193.74,-85.78 192.08,-85.11"/>
<polygon fill="midnightblue" stroke="midnightblue" points="193.31,-81.83 182.74,-81.11 190.56,-88.27 193.31,-81.83"/>
</g>
<!-- Node6 -->
<g id="node6" class="node">
<title>Node6</title>
<g id="a_node6"><a xlink:title=" ">
<polygon fill="white" stroke="#bfbfbf" points="0,-0.5 0,-19.5 116,-19.5 116,-0.5 0,-0.5"/>
<text text-anchor="middle" x="58" y="-7.5" font-family="Helvetica,sans-Serif" font-size="10.00">opencv2/opencv.hpp</text>
</a>
</g>
</g>
<!-- Node5&#45;&gt;Node6 -->
<g id="edge5" class="edge">
<title>Node5&#45;&gt;Node6</title>
<path fill="none" stroke="midnightblue" d="M217.73,-56.47C181.05,-46.03 131.62,-31.96 97.51,-22.25"/>
<polygon fill="midnightblue" stroke="midnightblue" points="98.46,-18.88 87.88,-19.51 96.54,-25.61 98.46,-18.88"/>
</g>
<!-- Node7 -->
<g id="node7" class="node">
<title>Node7</title>
<g id="a_node7"><a xlink:title=" ">
<polygon fill="white" stroke="#bfbfbf" points="134,-0.5 134,-19.5 184,-19.5 184,-0.5 134,-0.5"/>
<text text-anchor="middle" x="159" y="-7.5" font-family="Helvetica,sans-Serif" font-size="10.00">cstdint</text>
</a>
</g>
</g>
<!-- Node5&#45;&gt;Node7 -->
<g id="edge6" class="edge">
<title>Node5&#45;&gt;Node7</title>
<path fill="none" stroke="midnightblue" d="M241.41,-56.4C223.93,-46.77 200.91,-34.09 183.64,-24.58"/>
<polygon fill="midnightblue" stroke="midnightblue" points="185.16,-21.42 174.71,-19.66 181.78,-27.55 185.16,-21.42"/>
</g>
<!-- Node5&#45;&gt;Node8 -->
<g id="edge7" class="edge">
<title>Node5&#45;&gt;Node8</title>
<path fill="none" stroke="midnightblue" d="M295.44,-56.4C315.12,-46.64 341.14,-33.74 360.41,-24.18"/>
<polygon fill="midnightblue" stroke="midnightblue" points="362.13,-27.24 369.54,-19.66 359.02,-20.96 362.13,-27.24"/>
</g>
<!-- Node5&#45;&gt;Node9 -->
<g id="edge8" class="edge">
<title>Node5&#45;&gt;Node9</title>
<path fill="none" stroke="midnightblue" d="M311.55,-56.4C345.89,-45.53 392.54,-30.77 423.19,-21.07"/>
<polygon fill="midnightblue" stroke="midnightblue" points="424.45,-24.34 432.93,-17.99 422.34,-17.67 424.45,-24.34"/>
</g>
<!-- Node10 -->
<g id="node10" class="node">
<title>Node10</title>
<g id="a_node10"><a xlink:title=" ">
<polygon fill="white" stroke="#bfbfbf" points="202.5,-0.5 202.5,-19.5 271.5,-19.5 271.5,-0.5 202.5,-0.5"/>
<text text-anchor="middle" x="237" y="-7.5" font-family="Helvetica,sans-Serif" font-size="10.00">type_traits</text>
</a>
</g>
</g>
<!-- Node5&#45;&gt;Node10 -->
<g id="edge9" class="edge">
<title>Node5&#45;&gt;Node10</title>
<path fill="none" stroke="midnightblue" d="M259.89,-56.4C255.71,-48.11 250.39,-37.55 245.93,-28.71"/>
<polygon fill="midnightblue" stroke="midnightblue" points="248.99,-27.01 241.37,-19.66 242.74,-30.16 248.99,-27.01"/>
</g>
<!-- Node11 -->
<g id="node11" class="node">
<title>Node11</title>
<g id="a_node11"><a xlink:title=" ">
<polygon fill="white" stroke="#bfbfbf" points="289.5,-0.5 289.5,-19.5 340.5,-19.5 340.5,-0.5 289.5,-0.5"/>
<text text-anchor="middle" x="315" y="-7.5" font-family="Helvetica,sans-Serif" font-size="10.00">variant</text>
</a>
</g>
</g>
<!-- Node5&#45;&gt;Node11 -->
<g id="edge10" class="edge">
<title>Node5&#45;&gt;Node11</title>
<path fill="none" stroke="midnightblue" d="M278.38,-56.4C285.35,-47.75 294.31,-36.64 301.63,-27.58"/>
<polygon fill="midnightblue" stroke="midnightblue" points="304.46,-29.64 308.02,-19.66 299.01,-25.24 304.46,-29.64"/>
</g>
</g>
</svg>
