<?xml version="1.0" encoding="UTF-8" standalone="no"?>
<!DOCTYPE svg PUBLIC "-//W3C//DTD SVG 1.1//EN"
 "http://www.w3.org/Graphics/SVG/1.1/DTD/svg11.dtd">
<!-- Generated by graphviz version 2.43.0 (0)
 -->
<!-- Title: include/depz/camera/Icameracontrol.h Pages: 1 -->
<svg width="126pt" height="95pt"
 viewBox="0.00 0.00 126.00 95.00" xmlns="http://www.w3.org/2000/svg" xmlns:xlink="http://www.w3.org/1999/xlink">
<g id="graph0" class="graph" transform="scale(1 1) rotate(0) translate(4 91)">
<title>include/depz/camera/Icameracontrol.h</title>
<polygon fill="white" stroke="transparent" points="-4,4 -4,-91 122,-91 122,4 -4,4"/>
<!-- Node1 -->
<g id="node1" class="node">
<title>Node1</title>
<g id="a_node1"><a xlink:title="Abstract interface for camera image&#45;control properties (V4L2 / UVC).">
<polygon fill="#bfbfbf" stroke="black" points="0,-56.5 0,-86.5 118,-86.5 118,-56.5 0,-56.5"/>
<text text-anchor="start" x="8" y="-74.5" font-family="Helvetica,sans-Serif" font-size="10.00">include/depz/camera</text>
<text text-anchor="middle" x="59" y="-63.5" font-family="Helvetica,sans-Serif" font-size="10.00">/Icameracontrol.h</text>
</a>
</g>
</g>
<!-- Node2 -->
<g id="node2" class="node">
<title>Node2</title>
<g id="a_node2"><a xlink:title=" ">
<polygon fill="white" stroke="#bfbfbf" points="5,-0.5 5,-19.5 49,-19.5 49,-0.5 5,-0.5"/>
<text text-anchor="middle" x="27" y="-7.5" font-family="Helvetica,sans-Serif" font-size="10.00">string</text>
</a>
</g>
</g>
<!-- Node1&#45;&gt;Node2 -->
<g id="edge1" class="edge">
<title>Node1&#45;&gt;Node2</title>
<path fill="none" stroke="midnightblue" d="M51.42,-56.4C46.96,-48.11 41.28,-37.55 36.52,-28.71"/>
<polygon fill="midnightblue" stroke="midnightblue" points="39.48,-26.81 31.66,-19.66 33.31,-30.12 39.48,-26.81"/>
</g>
<!-- Node3 -->
<g id="node3" class="node">
<title>Node3</title>
<g id="a_node3"><a xlink:title=" ">
<polygon fill="white" stroke="#bfbfbf" points="67.5,-0.5 67.5,-19.5 114.5,-19.5 114.5,-0.5 67.5,-0.5"/>
<text text-anchor="middle" x="91" y="-7.5" font-family="Helvetica,sans-Serif" font-size="10.00">vector</text>
</a>
</g>
</g>
<!-- Node1&#45;&gt;Node3 -->
<g id="edge2" class="edge">
<title>Node1&#45;&gt;Node3</title>
<path fill="none" stroke="midnightblue" d="M66.58,-56.4C71.04,-48.11 76.72,-37.55 81.48,-28.71"/>
<polygon fill="midnightblue" stroke="midnightblue" points="84.69,-30.12 86.34,-19.66 78.52,-26.81 84.69,-30.12"/>
</g>
</g>
</svg>
