<?xml version="1.0" encoding="UTF-8" standalone="no"?>
<!DOCTYPE svg PUBLIC "-//W3C//DTD SVG 1.1//EN"
 "http://www.w3.org/Graphics/SVG/1.1/DTD/svg11.dtd">
<!-- Generated by graphviz version 2.43.0 (0)
 -->
<!-- Title: include/depz/controls/icontrol_owner.h Pages: 1 -->
<!--zoomable 307 -->
<svg id="main" version="1.1" xmlns="http://www.w3.org/2000/svg" xmlns:xlink="http://www.w3.org/1999/xlink" xml:space="preserve" onload="init(evt)">
<style type="text/css"><![CDATA[
.edge:hover path { stroke: red; }
.edge:hover polygon { stroke: red; fill: red; }
]]></style>
<script type="text/javascript"><![CDATA[
var edges = document.getElementsByTagName('g');
if (edges && edges.length) {
  for (var i=0;i<edges.length;i++) {
    if (edges[i].id.substr(0,4)=='edge') {
      edges[i].setAttribute('class','edge');
    }
  }
}
]]></script>
        <defs>
                <circle id="rim" cx="0" cy="0" r="7"/>
                <circle id="rim2" cx="0" cy="0" r="3.5"/>
                <g id="zoomPlus">
                        <use xlink:href="#rim" fill="#404040">
                                <set attributeName="fill" to="#808080" begin="zoomplus.mouseover" end="zoomplus.mouseout"/>
                        </use>
                        <path d="M-4,0h8M0,-4v8" fill="none" stroke="white" stroke-width="1.5" pointer-events="none"/>
                </g>
                <g id="zoomMin">
                        <use xlink:href="#rim" fill="#404040">
                                <set attributeName="fill" to="#808080" begin="zoomminus.mouseover" end="zoomminus.mouseout"/>
                        </use>
                        <path d="M-4,0h8" fill="none" stroke="white" stroke-width="1.5" pointer-events="none"/>
                </g>
                <g id="dirArrow">
                        <path fill="none" stroke="white" stroke-width="1.5" d="M0,-3.0v7 M-2.5,-0.5L0,-3.0L2.5,-0.5"/>
                </g>
               <g id="resetDef">
                       <use xlink:href="#rim2" fill="#404040">
                               <set attributeName="fill" to="#808080" begin="reset.mouseover" end="reset.mouseout"/>
                       </use>
               </g>
        </defs>

<script type="text/javascript">
var viewWidth = 1124;
var viewHeight = 307;
var sectionId = 'dynsection-1';
</script>
<script xlink:href="svgpan.js"/>
<svg id="graph" class="graph">
<g id="viewport">
<title>include/depz/controls/icontrol_owner.h</title>
<polygon fill="white" stroke="transparent" points="-4,4 -4,-303 1120,-303 1120,4 -4,4"/>
<!-- Node1 -->
<g id="node1" class="node">
<title>Node1</title>
<g id="a_node1"><a xlink:title=" ">
<polygon fill="#bfbfbf" stroke="black" points="356.5,-268.5 356.5,-298.5 476.5,-298.5 476.5,-268.5 356.5,-268.5"/>
<text text-anchor="start" x="364.5" y="-286.5" font-family="Helvetica,sans-Serif" font-size="10.00">include/depz/controls</text>
<text text-anchor="middle" x="416.5" y="-275.5" font-family="Helvetica,sans-Serif" font-size="10.00">/icontrol_owner.h</text>
</a>
</g>
</g>
<!-- Node2 -->
<g id="node2" class="node">
<title>Node2</title>
<g id="a_node2"><a xlink:href="icalibration_8h.html" target="_top" xlink:title="Language&#45;neutral calibration ABC — the runtime contract every concrete stereo / mono calibration mode...">
<polygon fill="white" stroke="black" points="175,-201.5 175,-231.5 332,-231.5 332,-201.5 175,-201.5"/>
<text text-anchor="start" x="183" y="-219.5" font-family="Helvetica,sans-Serif" font-size="10.00">include/depz/core/calibration</text>
<text text-anchor="middle" x="253.5" y="-208.5" font-family="Helvetica,sans-Serif" font-size="10.00">/icalibration.h</text>
</a>
</g>
</g>
<!-- Node1&#45;&gt;Node2 -->
<g id="edge1" class="edge">
<title>Node1&#45;&gt;Node2</title>
<path fill="none" stroke="midnightblue" d="M371.82,-264.68C345.67,-254.26 313.13,-241.28 288.8,-231.58"/>
<polygon fill="midnightblue" stroke="midnightblue" points="370.55,-267.94 381.13,-268.4 373.14,-261.44 370.55,-267.94"/>
</g>
<!-- Node5 -->
<g id="node5" class="node">
<title>Node5</title>
<g id="a_node5"><a xlink:href="ifilter_8h.html" target="_top" xlink:title=" ">
<polygon fill="white" stroke="black" points="350,-201.5 350,-231.5 483,-231.5 483,-201.5 350,-201.5"/>
<text text-anchor="start" x="358" y="-219.5" font-family="Helvetica,sans-Serif" font-size="10.00">include/depz/core/filters</text>
<text text-anchor="middle" x="416.5" y="-208.5" font-family="Helvetica,sans-Serif" font-size="10.00">/ifilter.h</text>
</a>
</g>
</g>
<!-- Node1&#45;&gt;Node5 -->
<g id="edge4" class="edge">
<title>Node1&#45;&gt;Node5</title>
<path fill="none" stroke="midnightblue" d="M416.5,-258.11C416.5,-249.15 416.5,-239.32 416.5,-231.58"/>
<polygon fill="midnightblue" stroke="midnightblue" points="413,-258.4 416.5,-268.4 420,-258.4 413,-258.4"/>
</g>
<!-- Node7 -->
<g id="node7" class="node">
<title>Node7</title>
<g id="a_node7"><a xlink:href="ineural__inference_8h.html" target="_top" xlink:title="Architecture&#45;agnostic orchestration interface for neural depth networks.">
<polygon fill="white" stroke="black" points="722,-201.5 722,-231.5 873,-231.5 873,-201.5 722,-201.5"/>
<text text-anchor="start" x="730" y="-219.5" font-family="Helvetica,sans-Serif" font-size="10.00">include/depz/core/inference</text>
<text text-anchor="middle" x="797.5" y="-208.5" font-family="Helvetica,sans-Serif" font-size="10.00">/ineural_inference.h</text>
</a>
</g>
</g>
<!-- Node1&#45;&gt;Node7 -->
<g id="edge6" class="edge">
<title>Node1&#45;&gt;Node7</title>
<path fill="none" stroke="midnightblue" d="M486.86,-270.5C553.5,-259.13 653.28,-242.1 721.66,-230.44"/>
<polygon fill="midnightblue" stroke="midnightblue" points="486.14,-267.07 476.87,-272.2 487.32,-273.97 486.14,-267.07"/>
</g>
<!-- Node3 -->
<g id="node3" class="node">
<title>Node3</title>
<g id="a_node3"><a xlink:href="opencv__basic_8h.html" target="_top" xlink:title="Concrete Calibration for the OpenCV5 / OpenCV8 pinhole lens model.">
<polygon fill="white" stroke="black" points="0,-134.5 0,-164.5 157,-164.5 157,-134.5 0,-134.5"/>
<text text-anchor="start" x="8" y="-152.5" font-family="Helvetica,sans-Serif" font-size="10.00">include/depz/core/calibration</text>
<text text-anchor="middle" x="78.5" y="-141.5" font-family="Helvetica,sans-Serif" font-size="10.00">/opencv_basic.h</text>
</a>
</g>
</g>
<!-- Node2&#45;&gt;Node3 -->
<g id="edge2" class="edge">
<title>Node2&#45;&gt;Node3</title>
<path fill="none" stroke="midnightblue" d="M205.9,-197.82C177.77,-187.37 142.64,-174.32 116.4,-164.58"/>
<polygon fill="midnightblue" stroke="midnightblue" points="204.93,-201.2 215.53,-201.4 207.37,-194.63 204.93,-201.2"/>
</g>
<!-- Node4 -->
<g id="node4" class="node">
<title>Node4</title>
<g id="a_node4"><a xlink:href="opencv__fisheye_8h.html" target="_top" xlink:title="Kannala–Brandt fisheye Calibration with lon/lat (ERP) rectified depth.">
<polygon fill="white" stroke="black" points="175,-134.5 175,-164.5 332,-164.5 332,-134.5 175,-134.5"/>
<text text-anchor="start" x="183" y="-152.5" font-family="Helvetica,sans-Serif" font-size="10.00">include/depz/core/calibration</text>
<text text-anchor="middle" x="253.5" y="-141.5" font-family="Helvetica,sans-Serif" font-size="10.00">/opencv_fisheye.h</text>
</a>
</g>
</g>
<!-- Node2&#45;&gt;Node4 -->
<g id="edge3" class="edge">
<title>Node2&#45;&gt;Node4</title>
<path fill="none" stroke="midnightblue" d="M253.5,-191.11C253.5,-182.15 253.5,-172.32 253.5,-164.58"/>
<polygon fill="midnightblue" stroke="midnightblue" points="250,-191.4 253.5,-201.4 257,-191.4 250,-191.4"/>
</g>
<!-- Node6 -->
<g id="node6" class="node">
<title>Node6</title>
<g id="a_node6"><a xlink:href="builtin_8h.html" target="_top" xlink:title=" ">
<polygon fill="white" stroke="black" points="350,-134.5 350,-164.5 483,-164.5 483,-134.5 350,-134.5"/>
<text text-anchor="start" x="358" y="-152.5" font-family="Helvetica,sans-Serif" font-size="10.00">include/depz/core/filters</text>
<text text-anchor="middle" x="416.5" y="-141.5" font-family="Helvetica,sans-Serif" font-size="10.00">/builtin.h</text>
</a>
</g>
</g>
<!-- Node5&#45;&gt;Node6 -->
<g id="edge5" class="edge">
<title>Node5&#45;&gt;Node6</title>
<path fill="none" stroke="midnightblue" d="M416.5,-191.11C416.5,-182.15 416.5,-172.32 416.5,-164.58"/>
<polygon fill="midnightblue" stroke="midnightblue" points="413,-191.4 416.5,-201.4 420,-191.4 413,-191.4"/>
</g>
<!-- Node8 -->
<g id="node8" class="node">
<title>Node8</title>
<g id="a_node8"><a xlink:href="inference__factory_8h.html" target="_top" xlink:title="Single factory turning (arch slug, model file, engine slug) into a ready DepthInferenceBase.">
<polygon fill="white" stroke="black" points="501,-134.5 501,-164.5 652,-164.5 652,-134.5 501,-134.5"/>
<text text-anchor="start" x="509" y="-152.5" font-family="Helvetica,sans-Serif" font-size="10.00">include/depz/core/inference</text>
<text text-anchor="middle" x="576.5" y="-141.5" font-family="Helvetica,sans-Serif" font-size="10.00">/inference_factory.h</text>
</a>
</g>
</g>
<!-- Node7&#45;&gt;Node8 -->
<g id="edge7" class="edge">
<title>Node7&#45;&gt;Node8</title>
<path fill="none" stroke="midnightblue" d="M739.97,-198.58C704.08,-188.02 658.41,-174.59 624.48,-164.61"/>
<polygon fill="midnightblue" stroke="midnightblue" points="739.24,-202.01 749.82,-201.48 741.21,-195.3 739.24,-202.01"/>
</g>
<!-- Node9 -->
<g id="node9" class="node">
<title>Node9</title>
<g id="a_node9"><a xlink:href="neural__architectures_8h.html" target="_top" xlink:title="Per&#45;network preprocess/postprocess recipes for the SDK&#39;s depth models.">
<polygon fill="white" stroke="black" points="670,-134.5 670,-164.5 821,-164.5 821,-134.5 670,-134.5"/>
<text text-anchor="start" x="678" y="-152.5" font-family="Helvetica,sans-Serif" font-size="10.00">include/depz/core/inference</text>
<text text-anchor="middle" x="745.5" y="-141.5" font-family="Helvetica,sans-Serif" font-size="10.00">/neural_architectures.h</text>
</a>
</g>
</g>
<!-- Node7&#45;&gt;Node9 -->
<g id="edge8" class="edge">
<title>Node7&#45;&gt;Node9</title>
<path fill="none" stroke="midnightblue" d="M779.86,-193.45C772.22,-183.9 763.5,-173 756.76,-164.58"/>
<polygon fill="midnightblue" stroke="midnightblue" points="777.24,-195.77 786.22,-201.4 782.7,-191.4 777.24,-195.77"/>
</g>
<!-- Node10 -->
<g id="node10" class="node">
<title>Node10</title>
<g id="a_node10"><a xlink:href="depth__pipeline_8h.html" target="_top" xlink:title=" ">
<polygon fill="white" stroke="black" points="796.5,-0.5 796.5,-30.5 940.5,-30.5 940.5,-0.5 796.5,-0.5"/>
<text text-anchor="start" x="804.5" y="-18.5" font-family="Helvetica,sans-Serif" font-size="10.00">include/depz/core/pipeline</text>
<text text-anchor="middle" x="868.5" y="-7.5" font-family="Helvetica,sans-Serif" font-size="10.00">/depth_pipeline.h</text>
</a>
</g>
</g>
<!-- Node7&#45;&gt;Node10 -->
<g id="edge9" class="edge">
<title>Node7&#45;&gt;Node10</title>
<path fill="none" stroke="midnightblue" d="M814.07,-192.67C819.58,-184.28 825.36,-174.5 829.5,-165 849.94,-118.08 861.66,-58.01 866.24,-30.91"/>
<polygon fill="midnightblue" stroke="midnightblue" points="811.03,-190.91 808.29,-201.14 816.81,-194.86 811.03,-190.91"/>
</g>
<!-- Node11 -->
<g id="node11" class="node">
<title>Node11</title>
<g id="a_node11"><a xlink:href="frame__processor_8h.html" target="_top" xlink:title="Single&#45;call per&#45;frame postprocess chain (disparity→depth→cloud).">
<polygon fill="white" stroke="black" points="877.5,-134.5 877.5,-164.5 1021.5,-164.5 1021.5,-134.5 877.5,-134.5"/>
<text text-anchor="start" x="885.5" y="-152.5" font-family="Helvetica,sans-Serif" font-size="10.00">include/depz/core/pipeline</text>
<text text-anchor="middle" x="949.5" y="-141.5" font-family="Helvetica,sans-Serif" font-size="10.00">/frame_processor.h</text>
</a>
</g>
</g>
<!-- Node7&#45;&gt;Node11 -->
<g id="edge10" class="edge">
<title>Node7&#45;&gt;Node11</title>
<path fill="none" stroke="midnightblue" d="M839.81,-197.41C864.08,-187.03 894.09,-174.2 916.58,-164.58"/>
<polygon fill="midnightblue" stroke="midnightblue" points="838.3,-194.25 830.48,-201.4 841.05,-200.68 838.3,-194.25"/>
</g>
<!-- Node12 -->
<g id="node12" class="node">
<title>Node12</title>
<g id="a_node12"><a xlink:href="idepth__calibration_8h.html" target="_top" xlink:title="Calibration interface the DepthPipeline worker loop depends on.">
<polygon fill="white" stroke="black" points="952.5,-67.5 952.5,-97.5 1096.5,-97.5 1096.5,-67.5 952.5,-67.5"/>
<text text-anchor="start" x="960.5" y="-85.5" font-family="Helvetica,sans-Serif" font-size="10.00">include/depz/core/pipeline</text>
<text text-anchor="middle" x="1024.5" y="-74.5" font-family="Helvetica,sans-Serif" font-size="10.00">/idepth_calibration.h</text>
</a>
</g>
</g>
<!-- Node7&#45;&gt;Node12 -->
<g id="edge15" class="edge">
<title>Node7&#45;&gt;Node12</title>
<path fill="none" stroke="midnightblue" d="M883.07,-208.1C941.65,-201.05 1011.96,-187.99 1030.5,-165 1045.91,-145.89 1037.75,-115.39 1030.84,-97.62"/>
<polygon fill="midnightblue" stroke="midnightblue" points="882.57,-204.63 873.04,-209.26 883.37,-211.58 882.57,-204.63"/>
</g>
<!-- Node11&#45;&gt;Node10 -->
<g id="edge11" class="edge">
<title>Node11&#45;&gt;Node10</title>
<path fill="none" stroke="midnightblue" d="M935.59,-125.83C918.8,-98.47 891.07,-53.28 877.11,-30.52"/>
<polygon fill="midnightblue" stroke="midnightblue" points="932.62,-127.68 940.83,-134.37 938.58,-124.02 932.62,-127.68"/>
</g>
<!-- Node11&#45;&gt;Node12 -->
<g id="edge12" class="edge">
<title>Node11&#45;&gt;Node12</title>
<path fill="none" stroke="midnightblue" d="M973.62,-127.6C984.94,-117.78 998.14,-106.34 1008.26,-97.58"/>
<polygon fill="midnightblue" stroke="midnightblue" points="971.04,-125.2 965.77,-134.4 975.62,-130.49 971.04,-125.2"/>
</g>
<!-- Node12&#45;&gt;Node10 -->
<g id="edge14" class="edge">
<title>Node12&#45;&gt;Node10</title>
<path fill="none" stroke="midnightblue" d="M981.41,-63.54C956.44,-53.14 925.47,-40.24 902.28,-30.58"/>
<polygon fill="midnightblue" stroke="midnightblue" points="980.07,-66.78 990.65,-67.4 982.77,-60.32 980.07,-66.78"/>
</g>
<!-- Node13 -->
<g id="node13" class="node">
<title>Node13</title>
<g id="a_node13"><a xlink:href="opencv__depth__calibration_8h.html" target="_top" xlink:title="IDepthCalibration for the pinhole stereo model, backed by StereoCalibration.">
<polygon fill="white" stroke="black" points="959,-0.5 959,-30.5 1116,-30.5 1116,-0.5 959,-0.5"/>
<text text-anchor="start" x="967" y="-18.5" font-family="Helvetica,sans-Serif" font-size="10.00">include/depz/core/calibration</text>
<text text-anchor="middle" x="1037.5" y="-7.5" font-family="Helvetica,sans-Serif" font-size="10.00">/opencv_depth_calibration.h</text>
</a>
</g>
</g>
<!-- Node12&#45;&gt;Node13 -->
<g id="edge13" class="edge">
<title>Node12&#45;&gt;Node13</title>
<path fill="none" stroke="midnightblue" d="M1029.32,-57.4C1031.13,-48.37 1033.12,-38.41 1034.68,-30.58"/>
<polygon fill="midnightblue" stroke="midnightblue" points="1025.85,-56.9 1027.32,-67.4 1032.71,-58.28 1025.85,-56.9"/>
</g>
</g>
</svg>
        <g id="navigator" transform="translate(0 0)" fill="#404254">
                <rect fill="#f2f5e9" fill-opacity="0.5" stroke="#606060" stroke-width=".5" x="0" y="0" width="60" height="60"/>
                <use id="zoomplus" xlink:href="#zoomPlus" x="17" y="9" onmousedown="handleZoom(evt,'in')"/>
                <use id="zoomminus" xlink:href="#zoomMin" x="42" y="9" onmousedown="handleZoom(evt,'out')"/>
                <use id="reset" xlink:href="#resetDef" x="30" y="36" onmousedown="handleReset()"/>
                <g id="arrowUp" xlink:href="#dirArrow" transform="translate(30 24)" onmousedown="handlePan(0,-1)">
                  <use xlink:href="#rim" fill="#404040">
                        <set attributeName="fill" to="#808080" begin="arrowUp.mouseover" end="arrowUp.mouseout"/>
                  </use>
                  <path fill="none" stroke="white" stroke-width="1.5" d="M0,-3.0v7 M-2.5,-0.5L0,-3.0L2.5,-0.5"/>
                </g>
                <g id="arrowRight" xlink:href="#dirArrow" transform="rotate(90) translate(36 -43)" onmousedown="handlePan(1,0)">
                  <use xlink:href="#rim" fill="#404040">
                        <set attributeName="fill" to="#808080" begin="arrowRight.mouseover" end="arrowRight.mouseout"/>
                  </use>
                  <path fill="none" stroke="white" stroke-width="1.5" d="M0,-3.0v7 M-2.5,-0.5L0,-3.0L2.5,-0.5"/>
                </g>
                <g id="arrowDown" xlink:href="#dirArrow" transform="rotate(180) translate(-30 -48)" onmousedown="handlePan(0,1)">
                  <use xlink:href="#rim" fill="#404040">
                        <set attributeName="fill" to="#808080" begin="arrowDown.mouseover" end="arrowDown.mouseout"/>
                  </use>
                  <path fill="none" stroke="white" stroke-width="1.5" d="M0,-3.0v7 M-2.5,-0.5L0,-3.0L2.5,-0.5"/>
                </g>
                <g id="arrowLeft" xlink:href="#dirArrow" transform="rotate(270) translate(-36 17)" onmousedown="handlePan(-1,0)">
                  <use xlink:href="#rim" fill="#404040">
                        <set attributeName="fill" to="#808080" begin="arrowLeft.mouseover" end="arrowLeft.mouseout"/>
                  </use>
                  <path fill="none" stroke="white" stroke-width="1.5" d="M0,-3.0v7 M-2.5,-0.5L0,-3.0L2.5,-0.5"/>
                </g>
        </g>
        <svg viewBox="0 0 15 15" width="100%" height="30px" preserveAspectRatio="xMaxYMin meet">
         <g id="arrow_out" transform="scale(0.3 0.3)">
          <a xlink:href="icontrol__owner_8h__dep__incl_org.svg" target="_base">
           <rect id="button" ry="5" rx="5" y="6" x="6" height="38" width="38"
                fill="#f2f5e9" fill-opacity="0.5" stroke="#606060" stroke-width="1.0"/>
           <path id="arrow"
             d="M 11.500037,31.436501 C 11.940474,20.09759 22.043105,11.32322 32.158766,21.979434 L 37.068811,17.246167 C 37.068811,17.246167 37.088388,32 37.088388,32 L 22.160133,31.978069 C 22.160133,31.978069 26.997745,27.140456 26.997745,27.140456 C 18.528582,18.264221 13.291696,25.230495 11.500037,31.436501 z"
             style="fill:#404040;"/>
          </a>
         </g>
        </svg>
</svg>
