<?xml version="1.0" encoding="UTF-8" standalone="no"?>
<!DOCTYPE svg PUBLIC "-//W3C//DTD SVG 1.1//EN"
 "http://www.w3.org/Graphics/SVG/1.1/DTD/svg11.dtd">
<!-- Generated by graphviz version 2.43.0 (0)
 -->
<!-- Title: include/depz/processing/idepthfilter.h Pages: 1 -->
<svg width="200pt" height="95pt"
 viewBox="0.00 0.00 200.00 95.00" xmlns="http://www.w3.org/2000/svg" xmlns:xlink="http://www.w3.org/1999/xlink">
<g id="graph0" class="graph" transform="scale(1 1) rotate(0) translate(4 91)">
<title>include/depz/processing/idepthfilter.h</title>
<polygon fill="white" stroke="transparent" points="-4,4 -4,-91 196,-91 196,4 -4,4"/>
<!-- Node1 -->
<g id="node1" class="node">
<title>Node1</title>
<g id="a_node1"><a xlink:title="Abstract interface for depth&#45;map and disparity&#45;map filters.">
<polygon fill="#bfbfbf" stroke="black" points="43,-56.5 43,-86.5 177,-86.5 177,-56.5 43,-56.5"/>
<text text-anchor="start" x="51" y="-74.5" font-family="Helvetica,sans-Serif" font-size="10.00">include/depz/processing</text>
<text text-anchor="middle" x="110" y="-63.5" font-family="Helvetica,sans-Serif" font-size="10.00">/idepthfilter.h</text>
</a>
</g>
</g>
<!-- Node2 -->
<g id="node2" class="node">
<title>Node2</title>
<g id="a_node2"><a xlink:title=" ">
<polygon fill="white" stroke="#bfbfbf" points="0,-0.5 0,-19.5 116,-19.5 116,-0.5 0,-0.5"/>
<text text-anchor="middle" x="58" y="-7.5" font-family="Helvetica,sans-Serif" font-size="10.00">opencv2/opencv.hpp</text>
</a>
</g>
</g>
<!-- Node1&#45;&gt;Node2 -->
<g id="edge1" class="edge">
<title>Node1&#45;&gt;Node2</title>
<path fill="none" stroke="midnightblue" d="M97.68,-56.4C90.04,-47.66 80.21,-36.41 72.24,-27.3"/>
<polygon fill="midnightblue" stroke="midnightblue" points="74.78,-24.88 65.57,-19.66 69.51,-29.49 74.78,-24.88"/>
</g>
<!-- Node3 -->
<g id="node3" class="node">
<title>Node3</title>
<g id="a_node3"><a xlink:title=" ">
<polygon fill="white" stroke="#bfbfbf" points="134,-0.5 134,-19.5 192,-19.5 192,-0.5 134,-0.5"/>
<text text-anchor="middle" x="163" y="-7.5" font-family="Helvetica,sans-Serif" font-size="10.00">memory</text>
</a>
</g>
</g>
<!-- Node1&#45;&gt;Node3 -->
<g id="edge2" class="edge">
<title>Node1&#45;&gt;Node3</title>
<path fill="none" stroke="midnightblue" d="M122.56,-56.4C130.34,-47.66 140.36,-36.41 148.48,-27.3"/>
<polygon fill="midnightblue" stroke="midnightblue" points="151.25,-29.45 155.29,-19.66 146.02,-24.8 151.25,-29.45"/>
</g>
</g>
</svg>
