<?xml version="1.0" encoding="UTF-8" standalone="no"?>
<!DOCTYPE svg PUBLIC "-//W3C//DTD SVG 1.1//EN"
 "http://www.w3.org/Graphics/SVG/1.1/DTD/svg11.dtd">
<!-- Generated by graphviz version 2.43.0 (0)
 -->
<!-- Title: include/depz/processing/idepthfilter.h Pages: 1 -->
<!--zoomable 251 -->
<svg id="main" version="1.1" xmlns="http://www.w3.org/2000/svg" xmlns:xlink="http://www.w3.org/1999/xlink" xml:space="preserve" onload="init(evt)">
<style type="text/css"><![CDATA[
.edge:hover path { stroke: red; }
.edge:hover polygon { stroke: red; fill: red; }
]]></style>
<script type="text/javascript"><![CDATA[
var edges = document.getElementsByTagName('g');
if (edges && edges.length) {
  for (var i=0;i<edges.length;i++) {
    if (edges[i].id.substr(0,4)=='edge') {
      edges[i].setAttribute('class','edge');
    }
  }
}
]]></script>
        <defs>
                <circle id="rim" cx="0" cy="0" r="7"/>
                <circle id="rim2" cx="0" cy="0" r="3.5"/>
                <g id="zoomPlus">
                        <use xlink:href="#rim" fill="#404040">
                                <set attributeName="fill" to="#808080" begin="zoomplus.mouseover" end="zoomplus.mouseout"/>
                        </use>
                        <path d="M-4,0h8M0,-4v8" fill="none" stroke="white" stroke-width="1.5" pointer-events="none"/>
                </g>
                <g id="zoomMin">
                        <use xlink:href="#rim" fill="#404040">
                                <set attributeName="fill" to="#808080" begin="zoomminus.mouseover" end="zoomminus.mouseout"/>
                        </use>
                        <path d="M-4,0h8" fill="none" stroke="white" stroke-width="1.5" pointer-events="none"/>
                </g>
                <g id="dirArrow">
                        <path fill="none" stroke="white" stroke-width="1.5" d="M0,-3.0v7 M-2.5,-0.5L0,-3.0L2.5,-0.5"/>
                </g>
               <g id="resetDef">
                       <use xlink:href="#rim2" fill="#404040">
                               <set attributeName="fill" to="#808080" begin="reset.mouseover" end="reset.mouseout"/>
                       </use>
               </g>
        </defs>

<script type="text/javascript">
var viewWidth = 530;
var viewHeight = 251;
var sectionId = 'dynsection-1';
</script>
<script xlink:href="svgpan.js"/>
<svg id="graph" class="graph">
<g id="viewport">
<title>include/depz/processing/idepthfilter.h</title>
<polygon fill="white" stroke="transparent" points="-4,4 -4,-247 526,-247 526,4 -4,4"/>
<!-- Node1 -->
<g id="node1" class="node">
<title>Node1</title>
<g id="a_node1"><a xlink:title="Abstract interface for depth&#45;map and disparity&#45;map filters.">
<polygon fill="#bfbfbf" stroke="black" points="157,-212.5 157,-242.5 291,-242.5 291,-212.5 157,-212.5"/>
<text text-anchor="start" x="165" y="-230.5" font-family="Helvetica,sans-Serif" font-size="10.00">include/depz/processing</text>
<text text-anchor="middle" x="224" y="-219.5" font-family="Helvetica,sans-Serif" font-size="10.00">/idepthfilter.h</text>
</a>
</g>
</g>
<!-- Node2 -->
<g id="node2" class="node">
<title>Node2</title>
<g id="a_node2"><a xlink:href="stereo__pipeline_8hpp.html" target="_top" xlink:title=" ">
<polygon fill="white" stroke="black" points="0,-140 0,-170 144,-170 144,-140 0,-140"/>
<text text-anchor="start" x="8" y="-158" font-family="Helvetica,sans-Serif" font-size="10.00">include/depz/core/pipeline</text>
<text text-anchor="middle" x="72" y="-147" font-family="Helvetica,sans-Serif" font-size="10.00">/stereo_pipeline.hpp</text>
</a>
</g>
</g>
<!-- Node1&#45;&gt;Node2 -->
<g id="edge1" class="edge">
<title>Node1&#45;&gt;Node2</title>
<path fill="none" stroke="midnightblue" d="M184.52,-208.19C158.87,-196.29 125.94,-181.02 102.34,-170.07"/>
<polygon fill="midnightblue" stroke="midnightblue" points="183.06,-211.37 193.61,-212.4 186.01,-205.02 183.06,-211.37"/>
</g>
<!-- Node3 -->
<g id="node3" class="node">
<title>Node3</title>
<g id="a_node3"><a xlink:href="depz_8h.html" target="_top" xlink:title="Single umbrella header that pulls in the whole iStereoLab public API.">
<polygon fill="white" stroke="black" points="94.5,-73 94.5,-92 207.5,-92 207.5,-73 94.5,-73"/>
<text text-anchor="middle" x="151" y="-80" font-family="Helvetica,sans-Serif" font-size="10.00">include/depz/depz.h</text>
</a>
</g>
</g>
<!-- Node1&#45;&gt;Node3 -->
<g id="edge3" class="edge">
<title>Node1&#45;&gt;Node3</title>
<path fill="none" stroke="midnightblue" d="M208.11,-203.98C202.38,-195.42 196.08,-185.45 191,-176 175,-146.26 160.39,-108.79 154.17,-92.15"/>
<polygon fill="midnightblue" stroke="midnightblue" points="205.27,-206.03 213.79,-212.32 211.05,-202.08 205.27,-206.03"/>
</g>
<!-- Node4 -->
<g id="node4" class="node">
<title>Node4</title>
<g id="a_node4"><a xlink:href="adaptive__temporal__kalman__filter_8h.html" target="_top" xlink:title=" ">
<polygon fill="white" stroke="black" points="200.5,-134.5 200.5,-175.5 353.5,-175.5 353.5,-134.5 200.5,-134.5"/>
<text text-anchor="start" x="208.5" y="-163.5" font-family="Helvetica,sans-Serif" font-size="10.00">include/depz/processing</text>
<text text-anchor="start" x="208.5" y="-152.5" font-family="Helvetica,sans-Serif" font-size="10.00">/adaptive_temporal_kalman</text>
<text text-anchor="middle" x="277" y="-141.5" font-family="Helvetica,sans-Serif" font-size="10.00">_filter.h</text>
</a>
</g>
</g>
<!-- Node1&#45;&gt;Node4 -->
<g id="edge4" class="edge">
<title>Node1&#45;&gt;Node4</title>
<path fill="none" stroke="midnightblue" d="M240.93,-203.98C247.8,-194.85 255.65,-184.4 262.27,-175.59"/>
<polygon fill="midnightblue" stroke="midnightblue" points="237.94,-202.14 234.73,-212.23 243.53,-206.34 237.94,-202.14"/>
</g>
<!-- Node7 -->
<g id="node7" class="node">
<title>Node7</title>
<g id="a_node7"><a xlink:href="adaptivetemporalfilterv2_8h.html" target="_top" xlink:title=" ">
<polygon fill="white" stroke="black" points="372,-140 372,-170 522,-170 522,-140 372,-140"/>
<text text-anchor="start" x="380" y="-158" font-family="Helvetica,sans-Serif" font-size="10.00">include/depz/processing</text>
<text text-anchor="middle" x="447" y="-147" font-family="Helvetica,sans-Serif" font-size="10.00">/adaptivetemporalfilterv2.h</text>
</a>
</g>
</g>
<!-- Node1&#45;&gt;Node7 -->
<g id="edge8" class="edge">
<title>Node1&#45;&gt;Node7</title>
<path fill="none" stroke="midnightblue" d="M278.22,-209.36C316.3,-197.32 366.62,-181.41 402.38,-170.11"/>
<polygon fill="midnightblue" stroke="midnightblue" points="276.8,-206.14 268.32,-212.49 278.91,-212.81 276.8,-206.14"/>
</g>
<!-- Node2&#45;&gt;Node3 -->
<g id="edge2" class="edge">
<title>Node2&#45;&gt;Node3</title>
<path fill="none" stroke="midnightblue" d="M95.52,-133.01C110.7,-119.46 129.67,-102.53 141.03,-92.39"/>
<polygon fill="midnightblue" stroke="midnightblue" points="93.12,-130.46 87.99,-139.73 97.78,-135.69 93.12,-130.46"/>
</g>
<!-- Node4&#45;&gt;Node3 -->
<g id="edge7" class="edge">
<title>Node4&#45;&gt;Node3</title>
<path fill="none" stroke="midnightblue" d="M232.93,-129.34C209.84,-116.42 182.99,-101.4 166.5,-92.17"/>
<polygon fill="midnightblue" stroke="midnightblue" points="231.47,-132.53 241.9,-134.36 234.88,-126.42 231.47,-132.53"/>
</g>
<!-- Node5 -->
<g id="node5" class="node">
<title>Node5</title>
<g id="a_node5"><a xlink:href="filter__chain_8h.html" target="_top" xlink:title=" ">
<polygon fill="white" stroke="black" points="226,-67.5 226,-97.5 370,-97.5 370,-67.5 226,-67.5"/>
<text text-anchor="start" x="234" y="-85.5" font-family="Helvetica,sans-Serif" font-size="10.00">include/depz/core/pipeline</text>
<text text-anchor="middle" x="298" y="-74.5" font-family="Helvetica,sans-Serif" font-size="10.00">/filter_chain.h</text>
</a>
</g>
</g>
<!-- Node4&#45;&gt;Node5 -->
<g id="edge5" class="edge">
<title>Node4&#45;&gt;Node5</title>
<path fill="none" stroke="midnightblue" d="M285.74,-124.67C288.49,-115.42 291.41,-105.61 293.71,-97.89"/>
<polygon fill="midnightblue" stroke="midnightblue" points="282.35,-123.78 282.85,-134.36 289.06,-125.78 282.35,-123.78"/>
</g>
<!-- Node6 -->
<g id="node6" class="node">
<title>Node6</title>
<g id="a_node6"><a xlink:href="depth__pipeline_8h.html" target="_top" xlink:title=" ">
<polygon fill="white" stroke="black" points="226,-0.5 226,-30.5 370,-30.5 370,-0.5 226,-0.5"/>
<text text-anchor="start" x="234" y="-18.5" font-family="Helvetica,sans-Serif" font-size="10.00">include/depz/core/pipeline</text>
<text text-anchor="middle" x="298" y="-7.5" font-family="Helvetica,sans-Serif" font-size="10.00">/depth_pipeline.h</text>
</a>
</g>
</g>
<!-- Node5&#45;&gt;Node6 -->
<g id="edge6" class="edge">
<title>Node5&#45;&gt;Node6</title>
<path fill="none" stroke="midnightblue" d="M298,-57.11C298,-48.15 298,-38.32 298,-30.58"/>
<polygon fill="midnightblue" stroke="midnightblue" points="294.5,-57.4 298,-67.4 301.5,-57.4 294.5,-57.4"/>
</g>
</g>
</svg>
        <g id="navigator" transform="translate(0 0)" fill="#404254">
                <rect fill="#f2f5e9" fill-opacity="0.5" stroke="#606060" stroke-width=".5" x="0" y="0" width="60" height="60"/>
                <use id="zoomplus" xlink:href="#zoomPlus" x="17" y="9" onmousedown="handleZoom(evt,'in')"/>
                <use id="zoomminus" xlink:href="#zoomMin" x="42" y="9" onmousedown="handleZoom(evt,'out')"/>
                <use id="reset" xlink:href="#resetDef" x="30" y="36" onmousedown="handleReset()"/>
                <g id="arrowUp" xlink:href="#dirArrow" transform="translate(30 24)" onmousedown="handlePan(0,-1)">
                  <use xlink:href="#rim" fill="#404040">
                        <set attributeName="fill" to="#808080" begin="arrowUp.mouseover" end="arrowUp.mouseout"/>
                  </use>
                  <path fill="none" stroke="white" stroke-width="1.5" d="M0,-3.0v7 M-2.5,-0.5L0,-3.0L2.5,-0.5"/>
                </g>
                <g id="arrowRight" xlink:href="#dirArrow" transform="rotate(90) translate(36 -43)" onmousedown="handlePan(1,0)">
                  <use xlink:href="#rim" fill="#404040">
                        <set attributeName="fill" to="#808080" begin="arrowRight.mouseover" end="arrowRight.mouseout"/>
                  </use>
                  <path fill="none" stroke="white" stroke-width="1.5" d="M0,-3.0v7 M-2.5,-0.5L0,-3.0L2.5,-0.5"/>
                </g>
                <g id="arrowDown" xlink:href="#dirArrow" transform="rotate(180) translate(-30 -48)" onmousedown="handlePan(0,1)">
                  <use xlink:href="#rim" fill="#404040">
                        <set attributeName="fill" to="#808080" begin="arrowDown.mouseover" end="arrowDown.mouseout"/>
                  </use>
                  <path fill="none" stroke="white" stroke-width="1.5" d="M0,-3.0v7 M-2.5,-0.5L0,-3.0L2.5,-0.5"/>
                </g>
                <g id="arrowLeft" xlink:href="#dirArrow" transform="rotate(270) translate(-36 17)" onmousedown="handlePan(-1,0)">
                  <use xlink:href="#rim" fill="#404040">
                        <set attributeName="fill" to="#808080" begin="arrowLeft.mouseover" end="arrowLeft.mouseout"/>
                  </use>
                  <path fill="none" stroke="white" stroke-width="1.5" d="M0,-3.0v7 M-2.5,-0.5L0,-3.0L2.5,-0.5"/>
                </g>
        </g>
        <svg viewBox="0 0 15 15" width="100%" height="30px" preserveAspectRatio="xMaxYMin meet">
         <g id="arrow_out" transform="scale(0.3 0.3)">
          <a xlink:href="idepthfilter_8h__dep__incl_org.svg" target="_base">
           <rect id="button" ry="5" rx="5" y="6" x="6" height="38" width="38"
                fill="#f2f5e9" fill-opacity="0.5" stroke="#606060" stroke-width="1.0"/>
           <path id="arrow"
             d="M 11.500037,31.436501 C 11.940474,20.09759 22.043105,11.32322 32.158766,21.979434 L 37.068811,17.246167 C 37.068811,17.246167 37.088388,32 37.088388,32 L 22.160133,31.978069 C 22.160133,31.978069 26.997745,27.140456 26.997745,27.140456 C 18.528582,18.264221 13.291696,25.230495 11.500037,31.436501 z"
             style="fill:#404040;"/>
          </a>
         </g>
        </svg>
</svg>
