<?xml version="1.0" encoding="UTF-8" standalone="no"?>
<!DOCTYPE svg PUBLIC "-//W3C//DTD SVG 1.1//EN"
 "http://www.w3.org/Graphics/SVG/1.1/DTD/svg11.dtd">
<!-- Generated by graphviz version 2.43.0 (0)
 -->
<!-- Title: include/depz/processing/idepthfilter.h Pages: 1 -->
<svg width="530pt" height="251pt"
 viewBox="0.00 0.00 530.00 251.00" xmlns="http://www.w3.org/2000/svg" xmlns:xlink="http://www.w3.org/1999/xlink">
<g id="graph0" class="graph" transform="scale(1 1) rotate(0) translate(4 247)">
<title>include/depz/processing/idepthfilter.h</title>
<polygon fill="white" stroke="transparent" points="-4,4 -4,-247 526,-247 526,4 -4,4"/>
<!-- Node1 -->
<g id="node1" class="node">
<title>Node1</title>
<g id="a_node1"><a xlink:title="Abstract interface for depth&#45;map and disparity&#45;map filters.">
<polygon fill="#bfbfbf" stroke="black" points="157,-212.5 157,-242.5 291,-242.5 291,-212.5 157,-212.5"/>
<text text-anchor="start" x="165" y="-230.5" font-family="Helvetica,sans-Serif" font-size="10.00">include/depz/processing</text>
<text text-anchor="middle" x="224" y="-219.5" font-family="Helvetica,sans-Serif" font-size="10.00">/idepthfilter.h</text>
</a>
</g>
</g>
<!-- Node2 -->
<g id="node2" class="node">
<title>Node2</title>
<g id="a_node2"><a xlink:href="stereo__pipeline_8hpp.html" target="_top" xlink:title=" ">
<polygon fill="white" stroke="black" points="0,-140 0,-170 144,-170 144,-140 0,-140"/>
<text text-anchor="start" x="8" y="-158" font-family="Helvetica,sans-Serif" font-size="10.00">include/depz/core/pipeline</text>
<text text-anchor="middle" x="72" y="-147" font-family="Helvetica,sans-Serif" font-size="10.00">/stereo_pipeline.hpp</text>
</a>
</g>
</g>
<!-- Node1&#45;&gt;Node2 -->
<g id="edge1" class="edge">
<title>Node1&#45;&gt;Node2</title>
<path fill="none" stroke="midnightblue" d="M184.52,-208.19C158.87,-196.29 125.94,-181.02 102.34,-170.07"/>
<polygon fill="midnightblue" stroke="midnightblue" points="183.06,-211.37 193.61,-212.4 186.01,-205.02 183.06,-211.37"/>
</g>
<!-- Node3 -->
<g id="node3" class="node">
<title>Node3</title>
<g id="a_node3"><a xlink:href="depz_8h.html" target="_top" xlink:title="Single umbrella header that pulls in the whole iStereoLab public API.">
<polygon fill="white" stroke="black" points="94.5,-73 94.5,-92 207.5,-92 207.5,-73 94.5,-73"/>
<text text-anchor="middle" x="151" y="-80" font-family="Helvetica,sans-Serif" font-size="10.00">include/depz/depz.h</text>
</a>
</g>
</g>
<!-- Node1&#45;&gt;Node3 -->
<g id="edge3" class="edge">
<title>Node1&#45;&gt;Node3</title>
<path fill="none" stroke="midnightblue" d="M208.11,-203.98C202.38,-195.42 196.08,-185.45 191,-176 175,-146.26 160.39,-108.79 154.17,-92.15"/>
<polygon fill="midnightblue" stroke="midnightblue" points="205.27,-206.03 213.79,-212.32 211.05,-202.08 205.27,-206.03"/>
</g>
<!-- Node4 -->
<g id="node4" class="node">
<title>Node4</title>
<g id="a_node4"><a xlink:href="adaptive__temporal__kalman__filter_8h.html" target="_top" xlink:title=" ">
<polygon fill="white" stroke="black" points="200.5,-134.5 200.5,-175.5 353.5,-175.5 353.5,-134.5 200.5,-134.5"/>
<text text-anchor="start" x="208.5" y="-163.5" font-family="Helvetica,sans-Serif" font-size="10.00">include/depz/processing</text>
<text text-anchor="start" x="208.5" y="-152.5" font-family="Helvetica,sans-Serif" font-size="10.00">/adaptive_temporal_kalman</text>
<text text-anchor="middle" x="277" y="-141.5" font-family="Helvetica,sans-Serif" font-size="10.00">_filter.h</text>
</a>
</g>
</g>
<!-- Node1&#45;&gt;Node4 -->
<g id="edge4" class="edge">
<title>Node1&#45;&gt;Node4</title>
<path fill="none" stroke="midnightblue" d="M240.93,-203.98C247.8,-194.85 255.65,-184.4 262.27,-175.59"/>
<polygon fill="midnightblue" stroke="midnightblue" points="237.94,-202.14 234.73,-212.23 243.53,-206.34 237.94,-202.14"/>
</g>
<!-- Node7 -->
<g id="node7" class="node">
<title>Node7</title>
<g id="a_node7"><a xlink:href="adaptivetemporalfilterv2_8h.html" target="_top" xlink:title=" ">
<polygon fill="white" stroke="black" points="372,-140 372,-170 522,-170 522,-140 372,-140"/>
<text text-anchor="start" x="380" y="-158" font-family="Helvetica,sans-Serif" font-size="10.00">include/depz/processing</text>
<text text-anchor="middle" x="447" y="-147" font-family="Helvetica,sans-Serif" font-size="10.00">/adaptivetemporalfilterv2.h</text>
</a>
</g>
</g>
<!-- Node1&#45;&gt;Node7 -->
<g id="edge8" class="edge">
<title>Node1&#45;&gt;Node7</title>
<path fill="none" stroke="midnightblue" d="M278.22,-209.36C316.3,-197.32 366.62,-181.41 402.38,-170.11"/>
<polygon fill="midnightblue" stroke="midnightblue" points="276.8,-206.14 268.32,-212.49 278.91,-212.81 276.8,-206.14"/>
</g>
<!-- Node2&#45;&gt;Node3 -->
<g id="edge2" class="edge">
<title>Node2&#45;&gt;Node3</title>
<path fill="none" stroke="midnightblue" d="M95.52,-133.01C110.7,-119.46 129.67,-102.53 141.03,-92.39"/>
<polygon fill="midnightblue" stroke="midnightblue" points="93.12,-130.46 87.99,-139.73 97.78,-135.69 93.12,-130.46"/>
</g>
<!-- Node4&#45;&gt;Node3 -->
<g id="edge7" class="edge">
<title>Node4&#45;&gt;Node3</title>
<path fill="none" stroke="midnightblue" d="M232.93,-129.34C209.84,-116.42 182.99,-101.4 166.5,-92.17"/>
<polygon fill="midnightblue" stroke="midnightblue" points="231.47,-132.53 241.9,-134.36 234.88,-126.42 231.47,-132.53"/>
</g>
<!-- Node5 -->
<g id="node5" class="node">
<title>Node5</title>
<g id="a_node5"><a xlink:href="filter__chain_8h.html" target="_top" xlink:title=" ">
<polygon fill="white" stroke="black" points="226,-67.5 226,-97.5 370,-97.5 370,-67.5 226,-67.5"/>
<text text-anchor="start" x="234" y="-85.5" font-family="Helvetica,sans-Serif" font-size="10.00">include/depz/core/pipeline</text>
<text text-anchor="middle" x="298" y="-74.5" font-family="Helvetica,sans-Serif" font-size="10.00">/filter_chain.h</text>
</a>
</g>
</g>
<!-- Node4&#45;&gt;Node5 -->
<g id="edge5" class="edge">
<title>Node4&#45;&gt;Node5</title>
<path fill="none" stroke="midnightblue" d="M285.74,-124.67C288.49,-115.42 291.41,-105.61 293.71,-97.89"/>
<polygon fill="midnightblue" stroke="midnightblue" points="282.35,-123.78 282.85,-134.36 289.06,-125.78 282.35,-123.78"/>
</g>
<!-- Node6 -->
<g id="node6" class="node">
<title>Node6</title>
<g id="a_node6"><a xlink:href="depth__pipeline_8h.html" target="_top" xlink:title=" ">
<polygon fill="white" stroke="black" points="226,-0.5 226,-30.5 370,-30.5 370,-0.5 226,-0.5"/>
<text text-anchor="start" x="234" y="-18.5" font-family="Helvetica,sans-Serif" font-size="10.00">include/depz/core/pipeline</text>
<text text-anchor="middle" x="298" y="-7.5" font-family="Helvetica,sans-Serif" font-size="10.00">/depth_pipeline.h</text>
</a>
</g>
</g>
<!-- Node5&#45;&gt;Node6 -->
<g id="edge6" class="edge">
<title>Node5&#45;&gt;Node6</title>
<path fill="none" stroke="midnightblue" d="M298,-57.11C298,-48.15 298,-38.32 298,-30.58"/>
<polygon fill="midnightblue" stroke="midnightblue" points="294.5,-57.4 298,-67.4 301.5,-57.4 294.5,-57.4"/>
</g>
</g>
</svg>
