<?xml version="1.0" encoding="UTF-8" standalone="no"?>
<!DOCTYPE svg PUBLIC "-//W3C//DTD SVG 1.1//EN"
 "http://www.w3.org/Graphics/SVG/1.1/DTD/svg11.dtd">
<!-- Generated by graphviz version 2.43.0 (0)
 -->
<!-- Title: include/depz/core/pipeline/idepth_calibration.h Pages: 1 -->
<svg width="703pt" height="430pt"
 viewBox="0.00 0.00 702.50 430.00" xmlns="http://www.w3.org/2000/svg" xmlns:xlink="http://www.w3.org/1999/xlink">
<g id="graph0" class="graph" transform="scale(1 1) rotate(0) translate(4 426)">
<title>include/depz/core/pipeline/idepth_calibration.h</title>
<polygon fill="white" stroke="transparent" points="-4,4 -4,-426 698.5,-426 698.5,4 -4,4"/>
<!-- Node1 -->
<g id="node1" class="node">
<title>Node1</title>
<g id="a_node1"><a xlink:title="Calibration interface the DepthPipeline worker loop depends on.">
<polygon fill="#bfbfbf" stroke="black" points="448.5,-391.5 448.5,-421.5 592.5,-421.5 592.5,-391.5 448.5,-391.5"/>
<text text-anchor="start" x="456.5" y="-409.5" font-family="Helvetica,sans-Serif" font-size="10.00">include/depz/core/pipeline</text>
<text text-anchor="middle" x="520.5" y="-398.5" font-family="Helvetica,sans-Serif" font-size="10.00">/idepth_calibration.h</text>
</a>
</g>
</g>
<!-- Node2 -->
<g id="node2" class="node">
<title>Node2</title>
<g id="a_node2"><a xlink:href="ineural__inference_8h.html" target="_top" xlink:title="Architecture&#45;agnostic orchestration interface for neural depth networks.">
<polygon fill="white" stroke="black" points="379,-257.5 379,-287.5 492,-287.5 492,-257.5 379,-257.5"/>
<text text-anchor="start" x="387" y="-275.5" font-family="Helvetica,sans-Serif" font-size="10.00">depz/core/inference</text>
<text text-anchor="middle" x="435.5" y="-264.5" font-family="Helvetica,sans-Serif" font-size="10.00">/ineural_inference.h</text>
</a>
</g>
</g>
<!-- Node1&#45;&gt;Node2 -->
<g id="edge1" class="edge">
<title>Node1&#45;&gt;Node2</title>
<path fill="none" stroke="midnightblue" d="M511.4,-391.37C496.7,-368.55 467.61,-323.36 450.02,-296.04"/>
<polygon fill="midnightblue" stroke="midnightblue" points="452.89,-294.04 444.53,-287.52 447,-297.83 452.89,-294.04"/>
</g>
<!-- Node16 -->
<g id="node13" class="node">
<title>Node16</title>
<g id="a_node13"><a xlink:title=" ">
<polygon fill="white" stroke="#bfbfbf" points="515,-196 515,-215 618,-215 618,-196 515,-196"/>
<text text-anchor="middle" x="566.5" y="-203" font-family="Helvetica,sans-Serif" font-size="10.00">opencv2/core.hpp</text>
</a>
</g>
</g>
<!-- Node1&#45;&gt;Node16 -->
<g id="edge27" class="edge">
<title>Node1&#45;&gt;Node16</title>
<path fill="none" stroke="midnightblue" d="M523.81,-391.19C531.96,-355.91 553.03,-264.78 562.17,-225.25"/>
<polygon fill="midnightblue" stroke="midnightblue" points="565.61,-225.89 564.45,-215.36 558.79,-224.31 565.61,-225.89"/>
</g>
<!-- Node18 -->
<g id="node15" class="node">
<title>Node18</title>
<g id="a_node15"><a xlink:href="frame__processor_8h.html" target="_top" xlink:title="Single&#45;call per&#45;frame postprocess chain (disparity→depth→cloud).">
<polygon fill="white" stroke="black" points="548.5,-324.5 548.5,-354.5 658.5,-354.5 658.5,-324.5 548.5,-324.5"/>
<text text-anchor="start" x="556.5" y="-342.5" font-family="Helvetica,sans-Serif" font-size="10.00">depz/core/pipeline</text>
<text text-anchor="middle" x="603.5" y="-331.5" font-family="Helvetica,sans-Serif" font-size="10.00">/frame_processor.h</text>
</a>
</g>
</g>
<!-- Node1&#45;&gt;Node18 -->
<g id="edge23" class="edge">
<title>Node1&#45;&gt;Node18</title>
<path fill="none" stroke="midnightblue" d="M538.51,-391.4C549.93,-382.45 564.89,-370.74 577.58,-360.8"/>
<polygon fill="midnightblue" stroke="midnightblue" points="579.81,-363.5 585.53,-354.58 575.49,-357.99 579.81,-363.5"/>
</g>
<!-- Node3 -->
<g id="node3" class="node">
<title>Node3</title>
<g id="a_node3"><a xlink:href="icontrol__owner_8h.html" target="_top" xlink:title=" ">
<polygon fill="white" stroke="black" points="146.5,-190.5 146.5,-220.5 268.5,-220.5 268.5,-190.5 146.5,-190.5"/>
<text text-anchor="start" x="154.5" y="-208.5" font-family="Helvetica,sans-Serif" font-size="10.00">depz/controls/icontrol</text>
<text text-anchor="middle" x="207.5" y="-197.5" font-family="Helvetica,sans-Serif" font-size="10.00">_owner.h</text>
</a>
</g>
</g>
<!-- Node2&#45;&gt;Node3 -->
<g id="edge2" class="edge">
<title>Node2&#45;&gt;Node3</title>
<path fill="none" stroke="midnightblue" d="M386.31,-257.48C351.22,-247.47 303.86,-233.97 266.7,-223.38"/>
<polygon fill="midnightblue" stroke="midnightblue" points="267.57,-219.99 257,-220.61 265.65,-226.72 267.57,-219.99"/>
</g>
<!-- Node9 -->
<g id="node8" class="node">
<title>Node9</title>
<g id="a_node8"><a xlink:title=" ">
<polygon fill="white" stroke="#bfbfbf" points="336.5,-0.5 336.5,-19.5 380.5,-19.5 380.5,-0.5 336.5,-0.5"/>
<text text-anchor="middle" x="358.5" y="-7.5" font-family="Helvetica,sans-Serif" font-size="10.00">string</text>
</a>
</g>
</g>
<!-- Node2&#45;&gt;Node9 -->
<g id="edge20" class="edge">
<title>Node2&#45;&gt;Node9</title>
<path fill="none" stroke="midnightblue" d="M446.63,-257.19C465.5,-231.21 500.77,-174.22 490.5,-123 484.15,-91.36 485.18,-78.96 462.5,-56 442.96,-36.21 413.29,-24.56 390.64,-18.09"/>
<polygon fill="midnightblue" stroke="midnightblue" points="391.35,-14.65 380.78,-15.47 389.55,-21.42 391.35,-14.65"/>
</g>
<!-- Node12 -->
<g id="node9" class="node">
<title>Node12</title>
<g id="a_node9"><a xlink:title=" ">
<polygon fill="white" stroke="#bfbfbf" points="0,-62 0,-81 45,-81 45,-62 0,-62"/>
<text text-anchor="middle" x="22.5" y="-69" font-family="Helvetica,sans-Serif" font-size="10.00">utility</text>
</a>
</g>
</g>
<!-- Node2&#45;&gt;Node12 -->
<g id="edge21" class="edge">
<title>Node2&#45;&gt;Node12</title>
<path fill="none" stroke="midnightblue" d="M378.95,-266.82C304.19,-259.82 177.29,-244.82 137.5,-221 84.21,-189.1 46.56,-122.47 30.77,-90.44"/>
<polygon fill="midnightblue" stroke="midnightblue" points="33.74,-88.52 26.27,-81.01 27.42,-91.54 33.74,-88.52"/>
</g>
<!-- Node13 -->
<g id="node10" class="node">
<title>Node13</title>
<g id="a_node10"><a xlink:title=" ">
<polygon fill="white" stroke="#bfbfbf" points="280,-62 280,-81 327,-81 327,-62 280,-62"/>
<text text-anchor="middle" x="303.5" y="-69" font-family="Helvetica,sans-Serif" font-size="10.00">vector</text>
</a>
</g>
</g>
<!-- Node2&#45;&gt;Node13 -->
<g id="edge22" class="edge">
<title>Node2&#45;&gt;Node13</title>
<path fill="none" stroke="midnightblue" d="M414.02,-257.31C386.23,-237.68 338.66,-199.47 315.5,-154 305.48,-134.33 303.18,-108.74 302.93,-91.53"/>
<polygon fill="midnightblue" stroke="midnightblue" points="306.44,-91.16 303.02,-81.13 299.44,-91.1 306.44,-91.16"/>
</g>
<!-- Node14 -->
<g id="node11" class="node">
<title>Node14</title>
<g id="a_node11"><a xlink:href="iinference__engine_8h.html" target="_top" xlink:title="Backend&#45;agnostic ML inference engine interface (Adapter pattern).">
<polygon fill="white" stroke="black" points="325,-123.5 325,-153.5 482,-153.5 482,-123.5 325,-123.5"/>
<text text-anchor="start" x="333" y="-141.5" font-family="Helvetica,sans-Serif" font-size="10.00">depz/core/engines/iinference</text>
<text text-anchor="middle" x="403.5" y="-130.5" font-family="Helvetica,sans-Serif" font-size="10.00">_engine.h</text>
</a>
</g>
</g>
<!-- Node2&#45;&gt;Node14 -->
<g id="edge13" class="edge">
<title>Node2&#45;&gt;Node14</title>
<path fill="none" stroke="midnightblue" d="M432.08,-257.37C426.64,-234.94 415.97,-190.92 409.31,-163.49"/>
<polygon fill="midnightblue" stroke="midnightblue" points="412.66,-162.42 406.9,-153.52 405.85,-164.07 412.66,-162.42"/>
</g>
<!-- Node2&#45;&gt;Node16 -->
<g id="edge18" class="edge">
<title>Node2&#45;&gt;Node16</title>
<path fill="none" stroke="midnightblue" d="M463.93,-257.4C486.61,-246.14 518.13,-230.5 540.22,-219.54"/>
<polygon fill="midnightblue" stroke="midnightblue" points="541.95,-222.59 549.36,-215.01 538.84,-216.32 541.95,-222.59"/>
</g>
<!-- Node17 -->
<g id="node14" class="node">
<title>Node17</title>
<g id="a_node14"><a xlink:title=" ">
<polygon fill="white" stroke="#bfbfbf" points="636.5,-196 636.5,-215 694.5,-215 694.5,-196 636.5,-196"/>
<text text-anchor="middle" x="665.5" y="-203" font-family="Helvetica,sans-Serif" font-size="10.00">memory</text>
</a>
</g>
</g>
<!-- Node2&#45;&gt;Node17 -->
<g id="edge19" class="edge">
<title>Node2&#45;&gt;Node17</title>
<path fill="none" stroke="midnightblue" d="M492.25,-258.27C530.72,-248.89 582.54,-235.44 627.5,-221 629.91,-220.23 632.39,-219.38 634.88,-218.51"/>
<polygon fill="midnightblue" stroke="midnightblue" points="636.16,-221.77 644.34,-215.04 633.75,-215.19 636.16,-221.77"/>
</g>
<!-- Node4 -->
<g id="node4" class="node">
<title>Node4</title>
<g id="a_node4"><a xlink:href="param__spec_8h.html" target="_top" xlink:title=" ">
<polygon fill="white" stroke="black" points="95,-129 95,-148 230,-148 230,-129 95,-129"/>
<text text-anchor="middle" x="162.5" y="-136" font-family="Helvetica,sans-Serif" font-size="10.00">depz/core/param_spec.h</text>
</a>
</g>
</g>
<!-- Node3&#45;&gt;Node4 -->
<g id="edge3" class="edge">
<title>Node3&#45;&gt;Node4</title>
<path fill="none" stroke="midnightblue" d="M197.74,-190.4C190.86,-180.46 181.61,-167.11 174.32,-156.57"/>
<polygon fill="midnightblue" stroke="midnightblue" points="177.09,-154.42 168.52,-148.19 171.33,-158.41 177.09,-154.42"/>
</g>
<!-- Node3&#45;&gt;Node13 -->
<g id="edge12" class="edge">
<title>Node3&#45;&gt;Node13</title>
<path fill="none" stroke="midnightblue" d="M217.77,-190.37C235.6,-165.86 272.18,-115.56 291.28,-89.3"/>
<polygon fill="midnightblue" stroke="midnightblue" points="294.2,-91.24 297.25,-81.1 288.54,-87.13 294.2,-91.24"/>
</g>
<!-- Node5 -->
<g id="node5" class="node">
<title>Node5</title>
<g id="a_node5"><a xlink:href="iparameter__store_8h.html" target="_top" xlink:title="Type&#45;erased key/value parameter store interface.">
<polygon fill="white" stroke="red" points="102,-56.5 102,-86.5 223,-86.5 223,-56.5 102,-56.5"/>
<text text-anchor="start" x="110" y="-74.5" font-family="Helvetica,sans-Serif" font-size="10.00">depz/core/iparameter</text>
<text text-anchor="middle" x="162.5" y="-63.5" font-family="Helvetica,sans-Serif" font-size="10.00">_store.h</text>
</a>
</g>
</g>
<!-- Node4&#45;&gt;Node5 -->
<g id="edge4" class="edge">
<title>Node4&#45;&gt;Node5</title>
<path fill="none" stroke="midnightblue" d="M162.5,-128.73C162.5,-120.54 162.5,-107.92 162.5,-96.71"/>
<polygon fill="midnightblue" stroke="midnightblue" points="166,-96.59 162.5,-86.59 159,-96.59 166,-96.59"/>
</g>
<!-- Node8 -->
<g id="node7" class="node">
<title>Node8</title>
<g id="a_node7"><a xlink:title=" ">
<polygon fill="white" stroke="#bfbfbf" points="66.5,-0.5 66.5,-19.5 122.5,-19.5 122.5,-0.5 66.5,-0.5"/>
<text text-anchor="middle" x="94.5" y="-7.5" font-family="Helvetica,sans-Serif" font-size="10.00">optional</text>
</a>
</g>
</g>
<!-- Node4&#45;&gt;Node8 -->
<g id="edge8" class="edge">
<title>Node4&#45;&gt;Node8</title>
<path fill="none" stroke="midnightblue" d="M141.7,-128.99C125.01,-120.91 102.74,-107.01 92.5,-87 83.32,-69.05 85.8,-45.46 89.3,-29.36"/>
<polygon fill="midnightblue" stroke="midnightblue" points="92.72,-30.11 91.76,-19.56 85.93,-28.41 92.72,-30.11"/>
</g>
<!-- Node4&#45;&gt;Node9 -->
<g id="edge9" class="edge">
<title>Node4&#45;&gt;Node9</title>
<path fill="none" stroke="midnightblue" d="M174.57,-128.89C188.43,-118.95 211.79,-102.04 231.5,-87 249.1,-73.57 251.88,-67.99 270.5,-56 289.49,-43.77 312.21,-32.22 329.82,-23.88"/>
<polygon fill="midnightblue" stroke="midnightblue" points="331.42,-27 339.01,-19.6 328.47,-20.65 331.42,-27"/>
</g>
<!-- Node4&#45;&gt;Node12 -->
<g id="edge10" class="edge">
<title>Node4&#45;&gt;Node12</title>
<path fill="none" stroke="midnightblue" d="M143.91,-128.87C119.96,-117.75 78.11,-98.32 50.35,-85.43"/>
<polygon fill="midnightblue" stroke="midnightblue" points="51.71,-82.2 41.17,-81.17 48.76,-88.55 51.71,-82.2"/>
</g>
<!-- Node4&#45;&gt;Node13 -->
<g id="edge11" class="edge">
<title>Node4&#45;&gt;Node13</title>
<path fill="none" stroke="midnightblue" d="M181.22,-128.87C205.35,-117.75 247.5,-98.32 275.45,-85.43"/>
<polygon fill="midnightblue" stroke="midnightblue" points="277.08,-88.53 284.7,-81.17 274.15,-82.18 277.08,-88.53"/>
</g>
<!-- Node7 -->
<g id="node6" class="node">
<title>Node7</title>
<g id="a_node6"><a xlink:title=" ">
<polygon fill="white" stroke="#bfbfbf" points="149.5,-0.5 149.5,-19.5 199.5,-19.5 199.5,-0.5 149.5,-0.5"/>
<text text-anchor="middle" x="174.5" y="-7.5" font-family="Helvetica,sans-Serif" font-size="10.00">cstdint</text>
</a>
</g>
</g>
<!-- Node5&#45;&gt;Node7 -->
<g id="edge5" class="edge">
<title>Node5&#45;&gt;Node7</title>
<path fill="none" stroke="midnightblue" d="M165.34,-56.4C166.96,-48.38 169.01,-38.23 170.75,-29.57"/>
<polygon fill="midnightblue" stroke="midnightblue" points="174.21,-30.15 172.75,-19.66 167.35,-28.77 174.21,-30.15"/>
</g>
<!-- Node5&#45;&gt;Node8 -->
<g id="edge6" class="edge">
<title>Node5&#45;&gt;Node8</title>
<path fill="none" stroke="midnightblue" d="M146.38,-56.4C136.1,-47.4 122.75,-35.72 112.17,-26.47"/>
<polygon fill="midnightblue" stroke="midnightblue" points="114.23,-23.61 104.39,-19.66 109.62,-28.88 114.23,-23.61"/>
</g>
<!-- Node5&#45;&gt;Node9 -->
<g id="edge7" class="edge">
<title>Node5&#45;&gt;Node9</title>
<path fill="none" stroke="midnightblue" d="M208.95,-56.4C245.21,-45.39 294.64,-30.39 326.56,-20.7"/>
<polygon fill="midnightblue" stroke="midnightblue" points="327.72,-24 336.27,-17.75 325.69,-17.3 327.72,-24"/>
</g>
<!-- Node14&#45;&gt;Node7 -->
<g id="edge15" class="edge">
<title>Node14&#45;&gt;Node7</title>
<path fill="none" stroke="midnightblue" d="M395.52,-123.44C384.41,-105.17 362.58,-73.51 335.5,-56 296.74,-30.94 244,-19.65 209.61,-14.69"/>
<polygon fill="midnightblue" stroke="midnightblue" points="209.94,-11.2 199.56,-13.35 209.01,-18.14 209.94,-11.2"/>
</g>
<!-- Node14&#45;&gt;Node9 -->
<g id="edge16" class="edge">
<title>Node14&#45;&gt;Node9</title>
<path fill="none" stroke="midnightblue" d="M419.91,-123.33C436.97,-106.8 459.4,-78.84 445.5,-56 433.6,-36.46 410.18,-25.02 390.63,-18.58"/>
<polygon fill="midnightblue" stroke="midnightblue" points="391.43,-15.16 380.85,-15.64 389.42,-21.87 391.43,-15.16"/>
</g>
<!-- Node14&#45;&gt;Node13 -->
<g id="edge17" class="edge">
<title>Node14&#45;&gt;Node13</title>
<path fill="none" stroke="midnightblue" d="M381.8,-123.4C365.03,-112.5 341.93,-97.48 325.17,-86.58"/>
<polygon fill="midnightblue" stroke="midnightblue" points="326.88,-83.52 316.59,-81.01 323.06,-89.39 326.88,-83.52"/>
</g>
<!-- Node15 -->
<g id="node12" class="node">
<title>Node15</title>
<g id="a_node12"><a xlink:title=" ">
<polygon fill="white" stroke="#bfbfbf" points="384,-62 384,-81 437,-81 437,-62 384,-62"/>
<text text-anchor="middle" x="410.5" y="-69" font-family="Helvetica,sans-Serif" font-size="10.00">cstddef</text>
</a>
</g>
</g>
<!-- Node14&#45;&gt;Node15 -->
<g id="edge14" class="edge">
<title>Node14&#45;&gt;Node15</title>
<path fill="none" stroke="midnightblue" d="M405.02,-123.4C406.03,-113.96 407.38,-101.45 408.49,-91.19"/>
<polygon fill="midnightblue" stroke="midnightblue" points="411.97,-91.51 409.56,-81.19 405.01,-90.76 411.97,-91.51"/>
</g>
<!-- Node18&#45;&gt;Node2 -->
<g id="edge24" class="edge">
<title>Node18&#45;&gt;Node2</title>
<path fill="none" stroke="midnightblue" d="M567.05,-324.4C541.95,-314.69 508.41,-301.71 481.48,-291.29"/>
<polygon fill="midnightblue" stroke="midnightblue" points="482.47,-287.92 471.88,-287.58 479.95,-294.45 482.47,-287.92"/>
</g>
<!-- Node18&#45;&gt;Node16 -->
<g id="edge25" class="edge">
<title>Node18&#45;&gt;Node16</title>
<path fill="none" stroke="midnightblue" d="M599.54,-324.37C592.82,-300.4 579.18,-251.75 571.7,-225.06"/>
<polygon fill="midnightblue" stroke="midnightblue" points="574.98,-223.78 568.91,-215.1 568.24,-225.67 574.98,-223.78"/>
</g>
<!-- Node18&#45;&gt;Node17 -->
<g id="edge26" class="edge">
<title>Node18&#45;&gt;Node17</title>
<path fill="none" stroke="midnightblue" d="M610.14,-324.37C621.5,-300.18 644.66,-250.88 657.12,-224.35"/>
<polygon fill="midnightblue" stroke="midnightblue" points="660.38,-225.64 661.46,-215.1 654.04,-222.66 660.38,-225.64"/>
</g>
</g>
</svg>
