<?xml version="1.0" encoding="UTF-8" standalone="no"?>
<!DOCTYPE svg PUBLIC "-//W3C//DTD SVG 1.1//EN"
 "http://www.w3.org/Graphics/SVG/1.1/DTD/svg11.dtd">
<!-- Generated by graphviz version 2.43.0 (0)
 -->
<!-- Title: include/depz/core/filters/ifilter.h Pages: 1 -->
<svg width="609pt" height="285pt"
 viewBox="0.00 0.00 608.50 285.00" xmlns="http://www.w3.org/2000/svg" xmlns:xlink="http://www.w3.org/1999/xlink">
<g id="graph0" class="graph" transform="scale(1 1) rotate(0) translate(4 281)">
<title>include/depz/core/filters/ifilter.h</title>
<polygon fill="white" stroke="transparent" points="-4,4 -4,-281 604.5,-281 604.5,4 -4,4"/>
<!-- Node1 -->
<g id="node1" class="node">
<title>Node1</title>
<g id="a_node1"><a xlink:title=" ">
<polygon fill="#bfbfbf" stroke="black" points="416.5,-246.5 416.5,-276.5 549.5,-276.5 549.5,-246.5 416.5,-246.5"/>
<text text-anchor="start" x="424.5" y="-264.5" font-family="Helvetica,sans-Serif" font-size="10.00">include/depz/core/filters</text>
<text text-anchor="middle" x="483" y="-253.5" font-family="Helvetica,sans-Serif" font-size="10.00">/ifilter.h</text>
</a>
</g>
</g>
<!-- Node2 -->
<g id="node2" class="node">
<title>Node2</title>
<g id="a_node2"><a xlink:href="icontrol__owner_8h.html" target="_top" xlink:title=" ">
<polygon fill="white" stroke="black" points="357,-179.5 357,-209.5 479,-209.5 479,-179.5 357,-179.5"/>
<text text-anchor="start" x="365" y="-197.5" font-family="Helvetica,sans-Serif" font-size="10.00">depz/controls/icontrol</text>
<text text-anchor="middle" x="418" y="-186.5" font-family="Helvetica,sans-Serif" font-size="10.00">_owner.h</text>
</a>
</g>
</g>
<!-- Node1&#45;&gt;Node2 -->
<g id="edge1" class="edge">
<title>Node1&#45;&gt;Node2</title>
<path fill="none" stroke="midnightblue" d="M468.9,-246.4C460.21,-237.71 448.9,-226.4 439.16,-216.66"/>
<polygon fill="midnightblue" stroke="midnightblue" points="441.62,-214.17 432.08,-209.58 436.67,-219.12 441.62,-214.17"/>
</g>
<!-- Node13 -->
<g id="node13" class="node">
<title>Node13</title>
<g id="a_node13"><a xlink:title=" ">
<polygon fill="white" stroke="#bfbfbf" points="497.5,-185 497.5,-204 600.5,-204 600.5,-185 497.5,-185"/>
<text text-anchor="middle" x="549" y="-192" font-family="Helvetica,sans-Serif" font-size="10.00">opencv2/core.hpp</text>
</a>
</g>
</g>
<!-- Node1&#45;&gt;Node13 -->
<g id="edge15" class="edge">
<title>Node1&#45;&gt;Node13</title>
<path fill="none" stroke="midnightblue" d="M497.32,-246.4C507.82,-236.06 522.07,-222.02 532.95,-211.31"/>
<polygon fill="midnightblue" stroke="midnightblue" points="535.5,-213.71 540.17,-204.19 530.59,-208.72 535.5,-213.71"/>
</g>
<!-- Node3 -->
<g id="node3" class="node">
<title>Node3</title>
<g id="a_node3"><a xlink:href="param__spec_8h.html" target="_top" xlink:title=" ">
<polygon fill="white" stroke="black" points="302.5,-123.5 302.5,-142.5 437.5,-142.5 437.5,-123.5 302.5,-123.5"/>
<text text-anchor="middle" x="370" y="-130.5" font-family="Helvetica,sans-Serif" font-size="10.00">depz/core/param_spec.h</text>
</a>
</g>
</g>
<!-- Node2&#45;&gt;Node3 -->
<g id="edge2" class="edge">
<title>Node2&#45;&gt;Node3</title>
<path fill="none" stroke="midnightblue" d="M406.62,-179.4C399.65,-170.75 390.69,-159.64 383.37,-150.58"/>
<polygon fill="midnightblue" stroke="midnightblue" points="385.99,-148.24 376.98,-142.66 380.54,-152.64 385.99,-148.24"/>
</g>
<!-- Node12 -->
<g id="node12" class="node">
<title>Node12</title>
<g id="a_node12"><a xlink:title=" ">
<polygon fill="white" stroke="#bfbfbf" points="452.5,-62 452.5,-81 499.5,-81 499.5,-62 452.5,-62"/>
<text text-anchor="middle" x="476" y="-69" font-family="Helvetica,sans-Serif" font-size="10.00">vector</text>
</a>
</g>
</g>
<!-- Node2&#45;&gt;Node12 -->
<g id="edge14" class="edge">
<title>Node2&#45;&gt;Node12</title>
<path fill="none" stroke="midnightblue" d="M426.49,-179.13C432.27,-169.13 439.93,-155.43 446,-143 454.47,-125.67 462.97,-105.34 468.75,-90.98"/>
<polygon fill="midnightblue" stroke="midnightblue" points="472.15,-91.9 472.59,-81.31 465.65,-89.31 472.15,-91.9"/>
</g>
<!-- Node4 -->
<g id="node4" class="node">
<title>Node4</title>
<g id="a_node4"><a xlink:href="iparameter__store_8h.html" target="_top" xlink:title="Type&#45;erased key/value parameter store interface.">
<polygon fill="white" stroke="black" points="211.5,-56.5 211.5,-86.5 332.5,-86.5 332.5,-56.5 211.5,-56.5"/>
<text text-anchor="start" x="219.5" y="-74.5" font-family="Helvetica,sans-Serif" font-size="10.00">depz/core/iparameter</text>
<text text-anchor="middle" x="272" y="-63.5" font-family="Helvetica,sans-Serif" font-size="10.00">_store.h</text>
</a>
</g>
</g>
<!-- Node3&#45;&gt;Node4 -->
<g id="edge3" class="edge">
<title>Node3&#45;&gt;Node4</title>
<path fill="none" stroke="midnightblue" d="M355.96,-123.48C342.44,-115.27 321.51,-102.56 303.93,-91.88"/>
<polygon fill="midnightblue" stroke="midnightblue" points="305.46,-88.72 295.1,-86.52 301.83,-94.7 305.46,-88.72"/>
</g>
<!-- Node7 -->
<g id="node7" class="node">
<title>Node7</title>
<g id="a_node7"><a xlink:title=" ">
<polygon fill="white" stroke="#bfbfbf" points="0,-0.5 0,-19.5 56,-19.5 56,-0.5 0,-0.5"/>
<text text-anchor="middle" x="28" y="-7.5" font-family="Helvetica,sans-Serif" font-size="10.00">optional</text>
</a>
</g>
</g>
<!-- Node3&#45;&gt;Node7 -->
<g id="edge10" class="edge">
<title>Node3&#45;&gt;Node7</title>
<path fill="none" stroke="midnightblue" d="M331.47,-123.42C297.1,-115.36 245.6,-102.27 202,-87 148.48,-68.26 88.32,-40.39 54.61,-24.12"/>
<polygon fill="midnightblue" stroke="midnightblue" points="55.96,-20.88 45.43,-19.66 52.9,-27.18 55.96,-20.88"/>
</g>
<!-- Node8 -->
<g id="node8" class="node">
<title>Node8</title>
<g id="a_node8"><a xlink:title=" ">
<polygon fill="white" stroke="#bfbfbf" points="433,-0.5 433,-19.5 477,-19.5 477,-0.5 433,-0.5"/>
<text text-anchor="middle" x="455" y="-7.5" font-family="Helvetica,sans-Serif" font-size="10.00">string</text>
</a>
</g>
</g>
<!-- Node3&#45;&gt;Node8 -->
<g id="edge11" class="edge">
<title>Node3&#45;&gt;Node8</title>
<path fill="none" stroke="midnightblue" d="M368.84,-123.19C367.32,-108.1 366.28,-76.92 380,-56 390.21,-40.44 407.83,-29.46 423.43,-22.25"/>
<polygon fill="midnightblue" stroke="midnightblue" points="424.99,-25.39 432.8,-18.24 422.23,-18.96 424.99,-25.39"/>
</g>
<!-- Node11 -->
<g id="node11" class="node">
<title>Node11</title>
<g id="a_node11"><a xlink:title=" ">
<polygon fill="white" stroke="#bfbfbf" points="389.5,-62 389.5,-81 434.5,-81 434.5,-62 389.5,-62"/>
<text text-anchor="middle" x="412" y="-69" font-family="Helvetica,sans-Serif" font-size="10.00">utility</text>
</a>
</g>
</g>
<!-- Node3&#45;&gt;Node11 -->
<g id="edge12" class="edge">
<title>Node3&#45;&gt;Node11</title>
<path fill="none" stroke="midnightblue" d="M376.02,-123.48C382.26,-114.64 392.17,-100.59 400.02,-89.48"/>
<polygon fill="midnightblue" stroke="midnightblue" points="403.09,-91.2 405.99,-81.01 397.37,-87.16 403.09,-91.2"/>
</g>
<!-- Node3&#45;&gt;Node12 -->
<g id="edge13" class="edge">
<title>Node3&#45;&gt;Node12</title>
<path fill="none" stroke="midnightblue" d="M385.19,-123.48C402.66,-113.67 431.58,-97.43 452.08,-85.92"/>
<polygon fill="midnightblue" stroke="midnightblue" points="453.83,-88.96 460.84,-81.01 450.41,-82.85 453.83,-88.96"/>
</g>
<!-- Node5 -->
<g id="node5" class="node">
<title>Node5</title>
<g id="a_node5"><a xlink:title=" ">
<polygon fill="white" stroke="#bfbfbf" points="74,-0.5 74,-19.5 190,-19.5 190,-0.5 74,-0.5"/>
<text text-anchor="middle" x="132" y="-7.5" font-family="Helvetica,sans-Serif" font-size="10.00">opencv2/opencv.hpp</text>
</a>
</g>
</g>
<!-- Node4&#45;&gt;Node5 -->
<g id="edge4" class="edge">
<title>Node4&#45;&gt;Node5</title>
<path fill="none" stroke="midnightblue" d="M238.82,-56.4C215.44,-46.46 184.39,-33.26 161.79,-23.66"/>
<polygon fill="midnightblue" stroke="midnightblue" points="162.94,-20.35 152.37,-19.66 160.21,-26.79 162.94,-20.35"/>
</g>
<!-- Node6 -->
<g id="node6" class="node">
<title>Node6</title>
<g id="a_node6"><a xlink:title=" ">
<polygon fill="white" stroke="#bfbfbf" points="208,-0.5 208,-19.5 258,-19.5 258,-0.5 208,-0.5"/>
<text text-anchor="middle" x="233" y="-7.5" font-family="Helvetica,sans-Serif" font-size="10.00">cstdint</text>
</a>
</g>
</g>
<!-- Node4&#45;&gt;Node6 -->
<g id="edge5" class="edge">
<title>Node4&#45;&gt;Node6</title>
<path fill="none" stroke="midnightblue" d="M262.76,-56.4C257.21,-47.93 250.11,-37.1 244.23,-28.14"/>
<polygon fill="midnightblue" stroke="midnightblue" points="247.08,-26.1 238.67,-19.66 241.23,-29.94 247.08,-26.1"/>
</g>
<!-- Node4&#45;&gt;Node7 -->
<g id="edge6" class="edge">
<title>Node4&#45;&gt;Node7</title>
<path fill="none" stroke="midnightblue" d="M214.48,-56.47C168.6,-45.29 105.64,-29.93 65.89,-20.24"/>
<polygon fill="midnightblue" stroke="midnightblue" points="66.61,-16.81 56.07,-17.84 64.95,-23.61 66.61,-16.81"/>
</g>
<!-- Node4&#45;&gt;Node8 -->
<g id="edge7" class="edge">
<title>Node4&#45;&gt;Node8</title>
<path fill="none" stroke="midnightblue" d="M315.37,-56.4C348.27,-45.7 392.78,-31.23 422.62,-21.53"/>
<polygon fill="midnightblue" stroke="midnightblue" points="424.09,-24.73 432.52,-18.31 421.93,-18.07 424.09,-24.73"/>
</g>
<!-- Node9 -->
<g id="node9" class="node">
<title>Node9</title>
<g id="a_node9"><a xlink:title=" ">
<polygon fill="white" stroke="#bfbfbf" points="276.5,-0.5 276.5,-19.5 345.5,-19.5 345.5,-0.5 276.5,-0.5"/>
<text text-anchor="middle" x="311" y="-7.5" font-family="Helvetica,sans-Serif" font-size="10.00">type_traits</text>
</a>
</g>
</g>
<!-- Node4&#45;&gt;Node9 -->
<g id="edge8" class="edge">
<title>Node4&#45;&gt;Node9</title>
<path fill="none" stroke="midnightblue" d="M281.24,-56.4C286.79,-47.93 293.89,-37.1 299.77,-28.14"/>
<polygon fill="midnightblue" stroke="midnightblue" points="302.77,-29.94 305.33,-19.66 296.92,-26.1 302.77,-29.94"/>
</g>
<!-- Node10 -->
<g id="node10" class="node">
<title>Node10</title>
<g id="a_node10"><a xlink:title=" ">
<polygon fill="white" stroke="#bfbfbf" points="363.5,-0.5 363.5,-19.5 414.5,-19.5 414.5,-0.5 363.5,-0.5"/>
<text text-anchor="middle" x="389" y="-7.5" font-family="Helvetica,sans-Serif" font-size="10.00">variant</text>
</a>
</g>
</g>
<!-- Node4&#45;&gt;Node10 -->
<g id="edge9" class="edge">
<title>Node4&#45;&gt;Node10</title>
<path fill="none" stroke="midnightblue" d="M299.73,-56.4C318.83,-46.68 344.06,-33.86 362.82,-24.31"/>
<polygon fill="midnightblue" stroke="midnightblue" points="364.65,-27.31 371.98,-19.66 361.48,-21.07 364.65,-27.31"/>
</g>
</g>
</svg>
