<?xml version="1.0" encoding="UTF-8" standalone="no"?>
<!DOCTYPE svg PUBLIC "-//W3C//DTD SVG 1.1//EN"
 "http://www.w3.org/Graphics/SVG/1.1/DTD/svg11.dtd">
<!-- Generated by graphviz version 2.43.0 (0)
 -->
<!-- Title: include/depz/core/pipeline/iframesource.h Pages: 1 -->
<svg width="354pt" height="162pt"
 viewBox="0.00 0.00 354.00 162.00" xmlns="http://www.w3.org/2000/svg" xmlns:xlink="http://www.w3.org/1999/xlink">
<g id="graph0" class="graph" transform="scale(1 1) rotate(0) translate(4 158)">
<title>include/depz/core/pipeline/iframesource.h</title>
<polygon fill="white" stroke="transparent" points="-4,4 -4,-158 350,-158 350,4 -4,4"/>
<!-- Node1 -->
<g id="node1" class="node">
<title>Node1</title>
<g id="a_node1"><a xlink:title=" ">
<polygon fill="#bfbfbf" stroke="black" points="102,-123.5 102,-153.5 246,-153.5 246,-123.5 102,-123.5"/>
<text text-anchor="start" x="110" y="-141.5" font-family="Helvetica,sans-Serif" font-size="10.00">include/depz/core/pipeline</text>
<text text-anchor="middle" x="174" y="-130.5" font-family="Helvetica,sans-Serif" font-size="10.00">/iframesource.h</text>
</a>
</g>
</g>
<!-- Node2 -->
<g id="node2" class="node">
<title>Node2</title>
<g id="a_node2"><a xlink:href="gstreamer__framesource_8h.html" target="_top" xlink:title=" ">
<polygon fill="white" stroke="black" points="0,-56.5 0,-86.5 146,-86.5 146,-56.5 0,-56.5"/>
<text text-anchor="start" x="8" y="-74.5" font-family="Helvetica,sans-Serif" font-size="10.00">include/depz/core/pipeline</text>
<text text-anchor="middle" x="73" y="-63.5" font-family="Helvetica,sans-Serif" font-size="10.00">/gstreamer_framesource.h</text>
</a>
</g>
</g>
<!-- Node1&#45;&gt;Node2 -->
<g id="edge1" class="edge">
<title>Node1&#45;&gt;Node2</title>
<path fill="none" stroke="midnightblue" d="M143.29,-117.73C127.66,-107.68 109.03,-95.68 94.87,-86.58"/>
<polygon fill="midnightblue" stroke="midnightblue" points="141.78,-120.93 152.08,-123.4 145.57,-115.04 141.78,-120.93"/>
</g>
<!-- Node3 -->
<g id="node3" class="node">
<title>Node3</title>
<g id="a_node3"><a xlink:href="depz_8h.html" target="_top" xlink:title="Single umbrella header that pulls in the whole iStereoLab public API.">
<polygon fill="white" stroke="black" points="117.5,-0.5 117.5,-19.5 230.5,-19.5 230.5,-0.5 117.5,-0.5"/>
<text text-anchor="middle" x="174" y="-7.5" font-family="Helvetica,sans-Serif" font-size="10.00">include/depz/depz.h</text>
</a>
</g>
</g>
<!-- Node1&#45;&gt;Node3 -->
<g id="edge5" class="edge">
<title>Node1&#45;&gt;Node3</title>
<path fill="none" stroke="midnightblue" d="M174,-113.14C174,-84.62 174,-38.86 174,-19.79"/>
<polygon fill="midnightblue" stroke="midnightblue" points="170.5,-113.48 174,-123.48 177.5,-113.48 170.5,-113.48"/>
</g>
<!-- Node4 -->
<g id="node4" class="node">
<title>Node4</title>
<g id="a_node4"><a xlink:href="stereo__pipeline_8hpp.html" target="_top" xlink:title=" ">
<polygon fill="white" stroke="black" points="202,-56.5 202,-86.5 346,-86.5 346,-56.5 202,-56.5"/>
<text text-anchor="start" x="210" y="-74.5" font-family="Helvetica,sans-Serif" font-size="10.00">include/depz/core/pipeline</text>
<text text-anchor="middle" x="274" y="-63.5" font-family="Helvetica,sans-Serif" font-size="10.00">/stereo_pipeline.hpp</text>
</a>
</g>
</g>
<!-- Node1&#45;&gt;Node4 -->
<g id="edge3" class="edge">
<title>Node1&#45;&gt;Node4</title>
<path fill="none" stroke="midnightblue" d="M204.41,-117.73C219.88,-107.68 238.33,-95.68 252.34,-86.58"/>
<polygon fill="midnightblue" stroke="midnightblue" points="202.18,-115.01 195.7,-123.4 205.99,-120.88 202.18,-115.01"/>
</g>
<!-- Node2&#45;&gt;Node3 -->
<g id="edge2" class="edge">
<title>Node2&#45;&gt;Node3</title>
<path fill="none" stroke="midnightblue" d="M105.98,-51.07C123.99,-40.46 145.38,-27.86 159.3,-19.66"/>
<polygon fill="midnightblue" stroke="midnightblue" points="103.78,-48.31 96.94,-56.4 107.33,-54.34 103.78,-48.31"/>
</g>
<!-- Node4&#45;&gt;Node3 -->
<g id="edge4" class="edge">
<title>Node4&#45;&gt;Node3</title>
<path fill="none" stroke="midnightblue" d="M241.34,-51.07C223.52,-40.46 202.33,-27.86 188.55,-19.66"/>
<polygon fill="midnightblue" stroke="midnightblue" points="239.92,-54.29 250.3,-56.4 243.5,-48.28 239.92,-54.29"/>
</g>
</g>
</svg>
