<?xml version="1.0" encoding="UTF-8" standalone="no"?>
<!DOCTYPE svg PUBLIC "-//W3C//DTD SVG 1.1//EN"
 "http://www.w3.org/Graphics/SVG/1.1/DTD/svg11.dtd">
<!-- Generated by graphviz version 2.43.0 (0)
 -->
<!-- Title: include/depz/core/sources/iframe_source.h Pages: 1 -->
<svg width="516pt" height="184pt"
 viewBox="0.00 0.00 515.50 184.00" xmlns="http://www.w3.org/2000/svg" xmlns:xlink="http://www.w3.org/1999/xlink">
<g id="graph0" class="graph" transform="scale(1 1) rotate(0) translate(4 180)">
<title>include/depz/core/sources/iframe_source.h</title>
<polygon fill="white" stroke="transparent" points="-4,4 -4,-180 511.5,-180 511.5,4 -4,4"/>
<!-- Node1 -->
<g id="node1" class="node">
<title>Node1</title>
<g id="a_node1"><a xlink:title="Abstract interface for raw frame sources feeding the DepthPipeline.">
<polygon fill="#bfbfbf" stroke="black" points="213.5,-145.5 213.5,-175.5 356.5,-175.5 356.5,-145.5 213.5,-145.5"/>
<text text-anchor="start" x="221.5" y="-163.5" font-family="Helvetica,sans-Serif" font-size="10.00">include/depz/core/sources</text>
<text text-anchor="middle" x="285" y="-152.5" font-family="Helvetica,sans-Serif" font-size="10.00">/iframe_source.h</text>
</a>
</g>
</g>
<!-- Node2 -->
<g id="node2" class="node">
<title>Node2</title>
<g id="a_node2"><a xlink:href="depth__pipeline_8h.html" target="_top" xlink:title=" ">
<polygon fill="white" stroke="black" points="0,-73 0,-103 144,-103 144,-73 0,-73"/>
<text text-anchor="start" x="8" y="-91" font-family="Helvetica,sans-Serif" font-size="10.00">include/depz/core/pipeline</text>
<text text-anchor="middle" x="72" y="-80" font-family="Helvetica,sans-Serif" font-size="10.00">/depth_pipeline.h</text>
</a>
</g>
</g>
<!-- Node1&#45;&gt;Node2 -->
<g id="edge1" class="edge">
<title>Node1&#45;&gt;Node2</title>
<path fill="none" stroke="midnightblue" d="M232.75,-142.2C196.43,-130.18 148.63,-114.36 114.62,-103.11"/>
<polygon fill="midnightblue" stroke="midnightblue" points="232.07,-145.67 242.66,-145.49 234.27,-139.02 232.07,-145.67"/>
</g>
<!-- Node3 -->
<g id="node3" class="node">
<title>Node3</title>
<g id="a_node3"><a xlink:href="imkv__source_8h.html" target="_top" xlink:title="Abstract Matroska/MKV reader — the replay sibling of IMkvRecorder.">
<polygon fill="white" stroke="black" points="162,-73 162,-103 308,-103 308,-73 162,-73"/>
<text text-anchor="start" x="170" y="-91" font-family="Helvetica,sans-Serif" font-size="10.00">include/depz/core/recorder</text>
<text text-anchor="middle" x="235" y="-80" font-family="Helvetica,sans-Serif" font-size="10.00">/imkv_source.h</text>
</a>
</g>
</g>
<!-- Node1&#45;&gt;Node3 -->
<g id="edge2" class="edge">
<title>Node1&#45;&gt;Node3</title>
<path fill="none" stroke="midnightblue" d="M268.96,-136.89C261.13,-125.84 251.94,-112.89 245.1,-103.25"/>
<polygon fill="midnightblue" stroke="midnightblue" points="266.24,-139.1 274.88,-145.23 271.95,-135.05 266.24,-139.1"/>
</g>
<!-- Node5 -->
<g id="node5" class="node">
<title>Node5</title>
<g id="a_node5"><a xlink:href="mkv__frame__source_8h.html" target="_top" xlink:title="A recorded .mkv presented as a seekable FrameSource for replay.">
<polygon fill="white" stroke="black" points="264.5,-0.5 264.5,-30.5 407.5,-30.5 407.5,-0.5 264.5,-0.5"/>
<text text-anchor="start" x="272.5" y="-18.5" font-family="Helvetica,sans-Serif" font-size="10.00">include/depz/core/sources</text>
<text text-anchor="middle" x="336" y="-7.5" font-family="Helvetica,sans-Serif" font-size="10.00">/mkv_frame_source.h</text>
</a>
</g>
</g>
<!-- Node1&#45;&gt;Node5 -->
<g id="edge6" class="edge">
<title>Node1&#45;&gt;Node5</title>
<path fill="none" stroke="midnightblue" d="M301.86,-136.79C307.4,-128.41 313.12,-118.61 317,-109 327.68,-82.55 332.62,-49.32 334.69,-30.75"/>
<polygon fill="midnightblue" stroke="midnightblue" points="298.82,-135.03 296.02,-145.24 304.58,-139 298.82,-135.03"/>
</g>
<!-- Node6 -->
<g id="node6" class="node">
<title>Node6</title>
<g id="a_node6"><a xlink:href="gstreamer__frame__source__adapter_8h.html" target="_top" xlink:title="Adapts the canonical IGStreamerCamera live backend to the FrameSource grab&#45;contract used at the head ...">
<polygon fill="white" stroke="black" points="364.5,-67.5 364.5,-108.5 507.5,-108.5 507.5,-67.5 364.5,-67.5"/>
<text text-anchor="start" x="372.5" y="-96.5" font-family="Helvetica,sans-Serif" font-size="10.00">include/depz/core/sources</text>
<text text-anchor="start" x="372.5" y="-85.5" font-family="Helvetica,sans-Serif" font-size="10.00">/gstreamer_frame_source</text>
<text text-anchor="middle" x="436" y="-74.5" font-family="Helvetica,sans-Serif" font-size="10.00">_adapter.h</text>
</a>
</g>
</g>
<!-- Node1&#45;&gt;Node6 -->
<g id="edge5" class="edge">
<title>Node1&#45;&gt;Node6</title>
<path fill="none" stroke="midnightblue" d="M324.35,-141.13C345.78,-131.12 372.32,-118.73 394.13,-108.55"/>
<polygon fill="midnightblue" stroke="midnightblue" points="322.77,-138 315.19,-145.4 325.74,-144.34 322.77,-138"/>
</g>
<!-- Node4 -->
<g id="node4" class="node">
<title>Node4</title>
<g id="a_node4"><a xlink:href="libav__mkv__source__adapter_8h.html" target="_top" xlink:title="libavformat demuxer behind the IMkvSource interface — the seekable replay head of the worker pipeline...">
<polygon fill="white" stroke="black" points="87.5,-0.5 87.5,-30.5 246.5,-30.5 246.5,-0.5 87.5,-0.5"/>
<text text-anchor="start" x="95.5" y="-18.5" font-family="Helvetica,sans-Serif" font-size="10.00">include/depz/core/recorder</text>
<text text-anchor="middle" x="167" y="-7.5" font-family="Helvetica,sans-Serif" font-size="10.00">/libav_mkv_source_adapter.h</text>
</a>
</g>
</g>
<!-- Node3&#45;&gt;Node4 -->
<g id="edge3" class="edge">
<title>Node3&#45;&gt;Node4</title>
<path fill="none" stroke="midnightblue" d="M214.13,-65.36C203.28,-54.11 190.32,-40.68 180.74,-30.75"/>
<polygon fill="midnightblue" stroke="midnightblue" points="211.78,-67.97 221.24,-72.73 216.82,-63.11 211.78,-67.97"/>
</g>
<!-- Node3&#45;&gt;Node5 -->
<g id="edge4" class="edge">
<title>Node3&#45;&gt;Node5</title>
<path fill="none" stroke="midnightblue" d="M263.75,-66.93C280.43,-55.29 301.01,-40.92 315.94,-30.5"/>
<polygon fill="midnightblue" stroke="midnightblue" points="261.64,-64.14 255.44,-72.73 265.64,-69.88 261.64,-64.14"/>
</g>
</g>
</svg>
