<?xml version="1.0" encoding="UTF-8" standalone="no"?>
<!DOCTYPE svg PUBLIC "-//W3C//DTD SVG 1.1//EN"
 "http://www.w3.org/Graphics/SVG/1.1/DTD/svg11.dtd">
<!-- Generated by graphviz version 2.43.0 (0)
 -->
<!-- Title: include/depz/core/engines/iinference_engine.h Pages: 1 -->
<svg width="849pt" height="307pt"
 viewBox="0.00 0.00 849.00 307.00" xmlns="http://www.w3.org/2000/svg" xmlns:xlink="http://www.w3.org/1999/xlink">
<g id="graph0" class="graph" transform="scale(1 1) rotate(0) translate(4 303)">
<title>include/depz/core/engines/iinference_engine.h</title>
<polygon fill="white" stroke="transparent" points="-4,4 -4,-303 845,-303 845,4 -4,4"/>
<!-- Node1 -->
<g id="node1" class="node">
<title>Node1</title>
<g id="a_node1"><a xlink:title="Backend&#45;agnostic ML inference engine interface (Adapter pattern).">
<polygon fill="#bfbfbf" stroke="black" points="251,-268.5 251,-298.5 394,-298.5 394,-268.5 251,-268.5"/>
<text text-anchor="start" x="259" y="-286.5" font-family="Helvetica,sans-Serif" font-size="10.00">include/depz/core/engines</text>
<text text-anchor="middle" x="322.5" y="-275.5" font-family="Helvetica,sans-Serif" font-size="10.00">/iinference_engine.h</text>
</a>
</g>
</g>
<!-- Node2 -->
<g id="node2" class="node">
<title>Node2</title>
<g id="a_node2"><a xlink:href="onnx__engine__adapter_8h.html" target="_top" xlink:title="ONNX Runtime backend implementing InferenceEngine.">
<polygon fill="white" stroke="black" points="0,-201.5 0,-231.5 143,-231.5 143,-201.5 0,-201.5"/>
<text text-anchor="start" x="8" y="-219.5" font-family="Helvetica,sans-Serif" font-size="10.00">include/depz/core/engines</text>
<text text-anchor="middle" x="71.5" y="-208.5" font-family="Helvetica,sans-Serif" font-size="10.00">/onnx_engine_adapter.h</text>
</a>
</g>
</g>
<!-- Node1&#45;&gt;Node2 -->
<g id="edge1" class="edge">
<title>Node1&#45;&gt;Node2</title>
<path fill="none" stroke="midnightblue" d="M258.46,-265.92C217.5,-255.31 164.94,-241.7 125.99,-231.61"/>
<polygon fill="midnightblue" stroke="midnightblue" points="257.79,-269.36 268.35,-268.48 259.54,-262.58 257.79,-269.36"/>
</g>
<!-- Node3 -->
<g id="node3" class="node">
<title>Node3</title>
<g id="a_node3"><a xlink:href="openvino__engine__adapter_8h.html" target="_top" xlink:title="Intel OpenVINO backend implementing InferenceEngine.">
<polygon fill="white" stroke="black" points="161.5,-201.5 161.5,-231.5 315.5,-231.5 315.5,-201.5 161.5,-201.5"/>
<text text-anchor="start" x="169.5" y="-219.5" font-family="Helvetica,sans-Serif" font-size="10.00">include/depz/core/engines</text>
<text text-anchor="middle" x="238.5" y="-208.5" font-family="Helvetica,sans-Serif" font-size="10.00">/openvino_engine_adapter.h</text>
</a>
</g>
</g>
<!-- Node1&#45;&gt;Node3 -->
<g id="edge2" class="edge">
<title>Node1&#45;&gt;Node3</title>
<path fill="none" stroke="midnightblue" d="M296.22,-262.17C283.38,-252.23 268.24,-240.51 256.69,-231.58"/>
<polygon fill="midnightblue" stroke="midnightblue" points="294.22,-265.04 304.27,-268.4 298.51,-259.51 294.22,-265.04"/>
</g>
<!-- Node4 -->
<g id="node4" class="node">
<title>Node4</title>
<g id="a_node4"><a xlink:href="tensorrt__engine__adapter_8h.html" target="_top" xlink:title="Native NVIDIA TensorRT backend implementing InferenceEngine.">
<polygon fill="white" stroke="black" points="334,-201.5 334,-231.5 481,-231.5 481,-201.5 334,-201.5"/>
<text text-anchor="start" x="342" y="-219.5" font-family="Helvetica,sans-Serif" font-size="10.00">include/depz/core/engines</text>
<text text-anchor="middle" x="407.5" y="-208.5" font-family="Helvetica,sans-Serif" font-size="10.00">/tensorrt_engine_adapter.h</text>
</a>
</g>
</g>
<!-- Node1&#45;&gt;Node4 -->
<g id="edge3" class="edge">
<title>Node1&#45;&gt;Node4</title>
<path fill="none" stroke="midnightblue" d="M349.09,-262.17C362.09,-252.23 377.4,-240.51 389.09,-231.58"/>
<polygon fill="midnightblue" stroke="midnightblue" points="346.76,-259.54 340.94,-268.4 351.01,-265.1 346.76,-259.54"/>
</g>
<!-- Node5 -->
<g id="node5" class="node">
<title>Node5</title>
<g id="a_node5"><a xlink:href="ineural__inference_8h.html" target="_top" xlink:title="Architecture&#45;agnostic orchestration interface for neural depth networks.">
<polygon fill="white" stroke="black" points="499,-201.5 499,-231.5 650,-231.5 650,-201.5 499,-201.5"/>
<text text-anchor="start" x="507" y="-219.5" font-family="Helvetica,sans-Serif" font-size="10.00">include/depz/core/inference</text>
<text text-anchor="middle" x="574.5" y="-208.5" font-family="Helvetica,sans-Serif" font-size="10.00">/ineural_inference.h</text>
</a>
</g>
</g>
<!-- Node1&#45;&gt;Node5 -->
<g id="edge4" class="edge">
<title>Node1&#45;&gt;Node5</title>
<path fill="none" stroke="midnightblue" d="M386.79,-265.92C427.91,-255.31 480.68,-241.7 519.79,-231.61"/>
<polygon fill="midnightblue" stroke="midnightblue" points="385.68,-262.59 376.87,-268.48 387.43,-269.37 385.68,-262.59"/>
</g>
<!-- Node6 -->
<g id="node6" class="node">
<title>Node6</title>
<g id="a_node6"><a xlink:href="inference__factory_8h.html" target="_top" xlink:title="Single factory turning (arch slug, model file, engine slug) into a ready DepthInferenceBase.">
<polygon fill="white" stroke="black" points="226,-134.5 226,-164.5 377,-164.5 377,-134.5 226,-134.5"/>
<text text-anchor="start" x="234" y="-152.5" font-family="Helvetica,sans-Serif" font-size="10.00">include/depz/core/inference</text>
<text text-anchor="middle" x="301.5" y="-141.5" font-family="Helvetica,sans-Serif" font-size="10.00">/inference_factory.h</text>
</a>
</g>
</g>
<!-- Node5&#45;&gt;Node6 -->
<g id="edge5" class="edge">
<title>Node5&#45;&gt;Node6</title>
<path fill="none" stroke="midnightblue" d="M505.7,-199.12C461.03,-188.48 403.4,-174.76 360.77,-164.61"/>
<polygon fill="midnightblue" stroke="midnightblue" points="505.06,-202.56 515.6,-201.48 506.68,-195.75 505.06,-202.56"/>
</g>
<!-- Node7 -->
<g id="node7" class="node">
<title>Node7</title>
<g id="a_node7"><a xlink:href="neural__architectures_8h.html" target="_top" xlink:title="Per&#45;network preprocess/postprocess recipes for the SDK&#39;s depth models.">
<polygon fill="white" stroke="black" points="395,-134.5 395,-164.5 546,-164.5 546,-134.5 395,-134.5"/>
<text text-anchor="start" x="403" y="-152.5" font-family="Helvetica,sans-Serif" font-size="10.00">include/depz/core/inference</text>
<text text-anchor="middle" x="470.5" y="-141.5" font-family="Helvetica,sans-Serif" font-size="10.00">/neural_architectures.h</text>
</a>
</g>
</g>
<!-- Node5&#45;&gt;Node7 -->
<g id="edge6" class="edge">
<title>Node5&#45;&gt;Node7</title>
<path fill="none" stroke="midnightblue" d="M543.32,-196.02C527.14,-185.9 507.73,-173.77 493.02,-164.58"/>
<polygon fill="midnightblue" stroke="midnightblue" points="541.6,-199.06 551.93,-201.4 545.31,-193.13 541.6,-199.06"/>
</g>
<!-- Node8 -->
<g id="node8" class="node">
<title>Node8</title>
<g id="a_node8"><a xlink:href="depth__pipeline_8h.html" target="_top" xlink:title=" ">
<polygon fill="white" stroke="black" points="521.5,-0.5 521.5,-30.5 665.5,-30.5 665.5,-0.5 521.5,-0.5"/>
<text text-anchor="start" x="529.5" y="-18.5" font-family="Helvetica,sans-Serif" font-size="10.00">include/depz/core/pipeline</text>
<text text-anchor="middle" x="593.5" y="-7.5" font-family="Helvetica,sans-Serif" font-size="10.00">/depth_pipeline.h</text>
</a>
</g>
</g>
<!-- Node5&#45;&gt;Node8 -->
<g id="edge7" class="edge">
<title>Node5&#45;&gt;Node8</title>
<path fill="none" stroke="midnightblue" d="M576.84,-191C580.86,-148.93 588.94,-64.26 592.15,-30.68"/>
<polygon fill="midnightblue" stroke="midnightblue" points="573.33,-190.9 575.87,-201.19 580.3,-191.57 573.33,-190.9"/>
</g>
<!-- Node9 -->
<g id="node9" class="node">
<title>Node9</title>
<g id="a_node9"><a xlink:href="frame__processor_8h.html" target="_top" xlink:title="Single&#45;call per&#45;frame postprocess chain (disparity→depth→cloud).">
<polygon fill="white" stroke="black" points="602.5,-134.5 602.5,-164.5 746.5,-164.5 746.5,-134.5 602.5,-134.5"/>
<text text-anchor="start" x="610.5" y="-152.5" font-family="Helvetica,sans-Serif" font-size="10.00">include/depz/core/pipeline</text>
<text text-anchor="middle" x="674.5" y="-141.5" font-family="Helvetica,sans-Serif" font-size="10.00">/frame_processor.h</text>
</a>
</g>
</g>
<!-- Node5&#45;&gt;Node9 -->
<g id="edge8" class="edge">
<title>Node5&#45;&gt;Node9</title>
<path fill="none" stroke="midnightblue" d="M604.91,-195.73C620.38,-185.68 638.83,-173.68 652.84,-164.58"/>
<polygon fill="midnightblue" stroke="midnightblue" points="602.68,-193.01 596.2,-201.4 606.49,-198.88 602.68,-193.01"/>
</g>
<!-- Node10 -->
<g id="node10" class="node">
<title>Node10</title>
<g id="a_node10"><a xlink:href="idepth__calibration_8h.html" target="_top" xlink:title="Calibration interface the DepthPipeline worker loop depends on.">
<polygon fill="white" stroke="black" points="677.5,-67.5 677.5,-97.5 821.5,-97.5 821.5,-67.5 677.5,-67.5"/>
<text text-anchor="start" x="685.5" y="-85.5" font-family="Helvetica,sans-Serif" font-size="10.00">include/depz/core/pipeline</text>
<text text-anchor="middle" x="749.5" y="-74.5" font-family="Helvetica,sans-Serif" font-size="10.00">/idepth_calibration.h</text>
</a>
</g>
</g>
<!-- Node5&#45;&gt;Node10 -->
<g id="edge13" class="edge">
<title>Node5&#45;&gt;Node10</title>
<path fill="none" stroke="midnightblue" d="M660.15,-201.78C700.88,-193.33 743.34,-181.02 755.5,-165 770.26,-145.56 762.47,-115.45 755.78,-97.79"/>
<polygon fill="midnightblue" stroke="midnightblue" points="659.24,-198.39 650.13,-203.79 660.62,-205.25 659.24,-198.39"/>
</g>
<!-- Node9&#45;&gt;Node8 -->
<g id="edge9" class="edge">
<title>Node9&#45;&gt;Node8</title>
<path fill="none" stroke="midnightblue" d="M660.59,-125.83C643.8,-98.47 616.07,-53.28 602.11,-30.52"/>
<polygon fill="midnightblue" stroke="midnightblue" points="657.62,-127.68 665.83,-134.37 663.58,-124.02 657.62,-127.68"/>
</g>
<!-- Node9&#45;&gt;Node10 -->
<g id="edge10" class="edge">
<title>Node9&#45;&gt;Node10</title>
<path fill="none" stroke="midnightblue" d="M698.62,-127.6C709.94,-117.78 723.14,-106.34 733.26,-97.58"/>
<polygon fill="midnightblue" stroke="midnightblue" points="696.04,-125.2 690.77,-134.4 700.62,-130.49 696.04,-125.2"/>
</g>
<!-- Node10&#45;&gt;Node8 -->
<g id="edge12" class="edge">
<title>Node10&#45;&gt;Node8</title>
<path fill="none" stroke="midnightblue" d="M706.41,-63.54C681.44,-53.14 650.47,-40.24 627.28,-30.58"/>
<polygon fill="midnightblue" stroke="midnightblue" points="705.07,-66.78 715.65,-67.4 707.77,-60.32 705.07,-66.78"/>
</g>
<!-- Node11 -->
<g id="node11" class="node">
<title>Node11</title>
<g id="a_node11"><a xlink:href="opencv__depth__calibration_8h.html" target="_top" xlink:title="IDepthCalibration for the pinhole stereo model, backed by StereoCalibration.">
<polygon fill="white" stroke="black" points="684,-0.5 684,-30.5 841,-30.5 841,-0.5 684,-0.5"/>
<text text-anchor="start" x="692" y="-18.5" font-family="Helvetica,sans-Serif" font-size="10.00">include/depz/core/calibration</text>
<text text-anchor="middle" x="762.5" y="-7.5" font-family="Helvetica,sans-Serif" font-size="10.00">/opencv_depth_calibration.h</text>
</a>
</g>
</g>
<!-- Node10&#45;&gt;Node11 -->
<g id="edge11" class="edge">
<title>Node10&#45;&gt;Node11</title>
<path fill="none" stroke="midnightblue" d="M754.32,-57.4C756.13,-48.37 758.12,-38.41 759.68,-30.58"/>
<polygon fill="midnightblue" stroke="midnightblue" points="750.85,-56.9 752.32,-67.4 757.71,-58.28 750.85,-56.9"/>
</g>
</g>
</svg>
