<?xml version="1.0" encoding="UTF-8" standalone="no"?>
<!DOCTYPE svg PUBLIC "-//W3C//DTD SVG 1.1//EN"
 "http://www.w3.org/Graphics/SVG/1.1/DTD/svg11.dtd">
<!-- Generated by graphviz version 2.43.0 (0)
 -->
<!-- Title: include/depz/core/recorder/imkv_source.h Pages: 1 -->
<svg width="323pt" height="162pt"
 viewBox="0.00 0.00 322.50 162.00" xmlns="http://www.w3.org/2000/svg" xmlns:xlink="http://www.w3.org/1999/xlink">
<g id="graph0" class="graph" transform="scale(1 1) rotate(0) translate(4 158)">
<title>include/depz/core/recorder/imkv_source.h</title>
<polygon fill="white" stroke="transparent" points="-4,4 -4,-158 318.5,-158 318.5,4 -4,4"/>
<!-- Node1 -->
<g id="node1" class="node">
<title>Node1</title>
<g id="a_node1"><a xlink:title="Abstract Matroska/MKV reader — the replay sibling of IMkvRecorder.">
<polygon fill="#bfbfbf" stroke="black" points="117,-123.5 117,-153.5 263,-153.5 263,-123.5 117,-123.5"/>
<text text-anchor="start" x="125" y="-141.5" font-family="Helvetica,sans-Serif" font-size="10.00">include/depz/core/recorder</text>
<text text-anchor="middle" x="190" y="-130.5" font-family="Helvetica,sans-Serif" font-size="10.00">/imkv_source.h</text>
</a>
</g>
</g>
<!-- Node2 -->
<g id="node2" class="node">
<title>Node2</title>
<g id="a_node2"><a xlink:href="iframe__source_8h.html" target="_top" xlink:title="Abstract interface for raw frame sources feeding the DepthPipeline.">
<polygon fill="white" stroke="black" points="71,-56.5 71,-86.5 211,-86.5 211,-56.5 71,-56.5"/>
<text text-anchor="start" x="79" y="-74.5" font-family="Helvetica,sans-Serif" font-size="10.00">depz/core/sources/iframe</text>
<text text-anchor="middle" x="141" y="-63.5" font-family="Helvetica,sans-Serif" font-size="10.00">_source.h</text>
</a>
</g>
</g>
<!-- Node1&#45;&gt;Node2 -->
<g id="edge1" class="edge">
<title>Node1&#45;&gt;Node2</title>
<path fill="none" stroke="midnightblue" d="M179.37,-123.4C173.08,-115.05 164.96,-104.29 157.82,-94.81"/>
<polygon fill="midnightblue" stroke="midnightblue" points="160.43,-92.45 151.61,-86.58 154.84,-96.67 160.43,-92.45"/>
</g>
<!-- Node4 -->
<g id="node4" class="node">
<title>Node4</title>
<g id="a_node4"><a xlink:title=" ">
<polygon fill="white" stroke="#bfbfbf" points="0,-0.5 0,-19.5 50,-19.5 50,-0.5 0,-0.5"/>
<text text-anchor="middle" x="25" y="-7.5" font-family="Helvetica,sans-Serif" font-size="10.00">cstdint</text>
</a>
</g>
</g>
<!-- Node1&#45;&gt;Node4 -->
<g id="edge6" class="edge">
<title>Node1&#45;&gt;Node4</title>
<path fill="none" stroke="midnightblue" d="M128.48,-123.41C105.49,-115.71 80.5,-104.12 62,-87 45.21,-71.46 35.15,-46.67 29.85,-29.66"/>
<polygon fill="midnightblue" stroke="midnightblue" points="33.14,-28.43 27.03,-19.77 26.41,-30.35 33.14,-28.43"/>
</g>
<!-- Node6 -->
<g id="node6" class="node">
<title>Node6</title>
<g id="a_node6"><a xlink:title=" ">
<polygon fill="white" stroke="#bfbfbf" points="223,-0.5 223,-19.5 267,-19.5 267,-0.5 223,-0.5"/>
<text text-anchor="middle" x="245" y="-7.5" font-family="Helvetica,sans-Serif" font-size="10.00">string</text>
</a>
</g>
</g>
<!-- Node1&#45;&gt;Node6 -->
<g id="edge7" class="edge">
<title>Node1&#45;&gt;Node6</title>
<path fill="none" stroke="midnightblue" d="M199.53,-123.37C205.91,-113.48 214.17,-99.81 220,-87 228.61,-68.08 235.7,-45.3 240.1,-29.65"/>
<polygon fill="midnightblue" stroke="midnightblue" points="243.57,-30.23 242.81,-19.66 236.81,-28.4 243.57,-30.23"/>
</g>
<!-- Node7 -->
<g id="node7" class="node">
<title>Node7</title>
<g id="a_node7"><a xlink:title=" ">
<polygon fill="white" stroke="#bfbfbf" points="267.5,-62 267.5,-81 314.5,-81 314.5,-62 267.5,-62"/>
<text text-anchor="middle" x="291" y="-69" font-family="Helvetica,sans-Serif" font-size="10.00">vector</text>
</a>
</g>
</g>
<!-- Node1&#45;&gt;Node7 -->
<g id="edge8" class="edge">
<title>Node1&#45;&gt;Node7</title>
<path fill="none" stroke="midnightblue" d="M211.92,-123.4C228.85,-112.5 252.19,-97.48 269.12,-86.58"/>
<polygon fill="midnightblue" stroke="midnightblue" points="271.27,-89.36 277.78,-81.01 267.48,-83.48 271.27,-89.36"/>
</g>
<!-- Node3 -->
<g id="node3" class="node">
<title>Node3</title>
<g id="a_node3"><a xlink:title=" ">
<polygon fill="white" stroke="#bfbfbf" points="68.5,-0.5 68.5,-19.5 121.5,-19.5 121.5,-0.5 68.5,-0.5"/>
<text text-anchor="middle" x="95" y="-7.5" font-family="Helvetica,sans-Serif" font-size="10.00">cstddef</text>
</a>
</g>
</g>
<!-- Node2&#45;&gt;Node3 -->
<g id="edge2" class="edge">
<title>Node2&#45;&gt;Node3</title>
<path fill="none" stroke="midnightblue" d="M130.1,-56.4C123.41,-47.75 114.82,-36.64 107.82,-27.58"/>
<polygon fill="midnightblue" stroke="midnightblue" points="110.58,-25.43 101.69,-19.66 105.04,-29.71 110.58,-25.43"/>
</g>
<!-- Node2&#45;&gt;Node4 -->
<g id="edge3" class="edge">
<title>Node2&#45;&gt;Node4</title>
<path fill="none" stroke="midnightblue" d="M113.51,-56.4C94.57,-46.68 69.56,-33.86 50.96,-24.31"/>
<polygon fill="midnightblue" stroke="midnightblue" points="52.37,-21.11 41.88,-19.66 49.18,-27.34 52.37,-21.11"/>
</g>
<!-- Node5 -->
<g id="node5" class="node">
<title>Node5</title>
<g id="a_node5"><a xlink:title=" ">
<polygon fill="white" stroke="#bfbfbf" points="139.5,-0.5 139.5,-19.5 204.5,-19.5 204.5,-0.5 139.5,-0.5"/>
<text text-anchor="middle" x="172" y="-7.5" font-family="Helvetica,sans-Serif" font-size="10.00">functional</text>
</a>
</g>
</g>
<!-- Node2&#45;&gt;Node5 -->
<g id="edge4" class="edge">
<title>Node2&#45;&gt;Node5</title>
<path fill="none" stroke="midnightblue" d="M148.35,-56.4C152.67,-48.11 158.17,-37.55 162.77,-28.71"/>
<polygon fill="midnightblue" stroke="midnightblue" points="165.97,-30.14 167.49,-19.66 159.76,-26.91 165.97,-30.14"/>
</g>
<!-- Node2&#45;&gt;Node6 -->
<g id="edge5" class="edge">
<title>Node2&#45;&gt;Node6</title>
<path fill="none" stroke="midnightblue" d="M165.65,-56.4C182.32,-46.86 204.23,-34.32 220.81,-24.84"/>
<polygon fill="midnightblue" stroke="midnightblue" points="222.93,-27.66 229.87,-19.66 219.45,-21.59 222.93,-27.66"/>
</g>
</g>
</svg>
