<?xml version="1.0" encoding="UTF-8" standalone="no"?>
<!DOCTYPE svg PUBLIC "-//W3C//DTD SVG 1.1//EN"
 "http://www.w3.org/Graphics/SVG/1.1/DTD/svg11.dtd">
<!-- Generated by graphviz version 2.43.0 (0)
 -->
<!-- Title: include/depz/core/recorder/imkv_source.h Pages: 1 -->
<svg width="328pt" height="106pt"
 viewBox="0.00 0.00 328.00 106.00" xmlns="http://www.w3.org/2000/svg" xmlns:xlink="http://www.w3.org/1999/xlink">
<g id="graph0" class="graph" transform="scale(1 1) rotate(0) translate(4 102)">
<title>include/depz/core/recorder/imkv_source.h</title>
<polygon fill="white" stroke="transparent" points="-4,4 -4,-102 324,-102 324,4 -4,4"/>
<!-- Node1 -->
<g id="node1" class="node">
<title>Node1</title>
<g id="a_node1"><a xlink:title="Abstract Matroska/MKV reader — the replay sibling of IMkvRecorder.">
<polygon fill="#bfbfbf" stroke="black" points="90.5,-67.5 90.5,-97.5 236.5,-97.5 236.5,-67.5 90.5,-67.5"/>
<text text-anchor="start" x="98.5" y="-85.5" font-family="Helvetica,sans-Serif" font-size="10.00">include/depz/core/recorder</text>
<text text-anchor="middle" x="163.5" y="-74.5" font-family="Helvetica,sans-Serif" font-size="10.00">/imkv_source.h</text>
</a>
</g>
</g>
<!-- Node2 -->
<g id="node2" class="node">
<title>Node2</title>
<g id="a_node2"><a xlink:href="libav__mkv__source__adapter_8h.html" target="_top" xlink:title="libavformat demuxer behind the IMkvSource interface — the seekable replay head of the worker pipeline...">
<polygon fill="white" stroke="black" points="0,-0.5 0,-30.5 159,-30.5 159,-0.5 0,-0.5"/>
<text text-anchor="start" x="8" y="-18.5" font-family="Helvetica,sans-Serif" font-size="10.00">include/depz/core/recorder</text>
<text text-anchor="middle" x="79.5" y="-7.5" font-family="Helvetica,sans-Serif" font-size="10.00">/libav_mkv_source_adapter.h</text>
</a>
</g>
</g>
<!-- Node1&#45;&gt;Node2 -->
<g id="edge1" class="edge">
<title>Node1&#45;&gt;Node2</title>
<path fill="none" stroke="midnightblue" d="M137.22,-61.17C124.38,-51.23 109.24,-39.51 97.69,-30.58"/>
<polygon fill="midnightblue" stroke="midnightblue" points="135.22,-64.04 145.27,-67.4 139.51,-58.51 135.22,-64.04"/>
</g>
<!-- Node3 -->
<g id="node3" class="node">
<title>Node3</title>
<g id="a_node3"><a xlink:href="mkv__frame__source_8h.html" target="_top" xlink:title="A recorded .mkv presented as a seekable FrameSource for replay.">
<polygon fill="white" stroke="black" points="177,-0.5 177,-30.5 320,-30.5 320,-0.5 177,-0.5"/>
<text text-anchor="start" x="185" y="-18.5" font-family="Helvetica,sans-Serif" font-size="10.00">include/depz/core/sources</text>
<text text-anchor="middle" x="248.5" y="-7.5" font-family="Helvetica,sans-Serif" font-size="10.00">/mkv_frame_source.h</text>
</a>
</g>
</g>
<!-- Node1&#45;&gt;Node3 -->
<g id="edge2" class="edge">
<title>Node1&#45;&gt;Node3</title>
<path fill="none" stroke="midnightblue" d="M190.09,-61.17C203.09,-51.23 218.4,-39.51 230.09,-30.58"/>
<polygon fill="midnightblue" stroke="midnightblue" points="187.76,-58.54 181.94,-67.4 192.01,-64.1 187.76,-58.54"/>
</g>
</g>
</svg>
