<?xml version="1.0" encoding="UTF-8" standalone="no"?>
<!DOCTYPE svg PUBLIC "-//W3C//DTD SVG 1.1//EN"
 "http://www.w3.org/Graphics/SVG/1.1/DTD/svg11.dtd">
<!-- Generated by graphviz version 2.43.0 (0)
 -->
<!-- Title: include/depz/core/inference/ineural_inference.h Pages: 1 -->
<svg width="714pt" height="296pt"
 viewBox="0.00 0.00 714.00 296.00" xmlns="http://www.w3.org/2000/svg" xmlns:xlink="http://www.w3.org/1999/xlink">
<g id="graph0" class="graph" transform="scale(1 1) rotate(0) translate(4 292)">
<title>include/depz/core/inference/ineural_inference.h</title>
<polygon fill="white" stroke="transparent" points="-4,4 -4,-292 710,-292 710,4 -4,4"/>
<!-- Node1 -->
<g id="node1" class="node">
<title>Node1</title>
<g id="a_node1"><a xlink:title="Architecture&#45;agnostic orchestration interface for neural depth networks.">
<polygon fill="#bfbfbf" stroke="black" points="384.5,-257.5 384.5,-287.5 535.5,-287.5 535.5,-257.5 384.5,-257.5"/>
<text text-anchor="start" x="392.5" y="-275.5" font-family="Helvetica,sans-Serif" font-size="10.00">include/depz/core/inference</text>
<text text-anchor="middle" x="460" y="-264.5" font-family="Helvetica,sans-Serif" font-size="10.00">/ineural_inference.h</text>
</a>
</g>
</g>
<!-- Node2 -->
<g id="node2" class="node">
<title>Node2</title>
<g id="a_node2"><a xlink:href="icontrol__owner_8h.html" target="_top" xlink:title=" ">
<polygon fill="white" stroke="black" points="310,-190.5 310,-220.5 432,-220.5 432,-190.5 310,-190.5"/>
<text text-anchor="start" x="318" y="-208.5" font-family="Helvetica,sans-Serif" font-size="10.00">depz/controls/icontrol</text>
<text text-anchor="middle" x="371" y="-197.5" font-family="Helvetica,sans-Serif" font-size="10.00">_owner.h</text>
</a>
</g>
</g>
<!-- Node1&#45;&gt;Node2 -->
<g id="edge1" class="edge">
<title>Node1&#45;&gt;Node2</title>
<path fill="none" stroke="midnightblue" d="M440.69,-257.4C428.33,-248.37 412.1,-236.51 398.41,-226.52"/>
<polygon fill="midnightblue" stroke="midnightblue" points="400.41,-223.65 390.27,-220.58 396.29,-229.3 400.41,-223.65"/>
</g>
<!-- Node8 -->
<g id="node8" class="node">
<title>Node8</title>
<g id="a_node8"><a xlink:title=" ">
<polygon fill="white" stroke="#bfbfbf" points="365,-0.5 365,-19.5 409,-19.5 409,-0.5 365,-0.5"/>
<text text-anchor="middle" x="387" y="-7.5" font-family="Helvetica,sans-Serif" font-size="10.00">string</text>
</a>
</g>
</g>
<!-- Node1&#45;&gt;Node8 -->
<g id="edge22" class="edge">
<title>Node1&#45;&gt;Node8</title>
<path fill="none" stroke="midnightblue" d="M384.27,-266.47C353.27,-260.23 320.24,-247.3 301,-221 292.86,-209.88 297.54,-203.34 301,-190 305.59,-172.28 312.71,-170.32 321,-154 343.4,-109.88 367.11,-56.67 379.09,-29.28"/>
<polygon fill="midnightblue" stroke="midnightblue" points="382.43,-30.38 383.21,-19.81 376.01,-27.59 382.43,-30.38"/>
</g>
<!-- Node11 -->
<g id="node11" class="node">
<title>Node11</title>
<g id="a_node11"><a xlink:title=" ">
<polygon fill="white" stroke="#bfbfbf" points="80.5,-62 80.5,-81 125.5,-81 125.5,-62 80.5,-62"/>
<text text-anchor="middle" x="103" y="-69" font-family="Helvetica,sans-Serif" font-size="10.00">utility</text>
</a>
</g>
</g>
<!-- Node1&#45;&gt;Node11 -->
<g id="edge23" class="edge">
<title>Node1&#45;&gt;Node11</title>
<path fill="none" stroke="midnightblue" d="M384.17,-257.67C348.02,-249.55 304.76,-237.58 268,-221 219.23,-199 207.36,-190.23 168,-154 146.54,-134.25 126.34,-107.07 114.32,-89.64"/>
<polygon fill="midnightblue" stroke="midnightblue" points="117.02,-87.39 108.52,-81.07 111.22,-91.31 117.02,-87.39"/>
</g>
<!-- Node12 -->
<g id="node12" class="node">
<title>Node12</title>
<g id="a_node12"><a xlink:title=" ">
<polygon fill="white" stroke="#bfbfbf" points="398.5,-62 398.5,-81 445.5,-81 445.5,-62 398.5,-62"/>
<text text-anchor="middle" x="422" y="-69" font-family="Helvetica,sans-Serif" font-size="10.00">vector</text>
</a>
</g>
</g>
<!-- Node1&#45;&gt;Node12 -->
<g id="edge24" class="edge">
<title>Node1&#45;&gt;Node12</title>
<path fill="none" stroke="midnightblue" d="M457.27,-257.19C450.53,-221.91 433.13,-130.78 425.58,-91.25"/>
<polygon fill="midnightblue" stroke="midnightblue" points="429.01,-90.53 423.69,-81.36 422.13,-91.84 429.01,-90.53"/>
</g>
<!-- Node13 -->
<g id="node13" class="node">
<title>Node13</title>
<g id="a_node13"><a xlink:href="iinference__engine_8h.html" target="_top" xlink:title="Backend&#45;agnostic ML inference engine interface (Adapter pattern).">
<polygon fill="white" stroke="black" points="464.5,-123.5 464.5,-153.5 621.5,-153.5 621.5,-123.5 464.5,-123.5"/>
<text text-anchor="start" x="472.5" y="-141.5" font-family="Helvetica,sans-Serif" font-size="10.00">depz/core/engines/iinference</text>
<text text-anchor="middle" x="543" y="-130.5" font-family="Helvetica,sans-Serif" font-size="10.00">_engine.h</text>
</a>
</g>
</g>
<!-- Node1&#45;&gt;Node13 -->
<g id="edge15" class="edge">
<title>Node1&#45;&gt;Node13</title>
<path fill="none" stroke="midnightblue" d="M468.88,-257.37C483.24,-234.55 511.65,-189.36 528.82,-162.04"/>
<polygon fill="midnightblue" stroke="midnightblue" points="531.82,-163.85 534.18,-153.52 525.9,-160.13 531.82,-163.85"/>
</g>
<!-- Node15 -->
<g id="node15" class="node">
<title>Node15</title>
<g id="a_node15"><a xlink:title=" ">
<polygon fill="white" stroke="#bfbfbf" points="526.5,-196 526.5,-215 629.5,-215 629.5,-196 526.5,-196"/>
<text text-anchor="middle" x="578" y="-203" font-family="Helvetica,sans-Serif" font-size="10.00">opencv2/core.hpp</text>
</a>
</g>
</g>
<!-- Node1&#45;&gt;Node15 -->
<g id="edge20" class="edge">
<title>Node1&#45;&gt;Node15</title>
<path fill="none" stroke="midnightblue" d="M485.6,-257.4C505.85,-246.24 533.92,-230.78 553.79,-219.83"/>
<polygon fill="midnightblue" stroke="midnightblue" points="555.49,-222.9 562.56,-215.01 552.11,-216.77 555.49,-222.9"/>
</g>
<!-- Node16 -->
<g id="node16" class="node">
<title>Node16</title>
<g id="a_node16"><a xlink:title=" ">
<polygon fill="white" stroke="#bfbfbf" points="648,-196 648,-215 706,-215 706,-196 648,-196"/>
<text text-anchor="middle" x="677" y="-203" font-family="Helvetica,sans-Serif" font-size="10.00">memory</text>
</a>
</g>
</g>
<!-- Node1&#45;&gt;Node16 -->
<g id="edge21" class="edge">
<title>Node1&#45;&gt;Node16</title>
<path fill="none" stroke="midnightblue" d="M514.83,-257.4C550.46,-247.9 597.77,-234.65 639,-221 641.26,-220.25 643.59,-219.45 645.92,-218.62"/>
<polygon fill="midnightblue" stroke="midnightblue" points="647.24,-221.86 655.42,-215.12 644.82,-215.29 647.24,-221.86"/>
</g>
<!-- Node3 -->
<g id="node3" class="node">
<title>Node3</title>
<g id="a_node3"><a xlink:href="param__spec_8h.html" target="_top" xlink:title=" ">
<polygon fill="white" stroke="black" points="176.5,-129 176.5,-148 311.5,-148 311.5,-129 176.5,-129"/>
<text text-anchor="middle" x="244" y="-136" font-family="Helvetica,sans-Serif" font-size="10.00">depz/core/param_spec.h</text>
</a>
</g>
</g>
<!-- Node2&#45;&gt;Node3 -->
<g id="edge2" class="edge">
<title>Node2&#45;&gt;Node3</title>
<path fill="none" stroke="midnightblue" d="M343.44,-190.4C321.55,-179.19 291.17,-163.64 269.76,-152.69"/>
<polygon fill="midnightblue" stroke="midnightblue" points="271.12,-149.45 260.62,-148.01 267.93,-155.68 271.12,-149.45"/>
</g>
<!-- Node2&#45;&gt;Node12 -->
<g id="edge14" class="edge">
<title>Node2&#45;&gt;Node12</title>
<path fill="none" stroke="midnightblue" d="M376.46,-190.37C385.76,-166.29 404.69,-117.31 414.97,-90.7"/>
<polygon fill="midnightblue" stroke="midnightblue" points="418.34,-91.69 418.68,-81.1 411.81,-89.16 418.34,-91.69"/>
</g>
<!-- Node4 -->
<g id="node4" class="node">
<title>Node4</title>
<g id="a_node4"><a xlink:href="iparameter__store_8h.html" target="_top" xlink:title="Type&#45;erased key/value parameter store interface.">
<polygon fill="white" stroke="black" points="182.5,-56.5 182.5,-86.5 303.5,-86.5 303.5,-56.5 182.5,-56.5"/>
<text text-anchor="start" x="190.5" y="-74.5" font-family="Helvetica,sans-Serif" font-size="10.00">depz/core/iparameter</text>
<text text-anchor="middle" x="243" y="-63.5" font-family="Helvetica,sans-Serif" font-size="10.00">_store.h</text>
</a>
</g>
</g>
<!-- Node3&#45;&gt;Node4 -->
<g id="edge3" class="edge">
<title>Node3&#45;&gt;Node4</title>
<path fill="none" stroke="midnightblue" d="M243.87,-128.73C243.74,-120.54 243.54,-107.92 243.37,-96.71"/>
<polygon fill="midnightblue" stroke="midnightblue" points="246.87,-96.53 243.22,-86.59 239.87,-96.64 246.87,-96.53"/>
</g>
<!-- Node7 -->
<g id="node7" class="node">
<title>Node7</title>
<g id="a_node7"><a xlink:title=" ">
<polygon fill="white" stroke="#bfbfbf" points="0,-0.5 0,-19.5 56,-19.5 56,-0.5 0,-0.5"/>
<text text-anchor="middle" x="28" y="-7.5" font-family="Helvetica,sans-Serif" font-size="10.00">optional</text>
</a>
</g>
</g>
<!-- Node3&#45;&gt;Node7 -->
<g id="edge10" class="edge">
<title>Node3&#45;&gt;Node7</title>
<path fill="none" stroke="midnightblue" d="M231.77,-128.87C217.72,-118.91 194.04,-101.99 174,-87 155.99,-73.53 153.4,-67.38 134,-56 111.37,-42.73 84.09,-31.24 62.87,-23.19"/>
<polygon fill="midnightblue" stroke="midnightblue" points="63.88,-19.83 53.29,-19.63 61.45,-26.4 63.88,-19.83"/>
</g>
<!-- Node3&#45;&gt;Node8 -->
<g id="edge11" class="edge">
<title>Node3&#45;&gt;Node8</title>
<path fill="none" stroke="midnightblue" d="M256.95,-128.98C271.19,-119.4 294.51,-103.06 313,-87 335.02,-67.87 358.12,-43.32 372.53,-27.38"/>
<polygon fill="midnightblue" stroke="midnightblue" points="375.16,-29.69 379.23,-19.9 369.95,-25.02 375.16,-29.69"/>
</g>
<!-- Node3&#45;&gt;Node11 -->
<g id="edge12" class="edge">
<title>Node3&#45;&gt;Node11</title>
<path fill="none" stroke="midnightblue" d="M225.28,-128.87C201.15,-117.75 159,-98.32 131.05,-85.43"/>
<polygon fill="midnightblue" stroke="midnightblue" points="132.35,-82.18 121.8,-81.17 129.42,-88.53 132.35,-82.18"/>
</g>
<!-- Node3&#45;&gt;Node12 -->
<g id="edge13" class="edge">
<title>Node3&#45;&gt;Node12</title>
<path fill="none" stroke="midnightblue" d="M267.64,-128.87C298.71,-117.52 353.47,-97.52 388.72,-84.65"/>
<polygon fill="midnightblue" stroke="midnightblue" points="390.36,-87.78 398.55,-81.06 387.95,-81.21 390.36,-87.78"/>
</g>
<!-- Node5 -->
<g id="node5" class="node">
<title>Node5</title>
<g id="a_node5"><a xlink:title=" ">
<polygon fill="white" stroke="#bfbfbf" points="74,-0.5 74,-19.5 190,-19.5 190,-0.5 74,-0.5"/>
<text text-anchor="middle" x="132" y="-7.5" font-family="Helvetica,sans-Serif" font-size="10.00">opencv2/opencv.hpp</text>
</a>
</g>
</g>
<!-- Node4&#45;&gt;Node5 -->
<g id="edge4" class="edge">
<title>Node4&#45;&gt;Node5</title>
<path fill="none" stroke="midnightblue" d="M216.69,-56.4C198.74,-46.77 175.08,-34.09 157.33,-24.58"/>
<polygon fill="midnightblue" stroke="midnightblue" points="158.62,-21.3 148.15,-19.66 155.31,-27.47 158.62,-21.3"/>
</g>
<!-- Node6 -->
<g id="node6" class="node">
<title>Node6</title>
<g id="a_node6"><a xlink:title=" ">
<polygon fill="white" stroke="#bfbfbf" points="457,-0.5 457,-19.5 507,-19.5 507,-0.5 457,-0.5"/>
<text text-anchor="middle" x="482" y="-7.5" font-family="Helvetica,sans-Serif" font-size="10.00">cstdint</text>
</a>
</g>
</g>
<!-- Node4&#45;&gt;Node6 -->
<g id="edge5" class="edge">
<title>Node4&#45;&gt;Node6</title>
<path fill="none" stroke="midnightblue" d="M299.34,-56.47C345.07,-45.09 408.12,-29.39 446.92,-19.73"/>
<polygon fill="midnightblue" stroke="midnightblue" points="447.85,-23.11 456.71,-17.3 446.16,-16.32 447.85,-23.11"/>
</g>
<!-- Node4&#45;&gt;Node7 -->
<g id="edge6" class="edge">
<title>Node4&#45;&gt;Node7</title>
<path fill="none" stroke="midnightblue" d="M192.32,-56.47C153.68,-45.78 101.29,-31.28 66.15,-21.56"/>
<polygon fill="midnightblue" stroke="midnightblue" points="66.85,-18.12 56.27,-18.82 64.98,-24.87 66.85,-18.12"/>
</g>
<!-- Node4&#45;&gt;Node8 -->
<g id="edge7" class="edge">
<title>Node4&#45;&gt;Node8</title>
<path fill="none" stroke="midnightblue" d="M277.13,-56.4C301.29,-46.42 333.4,-33.15 356.67,-23.53"/>
<polygon fill="midnightblue" stroke="midnightblue" points="358.14,-26.71 366.05,-19.66 355.47,-20.24 358.14,-26.71"/>
</g>
<!-- Node9 -->
<g id="node9" class="node">
<title>Node9</title>
<g id="a_node9"><a xlink:title=" ">
<polygon fill="white" stroke="#bfbfbf" points="208.5,-0.5 208.5,-19.5 277.5,-19.5 277.5,-0.5 208.5,-0.5"/>
<text text-anchor="middle" x="243" y="-7.5" font-family="Helvetica,sans-Serif" font-size="10.00">type_traits</text>
</a>
</g>
</g>
<!-- Node4&#45;&gt;Node9 -->
<g id="edge8" class="edge">
<title>Node4&#45;&gt;Node9</title>
<path fill="none" stroke="midnightblue" d="M243,-56.4C243,-48.47 243,-38.46 243,-29.86"/>
<polygon fill="midnightblue" stroke="midnightblue" points="246.5,-29.66 243,-19.66 239.5,-29.66 246.5,-29.66"/>
</g>
<!-- Node10 -->
<g id="node10" class="node">
<title>Node10</title>
<g id="a_node10"><a xlink:title=" ">
<polygon fill="white" stroke="#bfbfbf" points="295.5,-0.5 295.5,-19.5 346.5,-19.5 346.5,-0.5 295.5,-0.5"/>
<text text-anchor="middle" x="321" y="-7.5" font-family="Helvetica,sans-Serif" font-size="10.00">variant</text>
</a>
</g>
</g>
<!-- Node4&#45;&gt;Node10 -->
<g id="edge9" class="edge">
<title>Node4&#45;&gt;Node10</title>
<path fill="none" stroke="midnightblue" d="M261.48,-56.4C273.52,-47.22 289.2,-35.26 301.44,-25.92"/>
<polygon fill="midnightblue" stroke="midnightblue" points="303.82,-28.51 309.65,-19.66 299.58,-22.94 303.82,-28.51"/>
</g>
<!-- Node13&#45;&gt;Node6 -->
<g id="edge17" class="edge">
<title>Node13&#45;&gt;Node6</title>
<path fill="none" stroke="midnightblue" d="M536.24,-123.48C525.12,-100.41 502.97,-54.48 490.69,-29.03"/>
<polygon fill="midnightblue" stroke="midnightblue" points="493.73,-27.28 486.24,-19.79 487.43,-30.32 493.73,-27.28"/>
</g>
<!-- Node13&#45;&gt;Node8 -->
<g id="edge18" class="edge">
<title>Node13&#45;&gt;Node8</title>
<path fill="none" stroke="midnightblue" d="M529.3,-123.49C512.51,-106.63 482.84,-77.87 455,-56 440.71,-44.77 423.65,-33.49 410.19,-25.03"/>
<polygon fill="midnightblue" stroke="midnightblue" points="411.88,-21.96 401.53,-19.66 408.19,-27.9 411.88,-21.96"/>
</g>
<!-- Node13&#45;&gt;Node12 -->
<g id="edge19" class="edge">
<title>Node13&#45;&gt;Node12</title>
<path fill="none" stroke="midnightblue" d="M516.74,-123.4C495.98,-112.24 467.2,-96.78 446.82,-85.83"/>
<polygon fill="midnightblue" stroke="midnightblue" points="448.3,-82.66 437.84,-81.01 444.99,-88.82 448.3,-82.66"/>
</g>
<!-- Node14 -->
<g id="node14" class="node">
<title>Node14</title>
<g id="a_node14"><a xlink:title=" ">
<polygon fill="white" stroke="#bfbfbf" points="540.5,-62 540.5,-81 593.5,-81 593.5,-62 540.5,-62"/>
<text text-anchor="middle" x="567" y="-69" font-family="Helvetica,sans-Serif" font-size="10.00">cstddef</text>
</a>
</g>
</g>
<!-- Node13&#45;&gt;Node14 -->
<g id="edge16" class="edge">
<title>Node13&#45;&gt;Node14</title>
<path fill="none" stroke="midnightblue" d="M548.21,-123.4C551.73,-113.86 556.41,-101.18 560.22,-90.86"/>
<polygon fill="midnightblue" stroke="midnightblue" points="563.61,-91.79 563.79,-81.19 557.04,-89.36 563.61,-91.79"/>
</g>
</g>
</svg>
