<?xml version="1.0" encoding="UTF-8" standalone="no"?>
<!DOCTYPE svg PUBLIC "-//W3C//DTD SVG 1.1//EN"
 "http://www.w3.org/Graphics/SVG/1.1/DTD/svg11.dtd">
<!-- Generated by graphviz version 2.43.0 (0)
 -->
<!-- Title: include/depz/core/inference/ineural_inference.h Pages: 1 -->
<svg width="623pt" height="240pt"
 viewBox="0.00 0.00 623.00 240.00" xmlns="http://www.w3.org/2000/svg" xmlns:xlink="http://www.w3.org/1999/xlink">
<g id="graph0" class="graph" transform="scale(1 1) rotate(0) translate(4 236)">
<title>include/depz/core/inference/ineural_inference.h</title>
<polygon fill="white" stroke="transparent" points="-4,4 -4,-236 619,-236 619,4 -4,4"/>
<!-- Node1 -->
<g id="node1" class="node">
<title>Node1</title>
<g id="a_node1"><a xlink:title="Architecture&#45;agnostic orchestration interface for neural depth networks.">
<polygon fill="#bfbfbf" stroke="black" points="273,-201.5 273,-231.5 424,-231.5 424,-201.5 273,-201.5"/>
<text text-anchor="start" x="281" y="-219.5" font-family="Helvetica,sans-Serif" font-size="10.00">include/depz/core/inference</text>
<text text-anchor="middle" x="348.5" y="-208.5" font-family="Helvetica,sans-Serif" font-size="10.00">/ineural_inference.h</text>
</a>
</g>
</g>
<!-- Node2 -->
<g id="node2" class="node">
<title>Node2</title>
<g id="a_node2"><a xlink:href="inference__factory_8h.html" target="_top" xlink:title="Single factory turning (arch slug, model file, engine slug) into a ready DepthInferenceBase.">
<polygon fill="white" stroke="black" points="0,-134.5 0,-164.5 151,-164.5 151,-134.5 0,-134.5"/>
<text text-anchor="start" x="8" y="-152.5" font-family="Helvetica,sans-Serif" font-size="10.00">include/depz/core/inference</text>
<text text-anchor="middle" x="75.5" y="-141.5" font-family="Helvetica,sans-Serif" font-size="10.00">/inference_factory.h</text>
</a>
</g>
</g>
<!-- Node1&#45;&gt;Node2 -->
<g id="edge1" class="edge">
<title>Node1&#45;&gt;Node2</title>
<path fill="none" stroke="midnightblue" d="M279.7,-199.12C235.03,-188.48 177.4,-174.76 134.77,-164.61"/>
<polygon fill="midnightblue" stroke="midnightblue" points="279.06,-202.56 289.6,-201.48 280.68,-195.75 279.06,-202.56"/>
</g>
<!-- Node3 -->
<g id="node3" class="node">
<title>Node3</title>
<g id="a_node3"><a xlink:href="neural__architectures_8h.html" target="_top" xlink:title="Per&#45;network preprocess/postprocess recipes for the SDK&#39;s depth models.">
<polygon fill="white" stroke="black" points="169,-134.5 169,-164.5 320,-164.5 320,-134.5 169,-134.5"/>
<text text-anchor="start" x="177" y="-152.5" font-family="Helvetica,sans-Serif" font-size="10.00">include/depz/core/inference</text>
<text text-anchor="middle" x="244.5" y="-141.5" font-family="Helvetica,sans-Serif" font-size="10.00">/neural_architectures.h</text>
</a>
</g>
</g>
<!-- Node1&#45;&gt;Node3 -->
<g id="edge2" class="edge">
<title>Node1&#45;&gt;Node3</title>
<path fill="none" stroke="midnightblue" d="M317.32,-196.02C301.14,-185.9 281.73,-173.77 267.02,-164.58"/>
<polygon fill="midnightblue" stroke="midnightblue" points="315.6,-199.06 325.93,-201.4 319.31,-193.13 315.6,-199.06"/>
</g>
<!-- Node4 -->
<g id="node4" class="node">
<title>Node4</title>
<g id="a_node4"><a xlink:href="depth__pipeline_8h.html" target="_top" xlink:title=" ">
<polygon fill="white" stroke="black" points="295.5,-0.5 295.5,-30.5 439.5,-30.5 439.5,-0.5 295.5,-0.5"/>
<text text-anchor="start" x="303.5" y="-18.5" font-family="Helvetica,sans-Serif" font-size="10.00">include/depz/core/pipeline</text>
<text text-anchor="middle" x="367.5" y="-7.5" font-family="Helvetica,sans-Serif" font-size="10.00">/depth_pipeline.h</text>
</a>
</g>
</g>
<!-- Node1&#45;&gt;Node4 -->
<g id="edge3" class="edge">
<title>Node1&#45;&gt;Node4</title>
<path fill="none" stroke="midnightblue" d="M350.84,-191C354.86,-148.93 362.94,-64.26 366.15,-30.68"/>
<polygon fill="midnightblue" stroke="midnightblue" points="347.33,-190.9 349.87,-201.19 354.3,-191.57 347.33,-190.9"/>
</g>
<!-- Node5 -->
<g id="node5" class="node">
<title>Node5</title>
<g id="a_node5"><a xlink:href="frame__processor_8h.html" target="_top" xlink:title="Single&#45;call per&#45;frame postprocess chain (disparity→depth→cloud).">
<polygon fill="white" stroke="black" points="376.5,-134.5 376.5,-164.5 520.5,-164.5 520.5,-134.5 376.5,-134.5"/>
<text text-anchor="start" x="384.5" y="-152.5" font-family="Helvetica,sans-Serif" font-size="10.00">include/depz/core/pipeline</text>
<text text-anchor="middle" x="448.5" y="-141.5" font-family="Helvetica,sans-Serif" font-size="10.00">/frame_processor.h</text>
</a>
</g>
</g>
<!-- Node1&#45;&gt;Node5 -->
<g id="edge4" class="edge">
<title>Node1&#45;&gt;Node5</title>
<path fill="none" stroke="midnightblue" d="M378.91,-195.73C394.38,-185.68 412.83,-173.68 426.84,-164.58"/>
<polygon fill="midnightblue" stroke="midnightblue" points="376.68,-193.01 370.2,-201.4 380.49,-198.88 376.68,-193.01"/>
</g>
<!-- Node6 -->
<g id="node6" class="node">
<title>Node6</title>
<g id="a_node6"><a xlink:href="idepth__calibration_8h.html" target="_top" xlink:title="Calibration interface the DepthPipeline worker loop depends on.">
<polygon fill="white" stroke="black" points="451.5,-67.5 451.5,-97.5 595.5,-97.5 595.5,-67.5 451.5,-67.5"/>
<text text-anchor="start" x="459.5" y="-85.5" font-family="Helvetica,sans-Serif" font-size="10.00">include/depz/core/pipeline</text>
<text text-anchor="middle" x="523.5" y="-74.5" font-family="Helvetica,sans-Serif" font-size="10.00">/idepth_calibration.h</text>
</a>
</g>
</g>
<!-- Node1&#45;&gt;Node6 -->
<g id="edge9" class="edge">
<title>Node1&#45;&gt;Node6</title>
<path fill="none" stroke="midnightblue" d="M434.15,-201.78C474.88,-193.33 517.34,-181.02 529.5,-165 544.26,-145.56 536.47,-115.45 529.78,-97.79"/>
<polygon fill="midnightblue" stroke="midnightblue" points="433.24,-198.39 424.13,-203.79 434.62,-205.25 433.24,-198.39"/>
</g>
<!-- Node5&#45;&gt;Node4 -->
<g id="edge5" class="edge">
<title>Node5&#45;&gt;Node4</title>
<path fill="none" stroke="midnightblue" d="M434.59,-125.83C417.8,-98.47 390.07,-53.28 376.11,-30.52"/>
<polygon fill="midnightblue" stroke="midnightblue" points="431.62,-127.68 439.83,-134.37 437.58,-124.02 431.62,-127.68"/>
</g>
<!-- Node5&#45;&gt;Node6 -->
<g id="edge6" class="edge">
<title>Node5&#45;&gt;Node6</title>
<path fill="none" stroke="midnightblue" d="M472.62,-127.6C483.94,-117.78 497.14,-106.34 507.26,-97.58"/>
<polygon fill="midnightblue" stroke="midnightblue" points="470.04,-125.2 464.77,-134.4 474.62,-130.49 470.04,-125.2"/>
</g>
<!-- Node6&#45;&gt;Node4 -->
<g id="edge8" class="edge">
<title>Node6&#45;&gt;Node4</title>
<path fill="none" stroke="midnightblue" d="M480.41,-63.54C455.44,-53.14 424.47,-40.24 401.28,-30.58"/>
<polygon fill="midnightblue" stroke="midnightblue" points="479.07,-66.78 489.65,-67.4 481.77,-60.32 479.07,-66.78"/>
</g>
<!-- Node7 -->
<g id="node7" class="node">
<title>Node7</title>
<g id="a_node7"><a xlink:href="opencv__depth__calibration_8h.html" target="_top" xlink:title="IDepthCalibration for the pinhole stereo model, backed by StereoCalibration.">
<polygon fill="white" stroke="black" points="458,-0.5 458,-30.5 615,-30.5 615,-0.5 458,-0.5"/>
<text text-anchor="start" x="466" y="-18.5" font-family="Helvetica,sans-Serif" font-size="10.00">include/depz/core/calibration</text>
<text text-anchor="middle" x="536.5" y="-7.5" font-family="Helvetica,sans-Serif" font-size="10.00">/opencv_depth_calibration.h</text>
</a>
</g>
</g>
<!-- Node6&#45;&gt;Node7 -->
<g id="edge7" class="edge">
<title>Node6&#45;&gt;Node7</title>
<path fill="none" stroke="midnightblue" d="M528.32,-57.4C530.13,-48.37 532.12,-38.41 533.68,-30.58"/>
<polygon fill="midnightblue" stroke="midnightblue" points="524.85,-56.9 526.32,-67.4 531.71,-58.28 524.85,-56.9"/>
</g>
</g>
</svg>
