<?xml version="1.0" encoding="UTF-8" standalone="no"?>
<!DOCTYPE svg PUBLIC "-//W3C//DTD SVG 1.1//EN"
 "http://www.w3.org/Graphics/SVG/1.1/DTD/svg11.dtd">
<!-- Generated by graphviz version 2.43.0 (0)
 -->
<!-- Title: include/depz/core/inference/inference_factory.h Pages: 1 -->
<svg width="567pt" height="363pt"
 viewBox="0.00 0.00 566.50 363.00" xmlns="http://www.w3.org/2000/svg" xmlns:xlink="http://www.w3.org/1999/xlink">
<g id="graph0" class="graph" transform="scale(1 1) rotate(0) translate(4 359)">
<title>include/depz/core/inference/inference_factory.h</title>
<polygon fill="white" stroke="transparent" points="-4,4 -4,-359 562.5,-359 562.5,4 -4,4"/>
<!-- Node1 -->
<g id="node1" class="node">
<title>Node1</title>
<g id="a_node1"><a xlink:title="Single factory turning (arch slug, model file, engine slug) into a ready DepthInferenceBase.">
<polygon fill="#bfbfbf" stroke="black" points="220.5,-324.5 220.5,-354.5 371.5,-354.5 371.5,-324.5 220.5,-324.5"/>
<text text-anchor="start" x="228.5" y="-342.5" font-family="Helvetica,sans-Serif" font-size="10.00">include/depz/core/inference</text>
<text text-anchor="middle" x="296" y="-331.5" font-family="Helvetica,sans-Serif" font-size="10.00">/inference_factory.h</text>
</a>
</g>
</g>
<!-- Node2 -->
<g id="node2" class="node">
<title>Node2</title>
<g id="a_node2"><a xlink:href="ineural__inference_8h.html" target="_top" xlink:title="Architecture&#45;agnostic orchestration interface for neural depth networks.">
<polygon fill="white" stroke="black" points="239.5,-257.5 239.5,-287.5 352.5,-287.5 352.5,-257.5 239.5,-257.5"/>
<text text-anchor="start" x="247.5" y="-275.5" font-family="Helvetica,sans-Serif" font-size="10.00">depz/core/inference</text>
<text text-anchor="middle" x="296" y="-264.5" font-family="Helvetica,sans-Serif" font-size="10.00">/ineural_inference.h</text>
</a>
</g>
</g>
<!-- Node1&#45;&gt;Node2 -->
<g id="edge1" class="edge">
<title>Node1&#45;&gt;Node2</title>
<path fill="none" stroke="midnightblue" d="M296,-324.4C296,-316.64 296,-306.81 296,-297.86"/>
<polygon fill="midnightblue" stroke="midnightblue" points="299.5,-297.58 296,-287.58 292.5,-297.58 299.5,-297.58"/>
</g>
<!-- Node9 -->
<g id="node8" class="node">
<title>Node9</title>
<g id="a_node8"><a xlink:title=" ">
<polygon fill="white" stroke="#bfbfbf" points="118,-0.5 118,-19.5 162,-19.5 162,-0.5 118,-0.5"/>
<text text-anchor="middle" x="140" y="-7.5" font-family="Helvetica,sans-Serif" font-size="10.00">string</text>
</a>
</g>
</g>
<!-- Node1&#45;&gt;Node9 -->
<g id="edge24" class="edge">
<title>Node1&#45;&gt;Node9</title>
<path fill="none" stroke="midnightblue" d="M220.16,-336.36C132.46,-329.37 0,-302.86 0,-206.5 0,-206.5 0,-206.5 0,-137.5 0,-97.53 9.45,-83.96 38,-56 57.34,-37.06 85.99,-25.38 108.01,-18.69"/>
<polygon fill="midnightblue" stroke="midnightblue" points="109.24,-21.97 117.9,-15.87 107.33,-15.24 109.24,-21.97"/>
</g>
<!-- Node17 -->
<g id="node14" class="node">
<title>Node17</title>
<g id="a_node14"><a xlink:title=" ">
<polygon fill="white" stroke="#bfbfbf" points="442,-196 442,-215 500,-215 500,-196 442,-196"/>
<text text-anchor="middle" x="471" y="-203" font-family="Helvetica,sans-Serif" font-size="10.00">memory</text>
</a>
</g>
</g>
<!-- Node1&#45;&gt;Node17 -->
<g id="edge23" class="edge">
<title>Node1&#45;&gt;Node17</title>
<path fill="none" stroke="midnightblue" d="M314.73,-324.37C348.08,-299.22 417.43,-246.91 451.39,-221.29"/>
<polygon fill="midnightblue" stroke="midnightblue" points="453.73,-223.91 459.6,-215.1 449.51,-218.32 453.73,-223.91"/>
</g>
<!-- Node3 -->
<g id="node3" class="node">
<title>Node3</title>
<g id="a_node3"><a xlink:href="icontrol__owner_8h.html" target="_top" xlink:title=" ">
<polygon fill="white" stroke="black" points="104,-190.5 104,-220.5 226,-220.5 226,-190.5 104,-190.5"/>
<text text-anchor="start" x="112" y="-208.5" font-family="Helvetica,sans-Serif" font-size="10.00">depz/controls/icontrol</text>
<text text-anchor="middle" x="165" y="-197.5" font-family="Helvetica,sans-Serif" font-size="10.00">_owner.h</text>
</a>
</g>
</g>
<!-- Node2&#45;&gt;Node3 -->
<g id="edge2" class="edge">
<title>Node2&#45;&gt;Node3</title>
<path fill="none" stroke="midnightblue" d="M267.57,-257.4C248.52,-247.94 223.22,-235.39 202.52,-225.12"/>
<polygon fill="midnightblue" stroke="midnightblue" points="203.88,-221.89 193.37,-220.58 200.77,-228.16 203.88,-221.89"/>
</g>
<!-- Node2&#45;&gt;Node9 -->
<g id="edge20" class="edge">
<title>Node2&#45;&gt;Node9</title>
<path fill="none" stroke="midnightblue" d="M239.34,-265.76C181.66,-258.69 97.71,-244.63 76,-221 26.06,-166.64 19.24,-119.43 57,-56 68.09,-37.38 89.87,-25.99 108.33,-19.32"/>
<polygon fill="midnightblue" stroke="midnightblue" points="109.49,-22.63 117.89,-16.18 107.29,-15.98 109.49,-22.63"/>
</g>
<!-- Node12 -->
<g id="node9" class="node">
<title>Node12</title>
<g id="a_node9"><a xlink:title=" ">
<polygon fill="white" stroke="#bfbfbf" points="66.5,-62 66.5,-81 111.5,-81 111.5,-62 66.5,-62"/>
<text text-anchor="middle" x="89" y="-69" font-family="Helvetica,sans-Serif" font-size="10.00">utility</text>
</a>
</g>
</g>
<!-- Node2&#45;&gt;Node12 -->
<g id="edge21" class="edge">
<title>Node2&#45;&gt;Node12</title>
<path fill="none" stroke="midnightblue" d="M239.07,-264.8C186.21,-257.3 113.04,-243.2 95,-221 64.56,-183.55 75.4,-121.56 83.44,-90.87"/>
<polygon fill="midnightblue" stroke="midnightblue" points="86.86,-91.66 86.2,-81.09 80.12,-89.76 86.86,-91.66"/>
</g>
<!-- Node13 -->
<g id="node10" class="node">
<title>Node13</title>
<g id="a_node10"><a xlink:title=" ">
<polygon fill="white" stroke="#bfbfbf" points="346.5,-62 346.5,-81 393.5,-81 393.5,-62 346.5,-62"/>
<text text-anchor="middle" x="370" y="-69" font-family="Helvetica,sans-Serif" font-size="10.00">vector</text>
</a>
</g>
</g>
<!-- Node2&#45;&gt;Node13 -->
<g id="edge22" class="edge">
<title>Node2&#45;&gt;Node13</title>
<path fill="none" stroke="midnightblue" d="M321.3,-257.32C334.28,-248.61 349.01,-236.22 357,-221 379.08,-178.92 376.18,-120.8 372.77,-91.31"/>
<polygon fill="midnightblue" stroke="midnightblue" points="376.21,-90.64 371.44,-81.18 369.27,-91.55 376.21,-90.64"/>
</g>
<!-- Node14 -->
<g id="node11" class="node">
<title>Node14</title>
<g id="a_node11"><a xlink:href="iinference__engine_8h.html" target="_top" xlink:title="Backend&#45;agnostic ML inference engine interface (Adapter pattern).">
<polygon fill="white" stroke="black" points="401.5,-123.5 401.5,-153.5 558.5,-153.5 558.5,-123.5 401.5,-123.5"/>
<text text-anchor="start" x="409.5" y="-141.5" font-family="Helvetica,sans-Serif" font-size="10.00">depz/core/engines/iinference</text>
<text text-anchor="middle" x="480" y="-130.5" font-family="Helvetica,sans-Serif" font-size="10.00">_engine.h</text>
</a>
</g>
</g>
<!-- Node2&#45;&gt;Node14 -->
<g id="edge13" class="edge">
<title>Node2&#45;&gt;Node14</title>
<path fill="none" stroke="midnightblue" d="M326.73,-257.36C345.65,-248.08 370.02,-235.1 390,-221 415.54,-202.98 441.69,-178.49 459.17,-161.07"/>
<polygon fill="midnightblue" stroke="midnightblue" points="462.01,-163.18 466.56,-153.62 457.04,-158.25 462.01,-163.18"/>
</g>
<!-- Node16 -->
<g id="node13" class="node">
<title>Node16</title>
<g id="a_node13"><a xlink:title=" ">
<polygon fill="white" stroke="#bfbfbf" points="244.5,-196 244.5,-215 347.5,-215 347.5,-196 244.5,-196"/>
<text text-anchor="middle" x="296" y="-203" font-family="Helvetica,sans-Serif" font-size="10.00">opencv2/core.hpp</text>
</a>
</g>
</g>
<!-- Node2&#45;&gt;Node16 -->
<g id="edge18" class="edge">
<title>Node2&#45;&gt;Node16</title>
<path fill="none" stroke="midnightblue" d="M296,-257.4C296,-248.06 296,-235.71 296,-225.52"/>
<polygon fill="midnightblue" stroke="midnightblue" points="299.5,-225.19 296,-215.19 292.5,-225.19 299.5,-225.19"/>
</g>
<!-- Node2&#45;&gt;Node17 -->
<g id="edge19" class="edge">
<title>Node2&#45;&gt;Node17</title>
<path fill="none" stroke="midnightblue" d="M333.97,-257.4C365.22,-245.79 409.04,-229.51 438.64,-218.52"/>
<polygon fill="midnightblue" stroke="midnightblue" points="439.94,-221.77 448.1,-215.01 437.5,-215.21 439.94,-221.77"/>
</g>
<!-- Node4 -->
<g id="node4" class="node">
<title>Node4</title>
<g id="a_node4"><a xlink:href="param__spec_8h.html" target="_top" xlink:title=" ">
<polygon fill="white" stroke="black" points="133.5,-129 133.5,-148 268.5,-148 268.5,-129 133.5,-129"/>
<text text-anchor="middle" x="201" y="-136" font-family="Helvetica,sans-Serif" font-size="10.00">depz/core/param_spec.h</text>
</a>
</g>
</g>
<!-- Node3&#45;&gt;Node4 -->
<g id="edge3" class="edge">
<title>Node3&#45;&gt;Node4</title>
<path fill="none" stroke="midnightblue" d="M172.81,-190.4C178.2,-180.66 185.41,-167.65 191.19,-157.21"/>
<polygon fill="midnightblue" stroke="midnightblue" points="194.4,-158.64 196.18,-148.19 188.28,-155.25 194.4,-158.64"/>
</g>
<!-- Node3&#45;&gt;Node13 -->
<g id="edge12" class="edge">
<title>Node3&#45;&gt;Node13</title>
<path fill="none" stroke="midnightblue" d="M203.52,-190.43C225.82,-181.49 253.95,-168.83 277,-154 307.06,-134.66 337.36,-106 354.87,-88.33"/>
<polygon fill="midnightblue" stroke="midnightblue" points="357.49,-90.66 361.97,-81.05 352.48,-85.77 357.49,-90.66"/>
</g>
<!-- Node5 -->
<g id="node5" class="node">
<title>Node5</title>
<g id="a_node5"><a xlink:href="iparameter__store_8h.html" target="_top" xlink:title="Type&#45;erased key/value parameter store interface.">
<polygon fill="white" stroke="red" points="168.5,-56.5 168.5,-86.5 289.5,-86.5 289.5,-56.5 168.5,-56.5"/>
<text text-anchor="start" x="176.5" y="-74.5" font-family="Helvetica,sans-Serif" font-size="10.00">depz/core/iparameter</text>
<text text-anchor="middle" x="229" y="-63.5" font-family="Helvetica,sans-Serif" font-size="10.00">_store.h</text>
</a>
</g>
</g>
<!-- Node4&#45;&gt;Node5 -->
<g id="edge4" class="edge">
<title>Node4&#45;&gt;Node5</title>
<path fill="none" stroke="midnightblue" d="M204.78,-128.73C208.38,-120.37 213.97,-107.4 218.87,-96.02"/>
<polygon fill="midnightblue" stroke="midnightblue" points="222.19,-97.16 222.93,-86.59 215.76,-94.39 222.19,-97.16"/>
</g>
<!-- Node8 -->
<g id="node7" class="node">
<title>Node8</title>
<g id="a_node7"><a xlink:title=" ">
<polygon fill="white" stroke="#bfbfbf" points="245,-0.5 245,-19.5 301,-19.5 301,-0.5 245,-0.5"/>
<text text-anchor="middle" x="273" y="-7.5" font-family="Helvetica,sans-Serif" font-size="10.00">optional</text>
</a>
</g>
</g>
<!-- Node4&#45;&gt;Node8 -->
<g id="edge8" class="edge">
<title>Node4&#45;&gt;Node8</title>
<path fill="none" stroke="midnightblue" d="M237.1,-128.84C258.84,-121.57 284.8,-108.75 298,-87 309.32,-68.34 297.32,-43.95 286.37,-27.89"/>
<polygon fill="midnightblue" stroke="midnightblue" points="288.96,-25.51 280.22,-19.51 283.31,-29.65 288.96,-25.51"/>
</g>
<!-- Node4&#45;&gt;Node9 -->
<g id="edge9" class="edge">
<title>Node4&#45;&gt;Node9</title>
<path fill="none" stroke="midnightblue" d="M191.55,-128.74C181.96,-119.32 167.36,-103.48 159,-87 149.79,-68.85 144.86,-45.94 142.35,-30.05"/>
<polygon fill="midnightblue" stroke="midnightblue" points="145.77,-29.3 140.92,-19.88 138.84,-30.27 145.77,-29.3"/>
</g>
<!-- Node4&#45;&gt;Node12 -->
<g id="edge10" class="edge">
<title>Node4&#45;&gt;Node12</title>
<path fill="none" stroke="midnightblue" d="M185.9,-128.73C167.09,-117.82 134.75,-99.05 112.64,-86.22"/>
<polygon fill="midnightblue" stroke="midnightblue" points="114.27,-83.12 103.87,-81.13 110.76,-89.17 114.27,-83.12"/>
</g>
<!-- Node4&#45;&gt;Node13 -->
<g id="edge11" class="edge">
<title>Node4&#45;&gt;Node13</title>
<path fill="none" stroke="midnightblue" d="M223.44,-128.87C252.82,-117.57 304.49,-97.7 337.97,-84.82"/>
<polygon fill="midnightblue" stroke="midnightblue" points="339.66,-87.92 347.73,-81.06 337.14,-81.39 339.66,-87.92"/>
</g>
<!-- Node7 -->
<g id="node6" class="node">
<title>Node7</title>
<g id="a_node6"><a xlink:title=" ">
<polygon fill="white" stroke="#bfbfbf" points="435,-0.5 435,-19.5 485,-19.5 485,-0.5 435,-0.5"/>
<text text-anchor="middle" x="460" y="-7.5" font-family="Helvetica,sans-Serif" font-size="10.00">cstdint</text>
</a>
</g>
</g>
<!-- Node5&#45;&gt;Node7 -->
<g id="edge5" class="edge">
<title>Node5&#45;&gt;Node7</title>
<path fill="none" stroke="midnightblue" d="M283.45,-56.47C327.22,-45.2 387.41,-29.7 424.99,-20.02"/>
<polygon fill="midnightblue" stroke="midnightblue" points="426.14,-23.33 434.95,-17.45 424.4,-16.56 426.14,-23.33"/>
</g>
<!-- Node5&#45;&gt;Node8 -->
<g id="edge6" class="edge">
<title>Node5&#45;&gt;Node8</title>
<path fill="none" stroke="midnightblue" d="M239.43,-56.4C245.76,-47.84 253.87,-36.87 260.53,-27.86"/>
<polygon fill="midnightblue" stroke="midnightblue" points="263.47,-29.78 266.6,-19.66 257.84,-25.62 263.47,-29.78"/>
</g>
<!-- Node5&#45;&gt;Node9 -->
<g id="edge7" class="edge">
<title>Node5&#45;&gt;Node9</title>
<path fill="none" stroke="midnightblue" d="M207.91,-56.4C193.91,-47.04 175.59,-34.79 161.51,-25.38"/>
<polygon fill="midnightblue" stroke="midnightblue" points="163.21,-22.31 152.95,-19.66 159.32,-28.13 163.21,-22.31"/>
</g>
<!-- Node14&#45;&gt;Node7 -->
<g id="edge15" class="edge">
<title>Node14&#45;&gt;Node7</title>
<path fill="none" stroke="midnightblue" d="M492.84,-123.48C506.19,-107.1 523.77,-79.27 513,-56 507.08,-43.21 495.53,-32.72 484.72,-25.1"/>
<polygon fill="midnightblue" stroke="midnightblue" points="486.62,-22.16 476.33,-19.61 482.79,-28.02 486.62,-22.16"/>
</g>
<!-- Node14&#45;&gt;Node9 -->
<g id="edge16" class="edge">
<title>Node14&#45;&gt;Node9</title>
<path fill="none" stroke="midnightblue" d="M470.99,-123.34C458.27,-104.63 433.2,-72.17 403,-56 363.51,-34.86 233.6,-19.98 172.41,-13.96"/>
<polygon fill="midnightblue" stroke="midnightblue" points="172.46,-10.45 162.17,-12.98 171.79,-17.42 172.46,-10.45"/>
</g>
<!-- Node14&#45;&gt;Node13 -->
<g id="edge17" class="edge">
<title>Node14&#45;&gt;Node13</title>
<path fill="none" stroke="midnightblue" d="M456.13,-123.4C437.43,-112.34 411.56,-97.06 393.07,-86.13"/>
<polygon fill="midnightblue" stroke="midnightblue" points="394.79,-83.08 384.4,-81.01 391.23,-89.11 394.79,-83.08"/>
</g>
<!-- Node15 -->
<g id="node12" class="node">
<title>Node15</title>
<g id="a_node12"><a xlink:title=" ">
<polygon fill="white" stroke="#bfbfbf" points="450.5,-62 450.5,-81 503.5,-81 503.5,-62 450.5,-62"/>
<text text-anchor="middle" x="477" y="-69" font-family="Helvetica,sans-Serif" font-size="10.00">cstddef</text>
</a>
</g>
</g>
<!-- Node14&#45;&gt;Node15 -->
<g id="edge14" class="edge">
<title>Node14&#45;&gt;Node15</title>
<path fill="none" stroke="midnightblue" d="M479.35,-123.4C478.91,-113.96 478.34,-101.45 477.86,-91.19"/>
<polygon fill="midnightblue" stroke="midnightblue" points="481.36,-91.02 477.4,-81.19 474.37,-91.35 481.36,-91.02"/>
</g>
</g>
</svg>
