<?xml version="1.0" encoding="UTF-8" standalone="no"?>
<!DOCTYPE svg PUBLIC "-//W3C//DTD SVG 1.1//EN"
 "http://www.w3.org/Graphics/SVG/1.1/DTD/svg11.dtd">
<!-- Generated by graphviz version 2.43.0 (0)
 -->
<!-- Title: Graphical Class Hierarchy Pages: 1 -->
<svg width="230pt" height="218pt"
 viewBox="0.00 0.00 230.00 218.00" xmlns="http://www.w3.org/2000/svg" xmlns:xlink="http://www.w3.org/1999/xlink">
<g id="graph0" class="graph" transform="scale(1 1) rotate(0) translate(4 214)">
<title>Graphical Class Hierarchy</title>
<polygon fill="white" stroke="transparent" points="-4,4 -4,-214 226,-214 226,4 -4,4"/>
<!-- Node182 -->
<g id="node1" class="node">
<title>Node182</title>
<g id="a_node1"><a xlink:title=" ">
<polygon fill="white" stroke="#bfbfbf" points="0,-95.5 0,-114.5 71,-114.5 71,-95.5 0,-95.5"/>
<text text-anchor="middle" x="35.5" y="-102.5" font-family="Helvetica,sans-Serif" font-size="10.00">C.Structure</text>
</a>
</g>
</g>
<!-- Node0 -->
<g id="node2" class="node">
<title>Node0</title>
<g id="a_node2"><a xlink:href="classdepz__cabi_1_1__CamInfo.html" target="_top" xlink:title=" ">
<polygon fill="white" stroke="black" points="107,-190.5 107,-209.5 222,-209.5 222,-190.5 107,-190.5"/>
<text text-anchor="middle" x="164.5" y="-197.5" font-family="Helvetica,sans-Serif" font-size="10.00">depz_cabi._CamInfo</text>
</a>
</g>
</g>
<!-- Node182&#45;&gt;Node0 -->
<g id="edge1" class="edge">
<title>Node182&#45;&gt;Node0</title>
<path fill="none" stroke="midnightblue" d="M49.14,-123.17C61.92,-140.3 83.15,-165.59 107,-181 112.91,-184.82 119.67,-187.95 126.4,-190.49"/>
<polygon fill="midnightblue" stroke="midnightblue" points="51.64,-120.66 42.94,-114.61 45.97,-124.76 51.64,-120.66"/>
</g>
<!-- Node184 -->
<g id="node3" class="node">
<title>Node184</title>
<g id="a_node3"><a xlink:href="classdepz__cabi_1_1__Canvas.html" target="_top" xlink:title=" ">
<polygon fill="white" stroke="black" points="109.5,-152.5 109.5,-171.5 219.5,-171.5 219.5,-152.5 109.5,-152.5"/>
<text text-anchor="middle" x="164.5" y="-159.5" font-family="Helvetica,sans-Serif" font-size="10.00">depz_cabi._Canvas</text>
</a>
</g>
</g>
<!-- Node182&#45;&gt;Node184 -->
<g id="edge2" class="edge">
<title>Node182&#45;&gt;Node184</title>
<path fill="none" stroke="midnightblue" d="M61.33,-119.73C74.61,-127.26 91.4,-136.23 107,-143 114.97,-146.46 123.8,-149.7 132.06,-152.48"/>
<polygon fill="midnightblue" stroke="midnightblue" points="62.76,-116.51 52.35,-114.55 59.27,-122.58 62.76,-116.51"/>
</g>
<!-- Node185 -->
<g id="node4" class="node">
<title>Node185</title>
<g id="a_node4"><a xlink:href="classdepz__cabi_1_1__Config.html" target="_top" xlink:title=" ">
<polygon fill="white" stroke="black" points="112.5,-114.5 112.5,-133.5 216.5,-133.5 216.5,-114.5 112.5,-114.5"/>
<text text-anchor="middle" x="164.5" y="-121.5" font-family="Helvetica,sans-Serif" font-size="10.00">depz_cabi._Config</text>
</a>
</g>
</g>
<!-- Node182&#45;&gt;Node185 -->
<g id="edge3" class="edge">
<title>Node182&#45;&gt;Node185</title>
<path fill="none" stroke="midnightblue" d="M81.31,-111.7C91.29,-113.2 101.95,-114.79 112.16,-116.32"/>
<polygon fill="midnightblue" stroke="midnightblue" points="81.61,-108.21 71.2,-110.19 80.58,-115.13 81.61,-108.21"/>
</g>
<!-- Node186 -->
<g id="node5" class="node">
<title>Node186</title>
<g id="a_node5"><a xlink:href="classdepz__cabi_1_1__Control.html" target="_top" xlink:title=" ">
<polygon fill="white" stroke="black" points="110,-76.5 110,-95.5 219,-95.5 219,-76.5 110,-76.5"/>
<text text-anchor="middle" x="164.5" y="-83.5" font-family="Helvetica,sans-Serif" font-size="10.00">depz_cabi._Control</text>
</a>
</g>
</g>
<!-- Node182&#45;&gt;Node186 -->
<g id="edge4" class="edge">
<title>Node182&#45;&gt;Node186</title>
<path fill="none" stroke="midnightblue" d="M81.3,-98.3C90.5,-96.92 100.28,-95.46 109.76,-94.04"/>
<polygon fill="midnightblue" stroke="midnightblue" points="80.58,-94.87 71.2,-99.81 81.61,-101.79 80.58,-94.87"/>
</g>
<!-- Node187 -->
<g id="node6" class="node">
<title>Node187</title>
<g id="a_node6"><a xlink:href="classdepz__cabi_1_1__Image.html" target="_top" xlink:title=" ">
<polygon fill="white" stroke="black" points="112.5,-38.5 112.5,-57.5 216.5,-57.5 216.5,-38.5 112.5,-38.5"/>
<text text-anchor="middle" x="164.5" y="-45.5" font-family="Helvetica,sans-Serif" font-size="10.00">depz_cabi._Image</text>
</a>
</g>
</g>
<!-- Node182&#45;&gt;Node187 -->
<g id="edge5" class="edge">
<title>Node182&#45;&gt;Node187</title>
<path fill="none" stroke="midnightblue" d="M61.33,-90.27C74.61,-82.74 91.4,-73.77 107,-67 114.97,-63.54 123.8,-60.3 132.06,-57.52"/>
<polygon fill="midnightblue" stroke="midnightblue" points="59.27,-87.42 52.35,-95.45 62.76,-93.49 59.27,-87.42"/>
</g>
<!-- Node188 -->
<g id="node7" class="node">
<title>Node188</title>
<g id="a_node7"><a xlink:href="classdepz__cabi_1_1__Metrics.html" target="_top" xlink:title=" ">
<polygon fill="white" stroke="black" points="109.5,-0.5 109.5,-19.5 219.5,-19.5 219.5,-0.5 109.5,-0.5"/>
<text text-anchor="middle" x="164.5" y="-7.5" font-family="Helvetica,sans-Serif" font-size="10.00">depz_cabi._Metrics</text>
</a>
</g>
</g>
<!-- Node182&#45;&gt;Node188 -->
<g id="edge6" class="edge">
<title>Node182&#45;&gt;Node188</title>
<path fill="none" stroke="midnightblue" d="M49.14,-86.83C61.92,-69.7 83.15,-44.41 107,-29 112.91,-25.18 119.67,-22.05 126.4,-19.51"/>
<polygon fill="midnightblue" stroke="midnightblue" points="45.97,-85.24 42.94,-95.39 51.64,-89.34 45.97,-85.24"/>
</g>
</g>
</svg>
