<?xml version="1.0" encoding="UTF-8" standalone="no"?>
<!DOCTYPE svg PUBLIC "-//W3C//DTD SVG 1.1//EN"
 "http://www.w3.org/Graphics/SVG/1.1/DTD/svg11.dtd">
<!-- Generated by graphviz version 2.43.0 (0)
 -->
<!-- Title: Graphical Class Hierarchy Pages: 1 -->
<svg width="496pt" height="88pt"
 viewBox="0.00 0.00 496.00 88.00" xmlns="http://www.w3.org/2000/svg" xmlns:xlink="http://www.w3.org/1999/xlink">
<g id="graph0" class="graph" transform="scale(1 1) rotate(0) translate(4 84)">
<title>Graphical Class Hierarchy</title>
<polygon fill="white" stroke="transparent" points="-4,4 -4,-84 492,-84 492,4 -4,4"/>
<!-- Node0 -->
<g id="node1" class="node">
<title>Node0</title>
<g id="a_node1"><a xlink:href="classstereocam_1_1IParameterStore.html" target="_top" xlink:title="Abstract string&#45;keyed store of heterogeneous parameter values.">
<polygon fill="white" stroke="black" points="0,-30 0,-49 153,-49 153,-30 0,-30"/>
<text text-anchor="middle" x="76.5" y="-37" font-family="Helvetica,sans-Serif" font-size="10.00">stereocam::IParameterStore</text>
</a>
</g>
</g>
<!-- Node1 -->
<g id="node2" class="node">
<title>Node1</title>
<g id="a_node2"><a xlink:href="classstereocam_1_1IStereoCalibrationModel.html" target="_top" xlink:title="Interface that represents stereo calibration data + rectification behavior.">
<polygon fill="white" stroke="black" points="189,-49.5 189,-79.5 351,-79.5 351,-49.5 189,-49.5"/>
<text text-anchor="start" x="197" y="-67.5" font-family="Helvetica,sans-Serif" font-size="10.00">stereocam::IStereoCalibration</text>
<text text-anchor="middle" x="270" y="-56.5" font-family="Helvetica,sans-Serif" font-size="10.00">Model</text>
</a>
</g>
</g>
<!-- Node0&#45;&gt;Node1 -->
<g id="edge1" class="edge">
<title>Node0&#45;&gt;Node1</title>
<path fill="none" stroke="midnightblue" d="M160.57,-50.34C169.97,-51.57 179.55,-52.82 188.91,-54.04"/>
<polygon fill="midnightblue" stroke="midnightblue" points="160.81,-46.85 150.44,-49.02 159.91,-53.79 160.81,-46.85"/>
</g>
<!-- Node3 -->
<g id="node4" class="node">
<title>Node3</title>
<g id="a_node4"><a xlink:href="classstereocam_1_1StereoCalibrationParameterStore.html" target="_top" xlink:title="IParameterStore view over a StereoCalibration.">
<polygon fill="white" stroke="black" points="190.5,-0.5 190.5,-30.5 349.5,-30.5 349.5,-0.5 190.5,-0.5"/>
<text text-anchor="start" x="198.5" y="-18.5" font-family="Helvetica,sans-Serif" font-size="10.00">stereocam::StereoCalibration</text>
<text text-anchor="middle" x="270" y="-7.5" font-family="Helvetica,sans-Serif" font-size="10.00">ParameterStore</text>
</a>
</g>
</g>
<!-- Node0&#45;&gt;Node3 -->
<g id="edge3" class="edge">
<title>Node0&#45;&gt;Node3</title>
<path fill="none" stroke="midnightblue" d="M163.31,-28.75C172.33,-27.62 181.47,-26.47 190.41,-25.35"/>
<polygon fill="midnightblue" stroke="midnightblue" points="162.67,-25.3 153.19,-30.01 163.54,-32.24 162.67,-25.3"/>
</g>
<!-- Node2 -->
<g id="node3" class="node">
<title>Node2</title>
<g id="a_node3"><a xlink:href="classStereoCalibration.html" target="_top" xlink:title="Stereo calibration: load from JSON, rectify images, expose matrices.">
<polygon fill="white" stroke="black" points="387,-55 387,-74 488,-74 488,-55 387,-55"/>
<text text-anchor="middle" x="437.5" y="-62" font-family="Helvetica,sans-Serif" font-size="10.00">StereoCalibration</text>
</a>
</g>
</g>
<!-- Node1&#45;&gt;Node2 -->
<g id="edge2" class="edge">
<title>Node1&#45;&gt;Node2</title>
<path fill="none" stroke="midnightblue" d="M361.46,-64.5C370.08,-64.5 378.58,-64.5 386.59,-64.5"/>
<polygon fill="midnightblue" stroke="midnightblue" points="361.33,-61 351.33,-64.5 361.33,-68 361.33,-61"/>
</g>
</g>
</svg>
