<?xml version="1.0" encoding="UTF-8" standalone="no"?>
<!DOCTYPE svg PUBLIC "-//W3C//DTD SVG 1.1//EN"
 "http://www.w3.org/Graphics/SVG/1.1/DTD/svg11.dtd">
<!-- Generated by graphviz version 2.43.0 (0)
 -->
<!-- Title: Graphical Class Hierarchy Pages: 1 -->
<svg width="375pt" height="137pt"
 viewBox="0.00 0.00 375.00 137.00" xmlns="http://www.w3.org/2000/svg" xmlns:xlink="http://www.w3.org/1999/xlink">
<g id="graph0" class="graph" transform="scale(1 1) rotate(0) translate(4 133)">
<title>Graphical Class Hierarchy</title>
<polygon fill="white" stroke="transparent" points="-4,4 -4,-133 371,-133 371,4 -4,4"/>
<!-- Node0 -->
<g id="node1" class="node">
<title>Node0</title>
<g id="a_node1"><a xlink:href="classstereocam_1_1IStereoInference.html" target="_top" xlink:title="Abstract interface for stereo disparity inference backends.">
<polygon fill="white" stroke="black" points="0,-55 0,-74 155,-74 155,-55 0,-55"/>
<text text-anchor="middle" x="77.5" y="-62" font-family="Helvetica,sans-Serif" font-size="10.00">stereocam::IStereoInference</text>
</a>
</g>
</g>
<!-- Node1 -->
<g id="node2" class="node">
<title>Node1</title>
<g id="a_node2"><a xlink:href="classstereocam_1_1ONNXRuntimeStereoInference.html" target="_top" xlink:title="ONNX Runtime stereo inference (IStereoInference).">
<polygon fill="white" stroke="black" points="191,-98.5 191,-128.5 367,-128.5 367,-98.5 191,-98.5"/>
<text text-anchor="start" x="199" y="-116.5" font-family="Helvetica,sans-Serif" font-size="10.00">stereocam::ONNXRuntimeStereo</text>
<text text-anchor="middle" x="279" y="-105.5" font-family="Helvetica,sans-Serif" font-size="10.00">Inference</text>
</a>
</g>
</g>
<!-- Node0&#45;&gt;Node1 -->
<g id="edge1" class="edge">
<title>Node0&#45;&gt;Node1</title>
<path fill="none" stroke="midnightblue" d="M127.41,-76.51C154.37,-83.14 188.09,-91.42 216.78,-98.46"/>
<polygon fill="midnightblue" stroke="midnightblue" points="127.99,-73.05 117.44,-74.06 126.32,-79.85 127.99,-73.05"/>
</g>
<!-- Node2 -->
<g id="node3" class="node">
<title>Node2</title>
<g id="a_node3"><a xlink:href="classstereocam_1_1OpenVINOStereoInference.html" target="_top" xlink:title="OpenVINO stereo inference (IStereoInference).">
<polygon fill="white" stroke="black" points="201,-49.5 201,-79.5 357,-79.5 357,-49.5 201,-49.5"/>
<text text-anchor="start" x="209" y="-67.5" font-family="Helvetica,sans-Serif" font-size="10.00">stereocam::OpenVINOStereo</text>
<text text-anchor="middle" x="279" y="-56.5" font-family="Helvetica,sans-Serif" font-size="10.00">Inference</text>
</a>
</g>
</g>
<!-- Node0&#45;&gt;Node2 -->
<g id="edge2" class="edge">
<title>Node0&#45;&gt;Node2</title>
<path fill="none" stroke="midnightblue" d="M165.39,-64.5C177.24,-64.5 189.33,-64.5 200.98,-64.5"/>
<polygon fill="midnightblue" stroke="midnightblue" points="165.06,-61 155.06,-64.5 165.06,-68 165.06,-61"/>
</g>
<!-- Node3 -->
<g id="node4" class="node">
<title>Node3</title>
<g id="a_node4"><a xlink:href="classstereocam_1_1TensorRTStereoInference.html" target="_top" xlink:title="TensorRT stereo inference (IStereoInference).">
<polygon fill="white" stroke="black" points="204.5,-0.5 204.5,-30.5 353.5,-30.5 353.5,-0.5 204.5,-0.5"/>
<text text-anchor="start" x="212.5" y="-18.5" font-family="Helvetica,sans-Serif" font-size="10.00">stereocam::TensorRTStereo</text>
<text text-anchor="middle" x="279" y="-7.5" font-family="Helvetica,sans-Serif" font-size="10.00">Inference</text>
</a>
</g>
</g>
<!-- Node0&#45;&gt;Node3 -->
<g id="edge3" class="edge">
<title>Node0&#45;&gt;Node3</title>
<path fill="none" stroke="midnightblue" d="M127.41,-52.49C154.37,-45.86 188.09,-37.58 216.78,-30.54"/>
<polygon fill="midnightblue" stroke="midnightblue" points="126.32,-49.15 117.44,-54.94 127.99,-55.95 126.32,-49.15"/>
</g>
</g>
</svg>
