<?xml version="1.0" encoding="UTF-8" standalone="no"?>
<!DOCTYPE svg PUBLIC "-//W3C//DTD SVG 1.1//EN"
 "http://www.w3.org/Graphics/SVG/1.1/DTD/svg11.dtd">
<!-- Generated by graphviz version 2.43.0 (0)
 -->
<!-- Title: Graphical Class Hierarchy Pages: 1 -->
<svg width="285pt" height="66pt"
 viewBox="0.00 0.00 285.00 66.00" xmlns="http://www.w3.org/2000/svg" xmlns:xlink="http://www.w3.org/1999/xlink">
<g id="graph0" class="graph" transform="scale(1 1) rotate(0) translate(4 62)">
<title>Graphical Class Hierarchy</title>
<polygon fill="white" stroke="transparent" points="-4,4 -4,-62 281,-62 281,4 -4,4"/>
<!-- Node0 -->
<g id="node1" class="node">
<title>Node0</title>
<g id="a_node1"><a xlink:href="classIDepthFilter.html" target="_top" xlink:title="Pure&#45;virtual interface for a single&#45;stage depth / disparity filter.">
<polygon fill="white" stroke="black" points="0,-19.5 0,-38.5 74,-38.5 74,-19.5 0,-19.5"/>
<text text-anchor="middle" x="37" y="-26.5" font-family="Helvetica,sans-Serif" font-size="10.00">IDepthFilter</text>
</a>
</g>
</g>
<!-- Node1 -->
<g id="node2" class="node">
<title>Node1</title>
<g id="a_node2"><a xlink:href="classAdaptiveTemporalFilterV2.html" target="_top" xlink:title="Adaptive Exponential Moving Average (EMA) filter for depth map stabilisation.">
<polygon fill="white" stroke="black" points="122,-38.5 122,-57.5 265,-57.5 265,-38.5 122,-38.5"/>
<text text-anchor="middle" x="193.5" y="-45.5" font-family="Helvetica,sans-Serif" font-size="10.00">AdaptiveTemporalFilterV2</text>
</a>
</g>
</g>
<!-- Node0&#45;&gt;Node1 -->
<g id="edge1" class="edge">
<title>Node0&#45;&gt;Node1</title>
<path fill="none" stroke="midnightblue" d="M84.29,-34.69C96.13,-36.15 109.13,-37.75 121.89,-39.32"/>
<polygon fill="midnightblue" stroke="midnightblue" points="84.58,-31.2 74.22,-33.45 83.72,-38.15 84.58,-31.2"/>
</g>
<!-- Node2 -->
<g id="node3" class="node">
<title>Node2</title>
<g id="a_node3"><a xlink:href="classAdaptiveTemporalKalmanFilter.html" target="_top" xlink:title="Per&#45;pixel adaptive Kalman filter for depth / disparity map stabilisation.">
<polygon fill="white" stroke="black" points="110,-0.5 110,-19.5 277,-19.5 277,-0.5 110,-0.5"/>
<text text-anchor="middle" x="193.5" y="-7.5" font-family="Helvetica,sans-Serif" font-size="10.00">AdaptiveTemporalKalmanFilter</text>
</a>
</g>
</g>
<!-- Node0&#45;&gt;Node2 -->
<g id="edge2" class="edge">
<title>Node0&#45;&gt;Node2</title>
<path fill="none" stroke="midnightblue" d="M84.41,-23.29C94.11,-22.1 104.59,-20.81 115.07,-19.52"/>
<polygon fill="midnightblue" stroke="midnightblue" points="83.72,-19.85 74.22,-24.55 84.58,-26.8 83.72,-19.85"/>
</g>
</g>
</svg>
