<?xml version="1.0" encoding="UTF-8" standalone="no"?>
<!DOCTYPE svg PUBLIC "-//W3C//DTD SVG 1.1//EN"
 "http://www.w3.org/Graphics/SVG/1.1/DTD/svg11.dtd">
<!-- Generated by graphviz version 2.43.0 (0)
 -->
<!-- Title: Graphical Class Hierarchy Pages: 1 -->
<svg width="1132pt" height="813pt"
 viewBox="0.00 0.00 1132.00 813.00" xmlns="http://www.w3.org/2000/svg" xmlns:xlink="http://www.w3.org/1999/xlink">
<g id="graph0" class="graph" transform="scale(1 1) rotate(0) translate(4 809)">
<title>Graphical Class Hierarchy</title>
<polygon fill="white" stroke="transparent" points="-4,4 -4,-809 1128,-809 1128,4 -4,4"/>
<!-- Node0 -->
<g id="node1" class="node">
<title>Node0</title>
<g id="a_node1"><a xlink:href="classdepz__camera__sdk_1_1__controls_1_1ControlOwner.html" target="_top" xlink:title=" ">
<polygon fill="white" stroke="black" points="0,-612.5 0,-642.5 155,-642.5 155,-612.5 0,-612.5"/>
<text text-anchor="start" x="8" y="-630.5" font-family="Helvetica,sans-Serif" font-size="10.00">depz_camera_sdk._controls.</text>
<text text-anchor="middle" x="77.5" y="-619.5" font-family="Helvetica,sans-Serif" font-size="10.00">ControlOwner</text>
</a>
</g>
</g>
<!-- Node1 -->
<g id="node2" class="node">
<title>Node1</title>
<g id="a_node2"><a xlink:href="classdepz__camera__sdk_1_1calibration_1_1base_1_1Calibration.html" target="_top" xlink:title=" ">
<polygon fill="white" stroke="black" points="191,-466.5 191,-496.5 379,-496.5 379,-466.5 191,-466.5"/>
<text text-anchor="start" x="199" y="-484.5" font-family="Helvetica,sans-Serif" font-size="10.00">depz_camera_sdk.calibration.base.</text>
<text text-anchor="middle" x="285" y="-473.5" font-family="Helvetica,sans-Serif" font-size="10.00">Calibration</text>
</a>
</g>
</g>
<!-- Node0&#45;&gt;Node1 -->
<g id="edge1" class="edge">
<title>Node0&#45;&gt;Node1</title>
<path fill="none" stroke="midnightblue" d="M108.13,-606.45C150.05,-576.66 225.69,-522.93 262.59,-496.71"/>
<polygon fill="midnightblue" stroke="midnightblue" points="105.84,-603.78 99.72,-612.43 109.9,-609.49 105.84,-603.78"/>
</g>
<!-- Node5 -->
<g id="node6" class="node">
<title>Node5</title>
<g id="a_node6"><a xlink:href="classdepz__camera__sdk_1_1inference_1_1base_1_1DepthInferenceBase.html" target="_top" xlink:title=" ">
<polygon fill="white" stroke="black" points="194,-612.5 194,-642.5 376,-642.5 376,-612.5 194,-612.5"/>
<text text-anchor="start" x="202" y="-630.5" font-family="Helvetica,sans-Serif" font-size="10.00">depz_camera_sdk.inference.base.</text>
<text text-anchor="middle" x="285" y="-619.5" font-family="Helvetica,sans-Serif" font-size="10.00">DepthInferenceBase</text>
</a>
</g>
</g>
<!-- Node0&#45;&gt;Node5 -->
<g id="edge5" class="edge">
<title>Node0&#45;&gt;Node5</title>
<path fill="none" stroke="midnightblue" d="M165.22,-627.5C174.7,-627.5 184.37,-627.5 193.89,-627.5"/>
<polygon fill="midnightblue" stroke="midnightblue" points="165.02,-624 155.02,-627.5 165.02,-631 165.02,-624"/>
</g>
<!-- Node16 -->
<g id="node17" class="node">
<title>Node16</title>
<g id="a_node17"><a xlink:href="classdepz__camera__sdk_1_1pipeline_1_1depth__pipeline_1_1DepthPipeline.html" target="_top" xlink:title=" ">
<polygon fill="white" stroke="black" points="196.5,-661.5 196.5,-691.5 373.5,-691.5 373.5,-661.5 196.5,-661.5"/>
<text text-anchor="start" x="204.5" y="-679.5" font-family="Helvetica,sans-Serif" font-size="10.00">depz_camera_sdk.pipeline.depth</text>
<text text-anchor="middle" x="285" y="-668.5" font-family="Helvetica,sans-Serif" font-size="10.00">_pipeline.DepthPipeline</text>
</a>
</g>
</g>
<!-- Node0&#45;&gt;Node16 -->
<g id="edge18" class="edge">
<title>Node0&#45;&gt;Node16</title>
<path fill="none" stroke="midnightblue" d="M151.49,-644.9C174.22,-650.32 199.08,-656.25 221.07,-661.49"/>
<polygon fill="midnightblue" stroke="midnightblue" points="152.09,-641.45 141.55,-642.53 150.47,-648.26 152.09,-641.45"/>
</g>
<!-- Node2 -->
<g id="node3" class="node">
<title>Node2</title>
<g id="a_node3"><a xlink:href="classdepz__camera__sdk_1_1calibration_1_1opencv__basic_1_1OpenCVBasicCalibration.html" target="_top" xlink:title=" ">
<polygon fill="white" stroke="black" points="429,-441.5 429,-471.5 626,-471.5 626,-441.5 429,-441.5"/>
<text text-anchor="start" x="437" y="-459.5" font-family="Helvetica,sans-Serif" font-size="10.00">depz_camera_sdk.calibration.opencv</text>
<text text-anchor="middle" x="527.5" y="-448.5" font-family="Helvetica,sans-Serif" font-size="10.00">_basic.OpenCVBasicCalibration</text>
</a>
</g>
</g>
<!-- Node1&#45;&gt;Node2 -->
<g id="edge2" class="edge">
<title>Node1&#45;&gt;Node2</title>
<path fill="none" stroke="midnightblue" d="M389.3,-470.76C402.42,-469.4 415.82,-468.01 428.85,-466.65"/>
<polygon fill="midnightblue" stroke="midnightblue" points="388.91,-467.28 379.33,-471.8 389.64,-474.25 388.91,-467.28"/>
</g>
<!-- Node4 -->
<g id="node5" class="node">
<title>Node4</title>
<g id="a_node5"><a xlink:href="classdepz__camera__sdk_1_1calibration_1_1opencv__fisheye_1_1OpenCVFisheyeCalibration.html" target="_top" xlink:title=" ">
<polygon fill="white" stroke="black" points="429,-490.5 429,-520.5 626,-520.5 626,-490.5 429,-490.5"/>
<text text-anchor="start" x="437" y="-508.5" font-family="Helvetica,sans-Serif" font-size="10.00">depz_camera_sdk.calibration.opencv</text>
<text text-anchor="middle" x="527.5" y="-497.5" font-family="Helvetica,sans-Serif" font-size="10.00">_fisheye.OpenCVFisheyeCalibration</text>
</a>
</g>
</g>
<!-- Node1&#45;&gt;Node4 -->
<g id="edge4" class="edge">
<title>Node1&#45;&gt;Node4</title>
<path fill="none" stroke="midnightblue" d="M389.3,-491.81C402.42,-493.12 415.82,-494.46 428.85,-495.76"/>
<polygon fill="midnightblue" stroke="midnightblue" points="389.63,-488.32 379.33,-490.81 388.93,-495.29 389.63,-488.32"/>
</g>
<!-- Node3 -->
<g id="node4" class="node">
<title>Node3</title>
<g id="a_node4"><a xlink:href="classdepz__camera__sdk_1_1calibration_1_1opencv__basic_1_1OpenCV5Calibration.html" target="_top" xlink:title=" ">
<polygon fill="white" stroke="black" points="676.5,-441.5 676.5,-471.5 873.5,-471.5 873.5,-441.5 676.5,-441.5"/>
<text text-anchor="start" x="684.5" y="-459.5" font-family="Helvetica,sans-Serif" font-size="10.00">depz_camera_sdk.calibration.opencv</text>
<text text-anchor="middle" x="775" y="-448.5" font-family="Helvetica,sans-Serif" font-size="10.00">_basic.OpenCV5Calibration</text>
</a>
</g>
</g>
<!-- Node2&#45;&gt;Node3 -->
<g id="edge3" class="edge">
<title>Node2&#45;&gt;Node3</title>
<path fill="none" stroke="midnightblue" d="M636.32,-456.5C649.59,-456.5 663.09,-456.5 676.2,-456.5"/>
<polygon fill="midnightblue" stroke="midnightblue" points="636.23,-453 626.23,-456.5 636.23,-460 636.23,-453"/>
</g>
<!-- Node6 -->
<g id="node7" class="node">
<title>Node6</title>
<g id="a_node7"><a xlink:href="classdepz__camera__sdk_1_1inference_1_1base_1_1NeuralInferenceBase.html" target="_top" xlink:title=" ">
<polygon fill="white" stroke="black" points="436.5,-686.5 436.5,-716.5 618.5,-716.5 618.5,-686.5 436.5,-686.5"/>
<text text-anchor="start" x="444.5" y="-704.5" font-family="Helvetica,sans-Serif" font-size="10.00">depz_camera_sdk.inference.base.</text>
<text text-anchor="middle" x="527.5" y="-693.5" font-family="Helvetica,sans-Serif" font-size="10.00">NeuralInferenceBase</text>
</a>
</g>
</g>
<!-- Node5&#45;&gt;Node6 -->
<g id="edge6" class="edge">
<title>Node5&#45;&gt;Node6</title>
<path fill="none" stroke="midnightblue" d="M362.59,-645.79C368.23,-647.83 373.75,-650.06 379,-652.5 396.67,-660.71 397.13,-669.74 415,-677.5 422.9,-680.93 431.34,-683.89 439.9,-686.43"/>
<polygon fill="midnightblue" stroke="midnightblue" points="363.63,-642.44 353.04,-642.53 361.37,-649.07 363.63,-642.44"/>
</g>
<!-- Node11 -->
<g id="node12" class="node">
<title>Node11</title>
<g id="a_node12"><a xlink:href="classdepz__camera__sdk_1_1inference_1_1cpp__adapter_1_1CppInferenceAdapter.html" target="_top" xlink:title=" ">
<polygon fill="white" stroke="black" points="441,-637.5 441,-667.5 614,-667.5 614,-637.5 441,-637.5"/>
<text text-anchor="start" x="449" y="-655.5" font-family="Helvetica,sans-Serif" font-size="10.00">depz_camera_sdk.inference.cpp</text>
<text text-anchor="middle" x="527.5" y="-644.5" font-family="Helvetica,sans-Serif" font-size="10.00">_adapter.CppInferenceAdapter</text>
</a>
</g>
</g>
<!-- Node5&#45;&gt;Node11 -->
<g id="edge11" class="edge">
<title>Node5&#45;&gt;Node11</title>
<path fill="none" stroke="midnightblue" d="M386.26,-637.92C404.43,-639.81 423.23,-641.77 440.93,-643.61"/>
<polygon fill="midnightblue" stroke="midnightblue" points="386.55,-634.43 376.24,-636.88 385.82,-641.4 386.55,-634.43"/>
</g>
<!-- Node12 -->
<g id="node13" class="node">
<title>Node12</title>
<g id="a_node13"><a xlink:href="classdepz__camera__sdk_1_1inference_1_1native__classical_1_1NativeClassicalInferenceBase.html" target="_top" xlink:title=" ">
<polygon fill="white" stroke="black" points="421.5,-588.5 421.5,-618.5 633.5,-618.5 633.5,-588.5 421.5,-588.5"/>
<text text-anchor="start" x="429.5" y="-606.5" font-family="Helvetica,sans-Serif" font-size="10.00">depz_camera_sdk.inference.native</text>
<text text-anchor="middle" x="527.5" y="-595.5" font-family="Helvetica,sans-Serif" font-size="10.00">_classical.NativeClassicalInferenceBase</text>
</a>
</g>
</g>
<!-- Node5&#45;&gt;Node12 -->
<g id="edge12" class="edge">
<title>Node5&#45;&gt;Node12</title>
<path fill="none" stroke="midnightblue" d="M386.29,-617.49C397.81,-616.34 409.59,-615.17 421.18,-614.01"/>
<polygon fill="midnightblue" stroke="midnightblue" points="385.84,-614.02 376.24,-618.5 386.54,-620.98 385.84,-614.02"/>
</g>
<!-- Node13 -->
<g id="node14" class="node">
<title>Node13</title>
<g id="a_node14"><a xlink:href="classdepz__camera__sdk_1_1inference_1_1native__classical_1_1NativeRectifyOnlyInferenceBase.html" target="_top" xlink:title=" ">
<polygon fill="white" stroke="black" points="415,-539.5 415,-569.5 640,-569.5 640,-539.5 415,-539.5"/>
<text text-anchor="start" x="423" y="-557.5" font-family="Helvetica,sans-Serif" font-size="10.00">depz_camera_sdk.inference.native</text>
<text text-anchor="middle" x="527.5" y="-546.5" font-family="Helvetica,sans-Serif" font-size="10.00">_classical.NativeRectifyOnlyInferenceBase</text>
</a>
</g>
</g>
<!-- Node5&#45;&gt;Node13 -->
<g id="edge13" class="edge">
<title>Node5&#45;&gt;Node13</title>
<path fill="none" stroke="midnightblue" d="M331.9,-608.69C356.31,-599.13 386.99,-587.81 415,-579.5 427.17,-575.89 440.23,-572.52 452.96,-569.5"/>
<polygon fill="midnightblue" stroke="midnightblue" points="330.54,-605.46 322.53,-612.4 333.11,-611.97 330.54,-605.46"/>
</g>
<!-- Node14 -->
<g id="node15" class="node">
<title>Node14</title>
<g id="a_node15"><a xlink:href="classdepz__camera__sdk_1_1inference_1_1native__runtime_1_1__NativeNeuralRuntimeBase.html" target="_top" xlink:title=" ">
<polygon fill="white" stroke="black" points="676,-735.5 676,-765.5 874,-765.5 874,-735.5 676,-735.5"/>
<text text-anchor="start" x="684" y="-753.5" font-family="Helvetica,sans-Serif" font-size="10.00">depz_camera_sdk.inference.native</text>
<text text-anchor="middle" x="775" y="-742.5" font-family="Helvetica,sans-Serif" font-size="10.00">_runtime._NativeNeuralRuntimeBase</text>
</a>
</g>
</g>
<!-- Node5&#45;&gt;Node14 -->
<g id="edge14" class="edge">
<title>Node5&#45;&gt;Node14</title>
<path fill="none" stroke="midnightblue" d="M372.62,-647.8C374.84,-649.26 376.97,-650.82 379,-652.5 407.2,-675.79 384.66,-706.08 415,-726.5 456.13,-754.18 584.3,-756.76 675.75,-754.73"/>
<polygon fill="midnightblue" stroke="midnightblue" points="374.13,-644.63 363.72,-642.66 370.63,-650.69 374.13,-644.63"/>
</g>
<!-- Node15 -->
<g id="node16" class="node">
<title>Node15</title>
<g id="a_node16"><a xlink:href="classdepz__camera__sdk_1_1inference_1_1neural__compat_1_1__NeuralCompatBase.html" target="_top" xlink:title=" ">
<polygon fill="white" stroke="black" points="434,-774.5 434,-804.5 621,-804.5 621,-774.5 434,-774.5"/>
<text text-anchor="start" x="442" y="-792.5" font-family="Helvetica,sans-Serif" font-size="10.00">depz_camera_sdk.inference.neural</text>
<text text-anchor="middle" x="527.5" y="-781.5" font-family="Helvetica,sans-Serif" font-size="10.00">_compat._NeuralCompatBase</text>
</a>
</g>
</g>
<!-- Node5&#45;&gt;Node15 -->
<g id="edge17" class="edge">
<title>Node5&#45;&gt;Node15</title>
<path fill="none" stroke="midnightblue" d="M373.7,-648.04C375.55,-649.43 377.32,-650.92 379,-652.5 415.56,-686.86 378.44,-725.13 415,-759.5 421.5,-765.61 429.11,-770.5 437.24,-774.42"/>
<polygon fill="midnightblue" stroke="midnightblue" points="375.46,-645.02 365.17,-642.51 371.66,-650.89 375.46,-645.02"/>
</g>
<!-- Node7 -->
<g id="node8" class="node">
<title>Node7</title>
<g id="a_node8"><a xlink:href="classdepz__camera__sdk_1_1inference_1_1base_1_1NeuralMonoInferenceBase.html" target="_top" xlink:title=" ">
<polygon fill="white" stroke="black" points="684,-637.5 684,-667.5 866,-667.5 866,-637.5 684,-637.5"/>
<text text-anchor="start" x="692" y="-655.5" font-family="Helvetica,sans-Serif" font-size="10.00">depz_camera_sdk.inference.base.</text>
<text text-anchor="middle" x="775" y="-644.5" font-family="Helvetica,sans-Serif" font-size="10.00">NeuralMonoInferenceBase</text>
</a>
</g>
</g>
<!-- Node6&#45;&gt;Node7 -->
<g id="edge7" class="edge">
<title>Node6&#45;&gt;Node7</title>
<path fill="none" stroke="midnightblue" d="M613.87,-684.46C641.52,-678.94 671.96,-672.87 698.82,-667.51"/>
<polygon fill="midnightblue" stroke="midnightblue" points="612.95,-681.08 603.83,-686.47 614.32,-687.94 612.95,-681.08"/>
</g>
<!-- Node9 -->
<g id="node10" class="node">
<title>Node9</title>
<g id="a_node10"><a xlink:href="classdepz__camera__sdk_1_1inference_1_1base_1_1NeuralStereoInferenceBase.html" target="_top" xlink:title=" ">
<polygon fill="white" stroke="black" points="684,-686.5 684,-716.5 866,-716.5 866,-686.5 684,-686.5"/>
<text text-anchor="start" x="692" y="-704.5" font-family="Helvetica,sans-Serif" font-size="10.00">depz_camera_sdk.inference.base.</text>
<text text-anchor="middle" x="775" y="-693.5" font-family="Helvetica,sans-Serif" font-size="10.00">NeuralStereoInferenceBase</text>
</a>
</g>
</g>
<!-- Node6&#45;&gt;Node9 -->
<g id="edge9" class="edge">
<title>Node6&#45;&gt;Node9</title>
<path fill="none" stroke="midnightblue" d="M628.62,-701.5C646.95,-701.5 665.98,-701.5 683.99,-701.5"/>
<polygon fill="midnightblue" stroke="midnightblue" points="628.52,-698 618.52,-701.5 628.52,-705 628.52,-698"/>
</g>
<!-- Node8 -->
<g id="node9" class="node">
<title>Node8</title>
<g id="a_node9"><a xlink:href="classdepz__camera__sdk_1_1inference_1_1native__runtime_1_1NativeMonoInferenceRuntime.html" target="_top" xlink:title=" ">
<polygon fill="white" stroke="black" points="912.5,-661.5 912.5,-691.5 1121.5,-691.5 1121.5,-661.5 912.5,-661.5"/>
<text text-anchor="start" x="920.5" y="-679.5" font-family="Helvetica,sans-Serif" font-size="10.00">depz_camera_sdk.inference.native</text>
<text text-anchor="middle" x="1017" y="-668.5" font-family="Helvetica,sans-Serif" font-size="10.00">_runtime.NativeMonoInferenceRuntime</text>
</a>
</g>
</g>
<!-- Node7&#45;&gt;Node8 -->
<g id="edge8" class="edge">
<title>Node7&#45;&gt;Node8</title>
<path fill="none" stroke="midnightblue" d="M876.36,-662.54C888.18,-663.72 900.26,-664.93 912.12,-666.11"/>
<polygon fill="midnightblue" stroke="midnightblue" points="876.35,-659.02 866.05,-661.5 875.65,-665.98 876.35,-659.02"/>
</g>
<!-- Node10 -->
<g id="node11" class="node">
<title>Node10</title>
<g id="a_node11"><a xlink:href="classdepz__camera__sdk_1_1inference_1_1native__runtime_1_1NativeStereoInferenceRuntime.html" target="_top" xlink:title=" ">
<polygon fill="white" stroke="black" points="910,-722.5 910,-752.5 1124,-752.5 1124,-722.5 910,-722.5"/>
<text text-anchor="start" x="918" y="-740.5" font-family="Helvetica,sans-Serif" font-size="10.00">depz_camera_sdk.inference.native</text>
<text text-anchor="middle" x="1017" y="-729.5" font-family="Helvetica,sans-Serif" font-size="10.00">_runtime.NativeStereoInferenceRuntime</text>
</a>
</g>
</g>
<!-- Node9&#45;&gt;Node10 -->
<g id="edge10" class="edge">
<title>Node9&#45;&gt;Node10</title>
<path fill="none" stroke="midnightblue" d="M876.02,-716.5C889.17,-718.47 902.64,-720.5 915.78,-722.47"/>
<polygon fill="midnightblue" stroke="midnightblue" points="876.46,-713.03 866.05,-715.01 875.42,-719.95 876.46,-713.03"/>
</g>
<!-- Node14&#45;&gt;Node8 -->
<g id="edge15" class="edge">
<title>Node14&#45;&gt;Node8</title>
<path fill="none" stroke="midnightblue" d="M851.35,-732.91C859.03,-730.86 866.69,-728.71 874,-726.5 890.28,-721.58 893.97,-719.19 910,-713.5 930.57,-706.2 953.43,-698.2 972.64,-691.52"/>
<polygon fill="midnightblue" stroke="midnightblue" points="850.42,-729.54 841.63,-735.45 852.19,-736.31 850.42,-729.54"/>
</g>
<!-- Node14&#45;&gt;Node10 -->
<g id="edge16" class="edge">
<title>Node14&#45;&gt;Node10</title>
<path fill="none" stroke="midnightblue" d="M884.47,-744.62C892.84,-744.17 901.29,-743.71 909.65,-743.26"/>
<polygon fill="midnightblue" stroke="midnightblue" points="884.11,-741.14 874.31,-745.17 884.48,-748.13 884.11,-741.14"/>
</g>
<!-- Node192 -->
<g id="node18" class="node">
<title>Node192</title>
<g id="a_node18"><a xlink:title=" ">
<polygon fill="white" stroke="#bfbfbf" points="59,-325 59,-344 96,-344 96,-325 59,-325"/>
<text text-anchor="middle" x="77.5" y="-332" font-family="Helvetica,sans-Serif" font-size="10.00">ABC</text>
</a>
</g>
</g>
<!-- Node192&#45;&gt;Node1 -->
<g id="edge19" class="edge">
<title>Node192&#45;&gt;Node1</title>
<path fill="none" stroke="midnightblue" d="M100.18,-350.01C139.8,-378.35 223.44,-438.18 262.75,-466.3"/>
<polygon fill="midnightblue" stroke="midnightblue" points="102.15,-347.12 91.98,-344.15 98.08,-352.81 102.15,-347.12"/>
</g>
<!-- Node192&#45;&gt;Node5 -->
<g id="edge24" class="edge">
<title>Node192&#45;&gt;Node5</title>
<path fill="none" stroke="midnightblue" d="M90.01,-353.09C109.88,-384.97 152.26,-451.92 191,-506.5 218.76,-545.61 253.75,-589.9 271.88,-612.5"/>
<polygon fill="midnightblue" stroke="midnightblue" points="92.84,-351.02 84.59,-344.37 86.9,-354.71 92.84,-351.02"/>
</g>
<!-- Node193 -->
<g id="node19" class="node">
<title>Node193</title>
<g id="a_node19"><a xlink:href="classdepz__camera__sdk_1_1engines_1_1base_1_1InferenceEngine.html" target="_top" xlink:title=" ">
<polygon fill="white" stroke="black" points="197.5,-270.5 197.5,-300.5 372.5,-300.5 372.5,-270.5 197.5,-270.5"/>
<text text-anchor="start" x="205.5" y="-288.5" font-family="Helvetica,sans-Serif" font-size="10.00">depz_camera_sdk.engines.base.</text>
<text text-anchor="middle" x="285" y="-277.5" font-family="Helvetica,sans-Serif" font-size="10.00">InferenceEngine</text>
</a>
</g>
</g>
<!-- Node192&#45;&gt;Node193 -->
<g id="edge20" class="edge">
<title>Node192&#45;&gt;Node193</title>
<path fill="none" stroke="midnightblue" d="M105.92,-327.96C135.13,-321 182.36,-309.73 220.85,-300.56"/>
<polygon fill="midnightblue" stroke="midnightblue" points="104.94,-324.6 96.02,-330.32 106.56,-331.41 104.94,-324.6"/>
</g>
<!-- Node197 -->
<g id="node23" class="node">
<title>Node197</title>
<g id="a_node23"><a xlink:href="classdepz__camera__sdk_1_1platform_1_1base_1_1CameraControls.html" target="_top" xlink:title=" ">
<polygon fill="white" stroke="black" points="195.5,-147.5 195.5,-177.5 374.5,-177.5 374.5,-147.5 195.5,-147.5"/>
<text text-anchor="start" x="203.5" y="-165.5" font-family="Helvetica,sans-Serif" font-size="10.00">depz_camera_sdk.platform.base.</text>
<text text-anchor="middle" x="285" y="-154.5" font-family="Helvetica,sans-Serif" font-size="10.00">CameraControls</text>
</a>
</g>
</g>
<!-- Node192&#45;&gt;Node197 -->
<g id="edge25" class="edge">
<title>Node192&#45;&gt;Node197</title>
<path fill="none" stroke="midnightblue" d="M98.04,-318.14C137.81,-284.86 227.63,-209.68 266.03,-177.54"/>
<polygon fill="midnightblue" stroke="midnightblue" points="95.56,-315.66 90.14,-324.76 100.05,-321.03 95.56,-315.66"/>
</g>
<!-- Node200 -->
<g id="node26" class="node">
<title>Node200</title>
<g id="a_node26"><a xlink:href="classdepz__camera__sdk_1_1platform_1_1base_1_1PlatformBackend.html" target="_top" xlink:title=" ">
<polygon fill="white" stroke="black" points="195.5,-49.5 195.5,-79.5 374.5,-79.5 374.5,-49.5 195.5,-49.5"/>
<text text-anchor="start" x="203.5" y="-67.5" font-family="Helvetica,sans-Serif" font-size="10.00">depz_camera_sdk.platform.base.</text>
<text text-anchor="middle" x="285" y="-56.5" font-family="Helvetica,sans-Serif" font-size="10.00">PlatformBackend</text>
</a>
</g>
</g>
<!-- Node192&#45;&gt;Node200 -->
<g id="edge28" class="edge">
<title>Node192&#45;&gt;Node200</title>
<path fill="none" stroke="midnightblue" d="M86.57,-315.01C102.63,-277.75 141.34,-195.03 191,-137.5 211.12,-114.19 239.59,-93.14 259.72,-79.69"/>
<polygon fill="midnightblue" stroke="midnightblue" points="83.17,-314.07 82.49,-324.64 89.62,-316.8 83.17,-314.07"/>
</g>
<!-- Node203 -->
<g id="node29" class="node">
<title>Node203</title>
<g id="a_node29"><a xlink:href="classdepz__camera__sdk_1_1sources_1_1base_1_1FrameSource.html" target="_top" xlink:title=" ">
<polygon fill="white" stroke="black" points="198,-343.5 198,-373.5 372,-373.5 372,-343.5 198,-343.5"/>
<text text-anchor="start" x="206" y="-361.5" font-family="Helvetica,sans-Serif" font-size="10.00">depz_camera_sdk.sources.base.</text>
<text text-anchor="middle" x="285" y="-350.5" font-family="Helvetica,sans-Serif" font-size="10.00">FrameSource</text>
</a>
</g>
</g>
<!-- Node192&#45;&gt;Node203 -->
<g id="edge31" class="edge">
<title>Node192&#45;&gt;Node203</title>
<path fill="none" stroke="midnightblue" d="M106.27,-337.74C129.78,-340.49 164.78,-344.58 197.52,-348.4"/>
<polygon fill="midnightblue" stroke="midnightblue" points="106.36,-334.23 96.02,-336.55 105.55,-341.18 106.36,-334.23"/>
</g>
<!-- Node194 -->
<g id="node20" class="node">
<title>Node194</title>
<g id="a_node20"><a xlink:href="classdepz__camera__sdk_1_1engines_1_1onnx__engine_1_1OnnxEngine.html" target="_top" xlink:title=" ">
<polygon fill="white" stroke="black" points="441,-294.5 441,-324.5 614,-324.5 614,-294.5 441,-294.5"/>
<text text-anchor="start" x="449" y="-312.5" font-family="Helvetica,sans-Serif" font-size="10.00">depz_camera_sdk.engines.onnx</text>
<text text-anchor="middle" x="527.5" y="-301.5" font-family="Helvetica,sans-Serif" font-size="10.00">_engine.OnnxEngine</text>
</a>
</g>
</g>
<!-- Node193&#45;&gt;Node194 -->
<g id="edge21" class="edge">
<title>Node193&#45;&gt;Node194</title>
<path fill="none" stroke="midnightblue" d="M383.01,-295.18C402.07,-297.08 421.94,-299.07 440.61,-300.93"/>
<polygon fill="midnightblue" stroke="midnightblue" points="383.12,-291.67 372.83,-294.16 382.43,-298.64 383.12,-291.67"/>
</g>
<!-- Node195 -->
<g id="node21" class="node">
<title>Node195</title>
<g id="a_node21"><a xlink:href="classdepz__camera__sdk_1_1engines_1_1openvino__engine_1_1OpenVINOEngine.html" target="_top" xlink:title=" ">
<polygon fill="white" stroke="black" points="430.5,-245.5 430.5,-275.5 624.5,-275.5 624.5,-245.5 430.5,-245.5"/>
<text text-anchor="start" x="438.5" y="-263.5" font-family="Helvetica,sans-Serif" font-size="10.00">depz_camera_sdk.engines.openvino</text>
<text text-anchor="middle" x="527.5" y="-252.5" font-family="Helvetica,sans-Serif" font-size="10.00">_engine.OpenVINOEngine</text>
</a>
</g>
</g>
<!-- Node193&#45;&gt;Node195 -->
<g id="edge22" class="edge">
<title>Node193&#45;&gt;Node195</title>
<path fill="none" stroke="midnightblue" d="M383.01,-275.42C398.64,-273.79 414.82,-272.11 430.43,-270.49"/>
<polygon fill="midnightblue" stroke="midnightblue" points="382.41,-271.96 372.83,-276.47 383.13,-278.92 382.41,-271.96"/>
</g>
<!-- Node196 -->
<g id="node22" class="node">
<title>Node196</title>
<g id="a_node22"><a xlink:href="classdepz__camera__sdk_1_1engines_1_1tensorrt__engine_1_1TensorRTEngine.html" target="_top" xlink:title=" ">
<polygon fill="white" stroke="black" points="434,-196.5 434,-226.5 621,-226.5 621,-196.5 434,-196.5"/>
<text text-anchor="start" x="442" y="-214.5" font-family="Helvetica,sans-Serif" font-size="10.00">depz_camera_sdk.engines.tensorrt</text>
<text text-anchor="middle" x="527.5" y="-203.5" font-family="Helvetica,sans-Serif" font-size="10.00">_engine.TensorRTEngine</text>
</a>
</g>
</g>
<!-- Node193&#45;&gt;Node196 -->
<g id="edge23" class="edge">
<title>Node193&#45;&gt;Node196</title>
<path fill="none" stroke="midnightblue" d="M329.96,-266.47C354.63,-256.3 386.15,-244.14 415,-235.5 425.91,-232.23 437.54,-229.23 449.02,-226.52"/>
<polygon fill="midnightblue" stroke="midnightblue" points="328.41,-263.33 320.52,-270.4 331.1,-269.79 328.41,-263.33"/>
</g>
<!-- Node198 -->
<g id="node24" class="node">
<title>Node198</title>
<g id="a_node24"><a xlink:href="classdepz__camera__sdk_1_1platform_1_1linux_1_1__LinuxCameraControls.html" target="_top" xlink:title=" ">
<polygon fill="white" stroke="black" points="438,-147.5 438,-177.5 617,-177.5 617,-147.5 438,-147.5"/>
<text text-anchor="start" x="446" y="-165.5" font-family="Helvetica,sans-Serif" font-size="10.00">depz_camera_sdk.platform.linux.</text>
<text text-anchor="middle" x="527.5" y="-154.5" font-family="Helvetica,sans-Serif" font-size="10.00">_LinuxCameraControls</text>
</a>
</g>
</g>
<!-- Node197&#45;&gt;Node198 -->
<g id="edge26" class="edge">
<title>Node197&#45;&gt;Node198</title>
<path fill="none" stroke="midnightblue" d="M384.78,-162.5C402.33,-162.5 420.51,-162.5 437.76,-162.5"/>
<polygon fill="midnightblue" stroke="midnightblue" points="384.53,-159 374.53,-162.5 384.53,-166 384.53,-159"/>
</g>
<!-- Node199 -->
<g id="node25" class="node">
<title>Node199</title>
<g id="a_node25"><a xlink:href="classdepz__camera__sdk_1_1platform_1_1windows_1_1__WindowsCameraControls.html" target="_top" xlink:title=" ">
<polygon fill="white" stroke="black" points="428.5,-98.5 428.5,-128.5 626.5,-128.5 626.5,-98.5 428.5,-98.5"/>
<text text-anchor="start" x="436.5" y="-116.5" font-family="Helvetica,sans-Serif" font-size="10.00">depz_camera_sdk.platform.windows.</text>
<text text-anchor="middle" x="527.5" y="-105.5" font-family="Helvetica,sans-Serif" font-size="10.00">_WindowsCameraControls</text>
</a>
</g>
</g>
<!-- Node197&#45;&gt;Node199 -->
<g id="edge27" class="edge">
<title>Node197&#45;&gt;Node199</title>
<path fill="none" stroke="midnightblue" d="M369.64,-145.46C396.72,-139.94 426.54,-133.87 452.85,-128.51"/>
<polygon fill="midnightblue" stroke="midnightblue" points="368.89,-142.04 359.79,-147.47 370.29,-148.9 368.89,-142.04"/>
</g>
<!-- Node201 -->
<g id="node27" class="node">
<title>Node201</title>
<g id="a_node27"><a xlink:href="classdepz__camera__sdk_1_1platform_1_1linux_1_1LinuxBackend.html" target="_top" xlink:title=" ">
<polygon fill="white" stroke="black" points="438,-49.5 438,-79.5 617,-79.5 617,-49.5 438,-49.5"/>
<text text-anchor="start" x="446" y="-67.5" font-family="Helvetica,sans-Serif" font-size="10.00">depz_camera_sdk.platform.linux.</text>
<text text-anchor="middle" x="527.5" y="-56.5" font-family="Helvetica,sans-Serif" font-size="10.00">LinuxBackend</text>
</a>
</g>
</g>
<!-- Node200&#45;&gt;Node201 -->
<g id="edge29" class="edge">
<title>Node200&#45;&gt;Node201</title>
<path fill="none" stroke="midnightblue" d="M384.78,-64.5C402.33,-64.5 420.51,-64.5 437.76,-64.5"/>
<polygon fill="midnightblue" stroke="midnightblue" points="384.53,-61 374.53,-64.5 384.53,-68 384.53,-61"/>
</g>
<!-- Node202 -->
<g id="node28" class="node">
<title>Node202</title>
<g id="a_node28"><a xlink:href="classdepz__camera__sdk_1_1platform_1_1windows_1_1WindowsBackend.html" target="_top" xlink:title=" ">
<polygon fill="white" stroke="black" points="428.5,-0.5 428.5,-30.5 626.5,-30.5 626.5,-0.5 428.5,-0.5"/>
<text text-anchor="start" x="436.5" y="-18.5" font-family="Helvetica,sans-Serif" font-size="10.00">depz_camera_sdk.platform.windows.</text>
<text text-anchor="middle" x="527.5" y="-7.5" font-family="Helvetica,sans-Serif" font-size="10.00">WindowsBackend</text>
</a>
</g>
</g>
<!-- Node200&#45;&gt;Node202 -->
<g id="edge30" class="edge">
<title>Node200&#45;&gt;Node202</title>
<path fill="none" stroke="midnightblue" d="M369.64,-47.46C396.72,-41.94 426.54,-35.87 452.85,-30.51"/>
<polygon fill="midnightblue" stroke="midnightblue" points="368.89,-44.04 359.79,-49.47 370.29,-50.9 368.89,-44.04"/>
</g>
<!-- Node204 -->
<g id="node30" class="node">
<title>Node204</title>
<g id="a_node30"><a xlink:href="classdepz__camera__sdk_1_1sources_1_1camera__source_1_1CameraSource.html" target="_top" xlink:title=" ">
<polygon fill="white" stroke="black" points="435,-343.5 435,-373.5 620,-373.5 620,-343.5 435,-343.5"/>
<text text-anchor="start" x="443" y="-361.5" font-family="Helvetica,sans-Serif" font-size="10.00">depz_camera_sdk.sources.camera</text>
<text text-anchor="middle" x="527.5" y="-350.5" font-family="Helvetica,sans-Serif" font-size="10.00">_source.CameraSource</text>
</a>
</g>
</g>
<!-- Node203&#45;&gt;Node204 -->
<g id="edge32" class="edge">
<title>Node203&#45;&gt;Node204</title>
<path fill="none" stroke="midnightblue" d="M382.27,-358.5C399.61,-358.5 417.65,-358.5 434.86,-358.5"/>
<polygon fill="midnightblue" stroke="midnightblue" points="382.15,-355 372.15,-358.5 382.15,-362 382.15,-355"/>
</g>
<!-- Node205 -->
<g id="node31" class="node">
<title>Node205</title>
<g id="a_node31"><a xlink:href="classdepz__camera__sdk_1_1sources_1_1mkv__source_1_1MkvSource.html" target="_top" xlink:title=" ">
<polygon fill="white" stroke="black" points="442.5,-392.5 442.5,-422.5 612.5,-422.5 612.5,-392.5 442.5,-392.5"/>
<text text-anchor="start" x="450.5" y="-410.5" font-family="Helvetica,sans-Serif" font-size="10.00">depz_camera_sdk.sources.mkv</text>
<text text-anchor="middle" x="527.5" y="-399.5" font-family="Helvetica,sans-Serif" font-size="10.00">_source.MkvSource</text>
</a>
</g>
</g>
<!-- Node203&#45;&gt;Node205 -->
<g id="edge33" class="edge">
<title>Node203&#45;&gt;Node205</title>
<path fill="none" stroke="midnightblue" d="M369.64,-375.54C396.72,-381.06 426.54,-387.13 452.85,-392.49"/>
<polygon fill="midnightblue" stroke="midnightblue" points="370.29,-372.1 359.79,-373.53 368.89,-378.96 370.29,-372.1"/>
</g>
</g>
</svg>
