<?xml version="1.0" encoding="UTF-8" standalone="no"?>
<!DOCTYPE svg PUBLIC "-//W3C//DTD SVG 1.1//EN"
 "http://www.w3.org/Graphics/SVG/1.1/DTD/svg11.dtd">
<!-- Generated by graphviz version 2.43.0 (0)
 -->
<!-- Title: Graphical Class Hierarchy Pages: 1 -->
<svg width="274pt" height="284pt"
 viewBox="0.00 0.00 274.00 284.00" xmlns="http://www.w3.org/2000/svg" xmlns:xlink="http://www.w3.org/1999/xlink">
<g id="graph0" class="graph" transform="scale(1 1) rotate(0) translate(4 280)">
<title>Graphical Class Hierarchy</title>
<polygon fill="white" stroke="transparent" points="-4,4 -4,-280 270,-280 270,4 -4,4"/>
<!-- Node2 -->
<g id="node1" class="node">
<title>Node2</title>
<g id="a_node1"><a xlink:title=" ">
<polygon fill="white" stroke="#bfbfbf" points="0,-128 0,-147 87,-147 87,-128 0,-128"/>
<text text-anchor="middle" x="43.5" y="-135" font-family="Helvetica,sans-Serif" font-size="10.00">AutoCloseable</text>
</a>
</g>
</g>
<!-- Node0 -->
<g id="node2" class="node">
<title>Node0</title>
<g id="a_node2"><a xlink:href="classcom_1_1istereolab_1_1depz_1_1DepzCalibration.html" target="_top" xlink:title="Stereo calibration loaded from JSON, with read&#45;only identity scalars.">
<polygon fill="white" stroke="black" points="123,-245.5 123,-275.5 266,-275.5 266,-245.5 123,-245.5"/>
<text text-anchor="start" x="131" y="-263.5" font-family="Helvetica,sans-Serif" font-size="10.00">com.istereolab.depz.Depz</text>
<text text-anchor="middle" x="194.5" y="-252.5" font-family="Helvetica,sans-Serif" font-size="10.00">Calibration</text>
</a>
</g>
</g>
<!-- Node2&#45;&gt;Node0 -->
<g id="edge1" class="edge">
<title>Node2&#45;&gt;Node0</title>
<path fill="none" stroke="midnightblue" d="M54.64,-155.95C67.7,-178.09 92.4,-214.92 123,-236.5 127.86,-239.93 133.25,-242.9 138.82,-245.47"/>
<polygon fill="midnightblue" stroke="midnightblue" points="57.63,-154.13 49.63,-147.18 51.55,-157.6 57.63,-154.13"/>
</g>
<!-- Node4 -->
<g id="node3" class="node">
<title>Node4</title>
<g id="a_node3"><a xlink:href="classcom_1_1istereolab_1_1depz_1_1DepzFrame.html" target="_top" xlink:title="One pipeline output packet.">
<polygon fill="white" stroke="black" points="123,-196.5 123,-226.5 266,-226.5 266,-196.5 123,-196.5"/>
<text text-anchor="start" x="131" y="-214.5" font-family="Helvetica,sans-Serif" font-size="10.00">com.istereolab.depz.Depz</text>
<text text-anchor="middle" x="194.5" y="-203.5" font-family="Helvetica,sans-Serif" font-size="10.00">Frame</text>
</a>
</g>
</g>
<!-- Node2&#45;&gt;Node4 -->
<g id="edge2" class="edge">
<title>Node2&#45;&gt;Node4</title>
<path fill="none" stroke="midnightblue" d="M65.82,-153.06C81.16,-163.75 102.67,-177.74 123,-187.5 129.76,-190.75 137.08,-193.75 144.35,-196.46"/>
<polygon fill="midnightblue" stroke="midnightblue" points="67.73,-150.12 57.55,-147.19 63.68,-155.83 67.73,-150.12"/>
</g>
<!-- Node5 -->
<g id="node4" class="node">
<title>Node5</title>
<g id="a_node4"><a xlink:href="classcom_1_1istereolab_1_1depz_1_1DepzInference.html" target="_top" xlink:title="A standalone neural inference — the small &quot;two images → disparity map&quot; primitive, with no camera,...">
<polygon fill="white" stroke="black" points="123,-147.5 123,-177.5 266,-177.5 266,-147.5 123,-147.5"/>
<text text-anchor="start" x="131" y="-165.5" font-family="Helvetica,sans-Serif" font-size="10.00">com.istereolab.depz.Depz</text>
<text text-anchor="middle" x="194.5" y="-154.5" font-family="Helvetica,sans-Serif" font-size="10.00">Inference</text>
</a>
</g>
</g>
<!-- Node2&#45;&gt;Node5 -->
<g id="edge3" class="edge">
<title>Node2&#45;&gt;Node5</title>
<path fill="none" stroke="midnightblue" d="M97.15,-146.33C105.51,-147.74 114.26,-149.21 122.95,-150.66"/>
<polygon fill="midnightblue" stroke="midnightblue" points="97.64,-142.87 87.2,-144.66 96.48,-149.77 97.64,-142.87"/>
</g>
<!-- Node6 -->
<g id="node5" class="node">
<title>Node6</title>
<g id="a_node5"><a xlink:href="classcom_1_1istereolab_1_1depz_1_1DepzPipeline.html" target="_top" xlink:title="High&#45;level wrapper over the C&#45;ABI.">
<polygon fill="white" stroke="black" points="123,-98.5 123,-128.5 266,-128.5 266,-98.5 123,-98.5"/>
<text text-anchor="start" x="131" y="-116.5" font-family="Helvetica,sans-Serif" font-size="10.00">com.istereolab.depz.Depz</text>
<text text-anchor="middle" x="194.5" y="-105.5" font-family="Helvetica,sans-Serif" font-size="10.00">Pipeline</text>
</a>
</g>
</g>
<!-- Node2&#45;&gt;Node6 -->
<g id="edge4" class="edge">
<title>Node2&#45;&gt;Node6</title>
<path fill="none" stroke="midnightblue" d="M97.15,-129.02C105.51,-127.67 114.26,-126.26 122.95,-124.86"/>
<polygon fill="midnightblue" stroke="midnightblue" points="96.51,-125.58 87.2,-130.62 97.63,-132.49 96.51,-125.58"/>
</g>
<!-- Node7 -->
<g id="node6" class="node">
<title>Node7</title>
<g id="a_node6"><a xlink:href="classcom_1_1istereolab_1_1depz_1_1DepzRecorder.html" target="_top" xlink:title="Mux raw still&#45;encoded frames (the camera&#39;s MJPG payload from DepzSource#grab) into a Matroska.">
<polygon fill="white" stroke="black" points="123,-49.5 123,-79.5 266,-79.5 266,-49.5 123,-49.5"/>
<text text-anchor="start" x="131" y="-67.5" font-family="Helvetica,sans-Serif" font-size="10.00">com.istereolab.depz.Depz</text>
<text text-anchor="middle" x="194.5" y="-56.5" font-family="Helvetica,sans-Serif" font-size="10.00">Recorder</text>
</a>
</g>
</g>
<!-- Node2&#45;&gt;Node7 -->
<g id="edge5" class="edge">
<title>Node2&#45;&gt;Node7</title>
<path fill="none" stroke="midnightblue" d="M66.5,-122.34C81.87,-112.18 103.11,-98.98 123,-89.5 130.5,-85.92 138.66,-82.57 146.68,-79.56"/>
<polygon fill="midnightblue" stroke="midnightblue" points="64.54,-119.44 58.19,-127.92 68.44,-125.25 64.54,-119.44"/>
</g>
<!-- Node8 -->
<g id="node7" class="node">
<title>Node8</title>
<g id="a_node7"><a xlink:href="classcom_1_1istereolab_1_1depz_1_1DepzSource.html" target="_top" xlink:title="Direct camera grab — pulls raw encoded frames straight from a source without a pipeline (no calibrati...">
<polygon fill="white" stroke="black" points="123,-0.5 123,-30.5 266,-30.5 266,-0.5 123,-0.5"/>
<text text-anchor="start" x="131" y="-18.5" font-family="Helvetica,sans-Serif" font-size="10.00">com.istereolab.depz.Depz</text>
<text text-anchor="middle" x="194.5" y="-7.5" font-family="Helvetica,sans-Serif" font-size="10.00">Source</text>
</a>
</g>
</g>
<!-- Node2&#45;&gt;Node8 -->
<g id="edge6" class="edge">
<title>Node2&#45;&gt;Node8</title>
<path fill="none" stroke="midnightblue" d="M55.16,-118.87C68.44,-97.19 93.09,-61.65 123,-40.5 128.41,-36.68 134.46,-33.38 140.68,-30.56"/>
<polygon fill="midnightblue" stroke="midnightblue" points="51.97,-117.37 49.87,-127.76 57.99,-120.95 51.97,-117.37"/>
</g>
</g>
</svg>
