<?xml version="1.0" encoding="UTF-8" standalone="no"?>
<!DOCTYPE svg PUBLIC "-//W3C//DTD SVG 1.1//EN"
 "http://www.w3.org/Graphics/SVG/1.1/DTD/svg11.dtd">
<!-- Generated by graphviz version 2.43.0 (0)
 -->
<!-- Title: Graphical Class Hierarchy Pages: 1 -->
<svg width="333pt" height="88pt"
 viewBox="0.00 0.00 333.00 88.00" xmlns="http://www.w3.org/2000/svg" xmlns:xlink="http://www.w3.org/1999/xlink">
<g id="graph0" class="graph" transform="scale(1 1) rotate(0) translate(4 84)">
<title>Graphical Class Hierarchy</title>
<polygon fill="white" stroke="transparent" points="-4,4 -4,-84 329,-84 329,4 -4,4"/>
<!-- Node0 -->
<g id="node1" class="node">
<title>Node0</title>
<g id="a_node1"><a xlink:href="classstereocam_1_1sources_1_1FrameSource.html" target="_top" xlink:title="Raw&#45;frame producer behind the DepthPipeline worker loop.">
<polygon fill="white" stroke="black" points="0,-24.5 0,-54.5 112,-54.5 112,-24.5 0,-24.5"/>
<text text-anchor="start" x="8" y="-42.5" font-family="Helvetica,sans-Serif" font-size="10.00">stereocam::sources</text>
<text text-anchor="middle" x="56" y="-31.5" font-family="Helvetica,sans-Serif" font-size="10.00">::FrameSource</text>
</a>
</g>
</g>
<!-- Node1 -->
<g id="node2" class="node">
<title>Node1</title>
<g id="a_node2"><a xlink:href="classstereocam_1_1sources_1_1GStreamerFrameSourceAdapter.html" target="_top" xlink:title="Live V4L2/GStreamer camera presented as a FrameSource.">
<polygon fill="white" stroke="black" points="148,-49.5 148,-79.5 325,-79.5 325,-49.5 148,-49.5"/>
<text text-anchor="start" x="156" y="-67.5" font-family="Helvetica,sans-Serif" font-size="10.00">stereocam::sources</text>
<text text-anchor="middle" x="236.5" y="-56.5" font-family="Helvetica,sans-Serif" font-size="10.00">::GStreamerFrameSourceAdapter</text>
</a>
</g>
</g>
<!-- Node0&#45;&gt;Node1 -->
<g id="edge1" class="edge">
<title>Node0&#45;&gt;Node1</title>
<path fill="none" stroke="midnightblue" d="M122.07,-48.61C130.46,-49.79 139.16,-51.01 147.83,-52.22"/>
<polygon fill="midnightblue" stroke="midnightblue" points="122.4,-45.13 112.01,-47.2 121.43,-52.06 122.4,-45.13"/>
</g>
<!-- Node2 -->
<g id="node3" class="node">
<title>Node2</title>
<g id="a_node3"><a xlink:href="classstereocam_1_1sources_1_1MkvFrameSourceAdapter.html" target="_top" xlink:title="Seekable replay FrameSource over a recorded .mkv (libav demuxer).">
<polygon fill="white" stroke="black" points="163.5,-0.5 163.5,-30.5 309.5,-30.5 309.5,-0.5 163.5,-0.5"/>
<text text-anchor="start" x="171.5" y="-18.5" font-family="Helvetica,sans-Serif" font-size="10.00">stereocam::sources</text>
<text text-anchor="middle" x="236.5" y="-7.5" font-family="Helvetica,sans-Serif" font-size="10.00">::MkvFrameSourceAdapter</text>
</a>
</g>
</g>
<!-- Node0&#45;&gt;Node2 -->
<g id="edge2" class="edge">
<title>Node0&#45;&gt;Node2</title>
<path fill="none" stroke="midnightblue" d="M122.07,-30.75C135.46,-28.95 149.62,-27.05 163.24,-25.21"/>
<polygon fill="midnightblue" stroke="midnightblue" points="121.46,-27.3 112.01,-32.1 122.39,-34.24 121.46,-27.3"/>
</g>
</g>
</svg>
