<?xml version="1.0" encoding="UTF-8" standalone="no"?>
<!DOCTYPE svg PUBLIC "-//W3C//DTD SVG 1.1//EN"
 "http://www.w3.org/Graphics/SVG/1.1/DTD/svg11.dtd">
<!-- Generated by graphviz version 2.43.0 (0)
 -->
<!-- Title: include/depz/core/iparameter_store.h Pages: 1 -->
<svg width="1438pt" height="463pt"
 viewBox="0.00 0.00 1438.37 463.00" xmlns="http://www.w3.org/2000/svg" xmlns:xlink="http://www.w3.org/1999/xlink">
<g id="graph0" class="graph" transform="scale(1 1) rotate(0) translate(4 459)">
<title>include/depz/core/iparameter_store.h</title>
<polygon fill="white" stroke="transparent" points="-4,4 -4,-459 1434.37,-459 1434.37,4 -4,4"/>
<!-- Node1 -->
<g id="node1" class="node">
<title>Node1</title>
<g id="a_node1"><a xlink:title="Type&#45;erased key/value parameter store interface.">
<polygon fill="#bfbfbf" stroke="black" points="984.5,-424.5 984.5,-454.5 1143.5,-454.5 1143.5,-424.5 984.5,-424.5"/>
<text text-anchor="start" x="992.5" y="-442.5" font-family="Helvetica,sans-Serif" font-size="10.00">include/depz/core/iparameter</text>
<text text-anchor="middle" x="1064" y="-431.5" font-family="Helvetica,sans-Serif" font-size="10.00">_store.h</text>
</a>
</g>
</g>
<!-- Node2 -->
<g id="node2" class="node">
<title>Node2</title>
<g id="a_node2"><a xlink:href="param__spec_8h.html" target="_top" xlink:title=" ">
<polygon fill="white" stroke="black" points="715.5,-352 715.5,-382 852.5,-382 852.5,-352 715.5,-352"/>
<text text-anchor="start" x="723.5" y="-370" font-family="Helvetica,sans-Serif" font-size="10.00">include/depz/core/param</text>
<text text-anchor="middle" x="784" y="-359" font-family="Helvetica,sans-Serif" font-size="10.00">_spec.h</text>
</a>
</g>
</g>
<!-- Node1&#45;&gt;Node2 -->
<g id="edge1" class="edge">
<title>Node1&#45;&gt;Node2</title>
<path fill="none" stroke="midnightblue" d="M998.35,-421.97C950.26,-409.86 885.69,-393.6 840.03,-382.11"/>
<polygon fill="midnightblue" stroke="midnightblue" points="997.79,-425.44 1008.35,-424.49 999.5,-418.65 997.79,-425.44"/>
</g>
<!-- Node19 -->
<g id="node19" class="node">
<title>Node19</title>
<g id="a_node19"><a xlink:href="calibration__params_8h.html" target="_top" xlink:title=" ">
<polygon fill="white" stroke="black" points="1084,-207 1084,-237 1206,-237 1206,-207 1084,-207"/>
<text text-anchor="start" x="1092" y="-225" font-family="Helvetica,sans-Serif" font-size="10.00">include/depz/stereo</text>
<text text-anchor="middle" x="1145" y="-214" font-family="Helvetica,sans-Serif" font-size="10.00">/calibration_params.h</text>
</a>
</g>
</g>
<!-- Node1&#45;&gt;Node19 -->
<g id="edge24" class="edge">
<title>Node1&#45;&gt;Node19</title>
<path fill="none" stroke="midnightblue" d="M1098.45,-418.71C1109.79,-410.58 1121.42,-400.18 1129,-388 1159.09,-339.61 1152.21,-267.37 1147.54,-237.12"/>
<polygon fill="midnightblue" stroke="midnightblue" points="1096.23,-415.99 1089.91,-424.49 1100.15,-421.79 1096.23,-415.99"/>
</g>
<!-- Node21 -->
<g id="node21" class="node">
<title>Node21</title>
<g id="a_node21"><a xlink:href="istereo__calibration__model_8h.html" target="_top" xlink:title=" ">
<polygon fill="white" stroke="black" points="1008,-346.5 1008,-387.5 1120,-387.5 1120,-346.5 1008,-346.5"/>
<text text-anchor="start" x="1016" y="-375.5" font-family="Helvetica,sans-Serif" font-size="10.00">include/depz/stereo</text>
<text text-anchor="start" x="1016" y="-364.5" font-family="Helvetica,sans-Serif" font-size="10.00">/istereo_calibration</text>
<text text-anchor="middle" x="1064" y="-353.5" font-family="Helvetica,sans-Serif" font-size="10.00">_model.h</text>
</a>
</g>
</g>
<!-- Node1&#45;&gt;Node21 -->
<g id="edge26" class="edge">
<title>Node1&#45;&gt;Node21</title>
<path fill="none" stroke="midnightblue" d="M1064,-413.98C1064,-405.35 1064,-395.76 1064,-387.59"/>
<polygon fill="midnightblue" stroke="midnightblue" points="1060.5,-414.23 1064,-424.23 1067.5,-414.23 1060.5,-414.23"/>
</g>
<!-- Node3 -->
<g id="node3" class="node">
<title>Node3</title>
<g id="a_node3"><a xlink:href="camera__control_8h.html" target="_top" xlink:title=" ">
<polygon fill="white" stroke="black" points="68,-279.5 68,-309.5 186,-309.5 186,-279.5 68,-279.5"/>
<text text-anchor="start" x="76" y="-297.5" font-family="Helvetica,sans-Serif" font-size="10.00">include/depz/camera</text>
<text text-anchor="middle" x="127" y="-286.5" font-family="Helvetica,sans-Serif" font-size="10.00">/camera_control.h</text>
</a>
</g>
</g>
<!-- Node2&#45;&gt;Node3 -->
<g id="edge2" class="edge">
<title>Node2&#45;&gt;Node3</title>
<path fill="none" stroke="midnightblue" d="M705.1,-357.53C571.74,-343.22 304.75,-314.57 186.14,-301.85"/>
<polygon fill="midnightblue" stroke="midnightblue" points="704.92,-361.03 715.24,-358.62 705.67,-354.07 704.92,-361.03"/>
</g>
<!-- Node6 -->
<g id="node6" class="node">
<title>Node6</title>
<g id="a_node6"><a xlink:href="icontrol__owner_8h.html" target="_top" xlink:title=" ">
<polygon fill="white" stroke="black" points="620,-279.5 620,-309.5 740,-309.5 740,-279.5 620,-279.5"/>
<text text-anchor="start" x="628" y="-297.5" font-family="Helvetica,sans-Serif" font-size="10.00">include/depz/controls</text>
<text text-anchor="middle" x="680" y="-286.5" font-family="Helvetica,sans-Serif" font-size="10.00">/icontrol_owner.h</text>
</a>
</g>
</g>
<!-- Node2&#45;&gt;Node6 -->
<g id="edge5" class="edge">
<title>Node2&#45;&gt;Node6</title>
<path fill="none" stroke="midnightblue" d="M754.39,-345.93C737.23,-334.29 716.03,-319.92 700.66,-309.5"/>
<polygon fill="midnightblue" stroke="midnightblue" points="752.71,-349.02 762.95,-351.73 756.64,-343.23 752.71,-349.02"/>
</g>
<!-- Node8 -->
<g id="node8" class="node">
<title>Node8</title>
<g id="a_node8"><a xlink:href="opencv__basic_8h.html" target="_top" xlink:title="Concrete Calibration for the OpenCV5 / OpenCV8 pinhole lens model.">
<polygon fill="white" stroke="black" points="1040.5,-134.5 1040.5,-164.5 1197.5,-164.5 1197.5,-134.5 1040.5,-134.5"/>
<text text-anchor="start" x="1048.5" y="-152.5" font-family="Helvetica,sans-Serif" font-size="10.00">include/depz/core/calibration</text>
<text text-anchor="middle" x="1119" y="-141.5" font-family="Helvetica,sans-Serif" font-size="10.00">/opencv_basic.h</text>
</a>
</g>
</g>
<!-- Node2&#45;&gt;Node8 -->
<g id="edge21" class="edge">
<title>Node2&#45;&gt;Node8</title>
<path fill="none" stroke="midnightblue" d="M808.97,-345.29C856.31,-306.26 957.88,-223.7 997,-201 1022.48,-186.22 1053.12,-173.55 1077.32,-164.6"/>
<polygon fill="midnightblue" stroke="midnightblue" points="806.54,-342.76 801.05,-351.83 810.99,-348.16 806.54,-342.76"/>
</g>
<!-- Node9 -->
<g id="node9" class="node">
<title>Node9</title>
<g id="a_node9"><a xlink:href="opencv__fisheye_8h.html" target="_top" xlink:title="Kannala–Brandt fisheye Calibration with lon/lat (ERP) rectified depth.">
<polygon fill="white" stroke="black" points="865.5,-134.5 865.5,-164.5 1022.5,-164.5 1022.5,-134.5 865.5,-134.5"/>
<text text-anchor="start" x="873.5" y="-152.5" font-family="Helvetica,sans-Serif" font-size="10.00">include/depz/core/calibration</text>
<text text-anchor="middle" x="944" y="-141.5" font-family="Helvetica,sans-Serif" font-size="10.00">/opencv_fisheye.h</text>
</a>
</g>
</g>
<!-- Node2&#45;&gt;Node9 -->
<g id="edge22" class="edge">
<title>Node2&#45;&gt;Node9</title>
<path fill="none" stroke="midnightblue" d="M800.52,-343.75C833.4,-299.46 906.24,-201.36 933.46,-164.69"/>
<polygon fill="midnightblue" stroke="midnightblue" points="797.65,-341.75 794.5,-351.86 803.27,-345.92 797.65,-341.75"/>
</g>
<!-- Node11 -->
<g id="node11" class="node">
<title>Node11</title>
<g id="a_node11"><a xlink:href="builtin_8h.html" target="_top" xlink:title=" ">
<polygon fill="white" stroke="black" points="136.5,-134.5 136.5,-164.5 269.5,-164.5 269.5,-134.5 136.5,-134.5"/>
<text text-anchor="start" x="144.5" y="-152.5" font-family="Helvetica,sans-Serif" font-size="10.00">include/depz/core/filters</text>
<text text-anchor="middle" x="203" y="-141.5" font-family="Helvetica,sans-Serif" font-size="10.00">/builtin.h</text>
</a>
</g>
</g>
<!-- Node2&#45;&gt;Node11 -->
<g id="edge23" class="edge">
<title>Node2&#45;&gt;Node11</title>
<path fill="none" stroke="midnightblue" d="M705.47,-352.25C614.59,-334.54 461.82,-299.17 340,-243 293.35,-221.49 244.96,-184.84 220.07,-164.73"/>
<polygon fill="midnightblue" stroke="midnightblue" points="704.94,-355.71 715.42,-354.16 706.26,-348.84 704.94,-355.71"/>
</g>
<!-- Node4 -->
<g id="node4" class="node">
<title>Node4</title>
<g id="a_node4"><a xlink:href="camera__spec_8h.html" target="_top" xlink:title=" ">
<polygon fill="white" stroke="black" points="26,-207 26,-237 144,-237 144,-207 26,-207"/>
<text text-anchor="start" x="34" y="-225" font-family="Helvetica,sans-Serif" font-size="10.00">include/depz/camera</text>
<text text-anchor="middle" x="85" y="-214" font-family="Helvetica,sans-Serif" font-size="10.00">/camera_spec.h</text>
</a>
</g>
</g>
<!-- Node3&#45;&gt;Node4 -->
<g id="edge3" class="edge">
<title>Node3&#45;&gt;Node4</title>
<path fill="none" stroke="midnightblue" d="M113.33,-270.56C106.8,-259.59 99.18,-246.8 93.49,-237.25"/>
<polygon fill="midnightblue" stroke="midnightblue" points="110.38,-272.43 118.5,-279.23 116.39,-268.85 110.38,-272.43"/>
</g>
<!-- Node5 -->
<g id="node5" class="node">
<title>Node5</title>
<g id="a_node5"><a xlink:href="depz__specs_8h.html" target="_top" xlink:title=" ">
<polygon fill="white" stroke="black" points="0,-134.5 0,-164.5 118,-164.5 118,-134.5 0,-134.5"/>
<text text-anchor="start" x="8" y="-152.5" font-family="Helvetica,sans-Serif" font-size="10.00">include/depz/camera</text>
<text text-anchor="middle" x="59" y="-141.5" font-family="Helvetica,sans-Serif" font-size="10.00">/depz_specs.h</text>
</a>
</g>
</g>
<!-- Node4&#45;&gt;Node5 -->
<g id="edge4" class="edge">
<title>Node4&#45;&gt;Node5</title>
<path fill="none" stroke="midnightblue" d="M76.17,-197.06C72.21,-186.32 67.67,-174.01 64.25,-164.75"/>
<polygon fill="midnightblue" stroke="midnightblue" points="72.99,-198.56 79.74,-206.73 79.56,-196.14 72.99,-198.56"/>
</g>
<!-- Node7 -->
<g id="node7" class="node">
<title>Node7</title>
<g id="a_node7"><a xlink:href="icalibration_8h.html" target="_top" xlink:title="Language&#45;neutral calibration ABC — the runtime contract every concrete stereo / mono calibration mode...">
<polygon fill="white" stroke="black" points="702.5,-207 702.5,-237 859.5,-237 859.5,-207 702.5,-207"/>
<text text-anchor="start" x="710.5" y="-225" font-family="Helvetica,sans-Serif" font-size="10.00">include/depz/core/calibration</text>
<text text-anchor="middle" x="781" y="-214" font-family="Helvetica,sans-Serif" font-size="10.00">/icalibration.h</text>
</a>
</g>
</g>
<!-- Node6&#45;&gt;Node7 -->
<g id="edge6" class="edge">
<title>Node6&#45;&gt;Node7</title>
<path fill="none" stroke="midnightblue" d="M708.75,-273.43C725.43,-261.79 746.01,-247.42 760.94,-237"/>
<polygon fill="midnightblue" stroke="midnightblue" points="706.64,-270.64 700.44,-279.23 710.64,-276.38 706.64,-270.64"/>
</g>
<!-- Node10 -->
<g id="node10" class="node">
<title>Node10</title>
<g id="a_node10"><a xlink:href="ifilter_8h.html" target="_top" xlink:title=" ">
<polygon fill="white" stroke="black" points="348.5,-207 348.5,-237 481.5,-237 481.5,-207 348.5,-207"/>
<text text-anchor="start" x="356.5" y="-225" font-family="Helvetica,sans-Serif" font-size="10.00">include/depz/core/filters</text>
<text text-anchor="middle" x="415" y="-214" font-family="Helvetica,sans-Serif" font-size="10.00">/ifilter.h</text>
</a>
</g>
</g>
<!-- Node6&#45;&gt;Node10 -->
<g id="edge9" class="edge">
<title>Node6&#45;&gt;Node10</title>
<path fill="none" stroke="midnightblue" d="M617.58,-276.89C572.1,-264.79 511.15,-248.58 468.03,-237.11"/>
<polygon fill="midnightblue" stroke="midnightblue" points="616.76,-280.3 627.33,-279.49 618.56,-273.53 616.76,-280.3"/>
</g>
<!-- Node12 -->
<g id="node12" class="node">
<title>Node12</title>
<g id="a_node12"><a xlink:href="ineural__inference_8h.html" target="_top" xlink:title="Architecture&#45;agnostic orchestration interface for neural depth networks.">
<polygon fill="white" stroke="black" points="510.5,-207 510.5,-237 661.5,-237 661.5,-207 510.5,-207"/>
<text text-anchor="start" x="518.5" y="-225" font-family="Helvetica,sans-Serif" font-size="10.00">include/depz/core/inference</text>
<text text-anchor="middle" x="586" y="-214" font-family="Helvetica,sans-Serif" font-size="10.00">/ineural_inference.h</text>
</a>
</g>
</g>
<!-- Node6&#45;&gt;Node12 -->
<g id="edge11" class="edge">
<title>Node6&#45;&gt;Node12</title>
<path fill="none" stroke="midnightblue" d="M652.81,-273.11C637.37,-261.53 618.44,-247.33 604.67,-237"/>
<polygon fill="midnightblue" stroke="midnightblue" points="650.88,-276.03 660.98,-279.23 655.08,-270.43 650.88,-276.03"/>
</g>
<!-- Node7&#45;&gt;Node8 -->
<g id="edge7" class="edge">
<title>Node7&#45;&gt;Node8</title>
<path fill="none" stroke="midnightblue" d="M858.09,-204.92C916.45,-192.75 995.83,-176.19 1051.66,-164.55"/>
<polygon fill="midnightblue" stroke="midnightblue" points="857.26,-201.52 848.18,-206.99 858.69,-208.37 857.26,-201.52"/>
</g>
<!-- Node7&#45;&gt;Node9 -->
<g id="edge8" class="edge">
<title>Node7&#45;&gt;Node9</title>
<path fill="none" stroke="midnightblue" d="M822.98,-202.84C850.54,-190.92 886.05,-175.57 911.46,-164.57"/>
<polygon fill="midnightblue" stroke="midnightblue" points="821.38,-199.72 813.59,-206.9 824.16,-206.15 821.38,-199.72"/>
</g>
<!-- Node10&#45;&gt;Node11 -->
<g id="edge10" class="edge">
<title>Node10&#45;&gt;Node11</title>
<path fill="none" stroke="midnightblue" d="M362.99,-203.7C326.85,-191.68 279.27,-175.86 245.42,-164.61"/>
<polygon fill="midnightblue" stroke="midnightblue" points="362.27,-207.15 372.86,-206.99 364.48,-200.51 362.27,-207.15"/>
</g>
<!-- Node13 -->
<g id="node13" class="node">
<title>Node13</title>
<g id="a_node13"><a xlink:href="inference__factory_8h.html" target="_top" xlink:title="Single factory turning (arch slug, model file, engine slug) into a ready DepthInferenceBase.">
<polygon fill="white" stroke="black" points="326.5,-134.5 326.5,-164.5 477.5,-164.5 477.5,-134.5 326.5,-134.5"/>
<text text-anchor="start" x="334.5" y="-152.5" font-family="Helvetica,sans-Serif" font-size="10.00">include/depz/core/inference</text>
<text text-anchor="middle" x="402" y="-141.5" font-family="Helvetica,sans-Serif" font-size="10.00">/inference_factory.h</text>
</a>
</g>
</g>
<!-- Node12&#45;&gt;Node13 -->
<g id="edge12" class="edge">
<title>Node12&#45;&gt;Node13</title>
<path fill="none" stroke="midnightblue" d="M539.83,-203.31C508.56,-191.33 467.8,-175.71 438.73,-164.57"/>
<polygon fill="midnightblue" stroke="midnightblue" points="538.62,-206.59 549.21,-206.9 541.12,-200.06 538.62,-206.59"/>
</g>
<!-- Node14 -->
<g id="node14" class="node">
<title>Node14</title>
<g id="a_node14"><a xlink:href="neural__architectures_8h.html" target="_top" xlink:title="Per&#45;network preprocess/postprocess recipes for the SDK&#39;s depth models.">
<polygon fill="white" stroke="black" points="495.5,-134.5 495.5,-164.5 646.5,-164.5 646.5,-134.5 495.5,-134.5"/>
<text text-anchor="start" x="503.5" y="-152.5" font-family="Helvetica,sans-Serif" font-size="10.00">include/depz/core/inference</text>
<text text-anchor="middle" x="571" y="-141.5" font-family="Helvetica,sans-Serif" font-size="10.00">/neural_architectures.h</text>
</a>
</g>
</g>
<!-- Node12&#45;&gt;Node14 -->
<g id="edge13" class="edge">
<title>Node12&#45;&gt;Node14</title>
<path fill="none" stroke="midnightblue" d="M580.84,-196.73C578.57,-186.07 575.98,-173.91 574.03,-164.75"/>
<polygon fill="midnightblue" stroke="midnightblue" points="577.46,-197.68 582.96,-206.73 584.31,-196.22 577.46,-197.68"/>
</g>
<!-- Node15 -->
<g id="node15" class="node">
<title>Node15</title>
<g id="a_node15"><a xlink:href="depth__pipeline_8h.html" target="_top" xlink:title=" ">
<polygon fill="white" stroke="black" points="665,-0.5 665,-30.5 809,-30.5 809,-0.5 665,-0.5"/>
<text text-anchor="start" x="673" y="-18.5" font-family="Helvetica,sans-Serif" font-size="10.00">include/depz/core/pipeline</text>
<text text-anchor="middle" x="737" y="-7.5" font-family="Helvetica,sans-Serif" font-size="10.00">/depth_pipeline.h</text>
</a>
</g>
</g>
<!-- Node12&#45;&gt;Node15 -->
<g id="edge14" class="edge">
<title>Node12&#45;&gt;Node15</title>
<path fill="none" stroke="midnightblue" d="M509.65,-204.91C503.34,-203.59 497.06,-202.27 491,-201 410.3,-184.11 268.19,-199.71 318,-134 359.82,-78.84 556.46,-42.44 664.85,-26.21"/>
<polygon fill="midnightblue" stroke="midnightblue" points="509.06,-208.36 519.56,-206.99 510.5,-201.51 509.06,-208.36"/>
</g>
<!-- Node16 -->
<g id="node16" class="node">
<title>Node16</title>
<g id="a_node16"><a xlink:href="frame__processor_8h.html" target="_top" xlink:title="Single&#45;call per&#45;frame postprocess chain (disparity→depth→cloud).">
<polygon fill="white" stroke="black" points="665,-134.5 665,-164.5 809,-164.5 809,-134.5 665,-134.5"/>
<text text-anchor="start" x="673" y="-152.5" font-family="Helvetica,sans-Serif" font-size="10.00">include/depz/core/pipeline</text>
<text text-anchor="middle" x="737" y="-141.5" font-family="Helvetica,sans-Serif" font-size="10.00">/frame_processor.h</text>
</a>
</g>
</g>
<!-- Node12&#45;&gt;Node16 -->
<g id="edge15" class="edge">
<title>Node12&#45;&gt;Node16</title>
<path fill="none" stroke="midnightblue" d="M625.56,-202.53C650.99,-190.66 683.52,-175.47 706.86,-164.57"/>
<polygon fill="midnightblue" stroke="midnightblue" points="623.77,-199.5 616.19,-206.9 626.74,-205.84 623.77,-199.5"/>
</g>
<!-- Node17 -->
<g id="node17" class="node">
<title>Node17</title>
<g id="a_node17"><a xlink:href="idepth__calibration_8h.html" target="_top" xlink:title="Calibration interface the DepthPipeline worker loop depends on.">
<polygon fill="white" stroke="black" points="765,-67.5 765,-97.5 909,-97.5 909,-67.5 765,-67.5"/>
<text text-anchor="start" x="773" y="-85.5" font-family="Helvetica,sans-Serif" font-size="10.00">include/depz/core/pipeline</text>
<text text-anchor="middle" x="837" y="-74.5" font-family="Helvetica,sans-Serif" font-size="10.00">/idepth_calibration.h</text>
</a>
</g>
</g>
<!-- Node12&#45;&gt;Node17 -->
<g id="edge20" class="edge">
<title>Node12&#45;&gt;Node17</title>
<path fill="none" stroke="midnightblue" d="M671.05,-204.96C732.79,-192.58 807.3,-175.78 818,-165 835.81,-147.05 838.18,-115.85 837.88,-97.71"/>
<polygon fill="midnightblue" stroke="midnightblue" points="669.99,-201.6 660.87,-206.99 671.36,-208.47 669.99,-201.6"/>
</g>
<!-- Node16&#45;&gt;Node15 -->
<g id="edge16" class="edge">
<title>Node16&#45;&gt;Node15</title>
<path fill="none" stroke="midnightblue" d="M737,-124.02C737,-96.51 737,-52.79 737,-30.52"/>
<polygon fill="midnightblue" stroke="midnightblue" points="733.5,-124.37 737,-134.37 740.5,-124.37 733.5,-124.37"/>
</g>
<!-- Node16&#45;&gt;Node17 -->
<g id="edge17" class="edge">
<title>Node16&#45;&gt;Node17</title>
<path fill="none" stroke="midnightblue" d="M767.41,-128.73C782.88,-118.68 801.33,-106.68 815.34,-97.58"/>
<polygon fill="midnightblue" stroke="midnightblue" points="765.18,-126.01 758.7,-134.4 768.99,-131.88 765.18,-126.01"/>
</g>
<!-- Node17&#45;&gt;Node15 -->
<g id="edge19" class="edge">
<title>Node17&#45;&gt;Node15</title>
<path fill="none" stroke="midnightblue" d="M806.59,-61.73C791.12,-51.68 772.67,-39.68 758.66,-30.58"/>
<polygon fill="midnightblue" stroke="midnightblue" points="805.01,-64.88 815.3,-67.4 808.82,-59.01 805.01,-64.88"/>
</g>
<!-- Node18 -->
<g id="node18" class="node">
<title>Node18</title>
<g id="a_node18"><a xlink:href="opencv__depth__calibration_8h.html" target="_top" xlink:title="IDepthCalibration for the pinhole stereo model, backed by StereoCalibration.">
<polygon fill="white" stroke="black" points="1095.5,-0.5 1095.5,-30.5 1252.5,-30.5 1252.5,-0.5 1095.5,-0.5"/>
<text text-anchor="start" x="1103.5" y="-18.5" font-family="Helvetica,sans-Serif" font-size="10.00">include/depz/core/calibration</text>
<text text-anchor="middle" x="1174" y="-7.5" font-family="Helvetica,sans-Serif" font-size="10.00">/opencv_depth_calibration.h</text>
</a>
</g>
</g>
<!-- Node17&#45;&gt;Node18 -->
<g id="edge18" class="edge">
<title>Node17&#45;&gt;Node18</title>
<path fill="none" stroke="midnightblue" d="M919.13,-65.66C974.78,-54.92 1047.68,-40.87 1101.24,-30.53"/>
<polygon fill="midnightblue" stroke="midnightblue" points="918.45,-62.23 909.29,-67.56 919.78,-69.1 918.45,-62.23"/>
</g>
<!-- Node20 -->
<g id="node20" class="node">
<title>Node20</title>
<g id="a_node20"><a xlink:href="depz_8h.html" target="_top" xlink:title="Single umbrella header that pulls in the whole iStereoLab public API.">
<polygon fill="white" stroke="black" points="1215.5,-140 1215.5,-159 1328.5,-159 1328.5,-140 1215.5,-140"/>
<text text-anchor="middle" x="1272" y="-147" font-family="Helvetica,sans-Serif" font-size="10.00">include/depz/depz.h</text>
</a>
</g>
</g>
<!-- Node19&#45;&gt;Node20 -->
<g id="edge25" class="edge">
<title>Node19&#45;&gt;Node20</title>
<path fill="none" stroke="midnightblue" d="M1179.29,-201.97C1204.5,-187.97 1237.56,-169.62 1256.63,-159.03"/>
<polygon fill="midnightblue" stroke="midnightblue" points="1177.44,-198.99 1170.4,-206.9 1180.84,-205.11 1177.44,-198.99"/>
</g>
<!-- Node21&#45;&gt;Node20 -->
<g id="edge29" class="edge">
<title>Node21&#45;&gt;Node20</title>
<path fill="none" stroke="midnightblue" d="M1011.66,-340.79C1000.18,-332.64 989.52,-322.43 983,-310 976.6,-297.8 977.98,-291.83 983,-279 1000.18,-235.06 1014.22,-224.73 1055,-201 1058.91,-198.73 1172.89,-172.83 1234.06,-159.03"/>
<polygon fill="midnightblue" stroke="midnightblue" points="1009.84,-343.78 1020.12,-346.35 1013.69,-337.93 1009.84,-343.78"/>
</g>
<!-- Node22 -->
<g id="node22" class="node">
<title>Node22</title>
<g id="a_node22"><a xlink:href="stereo__pipeline_8hpp.html" target="_top" xlink:title=" ">
<polygon fill="white" stroke="black" points="992,-279.5 992,-309.5 1136,-309.5 1136,-279.5 992,-279.5"/>
<text text-anchor="start" x="1000" y="-297.5" font-family="Helvetica,sans-Serif" font-size="10.00">include/depz/core/pipeline</text>
<text text-anchor="middle" x="1064" y="-286.5" font-family="Helvetica,sans-Serif" font-size="10.00">/stereo_pipeline.hpp</text>
</a>
</g>
</g>
<!-- Node21&#45;&gt;Node22 -->
<g id="edge27" class="edge">
<title>Node21&#45;&gt;Node22</title>
<path fill="none" stroke="midnightblue" d="M1064,-336.08C1064,-327.01 1064,-317.45 1064,-309.89"/>
<polygon fill="midnightblue" stroke="midnightblue" points="1060.5,-336.36 1064,-346.36 1067.5,-336.36 1060.5,-336.36"/>
</g>
<!-- Node23 -->
<g id="node23" class="node">
<title>Node23</title>
<g id="a_node23"><a xlink:href="stereocalibration_8h.html" target="_top" xlink:title="Stereo camera calibration: load, validate, rectify.">
<polygon fill="white" stroke="black" points="1208,-279.5 1208,-309.5 1320,-309.5 1320,-279.5 1208,-279.5"/>
<text text-anchor="start" x="1216" y="-297.5" font-family="Helvetica,sans-Serif" font-size="10.00">include/depz/stereo</text>
<text text-anchor="middle" x="1264" y="-286.5" font-family="Helvetica,sans-Serif" font-size="10.00">/stereocalibration.h</text>
</a>
</g>
</g>
<!-- Node21&#45;&gt;Node23 -->
<g id="edge30" class="edge">
<title>Node21&#45;&gt;Node23</title>
<path fill="none" stroke="midnightblue" d="M1128.98,-343.1C1160.29,-332.06 1196.84,-319.17 1224.01,-309.6"/>
<polygon fill="midnightblue" stroke="midnightblue" points="1127.71,-339.83 1119.45,-346.46 1130.04,-346.43 1127.71,-339.83"/>
</g>
<!-- Node22&#45;&gt;Node20 -->
<g id="edge28" class="edge">
<title>Node22&#45;&gt;Node20</title>
<path fill="none" stroke="midnightblue" d="M1059.94,-269.15C1057.97,-248.53 1058.84,-219.46 1075,-201 1080.31,-194.94 1178.16,-171.86 1233.92,-159.1"/>
<polygon fill="midnightblue" stroke="midnightblue" points="1056.5,-269.85 1061.21,-279.34 1063.45,-268.98 1056.5,-269.85"/>
</g>
<!-- Node23&#45;&gt;Node8 -->
<g id="edge31" class="edge">
<title>Node23&#45;&gt;Node8</title>
<path fill="none" stroke="midnightblue" d="M1256.04,-269.87C1248.22,-249.56 1234.6,-220.54 1215,-201 1199,-185.04 1176.9,-172.95 1157.95,-164.6"/>
<polygon fill="midnightblue" stroke="midnightblue" points="1252.78,-271.15 1259.5,-279.33 1259.35,-268.74 1252.78,-271.15"/>
</g>
<!-- Node23&#45;&gt;Node18 -->
<g id="edge32" class="edge">
<title>Node23&#45;&gt;Node18</title>
<path fill="none" stroke="midnightblue" d="M1330.55,-290.15C1364.01,-284.68 1401.84,-271.92 1423,-243 1434.02,-227.93 1431.15,-217.8 1423,-201 1379.56,-111.44 1268.87,-54.97 1210.81,-30.54"/>
<polygon fill="midnightblue" stroke="midnightblue" points="1329.73,-286.73 1320.33,-291.62 1330.73,-293.66 1329.73,-286.73"/>
</g>
<!-- Node23&#45;&gt;Node19 -->
<g id="edge34" class="edge">
<title>Node23&#45;&gt;Node19</title>
<path fill="none" stroke="midnightblue" d="M1231.49,-274.24C1211.66,-262.49 1186.74,-247.73 1168.75,-237.07"/>
<polygon fill="midnightblue" stroke="midnightblue" points="1229.82,-277.32 1240.2,-279.4 1233.39,-271.29 1229.82,-277.32"/>
</g>
<!-- Node23&#45;&gt;Node20 -->
<g id="edge33" class="edge">
<title>Node23&#45;&gt;Node20</title>
<path fill="none" stroke="midnightblue" d="M1265.36,-269.24C1267.17,-236.78 1270.3,-180.81 1271.51,-159.28"/>
<polygon fill="midnightblue" stroke="midnightblue" points="1261.86,-269.09 1264.8,-279.27 1268.85,-269.48 1261.86,-269.09"/>
</g>
<!-- Node24 -->
<g id="node24" class="node">
<title>Node24</title>
<g id="a_node24"><a xlink:href="camera__calibration__web__loader_8h.html" target="_top" xlink:title="Download stereo calibration JSON by camera serial and parse it into StereoCalibration.">
<polygon fill="white" stroke="black" points="1300.5,-201.5 1300.5,-242.5 1413.5,-242.5 1413.5,-201.5 1300.5,-201.5"/>
<text text-anchor="start" x="1308.5" y="-230.5" font-family="Helvetica,sans-Serif" font-size="10.00">include/depz/stereo</text>
<text text-anchor="start" x="1308.5" y="-219.5" font-family="Helvetica,sans-Serif" font-size="10.00">/camera_calibration</text>
<text text-anchor="middle" x="1357" y="-208.5" font-family="Helvetica,sans-Serif" font-size="10.00">_web_loader.h</text>
</a>
</g>
</g>
<!-- Node23&#45;&gt;Node24 -->
<g id="edge35" class="edge">
<title>Node23&#45;&gt;Node24</title>
<path fill="none" stroke="midnightblue" d="M1291.13,-272.93C1303.76,-263.36 1318.7,-252.03 1331.16,-242.59"/>
<polygon fill="midnightblue" stroke="midnightblue" points="1288.67,-270.4 1282.82,-279.23 1292.9,-275.98 1288.67,-270.4"/>
</g>
<!-- Node24&#45;&gt;Node20 -->
<g id="edge36" class="edge">
<title>Node24&#45;&gt;Node20</title>
<path fill="none" stroke="midnightblue" d="M1325.61,-194.96C1310.42,-182.36 1293.19,-168.07 1282.46,-159.17"/>
<polygon fill="midnightblue" stroke="midnightblue" points="1323.39,-197.67 1333.32,-201.36 1327.86,-192.28 1323.39,-197.67"/>
</g>
</g>
</svg>
