<?xml version="1.0" encoding="UTF-8" standalone="no"?>
<!DOCTYPE svg PUBLIC "-//W3C//DTD SVG 1.1//EN"
 "http://www.w3.org/Graphics/SVG/1.1/DTD/svg11.dtd">
<!-- Generated by graphviz version 2.43.0 (0)
 -->
<!-- Title: include/depz/core/iparameter_store.h Pages: 1 -->
<svg width="485pt" height="95pt"
 viewBox="0.00 0.00 484.50 95.00" xmlns="http://www.w3.org/2000/svg" xmlns:xlink="http://www.w3.org/1999/xlink">
<g id="graph0" class="graph" transform="scale(1 1) rotate(0) translate(4 91)">
<title>include/depz/core/iparameter_store.h</title>
<polygon fill="white" stroke="transparent" points="-4,4 -4,-91 480.5,-91 480.5,4 -4,4"/>
<!-- Node1 -->
<g id="node1" class="node">
<title>Node1</title>
<g id="a_node1"><a xlink:title="Type&#45;erased key/value parameter store interface.">
<polygon fill="#bfbfbf" stroke="black" points="184.5,-56.5 184.5,-86.5 343.5,-86.5 343.5,-56.5 184.5,-56.5"/>
<text text-anchor="start" x="192.5" y="-74.5" font-family="Helvetica,sans-Serif" font-size="10.00">include/depz/core/iparameter</text>
<text text-anchor="middle" x="264" y="-63.5" font-family="Helvetica,sans-Serif" font-size="10.00">_store.h</text>
</a>
</g>
</g>
<!-- Node2 -->
<g id="node2" class="node">
<title>Node2</title>
<g id="a_node2"><a xlink:title=" ">
<polygon fill="white" stroke="#bfbfbf" points="0,-0.5 0,-19.5 116,-19.5 116,-0.5 0,-0.5"/>
<text text-anchor="middle" x="58" y="-7.5" font-family="Helvetica,sans-Serif" font-size="10.00">opencv2/opencv.hpp</text>
</a>
</g>
</g>
<!-- Node1&#45;&gt;Node2 -->
<g id="edge1" class="edge">
<title>Node1&#45;&gt;Node2</title>
<path fill="none" stroke="midnightblue" d="M215.44,-56.47C179.44,-46.08 130.98,-32.08 97.37,-22.37"/>
<polygon fill="midnightblue" stroke="midnightblue" points="98.03,-18.92 87.45,-19.51 96.09,-25.64 98.03,-18.92"/>
</g>
<!-- Node3 -->
<g id="node3" class="node">
<title>Node3</title>
<g id="a_node3"><a xlink:title=" ">
<polygon fill="white" stroke="#bfbfbf" points="134,-0.5 134,-19.5 184,-19.5 184,-0.5 134,-0.5"/>
<text text-anchor="middle" x="159" y="-7.5" font-family="Helvetica,sans-Serif" font-size="10.00">cstdint</text>
</a>
</g>
</g>
<!-- Node1&#45;&gt;Node3 -->
<g id="edge2" class="edge">
<title>Node1&#45;&gt;Node3</title>
<path fill="none" stroke="midnightblue" d="M239.12,-56.4C222.29,-46.86 200.16,-34.32 183.43,-24.84"/>
<polygon fill="midnightblue" stroke="midnightblue" points="184.7,-21.54 174.28,-19.66 181.25,-27.63 184.7,-21.54"/>
</g>
<!-- Node4 -->
<g id="node4" class="node">
<title>Node4</title>
<g id="a_node4"><a xlink:title=" ">
<polygon fill="white" stroke="#bfbfbf" points="202,-0.5 202,-19.5 258,-19.5 258,-0.5 202,-0.5"/>
<text text-anchor="middle" x="230" y="-7.5" font-family="Helvetica,sans-Serif" font-size="10.00">optional</text>
</a>
</g>
</g>
<!-- Node1&#45;&gt;Node4 -->
<g id="edge3" class="edge">
<title>Node1&#45;&gt;Node4</title>
<path fill="none" stroke="midnightblue" d="M255.94,-56.4C251.15,-48.02 245.04,-37.33 239.96,-28.42"/>
<polygon fill="midnightblue" stroke="midnightblue" points="242.95,-26.6 234.95,-19.66 236.87,-30.08 242.95,-26.6"/>
</g>
<!-- Node5 -->
<g id="node5" class="node">
<title>Node5</title>
<g id="a_node5"><a xlink:title=" ">
<polygon fill="white" stroke="#bfbfbf" points="276,-0.5 276,-19.5 320,-19.5 320,-0.5 276,-0.5"/>
<text text-anchor="middle" x="298" y="-7.5" font-family="Helvetica,sans-Serif" font-size="10.00">string</text>
</a>
</g>
</g>
<!-- Node1&#45;&gt;Node5 -->
<g id="edge4" class="edge">
<title>Node1&#45;&gt;Node5</title>
<path fill="none" stroke="midnightblue" d="M272.06,-56.4C276.85,-48.02 282.96,-37.33 288.04,-28.42"/>
<polygon fill="midnightblue" stroke="midnightblue" points="291.13,-30.08 293.05,-19.66 285.05,-26.6 291.13,-30.08"/>
</g>
<!-- Node6 -->
<g id="node6" class="node">
<title>Node6</title>
<g id="a_node6"><a xlink:title=" ">
<polygon fill="white" stroke="#bfbfbf" points="338.5,-0.5 338.5,-19.5 407.5,-19.5 407.5,-0.5 338.5,-0.5"/>
<text text-anchor="middle" x="373" y="-7.5" font-family="Helvetica,sans-Serif" font-size="10.00">type_traits</text>
</a>
</g>
</g>
<!-- Node1&#45;&gt;Node6 -->
<g id="edge5" class="edge">
<title>Node1&#45;&gt;Node6</title>
<path fill="none" stroke="midnightblue" d="M289.83,-56.4C307.47,-46.77 330.7,-34.09 348.13,-24.58"/>
<polygon fill="midnightblue" stroke="midnightblue" points="350.04,-27.52 357.14,-19.66 346.69,-21.38 350.04,-27.52"/>
</g>
<!-- Node7 -->
<g id="node7" class="node">
<title>Node7</title>
<g id="a_node7"><a xlink:title=" ">
<polygon fill="white" stroke="#bfbfbf" points="425.5,-0.5 425.5,-19.5 476.5,-19.5 476.5,-0.5 425.5,-0.5"/>
<text text-anchor="middle" x="451" y="-7.5" font-family="Helvetica,sans-Serif" font-size="10.00">variant</text>
</a>
</g>
</g>
<!-- Node1&#45;&gt;Node7 -->
<g id="edge6" class="edge">
<title>Node1&#45;&gt;Node7</title>
<path fill="none" stroke="midnightblue" d="M308.32,-56.4C341.11,-45.96 385.2,-31.94 415.65,-22.25"/>
<polygon fill="midnightblue" stroke="midnightblue" points="416.94,-25.51 425.41,-19.14 414.82,-18.84 416.94,-25.51"/>
</g>
</g>
</svg>
