<?xml version="1.0" encoding="UTF-8" standalone="no"?>
<!DOCTYPE svg PUBLIC "-//W3C//DTD SVG 1.1//EN"
 "http://www.w3.org/Graphics/SVG/1.1/DTD/svg11.dtd">
<!-- Generated by graphviz version 2.43.0 (0)
 -->
<!-- Title: include/depz/stereo/istereo_inference.h Pages: 1 -->
<svg width="808pt" height="173pt"
 viewBox="0.00 0.00 808.00 173.00" xmlns="http://www.w3.org/2000/svg" xmlns:xlink="http://www.w3.org/1999/xlink">
<g id="graph0" class="graph" transform="scale(1 1) rotate(0) translate(4 169)">
<title>include/depz/stereo/istereo_inference.h</title>
<polygon fill="white" stroke="transparent" points="-4,4 -4,-169 804,-169 804,4 -4,4"/>
<!-- Node1 -->
<g id="node1" class="node">
<title>Node1</title>
<g id="a_node1"><a xlink:title=" ">
<polygon fill="#bfbfbf" stroke="black" points="281.5,-134.5 281.5,-164.5 394.5,-164.5 394.5,-134.5 281.5,-134.5"/>
<text text-anchor="start" x="289.5" y="-152.5" font-family="Helvetica,sans-Serif" font-size="10.00">include/depz/stereo</text>
<text text-anchor="middle" x="338" y="-141.5" font-family="Helvetica,sans-Serif" font-size="10.00">/istereo_inference.h</text>
</a>
</g>
</g>
<!-- Node2 -->
<g id="node2" class="node">
<title>Node2</title>
<g id="a_node2"><a xlink:href="stereo__pipeline_8hpp.html" target="_top" xlink:title=" ">
<polygon fill="white" stroke="black" points="0,-62 0,-92 144,-92 144,-62 0,-62"/>
<text text-anchor="start" x="8" y="-80" font-family="Helvetica,sans-Serif" font-size="10.00">include/depz/core/pipeline</text>
<text text-anchor="middle" x="72" y="-69" font-family="Helvetica,sans-Serif" font-size="10.00">/stereo_pipeline.hpp</text>
</a>
</g>
</g>
<!-- Node1&#45;&gt;Node2 -->
<g id="edge1" class="edge">
<title>Node1&#45;&gt;Node2</title>
<path fill="none" stroke="midnightblue" d="M275.34,-131.89C229.69,-119.79 168.52,-103.58 125.23,-92.11"/>
<polygon fill="midnightblue" stroke="midnightblue" points="274.57,-135.31 285.13,-134.49 276.36,-128.54 274.57,-135.31"/>
</g>
<!-- Node3 -->
<g id="node3" class="node">
<title>Node3</title>
<g id="a_node3"><a xlink:href="depz_8h.html" target="_top" xlink:title="Single umbrella header that pulls in the whole iStereoLab public API.">
<polygon fill="white" stroke="black" points="115.5,-0.5 115.5,-19.5 228.5,-19.5 228.5,-0.5 115.5,-0.5"/>
<text text-anchor="middle" x="172" y="-7.5" font-family="Helvetica,sans-Serif" font-size="10.00">include/depz/depz.h</text>
</a>
</g>
</g>
<!-- Node1&#45;&gt;Node3 -->
<g id="edge3" class="edge">
<title>Node1&#45;&gt;Node3</title>
<path fill="none" stroke="midnightblue" d="M271.41,-140.34C242.87,-133.51 211.47,-120.99 191,-98 170.95,-75.48 170.42,-36.79 171.31,-19.63"/>
<polygon fill="midnightblue" stroke="midnightblue" points="270.84,-143.8 281.36,-142.53 272.35,-136.96 270.84,-143.8"/>
</g>
<!-- Node4 -->
<g id="node4" class="node">
<title>Node4</title>
<g id="a_node4"><a xlink:href="onnxruntime__stereo__inference_8h.html" target="_top" xlink:title="ONNX Runtime implementation of the legacy IStereoInference 2&#45;input API.">
<polygon fill="white" stroke="black" points="200,-56.5 200,-97.5 318,-97.5 318,-56.5 200,-56.5"/>
<text text-anchor="start" x="208" y="-85.5" font-family="Helvetica,sans-Serif" font-size="10.00">include/depz/stereo</text>
<text text-anchor="start" x="208" y="-74.5" font-family="Helvetica,sans-Serif" font-size="10.00">/onnxruntime_stereo</text>
<text text-anchor="middle" x="259" y="-63.5" font-family="Helvetica,sans-Serif" font-size="10.00">_inference.h</text>
</a>
</g>
</g>
<!-- Node1&#45;&gt;Node4 -->
<g id="edge4" class="edge">
<title>Node1&#45;&gt;Node4</title>
<path fill="none" stroke="midnightblue" d="M314.33,-127.38C303.74,-117.93 291.33,-106.85 280.95,-97.59"/>
<polygon fill="midnightblue" stroke="midnightblue" points="312.22,-130.19 322.01,-134.23 316.88,-124.96 312.22,-130.19"/>
</g>
<!-- Node5 -->
<g id="node5" class="node">
<title>Node5</title>
<g id="a_node5"><a xlink:href="openvino__stereo__inference_8h.html" target="_top" xlink:title="OpenVINO implementation of the legacy IStereoInference 2&#45;input API.">
<polygon fill="white" stroke="black" points="336.5,-62 336.5,-92 497.5,-92 497.5,-62 336.5,-62"/>
<text text-anchor="start" x="344.5" y="-80" font-family="Helvetica,sans-Serif" font-size="10.00">include/depz/stereo</text>
<text text-anchor="middle" x="417" y="-69" font-family="Helvetica,sans-Serif" font-size="10.00">/openvino_stereo_inference.h</text>
</a>
</g>
</g>
<!-- Node1&#45;&gt;Node5 -->
<g id="edge5" class="edge">
<title>Node1&#45;&gt;Node5</title>
<path fill="none" stroke="midnightblue" d="M361.57,-127.46C374.41,-116 389.95,-102.14 401.31,-92"/>
<polygon fill="midnightblue" stroke="midnightblue" points="359.12,-124.96 353.99,-134.23 363.78,-130.19 359.12,-124.96"/>
</g>
<!-- Node6 -->
<g id="node6" class="node">
<title>Node6</title>
<g id="a_node6"><a xlink:href="stereo__depth_8h.html" target="_top" xlink:title=" ">
<polygon fill="white" stroke="black" points="516,-62 516,-92 628,-92 628,-62 516,-62"/>
<text text-anchor="start" x="524" y="-80" font-family="Helvetica,sans-Serif" font-size="10.00">include/depz/stereo</text>
<text text-anchor="middle" x="572" y="-69" font-family="Helvetica,sans-Serif" font-size="10.00">/stereo_depth.h</text>
</a>
</g>
</g>
<!-- Node1&#45;&gt;Node6 -->
<g id="edge6" class="edge">
<title>Node1&#45;&gt;Node6</title>
<path fill="none" stroke="midnightblue" d="M395.24,-131.52C427.98,-121.78 469.82,-109.27 507,-98 513.33,-96.08 520,-94.04 526.56,-92.03"/>
<polygon fill="midnightblue" stroke="midnightblue" points="393.97,-128.25 385.38,-134.45 395.96,-134.96 393.97,-128.25"/>
</g>
<!-- Node7 -->
<g id="node7" class="node">
<title>Node7</title>
<g id="a_node7"><a xlink:href="tensorrt__stereo__inference_8h.html" target="_top" xlink:title="TensorRT implementation of the legacy IStereoInference 2&#45;input API.">
<polygon fill="white" stroke="black" points="646,-62 646,-92 800,-92 800,-62 646,-62"/>
<text text-anchor="start" x="654" y="-80" font-family="Helvetica,sans-Serif" font-size="10.00">include/depz/stereo</text>
<text text-anchor="middle" x="723" y="-69" font-family="Helvetica,sans-Serif" font-size="10.00">/tensorrt_stereo_inference.h</text>
</a>
</g>
</g>
<!-- Node1&#45;&gt;Node7 -->
<g id="edge8" class="edge">
<title>Node1&#45;&gt;Node7</title>
<path fill="none" stroke="midnightblue" d="M404.9,-138.4C465.63,-128.95 557.59,-113.92 637,-98 646.02,-96.19 655.53,-94.13 664.82,-92.04"/>
<polygon fill="midnightblue" stroke="midnightblue" points="404.02,-135 394.68,-139.99 405.09,-141.91 404.02,-135"/>
</g>
<!-- Node2&#45;&gt;Node3 -->
<g id="edge2" class="edge">
<title>Node2&#45;&gt;Node3</title>
<path fill="none" stroke="midnightblue" d="M102.3,-56.31C121.21,-44.01 144.61,-28.8 158.91,-19.51"/>
<polygon fill="midnightblue" stroke="midnightblue" points="100.18,-53.51 93.7,-61.9 103.99,-59.38 100.18,-53.51"/>
</g>
<!-- Node6&#45;&gt;Node3 -->
<g id="edge7" class="edge">
<title>Node6&#45;&gt;Node3</title>
<path fill="none" stroke="midnightblue" d="M520.25,-59.24C515.8,-58.05 511.33,-56.95 507,-56 410.28,-34.77 295.51,-21.98 228.51,-15.72"/>
<polygon fill="midnightblue" stroke="midnightblue" points="519.39,-62.64 529.96,-61.96 521.28,-55.89 519.39,-62.64"/>
</g>
</g>
</svg>
