<?xml version="1.0" encoding="UTF-8" standalone="no"?>
<!DOCTYPE svg PUBLIC "-//W3C//DTD SVG 1.1//EN"
 "http://www.w3.org/Graphics/SVG/1.1/DTD/svg11.dtd">
<!-- Generated by graphviz version 2.43.0 (0)
 -->
<!-- Title: include/depz/stereo/istereo_calibration_model.h Pages: 1 -->
<svg width="485pt" height="173pt"
 viewBox="0.00 0.00 485.00 173.00" xmlns="http://www.w3.org/2000/svg" xmlns:xlink="http://www.w3.org/1999/xlink">
<g id="graph0" class="graph" transform="scale(1 1) rotate(0) translate(4 169)">
<title>include/depz/stereo/istereo_calibration_model.h</title>
<polygon fill="white" stroke="transparent" points="-4,4 -4,-169 481,-169 481,4 -4,4"/>
<!-- Node1 -->
<g id="node1" class="node">
<title>Node1</title>
<g id="a_node1"><a xlink:title=" ">
<polygon fill="#bfbfbf" stroke="black" points="208,-123.5 208,-164.5 320,-164.5 320,-123.5 208,-123.5"/>
<text text-anchor="start" x="216" y="-152.5" font-family="Helvetica,sans-Serif" font-size="10.00">include/depz/stereo</text>
<text text-anchor="start" x="216" y="-141.5" font-family="Helvetica,sans-Serif" font-size="10.00">/istereo_calibration</text>
<text text-anchor="middle" x="264" y="-130.5" font-family="Helvetica,sans-Serif" font-size="10.00">_model.h</text>
</a>
</g>
</g>
<!-- Node2 -->
<g id="node2" class="node">
<title>Node2</title>
<g id="a_node2"><a xlink:href="iparameter__store_8h.html" target="_top" xlink:title="Type&#45;erased key/value parameter store interface.">
<polygon fill="white" stroke="black" points="203.5,-56.5 203.5,-86.5 324.5,-86.5 324.5,-56.5 203.5,-56.5"/>
<text text-anchor="start" x="211.5" y="-74.5" font-family="Helvetica,sans-Serif" font-size="10.00">depz/core/iparameter</text>
<text text-anchor="middle" x="264" y="-63.5" font-family="Helvetica,sans-Serif" font-size="10.00">_store.h</text>
</a>
</g>
</g>
<!-- Node1&#45;&gt;Node2 -->
<g id="edge1" class="edge">
<title>Node1&#45;&gt;Node2</title>
<path fill="none" stroke="midnightblue" d="M264,-123.36C264,-115.23 264,-105.7 264,-97.11"/>
<polygon fill="midnightblue" stroke="midnightblue" points="267.5,-96.89 264,-86.89 260.5,-96.89 267.5,-96.89"/>
</g>
<!-- Node3 -->
<g id="node3" class="node">
<title>Node3</title>
<g id="a_node3"><a xlink:title=" ">
<polygon fill="white" stroke="#bfbfbf" points="0,-0.5 0,-19.5 116,-19.5 116,-0.5 0,-0.5"/>
<text text-anchor="middle" x="58" y="-7.5" font-family="Helvetica,sans-Serif" font-size="10.00">opencv2/opencv.hpp</text>
</a>
</g>
</g>
<!-- Node1&#45;&gt;Node3 -->
<g id="edge8" class="edge">
<title>Node1&#45;&gt;Node3</title>
<path fill="none" stroke="midnightblue" d="M233.16,-123.24C191.15,-96.32 116.96,-48.78 80.08,-25.15"/>
<polygon fill="midnightblue" stroke="midnightblue" points="81.86,-22.13 71.55,-19.69 78.09,-28.03 81.86,-22.13"/>
</g>
<!-- Node6 -->
<g id="node6" class="node">
<title>Node6</title>
<g id="a_node6"><a xlink:title=" ">
<polygon fill="white" stroke="#bfbfbf" points="433,-0.5 433,-19.5 477,-19.5 477,-0.5 433,-0.5"/>
<text text-anchor="middle" x="455" y="-7.5" font-family="Helvetica,sans-Serif" font-size="10.00">string</text>
</a>
</g>
</g>
<!-- Node1&#45;&gt;Node6 -->
<g id="edge9" class="edge">
<title>Node1&#45;&gt;Node6</title>
<path fill="none" stroke="midnightblue" d="M292.59,-123.24C331.38,-96.43 399.75,-49.18 434.09,-25.45"/>
<polygon fill="midnightblue" stroke="midnightblue" points="436.2,-28.25 442.43,-19.69 432.22,-22.49 436.2,-28.25"/>
</g>
<!-- Node2&#45;&gt;Node3 -->
<g id="edge2" class="edge">
<title>Node2&#45;&gt;Node3</title>
<path fill="none" stroke="midnightblue" d="M215.44,-56.47C179.44,-46.08 130.98,-32.08 97.37,-22.37"/>
<polygon fill="midnightblue" stroke="midnightblue" points="98.03,-18.92 87.45,-19.51 96.09,-25.64 98.03,-18.92"/>
</g>
<!-- Node4 -->
<g id="node4" class="node">
<title>Node4</title>
<g id="a_node4"><a xlink:title=" ">
<polygon fill="white" stroke="#bfbfbf" points="134,-0.5 134,-19.5 184,-19.5 184,-0.5 134,-0.5"/>
<text text-anchor="middle" x="159" y="-7.5" font-family="Helvetica,sans-Serif" font-size="10.00">cstdint</text>
</a>
</g>
</g>
<!-- Node2&#45;&gt;Node4 -->
<g id="edge3" class="edge">
<title>Node2&#45;&gt;Node4</title>
<path fill="none" stroke="midnightblue" d="M239.12,-56.4C222.29,-46.86 200.16,-34.32 183.43,-24.84"/>
<polygon fill="midnightblue" stroke="midnightblue" points="184.7,-21.54 174.28,-19.66 181.25,-27.63 184.7,-21.54"/>
</g>
<!-- Node5 -->
<g id="node5" class="node">
<title>Node5</title>
<g id="a_node5"><a xlink:title=" ">
<polygon fill="white" stroke="#bfbfbf" points="202,-0.5 202,-19.5 258,-19.5 258,-0.5 202,-0.5"/>
<text text-anchor="middle" x="230" y="-7.5" font-family="Helvetica,sans-Serif" font-size="10.00">optional</text>
</a>
</g>
</g>
<!-- Node2&#45;&gt;Node5 -->
<g id="edge4" class="edge">
<title>Node2&#45;&gt;Node5</title>
<path fill="none" stroke="midnightblue" d="M255.94,-56.4C251.15,-48.02 245.04,-37.33 239.96,-28.42"/>
<polygon fill="midnightblue" stroke="midnightblue" points="242.95,-26.6 234.95,-19.66 236.87,-30.08 242.95,-26.6"/>
</g>
<!-- Node2&#45;&gt;Node6 -->
<g id="edge5" class="edge">
<title>Node2&#45;&gt;Node6</title>
<path fill="none" stroke="midnightblue" d="M309.26,-56.4C344.25,-45.5 391.81,-30.68 422.95,-20.99"/>
<polygon fill="midnightblue" stroke="midnightblue" points="424.33,-24.22 432.83,-17.91 422.24,-17.54 424.33,-24.22"/>
</g>
<!-- Node7 -->
<g id="node7" class="node">
<title>Node7</title>
<g id="a_node7"><a xlink:title=" ">
<polygon fill="white" stroke="#bfbfbf" points="276.5,-0.5 276.5,-19.5 345.5,-19.5 345.5,-0.5 276.5,-0.5"/>
<text text-anchor="middle" x="311" y="-7.5" font-family="Helvetica,sans-Serif" font-size="10.00">type_traits</text>
</a>
</g>
</g>
<!-- Node2&#45;&gt;Node7 -->
<g id="edge6" class="edge">
<title>Node2&#45;&gt;Node7</title>
<path fill="none" stroke="midnightblue" d="M275.14,-56.4C281.97,-47.75 290.74,-36.64 297.91,-27.58"/>
<polygon fill="midnightblue" stroke="midnightblue" points="300.71,-29.67 304.16,-19.66 295.22,-25.34 300.71,-29.67"/>
</g>
<!-- Node8 -->
<g id="node8" class="node">
<title>Node8</title>
<g id="a_node8"><a xlink:title=" ">
<polygon fill="white" stroke="#bfbfbf" points="363.5,-0.5 363.5,-19.5 414.5,-19.5 414.5,-0.5 363.5,-0.5"/>
<text text-anchor="middle" x="389" y="-7.5" font-family="Helvetica,sans-Serif" font-size="10.00">variant</text>
</a>
</g>
</g>
<!-- Node2&#45;&gt;Node8 -->
<g id="edge7" class="edge">
<title>Node2&#45;&gt;Node8</title>
<path fill="none" stroke="midnightblue" d="M293.62,-56.4C314.22,-46.59 341.48,-33.62 361.58,-24.05"/>
<polygon fill="midnightblue" stroke="midnightblue" points="363.29,-27.12 370.81,-19.66 360.28,-20.8 363.29,-27.12"/>
</g>
</g>
</svg>
