<?xml version="1.0" encoding="UTF-8" standalone="no"?>
<!DOCTYPE svg PUBLIC "-//W3C//DTD SVG 1.1//EN"
 "http://www.w3.org/Graphics/SVG/1.1/DTD/svg11.dtd">
<!-- Generated by graphviz version 2.43.0 (0)
 -->
<!-- Title: include/depz/stereo/istereo_calibration_model.h Pages: 1 -->
<!--zoomable 251 -->
<svg id="main" version="1.1" xmlns="http://www.w3.org/2000/svg" xmlns:xlink="http://www.w3.org/1999/xlink" xml:space="preserve" onload="init(evt)">
<style type="text/css"><![CDATA[
.edge:hover path { stroke: red; }
.edge:hover polygon { stroke: red; fill: red; }
]]></style>
<script type="text/javascript"><![CDATA[
var edges = document.getElementsByTagName('g');
if (edges && edges.length) {
  for (var i=0;i<edges.length;i++) {
    if (edges[i].id.substr(0,4)=='edge') {
      edges[i].setAttribute('class','edge');
    }
  }
}
]]></script>
        <defs>
                <circle id="rim" cx="0" cy="0" r="7"/>
                <circle id="rim2" cx="0" cy="0" r="3.5"/>
                <g id="zoomPlus">
                        <use xlink:href="#rim" fill="#404040">
                                <set attributeName="fill" to="#808080" begin="zoomplus.mouseover" end="zoomplus.mouseout"/>
                        </use>
                        <path d="M-4,0h8M0,-4v8" fill="none" stroke="white" stroke-width="1.5" pointer-events="none"/>
                </g>
                <g id="zoomMin">
                        <use xlink:href="#rim" fill="#404040">
                                <set attributeName="fill" to="#808080" begin="zoomminus.mouseover" end="zoomminus.mouseout"/>
                        </use>
                        <path d="M-4,0h8" fill="none" stroke="white" stroke-width="1.5" pointer-events="none"/>
                </g>
                <g id="dirArrow">
                        <path fill="none" stroke="white" stroke-width="1.5" d="M0,-3.0v7 M-2.5,-0.5L0,-3.0L2.5,-0.5"/>
                </g>
               <g id="resetDef">
                       <use xlink:href="#rim2" fill="#404040">
                               <set attributeName="fill" to="#808080" begin="reset.mouseover" end="reset.mouseout"/>
                       </use>
               </g>
        </defs>

<script type="text/javascript">
var viewWidth = 851;
var viewHeight = 251;
var sectionId = 'dynsection-1';
</script>
<script xlink:href="svgpan.js"/>
<svg id="graph" class="graph">
<g id="viewport">
<title>include/depz/stereo/istereo_calibration_model.h</title>
<polygon fill="white" stroke="transparent" points="-4,4 -4,-247 846.5,-247 846.5,4 -4,4"/>
<!-- Node1 -->
<g id="node1" class="node">
<title>Node1</title>
<g id="a_node1"><a xlink:title=" ">
<polygon fill="#bfbfbf" stroke="black" points="116,-201.5 116,-242.5 228,-242.5 228,-201.5 116,-201.5"/>
<text text-anchor="start" x="124" y="-230.5" font-family="Helvetica,sans-Serif" font-size="10.00">include/depz/stereo</text>
<text text-anchor="start" x="124" y="-219.5" font-family="Helvetica,sans-Serif" font-size="10.00">/istereo_calibration</text>
<text text-anchor="middle" x="172" y="-208.5" font-family="Helvetica,sans-Serif" font-size="10.00">_model.h</text>
</a>
</g>
</g>
<!-- Node2 -->
<g id="node2" class="node">
<title>Node2</title>
<g id="a_node2"><a xlink:href="stereo__pipeline_8hpp.html" target="_top" xlink:title=" ">
<polygon fill="white" stroke="black" points="0,-134.5 0,-164.5 144,-164.5 144,-134.5 0,-134.5"/>
<text text-anchor="start" x="8" y="-152.5" font-family="Helvetica,sans-Serif" font-size="10.00">include/depz/core/pipeline</text>
<text text-anchor="middle" x="72" y="-141.5" font-family="Helvetica,sans-Serif" font-size="10.00">/stereo_pipeline.hpp</text>
</a>
</g>
</g>
<!-- Node1&#45;&gt;Node2 -->
<g id="edge1" class="edge">
<title>Node1&#45;&gt;Node2</title>
<path fill="none" stroke="midnightblue" d="M135.73,-195.43C121.02,-185.06 104.59,-173.48 92.1,-164.67"/>
<polygon fill="midnightblue" stroke="midnightblue" points="133.95,-198.46 144.14,-201.36 137.99,-192.74 133.95,-198.46"/>
</g>
<!-- Node3 -->
<g id="node3" class="node">
<title>Node3</title>
<g id="a_node3"><a xlink:href="depz_8h.html" target="_top" xlink:title="Single umbrella header that pulls in the whole iStereoLab public API.">
<polygon fill="white" stroke="black" points="153.5,-0.5 153.5,-19.5 266.5,-19.5 266.5,-0.5 153.5,-0.5"/>
<text text-anchor="middle" x="210" y="-7.5" font-family="Helvetica,sans-Serif" font-size="10.00">include/depz/depz.h</text>
</a>
</g>
</g>
<!-- Node1&#45;&gt;Node3 -->
<g id="edge3" class="edge">
<title>Node1&#45;&gt;Node3</title>
<path fill="none" stroke="midnightblue" d="M177.37,-191.34C186.15,-142.8 203.14,-48.91 208.4,-19.82"/>
<polygon fill="midnightblue" stroke="midnightblue" points="173.91,-190.78 175.57,-201.24 180.8,-192.03 173.91,-190.78"/>
</g>
<!-- Node4 -->
<g id="node4" class="node">
<title>Node4</title>
<g id="a_node4"><a xlink:href="stereocalibration_8h.html" target="_top" xlink:title="Stereo camera calibration: load, validate, rectify.">
<polygon fill="white" stroke="black" points="348,-134.5 348,-164.5 460,-164.5 460,-134.5 348,-134.5"/>
<text text-anchor="start" x="356" y="-152.5" font-family="Helvetica,sans-Serif" font-size="10.00">include/depz/stereo</text>
<text text-anchor="middle" x="404" y="-141.5" font-family="Helvetica,sans-Serif" font-size="10.00">/stereocalibration.h</text>
</a>
</g>
</g>
<!-- Node1&#45;&gt;Node4 -->
<g id="edge4" class="edge">
<title>Node1&#45;&gt;Node4</title>
<path fill="none" stroke="midnightblue" d="M238.17,-200.89C276.38,-189.28 323.48,-174.97 357.71,-164.57"/>
<polygon fill="midnightblue" stroke="midnightblue" points="236.71,-197.68 228.16,-203.93 238.75,-204.38 236.71,-197.68"/>
</g>
<!-- Node2&#45;&gt;Node3 -->
<g id="edge2" class="edge">
<title>Node2&#45;&gt;Node3</title>
<path fill="none" stroke="midnightblue" d="M91.09,-126.66C108.11,-107.51 133.98,-79.18 158,-56 171.75,-42.74 188.62,-28.47 199.35,-19.64"/>
<polygon fill="midnightblue" stroke="midnightblue" points="88.37,-124.45 84.37,-134.26 93.61,-129.09 88.37,-124.45"/>
</g>
<!-- Node4&#45;&gt;Node3 -->
<g id="edge7" class="edge">
<title>Node4&#45;&gt;Node3</title>
<path fill="none" stroke="midnightblue" d="M337.61,-145.46C300.7,-140.26 256.75,-127.65 229,-98 208.4,-75.99 208.16,-37.03 209.21,-19.72"/>
<polygon fill="midnightblue" stroke="midnightblue" points="337.46,-148.97 347.82,-146.74 338.33,-142.03 337.46,-148.97"/>
</g>
<!-- Node5 -->
<g id="node5" class="node">
<title>Node5</title>
<g id="a_node5"><a xlink:href="opencv__basic_8h.html" target="_top" xlink:title="Concrete Calibration for the OpenCV5 / OpenCV8 pinhole lens model.">
<polygon fill="white" stroke="black" points="238.5,-62 238.5,-92 395.5,-92 395.5,-62 238.5,-62"/>
<text text-anchor="start" x="246.5" y="-80" font-family="Helvetica,sans-Serif" font-size="10.00">include/depz/core/calibration</text>
<text text-anchor="middle" x="317" y="-69" font-family="Helvetica,sans-Serif" font-size="10.00">/opencv_basic.h</text>
</a>
</g>
</g>
<!-- Node4&#45;&gt;Node5 -->
<g id="edge5" class="edge">
<title>Node4&#45;&gt;Node5</title>
<path fill="none" stroke="midnightblue" d="M378.44,-127.79C364.22,-116.27 346.9,-102.23 334.28,-92"/>
<polygon fill="midnightblue" stroke="midnightblue" points="376.42,-130.66 386.39,-134.23 380.83,-125.22 376.42,-130.66"/>
</g>
<!-- Node6 -->
<g id="node6" class="node">
<title>Node6</title>
<g id="a_node6"><a xlink:href="opencv__depth__calibration_8h.html" target="_top" xlink:title="IDepthCalibration for the pinhole stereo model, backed by StereoCalibration.">
<polygon fill="white" stroke="black" points="413.5,-62 413.5,-92 570.5,-92 570.5,-62 413.5,-62"/>
<text text-anchor="start" x="421.5" y="-80" font-family="Helvetica,sans-Serif" font-size="10.00">include/depz/core/calibration</text>
<text text-anchor="middle" x="492" y="-69" font-family="Helvetica,sans-Serif" font-size="10.00">/opencv_depth_calibration.h</text>
</a>
</g>
</g>
<!-- Node4&#45;&gt;Node6 -->
<g id="edge6" class="edge">
<title>Node4&#45;&gt;Node6</title>
<path fill="none" stroke="midnightblue" d="M429.85,-127.79C444.24,-116.27 461.75,-102.23 474.52,-92"/>
<polygon fill="midnightblue" stroke="midnightblue" points="427.42,-125.25 421.81,-134.23 431.8,-130.71 427.42,-125.25"/>
</g>
<!-- Node7 -->
<g id="node7" class="node">
<title>Node7</title>
<g id="a_node7"><a xlink:href="calibration__params_8h.html" target="_top" xlink:title=" ">
<polygon fill="white" stroke="black" points="589,-62 589,-92 711,-92 711,-62 589,-62"/>
<text text-anchor="start" x="597" y="-80" font-family="Helvetica,sans-Serif" font-size="10.00">include/depz/stereo</text>
<text text-anchor="middle" x="650" y="-69" font-family="Helvetica,sans-Serif" font-size="10.00">/calibration_params.h</text>
</a>
</g>
</g>
<!-- Node4&#45;&gt;Node7 -->
<g id="edge8" class="edge">
<title>Node4&#45;&gt;Node7</title>
<path fill="none" stroke="midnightblue" d="M462.74,-131.66C504.87,-119.59 560.99,-103.51 600.78,-92.11"/>
<polygon fill="midnightblue" stroke="midnightblue" points="461.54,-128.37 452.9,-134.49 463.47,-135.1 461.54,-128.37"/>
</g>
<!-- Node8 -->
<g id="node8" class="node">
<title>Node8</title>
<g id="a_node8"><a xlink:href="camera__calibration__web__loader_8h.html" target="_top" xlink:title="Download stereo calibration JSON by camera serial and parse it into StereoCalibration.">
<polygon fill="white" stroke="black" points="729.5,-56.5 729.5,-97.5 842.5,-97.5 842.5,-56.5 729.5,-56.5"/>
<text text-anchor="start" x="737.5" y="-85.5" font-family="Helvetica,sans-Serif" font-size="10.00">include/depz/stereo</text>
<text text-anchor="start" x="737.5" y="-74.5" font-family="Helvetica,sans-Serif" font-size="10.00">/camera_calibration</text>
<text text-anchor="middle" x="786" y="-63.5" font-family="Helvetica,sans-Serif" font-size="10.00">_web_loader.h</text>
</a>
</g>
</g>
<!-- Node4&#45;&gt;Node8 -->
<g id="edge10" class="edge">
<title>Node4&#45;&gt;Node8</title>
<path fill="none" stroke="midnightblue" d="M470.1,-140.59C534.38,-132.28 634.56,-117.68 720,-98 723.03,-97.3 726.13,-96.54 729.25,-95.73"/>
<polygon fill="midnightblue" stroke="midnightblue" points="469.57,-137.13 460.1,-141.87 470.46,-144.08 469.57,-137.13"/>
</g>
<!-- Node7&#45;&gt;Node3 -->
<g id="edge9" class="edge">
<title>Node7&#45;&gt;Node3</title>
<path fill="none" stroke="midnightblue" d="M594.64,-59.32C589.71,-58.1 584.78,-56.97 580,-56 470.12,-33.76 339.5,-21.01 266.54,-15.1"/>
<polygon fill="midnightblue" stroke="midnightblue" points="594.13,-62.81 604.69,-61.93 595.9,-56.03 594.13,-62.81"/>
</g>
<!-- Node8&#45;&gt;Node3 -->
<g id="edge11" class="edge">
<title>Node8&#45;&gt;Node3</title>
<path fill="none" stroke="midnightblue" d="M719.46,-56.12C550.04,-24.19 359.68,-14.99 266.75,-12.2"/>
<polygon fill="midnightblue" stroke="midnightblue" points="718.83,-59.56 729.31,-58.01 720.14,-52.69 718.83,-59.56"/>
</g>
</g>
</svg>
        <g id="navigator" transform="translate(0 0)" fill="#404254">
                <rect fill="#f2f5e9" fill-opacity="0.5" stroke="#606060" stroke-width=".5" x="0" y="0" width="60" height="60"/>
                <use id="zoomplus" xlink:href="#zoomPlus" x="17" y="9" onmousedown="handleZoom(evt,'in')"/>
                <use id="zoomminus" xlink:href="#zoomMin" x="42" y="9" onmousedown="handleZoom(evt,'out')"/>
                <use id="reset" xlink:href="#resetDef" x="30" y="36" onmousedown="handleReset()"/>
                <g id="arrowUp" xlink:href="#dirArrow" transform="translate(30 24)" onmousedown="handlePan(0,-1)">
                  <use xlink:href="#rim" fill="#404040">
                        <set attributeName="fill" to="#808080" begin="arrowUp.mouseover" end="arrowUp.mouseout"/>
                  </use>
                  <path fill="none" stroke="white" stroke-width="1.5" d="M0,-3.0v7 M-2.5,-0.5L0,-3.0L2.5,-0.5"/>
                </g>
                <g id="arrowRight" xlink:href="#dirArrow" transform="rotate(90) translate(36 -43)" onmousedown="handlePan(1,0)">
                  <use xlink:href="#rim" fill="#404040">
                        <set attributeName="fill" to="#808080" begin="arrowRight.mouseover" end="arrowRight.mouseout"/>
                  </use>
                  <path fill="none" stroke="white" stroke-width="1.5" d="M0,-3.0v7 M-2.5,-0.5L0,-3.0L2.5,-0.5"/>
                </g>
                <g id="arrowDown" xlink:href="#dirArrow" transform="rotate(180) translate(-30 -48)" onmousedown="handlePan(0,1)">
                  <use xlink:href="#rim" fill="#404040">
                        <set attributeName="fill" to="#808080" begin="arrowDown.mouseover" end="arrowDown.mouseout"/>
                  </use>
                  <path fill="none" stroke="white" stroke-width="1.5" d="M0,-3.0v7 M-2.5,-0.5L0,-3.0L2.5,-0.5"/>
                </g>
                <g id="arrowLeft" xlink:href="#dirArrow" transform="rotate(270) translate(-36 17)" onmousedown="handlePan(-1,0)">
                  <use xlink:href="#rim" fill="#404040">
                        <set attributeName="fill" to="#808080" begin="arrowLeft.mouseover" end="arrowLeft.mouseout"/>
                  </use>
                  <path fill="none" stroke="white" stroke-width="1.5" d="M0,-3.0v7 M-2.5,-0.5L0,-3.0L2.5,-0.5"/>
                </g>
        </g>
        <svg viewBox="0 0 15 15" width="100%" height="30px" preserveAspectRatio="xMaxYMin meet">
         <g id="arrow_out" transform="scale(0.3 0.3)">
          <a xlink:href="istereo__calibration__model_8h__dep__incl_org.svg" target="_base">
           <rect id="button" ry="5" rx="5" y="6" x="6" height="38" width="38"
                fill="#f2f5e9" fill-opacity="0.5" stroke="#606060" stroke-width="1.0"/>
           <path id="arrow"
             d="M 11.500037,31.436501 C 11.940474,20.09759 22.043105,11.32322 32.158766,21.979434 L 37.068811,17.246167 C 37.068811,17.246167 37.088388,32 37.088388,32 L 22.160133,31.978069 C 22.160133,31.978069 26.997745,27.140456 26.997745,27.140456 C 18.528582,18.264221 13.291696,25.230495 11.500037,31.436501 z"
             style="fill:#404040;"/>
          </a>
         </g>
        </svg>
</svg>
