<?xml version="1.0" encoding="UTF-8" standalone="no"?>
<!DOCTYPE svg PUBLIC "-//W3C//DTD SVG 1.1//EN"
 "http://www.w3.org/Graphics/SVG/1.1/DTD/svg11.dtd">
<!-- Generated by graphviz version 2.43.0 (0)
 -->
<!-- Title: include/depz/core/recorder/libav_mkv_source_adapter.h Pages: 1 -->
<svg width="411pt" height="229pt"
 viewBox="0.00 0.00 411.00 229.00" xmlns="http://www.w3.org/2000/svg" xmlns:xlink="http://www.w3.org/1999/xlink">
<g id="graph0" class="graph" transform="scale(1 1) rotate(0) translate(4 225)">
<title>include/depz/core/recorder/libav_mkv_source_adapter.h</title>
<polygon fill="white" stroke="transparent" points="-4,4 -4,-225 407,-225 407,4 -4,4"/>
<!-- Node1 -->
<g id="node1" class="node">
<title>Node1</title>
<g id="a_node1"><a xlink:title="libavformat demuxer behind the IMkvSource interface — the seekable replay head of the worker pipeline...">
<polygon fill="#bfbfbf" stroke="black" points="212.5,-190.5 212.5,-220.5 371.5,-220.5 371.5,-190.5 212.5,-190.5"/>
<text text-anchor="start" x="220.5" y="-208.5" font-family="Helvetica,sans-Serif" font-size="10.00">include/depz/core/recorder</text>
<text text-anchor="middle" x="292" y="-197.5" font-family="Helvetica,sans-Serif" font-size="10.00">/libav_mkv_source_adapter.h</text>
</a>
</g>
</g>
<!-- Node2 -->
<g id="node2" class="node">
<title>Node2</title>
<g id="a_node2"><a xlink:href="imkv__source_8h.html" target="_top" xlink:title="Abstract Matroska/MKV reader — the replay sibling of IMkvRecorder.">
<polygon fill="white" stroke="black" points="156.5,-123.5 156.5,-153.5 263.5,-153.5 263.5,-123.5 156.5,-123.5"/>
<text text-anchor="start" x="164.5" y="-141.5" font-family="Helvetica,sans-Serif" font-size="10.00">depz/core/recorder</text>
<text text-anchor="middle" x="210" y="-130.5" font-family="Helvetica,sans-Serif" font-size="10.00">/imkv_source.h</text>
</a>
</g>
</g>
<!-- Node1&#45;&gt;Node2 -->
<g id="edge1" class="edge">
<title>Node1&#45;&gt;Node2</title>
<path fill="none" stroke="midnightblue" d="M274.21,-190.4C262.92,-181.45 248.15,-169.74 235.61,-159.8"/>
<polygon fill="midnightblue" stroke="midnightblue" points="237.77,-157.05 227.76,-153.58 233.42,-162.53 237.77,-157.05"/>
</g>
<!-- Node5 -->
<g id="node5" class="node">
<title>Node5</title>
<g id="a_node5"><a xlink:title=" ">
<polygon fill="white" stroke="#bfbfbf" points="0,-0.5 0,-19.5 50,-19.5 50,-0.5 0,-0.5"/>
<text text-anchor="middle" x="25" y="-7.5" font-family="Helvetica,sans-Serif" font-size="10.00">cstdint</text>
</a>
</g>
</g>
<!-- Node1&#45;&gt;Node5 -->
<g id="edge10" class="edge">
<title>Node1&#45;&gt;Node5</title>
<path fill="none" stroke="midnightblue" d="M212.5,-191.92C151.87,-177.71 72.3,-148.02 33,-87 22.03,-69.96 21.3,-46.2 22.5,-29.8"/>
<polygon fill="midnightblue" stroke="midnightblue" points="25.99,-30.11 23.53,-19.8 19.02,-29.39 25.99,-30.11"/>
</g>
<!-- Node7 -->
<g id="node7" class="node">
<title>Node7</title>
<g id="a_node7"><a xlink:title=" ">
<polygon fill="white" stroke="#bfbfbf" points="223,-0.5 223,-19.5 267,-19.5 267,-0.5 223,-0.5"/>
<text text-anchor="middle" x="245" y="-7.5" font-family="Helvetica,sans-Serif" font-size="10.00">string</text>
</a>
</g>
</g>
<!-- Node1&#45;&gt;Node7 -->
<g id="edge12" class="edge">
<title>Node1&#45;&gt;Node7</title>
<path fill="none" stroke="midnightblue" d="M300.02,-190.39C314.55,-162.77 341.59,-100.36 317,-56 308.38,-40.45 291.91,-29.57 276.89,-22.4"/>
<polygon fill="midnightblue" stroke="midnightblue" points="277.89,-19.02 267.33,-18.22 275.09,-25.43 277.89,-19.02"/>
</g>
<!-- Node8 -->
<g id="node8" class="node">
<title>Node8</title>
<g id="a_node8"><a xlink:title=" ">
<polygon fill="white" stroke="#bfbfbf" points="261.5,-62 261.5,-81 308.5,-81 308.5,-62 261.5,-62"/>
<text text-anchor="middle" x="285" y="-69" font-family="Helvetica,sans-Serif" font-size="10.00">vector</text>
</a>
</g>
</g>
<!-- Node1&#45;&gt;Node8 -->
<g id="edge13" class="edge">
<title>Node1&#45;&gt;Node8</title>
<path fill="none" stroke="midnightblue" d="M291.25,-190.37C289.99,-166.5 287.42,-118.18 286,-91.41"/>
<polygon fill="midnightblue" stroke="midnightblue" points="289.48,-90.9 285.46,-81.1 282.49,-91.27 289.48,-90.9"/>
</g>
<!-- Node9 -->
<g id="node9" class="node">
<title>Node9</title>
<g id="a_node9"><a xlink:title=" ">
<polygon fill="white" stroke="#bfbfbf" points="365,-129 365,-148 403,-148 403,-129 365,-129"/>
<text text-anchor="middle" x="384" y="-136" font-family="Helvetica,sans-Serif" font-size="10.00">map</text>
</a>
</g>
</g>
<!-- Node1&#45;&gt;Node9 -->
<g id="edge11" class="edge">
<title>Node1&#45;&gt;Node9</title>
<path fill="none" stroke="midnightblue" d="M311.96,-190.4C327.25,-179.6 348.25,-164.76 363.64,-153.89"/>
<polygon fill="midnightblue" stroke="midnightblue" points="365.81,-156.64 371.96,-148.01 361.77,-150.92 365.81,-156.64"/>
</g>
<!-- Node3 -->
<g id="node3" class="node">
<title>Node3</title>
<g id="a_node3"><a xlink:href="iframe__source_8h.html" target="_top" xlink:title="Abstract interface for raw frame sources feeding the DepthPipeline.">
<polygon fill="white" stroke="black" points="65,-56.5 65,-86.5 205,-86.5 205,-56.5 65,-56.5"/>
<text text-anchor="start" x="73" y="-74.5" font-family="Helvetica,sans-Serif" font-size="10.00">depz/core/sources/iframe</text>
<text text-anchor="middle" x="135" y="-63.5" font-family="Helvetica,sans-Serif" font-size="10.00">_source.h</text>
</a>
</g>
</g>
<!-- Node2&#45;&gt;Node3 -->
<g id="edge2" class="edge">
<title>Node2&#45;&gt;Node3</title>
<path fill="none" stroke="midnightblue" d="M193.73,-123.4C183.6,-114.62 170.4,-103.18 159.08,-93.37"/>
<polygon fill="midnightblue" stroke="midnightblue" points="161.09,-90.48 151.24,-86.58 156.51,-95.77 161.09,-90.48"/>
</g>
<!-- Node2&#45;&gt;Node5 -->
<g id="edge7" class="edge">
<title>Node2&#45;&gt;Node5</title>
<path fill="none" stroke="midnightblue" d="M156.47,-131.4C123.87,-125.15 83.38,-112.51 56,-87 39.67,-71.78 31.71,-46.72 28,-29.57"/>
<polygon fill="midnightblue" stroke="midnightblue" points="31.42,-28.8 26.13,-19.62 24.54,-30.1 31.42,-28.8"/>
</g>
<!-- Node2&#45;&gt;Node7 -->
<g id="edge8" class="edge">
<title>Node2&#45;&gt;Node7</title>
<path fill="none" stroke="midnightblue" d="M213.88,-123.48C220.2,-100.62 232.74,-55.3 239.82,-29.71"/>
<polygon fill="midnightblue" stroke="midnightblue" points="243.27,-30.36 242.57,-19.79 236.53,-28.49 243.27,-30.36"/>
</g>
<!-- Node2&#45;&gt;Node8 -->
<g id="edge9" class="edge">
<title>Node2&#45;&gt;Node8</title>
<path fill="none" stroke="midnightblue" d="M226.27,-123.4C238.32,-112.96 254.71,-98.75 267.12,-88"/>
<polygon fill="midnightblue" stroke="midnightblue" points="269.7,-90.39 274.97,-81.19 265.12,-85.1 269.7,-90.39"/>
</g>
<!-- Node4 -->
<g id="node4" class="node">
<title>Node4</title>
<g id="a_node4"><a xlink:title=" ">
<polygon fill="white" stroke="#bfbfbf" points="151.5,-0.5 151.5,-19.5 204.5,-19.5 204.5,-0.5 151.5,-0.5"/>
<text text-anchor="middle" x="178" y="-7.5" font-family="Helvetica,sans-Serif" font-size="10.00">cstddef</text>
</a>
</g>
</g>
<!-- Node3&#45;&gt;Node4 -->
<g id="edge3" class="edge">
<title>Node3&#45;&gt;Node4</title>
<path fill="none" stroke="midnightblue" d="M145.19,-56.4C151.37,-47.84 159.3,-36.87 165.82,-27.86"/>
<polygon fill="midnightblue" stroke="midnightblue" points="168.72,-29.81 171.74,-19.66 163.05,-25.71 168.72,-29.81"/>
</g>
<!-- Node3&#45;&gt;Node5 -->
<g id="edge4" class="edge">
<title>Node3&#45;&gt;Node5</title>
<path fill="none" stroke="midnightblue" d="M108.93,-56.4C91.13,-46.77 67.69,-34.09 50.1,-24.58"/>
<polygon fill="midnightblue" stroke="midnightblue" points="51.47,-21.34 41.01,-19.66 48.14,-27.49 51.47,-21.34"/>
</g>
<!-- Node6 -->
<g id="node6" class="node">
<title>Node6</title>
<g id="a_node6"><a xlink:title=" ">
<polygon fill="white" stroke="#bfbfbf" points="68.5,-0.5 68.5,-19.5 133.5,-19.5 133.5,-0.5 68.5,-0.5"/>
<text text-anchor="middle" x="101" y="-7.5" font-family="Helvetica,sans-Serif" font-size="10.00">functional</text>
</a>
</g>
</g>
<!-- Node3&#45;&gt;Node6 -->
<g id="edge5" class="edge">
<title>Node3&#45;&gt;Node6</title>
<path fill="none" stroke="midnightblue" d="M126.94,-56.4C122.15,-48.02 116.04,-37.33 110.96,-28.42"/>
<polygon fill="midnightblue" stroke="midnightblue" points="113.95,-26.6 105.95,-19.66 107.87,-30.08 113.95,-26.6"/>
</g>
<!-- Node3&#45;&gt;Node7 -->
<g id="edge6" class="edge">
<title>Node3&#45;&gt;Node7</title>
<path fill="none" stroke="midnightblue" d="M161.07,-56.4C178.87,-46.77 202.31,-34.09 219.9,-24.58"/>
<polygon fill="midnightblue" stroke="midnightblue" points="221.86,-27.49 228.99,-19.66 218.53,-21.34 221.86,-27.49"/>
</g>
</g>
</svg>
