<?xml version="1.0" encoding="UTF-8" standalone="no"?>
<!DOCTYPE svg PUBLIC "-//W3C//DTD SVG 1.1//EN"
 "http://www.w3.org/Graphics/SVG/1.1/DTD/svg11.dtd">
<!-- Generated by graphviz version 2.43.0 (0)
 -->
<!-- Title: include/depz/core/recorder/libav_recorder_adapter.h Pages: 1 -->
<svg width="300pt" height="162pt"
 viewBox="0.00 0.00 300.00 162.00" xmlns="http://www.w3.org/2000/svg" xmlns:xlink="http://www.w3.org/1999/xlink">
<g id="graph0" class="graph" transform="scale(1 1) rotate(0) translate(4 158)">
<title>include/depz/core/recorder/libav_recorder_adapter.h</title>
<polygon fill="white" stroke="transparent" points="-4,4 -4,-158 296,-158 296,4 -4,4"/>
<!-- Node1 -->
<g id="node1" class="node">
<title>Node1</title>
<g id="a_node1"><a xlink:title="libavformat MKV multiplexer behind the IMkvRecorder interface — the recording tap the worker writes r...">
<polygon fill="#bfbfbf" stroke="black" points="115,-123.5 115,-153.5 261,-153.5 261,-123.5 115,-123.5"/>
<text text-anchor="start" x="123" y="-141.5" font-family="Helvetica,sans-Serif" font-size="10.00">include/depz/core/recorder</text>
<text text-anchor="middle" x="188" y="-130.5" font-family="Helvetica,sans-Serif" font-size="10.00">/libav_recorder_adapter.h</text>
</a>
</g>
</g>
<!-- Node2 -->
<g id="node2" class="node">
<title>Node2</title>
<g id="a_node2"><a xlink:href="imkv__recorder_8h.html" target="_top" xlink:title="Abstract Matroska/MKV writer for recording camera streams.">
<polygon fill="white" stroke="black" points="52.5,-56.5 52.5,-86.5 159.5,-86.5 159.5,-56.5 52.5,-56.5"/>
<text text-anchor="start" x="60.5" y="-74.5" font-family="Helvetica,sans-Serif" font-size="10.00">depz/core/recorder</text>
<text text-anchor="middle" x="106" y="-63.5" font-family="Helvetica,sans-Serif" font-size="10.00">/imkv_recorder.h</text>
</a>
</g>
</g>
<!-- Node1&#45;&gt;Node2 -->
<g id="edge1" class="edge">
<title>Node1&#45;&gt;Node2</title>
<path fill="none" stroke="midnightblue" d="M170.21,-123.4C158.92,-114.45 144.15,-102.74 131.61,-92.8"/>
<polygon fill="midnightblue" stroke="midnightblue" points="133.77,-90.05 123.76,-86.58 129.42,-95.53 133.77,-90.05"/>
</g>
<!-- Node4 -->
<g id="node4" class="node">
<title>Node4</title>
<g id="a_node4"><a xlink:title=" ">
<polygon fill="white" stroke="#bfbfbf" points="0,-0.5 0,-19.5 50,-19.5 50,-0.5 0,-0.5"/>
<text text-anchor="middle" x="25" y="-7.5" font-family="Helvetica,sans-Serif" font-size="10.00">cstdint</text>
</a>
</g>
</g>
<!-- Node1&#45;&gt;Node4 -->
<g id="edge6" class="edge">
<title>Node1&#45;&gt;Node4</title>
<path fill="none" stroke="midnightblue" d="M114.99,-127C88.99,-119.78 61.57,-107.58 43,-87 28.98,-71.46 25.32,-47.02 24.63,-30.07"/>
<polygon fill="midnightblue" stroke="midnightblue" points="28.12,-29.7 24.53,-19.74 21.13,-29.77 28.12,-29.7"/>
</g>
<!-- Node5 -->
<g id="node5" class="node">
<title>Node5</title>
<g id="a_node5"><a xlink:title=" ">
<polygon fill="white" stroke="#bfbfbf" points="140,-0.5 140,-19.5 184,-19.5 184,-0.5 140,-0.5"/>
<text text-anchor="middle" x="162" y="-7.5" font-family="Helvetica,sans-Serif" font-size="10.00">string</text>
</a>
</g>
</g>
<!-- Node1&#45;&gt;Node5 -->
<g id="edge8" class="edge">
<title>Node1&#45;&gt;Node5</title>
<path fill="none" stroke="midnightblue" d="M185.12,-123.48C180.42,-100.62 171.1,-55.3 165.85,-29.71"/>
<polygon fill="midnightblue" stroke="midnightblue" points="169.25,-28.88 163.81,-19.79 162.39,-30.29 169.25,-28.88"/>
</g>
<!-- Node6 -->
<g id="node6" class="node">
<title>Node6</title>
<g id="a_node6"><a xlink:title=" ">
<polygon fill="white" stroke="#bfbfbf" points="202.5,-0.5 202.5,-19.5 249.5,-19.5 249.5,-0.5 202.5,-0.5"/>
<text text-anchor="middle" x="226" y="-7.5" font-family="Helvetica,sans-Serif" font-size="10.00">vector</text>
</a>
</g>
</g>
<!-- Node1&#45;&gt;Node6 -->
<g id="edge9" class="edge">
<title>Node1&#45;&gt;Node6</title>
<path fill="none" stroke="midnightblue" d="M192.21,-123.48C199.11,-100.51 212.82,-54.89 220.48,-29.37"/>
<polygon fill="midnightblue" stroke="midnightblue" points="223.83,-30.37 223.36,-19.79 217.13,-28.36 223.83,-30.37"/>
</g>
<!-- Node7 -->
<g id="node7" class="node">
<title>Node7</title>
<g id="a_node7"><a xlink:title=" ">
<polygon fill="white" stroke="#bfbfbf" points="254,-62 254,-81 292,-81 292,-62 254,-62"/>
<text text-anchor="middle" x="273" y="-69" font-family="Helvetica,sans-Serif" font-size="10.00">map</text>
</a>
</g>
</g>
<!-- Node1&#45;&gt;Node7 -->
<g id="edge7" class="edge">
<title>Node1&#45;&gt;Node7</title>
<path fill="none" stroke="midnightblue" d="M206.44,-123.4C220.35,-112.76 239.39,-98.2 253.54,-87.38"/>
<polygon fill="midnightblue" stroke="midnightblue" points="255.81,-90.05 261.63,-81.19 251.56,-84.49 255.81,-90.05"/>
</g>
<!-- Node3 -->
<g id="node3" class="node">
<title>Node3</title>
<g id="a_node3"><a xlink:title=" ">
<polygon fill="white" stroke="#bfbfbf" points="68.5,-0.5 68.5,-19.5 121.5,-19.5 121.5,-0.5 68.5,-0.5"/>
<text text-anchor="middle" x="95" y="-7.5" font-family="Helvetica,sans-Serif" font-size="10.00">cstddef</text>
</a>
</g>
</g>
<!-- Node2&#45;&gt;Node3 -->
<g id="edge2" class="edge">
<title>Node2&#45;&gt;Node3</title>
<path fill="none" stroke="midnightblue" d="M103.39,-56.4C101.91,-48.38 100.03,-38.23 98.43,-29.57"/>
<polygon fill="midnightblue" stroke="midnightblue" points="101.86,-28.85 96.6,-19.66 94.98,-30.13 101.86,-28.85"/>
</g>
<!-- Node2&#45;&gt;Node4 -->
<g id="edge3" class="edge">
<title>Node2&#45;&gt;Node4</title>
<path fill="none" stroke="midnightblue" d="M86.8,-56.4C74.18,-47.13 57.71,-35.03 44.94,-25.65"/>
<polygon fill="midnightblue" stroke="midnightblue" points="46.92,-22.76 36.79,-19.66 42.77,-28.4 46.92,-22.76"/>
</g>
<!-- Node2&#45;&gt;Node5 -->
<g id="edge4" class="edge">
<title>Node2&#45;&gt;Node5</title>
<path fill="none" stroke="midnightblue" d="M119.27,-56.4C127.58,-47.58 138.3,-36.18 146.92,-27.02"/>
<polygon fill="midnightblue" stroke="midnightblue" points="149.55,-29.34 153.85,-19.66 144.45,-24.54 149.55,-29.34"/>
</g>
<!-- Node2&#45;&gt;Node6 -->
<g id="edge5" class="edge">
<title>Node2&#45;&gt;Node6</title>
<path fill="none" stroke="midnightblue" d="M134.44,-56.4C154.12,-46.64 180.14,-33.74 199.41,-24.18"/>
<polygon fill="midnightblue" stroke="midnightblue" points="201.13,-27.24 208.54,-19.66 198.02,-20.96 201.13,-27.24"/>
</g>
</g>
</svg>
