<?xml version="1.0" encoding="UTF-8" standalone="no"?>
<!DOCTYPE svg PUBLIC "-//W3C//DTD SVG 1.1//EN"
 "http://www.w3.org/Graphics/SVG/1.1/DTD/svg11.dtd">
<!-- Generated by graphviz version 2.43.0 (0)
 -->
<!-- Title: include/depz/stereo/lightstereo.hpp Pages: 1 -->
<svg width="332pt" height="184pt"
 viewBox="0.00 0.00 332.00 184.00" xmlns="http://www.w3.org/2000/svg" xmlns:xlink="http://www.w3.org/1999/xlink">
<g id="graph0" class="graph" transform="scale(1 1) rotate(0) translate(4 180)">
<title>include/depz/stereo/lightstereo.hpp</title>
<polygon fill="white" stroke="transparent" points="-4,4 -4,-180 328,-180 328,4 -4,4"/>
<!-- Node1 -->
<g id="node1" class="node">
<title>Node1</title>
<g id="a_node1"><a xlink:title="Factory for the easy_deploy LightStereo matching model.">
<polygon fill="#bfbfbf" stroke="black" points="106,-145.5 106,-175.5 218,-175.5 218,-145.5 106,-145.5"/>
<text text-anchor="start" x="114" y="-163.5" font-family="Helvetica,sans-Serif" font-size="10.00">include/depz/stereo</text>
<text text-anchor="middle" x="162" y="-152.5" font-family="Helvetica,sans-Serif" font-size="10.00">/lightstereo.hpp</text>
</a>
</g>
</g>
<!-- Node2 -->
<g id="node2" class="node">
<title>Node2</title>
<g id="a_node2"><a xlink:title=" ">
<polygon fill="white" stroke="#bfbfbf" points="0,-73 0,-103 134,-103 134,-73 0,-73"/>
<text text-anchor="start" x="8" y="-91" font-family="Helvetica,sans-Serif" font-size="10.00">depz/ml_core/base/base</text>
<text text-anchor="middle" x="67" y="-80" font-family="Helvetica,sans-Serif" font-size="10.00">_stereo.hpp</text>
</a>
</g>
</g>
<!-- Node1&#45;&gt;Node2 -->
<g id="edge1" class="edge">
<title>Node1&#45;&gt;Node2</title>
<path fill="none" stroke="midnightblue" d="M142.78,-145.23C128.78,-134.85 109.63,-120.63 94.08,-109.1"/>
<polygon fill="midnightblue" stroke="midnightblue" points="95.99,-106.15 85.87,-103 91.82,-111.77 95.99,-106.15"/>
</g>
<!-- Node3 -->
<g id="node3" class="node">
<title>Node3</title>
<g id="a_node3"><a xlink:title=" ">
<polygon fill="white" stroke="#bfbfbf" points="142,-0.5 142,-30.5 276,-30.5 276,-0.5 142,-0.5"/>
<text text-anchor="start" x="150" y="-18.5" font-family="Helvetica,sans-Serif" font-size="10.00">depz/ml_core/base/base</text>
<text text-anchor="middle" x="209" y="-7.5" font-family="Helvetica,sans-Serif" font-size="10.00">_detection.hpp</text>
</a>
</g>
</g>
<!-- Node1&#45;&gt;Node3 -->
<g id="edge2" class="edge">
<title>Node1&#45;&gt;Node3</title>
<path fill="none" stroke="midnightblue" d="M163.55,-145.34C165.88,-126.87 171.1,-93.75 181,-67 184.49,-57.57 189.54,-47.78 194.39,-39.36"/>
<polygon fill="midnightblue" stroke="midnightblue" points="197.55,-40.9 199.7,-30.53 191.55,-37.3 197.55,-40.9"/>
</g>
<!-- Node4 -->
<g id="node4" class="node">
<title>Node4</title>
<g id="a_node4"><a xlink:href="image__processing__utils_8hpp.html" target="_top" xlink:title="Aspect&#45;preserving resize&#45;and&#45;pad preprocessing into an inference tensor.">
<polygon fill="white" stroke="black" points="190,-67.5 190,-108.5 324,-108.5 324,-67.5 190,-67.5"/>
<text text-anchor="start" x="198" y="-96.5" font-family="Helvetica,sans-Serif" font-size="10.00">depz/processing/image</text>
<text text-anchor="start" x="198" y="-85.5" font-family="Helvetica,sans-Serif" font-size="10.00">_processing_utils/image</text>
<text text-anchor="middle" x="257" y="-74.5" font-family="Helvetica,sans-Serif" font-size="10.00">_processing_utils.hpp</text>
</a>
</g>
</g>
<!-- Node1&#45;&gt;Node4 -->
<g id="edge3" class="edge">
<title>Node1&#45;&gt;Node4</title>
<path fill="none" stroke="midnightblue" d="M181.22,-145.23C192.99,-136.5 208.39,-125.07 222.23,-114.8"/>
<polygon fill="midnightblue" stroke="midnightblue" points="224.66,-117.36 230.6,-108.59 220.49,-111.74 224.66,-117.36"/>
</g>
<!-- Node4&#45;&gt;Node3 -->
<g id="edge4" class="edge">
<title>Node4&#45;&gt;Node3</title>
<path fill="none" stroke="midnightblue" d="M243.63,-67.36C237.72,-58.68 230.74,-48.42 224.59,-39.4"/>
<polygon fill="midnightblue" stroke="midnightblue" points="227.32,-37.19 218.8,-30.89 221.53,-41.13 227.32,-37.19"/>
</g>
</g>
</svg>
