<?xml version="1.0" encoding="UTF-8" standalone="no"?>
<!DOCTYPE svg PUBLIC "-//W3C//DTD SVG 1.1//EN"
 "http://www.w3.org/Graphics/SVG/1.1/DTD/svg11.dtd">
<!-- Generated by graphviz version 2.43.0 (0)
 -->
<!-- Title: include/depz/camera/linux_v4l2_identity_adapter.h Pages: 1 -->
<svg width="255pt" height="173pt"
 viewBox="0.00 0.00 254.50 173.00" xmlns="http://www.w3.org/2000/svg" xmlns:xlink="http://www.w3.org/1999/xlink">
<g id="graph0" class="graph" transform="scale(1 1) rotate(0) translate(4 169)">
<title>include/depz/camera/linux_v4l2_identity_adapter.h</title>
<polygon fill="white" stroke="transparent" points="-4,4 -4,-169 250.5,-169 250.5,4 -4,4"/>
<!-- Node1 -->
<g id="node1" class="node">
<title>Node1</title>
<g id="a_node1"><a xlink:title="V4L2 + sysfs camera enumeration on Linux.">
<polygon fill="#bfbfbf" stroke="black" points="119,-123.5 119,-164.5 237,-164.5 237,-123.5 119,-123.5"/>
<text text-anchor="start" x="127" y="-152.5" font-family="Helvetica,sans-Serif" font-size="10.00">include/depz/camera</text>
<text text-anchor="start" x="127" y="-141.5" font-family="Helvetica,sans-Serif" font-size="10.00">/linux_v4l2_identity</text>
<text text-anchor="middle" x="178" y="-130.5" font-family="Helvetica,sans-Serif" font-size="10.00">_adapter.h</text>
</a>
</g>
</g>
<!-- Node2 -->
<g id="node2" class="node">
<title>Node2</title>
<g id="a_node2"><a xlink:href="icamera__identity_8h.html" target="_top" xlink:title="Abstract DEPZ&#45;camera enumeration interface.">
<polygon fill="white" stroke="black" points="73,-56.5 73,-86.5 195,-86.5 195,-56.5 73,-56.5"/>
<text text-anchor="start" x="81" y="-74.5" font-family="Helvetica,sans-Serif" font-size="10.00">depz/camera/icamera</text>
<text text-anchor="middle" x="134" y="-63.5" font-family="Helvetica,sans-Serif" font-size="10.00">_identity.h</text>
</a>
</g>
</g>
<!-- Node1&#45;&gt;Node2 -->
<g id="edge1" class="edge">
<title>Node1&#45;&gt;Node2</title>
<path fill="none" stroke="midnightblue" d="M165.74,-123.36C160.33,-114.68 153.92,-104.42 148.29,-95.4"/>
<polygon fill="midnightblue" stroke="midnightblue" points="151.25,-93.52 142.98,-86.89 145.31,-97.23 151.25,-93.52"/>
</g>
<!-- Node6 -->
<g id="node6" class="node">
<title>Node6</title>
<g id="a_node6"><a xlink:title=" ">
<polygon fill="white" stroke="#bfbfbf" points="199.5,-0.5 199.5,-19.5 246.5,-19.5 246.5,-0.5 199.5,-0.5"/>
<text text-anchor="middle" x="223" y="-7.5" font-family="Helvetica,sans-Serif" font-size="10.00">vector</text>
</a>
</g>
</g>
<!-- Node1&#45;&gt;Node6 -->
<g id="edge6" class="edge">
<title>Node1&#45;&gt;Node6</title>
<path fill="none" stroke="midnightblue" d="M188.2,-123.43C193.43,-112.84 199.61,-99.43 204,-87 210.79,-67.81 216.13,-45.08 219.4,-29.51"/>
<polygon fill="midnightblue" stroke="midnightblue" points="222.86,-30.09 221.41,-19.59 215.99,-28.7 222.86,-30.09"/>
</g>
<!-- Node3 -->
<g id="node3" class="node">
<title>Node3</title>
<g id="a_node3"><a xlink:title=" ">
<polygon fill="white" stroke="#bfbfbf" points="0,-0.5 0,-19.5 56,-19.5 56,-0.5 0,-0.5"/>
<text text-anchor="middle" x="28" y="-7.5" font-family="Helvetica,sans-Serif" font-size="10.00">optional</text>
</a>
</g>
</g>
<!-- Node2&#45;&gt;Node3 -->
<g id="edge2" class="edge">
<title>Node2&#45;&gt;Node3</title>
<path fill="none" stroke="midnightblue" d="M108.88,-56.4C91.73,-46.77 69.14,-34.09 52.19,-24.58"/>
<polygon fill="midnightblue" stroke="midnightblue" points="53.86,-21.5 43.42,-19.66 50.43,-27.6 53.86,-21.5"/>
</g>
<!-- Node4 -->
<g id="node4" class="node">
<title>Node4</title>
<g id="a_node4"><a xlink:title=" ">
<polygon fill="white" stroke="#bfbfbf" points="74,-0.5 74,-19.5 118,-19.5 118,-0.5 74,-0.5"/>
<text text-anchor="middle" x="96" y="-7.5" font-family="Helvetica,sans-Serif" font-size="10.00">string</text>
</a>
</g>
</g>
<!-- Node2&#45;&gt;Node4 -->
<g id="edge3" class="edge">
<title>Node2&#45;&gt;Node4</title>
<path fill="none" stroke="midnightblue" d="M124.99,-56.4C119.59,-47.93 112.67,-37.1 106.95,-28.14"/>
<polygon fill="midnightblue" stroke="midnightblue" points="109.86,-26.2 101.53,-19.66 103.96,-29.97 109.86,-26.2"/>
</g>
<!-- Node5 -->
<g id="node5" class="node">
<title>Node5</title>
<g id="a_node5"><a xlink:title=" ">
<polygon fill="white" stroke="#bfbfbf" points="136.5,-0.5 136.5,-19.5 181.5,-19.5 181.5,-0.5 136.5,-0.5"/>
<text text-anchor="middle" x="159" y="-7.5" font-family="Helvetica,sans-Serif" font-size="10.00">utility</text>
</a>
</g>
</g>
<!-- Node2&#45;&gt;Node5 -->
<g id="edge4" class="edge">
<title>Node2&#45;&gt;Node5</title>
<path fill="none" stroke="midnightblue" d="M139.92,-56.4C143.37,-48.2 147.75,-37.78 151.44,-28.99"/>
<polygon fill="midnightblue" stroke="midnightblue" points="154.72,-30.23 155.36,-19.66 148.26,-27.52 154.72,-30.23"/>
</g>
<!-- Node2&#45;&gt;Node6 -->
<g id="edge5" class="edge">
<title>Node2&#45;&gt;Node6</title>
<path fill="none" stroke="midnightblue" d="M155.09,-56.4C169.09,-47.04 187.41,-34.79 201.49,-25.38"/>
<polygon fill="midnightblue" stroke="midnightblue" points="203.68,-28.13 210.05,-19.66 199.79,-22.31 203.68,-28.13"/>
</g>
</g>
</svg>
