<?xml version="1.0" encoding="UTF-8" standalone="no"?>
<!DOCTYPE svg PUBLIC "-//W3C//DTD SVG 1.1//EN"
 "http://www.w3.org/Graphics/SVG/1.1/DTD/svg11.dtd">
<!-- Generated by graphviz version 2.43.0 (0)
 -->
<!-- Title: include/depz/math/mat4.hpp Pages: 1 -->
<svg width="218pt" height="207pt"
 viewBox="0.00 0.00 218.00 207.00" xmlns="http://www.w3.org/2000/svg" xmlns:xlink="http://www.w3.org/1999/xlink">
<g id="graph0" class="graph" transform="scale(1 1) rotate(0) translate(4 203)">
<title>include/depz/math/mat4.hpp</title>
<polygon fill="white" stroke="transparent" points="-4,4 -4,-203 214,-203 214,4 -4,4"/>
<!-- Node1 -->
<g id="node1" class="node">
<title>Node1</title>
<g id="a_node1"><a xlink:title="4×4 single&#45;precision floating&#45;point matrix.">
<polygon fill="#bfbfbf" stroke="black" points="0,-179.5 0,-198.5 156,-198.5 156,-179.5 0,-179.5"/>
<text text-anchor="middle" x="78" y="-186.5" font-family="Helvetica,sans-Serif" font-size="10.00">include/depz/math/mat4.hpp</text>
</a>
</g>
</g>
<!-- Node2 -->
<g id="node2" class="node">
<title>Node2</title>
<g id="a_node2"><a xlink:href="depz_8h.html" target="_top" xlink:title="Single umbrella header that pulls in the whole iStereoLab public API.">
<polygon fill="white" stroke="black" points="13.5,-0.5 13.5,-19.5 126.5,-19.5 126.5,-0.5 13.5,-0.5"/>
<text text-anchor="middle" x="70" y="-7.5" font-family="Helvetica,sans-Serif" font-size="10.00">include/depz/depz.h</text>
</a>
</g>
</g>
<!-- Node1&#45;&gt;Node2 -->
<g id="edge1" class="edge">
<title>Node1&#45;&gt;Node2</title>
<path fill="none" stroke="midnightblue" d="M64.97,-171.23C59.51,-163.17 53.79,-153.08 51,-143 38.45,-97.71 57.75,-41.24 66.28,-19.81"/>
<polygon fill="midnightblue" stroke="midnightblue" points="62.15,-173.31 70.85,-179.36 67.82,-169.21 62.15,-173.31"/>
</g>
<!-- Node3 -->
<g id="node3" class="node">
<title>Node3</title>
<g id="a_node3"><a xlink:href="types_8hpp.html" target="_top" xlink:title="Core SDK&#45;wide data structures and enumerations.">
<polygon fill="white" stroke="black" points="60.5,-123.5 60.5,-142.5 189.5,-142.5 189.5,-123.5 60.5,-123.5"/>
<text text-anchor="middle" x="125" y="-130.5" font-family="Helvetica,sans-Serif" font-size="10.00">include/depz/types.hpp</text>
</a>
</g>
</g>
<!-- Node1&#45;&gt;Node3 -->
<g id="edge2" class="edge">
<title>Node1&#45;&gt;Node3</title>
<path fill="none" stroke="midnightblue" d="M92.42,-171.43C100.66,-161.97 110.65,-150.48 117.38,-142.75"/>
<polygon fill="midnightblue" stroke="midnightblue" points="89.69,-169.24 85.76,-179.08 94.97,-173.84 89.69,-169.24"/>
</g>
<!-- Node3&#45;&gt;Node2 -->
<g id="edge3" class="edge">
<title>Node3&#45;&gt;Node2</title>
<path fill="none" stroke="midnightblue" d="M109.33,-115.94C102.2,-107.84 94.21,-97.51 89,-87 77.77,-64.33 72.83,-34.48 70.97,-19.85"/>
<polygon fill="midnightblue" stroke="midnightblue" points="106.94,-118.52 116.3,-123.49 112.09,-113.77 106.94,-118.52"/>
</g>
<!-- Node4 -->
<g id="node4" class="node">
<title>Node4</title>
<g id="a_node4"><a xlink:href="depth__utils_8h.html" target="_top" xlink:title="Disparity&#45;to&#45;depth and point&#45;cloud conversion utilities.">
<polygon fill="white" stroke="black" points="98,-56.5 98,-86.5 210,-86.5 210,-56.5 98,-56.5"/>
<text text-anchor="start" x="106" y="-74.5" font-family="Helvetica,sans-Serif" font-size="10.00">include/depz/stereo</text>
<text text-anchor="middle" x="154" y="-63.5" font-family="Helvetica,sans-Serif" font-size="10.00">/depth_utils.h</text>
</a>
</g>
</g>
<!-- Node3&#45;&gt;Node4 -->
<g id="edge4" class="edge">
<title>Node3&#45;&gt;Node4</title>
<path fill="none" stroke="midnightblue" d="M133.58,-114.39C137.92,-105.5 143.1,-94.86 147.17,-86.52"/>
<polygon fill="midnightblue" stroke="midnightblue" points="130.39,-112.95 129.15,-123.48 136.68,-116.02 130.39,-112.95"/>
</g>
<!-- Node4&#45;&gt;Node2 -->
<g id="edge5" class="edge">
<title>Node4&#45;&gt;Node2</title>
<path fill="none" stroke="midnightblue" d="M125.74,-50.48C110.94,-40 93.59,-27.71 82.22,-19.66"/>
<polygon fill="midnightblue" stroke="midnightblue" points="123.91,-53.48 134.09,-56.4 127.96,-47.76 123.91,-53.48"/>
</g>
</g>
</svg>
