<?xml version="1.0" encoding="UTF-8" standalone="no"?>
<!DOCTYPE svg PUBLIC "-//W3C//DTD SVG 1.1//EN"
 "http://www.w3.org/Graphics/SVG/1.1/DTD/svg11.dtd">
<!-- Generated by graphviz version 2.43.0 (0)
 -->
<!-- Title: include/depz/math/mat4.hpp Pages: 1 -->
<svg width="184pt" height="140pt"
 viewBox="0.00 0.00 183.50 140.00" xmlns="http://www.w3.org/2000/svg" xmlns:xlink="http://www.w3.org/1999/xlink">
<g id="graph0" class="graph" transform="scale(1 1) rotate(0) translate(4 136)">
<title>include/depz/math/mat4.hpp</title>
<polygon fill="white" stroke="transparent" points="-4,4 -4,-136 179.5,-136 179.5,4 -4,4"/>
<!-- Node1 -->
<g id="node1" class="node">
<title>Node1</title>
<g id="a_node1"><a xlink:title="4×4 single&#45;precision floating&#45;point matrix.">
<polygon fill="#bfbfbf" stroke="black" points="19.5,-112.5 19.5,-131.5 175.5,-131.5 175.5,-112.5 19.5,-112.5"/>
<text text-anchor="middle" x="97.5" y="-119.5" font-family="Helvetica,sans-Serif" font-size="10.00">include/depz/math/mat4.hpp</text>
</a>
</g>
</g>
<!-- Node2 -->
<g id="node2" class="node">
<title>Node2</title>
<g id="a_node2"><a xlink:href="vec3_8hpp.html" target="_top" xlink:title="3&#45;D single&#45;precision floating&#45;point vector.">
<polygon fill="white" stroke="black" points="30,-56.5 30,-75.5 91,-75.5 91,-56.5 30,-56.5"/>
<text text-anchor="middle" x="60.5" y="-63.5" font-family="Helvetica,sans-Serif" font-size="10.00">vec3.hpp</text>
</a>
</g>
</g>
<!-- Node1&#45;&gt;Node2 -->
<g id="edge1" class="edge">
<title>Node1&#45;&gt;Node2</title>
<path fill="none" stroke="midnightblue" d="M91.39,-112.08C86.22,-104.53 78.65,-93.49 72.31,-84.23"/>
<polygon fill="midnightblue" stroke="midnightblue" points="75.04,-82.02 66.5,-75.75 69.26,-85.98 75.04,-82.02"/>
</g>
<!-- Node5 -->
<g id="node5" class="node">
<title>Node5</title>
<g id="a_node5"><a xlink:title=" ">
<polygon fill="white" stroke="#bfbfbf" points="109.5,-56.5 109.5,-75.5 159.5,-75.5 159.5,-56.5 109.5,-56.5"/>
<text text-anchor="middle" x="134.5" y="-63.5" font-family="Helvetica,sans-Serif" font-size="10.00">cstring</text>
</a>
</g>
</g>
<!-- Node1&#45;&gt;Node5 -->
<g id="edge4" class="edge">
<title>Node1&#45;&gt;Node5</title>
<path fill="none" stroke="midnightblue" d="M103.61,-112.08C108.78,-104.53 116.35,-93.49 122.69,-84.23"/>
<polygon fill="midnightblue" stroke="midnightblue" points="125.74,-85.98 128.5,-75.75 119.96,-82.02 125.74,-85.98"/>
</g>
<!-- Node3 -->
<g id="node3" class="node">
<title>Node3</title>
<g id="a_node3"><a xlink:title=" ">
<polygon fill="white" stroke="#bfbfbf" points="0,-0.5 0,-19.5 47,-19.5 47,-0.5 0,-0.5"/>
<text text-anchor="middle" x="23.5" y="-7.5" font-family="Helvetica,sans-Serif" font-size="10.00">cmath</text>
</a>
</g>
</g>
<!-- Node2&#45;&gt;Node3 -->
<g id="edge2" class="edge">
<title>Node2&#45;&gt;Node3</title>
<path fill="none" stroke="midnightblue" d="M54.39,-56.08C49.22,-48.53 41.65,-37.49 35.31,-28.23"/>
<polygon fill="midnightblue" stroke="midnightblue" points="38.04,-26.02 29.5,-19.75 32.26,-29.98 38.04,-26.02"/>
</g>
<!-- Node4 -->
<g id="node4" class="node">
<title>Node4</title>
<g id="a_node4"><a xlink:title=" ">
<polygon fill="white" stroke="#bfbfbf" points="65.5,-0.5 65.5,-19.5 129.5,-19.5 129.5,-0.5 65.5,-0.5"/>
<text text-anchor="middle" x="97.5" y="-7.5" font-family="Helvetica,sans-Serif" font-size="10.00">algorithm</text>
</a>
</g>
</g>
<!-- Node2&#45;&gt;Node4 -->
<g id="edge3" class="edge">
<title>Node2&#45;&gt;Node4</title>
<path fill="none" stroke="midnightblue" d="M66.61,-56.08C71.78,-48.53 79.35,-37.49 85.69,-28.23"/>
<polygon fill="midnightblue" stroke="midnightblue" points="88.74,-29.98 91.5,-19.75 82.96,-26.02 88.74,-29.98"/>
</g>
</g>
</svg>
