<?xml version="1.0" encoding="UTF-8" standalone="no"?>
<!DOCTYPE svg PUBLIC "-//W3C//DTD SVG 1.1//EN"
 "http://www.w3.org/Graphics/SVG/1.1/DTD/svg11.dtd">
<!-- Generated by graphviz version 2.43.0 (0)
 -->
<!-- Title: include/depz/core/sources/mkv_frame_source.h Pages: 1 -->
<svg width="432pt" height="229pt"
 viewBox="0.00 0.00 431.50 229.00" xmlns="http://www.w3.org/2000/svg" xmlns:xlink="http://www.w3.org/1999/xlink">
<g id="graph0" class="graph" transform="scale(1 1) rotate(0) translate(4 225)">
<title>include/depz/core/sources/mkv_frame_source.h</title>
<polygon fill="white" stroke="transparent" points="-4,4 -4,-225 427.5,-225 427.5,4 -4,4"/>
<!-- Node1 -->
<g id="node1" class="node">
<title>Node1</title>
<g id="a_node1"><a xlink:title="A recorded .mkv presented as a seekable FrameSource for replay.">
<polygon fill="#bfbfbf" stroke="black" points="221,-190.5 221,-220.5 364,-220.5 364,-190.5 221,-190.5"/>
<text text-anchor="start" x="229" y="-208.5" font-family="Helvetica,sans-Serif" font-size="10.00">include/depz/core/sources</text>
<text text-anchor="middle" x="292.5" y="-197.5" font-family="Helvetica,sans-Serif" font-size="10.00">/mkv_frame_source.h</text>
</a>
</g>
</g>
<!-- Node2 -->
<g id="node2" class="node">
<title>Node2</title>
<g id="a_node2"><a xlink:href="imkv__source_8h.html" target="_top" xlink:title="Abstract Matroska/MKV reader — the replay sibling of IMkvRecorder.">
<polygon fill="white" stroke="black" points="194,-123.5 194,-153.5 301,-153.5 301,-123.5 194,-123.5"/>
<text text-anchor="start" x="202" y="-141.5" font-family="Helvetica,sans-Serif" font-size="10.00">depz/core/recorder</text>
<text text-anchor="middle" x="247.5" y="-130.5" font-family="Helvetica,sans-Serif" font-size="10.00">/imkv_source.h</text>
</a>
</g>
</g>
<!-- Node1&#45;&gt;Node2 -->
<g id="edge1" class="edge">
<title>Node1&#45;&gt;Node2</title>
<path fill="none" stroke="midnightblue" d="M282.74,-190.4C276.96,-182.05 269.51,-171.29 262.95,-161.81"/>
<polygon fill="midnightblue" stroke="midnightblue" points="265.82,-159.81 257.25,-153.58 260.06,-163.79 265.82,-159.81"/>
</g>
<!-- Node3 -->
<g id="node3" class="node">
<title>Node3</title>
<g id="a_node3"><a xlink:href="iframe__source_8h.html" target="_top" xlink:title="Abstract interface for raw frame sources feeding the DepthPipeline.">
<polygon fill="white" stroke="black" points="27.5,-56.5 27.5,-86.5 167.5,-86.5 167.5,-56.5 27.5,-56.5"/>
<text text-anchor="start" x="35.5" y="-74.5" font-family="Helvetica,sans-Serif" font-size="10.00">depz/core/sources/iframe</text>
<text text-anchor="middle" x="97.5" y="-63.5" font-family="Helvetica,sans-Serif" font-size="10.00">_source.h</text>
</a>
</g>
</g>
<!-- Node1&#45;&gt;Node3 -->
<g id="edge10" class="edge">
<title>Node1&#45;&gt;Node3</title>
<path fill="none" stroke="midnightblue" d="M255.21,-190.49C233.65,-181.58 206.53,-168.91 184.5,-154 158.94,-136.7 133.63,-111.89 116.95,-94.2"/>
<polygon fill="midnightblue" stroke="midnightblue" points="119.3,-91.57 109.93,-86.62 114.16,-96.33 119.3,-91.57"/>
</g>
<!-- Node7 -->
<g id="node7" class="node">
<title>Node7</title>
<g id="a_node7"><a xlink:title=" ">
<polygon fill="white" stroke="#bfbfbf" points="277.5,-0.5 277.5,-19.5 321.5,-19.5 321.5,-0.5 277.5,-0.5"/>
<text text-anchor="middle" x="299.5" y="-7.5" font-family="Helvetica,sans-Serif" font-size="10.00">string</text>
</a>
</g>
</g>
<!-- Node1&#45;&gt;Node7 -->
<g id="edge12" class="edge">
<title>Node1&#45;&gt;Node7</title>
<path fill="none" stroke="midnightblue" d="M298.69,-190.23C302.66,-180.29 307.44,-166.6 309.5,-154 316.72,-109.95 308.91,-57.42 303.59,-29.92"/>
<polygon fill="midnightblue" stroke="midnightblue" points="306.95,-28.87 301.51,-19.77 300.09,-30.27 306.95,-28.87"/>
</g>
<!-- Node9 -->
<g id="node9" class="node">
<title>Node9</title>
<g id="a_node9"><a xlink:title=" ">
<polygon fill="white" stroke="#bfbfbf" points="365.5,-129 365.5,-148 423.5,-148 423.5,-129 365.5,-129"/>
<text text-anchor="middle" x="394.5" y="-136" font-family="Helvetica,sans-Serif" font-size="10.00">memory</text>
</a>
</g>
</g>
<!-- Node1&#45;&gt;Node9 -->
<g id="edge11" class="edge">
<title>Node1&#45;&gt;Node9</title>
<path fill="none" stroke="midnightblue" d="M314.63,-190.4C331.74,-179.5 355.3,-164.48 372.4,-153.58"/>
<polygon fill="midnightblue" stroke="midnightblue" points="374.6,-156.33 381.15,-148.01 370.84,-150.43 374.6,-156.33"/>
</g>
<!-- Node2&#45;&gt;Node3 -->
<g id="edge2" class="edge">
<title>Node2&#45;&gt;Node3</title>
<path fill="none" stroke="midnightblue" d="M214.95,-123.4C192.74,-113.77 163.12,-100.94 139.19,-90.56"/>
<polygon fill="midnightblue" stroke="midnightblue" points="140.55,-87.34 129.98,-86.58 137.77,-93.76 140.55,-87.34"/>
</g>
<!-- Node5 -->
<g id="node5" class="node">
<title>Node5</title>
<g id="a_node5"><a xlink:title=" ">
<polygon fill="white" stroke="#bfbfbf" points="165.5,-0.5 165.5,-19.5 215.5,-19.5 215.5,-0.5 165.5,-0.5"/>
<text text-anchor="middle" x="190.5" y="-7.5" font-family="Helvetica,sans-Serif" font-size="10.00">cstdint</text>
</a>
</g>
</g>
<!-- Node2&#45;&gt;Node5 -->
<g id="edge7" class="edge">
<title>Node2&#45;&gt;Node5</title>
<path fill="none" stroke="midnightblue" d="M236.56,-123.1C229.53,-113.32 220.6,-99.87 214.5,-87 205.64,-68.28 198.93,-45.47 194.89,-29.76"/>
<polygon fill="midnightblue" stroke="midnightblue" points="198.21,-28.6 192.43,-19.72 191.42,-30.27 198.21,-28.6"/>
</g>
<!-- Node2&#45;&gt;Node7 -->
<g id="edge8" class="edge">
<title>Node2&#45;&gt;Node7</title>
<path fill="none" stroke="midnightblue" d="M258.28,-123.14C265.18,-113.38 273.86,-99.94 279.5,-87 287.66,-68.28 293.11,-45.47 296.24,-29.75"/>
<polygon fill="midnightblue" stroke="midnightblue" points="299.72,-30.19 298.11,-19.72 292.83,-28.91 299.72,-30.19"/>
</g>
<!-- Node8 -->
<g id="node8" class="node">
<title>Node8</title>
<g id="a_node8"><a xlink:title=" ">
<polygon fill="white" stroke="#bfbfbf" points="224,-62 224,-81 271,-81 271,-62 224,-62"/>
<text text-anchor="middle" x="247.5" y="-69" font-family="Helvetica,sans-Serif" font-size="10.00">vector</text>
</a>
</g>
</g>
<!-- Node2&#45;&gt;Node8 -->
<g id="edge9" class="edge">
<title>Node2&#45;&gt;Node8</title>
<path fill="none" stroke="midnightblue" d="M247.5,-123.4C247.5,-114.06 247.5,-101.71 247.5,-91.52"/>
<polygon fill="midnightblue" stroke="midnightblue" points="251,-91.19 247.5,-81.19 244,-91.19 251,-91.19"/>
</g>
<!-- Node4 -->
<g id="node4" class="node">
<title>Node4</title>
<g id="a_node4"><a xlink:title=" ">
<polygon fill="white" stroke="#bfbfbf" points="0,-0.5 0,-19.5 53,-19.5 53,-0.5 0,-0.5"/>
<text text-anchor="middle" x="26.5" y="-7.5" font-family="Helvetica,sans-Serif" font-size="10.00">cstddef</text>
</a>
</g>
</g>
<!-- Node3&#45;&gt;Node4 -->
<g id="edge3" class="edge">
<title>Node3&#45;&gt;Node4</title>
<path fill="none" stroke="midnightblue" d="M80.67,-56.4C69.83,-47.31 55.72,-35.49 44.63,-26.19"/>
<polygon fill="midnightblue" stroke="midnightblue" points="46.74,-23.4 36.83,-19.66 42.25,-28.76 46.74,-23.4"/>
</g>
<!-- Node3&#45;&gt;Node5 -->
<g id="edge4" class="edge">
<title>Node3&#45;&gt;Node5</title>
<path fill="none" stroke="midnightblue" d="M119.54,-56.4C134.31,-46.95 153.68,-34.56 168.45,-25.11"/>
<polygon fill="midnightblue" stroke="midnightblue" points="170.43,-28 176.97,-19.66 166.66,-22.1 170.43,-28"/>
</g>
<!-- Node6 -->
<g id="node6" class="node">
<title>Node6</title>
<g id="a_node6"><a xlink:title=" ">
<polygon fill="white" stroke="#bfbfbf" points="71,-0.5 71,-19.5 136,-19.5 136,-0.5 71,-0.5"/>
<text text-anchor="middle" x="103.5" y="-7.5" font-family="Helvetica,sans-Serif" font-size="10.00">functional</text>
</a>
</g>
</g>
<!-- Node3&#45;&gt;Node6 -->
<g id="edge5" class="edge">
<title>Node3&#45;&gt;Node6</title>
<path fill="none" stroke="midnightblue" d="M98.92,-56.4C99.72,-48.47 100.73,-38.46 101.6,-29.86"/>
<polygon fill="midnightblue" stroke="midnightblue" points="105.11,-29.96 102.63,-19.66 98.14,-29.26 105.11,-29.96"/>
</g>
<!-- Node3&#45;&gt;Node7 -->
<g id="edge6" class="edge">
<title>Node3&#45;&gt;Node7</title>
<path fill="none" stroke="midnightblue" d="M145.12,-56.47C182.79,-45.38 234.39,-30.18 267.33,-20.47"/>
<polygon fill="midnightblue" stroke="midnightblue" points="268.73,-23.71 277.33,-17.53 266.75,-17 268.73,-23.71"/>
</g>
</g>
</svg>
