<?xml version="1.0" encoding="UTF-8" standalone="no"?>
<!DOCTYPE svg PUBLIC "-//W3C//DTD SVG 1.1//EN"
 "http://www.w3.org/Graphics/SVG/1.1/DTD/svg11.dtd">
<!-- Generated by graphviz version 2.43.0 (0)
 -->
<!-- Title: include/depz/core/inference/neural_architectures.h Pages: 1 -->
<!--zoomable 363 -->
<svg id="main" version="1.1" xmlns="http://www.w3.org/2000/svg" xmlns:xlink="http://www.w3.org/1999/xlink" xml:space="preserve" onload="init(evt)">
<style type="text/css"><![CDATA[
.edge:hover path { stroke: red; }
.edge:hover polygon { stroke: red; fill: red; }
]]></style>
<script type="text/javascript"><![CDATA[
var edges = document.getElementsByTagName('g');
if (edges && edges.length) {
  for (var i=0;i<edges.length;i++) {
    if (edges[i].id.substr(0,4)=='edge') {
      edges[i].setAttribute('class','edge');
    }
  }
}
]]></script>
        <defs>
                <circle id="rim" cx="0" cy="0" r="7"/>
                <circle id="rim2" cx="0" cy="0" r="3.5"/>
                <g id="zoomPlus">
                        <use xlink:href="#rim" fill="#404040">
                                <set attributeName="fill" to="#808080" begin="zoomplus.mouseover" end="zoomplus.mouseout"/>
                        </use>
                        <path d="M-4,0h8M0,-4v8" fill="none" stroke="white" stroke-width="1.5" pointer-events="none"/>
                </g>
                <g id="zoomMin">
                        <use xlink:href="#rim" fill="#404040">
                                <set attributeName="fill" to="#808080" begin="zoomminus.mouseover" end="zoomminus.mouseout"/>
                        </use>
                        <path d="M-4,0h8" fill="none" stroke="white" stroke-width="1.5" pointer-events="none"/>
                </g>
                <g id="dirArrow">
                        <path fill="none" stroke="white" stroke-width="1.5" d="M0,-3.0v7 M-2.5,-0.5L0,-3.0L2.5,-0.5"/>
                </g>
               <g id="resetDef">
                       <use xlink:href="#rim2" fill="#404040">
                               <set attributeName="fill" to="#808080" begin="reset.mouseover" end="reset.mouseout"/>
                       </use>
               </g>
        </defs>

<script type="text/javascript">
var viewWidth = 801;
var viewHeight = 363;
var sectionId = 'dynsection-0';
</script>
<script xlink:href="svgpan.js"/>
<svg id="graph" class="graph">
<g id="viewport">
<title>include/depz/core/inference/neural_architectures.h</title>
<polygon fill="white" stroke="transparent" points="-4,4 -4,-359 796.89,-359 796.89,4 -4,4"/>
<!-- Node1 -->
<g id="node1" class="node">
<title>Node1</title>
<g id="a_node1"><a xlink:title="Per&#45;network preprocess/postprocess recipes for the SDK&#39;s depth models.">
<polygon fill="#bfbfbf" stroke="black" points="471.39,-324.5 471.39,-354.5 622.39,-354.5 622.39,-324.5 471.39,-324.5"/>
<text text-anchor="start" x="479.39" y="-342.5" font-family="Helvetica,sans-Serif" font-size="10.00">include/depz/core/inference</text>
<text text-anchor="middle" x="546.89" y="-331.5" font-family="Helvetica,sans-Serif" font-size="10.00">/neural_architectures.h</text>
</a>
</g>
</g>
<!-- Node2 -->
<g id="node2" class="node">
<title>Node2</title>
<g id="a_node2"><a xlink:href="ineural__inference_8h.html" target="_top" xlink:title="Architecture&#45;agnostic orchestration interface for neural depth networks.">
<polygon fill="white" stroke="black" points="353.39,-257.5 353.39,-287.5 466.39,-287.5 466.39,-257.5 353.39,-257.5"/>
<text text-anchor="start" x="361.39" y="-275.5" font-family="Helvetica,sans-Serif" font-size="10.00">depz/core/inference</text>
<text text-anchor="middle" x="409.89" y="-264.5" font-family="Helvetica,sans-Serif" font-size="10.00">/ineural_inference.h</text>
</a>
</g>
</g>
<!-- Node1&#45;&gt;Node2 -->
<g id="edge1" class="edge">
<title>Node1&#45;&gt;Node2</title>
<path fill="none" stroke="midnightblue" d="M517.16,-324.4C497.14,-314.9 470.54,-302.28 448.83,-291.98"/>
<polygon fill="midnightblue" stroke="midnightblue" points="450.09,-288.7 439.56,-287.58 447.09,-295.03 450.09,-288.7"/>
</g>
<!-- Node8 -->
<g id="node7" class="node">
<title>Node8</title>
<g id="a_node7"><a xlink:title=" ">
<polygon fill="white" stroke="#bfbfbf" points="74.89,-0.5 74.89,-19.5 130.89,-19.5 130.89,-0.5 74.89,-0.5"/>
<text text-anchor="middle" x="102.89" y="-7.5" font-family="Helvetica,sans-Serif" font-size="10.00">optional</text>
</a>
</g>
</g>
<!-- Node1&#45;&gt;Node8 -->
<g id="edge24" class="edge">
<title>Node1&#45;&gt;Node8</title>
<path fill="none" stroke="midnightblue" d="M471.26,-335.91C321.35,-328.71 0.89,-302.13 0.89,-206.5 0.89,-206.5 0.89,-206.5 0.89,-137.5 0.89,-100.31 -2.67,-85.58 19.89,-56 31.27,-41.07 49.08,-30.5 65.29,-23.36"/>
<polygon fill="midnightblue" stroke="midnightblue" points="66.66,-26.58 74.59,-19.56 64,-20.11 66.66,-26.58"/>
</g>
<!-- Node9 -->
<g id="node8" class="node">
<title>Node9</title>
<g id="a_node8"><a xlink:title=" ">
<polygon fill="white" stroke="#bfbfbf" points="400.89,-0.5 400.89,-19.5 444.89,-19.5 444.89,-0.5 400.89,-0.5"/>
<text text-anchor="middle" x="422.89" y="-7.5" font-family="Helvetica,sans-Serif" font-size="10.00">string</text>
</a>
</g>
</g>
<!-- Node1&#45;&gt;Node9 -->
<g id="edge25" class="edge">
<title>Node1&#45;&gt;Node9</title>
<path fill="none" stroke="midnightblue" d="M573.08,-324.44C607.84,-303.66 664.89,-261.21 664.89,-206.5 664.89,-206.5 664.89,-206.5 664.89,-137.5 664.89,-44.09 521.54,-19.53 455.49,-13.18"/>
<polygon fill="midnightblue" stroke="midnightblue" points="455.49,-9.66 445.22,-12.27 454.88,-16.63 455.49,-9.66"/>
</g>
<!-- Node18 -->
<g id="node15" class="node">
<title>Node18</title>
<g id="a_node15"><a xlink:title=" ">
<polygon fill="white" stroke="#bfbfbf" points="692.89,-263 692.89,-282 792.89,-282 792.89,-263 692.89,-263"/>
<text text-anchor="middle" x="742.89" y="-270" font-family="Helvetica,sans-Serif" font-size="10.00">opencv2/dnn.hpp</text>
</a>
</g>
</g>
<!-- Node1&#45;&gt;Node18 -->
<g id="edge23" class="edge">
<title>Node1&#45;&gt;Node18</title>
<path fill="none" stroke="midnightblue" d="M589.42,-324.4C624.72,-312.69 674.34,-296.23 707.51,-285.23"/>
<polygon fill="midnightblue" stroke="midnightblue" points="708.85,-288.48 717.24,-282.01 706.64,-281.83 708.85,-288.48"/>
</g>
<!-- Node3 -->
<g id="node3" class="node">
<title>Node3</title>
<g id="a_node3"><a xlink:href="icontrol__owner_8h.html" target="_top" xlink:title=" ">
<polygon fill="white" stroke="black" points="168.89,-190.5 168.89,-220.5 290.89,-220.5 290.89,-190.5 168.89,-190.5"/>
<text text-anchor="start" x="176.89" y="-208.5" font-family="Helvetica,sans-Serif" font-size="10.00">depz/controls/icontrol</text>
<text text-anchor="middle" x="229.89" y="-197.5" font-family="Helvetica,sans-Serif" font-size="10.00">_owner.h</text>
</a>
</g>
</g>
<!-- Node2&#45;&gt;Node3 -->
<g id="edge2" class="edge">
<title>Node2&#45;&gt;Node3</title>
<path fill="none" stroke="midnightblue" d="M370.83,-257.4C343.71,-247.6 307.37,-234.48 278.39,-224.02"/>
<polygon fill="midnightblue" stroke="midnightblue" points="279.46,-220.68 268.87,-220.58 277.09,-227.26 279.46,-220.68"/>
</g>
<!-- Node2&#45;&gt;Node9 -->
<g id="edge20" class="edge">
<title>Node2&#45;&gt;Node9</title>
<path fill="none" stroke="midnightblue" d="M413.75,-257.28C419.14,-239.68 430.39,-209.64 448.89,-190 471.54,-165.96 497.12,-182.45 513.89,-154 536,-116.48 536.87,-93 513.89,-56 501.02,-35.28 475.48,-23.82 454.73,-17.65"/>
<polygon fill="midnightblue" stroke="midnightblue" points="455.56,-14.25 445,-15.03 453.74,-21.01 455.56,-14.25"/>
</g>
<!-- Node12 -->
<g id="node9" class="node">
<title>Node12</title>
<g id="a_node9"><a xlink:title=" ">
<polygon fill="white" stroke="#bfbfbf" points="29.39,-62 29.39,-81 74.39,-81 74.39,-62 29.39,-62"/>
<text text-anchor="middle" x="51.89" y="-69" font-family="Helvetica,sans-Serif" font-size="10.00">utility</text>
</a>
</g>
</g>
<!-- Node2&#45;&gt;Node12 -->
<g id="edge21" class="edge">
<title>Node2&#45;&gt;Node12</title>
<path fill="none" stroke="midnightblue" d="M353.33,-271.26C299.74,-268.58 218.89,-257.97 159.89,-221 108.68,-188.91 74.09,-122.92 59.59,-90.83"/>
<polygon fill="midnightblue" stroke="midnightblue" points="62.65,-89.1 55.44,-81.34 56.24,-91.91 62.65,-89.1"/>
</g>
<!-- Node13 -->
<g id="node10" class="node">
<title>Node13</title>
<g id="a_node10"><a xlink:title=" ">
<polygon fill="white" stroke="#bfbfbf" points="309.39,-62 309.39,-81 356.39,-81 356.39,-62 309.39,-62"/>
<text text-anchor="middle" x="332.89" y="-69" font-family="Helvetica,sans-Serif" font-size="10.00">vector</text>
</a>
</g>
</g>
<!-- Node2&#45;&gt;Node13 -->
<g id="edge22" class="edge">
<title>Node2&#45;&gt;Node13</title>
<path fill="none" stroke="midnightblue" d="M398.28,-257.39C381.72,-236.36 351.92,-194.88 338.89,-154 332.31,-133.35 331.44,-108.33 331.82,-91.5"/>
<polygon fill="midnightblue" stroke="midnightblue" points="335.32,-91.45 332.22,-81.32 328.33,-91.17 335.32,-91.45"/>
</g>
<!-- Node14 -->
<g id="node11" class="node">
<title>Node14</title>
<g id="a_node11"><a xlink:href="iinference__engine_8h.html" target="_top" xlink:title="Backend&#45;agnostic ML inference engine interface (Adapter pattern).">
<polygon fill="white" stroke="black" points="347.39,-123.5 347.39,-153.5 504.39,-153.5 504.39,-123.5 347.39,-123.5"/>
<text text-anchor="start" x="355.39" y="-141.5" font-family="Helvetica,sans-Serif" font-size="10.00">depz/core/engines/iinference</text>
<text text-anchor="middle" x="425.89" y="-130.5" font-family="Helvetica,sans-Serif" font-size="10.00">_engine.h</text>
</a>
</g>
</g>
<!-- Node2&#45;&gt;Node14 -->
<g id="edge13" class="edge">
<title>Node2&#45;&gt;Node14</title>
<path fill="none" stroke="midnightblue" d="M410.1,-257.3C410.5,-240.99 411.63,-213.45 414.89,-190 416.1,-181.25 418.01,-171.76 419.9,-163.4"/>
<polygon fill="midnightblue" stroke="midnightblue" points="423.33,-164.08 422.22,-153.55 416.52,-162.47 423.33,-164.08"/>
</g>
<!-- Node16 -->
<g id="node13" class="node">
<title>Node16</title>
<g id="a_node13"><a xlink:title=" ">
<polygon fill="white" stroke="#bfbfbf" points="457.39,-196 457.39,-215 560.39,-215 560.39,-196 457.39,-196"/>
<text text-anchor="middle" x="508.89" y="-203" font-family="Helvetica,sans-Serif" font-size="10.00">opencv2/core.hpp</text>
</a>
</g>
</g>
<!-- Node2&#45;&gt;Node16 -->
<g id="edge18" class="edge">
<title>Node2&#45;&gt;Node16</title>
<path fill="none" stroke="midnightblue" d="M431.37,-257.4C447.97,-246.5 470.84,-231.48 487.44,-220.58"/>
<polygon fill="midnightblue" stroke="midnightblue" points="489.49,-223.42 495.93,-215.01 485.65,-217.57 489.49,-223.42"/>
</g>
<!-- Node17 -->
<g id="node14" class="node">
<title>Node17</title>
<g id="a_node14"><a xlink:title=" ">
<polygon fill="white" stroke="#bfbfbf" points="578.89,-196 578.89,-215 636.89,-215 636.89,-196 578.89,-196"/>
<text text-anchor="middle" x="607.89" y="-203" font-family="Helvetica,sans-Serif" font-size="10.00">memory</text>
</a>
</g>
</g>
<!-- Node2&#45;&gt;Node17 -->
<g id="edge19" class="edge">
<title>Node2&#45;&gt;Node17</title>
<path fill="none" stroke="midnightblue" d="M457.04,-257.42C489.03,-247.66 532.2,-234.12 569.89,-221 572.14,-220.22 574.46,-219.39 576.78,-218.54"/>
<polygon fill="midnightblue" stroke="midnightblue" points="578.12,-221.78 586.27,-215 575.67,-215.22 578.12,-221.78"/>
</g>
<!-- Node4 -->
<g id="node4" class="node">
<title>Node4</title>
<g id="a_node4"><a xlink:href="param__spec_8h.html" target="_top" xlink:title=" ">
<polygon fill="white" stroke="black" points="117.39,-129 117.39,-148 252.39,-148 252.39,-129 117.39,-129"/>
<text text-anchor="middle" x="184.89" y="-136" font-family="Helvetica,sans-Serif" font-size="10.00">depz/core/param_spec.h</text>
</a>
</g>
</g>
<!-- Node3&#45;&gt;Node4 -->
<g id="edge3" class="edge">
<title>Node3&#45;&gt;Node4</title>
<path fill="none" stroke="midnightblue" d="M220.12,-190.4C213.25,-180.46 204,-167.11 196.71,-156.57"/>
<polygon fill="midnightblue" stroke="midnightblue" points="199.48,-154.42 190.91,-148.19 193.72,-158.41 199.48,-154.42"/>
</g>
<!-- Node3&#45;&gt;Node13 -->
<g id="edge12" class="edge">
<title>Node3&#45;&gt;Node13</title>
<path fill="none" stroke="midnightblue" d="M240.91,-190.37C260.04,-165.86 299.29,-115.56 319.78,-89.3"/>
<polygon fill="midnightblue" stroke="midnightblue" points="322.79,-91.13 326.18,-81.1 317.27,-86.83 322.79,-91.13"/>
</g>
<!-- Node5 -->
<g id="node5" class="node">
<title>Node5</title>
<g id="a_node5"><a xlink:href="iparameter__store_8h.html" target="_top" xlink:title="Type&#45;erased key/value parameter store interface.">
<polygon fill="white" stroke="red" points="131.39,-56.5 131.39,-86.5 252.39,-86.5 252.39,-56.5 131.39,-56.5"/>
<text text-anchor="start" x="139.39" y="-74.5" font-family="Helvetica,sans-Serif" font-size="10.00">depz/core/iparameter</text>
<text text-anchor="middle" x="191.89" y="-63.5" font-family="Helvetica,sans-Serif" font-size="10.00">_store.h</text>
</a>
</g>
</g>
<!-- Node4&#45;&gt;Node5 -->
<g id="edge4" class="edge">
<title>Node4&#45;&gt;Node5</title>
<path fill="none" stroke="midnightblue" d="M185.83,-128.73C186.71,-120.54 188.07,-107.92 189.28,-96.71"/>
<polygon fill="midnightblue" stroke="midnightblue" points="192.78,-96.91 190.37,-86.59 185.82,-96.16 192.78,-96.91"/>
</g>
<!-- Node4&#45;&gt;Node8 -->
<g id="edge8" class="edge">
<title>Node4&#45;&gt;Node8</title>
<path fill="none" stroke="midnightblue" d="M169.54,-128.9C155.34,-120.17 134.69,-105.32 122.89,-87 111.71,-69.65 106.76,-46.26 104.58,-30.04"/>
<polygon fill="midnightblue" stroke="midnightblue" points="108.01,-29.23 103.43,-19.67 101.05,-30 108.01,-29.23"/>
</g>
<!-- Node4&#45;&gt;Node9 -->
<g id="edge9" class="edge">
<title>Node4&#45;&gt;Node9</title>
<path fill="none" stroke="midnightblue" d="M198.77,-128.93C214.39,-119.17 240.38,-102.55 261.89,-87 279.83,-74.03 281.59,-66.86 300.89,-56 329.77,-39.75 365.64,-27.34 390.99,-19.71"/>
<polygon fill="midnightblue" stroke="midnightblue" points="392.21,-23 400.82,-16.83 390.24,-16.28 392.21,-23"/>
</g>
<!-- Node4&#45;&gt;Node12 -->
<g id="edge10" class="edge">
<title>Node4&#45;&gt;Node12</title>
<path fill="none" stroke="midnightblue" d="M167.23,-128.87C144.57,-117.8 105.06,-98.49 78.69,-85.6"/>
<polygon fill="midnightblue" stroke="midnightblue" points="80.14,-82.41 69.62,-81.17 77.07,-88.7 80.14,-82.41"/>
</g>
<!-- Node4&#45;&gt;Node13 -->
<g id="edge11" class="edge">
<title>Node4&#45;&gt;Node13</title>
<path fill="none" stroke="midnightblue" d="M204.54,-128.87C229.97,-117.7 274.49,-98.15 303.83,-85.26"/>
<polygon fill="midnightblue" stroke="midnightblue" points="305.41,-88.39 313.15,-81.17 302.59,-81.98 305.41,-88.39"/>
</g>
<!-- Node7 -->
<g id="node6" class="node">
<title>Node7</title>
<g id="a_node6"><a xlink:title=" ">
<polygon fill="white" stroke="#bfbfbf" points="249.89,-0.5 249.89,-19.5 299.89,-19.5 299.89,-0.5 249.89,-0.5"/>
<text text-anchor="middle" x="274.89" y="-7.5" font-family="Helvetica,sans-Serif" font-size="10.00">cstdint</text>
</a>
</g>
</g>
<!-- Node5&#45;&gt;Node7 -->
<g id="edge5" class="edge">
<title>Node5&#45;&gt;Node7</title>
<path fill="none" stroke="midnightblue" d="M211.56,-56.4C224.49,-47.13 241.37,-35.03 254.46,-25.65"/>
<polygon fill="midnightblue" stroke="midnightblue" points="256.72,-28.33 262.81,-19.66 252.64,-22.64 256.72,-28.33"/>
</g>
<!-- Node5&#45;&gt;Node8 -->
<g id="edge6" class="edge">
<title>Node5&#45;&gt;Node8</title>
<path fill="none" stroke="midnightblue" d="M170.8,-56.4C156.8,-47.04 138.48,-34.79 124.39,-25.38"/>
<polygon fill="midnightblue" stroke="midnightblue" points="126.1,-22.31 115.84,-19.66 122.21,-28.13 126.1,-22.31"/>
</g>
<!-- Node5&#45;&gt;Node9 -->
<g id="edge7" class="edge">
<title>Node5&#45;&gt;Node9</title>
<path fill="none" stroke="midnightblue" d="M246.34,-56.47C291.33,-44.89 353.66,-28.83 390.96,-19.22"/>
<polygon fill="midnightblue" stroke="midnightblue" points="391.97,-22.58 400.78,-16.69 390.23,-15.8 391.97,-22.58"/>
</g>
<!-- Node14&#45;&gt;Node7 -->
<g id="edge15" class="edge">
<title>Node14&#45;&gt;Node7</title>
<path fill="none" stroke="midnightblue" d="M418.23,-123.21C408.17,-105.53 389.05,-75.42 365.89,-56 349.25,-42.05 327.55,-31.11 309.52,-23.51"/>
<polygon fill="midnightblue" stroke="midnightblue" points="310.51,-20.13 299.93,-19.63 307.89,-26.62 310.51,-20.13"/>
</g>
<!-- Node14&#45;&gt;Node9 -->
<g id="edge16" class="edge">
<title>Node14&#45;&gt;Node9</title>
<path fill="none" stroke="midnightblue" d="M425.56,-123.48C425.02,-100.72 423.95,-55.7 423.34,-30.06"/>
<polygon fill="midnightblue" stroke="midnightblue" points="426.83,-29.7 423.1,-19.79 419.84,-29.87 426.83,-29.7"/>
</g>
<!-- Node14&#45;&gt;Node13 -->
<g id="edge17" class="edge">
<title>Node14&#45;&gt;Node13</title>
<path fill="none" stroke="midnightblue" d="M405.71,-123.4C390.26,-112.6 369.02,-97.76 353.47,-86.89"/>
<polygon fill="midnightblue" stroke="midnightblue" points="355.26,-83.87 345.06,-81.01 351.25,-89.6 355.26,-83.87"/>
</g>
<!-- Node15 -->
<g id="node12" class="node">
<title>Node15</title>
<g id="a_node12"><a xlink:title=" ">
<polygon fill="white" stroke="#bfbfbf" points="451.39,-62 451.39,-81 504.39,-81 504.39,-62 451.39,-62"/>
<text text-anchor="middle" x="477.89" y="-69" font-family="Helvetica,sans-Serif" font-size="10.00">cstddef</text>
</a>
</g>
</g>
<!-- Node14&#45;&gt;Node15 -->
<g id="edge14" class="edge">
<title>Node14&#45;&gt;Node15</title>
<path fill="none" stroke="midnightblue" d="M437.17,-123.4C445.2,-113.36 456.02,-99.84 464.49,-89.25"/>
<polygon fill="midnightblue" stroke="midnightblue" points="467.42,-91.19 470.93,-81.19 461.95,-86.82 467.42,-91.19"/>
</g>
</g>
</svg>
        <g id="navigator" transform="translate(0 0)" fill="#404254">
                <rect fill="#f2f5e9" fill-opacity="0.5" stroke="#606060" stroke-width=".5" x="0" y="0" width="60" height="60"/>
                <use id="zoomplus" xlink:href="#zoomPlus" x="17" y="9" onmousedown="handleZoom(evt,'in')"/>
                <use id="zoomminus" xlink:href="#zoomMin" x="42" y="9" onmousedown="handleZoom(evt,'out')"/>
                <use id="reset" xlink:href="#resetDef" x="30" y="36" onmousedown="handleReset()"/>
                <g id="arrowUp" xlink:href="#dirArrow" transform="translate(30 24)" onmousedown="handlePan(0,-1)">
                  <use xlink:href="#rim" fill="#404040">
                        <set attributeName="fill" to="#808080" begin="arrowUp.mouseover" end="arrowUp.mouseout"/>
                  </use>
                  <path fill="none" stroke="white" stroke-width="1.5" d="M0,-3.0v7 M-2.5,-0.5L0,-3.0L2.5,-0.5"/>
                </g>
                <g id="arrowRight" xlink:href="#dirArrow" transform="rotate(90) translate(36 -43)" onmousedown="handlePan(1,0)">
                  <use xlink:href="#rim" fill="#404040">
                        <set attributeName="fill" to="#808080" begin="arrowRight.mouseover" end="arrowRight.mouseout"/>
                  </use>
                  <path fill="none" stroke="white" stroke-width="1.5" d="M0,-3.0v7 M-2.5,-0.5L0,-3.0L2.5,-0.5"/>
                </g>
                <g id="arrowDown" xlink:href="#dirArrow" transform="rotate(180) translate(-30 -48)" onmousedown="handlePan(0,1)">
                  <use xlink:href="#rim" fill="#404040">
                        <set attributeName="fill" to="#808080" begin="arrowDown.mouseover" end="arrowDown.mouseout"/>
                  </use>
                  <path fill="none" stroke="white" stroke-width="1.5" d="M0,-3.0v7 M-2.5,-0.5L0,-3.0L2.5,-0.5"/>
                </g>
                <g id="arrowLeft" xlink:href="#dirArrow" transform="rotate(270) translate(-36 17)" onmousedown="handlePan(-1,0)">
                  <use xlink:href="#rim" fill="#404040">
                        <set attributeName="fill" to="#808080" begin="arrowLeft.mouseover" end="arrowLeft.mouseout"/>
                  </use>
                  <path fill="none" stroke="white" stroke-width="1.5" d="M0,-3.0v7 M-2.5,-0.5L0,-3.0L2.5,-0.5"/>
                </g>
        </g>
        <svg viewBox="0 0 15 15" width="100%" height="30px" preserveAspectRatio="xMaxYMin meet">
         <g id="arrow_out" transform="scale(0.3 0.3)">
          <a xlink:href="neural__architectures_8h__incl_org.svg" target="_base">
           <rect id="button" ry="5" rx="5" y="6" x="6" height="38" width="38"
                fill="#f2f5e9" fill-opacity="0.5" stroke="#606060" stroke-width="1.0"/>
           <path id="arrow"
             d="M 11.500037,31.436501 C 11.940474,20.09759 22.043105,11.32322 32.158766,21.979434 L 37.068811,17.246167 C 37.068811,17.246167 37.088388,32 37.088388,32 L 22.160133,31.978069 C 22.160133,31.978069 26.997745,27.140456 26.997745,27.140456 C 18.528582,18.264221 13.291696,25.230495 11.500037,31.436501 z"
             style="fill:#404040;"/>
          </a>
         </g>
        </svg>
</svg>
