<?xml version="1.0" encoding="UTF-8" standalone="no"?>
<!DOCTYPE svg PUBLIC "-//W3C//DTD SVG 1.1//EN"
 "http://www.w3.org/Graphics/SVG/1.1/DTD/svg11.dtd">
<!-- Generated by graphviz version 2.43.0 (0)
 -->
<!-- Title: include/depz/core/engines/onnx_engine_adapter.h Pages: 1 -->
<svg width="558pt" height="162pt"
 viewBox="0.00 0.00 557.50 162.00" xmlns="http://www.w3.org/2000/svg" xmlns:xlink="http://www.w3.org/1999/xlink">
<g id="graph0" class="graph" transform="scale(1 1) rotate(0) translate(4 158)">
<title>include/depz/core/engines/onnx_engine_adapter.h</title>
<polygon fill="white" stroke="transparent" points="-4,4 -4,-158 553.5,-158 553.5,4 -4,4"/>
<!-- Node1 -->
<g id="node1" class="node">
<title>Node1</title>
<g id="a_node1"><a xlink:title="ONNX Runtime backend implementing InferenceEngine.">
<polygon fill="#bfbfbf" stroke="black" points="215,-123.5 215,-153.5 358,-153.5 358,-123.5 215,-123.5"/>
<text text-anchor="start" x="223" y="-141.5" font-family="Helvetica,sans-Serif" font-size="10.00">include/depz/core/engines</text>
<text text-anchor="middle" x="286.5" y="-130.5" font-family="Helvetica,sans-Serif" font-size="10.00">/onnx_engine_adapter.h</text>
</a>
</g>
</g>
<!-- Node2 -->
<g id="node2" class="node">
<title>Node2</title>
<g id="a_node2"><a xlink:href="iinference__engine_8h.html" target="_top" xlink:title="Backend&#45;agnostic ML inference engine interface (Adapter pattern).">
<polygon fill="white" stroke="black" points="16,-56.5 16,-86.5 173,-86.5 173,-56.5 16,-56.5"/>
<text text-anchor="start" x="24" y="-74.5" font-family="Helvetica,sans-Serif" font-size="10.00">depz/core/engines/iinference</text>
<text text-anchor="middle" x="94.5" y="-63.5" font-family="Helvetica,sans-Serif" font-size="10.00">_engine.h</text>
</a>
</g>
</g>
<!-- Node1&#45;&gt;Node2 -->
<g id="edge1" class="edge">
<title>Node1&#45;&gt;Node2</title>
<path fill="none" stroke="midnightblue" d="M244.84,-123.4C215.78,-113.56 176.81,-100.37 145.83,-89.88"/>
<polygon fill="midnightblue" stroke="midnightblue" points="146.67,-86.47 136.08,-86.58 144.43,-93.1 146.67,-86.47"/>
</g>
<!-- Node5 -->
<g id="node5" class="node">
<title>Node5</title>
<g id="a_node5"><a xlink:title=" ">
<polygon fill="white" stroke="#bfbfbf" points="147.5,-0.5 147.5,-19.5 191.5,-19.5 191.5,-0.5 147.5,-0.5"/>
<text text-anchor="middle" x="169.5" y="-7.5" font-family="Helvetica,sans-Serif" font-size="10.00">string</text>
</a>
</g>
</g>
<!-- Node1&#45;&gt;Node5 -->
<g id="edge9" class="edge">
<title>Node1&#45;&gt;Node5</title>
<path fill="none" stroke="midnightblue" d="M273.53,-123.48C251.72,-99.9 207.82,-52.43 184.63,-27.36"/>
<polygon fill="midnightblue" stroke="midnightblue" points="186.99,-24.75 177.63,-19.79 181.85,-29.51 186.99,-24.75"/>
</g>
<!-- Node6 -->
<g id="node6" class="node">
<title>Node6</title>
<g id="a_node6"><a xlink:title=" ">
<polygon fill="white" stroke="#bfbfbf" points="214,-0.5 214,-19.5 261,-19.5 261,-0.5 214,-0.5"/>
<text text-anchor="middle" x="237.5" y="-7.5" font-family="Helvetica,sans-Serif" font-size="10.00">vector</text>
</a>
</g>
</g>
<!-- Node1&#45;&gt;Node6 -->
<g id="edge10" class="edge">
<title>Node1&#45;&gt;Node6</title>
<path fill="none" stroke="midnightblue" d="M277.87,-123.3C272.11,-113.39 264.67,-99.71 259.5,-87 251.75,-67.96 245.54,-45.2 241.72,-29.59"/>
<polygon fill="midnightblue" stroke="midnightblue" points="245.08,-28.56 239.38,-19.63 238.26,-30.17 245.08,-28.56"/>
</g>
<!-- Node7 -->
<g id="node7" class="node">
<title>Node7</title>
<g id="a_node7"><a xlink:title=" ">
<polygon fill="white" stroke="#bfbfbf" points="268,-62 268,-81 399,-81 399,-62 268,-62"/>
<text text-anchor="middle" x="333.5" y="-69" font-family="Helvetica,sans-Serif" font-size="10.00">onnxruntime_cxx_api.h</text>
</a>
</g>
</g>
<!-- Node1&#45;&gt;Node7 -->
<g id="edge6" class="edge">
<title>Node1&#45;&gt;Node7</title>
<path fill="none" stroke="midnightblue" d="M296.7,-123.4C303.88,-113.46 313.54,-100.11 321.16,-89.57"/>
<polygon fill="midnightblue" stroke="midnightblue" points="324.19,-91.35 327.21,-81.19 318.52,-87.25 324.19,-91.35"/>
</g>
<!-- Node8 -->
<g id="node8" class="node">
<title>Node8</title>
<g id="a_node8"><a xlink:title=" ">
<polygon fill="white" stroke="#bfbfbf" points="417.5,-62 417.5,-81 475.5,-81 475.5,-62 417.5,-62"/>
<text text-anchor="middle" x="446.5" y="-69" font-family="Helvetica,sans-Serif" font-size="10.00">memory</text>
</a>
</g>
</g>
<!-- Node1&#45;&gt;Node8 -->
<g id="edge7" class="edge">
<title>Node1&#45;&gt;Node8</title>
<path fill="none" stroke="midnightblue" d="M321.22,-123.4C349.54,-111.89 389.15,-95.8 416.21,-84.81"/>
<polygon fill="midnightblue" stroke="midnightblue" points="417.61,-88.01 425.56,-81.01 414.98,-81.53 417.61,-88.01"/>
</g>
<!-- Node9 -->
<g id="node9" class="node">
<title>Node9</title>
<g id="a_node9"><a xlink:title=" ">
<polygon fill="white" stroke="#bfbfbf" points="493.5,-62 493.5,-81 549.5,-81 549.5,-62 493.5,-62"/>
<text text-anchor="middle" x="521.5" y="-69" font-family="Helvetica,sans-Serif" font-size="10.00">optional</text>
</a>
</g>
</g>
<!-- Node1&#45;&gt;Node9 -->
<g id="edge8" class="edge">
<title>Node1&#45;&gt;Node9</title>
<path fill="none" stroke="midnightblue" d="M349.93,-123.43C389.07,-114.24 440.1,-101.3 484.5,-87 486.77,-86.27 489.11,-85.47 491.44,-84.64"/>
<polygon fill="midnightblue" stroke="midnightblue" points="492.78,-87.87 500.92,-81.09 490.33,-81.32 492.78,-87.87"/>
</g>
<!-- Node3 -->
<g id="node3" class="node">
<title>Node3</title>
<g id="a_node3"><a xlink:title=" ">
<polygon fill="white" stroke="#bfbfbf" points="0,-0.5 0,-19.5 53,-19.5 53,-0.5 0,-0.5"/>
<text text-anchor="middle" x="26.5" y="-7.5" font-family="Helvetica,sans-Serif" font-size="10.00">cstddef</text>
</a>
</g>
</g>
<!-- Node2&#45;&gt;Node3 -->
<g id="edge2" class="edge">
<title>Node2&#45;&gt;Node3</title>
<path fill="none" stroke="midnightblue" d="M78.38,-56.4C68.1,-47.4 54.75,-35.72 44.17,-26.47"/>
<polygon fill="midnightblue" stroke="midnightblue" points="46.23,-23.61 36.39,-19.66 41.62,-28.88 46.23,-23.61"/>
</g>
<!-- Node4 -->
<g id="node4" class="node">
<title>Node4</title>
<g id="a_node4"><a xlink:title=" ">
<polygon fill="white" stroke="#bfbfbf" points="71.5,-0.5 71.5,-19.5 121.5,-19.5 121.5,-0.5 71.5,-0.5"/>
<text text-anchor="middle" x="96.5" y="-7.5" font-family="Helvetica,sans-Serif" font-size="10.00">cstdint</text>
</a>
</g>
</g>
<!-- Node2&#45;&gt;Node4 -->
<g id="edge3" class="edge">
<title>Node2&#45;&gt;Node4</title>
<path fill="none" stroke="midnightblue" d="M94.97,-56.4C95.24,-48.47 95.58,-38.46 95.87,-29.86"/>
<polygon fill="midnightblue" stroke="midnightblue" points="99.37,-29.77 96.21,-19.66 92.37,-29.53 99.37,-29.77"/>
</g>
<!-- Node2&#45;&gt;Node5 -->
<g id="edge4" class="edge">
<title>Node2&#45;&gt;Node5</title>
<path fill="none" stroke="midnightblue" d="M112.27,-56.4C123.85,-47.22 138.92,-35.26 150.7,-25.92"/>
<polygon fill="midnightblue" stroke="midnightblue" points="152.93,-28.61 158.59,-19.66 148.58,-23.13 152.93,-28.61"/>
</g>
<!-- Node2&#45;&gt;Node6 -->
<g id="edge5" class="edge">
<title>Node2&#45;&gt;Node6</title>
<path fill="none" stroke="midnightblue" d="M128.39,-56.4C152.38,-46.42 184.27,-33.15 207.38,-23.53"/>
<polygon fill="midnightblue" stroke="midnightblue" points="208.8,-26.73 216.69,-19.66 206.11,-20.27 208.8,-26.73"/>
</g>
</g>
</svg>
