<?xml version="1.0" encoding="UTF-8" standalone="no"?>
<!DOCTYPE svg PUBLIC "-//W3C//DTD SVG 1.1//EN"
 "http://www.w3.org/Graphics/SVG/1.1/DTD/svg11.dtd">
<!-- Generated by graphviz version 2.43.0 (0)
 -->
<!-- Title: include/depz/stereo/onnxruntime_stereo_inference.h Pages: 1 -->
<svg width="528pt" height="162pt"
 viewBox="0.00 0.00 528.00 162.00" xmlns="http://www.w3.org/2000/svg" xmlns:xlink="http://www.w3.org/1999/xlink">
<g id="graph0" class="graph" transform="scale(1 1) rotate(0) translate(4 158)">
<title>include/depz/stereo/onnxruntime_stereo_inference.h</title>
<polygon fill="white" stroke="transparent" points="-4,4 -4,-158 524,-158 524,4 -4,4"/>
<!-- Node1 -->
<g id="node1" class="node">
<title>Node1</title>
<g id="a_node1"><a xlink:title="ONNX Runtime implementation of the legacy IStereoInference 2&#45;input API.">
<polygon fill="#bfbfbf" stroke="black" points="270,-112.5 270,-153.5 388,-153.5 388,-112.5 270,-112.5"/>
<text text-anchor="start" x="278" y="-141.5" font-family="Helvetica,sans-Serif" font-size="10.00">include/depz/stereo</text>
<text text-anchor="start" x="278" y="-130.5" font-family="Helvetica,sans-Serif" font-size="10.00">/onnxruntime_stereo</text>
<text text-anchor="middle" x="329" y="-119.5" font-family="Helvetica,sans-Serif" font-size="10.00">_inference.h</text>
</a>
</g>
</g>
<!-- Node2 -->
<g id="node2" class="node">
<title>Node2</title>
<g id="a_node2"><a xlink:href="istereo__inference_8h.html" target="_top" xlink:title=" ">
<polygon fill="white" stroke="black" points="97,-56.5 97,-75.5 207,-75.5 207,-56.5 97,-56.5"/>
<text text-anchor="middle" x="152" y="-63.5" font-family="Helvetica,sans-Serif" font-size="10.00">istereo_inference.h</text>
</a>
</g>
</g>
<!-- Node1&#45;&gt;Node2 -->
<g id="edge1" class="edge">
<title>Node1&#45;&gt;Node2</title>
<path fill="none" stroke="midnightblue" d="M275.89,-112.5C246.41,-101.67 210.65,-88.54 185.14,-79.17"/>
<polygon fill="midnightblue" stroke="midnightblue" points="186.16,-75.81 175.56,-75.65 183.74,-82.39 186.16,-75.81"/>
</g>
<!-- Node5 -->
<g id="node5" class="node">
<title>Node5</title>
<g id="a_node5"><a xlink:title=" ">
<polygon fill="white" stroke="#bfbfbf" points="203,-0.5 203,-19.5 261,-19.5 261,-0.5 203,-0.5"/>
<text text-anchor="middle" x="232" y="-7.5" font-family="Helvetica,sans-Serif" font-size="10.00">memory</text>
</a>
</g>
</g>
<!-- Node1&#45;&gt;Node5 -->
<g id="edge6" class="edge">
<title>Node1&#45;&gt;Node5</title>
<path fill="none" stroke="midnightblue" d="M294.83,-112.35C280.87,-102.88 265.56,-90.43 255,-76 244.85,-62.13 238.85,-43.36 235.54,-29.56"/>
<polygon fill="midnightblue" stroke="midnightblue" points="238.95,-28.79 233.43,-19.75 232.11,-30.26 238.95,-28.79"/>
</g>
<!-- Node6 -->
<g id="node6" class="node">
<title>Node6</title>
<g id="a_node6"><a xlink:title=" ">
<polygon fill="white" stroke="#bfbfbf" points="263.5,-56.5 263.5,-75.5 394.5,-75.5 394.5,-56.5 263.5,-56.5"/>
<text text-anchor="middle" x="329" y="-63.5" font-family="Helvetica,sans-Serif" font-size="10.00">onnxruntime_cxx_api.h</text>
</a>
</g>
</g>
<!-- Node1&#45;&gt;Node6 -->
<g id="edge5" class="edge">
<title>Node1&#45;&gt;Node6</title>
<path fill="none" stroke="midnightblue" d="M329,-112.5C329,-104.07 329,-94.24 329,-85.87"/>
<polygon fill="midnightblue" stroke="midnightblue" points="332.5,-85.65 329,-75.65 325.5,-85.65 332.5,-85.65"/>
</g>
<!-- Node7 -->
<g id="node7" class="node">
<title>Node7</title>
<g id="a_node7"><a xlink:title=" ">
<polygon fill="white" stroke="#bfbfbf" points="412.5,-56.5 412.5,-75.5 459.5,-75.5 459.5,-56.5 412.5,-56.5"/>
<text text-anchor="middle" x="436" y="-63.5" font-family="Helvetica,sans-Serif" font-size="10.00">vector</text>
</a>
</g>
</g>
<!-- Node1&#45;&gt;Node7 -->
<g id="edge7" class="edge">
<title>Node1&#45;&gt;Node7</title>
<path fill="none" stroke="midnightblue" d="M361.1,-112.5C377.82,-102.34 397.88,-90.16 413.03,-80.95"/>
<polygon fill="midnightblue" stroke="midnightblue" points="415.03,-83.84 421.76,-75.65 411.39,-77.85 415.03,-83.84"/>
</g>
<!-- Node8 -->
<g id="node8" class="node">
<title>Node8</title>
<g id="a_node8"><a xlink:title=" ">
<polygon fill="white" stroke="#bfbfbf" points="478,-56.5 478,-75.5 520,-75.5 520,-56.5 478,-56.5"/>
<text text-anchor="middle" x="499" y="-63.5" font-family="Helvetica,sans-Serif" font-size="10.00">array</text>
</a>
</g>
</g>
<!-- Node1&#45;&gt;Node8 -->
<g id="edge8" class="edge">
<title>Node1&#45;&gt;Node8</title>
<path fill="none" stroke="midnightblue" d="M380.01,-112.5C408.72,-101.52 443.62,-88.17 468.18,-78.78"/>
<polygon fill="midnightblue" stroke="midnightblue" points="469.61,-81.99 477.7,-75.14 467.11,-75.45 469.61,-81.99"/>
</g>
<!-- Node3 -->
<g id="node3" class="node">
<title>Node3</title>
<g id="a_node3"><a xlink:title=" ">
<polygon fill="white" stroke="#bfbfbf" points="0,-0.5 0,-19.5 116,-19.5 116,-0.5 0,-0.5"/>
<text text-anchor="middle" x="58" y="-7.5" font-family="Helvetica,sans-Serif" font-size="10.00">opencv2/opencv.hpp</text>
</a>
</g>
</g>
<!-- Node2&#45;&gt;Node3 -->
<g id="edge2" class="edge">
<title>Node2&#45;&gt;Node3</title>
<path fill="none" stroke="midnightblue" d="M136.9,-56.32C122.1,-47.82 99.31,-34.73 82.02,-24.8"/>
<polygon fill="midnightblue" stroke="midnightblue" points="83.48,-21.6 73.07,-19.65 79.99,-27.67 83.48,-21.6"/>
</g>
<!-- Node4 -->
<g id="node4" class="node">
<title>Node4</title>
<g id="a_node4"><a xlink:title=" ">
<polygon fill="white" stroke="#bfbfbf" points="134,-0.5 134,-19.5 178,-19.5 178,-0.5 134,-0.5"/>
<text text-anchor="middle" x="156" y="-7.5" font-family="Helvetica,sans-Serif" font-size="10.00">string</text>
</a>
</g>
</g>
<!-- Node2&#45;&gt;Node4 -->
<g id="edge3" class="edge">
<title>Node2&#45;&gt;Node4</title>
<path fill="none" stroke="midnightblue" d="M152.66,-56.08C153.18,-49.01 153.94,-38.86 154.59,-29.99"/>
<polygon fill="midnightblue" stroke="midnightblue" points="158.1,-29.98 155.35,-19.75 151.12,-29.47 158.1,-29.98"/>
</g>
<!-- Node2&#45;&gt;Node5 -->
<g id="edge4" class="edge">
<title>Node2&#45;&gt;Node5</title>
<path fill="none" stroke="midnightblue" d="M164.85,-56.32C177.22,-47.98 196.13,-35.21 210.74,-25.35"/>
<polygon fill="midnightblue" stroke="midnightblue" points="212.85,-28.15 219.18,-19.65 208.93,-22.35 212.85,-28.15"/>
</g>
</g>
</svg>
