<?xml version="1.0" encoding="UTF-8" standalone="no"?>
<!DOCTYPE svg PUBLIC "-//W3C//DTD SVG 1.1//EN"
 "http://www.w3.org/Graphics/SVG/1.1/DTD/svg11.dtd">
<!-- Generated by graphviz version 2.43.0 (0)
 -->
<!-- Title: include/depz/core/calibration/opencv_basic.h Pages: 1 -->
<!--zoomable 363 -->
<svg id="main" version="1.1" xmlns="http://www.w3.org/2000/svg" xmlns:xlink="http://www.w3.org/1999/xlink" xml:space="preserve" onload="init(evt)">
<style type="text/css"><![CDATA[
.edge:hover path { stroke: red; }
.edge:hover polygon { stroke: red; fill: red; }
]]></style>
<script type="text/javascript"><![CDATA[
var edges = document.getElementsByTagName('g');
if (edges && edges.length) {
  for (var i=0;i<edges.length;i++) {
    if (edges[i].id.substr(0,4)=='edge') {
      edges[i].setAttribute('class','edge');
    }
  }
}
]]></script>
        <defs>
                <circle id="rim" cx="0" cy="0" r="7"/>
                <circle id="rim2" cx="0" cy="0" r="3.5"/>
                <g id="zoomPlus">
                        <use xlink:href="#rim" fill="#404040">
                                <set attributeName="fill" to="#808080" begin="zoomplus.mouseover" end="zoomplus.mouseout"/>
                        </use>
                        <path d="M-4,0h8M0,-4v8" fill="none" stroke="white" stroke-width="1.5" pointer-events="none"/>
                </g>
                <g id="zoomMin">
                        <use xlink:href="#rim" fill="#404040">
                                <set attributeName="fill" to="#808080" begin="zoomminus.mouseover" end="zoomminus.mouseout"/>
                        </use>
                        <path d="M-4,0h8" fill="none" stroke="white" stroke-width="1.5" pointer-events="none"/>
                </g>
                <g id="dirArrow">
                        <path fill="none" stroke="white" stroke-width="1.5" d="M0,-3.0v7 M-2.5,-0.5L0,-3.0L2.5,-0.5"/>
                </g>
               <g id="resetDef">
                       <use xlink:href="#rim2" fill="#404040">
                               <set attributeName="fill" to="#808080" begin="reset.mouseover" end="reset.mouseout"/>
                       </use>
               </g>
        </defs>

<script type="text/javascript">
var viewWidth = 990;
var viewHeight = 363;
var sectionId = 'dynsection-0';
</script>
<script xlink:href="svgpan.js"/>
<svg id="graph" class="graph">
<g id="viewport">
<title>include/depz/core/calibration/opencv_basic.h</title>
<polygon fill="white" stroke="transparent" points="-4,4 -4,-359 986,-359 986,4 -4,4"/>
<!-- Node1 -->
<g id="node1" class="node">
<title>Node1</title>
<g id="a_node1"><a xlink:title="Concrete Calibration for the OpenCV5 / OpenCV8 pinhole lens model.">
<polygon fill="#bfbfbf" stroke="black" points="491.5,-324.5 491.5,-354.5 648.5,-354.5 648.5,-324.5 491.5,-324.5"/>
<text text-anchor="start" x="499.5" y="-342.5" font-family="Helvetica,sans-Serif" font-size="10.00">include/depz/core/calibration</text>
<text text-anchor="middle" x="570" y="-331.5" font-family="Helvetica,sans-Serif" font-size="10.00">/opencv_basic.h</text>
</a>
</g>
</g>
<!-- Node2 -->
<g id="node2" class="node">
<title>Node2</title>
<g id="a_node2"><a xlink:href="canvas__layout_8h.html" target="_top" xlink:title=" ">
<polygon fill="white" stroke="black" points="66.5,-190.5 66.5,-220.5 185.5,-220.5 185.5,-190.5 66.5,-190.5"/>
<text text-anchor="start" x="74.5" y="-208.5" font-family="Helvetica,sans-Serif" font-size="10.00">depz/core/calibration</text>
<text text-anchor="middle" x="126" y="-197.5" font-family="Helvetica,sans-Serif" font-size="10.00">/canvas_layout.h</text>
</a>
</g>
</g>
<!-- Node1&#45;&gt;Node2 -->
<g id="edge1" class="edge">
<title>Node1&#45;&gt;Node2</title>
<path fill="none" stroke="midnightblue" d="M491.23,-332.24C403.49,-324.37 267.82,-309.27 221,-288 190.53,-274.16 162.34,-247.48 144.72,-228.41"/>
<polygon fill="midnightblue" stroke="midnightblue" points="147.12,-225.86 137.83,-220.77 141.92,-230.54 147.12,-225.86"/>
</g>
<!-- Node3 -->
<g id="node3" class="node">
<title>Node3</title>
<g id="a_node3"><a xlink:href="icalibration_8h.html" target="_top" xlink:title="Language&#45;neutral calibration ABC — the runtime contract every concrete stereo / mono calibration mode...">
<polygon fill="white" stroke="black" points="230.5,-257.5 230.5,-287.5 349.5,-287.5 349.5,-257.5 230.5,-257.5"/>
<text text-anchor="start" x="238.5" y="-275.5" font-family="Helvetica,sans-Serif" font-size="10.00">depz/core/calibration</text>
<text text-anchor="middle" x="290" y="-264.5" font-family="Helvetica,sans-Serif" font-size="10.00">/icalibration.h</text>
</a>
</g>
</g>
<!-- Node1&#45;&gt;Node3 -->
<g id="edge2" class="edge">
<title>Node1&#45;&gt;Node3</title>
<path fill="none" stroke="midnightblue" d="M509.59,-324.48C465.55,-314.25 405.79,-300.38 359.73,-289.69"/>
<polygon fill="midnightblue" stroke="midnightblue" points="360.35,-286.24 349.82,-287.39 358.77,-293.06 360.35,-286.24"/>
</g>
<!-- Node5 -->
<g id="node5" class="node">
<title>Node5</title>
<g id="a_node5"><a xlink:href="param__spec_8h.html" target="_top" xlink:title=" ">
<polygon fill="white" stroke="black" points="318.5,-129 318.5,-148 453.5,-148 453.5,-129 318.5,-129"/>
<text text-anchor="middle" x="386" y="-136" font-family="Helvetica,sans-Serif" font-size="10.00">depz/core/param_spec.h</text>
</a>
</g>
</g>
<!-- Node1&#45;&gt;Node5 -->
<g id="edge23" class="edge">
<title>Node1&#45;&gt;Node5</title>
<path fill="none" stroke="midnightblue" d="M575.19,-324.47C584.79,-295.87 601.67,-230.16 571,-190 556.83,-171.45 502.69,-158.07 456.61,-149.76"/>
<polygon fill="midnightblue" stroke="midnightblue" points="457.07,-146.29 446.61,-148.02 455.86,-153.19 457.07,-146.29"/>
</g>
<!-- Node9 -->
<g id="node8" class="node">
<title>Node9</title>
<g id="a_node8"><a xlink:title=" ">
<polygon fill="white" stroke="#bfbfbf" points="340,-0.5 340,-19.5 396,-19.5 396,-0.5 340,-0.5"/>
<text text-anchor="middle" x="368" y="-7.5" font-family="Helvetica,sans-Serif" font-size="10.00">optional</text>
</a>
</g>
</g>
<!-- Node1&#45;&gt;Node9 -->
<g id="edge32" class="edge">
<title>Node1&#45;&gt;Node9</title>
<path fill="none" stroke="midnightblue" d="M491.32,-336.47C372.92,-332.38 155.28,-320.58 85,-288 37.52,-265.99 0,-258.84 0,-206.5 0,-206.5 0,-206.5 0,-137.5 0,-68.31 235.57,-28.86 329.76,-15.85"/>
<polygon fill="midnightblue" stroke="midnightblue" points="330.3,-19.31 339.73,-14.5 329.36,-12.37 330.3,-19.31"/>
</g>
<!-- Node10 -->
<g id="node9" class="node">
<title>Node10</title>
<g id="a_node9"><a xlink:title=" ">
<polygon fill="white" stroke="#bfbfbf" points="675,-0.5 675,-19.5 719,-19.5 719,-0.5 675,-0.5"/>
<text text-anchor="middle" x="697" y="-7.5" font-family="Helvetica,sans-Serif" font-size="10.00">string</text>
</a>
</g>
</g>
<!-- Node1&#45;&gt;Node10 -->
<g id="edge33" class="edge">
<title>Node1&#45;&gt;Node10</title>
<path fill="none" stroke="midnightblue" d="M645.85,-324.49C708.09,-308.09 786,-274.07 786,-206.5 786,-206.5 786,-206.5 786,-137.5 786,-100.31 788.44,-86.39 767,-56 757.26,-42.19 741.8,-31.6 727.88,-24.18"/>
<polygon fill="midnightblue" stroke="midnightblue" points="729.1,-20.87 718.59,-19.54 725.97,-27.13 729.1,-20.87"/>
</g>
<!-- Node13 -->
<g id="node10" class="node">
<title>Node13</title>
<g id="a_node10"><a xlink:title=" ">
<polygon fill="white" stroke="#bfbfbf" points="178.5,-62 178.5,-81 223.5,-81 223.5,-62 178.5,-62"/>
<text text-anchor="middle" x="201" y="-69" font-family="Helvetica,sans-Serif" font-size="10.00">utility</text>
</a>
</g>
</g>
<!-- Node1&#45;&gt;Node13 -->
<g id="edge34" class="edge">
<title>Node1&#45;&gt;Node13</title>
<path fill="none" stroke="midnightblue" d="M491.27,-337.71C409.45,-334.8 278.7,-324.17 172,-288 115.98,-269.01 86.48,-272.29 57,-221 23.04,-161.91 118.56,-108.83 170.25,-85.31"/>
<polygon fill="midnightblue" stroke="midnightblue" points="171.93,-88.39 179.66,-81.14 169.1,-82 171.93,-88.39"/>
</g>
<!-- Node14 -->
<g id="node11" class="node">
<title>Node14</title>
<g id="a_node11"><a xlink:title=" ">
<polygon fill="white" stroke="#bfbfbf" points="434.5,-62 434.5,-81 481.5,-81 481.5,-62 434.5,-62"/>
<text text-anchor="middle" x="458" y="-69" font-family="Helvetica,sans-Serif" font-size="10.00">vector</text>
</a>
</g>
</g>
<!-- Node1&#45;&gt;Node14 -->
<g id="edge35" class="edge">
<title>Node1&#45;&gt;Node14</title>
<path fill="none" stroke="midnightblue" d="M581.17,-324.43C588.09,-314.79 596.33,-301.37 600,-288 606.3,-265.07 593.41,-192.31 592,-190 577.2,-165.67 560.92,-172.18 539,-154 513.93,-133.2 487.89,-105.78 472.31,-88.64"/>
<polygon fill="midnightblue" stroke="midnightblue" points="474.85,-86.23 465.56,-81.13 469.64,-90.91 474.85,-86.23"/>
</g>
<!-- Node15 -->
<g id="node12" class="node">
<title>Node15</title>
<g id="a_node12"><a xlink:title=" ">
<polygon fill="white" stroke="#bfbfbf" points="458.5,-196 458.5,-215 561.5,-215 561.5,-196 458.5,-196"/>
<text text-anchor="middle" x="510" y="-203" font-family="Helvetica,sans-Serif" font-size="10.00">opencv2/core.hpp</text>
</a>
</g>
</g>
<!-- Node1&#45;&gt;Node15 -->
<g id="edge31" class="edge">
<title>Node1&#45;&gt;Node15</title>
<path fill="none" stroke="midnightblue" d="M563.58,-324.37C552.58,-300.18 530.17,-250.88 518.11,-224.35"/>
<polygon fill="midnightblue" stroke="midnightblue" points="521.23,-222.75 513.91,-215.1 514.86,-225.65 521.23,-222.75"/>
</g>
<!-- Node16 -->
<g id="node13" class="node">
<title>Node16</title>
<g id="a_node13"><a xlink:href="parsed__calibration_8h.html" target="_top" xlink:title="Nanobind&#45;free POD structs holding parsed calibration scalars.">
<polygon fill="white" stroke="black" points="548.5,-123.5 548.5,-153.5 667.5,-153.5 667.5,-123.5 548.5,-123.5"/>
<text text-anchor="start" x="556.5" y="-141.5" font-family="Helvetica,sans-Serif" font-size="10.00">depz/core/calibration</text>
<text text-anchor="middle" x="608" y="-130.5" font-family="Helvetica,sans-Serif" font-size="10.00">/parsed_calibration.h</text>
</a>
</g>
</g>
<!-- Node1&#45;&gt;Node16 -->
<g id="edge19" class="edge">
<title>Node1&#45;&gt;Node16</title>
<path fill="none" stroke="midnightblue" d="M602.59,-324.44C617.47,-316.16 633.62,-304.12 642,-288 662.1,-249.36 654.72,-231.66 642,-190 638.93,-179.95 633.12,-170.08 627.15,-161.78"/>
<polygon fill="midnightblue" stroke="midnightblue" points="629.85,-159.55 620.99,-153.75 624.3,-163.81 629.85,-159.55"/>
</g>
<!-- Node18 -->
<g id="node15" class="node">
<title>Node18</title>
<g id="a_node15"><a xlink:href="stereocalibration_8h.html" target="_top" xlink:title="Stereo camera calibration: load, validate, rectify.">
<polygon fill="white" stroke="black" points="814,-196 814,-215 982,-215 982,-196 814,-196"/>
<text text-anchor="middle" x="898" y="-203" font-family="Helvetica,sans-Serif" font-size="10.00">depz/stereo/stereocalibration.h</text>
</a>
</g>
</g>
<!-- Node1&#45;&gt;Node18 -->
<g id="edge24" class="edge">
<title>Node1&#45;&gt;Node18</title>
<path fill="none" stroke="midnightblue" d="M648.68,-330.66C694.59,-323.82 752.63,-311.17 800,-288 833.59,-271.57 865.54,-241.32 883.37,-222.65"/>
<polygon fill="midnightblue" stroke="midnightblue" points="886.06,-224.9 890.33,-215.21 880.94,-220.13 886.06,-224.9"/>
</g>
<!-- Node3&#45;&gt;Node2 -->
<g id="edge3" class="edge">
<title>Node3&#45;&gt;Node2</title>
<path fill="none" stroke="midnightblue" d="M254.41,-257.4C229.91,-247.69 197.17,-234.71 170.88,-224.29"/>
<polygon fill="midnightblue" stroke="midnightblue" points="172.1,-221.01 161.52,-220.58 169.52,-227.51 172.1,-221.01"/>
</g>
<!-- Node4 -->
<g id="node4" class="node">
<title>Node4</title>
<g id="a_node4"><a xlink:href="icontrol__owner_8h.html" target="_top" xlink:title=" ">
<polygon fill="white" stroke="black" points="318,-190.5 318,-220.5 440,-220.5 440,-190.5 318,-190.5"/>
<text text-anchor="start" x="326" y="-208.5" font-family="Helvetica,sans-Serif" font-size="10.00">depz/controls/icontrol</text>
<text text-anchor="middle" x="379" y="-197.5" font-family="Helvetica,sans-Serif" font-size="10.00">_owner.h</text>
</a>
</g>
</g>
<!-- Node3&#45;&gt;Node4 -->
<g id="edge4" class="edge">
<title>Node3&#45;&gt;Node4</title>
<path fill="none" stroke="midnightblue" d="M309.31,-257.4C321.67,-248.37 337.9,-236.51 351.59,-226.52"/>
<polygon fill="midnightblue" stroke="midnightblue" points="353.71,-229.3 359.73,-220.58 349.59,-223.65 353.71,-229.3"/>
</g>
<!-- Node3&#45;&gt;Node9 -->
<g id="edge16" class="edge">
<title>Node3&#45;&gt;Node9</title>
<path fill="none" stroke="midnightblue" d="M283.82,-257.28C268.93,-220.65 235.21,-121.36 276,-56 287.84,-37.03 310.25,-25.84 329.98,-19.36"/>
<polygon fill="midnightblue" stroke="midnightblue" points="331.11,-22.68 339.69,-16.47 329.11,-15.97 331.11,-22.68"/>
</g>
<!-- Node3&#45;&gt;Node10 -->
<g id="edge17" class="edge">
<title>Node3&#45;&gt;Node10</title>
<path fill="none" stroke="midnightblue" d="M288.35,-257.26C285.82,-229.4 283.67,-166.6 309,-123 333.87,-80.19 352.35,-75.16 398,-56 489.4,-17.64 608.64,-11.39 664.93,-10.75"/>
<polygon fill="midnightblue" stroke="midnightblue" points="665.02,-14.25 675,-10.68 664.98,-7.25 665.02,-14.25"/>
</g>
<!-- Node3&#45;&gt;Node13 -->
<g id="edge18" class="edge">
<title>Node3&#45;&gt;Node13</title>
<path fill="none" stroke="midnightblue" d="M270.79,-257.36C259.65,-248.18 246.22,-235.29 238,-221 213.67,-178.71 205.21,-120.69 202.37,-91.26"/>
<polygon fill="midnightblue" stroke="midnightblue" points="205.84,-90.82 201.51,-81.15 198.87,-91.41 205.84,-90.82"/>
</g>
<!-- Node3&#45;&gt;Node15 -->
<g id="edge15" class="edge">
<title>Node3&#45;&gt;Node15</title>
<path fill="none" stroke="midnightblue" d="M337.47,-257.48C377.42,-245.67 433.84,-229 471.15,-217.98"/>
<polygon fill="midnightblue" stroke="midnightblue" points="472.54,-221.22 481.13,-215.03 470.55,-214.51 472.54,-221.22"/>
</g>
<!-- Node4&#45;&gt;Node5 -->
<g id="edge5" class="edge">
<title>Node4&#45;&gt;Node5</title>
<path fill="none" stroke="midnightblue" d="M380.52,-190.4C381.53,-180.96 382.88,-168.45 383.99,-158.19"/>
<polygon fill="midnightblue" stroke="midnightblue" points="387.47,-158.51 385.06,-148.19 380.51,-157.76 387.47,-158.51"/>
</g>
<!-- Node4&#45;&gt;Node14 -->
<g id="edge14" class="edge">
<title>Node4&#45;&gt;Node14</title>
<path fill="none" stroke="midnightblue" d="M419.02,-190.38C435.39,-182.4 452.66,-170.62 462,-154 472.88,-134.65 468.94,-108.46 464.25,-91.05"/>
<polygon fill="midnightblue" stroke="midnightblue" points="467.46,-89.58 461.21,-81.03 460.77,-91.62 467.46,-89.58"/>
</g>
<!-- Node6 -->
<g id="node6" class="node">
<title>Node6</title>
<g id="a_node6"><a xlink:href="iparameter__store_8h.html" target="_top" xlink:title="Type&#45;erased key/value parameter store interface.">
<polygon fill="white" stroke="red" points="636.5,-56.5 636.5,-86.5 757.5,-86.5 757.5,-56.5 636.5,-56.5"/>
<text text-anchor="start" x="644.5" y="-74.5" font-family="Helvetica,sans-Serif" font-size="10.00">depz/core/iparameter</text>
<text text-anchor="middle" x="697" y="-63.5" font-family="Helvetica,sans-Serif" font-size="10.00">_store.h</text>
</a>
</g>
</g>
<!-- Node5&#45;&gt;Node6 -->
<g id="edge6" class="edge">
<title>Node5&#45;&gt;Node6</title>
<path fill="none" stroke="midnightblue" d="M426.98,-128.94C477.68,-118.34 564.83,-100.12 626.39,-87.26"/>
<polygon fill="midnightblue" stroke="midnightblue" points="627.35,-90.63 636.42,-85.16 625.91,-83.78 627.35,-90.63"/>
</g>
<!-- Node5&#45;&gt;Node9 -->
<g id="edge10" class="edge">
<title>Node5&#45;&gt;Node9</title>
<path fill="none" stroke="midnightblue" d="M384.76,-128.81C381.87,-108.49 374.62,-57.55 370.67,-29.78"/>
<polygon fill="midnightblue" stroke="midnightblue" points="374.12,-29.16 369.25,-19.76 367.19,-30.15 374.12,-29.16"/>
</g>
<!-- Node5&#45;&gt;Node10 -->
<g id="edge11" class="edge">
<title>Node5&#45;&gt;Node10</title>
<path fill="none" stroke="midnightblue" d="M387.42,-128.95C390.72,-112.04 400.54,-74.37 425,-56 462.35,-27.94 600.89,-16.51 664.59,-12.66"/>
<polygon fill="midnightblue" stroke="midnightblue" points="665.07,-16.14 674.86,-12.07 664.67,-9.15 665.07,-16.14"/>
</g>
<!-- Node5&#45;&gt;Node13 -->
<g id="edge12" class="edge">
<title>Node5&#45;&gt;Node13</title>
<path fill="none" stroke="midnightblue" d="M361.43,-128.87C328.46,-117.28 269.82,-96.68 233.31,-83.85"/>
<polygon fill="midnightblue" stroke="midnightblue" points="234.23,-80.47 223.63,-80.45 231.91,-87.07 234.23,-80.47"/>
</g>
<!-- Node5&#45;&gt;Node14 -->
<g id="edge13" class="edge">
<title>Node5&#45;&gt;Node14</title>
<path fill="none" stroke="midnightblue" d="M395.71,-128.73C407.26,-118.31 426.75,-100.71 440.86,-87.97"/>
<polygon fill="midnightblue" stroke="midnightblue" points="443.37,-90.43 448.44,-81.13 438.68,-85.23 443.37,-90.43"/>
</g>
<!-- Node7 -->
<g id="node7" class="node">
<title>Node7</title>
<g id="a_node7"><a xlink:title=" ">
<polygon fill="white" stroke="#bfbfbf" points="794,-0.5 794,-19.5 910,-19.5 910,-0.5 794,-0.5"/>
<text text-anchor="middle" x="852" y="-7.5" font-family="Helvetica,sans-Serif" font-size="10.00">opencv2/opencv.hpp</text>
</a>
</g>
</g>
<!-- Node6&#45;&gt;Node7 -->
<g id="edge7" class="edge">
<title>Node6&#45;&gt;Node7</title>
<path fill="none" stroke="midnightblue" d="M733.73,-56.4C759.97,-46.33 794.93,-32.91 820.02,-23.28"/>
<polygon fill="midnightblue" stroke="midnightblue" points="821.36,-26.51 829.45,-19.66 818.86,-19.97 821.36,-26.51"/>
</g>
<!-- Node6&#45;&gt;Node9 -->
<g id="edge8" class="edge">
<title>Node6&#45;&gt;Node9</title>
<path fill="none" stroke="midnightblue" d="M636.27,-59.52C568.98,-47.35 462.52,-28.09 406.07,-17.89"/>
<polygon fill="midnightblue" stroke="midnightblue" points="406.6,-14.42 396.14,-16.09 405.35,-21.31 406.6,-14.42"/>
</g>
<!-- Node6&#45;&gt;Node10 -->
<g id="edge9" class="edge">
<title>Node6&#45;&gt;Node10</title>
<path fill="none" stroke="midnightblue" d="M697,-56.4C697,-48.47 697,-38.46 697,-29.86"/>
<polygon fill="midnightblue" stroke="midnightblue" points="700.5,-29.66 697,-19.66 693.5,-29.66 700.5,-29.66"/>
</g>
<!-- Node16&#45;&gt;Node10 -->
<g id="edge21" class="edge">
<title>Node16&#45;&gt;Node10</title>
<path fill="none" stroke="midnightblue" d="M608.38,-123.23C609.51,-105.86 613.59,-76.32 628,-56 637.75,-42.26 653.13,-31.63 666.91,-24.17"/>
<polygon fill="midnightblue" stroke="midnightblue" points="668.76,-27.15 676.1,-19.5 665.6,-20.91 668.76,-27.15"/>
</g>
<!-- Node16&#45;&gt;Node14 -->
<g id="edge22" class="edge">
<title>Node16&#45;&gt;Node14</title>
<path fill="none" stroke="midnightblue" d="M575.19,-123.41C551.73,-113.31 519.4,-99.37 491,-87 489.64,-86.41 488.24,-85.8 486.84,-85.18"/>
<polygon fill="midnightblue" stroke="midnightblue" points="488.1,-81.92 477.53,-81.11 485.29,-88.33 488.1,-81.92"/>
</g>
<!-- Node17 -->
<g id="node14" class="node">
<title>Node17</title>
<g id="a_node14"><a xlink:title=" ">
<polygon fill="white" stroke="#bfbfbf" points="500,-62 500,-81 542,-81 542,-62 500,-62"/>
<text text-anchor="middle" x="521" y="-69" font-family="Helvetica,sans-Serif" font-size="10.00">array</text>
</a>
</g>
</g>
<!-- Node16&#45;&gt;Node17 -->
<g id="edge20" class="edge">
<title>Node16&#45;&gt;Node17</title>
<path fill="none" stroke="midnightblue" d="M589.12,-123.4C574.89,-112.76 555.4,-98.2 540.92,-87.38"/>
<polygon fill="midnightblue" stroke="midnightblue" points="542.74,-84.38 532.64,-81.19 538.55,-89.98 542.74,-84.38"/>
</g>
<!-- Node18&#45;&gt;Node9 -->
<g id="edge29" class="edge">
<title>Node18&#45;&gt;Node9</title>
<path fill="none" stroke="midnightblue" d="M878.64,-196C810.6,-166.14 584.71,-67.28 551,-56 501.93,-39.59 443.66,-26.28 406.27,-18.51"/>
<polygon fill="midnightblue" stroke="midnightblue" points="406.81,-15.04 396.31,-16.46 405.4,-21.9 406.81,-15.04"/>
</g>
<!-- Node18&#45;&gt;Node10 -->
<g id="edge30" class="edge">
<title>Node18&#45;&gt;Node10</title>
<path fill="none" stroke="midnightblue" d="M886.39,-195.92C874.5,-186.65 856.09,-170.92 844,-154 816.24,-115.15 833.93,-89.59 800,-56 780.52,-36.71 751.4,-25.04 729.09,-18.44"/>
<polygon fill="midnightblue" stroke="midnightblue" points="729.95,-15.04 719.38,-15.75 728.08,-21.79 729.95,-15.04"/>
</g>
<!-- Node19 -->
<g id="node16" class="node">
<title>Node19</title>
<g id="a_node16"><a xlink:href="istereo__calibration__model_8h.html" target="_top" xlink:title=" ">
<polygon fill="white" stroke="black" points="852.5,-123.5 852.5,-153.5 971.5,-153.5 971.5,-123.5 852.5,-123.5"/>
<text text-anchor="start" x="860.5" y="-141.5" font-family="Helvetica,sans-Serif" font-size="10.00">depz/stereo/istereo</text>
<text text-anchor="middle" x="912" y="-130.5" font-family="Helvetica,sans-Serif" font-size="10.00">_calibration_model.h</text>
</a>
</g>
</g>
<!-- Node18&#45;&gt;Node19 -->
<g id="edge25" class="edge">
<title>Node18&#45;&gt;Node19</title>
<path fill="none" stroke="midnightblue" d="M899.89,-195.73C901.67,-187.46 904.43,-174.66 906.86,-163.37"/>
<polygon fill="midnightblue" stroke="midnightblue" points="910.28,-164.1 908.97,-153.59 903.44,-162.63 910.28,-164.1"/>
</g>
<!-- Node19&#45;&gt;Node6 -->
<g id="edge26" class="edge">
<title>Node19&#45;&gt;Node6</title>
<path fill="none" stroke="midnightblue" d="M865.61,-123.48C832.66,-113.51 788.25,-100.09 753.27,-89.51"/>
<polygon fill="midnightblue" stroke="midnightblue" points="754.26,-86.15 743.67,-86.61 752.23,-92.86 754.26,-86.15"/>
</g>
<!-- Node19&#45;&gt;Node7 -->
<g id="edge27" class="edge">
<title>Node19&#45;&gt;Node7</title>
<path fill="none" stroke="midnightblue" d="M907.87,-123.23C902.81,-106.62 893.48,-78.58 882,-56 877.05,-46.27 870.41,-36.1 864.64,-27.89"/>
<polygon fill="midnightblue" stroke="midnightblue" points="867.32,-25.63 858.62,-19.59 861.65,-29.74 867.32,-25.63"/>
</g>
<!-- Node19&#45;&gt;Node10 -->
<g id="edge28" class="edge">
<title>Node19&#45;&gt;Node10</title>
<path fill="none" stroke="midnightblue" d="M902.7,-123.31C890.11,-105.17 865.97,-73.98 838,-56 804.16,-34.25 758.98,-22.27 728.99,-16.25"/>
<polygon fill="midnightblue" stroke="midnightblue" points="729.53,-12.79 719.05,-14.36 728.22,-19.67 729.53,-12.79"/>
</g>
</g>
</svg>
        <g id="navigator" transform="translate(0 0)" fill="#404254">
                <rect fill="#f2f5e9" fill-opacity="0.5" stroke="#606060" stroke-width=".5" x="0" y="0" width="60" height="60"/>
                <use id="zoomplus" xlink:href="#zoomPlus" x="17" y="9" onmousedown="handleZoom(evt,'in')"/>
                <use id="zoomminus" xlink:href="#zoomMin" x="42" y="9" onmousedown="handleZoom(evt,'out')"/>
                <use id="reset" xlink:href="#resetDef" x="30" y="36" onmousedown="handleReset()"/>
                <g id="arrowUp" xlink:href="#dirArrow" transform="translate(30 24)" onmousedown="handlePan(0,-1)">
                  <use xlink:href="#rim" fill="#404040">
                        <set attributeName="fill" to="#808080" begin="arrowUp.mouseover" end="arrowUp.mouseout"/>
                  </use>
                  <path fill="none" stroke="white" stroke-width="1.5" d="M0,-3.0v7 M-2.5,-0.5L0,-3.0L2.5,-0.5"/>
                </g>
                <g id="arrowRight" xlink:href="#dirArrow" transform="rotate(90) translate(36 -43)" onmousedown="handlePan(1,0)">
                  <use xlink:href="#rim" fill="#404040">
                        <set attributeName="fill" to="#808080" begin="arrowRight.mouseover" end="arrowRight.mouseout"/>
                  </use>
                  <path fill="none" stroke="white" stroke-width="1.5" d="M0,-3.0v7 M-2.5,-0.5L0,-3.0L2.5,-0.5"/>
                </g>
                <g id="arrowDown" xlink:href="#dirArrow" transform="rotate(180) translate(-30 -48)" onmousedown="handlePan(0,1)">
                  <use xlink:href="#rim" fill="#404040">
                        <set attributeName="fill" to="#808080" begin="arrowDown.mouseover" end="arrowDown.mouseout"/>
                  </use>
                  <path fill="none" stroke="white" stroke-width="1.5" d="M0,-3.0v7 M-2.5,-0.5L0,-3.0L2.5,-0.5"/>
                </g>
                <g id="arrowLeft" xlink:href="#dirArrow" transform="rotate(270) translate(-36 17)" onmousedown="handlePan(-1,0)">
                  <use xlink:href="#rim" fill="#404040">
                        <set attributeName="fill" to="#808080" begin="arrowLeft.mouseover" end="arrowLeft.mouseout"/>
                  </use>
                  <path fill="none" stroke="white" stroke-width="1.5" d="M0,-3.0v7 M-2.5,-0.5L0,-3.0L2.5,-0.5"/>
                </g>
        </g>
        <svg viewBox="0 0 15 15" width="100%" height="30px" preserveAspectRatio="xMaxYMin meet">
         <g id="arrow_out" transform="scale(0.3 0.3)">
          <a xlink:href="opencv__basic_8h__incl_org.svg" target="_base">
           <rect id="button" ry="5" rx="5" y="6" x="6" height="38" width="38"
                fill="#f2f5e9" fill-opacity="0.5" stroke="#606060" stroke-width="1.0"/>
           <path id="arrow"
             d="M 11.500037,31.436501 C 11.940474,20.09759 22.043105,11.32322 32.158766,21.979434 L 37.068811,17.246167 C 37.068811,17.246167 37.088388,32 37.088388,32 L 22.160133,31.978069 C 22.160133,31.978069 26.997745,27.140456 26.997745,27.140456 C 18.528582,18.264221 13.291696,25.230495 11.500037,31.436501 z"
             style="fill:#404040;"/>
          </a>
         </g>
        </svg>
</svg>
