<?xml version="1.0" encoding="UTF-8" standalone="no"?>
<!DOCTYPE svg PUBLIC "-//W3C//DTD SVG 1.1//EN"
 "http://www.w3.org/Graphics/SVG/1.1/DTD/svg11.dtd">
<!-- Generated by graphviz version 2.43.0 (0)
 -->
<!-- Title: include/depz/core/calibration/opencv_fisheye.h Pages: 1 -->
<svg width="857pt" height="363pt"
 viewBox="0.00 0.00 856.50 363.00" xmlns="http://www.w3.org/2000/svg" xmlns:xlink="http://www.w3.org/1999/xlink">
<g id="graph0" class="graph" transform="scale(1 1) rotate(0) translate(4 359)">
<title>include/depz/core/calibration/opencv_fisheye.h</title>
<polygon fill="white" stroke="transparent" points="-4,4 -4,-359 852.5,-359 852.5,4 -4,4"/>
<!-- Node1 -->
<g id="node1" class="node">
<title>Node1</title>
<g id="a_node1"><a xlink:title="Kannala–Brandt fisheye Calibration with lon/lat (ERP) rectified depth.">
<polygon fill="#bfbfbf" stroke="black" points="286.5,-324.5 286.5,-354.5 443.5,-354.5 443.5,-324.5 286.5,-324.5"/>
<text text-anchor="start" x="294.5" y="-342.5" font-family="Helvetica,sans-Serif" font-size="10.00">include/depz/core/calibration</text>
<text text-anchor="middle" x="365" y="-331.5" font-family="Helvetica,sans-Serif" font-size="10.00">/opencv_fisheye.h</text>
</a>
</g>
</g>
<!-- Node2 -->
<g id="node2" class="node">
<title>Node2</title>
<g id="a_node2"><a xlink:href="canvas__layout_8h.html" target="_top" xlink:title=" ">
<polygon fill="white" stroke="black" points="66.5,-190.5 66.5,-220.5 185.5,-220.5 185.5,-190.5 66.5,-190.5"/>
<text text-anchor="start" x="74.5" y="-208.5" font-family="Helvetica,sans-Serif" font-size="10.00">depz/core/calibration</text>
<text text-anchor="middle" x="126" y="-197.5" font-family="Helvetica,sans-Serif" font-size="10.00">/canvas_layout.h</text>
</a>
</g>
</g>
<!-- Node1&#45;&gt;Node2 -->
<g id="edge1" class="edge">
<title>Node1&#45;&gt;Node2</title>
<path fill="none" stroke="midnightblue" d="M339.21,-324.38C320.76,-314.27 295.34,-300.32 273,-288 234.21,-266.6 189.74,-241.93 159.96,-225.38"/>
<polygon fill="midnightblue" stroke="midnightblue" points="161.65,-222.32 151.21,-220.52 158.25,-228.44 161.65,-222.32"/>
</g>
<!-- Node3 -->
<g id="node3" class="node">
<title>Node3</title>
<g id="a_node3"><a xlink:href="icalibration_8h.html" target="_top" xlink:title="Language&#45;neutral calibration ABC — the runtime contract every concrete stereo / mono calibration mode...">
<polygon fill="white" stroke="black" points="305.5,-257.5 305.5,-287.5 424.5,-287.5 424.5,-257.5 305.5,-257.5"/>
<text text-anchor="start" x="313.5" y="-275.5" font-family="Helvetica,sans-Serif" font-size="10.00">depz/core/calibration</text>
<text text-anchor="middle" x="365" y="-264.5" font-family="Helvetica,sans-Serif" font-size="10.00">/icalibration.h</text>
</a>
</g>
</g>
<!-- Node1&#45;&gt;Node3 -->
<g id="edge2" class="edge">
<title>Node1&#45;&gt;Node3</title>
<path fill="none" stroke="midnightblue" d="M365,-324.4C365,-316.64 365,-306.81 365,-297.86"/>
<polygon fill="midnightblue" stroke="midnightblue" points="368.5,-297.58 365,-287.58 361.5,-297.58 368.5,-297.58"/>
</g>
<!-- Node5 -->
<g id="node5" class="node">
<title>Node5</title>
<g id="a_node5"><a xlink:href="param__spec_8h.html" target="_top" xlink:title=" ">
<polygon fill="white" stroke="black" points="402.5,-129 402.5,-148 537.5,-148 537.5,-129 402.5,-129"/>
<text text-anchor="middle" x="470" y="-136" font-family="Helvetica,sans-Serif" font-size="10.00">depz/core/param_spec.h</text>
</a>
</g>
</g>
<!-- Node1&#45;&gt;Node5 -->
<g id="edge22" class="edge">
<title>Node1&#45;&gt;Node5</title>
<path fill="none" stroke="midnightblue" d="M402.72,-324.35C443.09,-306.92 504.97,-273.07 532,-221 538.35,-208.77 537.91,-202.44 532,-190 524.59,-174.41 509.76,-162.06 496.46,-153.47"/>
<polygon fill="midnightblue" stroke="midnightblue" points="497.98,-150.3 487.61,-148.13 494.36,-156.29 497.98,-150.3"/>
</g>
<!-- Node9 -->
<g id="node7" class="node">
<title>Node9</title>
<g id="a_node7"><a xlink:title=" ">
<polygon fill="white" stroke="#bfbfbf" points="302,-0.5 302,-19.5 358,-19.5 358,-0.5 302,-0.5"/>
<text text-anchor="middle" x="330" y="-7.5" font-family="Helvetica,sans-Serif" font-size="10.00">optional</text>
</a>
</g>
</g>
<!-- Node1&#45;&gt;Node9 -->
<g id="edge24" class="edge">
<title>Node1&#45;&gt;Node9</title>
<path fill="none" stroke="midnightblue" d="M286.28,-336.42C227.92,-332.08 147.93,-320.08 85,-288 38.37,-264.23 0,-258.84 0,-206.5 0,-206.5 0,-206.5 0,-137.5 0,-75.59 205.05,-32.68 291.88,-17.29"/>
<polygon fill="midnightblue" stroke="midnightblue" points="292.61,-20.71 301.86,-15.54 291.41,-13.81 292.61,-20.71"/>
</g>
<!-- Node10 -->
<g id="node8" class="node">
<title>Node10</title>
<g id="a_node8"><a xlink:title=" ">
<polygon fill="white" stroke="#bfbfbf" points="641,-0.5 641,-19.5 685,-19.5 685,-0.5 641,-0.5"/>
<text text-anchor="middle" x="663" y="-7.5" font-family="Helvetica,sans-Serif" font-size="10.00">string</text>
</a>
</g>
</g>
<!-- Node1&#45;&gt;Node10 -->
<g id="edge25" class="edge">
<title>Node1&#45;&gt;Node10</title>
<path fill="none" stroke="midnightblue" d="M440.82,-324.48C539.92,-303.95 701,-262.04 701,-206.5 701,-206.5 701,-206.5 701,-137.5 701,-97.35 683.22,-52.95 671.99,-28.89"/>
<polygon fill="midnightblue" stroke="midnightblue" points="675.01,-27.1 667.51,-19.63 668.71,-30.15 675.01,-27.1"/>
</g>
<!-- Node13 -->
<g id="node9" class="node">
<title>Node13</title>
<g id="a_node9"><a xlink:title=" ">
<polygon fill="white" stroke="#bfbfbf" points="307.5,-62 307.5,-81 352.5,-81 352.5,-62 307.5,-62"/>
<text text-anchor="middle" x="330" y="-69" font-family="Helvetica,sans-Serif" font-size="10.00">utility</text>
</a>
</g>
</g>
<!-- Node1&#45;&gt;Node13 -->
<g id="edge26" class="edge">
<title>Node1&#45;&gt;Node13</title>
<path fill="none" stroke="midnightblue" d="M286.17,-333.12C212.68,-323.4 107.09,-296.28 57,-221 -4.91,-127.95 212.1,-88.26 297.2,-76.5"/>
<polygon fill="midnightblue" stroke="midnightblue" points="297.91,-79.93 307.36,-75.14 296.98,-72.99 297.91,-79.93"/>
</g>
<!-- Node14 -->
<g id="node10" class="node">
<title>Node14</title>
<g id="a_node10"><a xlink:title=" ">
<polygon fill="white" stroke="#bfbfbf" points="587.5,-62 587.5,-81 634.5,-81 634.5,-62 587.5,-62"/>
<text text-anchor="middle" x="611" y="-69" font-family="Helvetica,sans-Serif" font-size="10.00">vector</text>
</a>
</g>
</g>
<!-- Node1&#45;&gt;Node14 -->
<g id="edge27" class="edge">
<title>Node1&#45;&gt;Node14</title>
<path fill="none" stroke="midnightblue" d="M425.85,-324.48C450.87,-316.63 479.07,-304.93 501,-288 567.71,-236.51 597.42,-133.39 607.15,-91.17"/>
<polygon fill="midnightblue" stroke="midnightblue" points="610.62,-91.7 609.33,-81.18 603.78,-90.2 610.62,-91.7"/>
</g>
<!-- Node15 -->
<g id="node11" class="node">
<title>Node15</title>
<g id="a_node11"><a xlink:title=" ">
<polygon fill="white" stroke="#bfbfbf" points="203.5,-196 203.5,-215 306.5,-215 306.5,-196 203.5,-196"/>
<text text-anchor="middle" x="255" y="-203" font-family="Helvetica,sans-Serif" font-size="10.00">opencv2/core.hpp</text>
</a>
</g>
</g>
<!-- Node1&#45;&gt;Node15 -->
<g id="edge23" class="edge">
<title>Node1&#45;&gt;Node15</title>
<path fill="none" stroke="midnightblue" d="M340.04,-324.34C325.8,-315.32 308.37,-302.62 296,-288 279.81,-268.88 267.98,-242.27 261.29,-224.73"/>
<polygon fill="midnightblue" stroke="midnightblue" points="264.51,-223.33 257.81,-215.13 257.93,-225.72 264.51,-223.33"/>
</g>
<!-- Node16 -->
<g id="node12" class="node">
<title>Node16</title>
<g id="a_node12"><a xlink:href="parsed__calibration_8h.html" target="_top" xlink:title="Nanobind&#45;free POD structs holding parsed calibration scalars.">
<polygon fill="white" stroke="black" points="729.5,-123.5 729.5,-153.5 848.5,-153.5 848.5,-123.5 729.5,-123.5"/>
<text text-anchor="start" x="737.5" y="-141.5" font-family="Helvetica,sans-Serif" font-size="10.00">depz/core/calibration</text>
<text text-anchor="middle" x="789" y="-130.5" font-family="Helvetica,sans-Serif" font-size="10.00">/parsed_calibration.h</text>
</a>
</g>
</g>
<!-- Node1&#45;&gt;Node16 -->
<g id="edge18" class="edge">
<title>Node1&#45;&gt;Node16</title>
<path fill="none" stroke="midnightblue" d="M443.83,-335.52C533.48,-330.7 672.89,-318.44 715,-288 756.71,-257.85 776.24,-197.45 784.24,-163.71"/>
<polygon fill="midnightblue" stroke="midnightblue" points="787.7,-164.29 786.44,-153.77 780.86,-162.77 787.7,-164.29"/>
</g>
<!-- Node3&#45;&gt;Node2 -->
<g id="edge3" class="edge">
<title>Node3&#45;&gt;Node2</title>
<path fill="none" stroke="midnightblue" d="M313.43,-257.48C276.5,-247.43 226.59,-233.86 187.56,-223.24"/>
<polygon fill="midnightblue" stroke="midnightblue" points="188.45,-219.86 177.88,-220.61 186.62,-226.61 188.45,-219.86"/>
</g>
<!-- Node4 -->
<g id="node4" class="node">
<title>Node4</title>
<g id="a_node4"><a xlink:href="icontrol__owner_8h.html" target="_top" xlink:title=" ">
<polygon fill="white" stroke="black" points="401,-190.5 401,-220.5 523,-220.5 523,-190.5 401,-190.5"/>
<text text-anchor="start" x="409" y="-208.5" font-family="Helvetica,sans-Serif" font-size="10.00">depz/controls/icontrol</text>
<text text-anchor="middle" x="462" y="-197.5" font-family="Helvetica,sans-Serif" font-size="10.00">_owner.h</text>
</a>
</g>
</g>
<!-- Node3&#45;&gt;Node4 -->
<g id="edge4" class="edge">
<title>Node3&#45;&gt;Node4</title>
<path fill="none" stroke="midnightblue" d="M386.05,-257.4C399.65,-248.28 417.54,-236.29 432.55,-226.24"/>
<polygon fill="midnightblue" stroke="midnightblue" points="434.63,-229.05 440.99,-220.58 430.74,-223.24 434.63,-229.05"/>
</g>
<!-- Node3&#45;&gt;Node9 -->
<g id="edge15" class="edge">
<title>Node3&#45;&gt;Node9</title>
<path fill="none" stroke="midnightblue" d="M357.82,-257.15C343.04,-226.73 309.63,-153.12 298,-87 295.61,-73.43 293.81,-69.12 298,-56 301.34,-45.54 308.1,-35.43 314.55,-27.45"/>
<polygon fill="midnightblue" stroke="midnightblue" points="317.35,-29.56 321.25,-19.71 312.06,-24.98 317.35,-29.56"/>
</g>
<!-- Node3&#45;&gt;Node10 -->
<g id="edge16" class="edge">
<title>Node3&#45;&gt;Node10</title>
<path fill="none" stroke="midnightblue" d="M424.64,-262.2C458.23,-254.91 499.78,-242.3 532,-221 596.75,-178.2 608.81,-156.18 644,-87 653.23,-68.86 658.16,-45.95 660.67,-30.05"/>
<polygon fill="midnightblue" stroke="midnightblue" points="664.17,-30.27 662.09,-19.88 657.24,-29.3 664.17,-30.27"/>
</g>
<!-- Node3&#45;&gt;Node13 -->
<g id="edge17" class="edge">
<title>Node3&#45;&gt;Node13</title>
<path fill="none" stroke="midnightblue" d="M362.48,-257.19C356.28,-221.91 340.25,-130.78 333.3,-91.25"/>
<polygon fill="midnightblue" stroke="midnightblue" points="336.74,-90.6 331.56,-81.36 329.84,-91.82 336.74,-90.6"/>
</g>
<!-- Node3&#45;&gt;Node15 -->
<g id="edge14" class="edge">
<title>Node3&#45;&gt;Node15</title>
<path fill="none" stroke="midnightblue" d="M341.13,-257.4C322.43,-246.34 296.56,-231.06 278.07,-220.13"/>
<polygon fill="midnightblue" stroke="midnightblue" points="279.79,-217.08 269.4,-215.01 276.23,-223.11 279.79,-217.08"/>
</g>
<!-- Node4&#45;&gt;Node5 -->
<g id="edge5" class="edge">
<title>Node4&#45;&gt;Node5</title>
<path fill="none" stroke="midnightblue" d="M463.74,-190.4C464.9,-180.96 466.44,-168.45 467.7,-158.19"/>
<polygon fill="midnightblue" stroke="midnightblue" points="471.18,-158.55 468.93,-148.19 464.23,-157.69 471.18,-158.55"/>
</g>
<!-- Node4&#45;&gt;Node14 -->
<g id="edge13" class="edge">
<title>Node4&#45;&gt;Node14</title>
<path fill="none" stroke="midnightblue" d="M491.72,-190.33C508.91,-181.32 530.36,-168.61 547,-154 568.79,-134.87 588.51,-107.53 600.13,-89.89"/>
<polygon fill="midnightblue" stroke="midnightblue" points="603.25,-91.51 605.71,-81.21 597.36,-87.73 603.25,-91.51"/>
</g>
<!-- Node6 -->
<g id="node6" class="node">
<title>Node6</title>
<g id="a_node6"><a xlink:href="iparameter__store_8h.html" target="_top" xlink:title="Type&#45;erased key/value parameter store interface.">
<polygon fill="white" stroke="red" points="409.5,-56.5 409.5,-86.5 530.5,-86.5 530.5,-56.5 409.5,-56.5"/>
<text text-anchor="start" x="417.5" y="-74.5" font-family="Helvetica,sans-Serif" font-size="10.00">depz/core/iparameter</text>
<text text-anchor="middle" x="470" y="-63.5" font-family="Helvetica,sans-Serif" font-size="10.00">_store.h</text>
</a>
</g>
</g>
<!-- Node5&#45;&gt;Node6 -->
<g id="edge6" class="edge">
<title>Node5&#45;&gt;Node6</title>
<path fill="none" stroke="midnightblue" d="M470,-128.73C470,-120.54 470,-107.92 470,-96.71"/>
<polygon fill="midnightblue" stroke="midnightblue" points="473.5,-96.59 470,-86.59 466.5,-96.59 473.5,-96.59"/>
</g>
<!-- Node5&#45;&gt;Node9 -->
<g id="edge9" class="edge">
<title>Node5&#45;&gt;Node9</title>
<path fill="none" stroke="midnightblue" d="M456.73,-128.88C442.41,-119.34 419.21,-103.16 401,-87 379.8,-68.2 357.91,-43.89 344.14,-27.89"/>
<polygon fill="midnightblue" stroke="midnightblue" points="346.53,-25.29 337.39,-19.94 341.2,-29.83 346.53,-25.29"/>
</g>
<!-- Node5&#45;&gt;Node10 -->
<g id="edge10" class="edge">
<title>Node5&#45;&gt;Node10</title>
<path fill="none" stroke="midnightblue" d="M482.27,-128.91C496.34,-119 520.05,-102.11 540,-87 557.65,-73.63 560.5,-68.17 579,-56 597.14,-44.07 618.76,-32.54 635.52,-24.15"/>
<polygon fill="midnightblue" stroke="midnightblue" points="637.35,-27.15 644.77,-19.58 634.25,-20.87 637.35,-27.15"/>
</g>
<!-- Node5&#45;&gt;Node13 -->
<g id="edge11" class="edge">
<title>Node5&#45;&gt;Node13</title>
<path fill="none" stroke="midnightblue" d="M451.41,-128.87C427.46,-117.75 385.61,-98.32 357.85,-85.43"/>
<polygon fill="midnightblue" stroke="midnightblue" points="359.21,-82.2 348.67,-81.17 356.26,-88.55 359.21,-82.2"/>
</g>
<!-- Node5&#45;&gt;Node14 -->
<g id="edge12" class="edge">
<title>Node5&#45;&gt;Node14</title>
<path fill="none" stroke="midnightblue" d="M488.72,-128.87C512.85,-117.75 555,-98.32 582.95,-85.43"/>
<polygon fill="midnightblue" stroke="midnightblue" points="584.58,-88.53 592.2,-81.17 581.65,-82.18 584.58,-88.53"/>
</g>
<!-- Node6&#45;&gt;Node9 -->
<g id="edge7" class="edge">
<title>Node6&#45;&gt;Node9</title>
<path fill="none" stroke="midnightblue" d="M436.82,-56.4C413.44,-46.46 382.39,-33.26 359.79,-23.66"/>
<polygon fill="midnightblue" stroke="midnightblue" points="360.94,-20.35 350.37,-19.66 358.21,-26.79 360.94,-20.35"/>
</g>
<!-- Node6&#45;&gt;Node10 -->
<g id="edge8" class="edge">
<title>Node6&#45;&gt;Node10</title>
<path fill="none" stroke="midnightblue" d="M515.74,-56.4C551.35,-45.42 599.84,-30.47 631.29,-20.78"/>
<polygon fill="midnightblue" stroke="midnightblue" points="632.33,-24.12 640.86,-17.83 630.27,-17.43 632.33,-24.12"/>
</g>
<!-- Node16&#45;&gt;Node10 -->
<g id="edge20" class="edge">
<title>Node16&#45;&gt;Node10</title>
<path fill="none" stroke="midnightblue" d="M777.18,-123.48C762.96,-106.86 738.11,-78.56 715,-56 704.32,-45.57 691.67,-34.6 681.53,-26.1"/>
<polygon fill="midnightblue" stroke="midnightblue" points="683.62,-23.29 673.69,-19.61 679.16,-28.68 683.62,-23.29"/>
</g>
<!-- Node16&#45;&gt;Node14 -->
<g id="edge21" class="edge">
<title>Node16&#45;&gt;Node14</title>
<path fill="none" stroke="midnightblue" d="M750.38,-123.4C718.59,-111.79 674.02,-95.51 643.91,-84.52"/>
<polygon fill="midnightblue" stroke="midnightblue" points="644.89,-81.15 634.3,-81.01 642.49,-87.72 644.89,-81.15"/>
</g>
<!-- Node17 -->
<g id="node13" class="node">
<title>Node17</title>
<g id="a_node13"><a xlink:title=" ">
<polygon fill="white" stroke="#bfbfbf" points="768,-62 768,-81 810,-81 810,-62 768,-62"/>
<text text-anchor="middle" x="789" y="-69" font-family="Helvetica,sans-Serif" font-size="10.00">array</text>
</a>
</g>
</g>
<!-- Node16&#45;&gt;Node17 -->
<g id="edge19" class="edge">
<title>Node16&#45;&gt;Node17</title>
<path fill="none" stroke="midnightblue" d="M789,-123.4C789,-114.06 789,-101.71 789,-91.52"/>
<polygon fill="midnightblue" stroke="midnightblue" points="792.5,-91.19 789,-81.19 785.5,-91.19 792.5,-91.19"/>
</g>
</g>
</svg>
