<?xml version="1.0" encoding="UTF-8" standalone="no"?>
<!DOCTYPE svg PUBLIC "-//W3C//DTD SVG 1.1//EN"
 "http://www.w3.org/Graphics/SVG/1.1/DTD/svg11.dtd">
<!-- Generated by graphviz version 2.43.0 (0)
 -->
<!-- Title: include/depz/core/calibration/opencv_depth_calibration.h Pages: 1 -->
<!--zoomable 497 -->
<svg id="main" version="1.1" xmlns="http://www.w3.org/2000/svg" xmlns:xlink="http://www.w3.org/1999/xlink" xml:space="preserve" onload="init(evt)">
<style type="text/css"><![CDATA[
.edge:hover path { stroke: red; }
.edge:hover polygon { stroke: red; fill: red; }
]]></style>
<script type="text/javascript"><![CDATA[
var edges = document.getElementsByTagName('g');
if (edges && edges.length) {
  for (var i=0;i<edges.length;i++) {
    if (edges[i].id.substr(0,4)=='edge') {
      edges[i].setAttribute('class','edge');
    }
  }
}
]]></script>
        <defs>
                <circle id="rim" cx="0" cy="0" r="7"/>
                <circle id="rim2" cx="0" cy="0" r="3.5"/>
                <g id="zoomPlus">
                        <use xlink:href="#rim" fill="#404040">
                                <set attributeName="fill" to="#808080" begin="zoomplus.mouseover" end="zoomplus.mouseout"/>
                        </use>
                        <path d="M-4,0h8M0,-4v8" fill="none" stroke="white" stroke-width="1.5" pointer-events="none"/>
                </g>
                <g id="zoomMin">
                        <use xlink:href="#rim" fill="#404040">
                                <set attributeName="fill" to="#808080" begin="zoomminus.mouseover" end="zoomminus.mouseout"/>
                        </use>
                        <path d="M-4,0h8" fill="none" stroke="white" stroke-width="1.5" pointer-events="none"/>
                </g>
                <g id="dirArrow">
                        <path fill="none" stroke="white" stroke-width="1.5" d="M0,-3.0v7 M-2.5,-0.5L0,-3.0L2.5,-0.5"/>
                </g>
               <g id="resetDef">
                       <use xlink:href="#rim2" fill="#404040">
                               <set attributeName="fill" to="#808080" begin="reset.mouseover" end="reset.mouseout"/>
                       </use>
               </g>
        </defs>

<script type="text/javascript">
var viewWidth = 950;
var viewHeight = 497;
var sectionId = 'dynsection-0';
</script>
<script xlink:href="svgpan.js"/>
<svg id="graph" class="graph">
<g id="viewport">
<title>include/depz/core/calibration/opencv_depth_calibration.h</title>
<polygon fill="white" stroke="transparent" points="-4,4 -4,-493 945.5,-493 945.5,4 -4,4"/>
<!-- Node1 -->
<g id="node1" class="node">
<title>Node1</title>
<g id="a_node1"><a xlink:title="IDepthCalibration for the pinhole stereo model, backed by StereoCalibration.">
<polygon fill="#bfbfbf" stroke="black" points="446,-458.5 446,-488.5 603,-488.5 603,-458.5 446,-458.5"/>
<text text-anchor="start" x="454" y="-476.5" font-family="Helvetica,sans-Serif" font-size="10.00">include/depz/core/calibration</text>
<text text-anchor="middle" x="524.5" y="-465.5" font-family="Helvetica,sans-Serif" font-size="10.00">/opencv_depth_calibration.h</text>
</a>
</g>
</g>
<!-- Node2 -->
<g id="node2" class="node">
<title>Node2</title>
<g id="a_node2"><a xlink:href="parsed__calibration_8h.html" target="_top" xlink:title="Nanobind&#45;free POD structs holding parsed calibration scalars.">
<polygon fill="white" stroke="black" points="0,-123.5 0,-153.5 119,-153.5 119,-123.5 0,-123.5"/>
<text text-anchor="start" x="8" y="-141.5" font-family="Helvetica,sans-Serif" font-size="10.00">depz/core/calibration</text>
<text text-anchor="middle" x="59.5" y="-130.5" font-family="Helvetica,sans-Serif" font-size="10.00">/parsed_calibration.h</text>
</a>
</g>
</g>
<!-- Node1&#45;&gt;Node2 -->
<g id="edge1" class="edge">
<title>Node1&#45;&gt;Node2</title>
<path fill="none" stroke="midnightblue" d="M445.97,-465.43C318.22,-451.74 79.5,-416.05 79.5,-340.5 79.5,-340.5 79.5,-340.5 79.5,-271.5 79.5,-233.41 71.26,-189.82 65.35,-163.49"/>
<polygon fill="midnightblue" stroke="midnightblue" points="68.74,-162.61 63.08,-153.65 61.92,-164.18 68.74,-162.61"/>
</g>
<!-- Node4 -->
<g id="node4" class="node">
<title>Node4</title>
<g id="a_node4"><a xlink:title=" ">
<polygon fill="white" stroke="#bfbfbf" points="537.5,-0.5 537.5,-19.5 581.5,-19.5 581.5,-0.5 537.5,-0.5"/>
<text text-anchor="middle" x="559.5" y="-7.5" font-family="Helvetica,sans-Serif" font-size="10.00">string</text>
</a>
</g>
</g>
<!-- Node1&#45;&gt;Node4 -->
<g id="edge43" class="edge">
<title>Node1&#45;&gt;Node4</title>
<path fill="none" stroke="midnightblue" d="M552.64,-458.45C589.22,-437.95 648.5,-396.15 648.5,-340.5 648.5,-340.5 648.5,-340.5 648.5,-271.5 648.5,-174.24 658.08,-140.82 610.5,-56 603.73,-43.93 592.47,-33.48 582.25,-25.7"/>
<polygon fill="midnightblue" stroke="midnightblue" points="584.2,-22.79 574.03,-19.81 580.12,-28.48 584.2,-22.79"/>
</g>
<!-- Node6 -->
<g id="node6" class="node">
<title>Node6</title>
<g id="a_node6"><a xlink:href="idepth__calibration_8h.html" target="_top" xlink:title="Calibration interface the DepthPipeline worker loop depends on.">
<polygon fill="white" stroke="black" points="406.5,-391.5 406.5,-421.5 522.5,-421.5 522.5,-391.5 406.5,-391.5"/>
<text text-anchor="start" x="414.5" y="-409.5" font-family="Helvetica,sans-Serif" font-size="10.00">depz/core/pipeline</text>
<text text-anchor="middle" x="464.5" y="-398.5" font-family="Helvetica,sans-Serif" font-size="10.00">/idepth_calibration.h</text>
</a>
</g>
</g>
<!-- Node1&#45;&gt;Node6 -->
<g id="edge5" class="edge">
<title>Node1&#45;&gt;Node6</title>
<path fill="none" stroke="midnightblue" d="M511.48,-458.4C503.54,-449.79 493.23,-438.63 484.3,-428.94"/>
<polygon fill="midnightblue" stroke="midnightblue" points="486.85,-426.55 477.49,-421.58 481.7,-431.3 486.85,-426.55"/>
</g>
<!-- Node19 -->
<g id="node17" class="node">
<title>Node19</title>
<g id="a_node17"><a xlink:title=" ">
<polygon fill="white" stroke="#bfbfbf" points="517,-196 517,-215 620,-215 620,-196 517,-196"/>
<text text-anchor="middle" x="568.5" y="-203" font-family="Helvetica,sans-Serif" font-size="10.00">opencv2/core.hpp</text>
</a>
</g>
</g>
<!-- Node1&#45;&gt;Node19 -->
<g id="edge41" class="edge">
<title>Node1&#45;&gt;Node19</title>
<path fill="none" stroke="midnightblue" d="M526.87,-458.2C534.28,-413.35 557.09,-275.45 565.42,-225.13"/>
<polygon fill="midnightblue" stroke="midnightblue" points="568.91,-225.49 567.09,-215.05 562,-224.34 568.91,-225.49"/>
</g>
<!-- Node20 -->
<g id="node18" class="node">
<title>Node20</title>
<g id="a_node18"><a xlink:title=" ">
<polygon fill="white" stroke="#bfbfbf" points="128.5,-196 128.5,-215 186.5,-215 186.5,-196 128.5,-196"/>
<text text-anchor="middle" x="157.5" y="-203" font-family="Helvetica,sans-Serif" font-size="10.00">memory</text>
</a>
</g>
</g>
<!-- Node1&#45;&gt;Node20 -->
<g id="edge42" class="edge">
<title>Node1&#45;&gt;Node20</title>
<path fill="none" stroke="midnightblue" d="M479.41,-458.45C454.39,-449.71 423.22,-437.24 397.5,-422 299.85,-364.16 206.39,-262.83 171.69,-223.13"/>
<polygon fill="midnightblue" stroke="midnightblue" points="174.04,-220.49 164.85,-215.22 168.75,-225.07 174.04,-220.49"/>
</g>
<!-- Node22 -->
<g id="node20" class="node">
<title>Node22</title>
<g id="a_node20"><a xlink:href="stereocalibration_8h.html" target="_top" xlink:title="Stereo camera calibration: load, validate, rectify.">
<polygon fill="white" stroke="black" points="693.5,-196 693.5,-215 861.5,-215 861.5,-196 693.5,-196"/>
<text text-anchor="middle" x="777.5" y="-203" font-family="Helvetica,sans-Serif" font-size="10.00">depz/stereo/stereocalibration.h</text>
</a>
</g>
</g>
<!-- Node1&#45;&gt;Node22 -->
<g id="edge34" class="edge">
<title>Node1&#45;&gt;Node22</title>
<path fill="none" stroke="midnightblue" d="M592.21,-458.42C616.46,-450.78 642.67,-439.24 662.5,-422 726.4,-366.44 760.59,-266.43 772.53,-225.13"/>
<polygon fill="midnightblue" stroke="midnightblue" points="775.95,-225.9 775.26,-215.33 769.21,-224.02 775.95,-225.9"/>
</g>
<!-- Node3 -->
<g id="node3" class="node">
<title>Node3</title>
<g id="a_node3"><a xlink:title=" ">
<polygon fill="white" stroke="#bfbfbf" points="38.5,-62 38.5,-81 80.5,-81 80.5,-62 38.5,-62"/>
<text text-anchor="middle" x="59.5" y="-69" font-family="Helvetica,sans-Serif" font-size="10.00">array</text>
</a>
</g>
</g>
<!-- Node2&#45;&gt;Node3 -->
<g id="edge2" class="edge">
<title>Node2&#45;&gt;Node3</title>
<path fill="none" stroke="midnightblue" d="M59.5,-123.4C59.5,-114.06 59.5,-101.71 59.5,-91.52"/>
<polygon fill="midnightblue" stroke="midnightblue" points="63,-91.19 59.5,-81.19 56,-91.19 63,-91.19"/>
</g>
<!-- Node2&#45;&gt;Node4 -->
<g id="edge3" class="edge">
<title>Node2&#45;&gt;Node4</title>
<path fill="none" stroke="midnightblue" d="M67.67,-123.38C79.51,-104.4 103.33,-71.3 133.5,-56 202.42,-21.04 440.21,-13.19 527.25,-11.47"/>
<polygon fill="midnightblue" stroke="midnightblue" points="527.4,-14.96 537.33,-11.28 527.27,-7.97 527.4,-14.96"/>
</g>
<!-- Node5 -->
<g id="node5" class="node">
<title>Node5</title>
<g id="a_node5"><a xlink:title=" ">
<polygon fill="white" stroke="#bfbfbf" points="357,-62 357,-81 404,-81 404,-62 357,-62"/>
<text text-anchor="middle" x="380.5" y="-69" font-family="Helvetica,sans-Serif" font-size="10.00">vector</text>
</a>
</g>
</g>
<!-- Node2&#45;&gt;Node5 -->
<g id="edge4" class="edge">
<title>Node2&#45;&gt;Node5</title>
<path fill="none" stroke="midnightblue" d="M119.11,-125.5C169.77,-115.29 244.41,-100.22 309.5,-87 321.71,-84.52 335.09,-81.79 346.91,-79.37"/>
<polygon fill="midnightblue" stroke="midnightblue" points="347.74,-82.78 356.84,-77.35 346.34,-75.92 347.74,-82.78"/>
</g>
<!-- Node7 -->
<g id="node7" class="node">
<title>Node7</title>
<g id="a_node7"><a xlink:href="ineural__inference_8h.html" target="_top" xlink:title="Architecture&#45;agnostic orchestration interface for neural depth networks.">
<polygon fill="white" stroke="black" points="308,-257.5 308,-287.5 421,-287.5 421,-257.5 308,-257.5"/>
<text text-anchor="start" x="316" y="-275.5" font-family="Helvetica,sans-Serif" font-size="10.00">depz/core/inference</text>
<text text-anchor="middle" x="364.5" y="-264.5" font-family="Helvetica,sans-Serif" font-size="10.00">/ineural_inference.h</text>
</a>
</g>
</g>
<!-- Node6&#45;&gt;Node7 -->
<g id="edge6" class="edge">
<title>Node6&#45;&gt;Node7</title>
<path fill="none" stroke="midnightblue" d="M429.6,-391.37C413.29,-383.08 394.98,-371.04 383.5,-355 371.57,-338.33 367.02,-315.28 365.34,-297.94"/>
<polygon fill="midnightblue" stroke="midnightblue" points="368.79,-297.23 364.6,-287.5 361.81,-297.72 368.79,-297.23"/>
</g>
<!-- Node6&#45;&gt;Node19 -->
<g id="edge33" class="edge">
<title>Node6&#45;&gt;Node19</title>
<path fill="none" stroke="midnightblue" d="M480.56,-391.3C490.52,-381.81 503,-368.61 511.5,-355 538.35,-311.98 556.01,-254.27 563.85,-225.08"/>
<polygon fill="midnightblue" stroke="midnightblue" points="567.32,-225.62 566.45,-215.07 560.55,-223.86 567.32,-225.62"/>
</g>
<!-- Node21 -->
<g id="node19" class="node">
<title>Node21</title>
<g id="a_node19"><a xlink:href="frame__processor_8h.html" target="_top" xlink:title="Single&#45;call per&#45;frame postprocess chain (disparity→depth→cloud).">
<polygon fill="white" stroke="black" points="392.5,-324.5 392.5,-354.5 502.5,-354.5 502.5,-324.5 392.5,-324.5"/>
<text text-anchor="start" x="400.5" y="-342.5" font-family="Helvetica,sans-Serif" font-size="10.00">depz/core/pipeline</text>
<text text-anchor="middle" x="447.5" y="-331.5" font-family="Helvetica,sans-Serif" font-size="10.00">/frame_processor.h</text>
</a>
</g>
</g>
<!-- Node6&#45;&gt;Node21 -->
<g id="edge29" class="edge">
<title>Node6&#45;&gt;Node21</title>
<path fill="none" stroke="midnightblue" d="M460.81,-391.4C458.74,-383.47 456.1,-373.38 453.72,-364.27"/>
<polygon fill="midnightblue" stroke="midnightblue" points="457.1,-363.37 451.18,-354.58 450.33,-365.14 457.1,-363.37"/>
</g>
<!-- Node7&#45;&gt;Node4 -->
<g id="edge26" class="edge">
<title>Node7&#45;&gt;Node4</title>
<path fill="none" stroke="midnightblue" d="M337.68,-257.34C319.2,-247.45 294.16,-233.77 272.5,-221 217.23,-188.41 143.59,-182.93 166.5,-123 180.77,-85.66 191.18,-74.72 226.5,-56 278.33,-28.53 454.23,-16.45 527.29,-12.53"/>
<polygon fill="midnightblue" stroke="midnightblue" points="527.49,-16.02 537.29,-12.01 527.12,-9.03 527.49,-16.02"/>
</g>
<!-- Node7&#45;&gt;Node5 -->
<g id="edge28" class="edge">
<title>Node7&#45;&gt;Node5</title>
<path fill="none" stroke="midnightblue" d="M351.14,-257.32C343.16,-247.84 333.77,-234.64 329.5,-221 325.39,-207.85 326.7,-203.49 329.5,-190 331.63,-179.73 358.34,-120.73 372.23,-90.44"/>
<polygon fill="midnightblue" stroke="midnightblue" points="375.55,-91.6 376.55,-81.05 369.19,-88.68 375.55,-91.6"/>
</g>
<!-- Node8 -->
<g id="node8" class="node">
<title>Node8</title>
<g id="a_node8"><a xlink:href="icontrol__owner_8h.html" target="_top" xlink:title=" ">
<polygon fill="white" stroke="black" points="338.5,-190.5 338.5,-220.5 460.5,-220.5 460.5,-190.5 338.5,-190.5"/>
<text text-anchor="start" x="346.5" y="-208.5" font-family="Helvetica,sans-Serif" font-size="10.00">depz/controls/icontrol</text>
<text text-anchor="middle" x="399.5" y="-197.5" font-family="Helvetica,sans-Serif" font-size="10.00">_owner.h</text>
</a>
</g>
</g>
<!-- Node7&#45;&gt;Node8 -->
<g id="edge7" class="edge">
<title>Node7&#45;&gt;Node8</title>
<path fill="none" stroke="midnightblue" d="M372.09,-257.4C376.5,-249.22 382.15,-238.73 387.17,-229.39"/>
<polygon fill="midnightblue" stroke="midnightblue" points="390.26,-231.04 391.92,-220.58 384.1,-227.72 390.26,-231.04"/>
</g>
<!-- Node16 -->
<g id="node14" class="node">
<title>Node16</title>
<g id="a_node14"><a xlink:title=" ">
<polygon fill="white" stroke="#bfbfbf" points="556,-62 556,-81 601,-81 601,-62 556,-62"/>
<text text-anchor="middle" x="578.5" y="-69" font-family="Helvetica,sans-Serif" font-size="10.00">utility</text>
</a>
</g>
</g>
<!-- Node7&#45;&gt;Node16 -->
<g id="edge27" class="edge">
<title>Node7&#45;&gt;Node16</title>
<path fill="none" stroke="midnightblue" d="M398.62,-257.42C419.67,-248.17 446.88,-235.18 469.5,-221 488.26,-209.24 490.13,-202.36 508.5,-190 535.58,-171.79 555,-181.55 572.5,-154 584.48,-135.15 583.99,-108.66 581.84,-91.06"/>
<polygon fill="midnightblue" stroke="midnightblue" points="585.3,-90.53 580.35,-81.17 578.38,-91.58 585.3,-90.53"/>
</g>
<!-- Node17 -->
<g id="node15" class="node">
<title>Node17</title>
<g id="a_node15"><a xlink:href="iinference__engine_8h.html" target="_top" xlink:title="Backend&#45;agnostic ML inference engine interface (Adapter pattern).">
<polygon fill="white" stroke="black" points="176,-123.5 176,-153.5 333,-153.5 333,-123.5 176,-123.5"/>
<text text-anchor="start" x="184" y="-141.5" font-family="Helvetica,sans-Serif" font-size="10.00">depz/core/engines/iinference</text>
<text text-anchor="middle" x="254.5" y="-130.5" font-family="Helvetica,sans-Serif" font-size="10.00">_engine.h</text>
</a>
</g>
</g>
<!-- Node7&#45;&gt;Node17 -->
<g id="edge19" class="edge">
<title>Node7&#45;&gt;Node17</title>
<path fill="none" stroke="midnightblue" d="M340.29,-257.43C326.21,-248.37 308.87,-235.57 296.5,-221 281.77,-203.65 270.4,-180.27 263.22,-163"/>
<polygon fill="midnightblue" stroke="midnightblue" points="266.44,-161.62 259.49,-153.63 259.94,-164.21 266.44,-161.62"/>
</g>
<!-- Node7&#45;&gt;Node19 -->
<g id="edge24" class="edge">
<title>Node7&#45;&gt;Node19</title>
<path fill="none" stroke="midnightblue" d="M408.51,-257.48C445.4,-245.72 497.43,-229.14 532.03,-218.12"/>
<polygon fill="midnightblue" stroke="midnightblue" points="533.27,-221.4 541.73,-215.03 531.14,-214.73 533.27,-221.4"/>
</g>
<!-- Node7&#45;&gt;Node20 -->
<g id="edge25" class="edge">
<title>Node7&#45;&gt;Node20</title>
<path fill="none" stroke="midnightblue" d="M317.74,-257.46C284.87,-247.51 239.91,-233.71 200.5,-221 197.76,-220.12 194.92,-219.19 192.08,-218.25"/>
<polygon fill="midnightblue" stroke="midnightblue" points="193.07,-214.89 182.47,-215.05 190.85,-221.53 193.07,-214.89"/>
</g>
<!-- Node8&#45;&gt;Node5 -->
<g id="edge18" class="edge">
<title>Node8&#45;&gt;Node5</title>
<path fill="none" stroke="midnightblue" d="M397.47,-190.37C394.02,-166.4 387.01,-117.75 383.17,-91.06"/>
<polygon fill="midnightblue" stroke="midnightblue" points="386.63,-90.5 381.74,-81.1 379.7,-91.49 386.63,-90.5"/>
</g>
<!-- Node9 -->
<g id="node9" class="node">
<title>Node9</title>
<g id="a_node9"><a xlink:href="param__spec_8h.html" target="_top" xlink:title=" ">
<polygon fill="white" stroke="black" points="428,-129 428,-148 563,-148 563,-129 428,-129"/>
<text text-anchor="middle" x="495.5" y="-136" font-family="Helvetica,sans-Serif" font-size="10.00">depz/core/param_spec.h</text>
</a>
</g>
</g>
<!-- Node8&#45;&gt;Node9 -->
<g id="edge8" class="edge">
<title>Node8&#45;&gt;Node9</title>
<path fill="none" stroke="midnightblue" d="M420.33,-190.4C436.28,-179.6 458.2,-164.76 474.25,-153.89"/>
<polygon fill="midnightblue" stroke="midnightblue" points="476.62,-156.51 482.94,-148.01 472.69,-150.72 476.62,-156.51"/>
</g>
<!-- Node9&#45;&gt;Node4 -->
<g id="edge15" class="edge">
<title>Node9&#45;&gt;Node4</title>
<path fill="none" stroke="midnightblue" d="M495.81,-128.84C496.69,-113.3 500.13,-80.07 513.5,-56 519.89,-44.48 530.16,-34.03 539.37,-26.1"/>
<polygon fill="midnightblue" stroke="midnightblue" points="541.84,-28.6 547.39,-19.58 537.42,-23.17 541.84,-28.6"/>
</g>
<!-- Node9&#45;&gt;Node5 -->
<g id="edge17" class="edge">
<title>Node9&#45;&gt;Node5</title>
<path fill="none" stroke="midnightblue" d="M479.99,-128.73C460.59,-117.77 427.17,-98.88 404.47,-86.05"/>
<polygon fill="midnightblue" stroke="midnightblue" points="406.19,-83 395.76,-81.13 402.75,-89.09 406.19,-83"/>
</g>
<!-- Node10 -->
<g id="node10" class="node">
<title>Node10</title>
<g id="a_node10"><a xlink:href="iparameter__store_8h.html" target="_top" xlink:title="Type&#45;erased key/value parameter store interface.">
<polygon fill="white" stroke="red" points="734,-56.5 734,-86.5 855,-86.5 855,-56.5 734,-56.5"/>
<text text-anchor="start" x="742" y="-74.5" font-family="Helvetica,sans-Serif" font-size="10.00">depz/core/iparameter</text>
<text text-anchor="middle" x="794.5" y="-63.5" font-family="Helvetica,sans-Serif" font-size="10.00">_store.h</text>
</a>
</g>
</g>
<!-- Node9&#45;&gt;Node10 -->
<g id="edge9" class="edge">
<title>Node9&#45;&gt;Node10</title>
<path fill="none" stroke="midnightblue" d="M534.9,-128.94C582.87,-118.51 664.77,-100.7 723.77,-87.88"/>
<polygon fill="midnightblue" stroke="midnightblue" points="724.74,-91.25 733.77,-85.7 723.25,-84.41 724.74,-91.25"/>
</g>
<!-- Node13 -->
<g id="node13" class="node">
<title>Node13</title>
<g id="a_node13"><a xlink:title=" ">
<polygon fill="white" stroke="#bfbfbf" points="751.5,-0.5 751.5,-19.5 807.5,-19.5 807.5,-0.5 751.5,-0.5"/>
<text text-anchor="middle" x="779.5" y="-7.5" font-family="Helvetica,sans-Serif" font-size="10.00">optional</text>
</a>
</g>
</g>
<!-- Node9&#45;&gt;Node13 -->
<g id="edge14" class="edge">
<title>Node9&#45;&gt;Node13</title>
<path fill="none" stroke="midnightblue" d="M498.34,-128.95C504.42,-112.04 520.41,-74.37 547.5,-56 617.9,-8.24 652.05,-36.52 735.5,-20 737.39,-19.63 739.33,-19.24 741.29,-18.85"/>
<polygon fill="midnightblue" stroke="midnightblue" points="742,-22.27 751.11,-16.86 740.61,-15.41 742,-22.27"/>
</g>
<!-- Node9&#45;&gt;Node16 -->
<g id="edge16" class="edge">
<title>Node9&#45;&gt;Node16</title>
<path fill="none" stroke="midnightblue" d="M506.69,-128.73C520.13,-118.21 542.9,-100.38 559.2,-87.62"/>
<polygon fill="midnightblue" stroke="midnightblue" points="561.77,-90.05 567.48,-81.13 557.45,-84.54 561.77,-90.05"/>
</g>
<!-- Node10&#45;&gt;Node4 -->
<g id="edge13" class="edge">
<title>Node10&#45;&gt;Node4</title>
<path fill="none" stroke="midnightblue" d="M739.11,-56.47C693.21,-44.86 629.58,-28.74 591.67,-19.15"/>
<polygon fill="midnightblue" stroke="midnightblue" points="592.25,-15.68 581.7,-16.62 590.53,-22.47 592.25,-15.68"/>
</g>
<!-- Node11 -->
<g id="node11" class="node">
<title>Node11</title>
<g id="a_node11"><a xlink:title=" ">
<polygon fill="white" stroke="#bfbfbf" points="825.5,-0.5 825.5,-19.5 941.5,-19.5 941.5,-0.5 825.5,-0.5"/>
<text text-anchor="middle" x="883.5" y="-7.5" font-family="Helvetica,sans-Serif" font-size="10.00">opencv2/opencv.hpp</text>
</a>
</g>
</g>
<!-- Node10&#45;&gt;Node11 -->
<g id="edge10" class="edge">
<title>Node10&#45;&gt;Node11</title>
<path fill="none" stroke="midnightblue" d="M815.59,-56.4C829.59,-47.04 847.91,-34.79 861.99,-25.38"/>
<polygon fill="midnightblue" stroke="midnightblue" points="864.18,-28.13 870.55,-19.66 860.29,-22.31 864.18,-28.13"/>
</g>
<!-- Node12 -->
<g id="node12" class="node">
<title>Node12</title>
<g id="a_node12"><a xlink:title=" ">
<polygon fill="white" stroke="#bfbfbf" points="676.5,-0.5 676.5,-19.5 726.5,-19.5 726.5,-0.5 676.5,-0.5"/>
<text text-anchor="middle" x="701.5" y="-7.5" font-family="Helvetica,sans-Serif" font-size="10.00">cstdint</text>
</a>
</g>
</g>
<!-- Node10&#45;&gt;Node12 -->
<g id="edge11" class="edge">
<title>Node10&#45;&gt;Node12</title>
<path fill="none" stroke="midnightblue" d="M772.46,-56.4C757.69,-46.95 738.32,-34.56 723.55,-25.11"/>
<polygon fill="midnightblue" stroke="midnightblue" points="725.34,-22.1 715.03,-19.66 721.57,-28 725.34,-22.1"/>
</g>
<!-- Node10&#45;&gt;Node13 -->
<g id="edge12" class="edge">
<title>Node10&#45;&gt;Node13</title>
<path fill="none" stroke="midnightblue" d="M790.95,-56.4C788.92,-48.38 786.37,-38.23 784.18,-29.57"/>
<polygon fill="midnightblue" stroke="midnightblue" points="787.52,-28.5 781.68,-19.66 780.73,-30.21 787.52,-28.5"/>
</g>
<!-- Node17&#45;&gt;Node4 -->
<g id="edge22" class="edge">
<title>Node17&#45;&gt;Node4</title>
<path fill="none" stroke="midnightblue" d="M270.12,-123.2C294.45,-101.03 339.56,-60.45 348.5,-56 407.22,-26.74 484.36,-16.46 527.23,-12.88"/>
<polygon fill="midnightblue" stroke="midnightblue" points="527.65,-16.35 537.36,-12.1 527.12,-9.37 527.65,-16.35"/>
</g>
<!-- Node17&#45;&gt;Node5 -->
<g id="edge23" class="edge">
<title>Node17&#45;&gt;Node5</title>
<path fill="none" stroke="midnightblue" d="M281.84,-123.4C303.56,-112.19 333.7,-96.64 354.94,-85.69"/>
<polygon fill="midnightblue" stroke="midnightblue" points="356.73,-88.7 364.01,-81.01 353.52,-82.48 356.73,-88.7"/>
</g>
<!-- Node17&#45;&gt;Node12 -->
<g id="edge21" class="edge">
<title>Node17&#45;&gt;Node12</title>
<path fill="none" stroke="midnightblue" d="M245.44,-123.49C235.09,-105.55 221.64,-74.58 238.5,-56 242.1,-52.03 558.53,-23.66 666.14,-14.12"/>
<polygon fill="midnightblue" stroke="midnightblue" points="666.52,-17.6 676.17,-13.23 665.9,-10.63 666.52,-17.6"/>
</g>
<!-- Node18 -->
<g id="node16" class="node">
<title>Node18</title>
<g id="a_node16"><a xlink:title=" ">
<polygon fill="white" stroke="#bfbfbf" points="247,-62 247,-81 300,-81 300,-62 247,-62"/>
<text text-anchor="middle" x="273.5" y="-69" font-family="Helvetica,sans-Serif" font-size="10.00">cstddef</text>
</a>
</g>
</g>
<!-- Node17&#45;&gt;Node18 -->
<g id="edge20" class="edge">
<title>Node17&#45;&gt;Node18</title>
<path fill="none" stroke="midnightblue" d="M258.62,-123.4C261.41,-113.86 265.12,-101.18 268.13,-90.86"/>
<polygon fill="midnightblue" stroke="midnightblue" points="271.51,-91.77 270.96,-81.19 264.79,-89.81 271.51,-91.77"/>
</g>
<!-- Node21&#45;&gt;Node7 -->
<g id="edge30" class="edge">
<title>Node21&#45;&gt;Node7</title>
<path fill="none" stroke="midnightblue" d="M429.49,-324.4C418.07,-315.45 403.11,-303.74 390.42,-293.8"/>
<polygon fill="midnightblue" stroke="midnightblue" points="392.51,-290.99 382.47,-287.58 388.19,-296.5 392.51,-290.99"/>
</g>
<!-- Node21&#45;&gt;Node19 -->
<g id="edge31" class="edge">
<title>Node21&#45;&gt;Node19</title>
<path fill="none" stroke="midnightblue" d="M458.82,-324.3C472.17,-307.75 495.24,-279.76 516.5,-257 527.75,-244.95 541.1,-232.01 551.46,-222.25"/>
<polygon fill="midnightblue" stroke="midnightblue" points="554.11,-224.56 559.03,-215.18 549.33,-219.45 554.11,-224.56"/>
</g>
<!-- Node21&#45;&gt;Node20 -->
<g id="edge32" class="edge">
<title>Node21&#45;&gt;Node20</title>
<path fill="none" stroke="midnightblue" d="M398.6,-324.42C369.32,-315.35 331.65,-302.55 299.5,-288 255.02,-267.87 206.31,-238.07 179.06,-220.63"/>
<polygon fill="midnightblue" stroke="midnightblue" points="180.66,-217.5 170.36,-215.02 176.87,-223.38 180.66,-217.5"/>
</g>
<!-- Node22&#45;&gt;Node4 -->
<g id="edge40" class="edge">
<title>Node22&#45;&gt;Node4</title>
<path fill="none" stroke="midnightblue" d="M766.01,-195.84C753.64,-186.27 733.7,-170.06 718.5,-154 680.79,-114.17 685.28,-91.53 643.5,-56 627.8,-42.65 607.49,-31.64 590.78,-23.85"/>
<polygon fill="midnightblue" stroke="midnightblue" points="591.97,-20.55 581.41,-19.64 589.1,-26.93 591.97,-20.55"/>
</g>
<!-- Node22&#45;&gt;Node13 -->
<g id="edge39" class="edge">
<title>Node22&#45;&gt;Node13</title>
<path fill="none" stroke="midnightblue" d="M800.61,-195.89C818.65,-187.89 842.72,-174.17 855.5,-154 871.58,-128.62 862.5,-116.98 864.5,-87 865.42,-73.25 871.61,-67.8 864.5,-56 854.18,-38.86 834.9,-27.91 817.31,-21.1"/>
<polygon fill="midnightblue" stroke="midnightblue" points="818.37,-17.77 807.78,-17.74 816.04,-24.37 818.37,-17.77"/>
</g>
<!-- Node23 -->
<g id="node21" class="node">
<title>Node23</title>
<g id="a_node21"><a xlink:href="istereo__calibration__model_8h.html" target="_top" xlink:title=" ">
<polygon fill="white" stroke="black" points="727,-123.5 727,-153.5 846,-153.5 846,-123.5 727,-123.5"/>
<text text-anchor="start" x="735" y="-141.5" font-family="Helvetica,sans-Serif" font-size="10.00">depz/stereo/istereo</text>
<text text-anchor="middle" x="786.5" y="-130.5" font-family="Helvetica,sans-Serif" font-size="10.00">_calibration_model.h</text>
</a>
</g>
</g>
<!-- Node22&#45;&gt;Node23 -->
<g id="edge35" class="edge">
<title>Node22&#45;&gt;Node23</title>
<path fill="none" stroke="midnightblue" d="M778.71,-195.73C779.85,-187.54 781.6,-174.92 783.15,-163.71"/>
<polygon fill="midnightblue" stroke="midnightblue" points="786.64,-163.97 784.55,-153.59 779.71,-163.01 786.64,-163.97"/>
</g>
<!-- Node23&#45;&gt;Node4 -->
<g id="edge38" class="edge">
<title>Node23&#45;&gt;Node4</title>
<path fill="none" stroke="midnightblue" d="M769.45,-123.22C744.69,-102.68 699.76,-66.14 681.5,-56 652.53,-39.92 616.67,-27.49 591.35,-19.8"/>
<polygon fill="midnightblue" stroke="midnightblue" points="592.11,-16.38 581.53,-16.9 590.13,-23.09 592.11,-16.38"/>
</g>
<!-- Node23&#45;&gt;Node10 -->
<g id="edge36" class="edge">
<title>Node23&#45;&gt;Node10</title>
<path fill="none" stroke="midnightblue" d="M788.24,-123.4C789.2,-115.56 790.43,-105.6 791.54,-96.57"/>
<polygon fill="midnightblue" stroke="midnightblue" points="795.02,-96.93 792.77,-86.58 788.07,-96.07 795.02,-96.93"/>
</g>
<!-- Node23&#45;&gt;Node11 -->
<g id="edge37" class="edge">
<title>Node23&#45;&gt;Node11</title>
<path fill="none" stroke="midnightblue" d="M819.23,-123.43C835.1,-115.03 853.15,-102.88 864.5,-87 876.58,-70.1 881.01,-46.31 882.62,-29.87"/>
<polygon fill="midnightblue" stroke="midnightblue" points="886.11,-30.06 883.34,-19.84 879.13,-29.56 886.11,-30.06"/>
</g>
</g>
</svg>
        <g id="navigator" transform="translate(0 0)" fill="#404254">
                <rect fill="#f2f5e9" fill-opacity="0.5" stroke="#606060" stroke-width=".5" x="0" y="0" width="60" height="60"/>
                <use id="zoomplus" xlink:href="#zoomPlus" x="17" y="9" onmousedown="handleZoom(evt,'in')"/>
                <use id="zoomminus" xlink:href="#zoomMin" x="42" y="9" onmousedown="handleZoom(evt,'out')"/>
                <use id="reset" xlink:href="#resetDef" x="30" y="36" onmousedown="handleReset()"/>
                <g id="arrowUp" xlink:href="#dirArrow" transform="translate(30 24)" onmousedown="handlePan(0,-1)">
                  <use xlink:href="#rim" fill="#404040">
                        <set attributeName="fill" to="#808080" begin="arrowUp.mouseover" end="arrowUp.mouseout"/>
                  </use>
                  <path fill="none" stroke="white" stroke-width="1.5" d="M0,-3.0v7 M-2.5,-0.5L0,-3.0L2.5,-0.5"/>
                </g>
                <g id="arrowRight" xlink:href="#dirArrow" transform="rotate(90) translate(36 -43)" onmousedown="handlePan(1,0)">
                  <use xlink:href="#rim" fill="#404040">
                        <set attributeName="fill" to="#808080" begin="arrowRight.mouseover" end="arrowRight.mouseout"/>
                  </use>
                  <path fill="none" stroke="white" stroke-width="1.5" d="M0,-3.0v7 M-2.5,-0.5L0,-3.0L2.5,-0.5"/>
                </g>
                <g id="arrowDown" xlink:href="#dirArrow" transform="rotate(180) translate(-30 -48)" onmousedown="handlePan(0,1)">
                  <use xlink:href="#rim" fill="#404040">
                        <set attributeName="fill" to="#808080" begin="arrowDown.mouseover" end="arrowDown.mouseout"/>
                  </use>
                  <path fill="none" stroke="white" stroke-width="1.5" d="M0,-3.0v7 M-2.5,-0.5L0,-3.0L2.5,-0.5"/>
                </g>
                <g id="arrowLeft" xlink:href="#dirArrow" transform="rotate(270) translate(-36 17)" onmousedown="handlePan(-1,0)">
                  <use xlink:href="#rim" fill="#404040">
                        <set attributeName="fill" to="#808080" begin="arrowLeft.mouseover" end="arrowLeft.mouseout"/>
                  </use>
                  <path fill="none" stroke="white" stroke-width="1.5" d="M0,-3.0v7 M-2.5,-0.5L0,-3.0L2.5,-0.5"/>
                </g>
        </g>
        <svg viewBox="0 0 15 15" width="100%" height="30px" preserveAspectRatio="xMaxYMin meet">
         <g id="arrow_out" transform="scale(0.3 0.3)">
          <a xlink:href="opencv__depth__calibration_8h__incl_org.svg" target="_base">
           <rect id="button" ry="5" rx="5" y="6" x="6" height="38" width="38"
                fill="#f2f5e9" fill-opacity="0.5" stroke="#606060" stroke-width="1.0"/>
           <path id="arrow"
             d="M 11.500037,31.436501 C 11.940474,20.09759 22.043105,11.32322 32.158766,21.979434 L 37.068811,17.246167 C 37.068811,17.246167 37.088388,32 37.088388,32 L 22.160133,31.978069 C 22.160133,31.978069 26.997745,27.140456 26.997745,27.140456 C 18.528582,18.264221 13.291696,25.230495 11.500037,31.436501 z"
             style="fill:#404040;"/>
          </a>
         </g>
        </svg>
</svg>
