<?xml version="1.0" encoding="UTF-8" standalone="no"?>
<!DOCTYPE svg PUBLIC "-//W3C//DTD SVG 1.1//EN"
 "http://www.w3.org/Graphics/SVG/1.1/DTD/svg11.dtd">
<!-- Generated by graphviz version 2.43.0 (0)
 -->
<!-- Title: include/depz/core/engines/openvino_engine_adapter.h Pages: 1 -->
<svg width="890pt" height="162pt"
 viewBox="0.00 0.00 889.50 162.00" xmlns="http://www.w3.org/2000/svg" xmlns:xlink="http://www.w3.org/1999/xlink">
<g id="graph0" class="graph" transform="scale(1 1) rotate(0) translate(4 158)">
<title>include/depz/core/engines/openvino_engine_adapter.h</title>
<polygon fill="white" stroke="transparent" points="-4,4 -4,-158 885.5,-158 885.5,4 -4,4"/>
<!-- Node1 -->
<g id="node1" class="node">
<title>Node1</title>
<g id="a_node1"><a xlink:title="Intel OpenVINO backend implementing InferenceEngine.">
<polygon fill="#bfbfbf" stroke="black" points="413.5,-123.5 413.5,-153.5 567.5,-153.5 567.5,-123.5 413.5,-123.5"/>
<text text-anchor="start" x="421.5" y="-141.5" font-family="Helvetica,sans-Serif" font-size="10.00">include/depz/core/engines</text>
<text text-anchor="middle" x="490.5" y="-130.5" font-family="Helvetica,sans-Serif" font-size="10.00">/openvino_engine_adapter.h</text>
</a>
</g>
</g>
<!-- Node2 -->
<g id="node2" class="node">
<title>Node2</title>
<g id="a_node2"><a xlink:href="iinference__engine_8h.html" target="_top" xlink:title="Backend&#45;agnostic ML inference engine interface (Adapter pattern).">
<polygon fill="white" stroke="black" points="16,-56.5 16,-86.5 173,-86.5 173,-56.5 16,-56.5"/>
<text text-anchor="start" x="24" y="-74.5" font-family="Helvetica,sans-Serif" font-size="10.00">depz/core/engines/iinference</text>
<text text-anchor="middle" x="94.5" y="-63.5" font-family="Helvetica,sans-Serif" font-size="10.00">_engine.h</text>
</a>
</g>
</g>
<!-- Node1&#45;&gt;Node2 -->
<g id="edge1" class="edge">
<title>Node1&#45;&gt;Node2</title>
<path fill="none" stroke="midnightblue" d="M413.21,-124.81C347.24,-113.98 252.36,-98.41 183.29,-87.07"/>
<polygon fill="midnightblue" stroke="midnightblue" points="183.73,-83.6 173.29,-85.43 182.59,-90.51 183.73,-83.6"/>
</g>
<!-- Node5 -->
<g id="node5" class="node">
<title>Node5</title>
<g id="a_node5"><a xlink:title=" ">
<polygon fill="white" stroke="#bfbfbf" points="147.5,-0.5 147.5,-19.5 191.5,-19.5 191.5,-0.5 147.5,-0.5"/>
<text text-anchor="middle" x="169.5" y="-7.5" font-family="Helvetica,sans-Serif" font-size="10.00">string</text>
</a>
</g>
</g>
<!-- Node1&#45;&gt;Node5 -->
<g id="edge13" class="edge">
<title>Node1&#45;&gt;Node5</title>
<path fill="none" stroke="midnightblue" d="M413.38,-134.56C361.11,-129.67 292.07,-117.37 238.5,-87 213.38,-72.76 192.42,-46.11 180.42,-28.46"/>
<polygon fill="midnightblue" stroke="midnightblue" points="183.1,-26.17 174.7,-19.71 177.24,-30 183.1,-26.17"/>
</g>
<!-- Node6 -->
<g id="node6" class="node">
<title>Node6</title>
<g id="a_node6"><a xlink:title=" ">
<polygon fill="white" stroke="#bfbfbf" points="214,-0.5 214,-19.5 261,-19.5 261,-0.5 214,-0.5"/>
<text text-anchor="middle" x="237.5" y="-7.5" font-family="Helvetica,sans-Serif" font-size="10.00">vector</text>
</a>
</g>
</g>
<!-- Node1&#45;&gt;Node6 -->
<g id="edge14" class="edge">
<title>Node1&#45;&gt;Node6</title>
<path fill="none" stroke="midnightblue" d="M413.4,-129.16C355.17,-121.34 281.65,-107.72 259.5,-87 243.78,-72.3 239.06,-47.12 237.77,-29.8"/>
<polygon fill="midnightblue" stroke="midnightblue" points="241.26,-29.58 237.33,-19.74 234.27,-29.89 241.26,-29.58"/>
</g>
<!-- Node7 -->
<g id="node7" class="node">
<title>Node7</title>
<g id="a_node7"><a xlink:title=" ">
<polygon fill="white" stroke="#bfbfbf" points="268,-62 268,-81 399,-81 399,-62 268,-62"/>
<text text-anchor="middle" x="333.5" y="-69" font-family="Helvetica,sans-Serif" font-size="10.00">openvino/openvino.hpp</text>
</a>
</g>
</g>
<!-- Node1&#45;&gt;Node7 -->
<g id="edge6" class="edge">
<title>Node1&#45;&gt;Node7</title>
<path fill="none" stroke="midnightblue" d="M456.43,-123.4C428.76,-111.94 390.11,-95.94 363.58,-84.95"/>
<polygon fill="midnightblue" stroke="midnightblue" points="364.63,-81.6 354.05,-81.01 361.95,-88.07 364.63,-81.6"/>
</g>
<!-- Node8 -->
<g id="node8" class="node">
<title>Node8</title>
<g id="a_node8"><a xlink:title=" ">
<polygon fill="white" stroke="#bfbfbf" points="417.5,-62 417.5,-81 467.5,-81 467.5,-62 417.5,-62"/>
<text text-anchor="middle" x="442.5" y="-69" font-family="Helvetica,sans-Serif" font-size="10.00">atomic</text>
</a>
</g>
</g>
<!-- Node1&#45;&gt;Node8 -->
<g id="edge7" class="edge">
<title>Node1&#45;&gt;Node8</title>
<path fill="none" stroke="midnightblue" d="M480.08,-123.4C472.67,-113.36 462.69,-99.84 454.87,-89.25"/>
<polygon fill="midnightblue" stroke="midnightblue" points="457.68,-87.16 448.92,-81.19 452.05,-91.32 457.68,-87.16"/>
</g>
<!-- Node9 -->
<g id="node9" class="node">
<title>Node9</title>
<g id="a_node9"><a xlink:title=" ">
<polygon fill="white" stroke="#bfbfbf" points="486,-62 486,-81 593,-81 593,-62 486,-62"/>
<text text-anchor="middle" x="539.5" y="-69" font-family="Helvetica,sans-Serif" font-size="10.00">condition_variable</text>
</a>
</g>
</g>
<!-- Node1&#45;&gt;Node9 -->
<g id="edge8" class="edge">
<title>Node1&#45;&gt;Node9</title>
<path fill="none" stroke="midnightblue" d="M501.13,-123.4C508.7,-113.36 518.89,-99.84 526.87,-89.25"/>
<polygon fill="midnightblue" stroke="midnightblue" points="529.72,-91.29 532.95,-81.19 524.13,-87.07 529.72,-91.29"/>
</g>
<!-- Node10 -->
<g id="node10" class="node">
<title>Node10</title>
<g id="a_node10"><a xlink:title=" ">
<polygon fill="white" stroke="#bfbfbf" points="611,-62 611,-81 658,-81 658,-62 611,-62"/>
<text text-anchor="middle" x="634.5" y="-69" font-family="Helvetica,sans-Serif" font-size="10.00">deque</text>
</a>
</g>
</g>
<!-- Node1&#45;&gt;Node10 -->
<g id="edge9" class="edge">
<title>Node1&#45;&gt;Node10</title>
<path fill="none" stroke="midnightblue" d="M521.89,-123.37C544.34,-113.25 575.29,-99.3 602.5,-87 603.69,-86.46 604.9,-85.91 606.13,-85.36"/>
<polygon fill="midnightblue" stroke="midnightblue" points="607.88,-88.41 615.55,-81.09 605,-82.03 607.88,-88.41"/>
</g>
<!-- Node11 -->
<g id="node11" class="node">
<title>Node11</title>
<g id="a_node11"><a xlink:title=" ">
<polygon fill="white" stroke="#bfbfbf" points="676,-62 676,-81 741,-81 741,-62 676,-62"/>
<text text-anchor="middle" x="708.5" y="-69" font-family="Helvetica,sans-Serif" font-size="10.00">functional</text>
</a>
</g>
</g>
<!-- Node1&#45;&gt;Node11 -->
<g id="edge10" class="edge">
<title>Node1&#45;&gt;Node11</title>
<path fill="none" stroke="midnightblue" d="M543.03,-123.43C578.38,-113.74 625.95,-100.26 667.5,-87 670.11,-86.17 672.8,-85.28 675.5,-84.37"/>
<polygon fill="midnightblue" stroke="midnightblue" points="676.86,-87.6 685.17,-81.03 674.57,-80.99 676.86,-87.6"/>
</g>
<!-- Node12 -->
<g id="node12" class="node">
<title>Node12</title>
<g id="a_node12"><a xlink:title=" ">
<polygon fill="white" stroke="#bfbfbf" points="759.5,-62 759.5,-81 807.5,-81 807.5,-62 759.5,-62"/>
<text text-anchor="middle" x="783.5" y="-69" font-family="Helvetica,sans-Serif" font-size="10.00">mutex</text>
</a>
</g>
</g>
<!-- Node1&#45;&gt;Node12 -->
<g id="edge11" class="edge">
<title>Node1&#45;&gt;Node12</title>
<path fill="none" stroke="midnightblue" d="M567.55,-127.14C619.88,-118.98 690.26,-105.83 750.5,-87 752.43,-86.4 754.39,-85.72 756.35,-84.99"/>
<polygon fill="midnightblue" stroke="midnightblue" points="758.03,-88.08 765.97,-81.07 755.38,-81.6 758.03,-88.08"/>
</g>
<!-- Node13 -->
<g id="node13" class="node">
<title>Node13</title>
<g id="a_node13"><a xlink:title=" ">
<polygon fill="white" stroke="#bfbfbf" points="825.5,-62 825.5,-81 881.5,-81 881.5,-62 825.5,-62"/>
<text text-anchor="middle" x="853.5" y="-69" font-family="Helvetica,sans-Serif" font-size="10.00">optional</text>
</a>
</g>
</g>
<!-- Node1&#45;&gt;Node13 -->
<g id="edge12" class="edge">
<title>Node1&#45;&gt;Node13</title>
<path fill="none" stroke="midnightblue" d="M567.57,-130.39C634.26,-123.1 732.87,-109.57 816.5,-87 819.1,-86.3 821.76,-85.48 824.41,-84.58"/>
<polygon fill="midnightblue" stroke="midnightblue" points="825.61,-87.87 833.8,-81.15 823.21,-81.3 825.61,-87.87"/>
</g>
<!-- Node3 -->
<g id="node3" class="node">
<title>Node3</title>
<g id="a_node3"><a xlink:title=" ">
<polygon fill="white" stroke="#bfbfbf" points="0,-0.5 0,-19.5 53,-19.5 53,-0.5 0,-0.5"/>
<text text-anchor="middle" x="26.5" y="-7.5" font-family="Helvetica,sans-Serif" font-size="10.00">cstddef</text>
</a>
</g>
</g>
<!-- Node2&#45;&gt;Node3 -->
<g id="edge2" class="edge">
<title>Node2&#45;&gt;Node3</title>
<path fill="none" stroke="midnightblue" d="M78.38,-56.4C68.1,-47.4 54.75,-35.72 44.17,-26.47"/>
<polygon fill="midnightblue" stroke="midnightblue" points="46.23,-23.61 36.39,-19.66 41.62,-28.88 46.23,-23.61"/>
</g>
<!-- Node4 -->
<g id="node4" class="node">
<title>Node4</title>
<g id="a_node4"><a xlink:title=" ">
<polygon fill="white" stroke="#bfbfbf" points="71.5,-0.5 71.5,-19.5 121.5,-19.5 121.5,-0.5 71.5,-0.5"/>
<text text-anchor="middle" x="96.5" y="-7.5" font-family="Helvetica,sans-Serif" font-size="10.00">cstdint</text>
</a>
</g>
</g>
<!-- Node2&#45;&gt;Node4 -->
<g id="edge3" class="edge">
<title>Node2&#45;&gt;Node4</title>
<path fill="none" stroke="midnightblue" d="M94.97,-56.4C95.24,-48.47 95.58,-38.46 95.87,-29.86"/>
<polygon fill="midnightblue" stroke="midnightblue" points="99.37,-29.77 96.21,-19.66 92.37,-29.53 99.37,-29.77"/>
</g>
<!-- Node2&#45;&gt;Node5 -->
<g id="edge4" class="edge">
<title>Node2&#45;&gt;Node5</title>
<path fill="none" stroke="midnightblue" d="M112.27,-56.4C123.85,-47.22 138.92,-35.26 150.7,-25.92"/>
<polygon fill="midnightblue" stroke="midnightblue" points="152.93,-28.61 158.59,-19.66 148.58,-23.13 152.93,-28.61"/>
</g>
<!-- Node2&#45;&gt;Node6 -->
<g id="edge5" class="edge">
<title>Node2&#45;&gt;Node6</title>
<path fill="none" stroke="midnightblue" d="M128.39,-56.4C152.38,-46.42 184.27,-33.15 207.38,-23.53"/>
<polygon fill="midnightblue" stroke="midnightblue" points="208.8,-26.73 216.69,-19.66 206.11,-20.27 208.8,-26.73"/>
</g>
</g>
</svg>
