<?xml version="1.0" encoding="UTF-8" standalone="no"?>
<!DOCTYPE svg PUBLIC "-//W3C//DTD SVG 1.1//EN"
 "http://www.w3.org/Graphics/SVG/1.1/DTD/svg11.dtd">
<!-- Generated by graphviz version 2.43.0 (0)
 -->
<!-- Title: include/depz/core/param_spec.h Pages: 1 -->
<!--zoomable 374 -->
<svg id="main" version="1.1" xmlns="http://www.w3.org/2000/svg" xmlns:xlink="http://www.w3.org/1999/xlink" xml:space="preserve" onload="init(evt)">
<style type="text/css"><![CDATA[
.edge:hover path { stroke: red; }
.edge:hover polygon { stroke: red; fill: red; }
]]></style>
<script type="text/javascript"><![CDATA[
var edges = document.getElementsByTagName('g');
if (edges && edges.length) {
  for (var i=0;i<edges.length;i++) {
    if (edges[i].id.substr(0,4)=='edge') {
      edges[i].setAttribute('class','edge');
    }
  }
}
]]></script>
        <defs>
                <circle id="rim" cx="0" cy="0" r="7"/>
                <circle id="rim2" cx="0" cy="0" r="3.5"/>
                <g id="zoomPlus">
                        <use xlink:href="#rim" fill="#404040">
                                <set attributeName="fill" to="#808080" begin="zoomplus.mouseover" end="zoomplus.mouseout"/>
                        </use>
                        <path d="M-4,0h8M0,-4v8" fill="none" stroke="white" stroke-width="1.5" pointer-events="none"/>
                </g>
                <g id="zoomMin">
                        <use xlink:href="#rim" fill="#404040">
                                <set attributeName="fill" to="#808080" begin="zoomminus.mouseover" end="zoomminus.mouseout"/>
                        </use>
                        <path d="M-4,0h8" fill="none" stroke="white" stroke-width="1.5" pointer-events="none"/>
                </g>
                <g id="dirArrow">
                        <path fill="none" stroke="white" stroke-width="1.5" d="M0,-3.0v7 M-2.5,-0.5L0,-3.0L2.5,-0.5"/>
                </g>
               <g id="resetDef">
                       <use xlink:href="#rim2" fill="#404040">
                               <set attributeName="fill" to="#808080" begin="reset.mouseover" end="reset.mouseout"/>
                       </use>
               </g>
        </defs>

<script type="text/javascript">
var viewWidth = 1205;
var viewHeight = 374;
var sectionId = 'dynsection-1';
</script>
<script xlink:href="svgpan.js"/>
<svg id="graph" class="graph">
<g id="viewport">
<title>include/depz/core/param_spec.h</title>
<polygon fill="white" stroke="transparent" points="-4,4 -4,-370 1200.5,-370 1200.5,4 -4,4"/>
<!-- Node1 -->
<g id="node1" class="node">
<title>Node1</title>
<g id="a_node1"><a xlink:title=" ">
<polygon fill="#bfbfbf" stroke="black" points="206.5,-335.5 206.5,-365.5 343.5,-365.5 343.5,-335.5 206.5,-335.5"/>
<text text-anchor="start" x="214.5" y="-353.5" font-family="Helvetica,sans-Serif" font-size="10.00">include/depz/core/param</text>
<text text-anchor="middle" x="275" y="-342.5" font-family="Helvetica,sans-Serif" font-size="10.00">_spec.h</text>
</a>
</g>
</g>
<!-- Node2 -->
<g id="node2" class="node">
<title>Node2</title>
<g id="a_node2"><a xlink:href="camera__control_8h.html" target="_top" xlink:title=" ">
<polygon fill="white" stroke="black" points="76,-268.5 76,-298.5 194,-298.5 194,-268.5 76,-268.5"/>
<text text-anchor="start" x="84" y="-286.5" font-family="Helvetica,sans-Serif" font-size="10.00">include/depz/camera</text>
<text text-anchor="middle" x="135" y="-275.5" font-family="Helvetica,sans-Serif" font-size="10.00">/camera_control.h</text>
</a>
</g>
</g>
<!-- Node1&#45;&gt;Node2 -->
<g id="edge1" class="edge">
<title>Node1&#45;&gt;Node2</title>
<path fill="none" stroke="midnightblue" d="M235.43,-331.13C213.19,-320.8 185.85,-308.11 165.32,-298.58"/>
<polygon fill="midnightblue" stroke="midnightblue" points="234.08,-334.36 244.62,-335.4 237.03,-328.01 234.08,-334.36"/>
</g>
<!-- Node5 -->
<g id="node5" class="node">
<title>Node5</title>
<g id="a_node5"><a xlink:href="icontrol__owner_8h.html" target="_top" xlink:title=" ">
<polygon fill="white" stroke="black" points="520,-268.5 520,-298.5 640,-298.5 640,-268.5 520,-268.5"/>
<text text-anchor="start" x="528" y="-286.5" font-family="Helvetica,sans-Serif" font-size="10.00">include/depz/controls</text>
<text text-anchor="middle" x="580" y="-275.5" font-family="Helvetica,sans-Serif" font-size="10.00">/icontrol_owner.h</text>
</a>
</g>
</g>
<!-- Node1&#45;&gt;Node5 -->
<g id="edge4" class="edge">
<title>Node1&#45;&gt;Node5</title>
<path fill="none" stroke="midnightblue" d="M350.68,-333.37C402.85,-322.25 471.27,-307.67 519.75,-297.34"/>
<polygon fill="midnightblue" stroke="midnightblue" points="349.86,-329.97 340.8,-335.48 351.31,-336.81 349.86,-329.97"/>
</g>
<!-- Node7 -->
<g id="node7" class="node">
<title>Node7</title>
<g id="a_node7"><a xlink:href="opencv__basic_8h.html" target="_top" xlink:title="Concrete Calibration for the OpenCV5 / OpenCV8 pinhole lens model.">
<polygon fill="white" stroke="black" points="136.5,-134.5 136.5,-164.5 293.5,-164.5 293.5,-134.5 136.5,-134.5"/>
<text text-anchor="start" x="144.5" y="-152.5" font-family="Helvetica,sans-Serif" font-size="10.00">include/depz/core/calibration</text>
<text text-anchor="middle" x="215" y="-141.5" font-family="Helvetica,sans-Serif" font-size="10.00">/opencv_basic.h</text>
</a>
</g>
</g>
<!-- Node1&#45;&gt;Node7 -->
<g id="edge19" class="edge">
<title>Node1&#45;&gt;Node7</title>
<path fill="none" stroke="midnightblue" d="M267.77,-325.53C255.15,-283.65 229.44,-198.4 219.28,-164.68"/>
<polygon fill="midnightblue" stroke="midnightblue" points="264.45,-326.62 270.68,-335.19 271.15,-324.6 264.45,-326.62"/>
</g>
<!-- Node8 -->
<g id="node8" class="node">
<title>Node8</title>
<g id="a_node8"><a xlink:href="opencv__fisheye_8h.html" target="_top" xlink:title="Kannala–Brandt fisheye Calibration with lon/lat (ERP) rectified depth.">
<polygon fill="white" stroke="black" points="311.5,-134.5 311.5,-164.5 468.5,-164.5 468.5,-134.5 311.5,-134.5"/>
<text text-anchor="start" x="319.5" y="-152.5" font-family="Helvetica,sans-Serif" font-size="10.00">include/depz/core/calibration</text>
<text text-anchor="middle" x="390" y="-141.5" font-family="Helvetica,sans-Serif" font-size="10.00">/opencv_fisheye.h</text>
</a>
</g>
</g>
<!-- Node1&#45;&gt;Node8 -->
<g id="edge20" class="edge">
<title>Node1&#45;&gt;Node8</title>
<path fill="none" stroke="midnightblue" d="M271.68,-325.22C268.7,-293.68 268.14,-238.24 294,-201 305.71,-184.14 324.85,-172.48 342.97,-164.65"/>
<polygon fill="midnightblue" stroke="midnightblue" points="268.22,-325.76 272.8,-335.31 275.18,-324.99 268.22,-325.76"/>
</g>
<!-- Node10 -->
<g id="node10" class="node">
<title>Node10</title>
<g id="a_node10"><a xlink:href="builtin_8h.html" target="_top" xlink:title=" ">
<polygon fill="white" stroke="black" points="486.5,-134.5 486.5,-164.5 619.5,-164.5 619.5,-134.5 486.5,-134.5"/>
<text text-anchor="start" x="494.5" y="-152.5" font-family="Helvetica,sans-Serif" font-size="10.00">include/depz/core/filters</text>
<text text-anchor="middle" x="553" y="-141.5" font-family="Helvetica,sans-Serif" font-size="10.00">/builtin.h</text>
</a>
</g>
</g>
<!-- Node1&#45;&gt;Node10 -->
<g id="edge21" class="edge">
<title>Node1&#45;&gt;Node10</title>
<path fill="none" stroke="midnightblue" d="M311.52,-330.62C351.74,-309.1 417.53,-271.74 469,-232 496.34,-210.89 524.41,-181.88 540.19,-164.77"/>
<polygon fill="midnightblue" stroke="midnightblue" points="309.79,-327.57 302.6,-335.35 313.08,-333.75 309.79,-327.57"/>
</g>
<!-- Node3 -->
<g id="node3" class="node">
<title>Node3</title>
<g id="a_node3"><a xlink:href="camera__spec_8h.html" target="_top" xlink:title=" ">
<polygon fill="white" stroke="black" points="42,-201.5 42,-231.5 160,-231.5 160,-201.5 42,-201.5"/>
<text text-anchor="start" x="50" y="-219.5" font-family="Helvetica,sans-Serif" font-size="10.00">include/depz/camera</text>
<text text-anchor="middle" x="101" y="-208.5" font-family="Helvetica,sans-Serif" font-size="10.00">/camera_spec.h</text>
</a>
</g>
</g>
<!-- Node2&#45;&gt;Node3 -->
<g id="edge2" class="edge">
<title>Node2&#45;&gt;Node3</title>
<path fill="none" stroke="midnightblue" d="M122.86,-259.28C118.01,-250.02 112.59,-239.66 108.36,-231.58"/>
<polygon fill="midnightblue" stroke="midnightblue" points="119.89,-261.16 127.62,-268.4 126.09,-257.91 119.89,-261.16"/>
</g>
<!-- Node4 -->
<g id="node4" class="node">
<title>Node4</title>
<g id="a_node4"><a xlink:href="depz__specs_8h.html" target="_top" xlink:title=" ">
<polygon fill="white" stroke="black" points="0,-134.5 0,-164.5 118,-164.5 118,-134.5 0,-134.5"/>
<text text-anchor="start" x="8" y="-152.5" font-family="Helvetica,sans-Serif" font-size="10.00">include/depz/camera</text>
<text text-anchor="middle" x="59" y="-141.5" font-family="Helvetica,sans-Serif" font-size="10.00">/depz_specs.h</text>
</a>
</g>
</g>
<!-- Node3&#45;&gt;Node4 -->
<g id="edge3" class="edge">
<title>Node3&#45;&gt;Node4</title>
<path fill="none" stroke="midnightblue" d="M86.38,-192.87C80.3,-183.46 73.43,-172.83 68.1,-164.58"/>
<polygon fill="midnightblue" stroke="midnightblue" points="83.52,-194.9 91.89,-201.4 89.4,-191.1 83.52,-194.9"/>
</g>
<!-- Node6 -->
<g id="node6" class="node">
<title>Node6</title>
<g id="a_node6"><a xlink:href="icalibration_8h.html" target="_top" xlink:title="Language&#45;neutral calibration ABC — the runtime contract every concrete stereo / mono calibration mode...">
<polygon fill="white" stroke="black" points="303.5,-201.5 303.5,-231.5 460.5,-231.5 460.5,-201.5 303.5,-201.5"/>
<text text-anchor="start" x="311.5" y="-219.5" font-family="Helvetica,sans-Serif" font-size="10.00">include/depz/core/calibration</text>
<text text-anchor="middle" x="382" y="-208.5" font-family="Helvetica,sans-Serif" font-size="10.00">/icalibration.h</text>
</a>
</g>
</g>
<!-- Node5&#45;&gt;Node6 -->
<g id="edge5" class="edge">
<title>Node5&#45;&gt;Node6</title>
<path fill="none" stroke="midnightblue" d="M527.39,-265.23C495.36,-254.71 454.96,-241.45 424.88,-231.58"/>
<polygon fill="midnightblue" stroke="midnightblue" points="526.44,-268.6 537.04,-268.4 528.63,-261.95 526.44,-268.6"/>
</g>
<!-- Node9 -->
<g id="node9" class="node">
<title>Node9</title>
<g id="a_node9"><a xlink:href="ifilter_8h.html" target="_top" xlink:title=" ">
<polygon fill="white" stroke="black" points="517.5,-201.5 517.5,-231.5 650.5,-231.5 650.5,-201.5 517.5,-201.5"/>
<text text-anchor="start" x="525.5" y="-219.5" font-family="Helvetica,sans-Serif" font-size="10.00">include/depz/core/filters</text>
<text text-anchor="middle" x="584" y="-208.5" font-family="Helvetica,sans-Serif" font-size="10.00">/ifilter.h</text>
</a>
</g>
</g>
<!-- Node5&#45;&gt;Node9 -->
<g id="edge8" class="edge">
<title>Node5&#45;&gt;Node9</title>
<path fill="none" stroke="midnightblue" d="M581.48,-258.4C582.04,-249.37 582.65,-239.41 583.13,-231.58"/>
<polygon fill="midnightblue" stroke="midnightblue" points="577.99,-258.2 580.87,-268.4 584.98,-258.63 577.99,-258.2"/>
</g>
<!-- Node11 -->
<g id="node11" class="node">
<title>Node11</title>
<g id="a_node11"><a xlink:href="ineural__inference_8h.html" target="_top" xlink:title="Architecture&#45;agnostic orchestration interface for neural depth networks.">
<polygon fill="white" stroke="black" points="753.5,-201.5 753.5,-231.5 904.5,-231.5 904.5,-201.5 753.5,-201.5"/>
<text text-anchor="start" x="761.5" y="-219.5" font-family="Helvetica,sans-Serif" font-size="10.00">include/depz/core/inference</text>
<text text-anchor="middle" x="829" y="-208.5" font-family="Helvetica,sans-Serif" font-size="10.00">/ineural_inference.h</text>
</a>
</g>
</g>
<!-- Node5&#45;&gt;Node11 -->
<g id="edge10" class="edge">
<title>Node5&#45;&gt;Node11</title>
<path fill="none" stroke="midnightblue" d="M643.53,-265.92C684.16,-255.31 736.3,-241.7 774.94,-231.61"/>
<polygon fill="midnightblue" stroke="midnightblue" points="642.51,-262.56 633.72,-268.48 644.28,-269.34 642.51,-262.56"/>
</g>
<!-- Node6&#45;&gt;Node7 -->
<g id="edge6" class="edge">
<title>Node6&#45;&gt;Node7</title>
<path fill="none" stroke="midnightblue" d="M336.22,-197.68C309.44,-187.26 276.1,-174.28 251.17,-164.58"/>
<polygon fill="midnightblue" stroke="midnightblue" points="335.17,-201.03 345.76,-201.4 337.71,-194.51 335.17,-201.03"/>
</g>
<!-- Node6&#45;&gt;Node8 -->
<g id="edge7" class="edge">
<title>Node6&#45;&gt;Node8</title>
<path fill="none" stroke="midnightblue" d="M384.97,-191.4C386.08,-182.37 387.3,-172.41 388.27,-164.58"/>
<polygon fill="midnightblue" stroke="midnightblue" points="381.48,-191.04 383.74,-201.4 388.43,-191.9 381.48,-191.04"/>
</g>
<!-- Node9&#45;&gt;Node10 -->
<g id="edge9" class="edge">
<title>Node9&#45;&gt;Node10</title>
<path fill="none" stroke="midnightblue" d="M572.93,-192.28C568.51,-183.02 563.57,-172.66 559.71,-164.58"/>
<polygon fill="midnightblue" stroke="midnightblue" points="569.81,-193.88 577.27,-201.4 576.13,-190.86 569.81,-193.88"/>
</g>
<!-- Node12 -->
<g id="node12" class="node">
<title>Node12</title>
<g id="a_node12"><a xlink:href="inference__factory_8h.html" target="_top" xlink:title="Single factory turning (arch slug, model file, engine slug) into a ready DepthInferenceBase.">
<polygon fill="white" stroke="black" points="876.5,-134.5 876.5,-164.5 1027.5,-164.5 1027.5,-134.5 876.5,-134.5"/>
<text text-anchor="start" x="884.5" y="-152.5" font-family="Helvetica,sans-Serif" font-size="10.00">include/depz/core/inference</text>
<text text-anchor="middle" x="952" y="-141.5" font-family="Helvetica,sans-Serif" font-size="10.00">/inference_factory.h</text>
</a>
</g>
</g>
<!-- Node11&#45;&gt;Node12 -->
<g id="edge11" class="edge">
<title>Node11&#45;&gt;Node12</title>
<path fill="none" stroke="midnightblue" d="M864.55,-196.71C883.95,-186.46 907.56,-173.98 925.36,-164.58"/>
<polygon fill="midnightblue" stroke="midnightblue" points="862.9,-193.63 855.69,-201.4 866.17,-199.82 862.9,-193.63"/>
</g>
<!-- Node13 -->
<g id="node13" class="node">
<title>Node13</title>
<g id="a_node13"><a xlink:href="neural__architectures_8h.html" target="_top" xlink:title="Per&#45;network preprocess/postprocess recipes for the SDK&#39;s depth models.">
<polygon fill="white" stroke="black" points="1045.5,-134.5 1045.5,-164.5 1196.5,-164.5 1196.5,-134.5 1045.5,-134.5"/>
<text text-anchor="start" x="1053.5" y="-152.5" font-family="Helvetica,sans-Serif" font-size="10.00">include/depz/core/inference</text>
<text text-anchor="middle" x="1121" y="-141.5" font-family="Helvetica,sans-Serif" font-size="10.00">/neural_architectures.h</text>
</a>
</g>
</g>
<!-- Node11&#45;&gt;Node13 -->
<g id="edge12" class="edge">
<title>Node11&#45;&gt;Node13</title>
<path fill="none" stroke="midnightblue" d="M902.01,-199.25C949.95,-188.58 1012.05,-174.75 1057.86,-164.55"/>
<polygon fill="midnightblue" stroke="midnightblue" points="901,-195.89 892,-201.48 902.52,-202.72 901,-195.89"/>
</g>
<!-- Node14 -->
<g id="node14" class="node">
<title>Node14</title>
<g id="a_node14"><a xlink:href="depth__pipeline_8h.html" target="_top" xlink:title=" ">
<polygon fill="white" stroke="black" points="676,-0.5 676,-30.5 820,-30.5 820,-0.5 676,-0.5"/>
<text text-anchor="start" x="684" y="-18.5" font-family="Helvetica,sans-Serif" font-size="10.00">include/depz/core/pipeline</text>
<text text-anchor="middle" x="748" y="-7.5" font-family="Helvetica,sans-Serif" font-size="10.00">/depth_pipeline.h</text>
</a>
</g>
</g>
<!-- Node11&#45;&gt;Node14 -->
<g id="edge13" class="edge">
<title>Node11&#45;&gt;Node14</title>
<path fill="none" stroke="midnightblue" d="M835.76,-191.38C842.99,-160.44 850.71,-106.12 829,-67 819.83,-50.48 802.77,-38.66 786.66,-30.63"/>
<polygon fill="midnightblue" stroke="midnightblue" points="832.31,-190.73 833.27,-201.28 839.1,-192.44 832.31,-190.73"/>
</g>
<!-- Node15 -->
<g id="node15" class="node">
<title>Node15</title>
<g id="a_node15"><a xlink:href="frame__processor_8h.html" target="_top" xlink:title="Single&#45;call per&#45;frame postprocess chain (disparity→depth→cloud).">
<polygon fill="white" stroke="black" points="638,-134.5 638,-164.5 782,-164.5 782,-134.5 638,-134.5"/>
<text text-anchor="start" x="646" y="-152.5" font-family="Helvetica,sans-Serif" font-size="10.00">include/depz/core/pipeline</text>
<text text-anchor="middle" x="710" y="-141.5" font-family="Helvetica,sans-Serif" font-size="10.00">/frame_processor.h</text>
</a>
</g>
</g>
<!-- Node11&#45;&gt;Node15 -->
<g id="edge14" class="edge">
<title>Node11&#45;&gt;Node15</title>
<path fill="none" stroke="midnightblue" d="M794.35,-196.57C775.63,-186.35 752.91,-173.94 735.77,-164.58"/>
<polygon fill="midnightblue" stroke="midnightblue" points="792.72,-199.67 803.18,-201.4 796.08,-193.53 792.72,-199.67"/>
</g>
<!-- Node16 -->
<g id="node16" class="node">
<title>Node16</title>
<g id="a_node16"><a xlink:href="idepth__calibration_8h.html" target="_top" xlink:title="Calibration interface the DepthPipeline worker loop depends on.">
<polygon fill="white" stroke="red" points="676,-67.5 676,-97.5 820,-97.5 820,-67.5 676,-67.5"/>
<text text-anchor="start" x="684" y="-85.5" font-family="Helvetica,sans-Serif" font-size="10.00">include/depz/core/pipeline</text>
<text text-anchor="middle" x="748" y="-74.5" font-family="Helvetica,sans-Serif" font-size="10.00">/idepth_calibration.h</text>
</a>
</g>
</g>
<!-- Node11&#45;&gt;Node16 -->
<g id="edge18" class="edge">
<title>Node11&#45;&gt;Node16</title>
<path fill="none" stroke="midnightblue" d="M819.93,-191.78C813.06,-175.03 802.81,-152.39 791,-134 782.54,-120.82 770.93,-107.39 761.91,-97.7"/>
<polygon fill="midnightblue" stroke="midnightblue" points="816.8,-193.36 823.76,-201.35 823.3,-190.77 816.8,-193.36"/>
</g>
<!-- Node15&#45;&gt;Node14 -->
<g id="edge15" class="edge">
<title>Node15&#45;&gt;Node14</title>
<path fill="none" stroke="midnightblue" d="M685.94,-126.75C670.72,-110.26 655.86,-87.08 667,-67 676.17,-50.48 693.23,-38.66 709.34,-30.63"/>
<polygon fill="midnightblue" stroke="midnightblue" points="683.82,-129.59 693.32,-134.27 688.81,-124.68 683.82,-129.59"/>
</g>
<!-- Node15&#45;&gt;Node16 -->
<g id="edge16" class="edge">
<title>Node15&#45;&gt;Node16</title>
<path fill="none" stroke="midnightblue" d="M723.4,-125.58C728.86,-116.24 734.99,-105.75 739.77,-97.58"/>
<polygon fill="midnightblue" stroke="midnightblue" points="720.27,-124 718.25,-134.4 726.31,-127.53 720.27,-124"/>
</g>
<!-- Node16&#45;&gt;Node14 -->
<g id="edge17" class="edge">
<title>Node16&#45;&gt;Node14</title>
<path fill="none" stroke="midnightblue" d="M748,-57.11C748,-48.15 748,-38.32 748,-30.58"/>
<polygon fill="midnightblue" stroke="midnightblue" points="744.5,-57.4 748,-67.4 751.5,-57.4 744.5,-57.4"/>
</g>
</g>
</svg>
        <g id="navigator" transform="translate(0 0)" fill="#404254">
                <rect fill="#f2f5e9" fill-opacity="0.5" stroke="#606060" stroke-width=".5" x="0" y="0" width="60" height="60"/>
                <use id="zoomplus" xlink:href="#zoomPlus" x="17" y="9" onmousedown="handleZoom(evt,'in')"/>
                <use id="zoomminus" xlink:href="#zoomMin" x="42" y="9" onmousedown="handleZoom(evt,'out')"/>
                <use id="reset" xlink:href="#resetDef" x="30" y="36" onmousedown="handleReset()"/>
                <g id="arrowUp" xlink:href="#dirArrow" transform="translate(30 24)" onmousedown="handlePan(0,-1)">
                  <use xlink:href="#rim" fill="#404040">
                        <set attributeName="fill" to="#808080" begin="arrowUp.mouseover" end="arrowUp.mouseout"/>
                  </use>
                  <path fill="none" stroke="white" stroke-width="1.5" d="M0,-3.0v7 M-2.5,-0.5L0,-3.0L2.5,-0.5"/>
                </g>
                <g id="arrowRight" xlink:href="#dirArrow" transform="rotate(90) translate(36 -43)" onmousedown="handlePan(1,0)">
                  <use xlink:href="#rim" fill="#404040">
                        <set attributeName="fill" to="#808080" begin="arrowRight.mouseover" end="arrowRight.mouseout"/>
                  </use>
                  <path fill="none" stroke="white" stroke-width="1.5" d="M0,-3.0v7 M-2.5,-0.5L0,-3.0L2.5,-0.5"/>
                </g>
                <g id="arrowDown" xlink:href="#dirArrow" transform="rotate(180) translate(-30 -48)" onmousedown="handlePan(0,1)">
                  <use xlink:href="#rim" fill="#404040">
                        <set attributeName="fill" to="#808080" begin="arrowDown.mouseover" end="arrowDown.mouseout"/>
                  </use>
                  <path fill="none" stroke="white" stroke-width="1.5" d="M0,-3.0v7 M-2.5,-0.5L0,-3.0L2.5,-0.5"/>
                </g>
                <g id="arrowLeft" xlink:href="#dirArrow" transform="rotate(270) translate(-36 17)" onmousedown="handlePan(-1,0)">
                  <use xlink:href="#rim" fill="#404040">
                        <set attributeName="fill" to="#808080" begin="arrowLeft.mouseover" end="arrowLeft.mouseout"/>
                  </use>
                  <path fill="none" stroke="white" stroke-width="1.5" d="M0,-3.0v7 M-2.5,-0.5L0,-3.0L2.5,-0.5"/>
                </g>
        </g>
        <svg viewBox="0 0 15 15" width="100%" height="30px" preserveAspectRatio="xMaxYMin meet">
         <g id="arrow_out" transform="scale(0.3 0.3)">
          <a xlink:href="param__spec_8h__dep__incl_org.svg" target="_base">
           <rect id="button" ry="5" rx="5" y="6" x="6" height="38" width="38"
                fill="#f2f5e9" fill-opacity="0.5" stroke="#606060" stroke-width="1.0"/>
           <path id="arrow"
             d="M 11.500037,31.436501 C 11.940474,20.09759 22.043105,11.32322 32.158766,21.979434 L 37.068811,17.246167 C 37.068811,17.246167 37.088388,32 37.088388,32 L 22.160133,31.978069 C 22.160133,31.978069 26.997745,27.140456 26.997745,27.140456 C 18.528582,18.264221 13.291696,25.230495 11.500037,31.436501 z"
             style="fill:#404040;"/>
          </a>
         </g>
        </svg>
</svg>
