<?xml version="1.0" encoding="UTF-8" standalone="no"?>
<!DOCTYPE svg PUBLIC "-//W3C//DTD SVG 1.1//EN"
 "http://www.w3.org/Graphics/SVG/1.1/DTD/svg11.dtd">
<!-- Generated by graphviz version 2.43.0 (0)
 -->
<!-- Title: include/depz/core/param_spec.h Pages: 1 -->
<svg width="508pt" height="162pt"
 viewBox="0.00 0.00 507.50 162.00" xmlns="http://www.w3.org/2000/svg" xmlns:xlink="http://www.w3.org/1999/xlink">
<g id="graph0" class="graph" transform="scale(1 1) rotate(0) translate(4 158)">
<title>include/depz/core/param_spec.h</title>
<polygon fill="white" stroke="transparent" points="-4,4 -4,-158 503.5,-158 503.5,4 -4,4"/>
<!-- Node1 -->
<g id="node1" class="node">
<title>Node1</title>
<g id="a_node1"><a xlink:title=" ">
<polygon fill="#bfbfbf" stroke="black" points="292.5,-123.5 292.5,-153.5 429.5,-153.5 429.5,-123.5 292.5,-123.5"/>
<text text-anchor="start" x="300.5" y="-141.5" font-family="Helvetica,sans-Serif" font-size="10.00">include/depz/core/param</text>
<text text-anchor="middle" x="361" y="-130.5" font-family="Helvetica,sans-Serif" font-size="10.00">_spec.h</text>
</a>
</g>
</g>
<!-- Node2 -->
<g id="node2" class="node">
<title>Node2</title>
<g id="a_node2"><a xlink:href="iparameter__store_8h.html" target="_top" xlink:title="Type&#45;erased key/value parameter store interface.">
<polygon fill="white" stroke="black" points="211.5,-56.5 211.5,-86.5 332.5,-86.5 332.5,-56.5 211.5,-56.5"/>
<text text-anchor="start" x="219.5" y="-74.5" font-family="Helvetica,sans-Serif" font-size="10.00">depz/core/iparameter</text>
<text text-anchor="middle" x="272" y="-63.5" font-family="Helvetica,sans-Serif" font-size="10.00">_store.h</text>
</a>
</g>
</g>
<!-- Node1&#45;&gt;Node2 -->
<g id="edge1" class="edge">
<title>Node1&#45;&gt;Node2</title>
<path fill="none" stroke="midnightblue" d="M341.69,-123.4C329.33,-114.37 313.1,-102.51 299.41,-92.52"/>
<polygon fill="midnightblue" stroke="midnightblue" points="301.41,-89.65 291.27,-86.58 297.29,-95.3 301.41,-89.65"/>
</g>
<!-- Node5 -->
<g id="node5" class="node">
<title>Node5</title>
<g id="a_node5"><a xlink:title=" ">
<polygon fill="white" stroke="#bfbfbf" points="0,-0.5 0,-19.5 56,-19.5 56,-0.5 0,-0.5"/>
<text text-anchor="middle" x="28" y="-7.5" font-family="Helvetica,sans-Serif" font-size="10.00">optional</text>
</a>
</g>
</g>
<!-- Node1&#45;&gt;Node5 -->
<g id="edge8" class="edge">
<title>Node1&#45;&gt;Node5</title>
<path fill="none" stroke="midnightblue" d="M312.86,-123.49C281.34,-113.97 239.39,-100.68 203,-87 149.95,-67.06 89.63,-39.82 55.47,-23.95"/>
<polygon fill="midnightblue" stroke="midnightblue" points="56.69,-20.66 46.14,-19.6 53.73,-27 56.69,-20.66"/>
</g>
<!-- Node6 -->
<g id="node6" class="node">
<title>Node6</title>
<g id="a_node6"><a xlink:title=" ">
<polygon fill="white" stroke="#bfbfbf" points="433,-0.5 433,-19.5 477,-19.5 477,-0.5 433,-0.5"/>
<text text-anchor="middle" x="455" y="-7.5" font-family="Helvetica,sans-Serif" font-size="10.00">string</text>
</a>
</g>
</g>
<!-- Node1&#45;&gt;Node6 -->
<g id="edge9" class="edge">
<title>Node1&#45;&gt;Node6</title>
<path fill="none" stroke="midnightblue" d="M361.26,-123.46C362.25,-106.05 366.19,-76.21 381,-56 391.65,-41.48 408.53,-30.69 423.48,-23.33"/>
<polygon fill="midnightblue" stroke="midnightblue" points="425.32,-26.34 432.94,-18.98 422.39,-19.98 425.32,-26.34"/>
</g>
<!-- Node9 -->
<g id="node9" class="node">
<title>Node9</title>
<g id="a_node9"><a xlink:title=" ">
<polygon fill="white" stroke="#bfbfbf" points="389.5,-62 389.5,-81 434.5,-81 434.5,-62 389.5,-62"/>
<text text-anchor="middle" x="412" y="-69" font-family="Helvetica,sans-Serif" font-size="10.00">utility</text>
</a>
</g>
</g>
<!-- Node1&#45;&gt;Node9 -->
<g id="edge10" class="edge">
<title>Node1&#45;&gt;Node9</title>
<path fill="none" stroke="midnightblue" d="M372.07,-123.4C379.94,-113.36 390.55,-99.84 398.85,-89.25"/>
<polygon fill="midnightblue" stroke="midnightblue" points="401.76,-91.22 405.18,-81.19 396.25,-86.9 401.76,-91.22"/>
</g>
<!-- Node10 -->
<g id="node10" class="node">
<title>Node10</title>
<g id="a_node10"><a xlink:title=" ">
<polygon fill="white" stroke="#bfbfbf" points="452.5,-62 452.5,-81 499.5,-81 499.5,-62 452.5,-62"/>
<text text-anchor="middle" x="476" y="-69" font-family="Helvetica,sans-Serif" font-size="10.00">vector</text>
</a>
</g>
</g>
<!-- Node1&#45;&gt;Node10 -->
<g id="edge11" class="edge">
<title>Node1&#45;&gt;Node10</title>
<path fill="none" stroke="midnightblue" d="M385.95,-123.4C405.6,-112.29 432.79,-96.92 452.15,-85.98"/>
<polygon fill="midnightblue" stroke="midnightblue" points="453.97,-88.97 460.95,-81.01 450.52,-82.88 453.97,-88.97"/>
</g>
<!-- Node3 -->
<g id="node3" class="node">
<title>Node3</title>
<g id="a_node3"><a xlink:title=" ">
<polygon fill="white" stroke="#bfbfbf" points="74,-0.5 74,-19.5 190,-19.5 190,-0.5 74,-0.5"/>
<text text-anchor="middle" x="132" y="-7.5" font-family="Helvetica,sans-Serif" font-size="10.00">opencv2/opencv.hpp</text>
</a>
</g>
</g>
<!-- Node2&#45;&gt;Node3 -->
<g id="edge2" class="edge">
<title>Node2&#45;&gt;Node3</title>
<path fill="none" stroke="midnightblue" d="M238.82,-56.4C215.44,-46.46 184.39,-33.26 161.79,-23.66"/>
<polygon fill="midnightblue" stroke="midnightblue" points="162.94,-20.35 152.37,-19.66 160.21,-26.79 162.94,-20.35"/>
</g>
<!-- Node4 -->
<g id="node4" class="node">
<title>Node4</title>
<g id="a_node4"><a xlink:title=" ">
<polygon fill="white" stroke="#bfbfbf" points="208,-0.5 208,-19.5 258,-19.5 258,-0.5 208,-0.5"/>
<text text-anchor="middle" x="233" y="-7.5" font-family="Helvetica,sans-Serif" font-size="10.00">cstdint</text>
</a>
</g>
</g>
<!-- Node2&#45;&gt;Node4 -->
<g id="edge3" class="edge">
<title>Node2&#45;&gt;Node4</title>
<path fill="none" stroke="midnightblue" d="M262.76,-56.4C257.21,-47.93 250.11,-37.1 244.23,-28.14"/>
<polygon fill="midnightblue" stroke="midnightblue" points="247.08,-26.1 238.67,-19.66 241.23,-29.94 247.08,-26.1"/>
</g>
<!-- Node2&#45;&gt;Node5 -->
<g id="edge4" class="edge">
<title>Node2&#45;&gt;Node5</title>
<path fill="none" stroke="midnightblue" d="M214.48,-56.47C168.6,-45.29 105.64,-29.93 65.89,-20.24"/>
<polygon fill="midnightblue" stroke="midnightblue" points="66.61,-16.81 56.07,-17.84 64.95,-23.61 66.61,-16.81"/>
</g>
<!-- Node2&#45;&gt;Node6 -->
<g id="edge5" class="edge">
<title>Node2&#45;&gt;Node6</title>
<path fill="none" stroke="midnightblue" d="M315.37,-56.4C348.27,-45.7 392.78,-31.23 422.62,-21.53"/>
<polygon fill="midnightblue" stroke="midnightblue" points="424.09,-24.73 432.52,-18.31 421.93,-18.07 424.09,-24.73"/>
</g>
<!-- Node7 -->
<g id="node7" class="node">
<title>Node7</title>
<g id="a_node7"><a xlink:title=" ">
<polygon fill="white" stroke="#bfbfbf" points="276.5,-0.5 276.5,-19.5 345.5,-19.5 345.5,-0.5 276.5,-0.5"/>
<text text-anchor="middle" x="311" y="-7.5" font-family="Helvetica,sans-Serif" font-size="10.00">type_traits</text>
</a>
</g>
</g>
<!-- Node2&#45;&gt;Node7 -->
<g id="edge6" class="edge">
<title>Node2&#45;&gt;Node7</title>
<path fill="none" stroke="midnightblue" d="M281.24,-56.4C286.79,-47.93 293.89,-37.1 299.77,-28.14"/>
<polygon fill="midnightblue" stroke="midnightblue" points="302.77,-29.94 305.33,-19.66 296.92,-26.1 302.77,-29.94"/>
</g>
<!-- Node8 -->
<g id="node8" class="node">
<title>Node8</title>
<g id="a_node8"><a xlink:title=" ">
<polygon fill="white" stroke="#bfbfbf" points="363.5,-0.5 363.5,-19.5 414.5,-19.5 414.5,-0.5 363.5,-0.5"/>
<text text-anchor="middle" x="389" y="-7.5" font-family="Helvetica,sans-Serif" font-size="10.00">variant</text>
</a>
</g>
</g>
<!-- Node2&#45;&gt;Node8 -->
<g id="edge7" class="edge">
<title>Node2&#45;&gt;Node8</title>
<path fill="none" stroke="midnightblue" d="M299.73,-56.4C318.83,-46.68 344.06,-33.86 362.82,-24.31"/>
<polygon fill="midnightblue" stroke="midnightblue" points="364.65,-27.31 371.98,-19.66 361.48,-21.07 364.65,-27.31"/>
</g>
</g>
</svg>
