<?xml version="1.0" encoding="UTF-8" standalone="no"?>
<!DOCTYPE svg PUBLIC "-//W3C//DTD SVG 1.1//EN"
 "http://www.w3.org/Graphics/SVG/1.1/DTD/svg11.dtd">
<!-- Generated by graphviz version 2.43.0 (0)
 -->
<!-- Title: include/depz/core/calibration/parsed_calibration.h Pages: 1 -->
<svg width="178pt" height="95pt"
 viewBox="0.00 0.00 177.50 95.00" xmlns="http://www.w3.org/2000/svg" xmlns:xlink="http://www.w3.org/1999/xlink">
<g id="graph0" class="graph" transform="scale(1 1) rotate(0) translate(4 91)">
<title>include/depz/core/calibration/parsed_calibration.h</title>
<polygon fill="white" stroke="transparent" points="-4,4 -4,-91 173.5,-91 173.5,4 -4,4"/>
<!-- Node1 -->
<g id="node1" class="node">
<title>Node1</title>
<g id="a_node1"><a xlink:title="Nanobind&#45;free POD structs holding parsed calibration scalars.">
<polygon fill="#bfbfbf" stroke="black" points="3.5,-56.5 3.5,-86.5 160.5,-86.5 160.5,-56.5 3.5,-56.5"/>
<text text-anchor="start" x="11.5" y="-74.5" font-family="Helvetica,sans-Serif" font-size="10.00">include/depz/core/calibration</text>
<text text-anchor="middle" x="82" y="-63.5" font-family="Helvetica,sans-Serif" font-size="10.00">/parsed_calibration.h</text>
</a>
</g>
</g>
<!-- Node2 -->
<g id="node2" class="node">
<title>Node2</title>
<g id="a_node2"><a xlink:title=" ">
<polygon fill="white" stroke="#bfbfbf" points="0,-0.5 0,-19.5 42,-19.5 42,-0.5 0,-0.5"/>
<text text-anchor="middle" x="21" y="-7.5" font-family="Helvetica,sans-Serif" font-size="10.00">array</text>
</a>
</g>
</g>
<!-- Node1&#45;&gt;Node2 -->
<g id="edge1" class="edge">
<title>Node1&#45;&gt;Node2</title>
<path fill="none" stroke="midnightblue" d="M67.54,-56.4C58.41,-47.49 46.58,-35.95 37.14,-26.74"/>
<polygon fill="midnightblue" stroke="midnightblue" points="39.48,-24.13 29.88,-19.66 34.59,-29.15 39.48,-24.13"/>
</g>
<!-- Node3 -->
<g id="node3" class="node">
<title>Node3</title>
<g id="a_node3"><a xlink:title=" ">
<polygon fill="white" stroke="#bfbfbf" points="60,-0.5 60,-19.5 104,-19.5 104,-0.5 60,-0.5"/>
<text text-anchor="middle" x="82" y="-7.5" font-family="Helvetica,sans-Serif" font-size="10.00">string</text>
</a>
</g>
</g>
<!-- Node1&#45;&gt;Node3 -->
<g id="edge2" class="edge">
<title>Node1&#45;&gt;Node3</title>
<path fill="none" stroke="midnightblue" d="M82,-56.4C82,-48.47 82,-38.46 82,-29.86"/>
<polygon fill="midnightblue" stroke="midnightblue" points="85.5,-29.66 82,-19.66 78.5,-29.66 85.5,-29.66"/>
</g>
<!-- Node4 -->
<g id="node4" class="node">
<title>Node4</title>
<g id="a_node4"><a xlink:title=" ">
<polygon fill="white" stroke="#bfbfbf" points="122.5,-0.5 122.5,-19.5 169.5,-19.5 169.5,-0.5 122.5,-0.5"/>
<text text-anchor="middle" x="146" y="-7.5" font-family="Helvetica,sans-Serif" font-size="10.00">vector</text>
</a>
</g>
</g>
<!-- Node1&#45;&gt;Node4 -->
<g id="edge3" class="edge">
<title>Node1&#45;&gt;Node4</title>
<path fill="none" stroke="midnightblue" d="M97.17,-56.4C106.75,-47.49 119.16,-35.95 129.07,-26.74"/>
<polygon fill="midnightblue" stroke="midnightblue" points="131.75,-29.03 136.69,-19.66 126.98,-23.9 131.75,-29.03"/>
</g>
</g>
</svg>
