<?xml version="1.0" encoding="UTF-8" standalone="no"?>
<!DOCTYPE svg PUBLIC "-//W3C//DTD SVG 1.1//EN"
 "http://www.w3.org/Graphics/SVG/1.1/DTD/svg11.dtd">
<!-- Generated by graphviz version 2.43.0 (0)
 -->
<!-- Title: include/depz/core/calibration/parsed_calibration.h Pages: 1 -->
<svg width="515pt" height="106pt"
 viewBox="0.00 0.00 515.00 106.00" xmlns="http://www.w3.org/2000/svg" xmlns:xlink="http://www.w3.org/1999/xlink">
<g id="graph0" class="graph" transform="scale(1 1) rotate(0) translate(4 102)">
<title>include/depz/core/calibration/parsed_calibration.h</title>
<polygon fill="white" stroke="transparent" points="-4,4 -4,-102 511,-102 511,4 -4,4"/>
<!-- Node1 -->
<g id="node1" class="node">
<title>Node1</title>
<g id="a_node1"><a xlink:title="Nanobind&#45;free POD structs holding parsed calibration scalars.">
<polygon fill="#bfbfbf" stroke="black" points="175,-67.5 175,-97.5 332,-97.5 332,-67.5 175,-67.5"/>
<text text-anchor="start" x="183" y="-85.5" font-family="Helvetica,sans-Serif" font-size="10.00">include/depz/core/calibration</text>
<text text-anchor="middle" x="253.5" y="-74.5" font-family="Helvetica,sans-Serif" font-size="10.00">/parsed_calibration.h</text>
</a>
</g>
</g>
<!-- Node2 -->
<g id="node2" class="node">
<title>Node2</title>
<g id="a_node2"><a xlink:href="opencv__basic_8h.html" target="_top" xlink:title="Concrete Calibration for the OpenCV5 / OpenCV8 pinhole lens model.">
<polygon fill="white" stroke="black" points="0,-0.5 0,-30.5 157,-30.5 157,-0.5 0,-0.5"/>
<text text-anchor="start" x="8" y="-18.5" font-family="Helvetica,sans-Serif" font-size="10.00">include/depz/core/calibration</text>
<text text-anchor="middle" x="78.5" y="-7.5" font-family="Helvetica,sans-Serif" font-size="10.00">/opencv_basic.h</text>
</a>
</g>
</g>
<!-- Node1&#45;&gt;Node2 -->
<g id="edge1" class="edge">
<title>Node1&#45;&gt;Node2</title>
<path fill="none" stroke="midnightblue" d="M205.9,-63.82C177.77,-53.37 142.64,-40.32 116.4,-30.58"/>
<polygon fill="midnightblue" stroke="midnightblue" points="204.93,-67.2 215.53,-67.4 207.37,-60.63 204.93,-67.2"/>
</g>
<!-- Node3 -->
<g id="node3" class="node">
<title>Node3</title>
<g id="a_node3"><a xlink:href="opencv__depth__calibration_8h.html" target="_top" xlink:title="IDepthCalibration for the pinhole stereo model, backed by StereoCalibration.">
<polygon fill="white" stroke="black" points="175,-0.5 175,-30.5 332,-30.5 332,-0.5 175,-0.5"/>
<text text-anchor="start" x="183" y="-18.5" font-family="Helvetica,sans-Serif" font-size="10.00">include/depz/core/calibration</text>
<text text-anchor="middle" x="253.5" y="-7.5" font-family="Helvetica,sans-Serif" font-size="10.00">/opencv_depth_calibration.h</text>
</a>
</g>
</g>
<!-- Node1&#45;&gt;Node3 -->
<g id="edge2" class="edge">
<title>Node1&#45;&gt;Node3</title>
<path fill="none" stroke="midnightblue" d="M253.5,-57.11C253.5,-48.15 253.5,-38.32 253.5,-30.58"/>
<polygon fill="midnightblue" stroke="midnightblue" points="250,-57.4 253.5,-67.4 257,-57.4 250,-57.4"/>
</g>
<!-- Node4 -->
<g id="node4" class="node">
<title>Node4</title>
<g id="a_node4"><a xlink:href="opencv__fisheye_8h.html" target="_top" xlink:title="Kannala–Brandt fisheye Calibration with lon/lat (ERP) rectified depth.">
<polygon fill="white" stroke="black" points="350,-0.5 350,-30.5 507,-30.5 507,-0.5 350,-0.5"/>
<text text-anchor="start" x="358" y="-18.5" font-family="Helvetica,sans-Serif" font-size="10.00">include/depz/core/calibration</text>
<text text-anchor="middle" x="428.5" y="-7.5" font-family="Helvetica,sans-Serif" font-size="10.00">/opencv_fisheye.h</text>
</a>
</g>
</g>
<!-- Node1&#45;&gt;Node4 -->
<g id="edge3" class="edge">
<title>Node1&#45;&gt;Node4</title>
<path fill="none" stroke="midnightblue" d="M301.1,-63.82C329.23,-53.37 364.36,-40.32 390.6,-30.58"/>
<polygon fill="midnightblue" stroke="midnightblue" points="299.63,-60.63 291.47,-67.4 302.07,-67.2 299.63,-60.63"/>
</g>
</g>
</svg>
