<?xml version="1.0" encoding="UTF-8" standalone="no"?>
<!DOCTYPE svg PUBLIC "-//W3C//DTD SVG 1.1//EN"
 "http://www.w3.org/Graphics/SVG/1.1/DTD/svg11.dtd">
<!-- Generated by graphviz version 2.43.0 (0)
 -->
<!-- Title: include/depz/stereo/stereocalibration.h Pages: 1 -->
<svg width="650pt" height="173pt"
 viewBox="0.00 0.00 650.00 173.00" xmlns="http://www.w3.org/2000/svg" xmlns:xlink="http://www.w3.org/1999/xlink">
<g id="graph0" class="graph" transform="scale(1 1) rotate(0) translate(4 169)">
<title>include/depz/stereo/stereocalibration.h</title>
<polygon fill="white" stroke="transparent" points="-4,4 -4,-169 646,-169 646,4 -4,4"/>
<!-- Node1 -->
<g id="node1" class="node">
<title>Node1</title>
<g id="a_node1"><a xlink:title="Stereo camera calibration: load, validate, rectify.">
<polygon fill="#bfbfbf" stroke="black" points="304.5,-134.5 304.5,-164.5 416.5,-164.5 416.5,-134.5 304.5,-134.5"/>
<text text-anchor="start" x="312.5" y="-152.5" font-family="Helvetica,sans-Serif" font-size="10.00">include/depz/stereo</text>
<text text-anchor="middle" x="360.5" y="-141.5" font-family="Helvetica,sans-Serif" font-size="10.00">/stereocalibration.h</text>
</a>
</g>
</g>
<!-- Node2 -->
<g id="node2" class="node">
<title>Node2</title>
<g id="a_node2"><a xlink:href="opencv__basic_8h.html" target="_top" xlink:title="Concrete Calibration for the OpenCV5 / OpenCV8 pinhole lens model.">
<polygon fill="white" stroke="black" points="0,-62 0,-92 157,-92 157,-62 0,-62"/>
<text text-anchor="start" x="8" y="-80" font-family="Helvetica,sans-Serif" font-size="10.00">include/depz/core/calibration</text>
<text text-anchor="middle" x="78.5" y="-69" font-family="Helvetica,sans-Serif" font-size="10.00">/opencv_basic.h</text>
</a>
</g>
</g>
<!-- Node1&#45;&gt;Node2 -->
<g id="edge1" class="edge">
<title>Node1&#45;&gt;Node2</title>
<path fill="none" stroke="midnightblue" d="M294.68,-132.05C246.22,-119.93 181.02,-103.63 134.93,-92.11"/>
<polygon fill="midnightblue" stroke="midnightblue" points="293.9,-135.46 304.45,-134.49 295.6,-128.67 293.9,-135.46"/>
</g>
<!-- Node3 -->
<g id="node3" class="node">
<title>Node3</title>
<g id="a_node3"><a xlink:href="opencv__depth__calibration_8h.html" target="_top" xlink:title="IDepthCalibration for the pinhole stereo model, backed by StereoCalibration.">
<polygon fill="white" stroke="black" points="175,-62 175,-92 332,-92 332,-62 175,-62"/>
<text text-anchor="start" x="183" y="-80" font-family="Helvetica,sans-Serif" font-size="10.00">include/depz/core/calibration</text>
<text text-anchor="middle" x="253.5" y="-69" font-family="Helvetica,sans-Serif" font-size="10.00">/opencv_depth_calibration.h</text>
</a>
</g>
</g>
<!-- Node1&#45;&gt;Node3 -->
<g id="edge2" class="edge">
<title>Node1&#45;&gt;Node3</title>
<path fill="none" stroke="midnightblue" d="M330.3,-128.6C312.63,-116.96 290.74,-102.54 274.86,-92.07"/>
<polygon fill="midnightblue" stroke="midnightblue" points="328.83,-131.82 339.1,-134.4 332.68,-125.98 328.83,-131.82"/>
</g>
<!-- Node4 -->
<g id="node4" class="node">
<title>Node4</title>
<g id="a_node4"><a xlink:href="depz_8h.html" target="_top" xlink:title="Single umbrella header that pulls in the whole iStereoLab public API.">
<polygon fill="white" stroke="black" points="393,-0.5 393,-19.5 506,-19.5 506,-0.5 393,-0.5"/>
<text text-anchor="middle" x="449.5" y="-7.5" font-family="Helvetica,sans-Serif" font-size="10.00">include/depz/depz.h</text>
</a>
</g>
</g>
<!-- Node1&#45;&gt;Node4 -->
<g id="edge3" class="edge">
<title>Node1&#45;&gt;Node4</title>
<path fill="none" stroke="midnightblue" d="M360.44,-124.23C361.5,-104.31 365.65,-76.19 379.5,-56 391.18,-38.96 411.66,-26.92 427.45,-19.6"/>
<polygon fill="midnightblue" stroke="midnightblue" points="356.93,-124.24 360.12,-134.35 363.93,-124.46 356.93,-124.24"/>
</g>
<!-- Node5 -->
<g id="node5" class="node">
<title>Node5</title>
<g id="a_node5"><a xlink:href="calibration__params_8h.html" target="_top" xlink:title=" ">
<polygon fill="white" stroke="black" points="388.5,-62 388.5,-92 510.5,-92 510.5,-62 388.5,-62"/>
<text text-anchor="start" x="396.5" y="-80" font-family="Helvetica,sans-Serif" font-size="10.00">include/depz/stereo</text>
<text text-anchor="middle" x="449.5" y="-69" font-family="Helvetica,sans-Serif" font-size="10.00">/calibration_params.h</text>
</a>
</g>
</g>
<!-- Node1&#45;&gt;Node5 -->
<g id="edge4" class="edge">
<title>Node1&#45;&gt;Node5</title>
<path fill="none" stroke="midnightblue" d="M386.65,-127.79C401.19,-116.27 418.91,-102.23 431.82,-92"/>
<polygon fill="midnightblue" stroke="midnightblue" points="384.18,-125.28 378.51,-134.23 388.52,-130.77 384.18,-125.28"/>
</g>
<!-- Node6 -->
<g id="node6" class="node">
<title>Node6</title>
<g id="a_node6"><a xlink:href="camera__calibration__web__loader_8h.html" target="_top" xlink:title="Download stereo calibration JSON by camera serial and parse it into StereoCalibration.">
<polygon fill="white" stroke="black" points="529,-56.5 529,-97.5 642,-97.5 642,-56.5 529,-56.5"/>
<text text-anchor="start" x="537" y="-85.5" font-family="Helvetica,sans-Serif" font-size="10.00">include/depz/stereo</text>
<text text-anchor="start" x="537" y="-74.5" font-family="Helvetica,sans-Serif" font-size="10.00">/camera_calibration</text>
<text text-anchor="middle" x="585.5" y="-63.5" font-family="Helvetica,sans-Serif" font-size="10.00">_web_loader.h</text>
</a>
</g>
</g>
<!-- Node1&#45;&gt;Node6 -->
<g id="edge6" class="edge">
<title>Node1&#45;&gt;Node6</title>
<path fill="none" stroke="midnightblue" d="M415.12,-131.39C449.59,-120.59 494.02,-106.66 528.86,-95.75"/>
<polygon fill="midnightblue" stroke="midnightblue" points="413.72,-128.16 405.22,-134.49 415.81,-134.84 413.72,-128.16"/>
</g>
<!-- Node5&#45;&gt;Node4 -->
<g id="edge5" class="edge">
<title>Node5&#45;&gt;Node4</title>
<path fill="none" stroke="midnightblue" d="M449.5,-51.75C449.5,-40.52 449.5,-27.88 449.5,-19.69"/>
<polygon fill="midnightblue" stroke="midnightblue" points="446,-51.9 449.5,-61.9 453,-51.9 446,-51.9"/>
</g>
<!-- Node6&#45;&gt;Node4 -->
<g id="edge7" class="edge">
<title>Node6&#45;&gt;Node4</title>
<path fill="none" stroke="midnightblue" d="M535.45,-52.08C511.74,-40.75 484.89,-27.91 467.6,-19.65"/>
<polygon fill="midnightblue" stroke="midnightblue" points="534.16,-55.34 544.7,-56.5 537.18,-49.03 534.16,-55.34"/>
</g>
</g>
</svg>
