<?xml version="1.0" encoding="UTF-8" standalone="no"?>
<!DOCTYPE svg PUBLIC "-//W3C//DTD SVG 1.1//EN"
 "http://www.w3.org/Graphics/SVG/1.1/DTD/svg11.dtd">
<!-- Generated by graphviz version 2.43.0 (0)
 -->
<!-- Title: include/depz/stereo/stereo_depth.h Pages: 1 -->
<svg width="262pt" height="151pt"
 viewBox="0.00 0.00 262.00 151.00" xmlns="http://www.w3.org/2000/svg" xmlns:xlink="http://www.w3.org/1999/xlink">
<g id="graph0" class="graph" transform="scale(1 1) rotate(0) translate(4 147)">
<title>include/depz/stereo/stereo_depth.h</title>
<polygon fill="white" stroke="transparent" points="-4,4 -4,-147 258,-147 258,4 -4,4"/>
<!-- Node1 -->
<g id="node1" class="node">
<title>Node1</title>
<g id="a_node1"><a xlink:title=" ">
<polygon fill="#bfbfbf" stroke="black" points="86,-112.5 86,-142.5 198,-142.5 198,-112.5 86,-112.5"/>
<text text-anchor="start" x="94" y="-130.5" font-family="Helvetica,sans-Serif" font-size="10.00">include/depz/stereo</text>
<text text-anchor="middle" x="142" y="-119.5" font-family="Helvetica,sans-Serif" font-size="10.00">/stereo_depth.h</text>
</a>
</g>
</g>
<!-- Node2 -->
<g id="node2" class="node">
<title>Node2</title>
<g id="a_node2"><a xlink:href="istereo__inference_8h.html" target="_top" xlink:title=" ">
<polygon fill="white" stroke="black" points="87,-56.5 87,-75.5 197,-75.5 197,-56.5 87,-56.5"/>
<text text-anchor="middle" x="142" y="-63.5" font-family="Helvetica,sans-Serif" font-size="10.00">istereo_inference.h</text>
</a>
</g>
</g>
<!-- Node1&#45;&gt;Node2 -->
<g id="edge1" class="edge">
<title>Node1&#45;&gt;Node2</title>
<path fill="none" stroke="midnightblue" d="M142,-112.4C142,-104.47 142,-94.46 142,-85.86"/>
<polygon fill="midnightblue" stroke="midnightblue" points="145.5,-85.66 142,-75.66 138.5,-85.66 145.5,-85.66"/>
</g>
<!-- Node3 -->
<g id="node3" class="node">
<title>Node3</title>
<g id="a_node3"><a xlink:title=" ">
<polygon fill="white" stroke="#bfbfbf" points="0,-0.5 0,-19.5 116,-19.5 116,-0.5 0,-0.5"/>
<text text-anchor="middle" x="58" y="-7.5" font-family="Helvetica,sans-Serif" font-size="10.00">opencv2/opencv.hpp</text>
</a>
</g>
</g>
<!-- Node1&#45;&gt;Node3 -->
<g id="edge6" class="edge">
<title>Node1&#45;&gt;Node3</title>
<path fill="none" stroke="midnightblue" d="M117.68,-112.46C104.24,-103.57 88.24,-90.95 78,-76 68.51,-62.15 63.39,-43.63 60.72,-29.91"/>
<polygon fill="midnightblue" stroke="midnightblue" points="64.11,-28.99 59,-19.71 57.21,-30.15 64.11,-28.99"/>
</g>
<!-- Node5 -->
<g id="node5" class="node">
<title>Node5</title>
<g id="a_node5"><a xlink:title=" ">
<polygon fill="white" stroke="#bfbfbf" points="196,-0.5 196,-19.5 254,-19.5 254,-0.5 196,-0.5"/>
<text text-anchor="middle" x="225" y="-7.5" font-family="Helvetica,sans-Serif" font-size="10.00">memory</text>
</a>
</g>
</g>
<!-- Node1&#45;&gt;Node5 -->
<g id="edge5" class="edge">
<title>Node1&#45;&gt;Node5</title>
<path fill="none" stroke="midnightblue" d="M166.72,-112.3C180.12,-103.45 195.95,-90.9 206,-76 215.35,-62.14 220.18,-43.63 222.62,-29.9"/>
<polygon fill="midnightblue" stroke="midnightblue" points="226.12,-30.12 224.16,-19.71 219.2,-29.07 226.12,-30.12"/>
</g>
<!-- Node2&#45;&gt;Node3 -->
<g id="edge2" class="edge">
<title>Node2&#45;&gt;Node3</title>
<path fill="none" stroke="midnightblue" d="M128.5,-56.32C115.4,-47.9 95.29,-34.97 79.89,-25.07"/>
<polygon fill="midnightblue" stroke="midnightblue" points="81.77,-22.12 71.46,-19.65 77.98,-28.01 81.77,-22.12"/>
</g>
<!-- Node4 -->
<g id="node4" class="node">
<title>Node4</title>
<g id="a_node4"><a xlink:title=" ">
<polygon fill="white" stroke="#bfbfbf" points="134,-0.5 134,-19.5 178,-19.5 178,-0.5 134,-0.5"/>
<text text-anchor="middle" x="156" y="-7.5" font-family="Helvetica,sans-Serif" font-size="10.00">string</text>
</a>
</g>
</g>
<!-- Node2&#45;&gt;Node4 -->
<g id="edge3" class="edge">
<title>Node2&#45;&gt;Node4</title>
<path fill="none" stroke="midnightblue" d="M144.31,-56.08C146.17,-48.93 148.84,-38.64 151.15,-29.69"/>
<polygon fill="midnightblue" stroke="midnightblue" points="154.61,-30.31 153.73,-19.75 147.83,-28.55 154.61,-30.31"/>
</g>
<!-- Node2&#45;&gt;Node5 -->
<g id="edge4" class="edge">
<title>Node2&#45;&gt;Node5</title>
<path fill="none" stroke="midnightblue" d="M155.34,-56.32C168.16,-47.98 187.78,-35.21 202.94,-25.35"/>
<polygon fill="midnightblue" stroke="midnightblue" points="205.22,-28.04 211.7,-19.65 201.41,-22.17 205.22,-28.04"/>
</g>
</g>
</svg>
