<?xml version="1.0" encoding="UTF-8" standalone="no"?>
<!DOCTYPE svg PUBLIC "-//W3C//DTD SVG 1.1//EN"
 "http://www.w3.org/Graphics/SVG/1.1/DTD/svg11.dtd">
<!-- Generated by graphviz version 2.43.0 (0)
 -->
<!-- Title: include/depz/core/pipeline/stereo_pipeline.hpp Pages: 1 -->
<svg width="1015pt" height="229pt"
 viewBox="0.00 0.00 1015.49 229.00" xmlns="http://www.w3.org/2000/svg" xmlns:xlink="http://www.w3.org/1999/xlink">
<g id="graph0" class="graph" transform="scale(1 1) rotate(0) translate(4 225)">
<title>include/depz/core/pipeline/stereo_pipeline.hpp</title>
<polygon fill="white" stroke="transparent" points="-4,4 -4,-225 1011.49,-225 1011.49,4 -4,4"/>
<!-- Node1 -->
<g id="node1" class="node">
<title>Node1</title>
<g id="a_node1"><a xlink:title=" ">
<polygon fill="#bfbfbf" stroke="black" points="366.99,-190.5 366.99,-220.5 510.99,-220.5 510.99,-190.5 366.99,-190.5"/>
<text text-anchor="start" x="374.99" y="-208.5" font-family="Helvetica,sans-Serif" font-size="10.00">include/depz/core/pipeline</text>
<text text-anchor="middle" x="438.99" y="-197.5" font-family="Helvetica,sans-Serif" font-size="10.00">/stereo_pipeline.hpp</text>
</a>
</g>
</g>
<!-- Node2 -->
<g id="node2" class="node">
<title>Node2</title>
<g id="a_node2"><a xlink:href="camera__identity__resolver_8h.html" target="_top" xlink:title="Cross&#45;OS camera identity resolution from driver / sysfs metadata.">
<polygon fill="white" stroke="black" points="17.49,-123.5 17.49,-153.5 136.49,-153.5 136.49,-123.5 17.49,-123.5"/>
<text text-anchor="start" x="25.49" y="-141.5" font-family="Helvetica,sans-Serif" font-size="10.00">depz/camera/camera</text>
<text text-anchor="middle" x="76.99" y="-130.5" font-family="Helvetica,sans-Serif" font-size="10.00">_identity_resolver.h</text>
</a>
</g>
</g>
<!-- Node1&#45;&gt;Node2 -->
<g id="edge1" class="edge">
<title>Node1&#45;&gt;Node2</title>
<path fill="none" stroke="midnightblue" d="M366.72,-192.24C308.43,-182.25 224.36,-167.62 150.99,-154 149.55,-153.73 148.08,-153.46 146.61,-153.18"/>
<polygon fill="midnightblue" stroke="midnightblue" points="147.23,-149.74 136.75,-151.31 145.92,-156.61 147.23,-149.74"/>
</g>
<!-- Node3 -->
<g id="node3" class="node">
<title>Node3</title>
<g id="a_node3"><a xlink:title=" ">
<polygon fill="white" stroke="#bfbfbf" points="160.99,-62 160.99,-81 218.99,-81 218.99,-62 160.99,-62"/>
<text text-anchor="middle" x="189.99" y="-69" font-family="Helvetica,sans-Serif" font-size="10.00">memory</text>
</a>
</g>
</g>
<!-- Node1&#45;&gt;Node3 -->
<g id="edge34" class="edge">
<title>Node1&#45;&gt;Node3</title>
<path fill="none" stroke="midnightblue" d="M366.71,-200.19C299.62,-194.49 206.77,-181.73 183.99,-154 169.54,-136.4 175.57,-108.84 182.08,-90.72"/>
<polygon fill="midnightblue" stroke="midnightblue" points="185.38,-91.87 185.81,-81.29 178.88,-89.29 185.38,-91.87"/>
</g>
<!-- Node4 -->
<g id="node4" class="node">
<title>Node4</title>
<g id="a_node4"><a xlink:title=" ">
<polygon fill="white" stroke="#bfbfbf" points="266.99,-0.5 266.99,-19.5 310.99,-19.5 310.99,-0.5 266.99,-0.5"/>
<text text-anchor="middle" x="288.99" y="-7.5" font-family="Helvetica,sans-Serif" font-size="10.00">string</text>
</a>
</g>
</g>
<!-- Node1&#45;&gt;Node4 -->
<g id="edge31" class="edge">
<title>Node1&#45;&gt;Node4</title>
<path fill="none" stroke="midnightblue" d="M366.57,-201.18C250,-195.09 31.37,-180.28 7.99,-154 -18.98,-123.68 32.34,-64.49 43.99,-56 77.47,-31.6 198.05,-18.52 256.62,-13.48"/>
<polygon fill="midnightblue" stroke="midnightblue" points="257.12,-16.95 266.8,-12.63 256.54,-9.97 257.12,-16.95"/>
</g>
<!-- Node6 -->
<g id="node6" class="node">
<title>Node6</title>
<g id="a_node6"><a xlink:href="iframesource_8h.html" target="_top" xlink:title=" ">
<polygon fill="white" stroke="black" points="275.99,-56.5 275.99,-86.5 381.99,-86.5 381.99,-56.5 275.99,-56.5"/>
<text text-anchor="start" x="283.99" y="-74.5" font-family="Helvetica,sans-Serif" font-size="10.00">depz/core/pipeline</text>
<text text-anchor="middle" x="328.99" y="-63.5" font-family="Helvetica,sans-Serif" font-size="10.00">/iframesource.h</text>
</a>
</g>
</g>
<!-- Node1&#45;&gt;Node6 -->
<g id="edge5" class="edge">
<title>Node1&#45;&gt;Node6</title>
<path fill="none" stroke="midnightblue" d="M399.49,-190.39C381.97,-182.27 362.52,-170.36 349.99,-154 337.34,-137.48 332.27,-114.11 330.26,-96.63"/>
<polygon fill="midnightblue" stroke="midnightblue" points="333.74,-96.27 329.36,-86.62 326.77,-96.89 333.74,-96.27"/>
</g>
<!-- Node7 -->
<g id="node7" class="node">
<title>Node7</title>
<g id="a_node7"><a xlink:title=" ">
<polygon fill="white" stroke="#bfbfbf" points="389.99,-0.5 389.99,-19.5 505.99,-19.5 505.99,-0.5 389.99,-0.5"/>
<text text-anchor="middle" x="447.99" y="-7.5" font-family="Helvetica,sans-Serif" font-size="10.00">opencv2/opencv.hpp</text>
</a>
</g>
</g>
<!-- Node1&#45;&gt;Node7 -->
<g id="edge30" class="edge">
<title>Node1&#45;&gt;Node7</title>
<path fill="none" stroke="midnightblue" d="M483.22,-190.44C500.34,-182.59 518.16,-170.89 527.99,-154 554.93,-107.74 499.04,-52.22 467.53,-26.05"/>
<polygon fill="midnightblue" stroke="midnightblue" points="469.73,-23.32 459.75,-19.76 465.33,-28.77 469.73,-23.32"/>
</g>
<!-- Node8 -->
<g id="node8" class="node">
<title>Node8</title>
<g id="a_node8"><a xlink:href="istereo__calibration__model_8h.html" target="_top" xlink:title=" ">
<polygon fill="white" stroke="black" points="575.49,-123.5 575.49,-153.5 694.49,-153.5 694.49,-123.5 575.49,-123.5"/>
<text text-anchor="start" x="583.49" y="-141.5" font-family="Helvetica,sans-Serif" font-size="10.00">depz/stereo/istereo</text>
<text text-anchor="middle" x="634.99" y="-130.5" font-family="Helvetica,sans-Serif" font-size="10.00">_calibration_model.h</text>
</a>
</g>
</g>
<!-- Node1&#45;&gt;Node8 -->
<g id="edge8" class="edge">
<title>Node1&#45;&gt;Node8</title>
<path fill="none" stroke="midnightblue" d="M481.52,-190.4C511.32,-180.52 551.31,-167.25 583,-156.74"/>
<polygon fill="midnightblue" stroke="midnightblue" points="584.16,-160.05 592.55,-153.58 581.95,-153.4 584.16,-160.05"/>
</g>
<!-- Node14 -->
<g id="node14" class="node">
<title>Node14</title>
<g id="a_node14"><a xlink:href="istereo__inference_8h.html" target="_top" xlink:title=" ">
<polygon fill="white" stroke="black" points="192.99,-123.5 192.99,-153.5 302.99,-153.5 302.99,-123.5 192.99,-123.5"/>
<text text-anchor="start" x="200.99" y="-141.5" font-family="Helvetica,sans-Serif" font-size="10.00">depz/stereo/istereo</text>
<text text-anchor="middle" x="247.99" y="-130.5" font-family="Helvetica,sans-Serif" font-size="10.00">_inference.h</text>
</a>
</g>
</g>
<!-- Node1&#45;&gt;Node14 -->
<g id="edge18" class="edge">
<title>Node1&#45;&gt;Node14</title>
<path fill="none" stroke="midnightblue" d="M397.55,-190.4C368.64,-180.56 329.88,-167.37 299.06,-156.88"/>
<polygon fill="midnightblue" stroke="midnightblue" points="299.95,-153.48 289.36,-153.58 297.7,-160.11 299.95,-153.48"/>
</g>
<!-- Node15 -->
<g id="node15" class="node">
<title>Node15</title>
<g id="a_node15"><a xlink:href="idepthfilter_8h.html" target="_top" xlink:title="Abstract interface for depth&#45;map and disparity&#45;map filters.">
<polygon fill="white" stroke="black" points="358.99,-129 358.99,-148 518.99,-148 518.99,-129 358.99,-129"/>
<text text-anchor="middle" x="438.99" y="-136" font-family="Helvetica,sans-Serif" font-size="10.00">depz/processing/idepthfilter.h</text>
</a>
</g>
</g>
<!-- Node1&#45;&gt;Node15 -->
<g id="edge22" class="edge">
<title>Node1&#45;&gt;Node15</title>
<path fill="none" stroke="midnightblue" d="M438.99,-190.4C438.99,-181.06 438.99,-168.71 438.99,-158.52"/>
<polygon fill="midnightblue" stroke="midnightblue" points="442.49,-158.19 438.99,-148.19 435.49,-158.19 442.49,-158.19"/>
</g>
<!-- Node16 -->
<g id="node16" class="node">
<title>Node16</title>
<g id="a_node16"><a xlink:href="block__queue_8hpp.html" target="_top" xlink:title=" ">
<polygon fill="white" stroke="black" points="712.49,-129 712.49,-148 861.49,-148 861.49,-129 712.49,-129"/>
<text text-anchor="middle" x="786.99" y="-136" font-family="Helvetica,sans-Serif" font-size="10.00">depz/utils/block_queue.hpp</text>
</a>
</g>
</g>
<!-- Node1&#45;&gt;Node16 -->
<g id="edge25" class="edge">
<title>Node1&#45;&gt;Node16</title>
<path fill="none" stroke="midnightblue" d="M511.1,-191.03C576.5,-178.82 671.55,-161.06 731.28,-149.91"/>
<polygon fill="midnightblue" stroke="midnightblue" points="732.09,-153.32 741.28,-148.04 730.81,-146.43 732.09,-153.32"/>
</g>
<!-- Node20 -->
<g id="node20" class="node">
<title>Node20</title>
<g id="a_node20"><a xlink:title=" ">
<polygon fill="white" stroke="#bfbfbf" points="878.99,-129 878.99,-148 926.99,-148 926.99,-129 878.99,-129"/>
<text text-anchor="middle" x="902.99" y="-136" font-family="Helvetica,sans-Serif" font-size="10.00">thread</text>
</a>
</g>
</g>
<!-- Node1&#45;&gt;Node20 -->
<g id="edge32" class="edge">
<title>Node1&#45;&gt;Node20</title>
<path fill="none" stroke="midnightblue" d="M511,-202.85C597.83,-199.32 747.49,-188.3 870.99,-154 873.14,-153.4 875.33,-152.68 877.5,-151.88"/>
<polygon fill="midnightblue" stroke="midnightblue" points="878.86,-155.11 886.75,-148.03 876.17,-148.64 878.86,-155.11"/>
</g>
<!-- Node21 -->
<g id="node21" class="node">
<title>Node21</title>
<g id="a_node21"><a xlink:title=" ">
<polygon fill="white" stroke="#bfbfbf" points="944.99,-129 944.99,-148 994.99,-148 994.99,-129 944.99,-129"/>
<text text-anchor="middle" x="969.99" y="-136" font-family="Helvetica,sans-Serif" font-size="10.00">atomic</text>
</a>
</g>
</g>
<!-- Node1&#45;&gt;Node21 -->
<g id="edge33" class="edge">
<title>Node1&#45;&gt;Node21</title>
<path fill="none" stroke="midnightblue" d="M511.38,-203.94C609.21,-201.65 788.39,-192.03 935.99,-154 938.35,-153.39 940.76,-152.65 943.15,-151.81"/>
<polygon fill="midnightblue" stroke="midnightblue" points="944.67,-154.98 952.7,-148.07 942.11,-148.46 944.67,-154.98"/>
</g>
<!-- Node2&#45;&gt;Node3 -->
<g id="edge2" class="edge">
<title>Node2&#45;&gt;Node3</title>
<path fill="none" stroke="midnightblue" d="M101.51,-123.4C120.73,-112.34 147.3,-97.06 166.3,-86.13"/>
<polygon fill="midnightblue" stroke="midnightblue" points="168.28,-89.03 175.2,-81.01 164.79,-82.96 168.28,-89.03"/>
</g>
<!-- Node2&#45;&gt;Node4 -->
<g id="edge3" class="edge">
<title>Node2&#45;&gt;Node4</title>
<path fill="none" stroke="midnightblue" d="M86.49,-123.35C99.32,-105.26 123.86,-74.12 151.99,-56 184.42,-35.12 227.44,-23.07 256.56,-16.79"/>
<polygon fill="midnightblue" stroke="midnightblue" points="257.52,-20.16 266.61,-14.73 256.11,-13.31 257.52,-20.16"/>
</g>
<!-- Node5 -->
<g id="node5" class="node">
<title>Node5</title>
<g id="a_node5"><a xlink:title=" ">
<polygon fill="white" stroke="#bfbfbf" points="53.49,-62 53.49,-81 100.49,-81 100.49,-62 53.49,-62"/>
<text text-anchor="middle" x="76.99" y="-69" font-family="Helvetica,sans-Serif" font-size="10.00">vector</text>
</a>
</g>
</g>
<!-- Node2&#45;&gt;Node5 -->
<g id="edge4" class="edge">
<title>Node2&#45;&gt;Node5</title>
<path fill="none" stroke="midnightblue" d="M76.99,-123.4C76.99,-114.06 76.99,-101.71 76.99,-91.52"/>
<polygon fill="midnightblue" stroke="midnightblue" points="80.49,-91.19 76.99,-81.19 73.49,-91.19 80.49,-91.19"/>
</g>
<!-- Node6&#45;&gt;Node4 -->
<g id="edge7" class="edge">
<title>Node6&#45;&gt;Node4</title>
<path fill="none" stroke="midnightblue" d="M319.51,-56.4C313.82,-47.93 306.54,-37.1 300.52,-28.14"/>
<polygon fill="midnightblue" stroke="midnightblue" points="303.3,-26 294.81,-19.66 297.49,-29.91 303.3,-26"/>
</g>
<!-- Node6&#45;&gt;Node7 -->
<g id="edge6" class="edge">
<title>Node6&#45;&gt;Node7</title>
<path fill="none" stroke="midnightblue" d="M357.2,-56.4C376.72,-46.64 402.52,-33.74 421.63,-24.18"/>
<polygon fill="midnightblue" stroke="midnightblue" points="423.3,-27.26 430.68,-19.66 420.17,-21 423.3,-27.26"/>
</g>
<!-- Node8&#45;&gt;Node4 -->
<g id="edge17" class="edge">
<title>Node8&#45;&gt;Node4</title>
<path fill="none" stroke="midnightblue" d="M596.64,-123.48C527.83,-98.32 384.65,-45.97 320.85,-22.65"/>
<polygon fill="midnightblue" stroke="midnightblue" points="321.92,-19.31 311.32,-19.16 319.51,-25.88 321.92,-19.31"/>
</g>
<!-- Node8&#45;&gt;Node7 -->
<g id="edge16" class="edge">
<title>Node8&#45;&gt;Node7</title>
<path fill="none" stroke="midnightblue" d="M620.41,-123.34C602.15,-106.08 569.43,-76.65 537.99,-56 518.9,-43.46 495.83,-31.98 477.82,-23.76"/>
<polygon fill="midnightblue" stroke="midnightblue" points="478.96,-20.44 468.4,-19.54 476.1,-26.83 478.96,-20.44"/>
</g>
<!-- Node9 -->
<g id="node9" class="node">
<title>Node9</title>
<g id="a_node9"><a xlink:href="iparameter__store_8h.html" target="_top" xlink:title="Type&#45;erased key/value parameter store interface.">
<polygon fill="white" stroke="black" points="590.49,-56.5 590.49,-86.5 711.49,-86.5 711.49,-56.5 590.49,-56.5"/>
<text text-anchor="start" x="598.49" y="-74.5" font-family="Helvetica,sans-Serif" font-size="10.00">depz/core/iparameter</text>
<text text-anchor="middle" x="650.99" y="-63.5" font-family="Helvetica,sans-Serif" font-size="10.00">_store.h</text>
</a>
</g>
</g>
<!-- Node8&#45;&gt;Node9 -->
<g id="edge9" class="edge">
<title>Node8&#45;&gt;Node9</title>
<path fill="none" stroke="midnightblue" d="M638.47,-123.4C640.39,-115.56 642.85,-105.6 645.07,-96.57"/>
<polygon fill="midnightblue" stroke="midnightblue" points="648.54,-97.12 647.53,-86.58 641.74,-95.45 648.54,-97.12"/>
</g>
<!-- Node9&#45;&gt;Node4 -->
<g id="edge13" class="edge">
<title>Node9&#45;&gt;Node4</title>
<path fill="none" stroke="midnightblue" d="M590.4,-60.54C512.93,-47.81 381.61,-26.22 321.18,-16.29"/>
<polygon fill="midnightblue" stroke="midnightblue" points="321.52,-12.8 311.09,-14.63 320.38,-19.71 321.52,-12.8"/>
</g>
<!-- Node9&#45;&gt;Node7 -->
<g id="edge10" class="edge">
<title>Node9&#45;&gt;Node7</title>
<path fill="none" stroke="midnightblue" d="M603.14,-56.47C567.66,-46.08 519.91,-32.08 486.79,-22.37"/>
<polygon fill="midnightblue" stroke="midnightblue" points="487.6,-18.96 477.02,-19.51 485.63,-25.68 487.6,-18.96"/>
</g>
<!-- Node10 -->
<g id="node10" class="node">
<title>Node10</title>
<g id="a_node10"><a xlink:title=" ">
<polygon fill="white" stroke="#bfbfbf" points="523.99,-0.5 523.99,-19.5 573.99,-19.5 573.99,-0.5 523.99,-0.5"/>
<text text-anchor="middle" x="548.99" y="-7.5" font-family="Helvetica,sans-Serif" font-size="10.00">cstdint</text>
</a>
</g>
</g>
<!-- Node9&#45;&gt;Node10 -->
<g id="edge11" class="edge">
<title>Node9&#45;&gt;Node10</title>
<path fill="none" stroke="midnightblue" d="M626.82,-56.4C610.47,-46.86 588.98,-34.32 572.72,-24.84"/>
<polygon fill="midnightblue" stroke="midnightblue" points="574.24,-21.67 563.84,-19.66 570.71,-27.72 574.24,-21.67"/>
</g>
<!-- Node11 -->
<g id="node11" class="node">
<title>Node11</title>
<g id="a_node11"><a xlink:title=" ">
<polygon fill="white" stroke="#bfbfbf" points="748.99,-0.5 748.99,-19.5 804.99,-19.5 804.99,-0.5 748.99,-0.5"/>
<text text-anchor="middle" x="776.99" y="-7.5" font-family="Helvetica,sans-Serif" font-size="10.00">optional</text>
</a>
</g>
</g>
<!-- Node9&#45;&gt;Node11 -->
<g id="edge12" class="edge">
<title>Node9&#45;&gt;Node11</title>
<path fill="none" stroke="midnightblue" d="M680.85,-56.4C701.62,-46.59 729.09,-33.62 749.35,-24.05"/>
<polygon fill="midnightblue" stroke="midnightblue" points="751.11,-27.09 758.66,-19.66 748.12,-20.76 751.11,-27.09"/>
</g>
<!-- Node12 -->
<g id="node12" class="node">
<title>Node12</title>
<g id="a_node12"><a xlink:title=" ">
<polygon fill="white" stroke="#bfbfbf" points="592.49,-0.5 592.49,-19.5 661.49,-19.5 661.49,-0.5 592.49,-0.5"/>
<text text-anchor="middle" x="626.99" y="-7.5" font-family="Helvetica,sans-Serif" font-size="10.00">type_traits</text>
</a>
</g>
</g>
<!-- Node9&#45;&gt;Node12 -->
<g id="edge14" class="edge">
<title>Node9&#45;&gt;Node12</title>
<path fill="none" stroke="midnightblue" d="M645.31,-56.4C642,-48.2 637.8,-37.78 634.25,-28.99"/>
<polygon fill="midnightblue" stroke="midnightblue" points="637.47,-27.62 630.49,-19.66 630.98,-30.24 637.47,-27.62"/>
</g>
<!-- Node13 -->
<g id="node13" class="node">
<title>Node13</title>
<g id="a_node13"><a xlink:title=" ">
<polygon fill="white" stroke="#bfbfbf" points="679.49,-0.5 679.49,-19.5 730.49,-19.5 730.49,-0.5 679.49,-0.5"/>
<text text-anchor="middle" x="704.99" y="-7.5" font-family="Helvetica,sans-Serif" font-size="10.00">variant</text>
</a>
</g>
</g>
<!-- Node9&#45;&gt;Node13 -->
<g id="edge15" class="edge">
<title>Node9&#45;&gt;Node13</title>
<path fill="none" stroke="midnightblue" d="M663.79,-56.4C671.72,-47.66 681.93,-36.41 690.2,-27.3"/>
<polygon fill="midnightblue" stroke="midnightblue" points="693.01,-29.42 697.14,-19.66 687.82,-24.71 693.01,-29.42"/>
</g>
<!-- Node14&#45;&gt;Node3 -->
<g id="edge21" class="edge">
<title>Node14&#45;&gt;Node3</title>
<path fill="none" stroke="midnightblue" d="M235.41,-123.4C226.37,-113.26 214.15,-99.57 204.66,-88.94"/>
<polygon fill="midnightblue" stroke="midnightblue" points="207.02,-86.33 197.75,-81.19 201.8,-90.99 207.02,-86.33"/>
</g>
<!-- Node14&#45;&gt;Node4 -->
<g id="edge20" class="edge">
<title>Node14&#45;&gt;Node4</title>
<path fill="none" stroke="midnightblue" d="M250.28,-123.38C253.19,-106.91 258.81,-79 266.99,-56 270.31,-46.68 275.02,-36.76 279.24,-28.61"/>
<polygon fill="midnightblue" stroke="midnightblue" points="282.37,-30.18 284,-19.71 276.2,-26.87 282.37,-30.18"/>
</g>
<!-- Node14&#45;&gt;Node7 -->
<g id="edge19" class="edge">
<title>Node14&#45;&gt;Node7</title>
<path fill="none" stroke="midnightblue" d="M303.24,-126.1C331.41,-118.37 365.1,-106.01 390.99,-87 412.22,-71.41 429.14,-45.71 438.87,-28.57"/>
<polygon fill="midnightblue" stroke="midnightblue" points="442.04,-30.06 443.75,-19.6 435.89,-26.72 442.04,-30.06"/>
</g>
<!-- Node15&#45;&gt;Node3 -->
<g id="edge24" class="edge">
<title>Node15&#45;&gt;Node3</title>
<path fill="none" stroke="midnightblue" d="M406.19,-128.94C360.44,-117 277.65,-95.38 228.87,-82.65"/>
<polygon fill="midnightblue" stroke="midnightblue" points="229.56,-79.21 219,-80.07 227.8,-85.99 229.56,-79.21"/>
</g>
<!-- Node15&#45;&gt;Node7 -->
<g id="edge23" class="edge">
<title>Node15&#45;&gt;Node7</title>
<path fill="none" stroke="midnightblue" d="M439.61,-128.81C441.06,-108.49 444.68,-57.55 446.66,-29.78"/>
<polygon fill="midnightblue" stroke="midnightblue" points="450.15,-29.98 447.37,-19.76 443.17,-29.48 450.15,-29.98"/>
</g>
<!-- Node16&#45;&gt;Node11 -->
<g id="edge28" class="edge">
<title>Node16&#45;&gt;Node11</title>
<path fill="none" stroke="midnightblue" d="M780.57,-128.75C773.92,-119.09 763.96,-102.82 759.99,-87 755.08,-67.39 761.7,-44.77 768.06,-29.34"/>
<polygon fill="midnightblue" stroke="midnightblue" points="771.39,-30.48 772.28,-19.93 765,-27.62 771.39,-30.48"/>
</g>
<!-- Node17 -->
<g id="node17" class="node">
<title>Node17</title>
<g id="a_node17"><a xlink:title=" ">
<polygon fill="white" stroke="#bfbfbf" points="768.49,-62 768.49,-81 875.49,-81 875.49,-62 768.49,-62"/>
<text text-anchor="middle" x="821.99" y="-69" font-family="Helvetica,sans-Serif" font-size="10.00">condition_variable</text>
</a>
</g>
</g>
<!-- Node16&#45;&gt;Node17 -->
<g id="edge26" class="edge">
<title>Node16&#45;&gt;Node17</title>
<path fill="none" stroke="midnightblue" d="M791.71,-128.73C797.01,-118.89 805.75,-102.66 812.48,-90.16"/>
<polygon fill="midnightblue" stroke="midnightblue" points="815.69,-91.59 817.35,-81.13 809.53,-88.27 815.69,-91.59"/>
</g>
<!-- Node18 -->
<g id="node18" class="node">
<title>Node18</title>
<g id="a_node18"><a xlink:title=" ">
<polygon fill="white" stroke="#bfbfbf" points="893.99,-62 893.99,-81 941.99,-81 941.99,-62 893.99,-62"/>
<text text-anchor="middle" x="917.99" y="-69" font-family="Helvetica,sans-Serif" font-size="10.00">mutex</text>
</a>
</g>
</g>
<!-- Node16&#45;&gt;Node18 -->
<g id="edge27" class="edge">
<title>Node16&#45;&gt;Node18</title>
<path fill="none" stroke="midnightblue" d="M804.39,-128.87C826.61,-117.84 865.28,-98.66 891.25,-85.77"/>
<polygon fill="midnightblue" stroke="midnightblue" points="893.12,-88.75 900.53,-81.17 890.01,-82.48 893.12,-88.75"/>
</g>
<!-- Node19 -->
<g id="node19" class="node">
<title>Node19</title>
<g id="a_node19"><a xlink:title=" ">
<polygon fill="white" stroke="#bfbfbf" points="960.49,-62 960.49,-81 1007.49,-81 1007.49,-62 960.49,-62"/>
<text text-anchor="middle" x="983.99" y="-69" font-family="Helvetica,sans-Serif" font-size="10.00">queue</text>
</a>
</g>
</g>
<!-- Node16&#45;&gt;Node19 -->
<g id="edge29" class="edge">
<title>Node16&#45;&gt;Node19</title>
<path fill="none" stroke="midnightblue" d="M818.49,-128.97C851.77,-119.68 905.62,-103.89 950.99,-87 952.65,-86.38 954.34,-85.73 956.03,-85.05"/>
<polygon fill="midnightblue" stroke="midnightblue" points="957.78,-88.11 965.65,-81.01 955.07,-81.66 957.78,-88.11"/>
</g>
</g>
</svg>
