<?xml version="1.0" encoding="UTF-8" standalone="no"?>
<!DOCTYPE svg PUBLIC "-//W3C//DTD SVG 1.1//EN"
 "http://www.w3.org/Graphics/SVG/1.1/DTD/svg11.dtd">
<!-- Generated by graphviz version 2.43.0 (0)
 -->
<!-- Title: include/depz/stereo/stereocalibration.h Pages: 1 -->
<svg width="485pt" height="229pt"
 viewBox="0.00 0.00 485.00 229.00" xmlns="http://www.w3.org/2000/svg" xmlns:xlink="http://www.w3.org/1999/xlink">
<g id="graph0" class="graph" transform="scale(1 1) rotate(0) translate(4 225)">
<title>include/depz/stereo/stereocalibration.h</title>
<polygon fill="white" stroke="transparent" points="-4,4 -4,-225 481,-225 481,4 -4,4"/>
<!-- Node1 -->
<g id="node1" class="node">
<title>Node1</title>
<g id="a_node1"><a xlink:title="Stereo camera calibration: load, validate, rectify.">
<polygon fill="#bfbfbf" stroke="black" points="338,-190.5 338,-220.5 450,-220.5 450,-190.5 338,-190.5"/>
<text text-anchor="start" x="346" y="-208.5" font-family="Helvetica,sans-Serif" font-size="10.00">include/depz/stereo</text>
<text text-anchor="middle" x="394" y="-197.5" font-family="Helvetica,sans-Serif" font-size="10.00">/stereocalibration.h</text>
</a>
</g>
</g>
<!-- Node2 -->
<g id="node2" class="node">
<title>Node2</title>
<g id="a_node2"><a xlink:href="istereo__calibration__model_8h.html" target="_top" xlink:title=" ">
<polygon fill="white" stroke="black" points="227.5,-123.5 227.5,-153.5 346.5,-153.5 346.5,-123.5 227.5,-123.5"/>
<text text-anchor="start" x="235.5" y="-141.5" font-family="Helvetica,sans-Serif" font-size="10.00">depz/stereo/istereo</text>
<text text-anchor="middle" x="287" y="-130.5" font-family="Helvetica,sans-Serif" font-size="10.00">_calibration_model.h</text>
</a>
</g>
</g>
<!-- Node1&#45;&gt;Node2 -->
<g id="edge1" class="edge">
<title>Node1&#45;&gt;Node2</title>
<path fill="none" stroke="midnightblue" d="M370.78,-190.4C355.64,-181.2 335.67,-169.07 319.03,-158.95"/>
<polygon fill="midnightblue" stroke="midnightblue" points="320.54,-155.78 310.17,-153.58 316.9,-161.76 320.54,-155.78"/>
</g>
<!-- Node6 -->
<g id="node6" class="node">
<title>Node6</title>
<g id="a_node6"><a xlink:title=" ">
<polygon fill="white" stroke="#bfbfbf" points="359,-0.5 359,-19.5 415,-19.5 415,-0.5 359,-0.5"/>
<text text-anchor="middle" x="387" y="-7.5" font-family="Helvetica,sans-Serif" font-size="10.00">optional</text>
</a>
</g>
</g>
<!-- Node1&#45;&gt;Node6 -->
<g id="edge11" class="edge">
<title>Node1&#45;&gt;Node6</title>
<path fill="none" stroke="midnightblue" d="M393.49,-190.27C392.24,-155.94 389.08,-68.57 387.68,-29.9"/>
<polygon fill="midnightblue" stroke="midnightblue" points="391.17,-29.44 387.31,-19.58 384.17,-29.7 391.17,-29.44"/>
</g>
<!-- Node7 -->
<g id="node7" class="node">
<title>Node7</title>
<g id="a_node7"><a xlink:title=" ">
<polygon fill="white" stroke="#bfbfbf" points="433,-0.5 433,-19.5 477,-19.5 477,-0.5 433,-0.5"/>
<text text-anchor="middle" x="455" y="-7.5" font-family="Helvetica,sans-Serif" font-size="10.00">string</text>
</a>
</g>
</g>
<!-- Node1&#45;&gt;Node7 -->
<g id="edge12" class="edge">
<title>Node1&#45;&gt;Node7</title>
<path fill="none" stroke="midnightblue" d="M398.49,-190.27C409.35,-155.8 437.09,-67.81 449.2,-29.4"/>
<polygon fill="midnightblue" stroke="midnightblue" points="452.63,-30.17 452.3,-19.58 445.95,-28.06 452.63,-30.17"/>
</g>
<!-- Node3 -->
<g id="node3" class="node">
<title>Node3</title>
<g id="a_node3"><a xlink:href="iparameter__store_8h.html" target="_top" xlink:title="Type&#45;erased key/value parameter store interface.">
<polygon fill="white" stroke="black" points="206.5,-56.5 206.5,-86.5 327.5,-86.5 327.5,-56.5 206.5,-56.5"/>
<text text-anchor="start" x="214.5" y="-74.5" font-family="Helvetica,sans-Serif" font-size="10.00">depz/core/iparameter</text>
<text text-anchor="middle" x="267" y="-63.5" font-family="Helvetica,sans-Serif" font-size="10.00">_store.h</text>
</a>
</g>
</g>
<!-- Node2&#45;&gt;Node3 -->
<g id="edge2" class="edge">
<title>Node2&#45;&gt;Node3</title>
<path fill="none" stroke="midnightblue" d="M282.66,-123.4C280.22,-115.47 277.12,-105.38 274.31,-96.27"/>
<polygon fill="midnightblue" stroke="midnightblue" points="277.62,-95.1 271.33,-86.58 270.93,-97.16 277.62,-95.1"/>
</g>
<!-- Node4 -->
<g id="node4" class="node">
<title>Node4</title>
<g id="a_node4"><a xlink:title=" ">
<polygon fill="white" stroke="#bfbfbf" points="0,-0.5 0,-19.5 116,-19.5 116,-0.5 0,-0.5"/>
<text text-anchor="middle" x="58" y="-7.5" font-family="Helvetica,sans-Serif" font-size="10.00">opencv2/opencv.hpp</text>
</a>
</g>
</g>
<!-- Node2&#45;&gt;Node4 -->
<g id="edge9" class="edge">
<title>Node2&#45;&gt;Node4</title>
<path fill="none" stroke="midnightblue" d="M261.62,-123.48C217.25,-98.97 126.14,-48.64 82.44,-24.5"/>
<polygon fill="midnightblue" stroke="midnightblue" points="84.07,-21.4 73.62,-19.63 80.68,-27.53 84.07,-21.4"/>
</g>
<!-- Node2&#45;&gt;Node7 -->
<g id="edge10" class="edge">
<title>Node2&#45;&gt;Node7</title>
<path fill="none" stroke="midnightblue" d="M305.62,-123.48C337.48,-99.49 402.18,-50.77 434.98,-26.08"/>
<polygon fill="midnightblue" stroke="midnightblue" points="437.45,-28.6 443.33,-19.79 433.23,-23.01 437.45,-28.6"/>
</g>
<!-- Node3&#45;&gt;Node4 -->
<g id="edge3" class="edge">
<title>Node3&#45;&gt;Node4</title>
<path fill="none" stroke="midnightblue" d="M217.73,-56.47C181.05,-46.03 131.62,-31.96 97.51,-22.25"/>
<polygon fill="midnightblue" stroke="midnightblue" points="98.46,-18.88 87.88,-19.51 96.54,-25.61 98.46,-18.88"/>
</g>
<!-- Node5 -->
<g id="node5" class="node">
<title>Node5</title>
<g id="a_node5"><a xlink:title=" ">
<polygon fill="white" stroke="#bfbfbf" points="134,-0.5 134,-19.5 184,-19.5 184,-0.5 134,-0.5"/>
<text text-anchor="middle" x="159" y="-7.5" font-family="Helvetica,sans-Serif" font-size="10.00">cstdint</text>
</a>
</g>
</g>
<!-- Node3&#45;&gt;Node5 -->
<g id="edge4" class="edge">
<title>Node3&#45;&gt;Node5</title>
<path fill="none" stroke="midnightblue" d="M241.41,-56.4C223.93,-46.77 200.91,-34.09 183.64,-24.58"/>
<polygon fill="midnightblue" stroke="midnightblue" points="185.16,-21.42 174.71,-19.66 181.78,-27.55 185.16,-21.42"/>
</g>
<!-- Node3&#45;&gt;Node6 -->
<g id="edge5" class="edge">
<title>Node3&#45;&gt;Node6</title>
<path fill="none" stroke="midnightblue" d="M295.44,-56.4C315.12,-46.64 341.14,-33.74 360.41,-24.18"/>
<polygon fill="midnightblue" stroke="midnightblue" points="362.13,-27.24 369.54,-19.66 359.02,-20.96 362.13,-27.24"/>
</g>
<!-- Node3&#45;&gt;Node7 -->
<g id="edge6" class="edge">
<title>Node3&#45;&gt;Node7</title>
<path fill="none" stroke="midnightblue" d="M311.55,-56.4C345.89,-45.53 392.54,-30.77 423.19,-21.07"/>
<polygon fill="midnightblue" stroke="midnightblue" points="424.45,-24.34 432.93,-17.99 422.34,-17.67 424.45,-24.34"/>
</g>
<!-- Node8 -->
<g id="node8" class="node">
<title>Node8</title>
<g id="a_node8"><a xlink:title=" ">
<polygon fill="white" stroke="#bfbfbf" points="202.5,-0.5 202.5,-19.5 271.5,-19.5 271.5,-0.5 202.5,-0.5"/>
<text text-anchor="middle" x="237" y="-7.5" font-family="Helvetica,sans-Serif" font-size="10.00">type_traits</text>
</a>
</g>
</g>
<!-- Node3&#45;&gt;Node8 -->
<g id="edge7" class="edge">
<title>Node3&#45;&gt;Node8</title>
<path fill="none" stroke="midnightblue" d="M259.89,-56.4C255.71,-48.11 250.39,-37.55 245.93,-28.71"/>
<polygon fill="midnightblue" stroke="midnightblue" points="248.99,-27.01 241.37,-19.66 242.74,-30.16 248.99,-27.01"/>
</g>
<!-- Node9 -->
<g id="node9" class="node">
<title>Node9</title>
<g id="a_node9"><a xlink:title=" ">
<polygon fill="white" stroke="#bfbfbf" points="289.5,-0.5 289.5,-19.5 340.5,-19.5 340.5,-0.5 289.5,-0.5"/>
<text text-anchor="middle" x="315" y="-7.5" font-family="Helvetica,sans-Serif" font-size="10.00">variant</text>
</a>
</g>
</g>
<!-- Node3&#45;&gt;Node9 -->
<g id="edge8" class="edge">
<title>Node3&#45;&gt;Node9</title>
<path fill="none" stroke="midnightblue" d="M278.38,-56.4C285.35,-47.75 294.31,-36.64 301.63,-27.58"/>
<polygon fill="midnightblue" stroke="midnightblue" points="304.46,-29.64 308.02,-19.66 299.01,-25.24 304.46,-29.64"/>
</g>
</g>
</svg>
