<?xml version="1.0" encoding="UTF-8" standalone="no"?>
<!DOCTYPE svg PUBLIC "-//W3C//DTD SVG 1.1//EN"
 "http://www.w3.org/Graphics/SVG/1.1/DTD/svg11.dtd">
<!-- Generated by graphviz version 2.43.0 (0)
 -->
<!-- Title: stereocam::pipeline::CanvasSetup Pages: 1 -->
<svg width="260pt" height="117pt"
 viewBox="0.00 0.00 259.50 117.00" xmlns="http://www.w3.org/2000/svg" xmlns:xlink="http://www.w3.org/1999/xlink">
<g id="graph0" class="graph" transform="scale(1 1) rotate(0) translate(4 113)">
<title>stereocam::pipeline::CanvasSetup</title>
<polygon fill="white" stroke="transparent" points="-4,4 -4,-113 255.5,-113 255.5,4 -4,4"/>
<!-- Node1 -->
<g id="node1" class="node">
<title>Node1</title>
<g id="a_node1"><a xlink:title="All calibration data the worker loop needs for one canvas resolution.">
<polygon fill="#bfbfbf" stroke="black" points="70.5,-0.5 70.5,-30.5 183.5,-30.5 183.5,-0.5 70.5,-0.5"/>
<text text-anchor="start" x="78.5" y="-18.5" font-family="Helvetica,sans-Serif" font-size="10.00">stereocam::pipeline</text>
<text text-anchor="middle" x="127" y="-7.5" font-family="Helvetica,sans-Serif" font-size="10.00">::CanvasSetup</text>
</a>
</g>
</g>
<!-- Node2 -->
<g id="node2" class="node">
<title>Node2</title>
<g id="a_node2"><a xlink:href="structstereocam_1_1inference_1_1CanvasLayoutView.html" target="_top" xlink:title="Per&#45;frame letter/pillar&#45;box layout of the valid image inside the canvas.">
<polygon fill="white" stroke="black" points="0,-78.5 0,-108.5 120,-108.5 120,-78.5 0,-78.5"/>
<text text-anchor="start" x="8" y="-96.5" font-family="Helvetica,sans-Serif" font-size="10.00">stereocam::inference</text>
<text text-anchor="middle" x="60" y="-85.5" font-family="Helvetica,sans-Serif" font-size="10.00">::CanvasLayoutView</text>
</a>
</g>
</g>
<!-- Node2&#45;&gt;Node1 -->
<g id="edge1" class="edge">
<title>Node2&#45;&gt;Node1</title>
<path fill="none" stroke="#9a32cd" stroke-dasharray="5,2" d="M79.24,-70.67C90.56,-57.83 104.55,-41.97 114.45,-30.73"/>
<polygon fill="#9a32cd" stroke="#9a32cd" points="76.59,-68.39 72.6,-78.2 81.84,-73.02 76.59,-68.39"/>
<text text-anchor="middle" x="115" y="-52" font-family="Helvetica,sans-Serif" font-size="10.00"> layout</text>
</g>
<!-- Node3 -->
<g id="node3" class="node">
<title>Node3</title>
<g id="a_node3"><a xlink:href="structstereocam_1_1pipeline_1_1CalibrationScalars.html" target="_top" xlink:title="Calibration scalars consumed by the disparity→depth→cloud chain.">
<polygon fill="white" stroke="black" points="138.5,-78.5 138.5,-108.5 251.5,-108.5 251.5,-78.5 138.5,-78.5"/>
<text text-anchor="start" x="146.5" y="-96.5" font-family="Helvetica,sans-Serif" font-size="10.00">stereocam::pipeline</text>
<text text-anchor="middle" x="195" y="-85.5" font-family="Helvetica,sans-Serif" font-size="10.00">::CalibrationScalars</text>
</a>
</g>
</g>
<!-- Node3&#45;&gt;Node1 -->
<g id="edge2" class="edge">
<title>Node3&#45;&gt;Node1</title>
<path fill="none" stroke="#9a32cd" stroke-dasharray="5,2" d="M175.47,-70.67C163.98,-57.83 149.78,-41.97 139.73,-30.73"/>
<polygon fill="#9a32cd" stroke="#9a32cd" points="172.93,-73.09 182.21,-78.2 178.15,-68.42 172.93,-73.09"/>
<text text-anchor="middle" x="184" y="-52" font-family="Helvetica,sans-Serif" font-size="10.00"> scalars</text>
</g>
</g>
</svg>
