<?xml version="1.0" encoding="UTF-8" standalone="no"?>
<!DOCTYPE svg PUBLIC "-//W3C//DTD SVG 1.1//EN"
 "http://www.w3.org/Graphics/SVG/1.1/DTD/svg11.dtd">
<!-- Generated by graphviz version 2.43.0 (0)
 -->
<!-- Title: stereocam::StereoCameraParams Pages: 1 -->
<svg width="188pt" height="106pt"
 viewBox="0.00 0.00 188.00 106.00" xmlns="http://www.w3.org/2000/svg" xmlns:xlink="http://www.w3.org/1999/xlink">
<g id="graph0" class="graph" transform="scale(1 1) rotate(0) translate(4 102)">
<title>stereocam::StereoCameraParams</title>
<polygon fill="white" stroke="transparent" points="-4,4 -4,-102 184,-102 184,4 -4,4"/>
<!-- Node1 -->
<g id="node1" class="node">
<title>Node1</title>
<g id="a_node1"><a xlink:title="Stereo camera rig parameters.">
<polygon fill="#bfbfbf" stroke="black" points="0,-0.5 0,-19.5 180,-19.5 180,-0.5 0,-0.5"/>
<text text-anchor="middle" x="90" y="-7.5" font-family="Helvetica,sans-Serif" font-size="10.00">stereocam::StereoCameraParams</text>
</a>
</g>
</g>
<!-- Node2 -->
<g id="node2" class="node">
<title>Node2</title>
<g id="a_node2"><a xlink:href="structstereocam_1_1CameraIntrinsics.html" target="_top" xlink:title="Pinhole camera intrinsic parameters.">
<polygon fill="white" stroke="black" points="11.5,-78.5 11.5,-97.5 168.5,-97.5 168.5,-78.5 11.5,-78.5"/>
<text text-anchor="middle" x="90" y="-85.5" font-family="Helvetica,sans-Serif" font-size="10.00">stereocam::CameraIntrinsics</text>
</a>
</g>
</g>
<!-- Node2&#45;&gt;Node1 -->
<g id="edge1" class="edge">
<title>Node2&#45;&gt;Node1</title>
<path fill="none" stroke="#9a32cd" stroke-dasharray="5,2" d="M90,-68.22C90,-52.7 90,-31.36 90,-19.62"/>
<polygon fill="#9a32cd" stroke="#9a32cd" points="86.5,-68.28 90,-78.28 93.5,-68.28 86.5,-68.28"/>
<text text-anchor="middle" x="101.5" y="-52" font-family="Helvetica,sans-Serif" font-size="10.00"> left</text>
<text text-anchor="middle" x="101.5" y="-41" font-family="Helvetica,sans-Serif" font-size="10.00">right</text>
</g>
</g>
</svg>
