<?xml version="1.0" encoding="UTF-8" standalone="no"?>
<!DOCTYPE svg PUBLIC "-//W3C//DTD SVG 1.1//EN"
 "http://www.w3.org/Graphics/SVG/1.1/DTD/svg11.dtd">
<!-- Generated by graphviz version 2.43.0 (0)
 -->
<!-- Title: include/depz/core/engines/tensorrt_engine_adapter.h Pages: 1 -->
<svg width="544pt" height="162pt"
 viewBox="0.00 0.00 543.50 162.00" xmlns="http://www.w3.org/2000/svg" xmlns:xlink="http://www.w3.org/1999/xlink">
<g id="graph0" class="graph" transform="scale(1 1) rotate(0) translate(4 158)">
<title>include/depz/core/engines/tensorrt_engine_adapter.h</title>
<polygon fill="white" stroke="transparent" points="-4,4 -4,-158 539.5,-158 539.5,4 -4,4"/>
<!-- Node1 -->
<g id="node1" class="node">
<title>Node1</title>
<g id="a_node1"><a xlink:title="Native NVIDIA TensorRT backend implementing InferenceEngine.">
<polygon fill="#bfbfbf" stroke="black" points="186,-123.5 186,-153.5 333,-153.5 333,-123.5 186,-123.5"/>
<text text-anchor="start" x="194" y="-141.5" font-family="Helvetica,sans-Serif" font-size="10.00">include/depz/core/engines</text>
<text text-anchor="middle" x="259.5" y="-130.5" font-family="Helvetica,sans-Serif" font-size="10.00">/tensorrt_engine_adapter.h</text>
</a>
</g>
</g>
<!-- Node2 -->
<g id="node2" class="node">
<title>Node2</title>
<g id="a_node2"><a xlink:href="iinference__engine_8h.html" target="_top" xlink:title="Backend&#45;agnostic ML inference engine interface (Adapter pattern).">
<polygon fill="white" stroke="black" points="36,-56.5 36,-86.5 193,-86.5 193,-56.5 36,-56.5"/>
<text text-anchor="start" x="44" y="-74.5" font-family="Helvetica,sans-Serif" font-size="10.00">depz/core/engines/iinference</text>
<text text-anchor="middle" x="114.5" y="-63.5" font-family="Helvetica,sans-Serif" font-size="10.00">_engine.h</text>
</a>
</g>
</g>
<!-- Node1&#45;&gt;Node2 -->
<g id="edge1" class="edge">
<title>Node1&#45;&gt;Node2</title>
<path fill="none" stroke="midnightblue" d="M228.04,-123.4C206.66,-113.81 178.19,-101.05 155.1,-90.7"/>
<polygon fill="midnightblue" stroke="midnightblue" points="156.46,-87.47 145.9,-86.58 153.59,-93.86 156.46,-87.47"/>
</g>
<!-- Node3 -->
<g id="node3" class="node">
<title>Node3</title>
<g id="a_node3"><a xlink:title=" ">
<polygon fill="white" stroke="#bfbfbf" points="0,-0.5 0,-19.5 53,-19.5 53,-0.5 0,-0.5"/>
<text text-anchor="middle" x="26.5" y="-7.5" font-family="Helvetica,sans-Serif" font-size="10.00">cstddef</text>
</a>
</g>
</g>
<!-- Node1&#45;&gt;Node3 -->
<g id="edge8" class="edge">
<title>Node1&#45;&gt;Node3</title>
<path fill="none" stroke="midnightblue" d="M185.76,-131.46C125.2,-124.78 46.31,-111.57 26.5,-87 13.59,-70.99 16.4,-46.31 20.57,-29.44"/>
<polygon fill="midnightblue" stroke="midnightblue" points="23.99,-30.24 23.36,-19.66 17.25,-28.32 23.99,-30.24"/>
</g>
<!-- Node5 -->
<g id="node5" class="node">
<title>Node5</title>
<g id="a_node5"><a xlink:title=" ">
<polygon fill="white" stroke="#bfbfbf" points="165.5,-0.5 165.5,-19.5 209.5,-19.5 209.5,-0.5 165.5,-0.5"/>
<text text-anchor="middle" x="187.5" y="-7.5" font-family="Helvetica,sans-Serif" font-size="10.00">string</text>
</a>
</g>
</g>
<!-- Node1&#45;&gt;Node5 -->
<g id="edge10" class="edge">
<title>Node1&#45;&gt;Node5</title>
<path fill="none" stroke="midnightblue" d="M251.52,-123.48C238.33,-100.31 212.02,-54.07 197.57,-28.69"/>
<polygon fill="midnightblue" stroke="midnightblue" points="200.49,-26.75 192.5,-19.79 194.41,-30.21 200.49,-26.75"/>
</g>
<!-- Node6 -->
<g id="node6" class="node">
<title>Node6</title>
<g id="a_node6"><a xlink:title=" ">
<polygon fill="white" stroke="#bfbfbf" points="232,-0.5 232,-19.5 279,-19.5 279,-0.5 232,-0.5"/>
<text text-anchor="middle" x="255.5" y="-7.5" font-family="Helvetica,sans-Serif" font-size="10.00">vector</text>
</a>
</g>
</g>
<!-- Node1&#45;&gt;Node6 -->
<g id="edge11" class="edge">
<title>Node1&#45;&gt;Node6</title>
<path fill="none" stroke="midnightblue" d="M259.06,-123.48C258.34,-100.72 256.91,-55.7 256.1,-30.06"/>
<polygon fill="midnightblue" stroke="midnightblue" points="259.59,-29.67 255.78,-19.79 252.6,-29.89 259.59,-29.67"/>
</g>
<!-- Node7 -->
<g id="node7" class="node">
<title>Node7</title>
<g id="a_node7"><a xlink:title=" ">
<polygon fill="white" stroke="#bfbfbf" points="288,-62 288,-81 349,-81 349,-62 288,-62"/>
<text text-anchor="middle" x="318.5" y="-69" font-family="Helvetica,sans-Serif" font-size="10.00">NvInfer.h</text>
</a>
</g>
</g>
<!-- Node1&#45;&gt;Node7 -->
<g id="edge6" class="edge">
<title>Node1&#45;&gt;Node7</title>
<path fill="none" stroke="midnightblue" d="M272.3,-123.4C281.59,-113.16 294.18,-99.3 303.87,-88.62"/>
<polygon fill="midnightblue" stroke="midnightblue" points="306.48,-90.95 310.61,-81.19 301.3,-86.25 306.48,-90.95"/>
</g>
<!-- Node8 -->
<g id="node8" class="node">
<title>Node8</title>
<g id="a_node8"><a xlink:title=" ">
<polygon fill="white" stroke="#bfbfbf" points="367.5,-62 367.5,-81 459.5,-81 459.5,-62 367.5,-62"/>
<text text-anchor="middle" x="413.5" y="-69" font-family="Helvetica,sans-Serif" font-size="10.00">cuda_runtime.h</text>
</a>
</g>
</g>
<!-- Node1&#45;&gt;Node8 -->
<g id="edge7" class="edge">
<title>Node1&#45;&gt;Node8</title>
<path fill="none" stroke="midnightblue" d="M292.92,-123.4C320.06,-111.94 357.97,-95.94 384,-84.95"/>
<polygon fill="midnightblue" stroke="midnightblue" points="385.49,-88.12 393.34,-81.01 382.77,-81.67 385.49,-88.12"/>
</g>
<!-- Node9 -->
<g id="node9" class="node">
<title>Node9</title>
<g id="a_node9"><a xlink:title=" ">
<polygon fill="white" stroke="#bfbfbf" points="477.5,-62 477.5,-81 535.5,-81 535.5,-62 477.5,-62"/>
<text text-anchor="middle" x="506.5" y="-69" font-family="Helvetica,sans-Serif" font-size="10.00">memory</text>
</a>
</g>
</g>
<!-- Node1&#45;&gt;Node9 -->
<g id="edge9" class="edge">
<title>Node1&#45;&gt;Node9</title>
<path fill="none" stroke="midnightblue" d="M327.39,-123.4C368.57,-114.27 421.97,-101.43 468.5,-87 470.92,-86.25 473.41,-85.42 475.9,-84.56"/>
<polygon fill="midnightblue" stroke="midnightblue" points="477.17,-87.82 485.36,-81.11 474.77,-81.25 477.17,-87.82"/>
</g>
<!-- Node2&#45;&gt;Node3 -->
<g id="edge2" class="edge">
<title>Node2&#45;&gt;Node3</title>
<path fill="none" stroke="midnightblue" d="M93.65,-56.4C79.8,-47.04 61.69,-34.79 47.76,-25.38"/>
<polygon fill="midnightblue" stroke="midnightblue" points="49.55,-22.36 39.3,-19.66 45.63,-28.16 49.55,-22.36"/>
</g>
<!-- Node4 -->
<g id="node4" class="node">
<title>Node4</title>
<g id="a_node4"><a xlink:title=" ">
<polygon fill="white" stroke="#bfbfbf" points="89.5,-0.5 89.5,-19.5 139.5,-19.5 139.5,-0.5 89.5,-0.5"/>
<text text-anchor="middle" x="114.5" y="-7.5" font-family="Helvetica,sans-Serif" font-size="10.00">cstdint</text>
</a>
</g>
</g>
<!-- Node2&#45;&gt;Node4 -->
<g id="edge3" class="edge">
<title>Node2&#45;&gt;Node4</title>
<path fill="none" stroke="midnightblue" d="M114.5,-56.4C114.5,-48.47 114.5,-38.46 114.5,-29.86"/>
<polygon fill="midnightblue" stroke="midnightblue" points="118,-29.66 114.5,-19.66 111,-29.66 118,-29.66"/>
</g>
<!-- Node2&#45;&gt;Node5 -->
<g id="edge4" class="edge">
<title>Node2&#45;&gt;Node5</title>
<path fill="none" stroke="midnightblue" d="M131.8,-56.4C142.95,-47.31 157.45,-35.49 168.86,-26.19"/>
<polygon fill="midnightblue" stroke="midnightblue" points="171.34,-28.69 176.88,-19.66 166.92,-23.26 171.34,-28.69"/>
</g>
<!-- Node2&#45;&gt;Node6 -->
<g id="edge5" class="edge">
<title>Node2&#45;&gt;Node6</title>
<path fill="none" stroke="midnightblue" d="M147.92,-56.4C171.47,-46.46 202.74,-33.26 225.49,-23.66"/>
<polygon fill="midnightblue" stroke="midnightblue" points="227.13,-26.77 234.98,-19.66 224.41,-20.32 227.13,-26.77"/>
</g>
</g>
</svg>
