<?xml version="1.0" encoding="UTF-8" standalone="no"?>
<!DOCTYPE svg PUBLIC "-//W3C//DTD SVG 1.1//EN"
 "http://www.w3.org/Graphics/SVG/1.1/DTD/svg11.dtd">
<!-- Generated by graphviz version 2.43.0 (0)
 -->
<!-- Title: include/depz/stereo/tensorrt_stereo_inference.h Pages: 1 -->
<svg width="642pt" height="151pt"
 viewBox="0.00 0.00 641.50 151.00" xmlns="http://www.w3.org/2000/svg" xmlns:xlink="http://www.w3.org/1999/xlink">
<g id="graph0" class="graph" transform="scale(1 1) rotate(0) translate(4 147)">
<title>include/depz/stereo/tensorrt_stereo_inference.h</title>
<polygon fill="white" stroke="transparent" points="-4,4 -4,-147 637.5,-147 637.5,4 -4,4"/>
<!-- Node1 -->
<g id="node1" class="node">
<title>Node1</title>
<g id="a_node1"><a xlink:title="TensorRT implementation of the legacy IStereoInference 2&#45;input API.">
<polygon fill="#bfbfbf" stroke="black" points="265,-112.5 265,-142.5 419,-142.5 419,-112.5 265,-112.5"/>
<text text-anchor="start" x="273" y="-130.5" font-family="Helvetica,sans-Serif" font-size="10.00">include/depz/stereo</text>
<text text-anchor="middle" x="342" y="-119.5" font-family="Helvetica,sans-Serif" font-size="10.00">/tensorrt_stereo_inference.h</text>
</a>
</g>
</g>
<!-- Node2 -->
<g id="node2" class="node">
<title>Node2</title>
<g id="a_node2"><a xlink:href="istereo__inference_8h.html" target="_top" xlink:title=" ">
<polygon fill="white" stroke="black" points="97,-56.5 97,-75.5 207,-75.5 207,-56.5 97,-56.5"/>
<text text-anchor="middle" x="152" y="-63.5" font-family="Helvetica,sans-Serif" font-size="10.00">istereo_inference.h</text>
</a>
</g>
</g>
<!-- Node1&#45;&gt;Node2 -->
<g id="edge1" class="edge">
<title>Node1&#45;&gt;Node2</title>
<path fill="none" stroke="midnightblue" d="M296.97,-112.4C264.14,-102.12 220.18,-88.35 189.3,-78.68"/>
<polygon fill="midnightblue" stroke="midnightblue" points="189.96,-75.22 179.37,-75.57 187.87,-81.9 189.96,-75.22"/>
</g>
<!-- Node5 -->
<g id="node5" class="node">
<title>Node5</title>
<g id="a_node5"><a xlink:title=" ">
<polygon fill="white" stroke="#bfbfbf" points="203,-0.5 203,-19.5 261,-19.5 261,-0.5 203,-0.5"/>
<text text-anchor="middle" x="232" y="-7.5" font-family="Helvetica,sans-Serif" font-size="10.00">memory</text>
</a>
</g>
</g>
<!-- Node1&#45;&gt;Node5 -->
<g id="edge8" class="edge">
<title>Node1&#45;&gt;Node5</title>
<path fill="none" stroke="midnightblue" d="M305.32,-112.33C288,-104.03 268.27,-92 255,-76 243.9,-62.62 238,-43.51 234.96,-29.47"/>
<polygon fill="midnightblue" stroke="midnightblue" points="238.38,-28.7 233.1,-19.51 231.5,-29.98 238.38,-28.7"/>
</g>
<!-- Node6 -->
<g id="node6" class="node">
<title>Node6</title>
<g id="a_node6"><a xlink:title=" ">
<polygon fill="white" stroke="#bfbfbf" points="263.5,-56.5 263.5,-75.5 324.5,-75.5 324.5,-56.5 263.5,-56.5"/>
<text text-anchor="middle" x="294" y="-63.5" font-family="Helvetica,sans-Serif" font-size="10.00">NvInfer.h</text>
</a>
</g>
</g>
<!-- Node1&#45;&gt;Node6 -->
<g id="edge5" class="edge">
<title>Node1&#45;&gt;Node6</title>
<path fill="none" stroke="midnightblue" d="M330.62,-112.4C323.65,-103.75 314.69,-92.64 307.37,-83.58"/>
<polygon fill="midnightblue" stroke="midnightblue" points="309.99,-81.24 300.98,-75.66 304.54,-85.64 309.99,-81.24"/>
</g>
<!-- Node7 -->
<g id="node7" class="node">
<title>Node7</title>
<g id="a_node7"><a xlink:title=" ">
<polygon fill="white" stroke="#bfbfbf" points="343,-56.5 343,-75.5 437,-75.5 437,-56.5 343,-56.5"/>
<text text-anchor="middle" x="390" y="-63.5" font-family="Helvetica,sans-Serif" font-size="10.00">NvOnnxParser.h</text>
</a>
</g>
</g>
<!-- Node1&#45;&gt;Node7 -->
<g id="edge6" class="edge">
<title>Node1&#45;&gt;Node7</title>
<path fill="none" stroke="midnightblue" d="M353.38,-112.4C360.35,-103.75 369.31,-92.64 376.63,-83.58"/>
<polygon fill="midnightblue" stroke="midnightblue" points="379.46,-85.64 383.02,-75.66 374.01,-81.24 379.46,-85.64"/>
</g>
<!-- Node8 -->
<g id="node8" class="node">
<title>Node8</title>
<g id="a_node8"><a xlink:title=" ">
<polygon fill="white" stroke="#bfbfbf" points="455.5,-56.5 455.5,-75.5 568.5,-75.5 568.5,-56.5 455.5,-56.5"/>
<text text-anchor="middle" x="512" y="-63.5" font-family="Helvetica,sans-Serif" font-size="10.00">cuda_runtime_api.h</text>
</a>
</g>
</g>
<!-- Node1&#45;&gt;Node8 -->
<g id="edge7" class="edge">
<title>Node1&#45;&gt;Node8</title>
<path fill="none" stroke="midnightblue" d="M382.29,-112.4C411.32,-102.24 450.08,-88.67 477.65,-79.02"/>
<polygon fill="midnightblue" stroke="midnightblue" points="478.98,-82.26 487.26,-75.66 476.67,-75.66 478.98,-82.26"/>
</g>
<!-- Node9 -->
<g id="node9" class="node">
<title>Node9</title>
<g id="a_node9"><a xlink:title=" ">
<polygon fill="white" stroke="#bfbfbf" points="586.5,-56.5 586.5,-75.5 633.5,-75.5 633.5,-56.5 586.5,-56.5"/>
<text text-anchor="middle" x="610" y="-63.5" font-family="Helvetica,sans-Serif" font-size="10.00">vector</text>
</a>
</g>
</g>
<!-- Node1&#45;&gt;Node9 -->
<g id="edge9" class="edge">
<title>Node1&#45;&gt;Node9</title>
<path fill="none" stroke="midnightblue" d="M413.27,-112.48C457.75,-103.44 516.41,-91 576.27,-76.32"/>
<polygon fill="midnightblue" stroke="midnightblue" points="577.41,-79.65 586.28,-73.85 575.73,-72.85 577.41,-79.65"/>
</g>
<!-- Node3 -->
<g id="node3" class="node">
<title>Node3</title>
<g id="a_node3"><a xlink:title=" ">
<polygon fill="white" stroke="#bfbfbf" points="0,-0.5 0,-19.5 116,-19.5 116,-0.5 0,-0.5"/>
<text text-anchor="middle" x="58" y="-7.5" font-family="Helvetica,sans-Serif" font-size="10.00">opencv2/opencv.hpp</text>
</a>
</g>
</g>
<!-- Node2&#45;&gt;Node3 -->
<g id="edge2" class="edge">
<title>Node2&#45;&gt;Node3</title>
<path fill="none" stroke="midnightblue" d="M136.9,-56.32C122.1,-47.82 99.31,-34.73 82.02,-24.8"/>
<polygon fill="midnightblue" stroke="midnightblue" points="83.48,-21.6 73.07,-19.65 79.99,-27.67 83.48,-21.6"/>
</g>
<!-- Node4 -->
<g id="node4" class="node">
<title>Node4</title>
<g id="a_node4"><a xlink:title=" ">
<polygon fill="white" stroke="#bfbfbf" points="134,-0.5 134,-19.5 178,-19.5 178,-0.5 134,-0.5"/>
<text text-anchor="middle" x="156" y="-7.5" font-family="Helvetica,sans-Serif" font-size="10.00">string</text>
</a>
</g>
</g>
<!-- Node2&#45;&gt;Node4 -->
<g id="edge3" class="edge">
<title>Node2&#45;&gt;Node4</title>
<path fill="none" stroke="midnightblue" d="M152.66,-56.08C153.18,-49.01 153.94,-38.86 154.59,-29.99"/>
<polygon fill="midnightblue" stroke="midnightblue" points="158.1,-29.98 155.35,-19.75 151.12,-29.47 158.1,-29.98"/>
</g>
<!-- Node2&#45;&gt;Node5 -->
<g id="edge4" class="edge">
<title>Node2&#45;&gt;Node5</title>
<path fill="none" stroke="midnightblue" d="M164.85,-56.32C177.22,-47.98 196.13,-35.21 210.74,-25.35"/>
<polygon fill="midnightblue" stroke="midnightblue" points="212.85,-28.15 219.18,-19.65 208.93,-22.35 212.85,-28.15"/>
</g>
</g>
</svg>
