<?xml version="1.0" encoding="UTF-8" standalone="no"?>
<!DOCTYPE svg PUBLIC "-//W3C//DTD SVG 1.1//EN"
 "http://www.w3.org/Graphics/SVG/1.1/DTD/svg11.dtd">
<!-- Generated by graphviz version 2.43.0 (0)
 -->
<!-- Title: include/depz/types.hpp Pages: 1 -->
<svg width="323pt" height="196pt"
 viewBox="0.00 0.00 322.50 196.00" xmlns="http://www.w3.org/2000/svg" xmlns:xlink="http://www.w3.org/1999/xlink">
<g id="graph0" class="graph" transform="scale(1 1) rotate(0) translate(4 192)">
<title>include/depz/types.hpp</title>
<polygon fill="white" stroke="transparent" points="-4,4 -4,-192 318.5,-192 318.5,4 -4,4"/>
<!-- Node1 -->
<g id="node1" class="node">
<title>Node1</title>
<g id="a_node1"><a xlink:title="Core SDK&#45;wide data structures and enumerations.">
<polygon fill="#bfbfbf" stroke="black" points="114,-168.5 114,-187.5 243,-187.5 243,-168.5 114,-168.5"/>
<text text-anchor="middle" x="178.5" y="-175.5" font-family="Helvetica,sans-Serif" font-size="10.00">include/depz/types.hpp</text>
</a>
</g>
</g>
<!-- Node2 -->
<g id="node2" class="node">
<title>Node2</title>
<g id="a_node2"><a xlink:href="vec3_8hpp.html" target="_top" xlink:title="3&#45;D single&#45;precision floating&#45;point vector.">
<polygon fill="white" stroke="black" points="16,-56.5 16,-75.5 105,-75.5 105,-56.5 16,-56.5"/>
<text text-anchor="middle" x="60.5" y="-63.5" font-family="Helvetica,sans-Serif" font-size="10.00">math/vec3.hpp</text>
</a>
</g>
</g>
<!-- Node1&#45;&gt;Node2 -->
<g id="edge1" class="edge">
<title>Node1&#45;&gt;Node2</title>
<path fill="none" stroke="midnightblue" d="M141.36,-168.35C120.47,-161.68 95.45,-150.4 79.5,-132 68.32,-119.1 63.71,-99.93 61.81,-85.74"/>
<polygon fill="midnightblue" stroke="midnightblue" points="65.28,-85.25 60.8,-75.65 58.32,-85.95 65.28,-85.25"/>
</g>
<!-- Node5 -->
<g id="node5" class="node">
<title>Node5</title>
<g id="a_node5"><a xlink:href="mat4_8hpp.html" target="_top" xlink:title="4×4 single&#45;precision floating&#45;point matrix.">
<polygon fill="white" stroke="black" points="88.5,-112.5 88.5,-131.5 180.5,-131.5 180.5,-112.5 88.5,-112.5"/>
<text text-anchor="middle" x="134.5" y="-119.5" font-family="Helvetica,sans-Serif" font-size="10.00">math/mat4.hpp</text>
</a>
</g>
</g>
<!-- Node1&#45;&gt;Node5 -->
<g id="edge4" class="edge">
<title>Node1&#45;&gt;Node5</title>
<path fill="none" stroke="midnightblue" d="M171.23,-168.08C164.96,-160.38 155.71,-149.03 148.07,-139.65"/>
<polygon fill="midnightblue" stroke="midnightblue" points="150.66,-137.29 141.63,-131.75 145.23,-141.71 150.66,-137.29"/>
</g>
<!-- Node7 -->
<g id="node7" class="node">
<title>Node7</title>
<g id="a_node7"><a xlink:title=" ">
<polygon fill="white" stroke="#bfbfbf" points="199,-112.5 199,-131.5 246,-131.5 246,-112.5 199,-112.5"/>
<text text-anchor="middle" x="222.5" y="-119.5" font-family="Helvetica,sans-Serif" font-size="10.00">vector</text>
</a>
</g>
</g>
<!-- Node1&#45;&gt;Node7 -->
<g id="edge7" class="edge">
<title>Node1&#45;&gt;Node7</title>
<path fill="none" stroke="midnightblue" d="M185.77,-168.08C192.04,-160.38 201.29,-149.03 208.93,-139.65"/>
<polygon fill="midnightblue" stroke="midnightblue" points="211.77,-141.71 215.37,-131.75 206.34,-137.29 211.77,-141.71"/>
</g>
<!-- Node8 -->
<g id="node8" class="node">
<title>Node8</title>
<g id="a_node8"><a xlink:title=" ">
<polygon fill="white" stroke="#bfbfbf" points="264.5,-112.5 264.5,-131.5 314.5,-131.5 314.5,-112.5 264.5,-112.5"/>
<text text-anchor="middle" x="289.5" y="-119.5" font-family="Helvetica,sans-Serif" font-size="10.00">cstdint</text>
</a>
</g>
</g>
<!-- Node1&#45;&gt;Node8 -->
<g id="edge8" class="edge">
<title>Node1&#45;&gt;Node8</title>
<path fill="none" stroke="midnightblue" d="M196.33,-168.32C214.22,-159.62 241.98,-146.12 262.55,-136.11"/>
<polygon fill="midnightblue" stroke="midnightblue" points="264.25,-139.18 271.71,-131.65 261.19,-132.88 264.25,-139.18"/>
</g>
<!-- Node3 -->
<g id="node3" class="node">
<title>Node3</title>
<g id="a_node3"><a xlink:title=" ">
<polygon fill="white" stroke="#bfbfbf" points="0,-0.5 0,-19.5 47,-19.5 47,-0.5 0,-0.5"/>
<text text-anchor="middle" x="23.5" y="-7.5" font-family="Helvetica,sans-Serif" font-size="10.00">cmath</text>
</a>
</g>
</g>
<!-- Node2&#45;&gt;Node3 -->
<g id="edge2" class="edge">
<title>Node2&#45;&gt;Node3</title>
<path fill="none" stroke="midnightblue" d="M54.39,-56.08C49.22,-48.53 41.65,-37.49 35.31,-28.23"/>
<polygon fill="midnightblue" stroke="midnightblue" points="38.04,-26.02 29.5,-19.75 32.26,-29.98 38.04,-26.02"/>
</g>
<!-- Node4 -->
<g id="node4" class="node">
<title>Node4</title>
<g id="a_node4"><a xlink:title=" ">
<polygon fill="white" stroke="#bfbfbf" points="65.5,-0.5 65.5,-19.5 129.5,-19.5 129.5,-0.5 65.5,-0.5"/>
<text text-anchor="middle" x="97.5" y="-7.5" font-family="Helvetica,sans-Serif" font-size="10.00">algorithm</text>
</a>
</g>
</g>
<!-- Node2&#45;&gt;Node4 -->
<g id="edge3" class="edge">
<title>Node2&#45;&gt;Node4</title>
<path fill="none" stroke="midnightblue" d="M66.61,-56.08C71.78,-48.53 79.35,-37.49 85.69,-28.23"/>
<polygon fill="midnightblue" stroke="midnightblue" points="88.74,-29.98 91.5,-19.75 82.96,-26.02 88.74,-29.98"/>
</g>
<!-- Node5&#45;&gt;Node2 -->
<g id="edge5" class="edge">
<title>Node5&#45;&gt;Node2</title>
<path fill="none" stroke="midnightblue" d="M122.61,-112.32C111.35,-104.11 94.21,-91.6 80.79,-81.81"/>
<polygon fill="midnightblue" stroke="midnightblue" points="82.75,-78.9 72.61,-75.83 78.62,-84.56 82.75,-78.9"/>
</g>
<!-- Node6 -->
<g id="node6" class="node">
<title>Node6</title>
<g id="a_node6"><a xlink:title=" ">
<polygon fill="white" stroke="#bfbfbf" points="123.5,-56.5 123.5,-75.5 173.5,-75.5 173.5,-56.5 123.5,-56.5"/>
<text text-anchor="middle" x="148.5" y="-63.5" font-family="Helvetica,sans-Serif" font-size="10.00">cstring</text>
</a>
</g>
</g>
<!-- Node5&#45;&gt;Node6 -->
<g id="edge6" class="edge">
<title>Node5&#45;&gt;Node6</title>
<path fill="none" stroke="midnightblue" d="M136.81,-112.08C138.67,-104.93 141.34,-94.64 143.65,-85.69"/>
<polygon fill="midnightblue" stroke="midnightblue" points="147.11,-86.31 146.23,-75.75 140.33,-84.55 147.11,-86.31"/>
</g>
</g>
</svg>
