<?xml version="1.0" encoding="UTF-8" standalone="no"?>
<!DOCTYPE svg PUBLIC "-//W3C//DTD SVG 1.1//EN"
 "http://www.w3.org/Graphics/SVG/1.1/DTD/svg11.dtd">
<!-- Generated by graphviz version 2.43.0 (0)
 -->
<!-- Title: include/depz/types.hpp Pages: 1 -->
<svg width="171pt" height="151pt"
 viewBox="0.00 0.00 170.50 151.00" xmlns="http://www.w3.org/2000/svg" xmlns:xlink="http://www.w3.org/1999/xlink">
<g id="graph0" class="graph" transform="scale(1 1) rotate(0) translate(4 147)">
<title>include/depz/types.hpp</title>
<polygon fill="white" stroke="transparent" points="-4,4 -4,-147 166.5,-147 166.5,4 -4,4"/>
<!-- Node1 -->
<g id="node1" class="node">
<title>Node1</title>
<g id="a_node1"><a xlink:title="Core SDK&#45;wide data structures and enumerations.">
<polygon fill="#bfbfbf" stroke="black" points="0,-123.5 0,-142.5 129,-142.5 129,-123.5 0,-123.5"/>
<text text-anchor="middle" x="64.5" y="-130.5" font-family="Helvetica,sans-Serif" font-size="10.00">include/depz/types.hpp</text>
</a>
</g>
</g>
<!-- Node2 -->
<g id="node2" class="node">
<title>Node2</title>
<g id="a_node2"><a xlink:href="depz_8h.html" target="_top" xlink:title="Single umbrella header that pulls in the whole iStereoLab public API.">
<polygon fill="white" stroke="black" points="8,-0.5 8,-19.5 121,-19.5 121,-0.5 8,-0.5"/>
<text text-anchor="middle" x="64.5" y="-7.5" font-family="Helvetica,sans-Serif" font-size="10.00">include/depz/depz.h</text>
</a>
</g>
</g>
<!-- Node1&#45;&gt;Node2 -->
<g id="edge1" class="edge">
<title>Node1&#45;&gt;Node2</title>
<path fill="none" stroke="midnightblue" d="M53.08,-114.44C48.52,-106.42 43.81,-96.58 41.5,-87 38.28,-73.6 38.28,-69.4 41.5,-56 44.74,-42.52 52.75,-28.54 58.4,-19.81"/>
<polygon fill="midnightblue" stroke="midnightblue" points="50.21,-116.46 58.4,-123.19 56.19,-112.83 50.21,-116.46"/>
</g>
<!-- Node3 -->
<g id="node3" class="node">
<title>Node3</title>
<g id="a_node3"><a xlink:href="depth__utils_8h.html" target="_top" xlink:title="Disparity&#45;to&#45;depth and point&#45;cloud conversion utilities.">
<polygon fill="white" stroke="black" points="50.5,-56.5 50.5,-86.5 162.5,-86.5 162.5,-56.5 50.5,-56.5"/>
<text text-anchor="start" x="58.5" y="-74.5" font-family="Helvetica,sans-Serif" font-size="10.00">include/depz/stereo</text>
<text text-anchor="middle" x="106.5" y="-63.5" font-family="Helvetica,sans-Serif" font-size="10.00">/depth_utils.h</text>
</a>
</g>
</g>
<!-- Node1&#45;&gt;Node3 -->
<g id="edge2" class="edge">
<title>Node1&#45;&gt;Node3</title>
<path fill="none" stroke="midnightblue" d="M76.33,-115.25C82.72,-106.19 90.53,-95.12 96.6,-86.52"/>
<polygon fill="midnightblue" stroke="midnightblue" points="73.43,-113.29 70.52,-123.48 79.14,-117.32 73.43,-113.29"/>
</g>
<!-- Node3&#45;&gt;Node2 -->
<g id="edge3" class="edge">
<title>Node3&#45;&gt;Node2</title>
<path fill="none" stroke="midnightblue" d="M90.69,-48.1C83.69,-38.19 75.87,-27.11 70.61,-19.66"/>
<polygon fill="midnightblue" stroke="midnightblue" points="87.92,-50.25 96.55,-56.4 93.64,-46.21 87.92,-50.25"/>
</g>
</g>
</svg>
