<?xml version="1.0" encoding="UTF-8" standalone="no"?>
<!DOCTYPE svg PUBLIC "-//W3C//DTD SVG 1.1//EN"
 "http://www.w3.org/Graphics/SVG/1.1/DTD/svg11.dtd">
<!-- Generated by graphviz version 2.43.0 (0)
 -->
<!-- Title: include/depz/math/vec3.hpp Pages: 1 -->
<svg width="249pt" height="263pt"
 viewBox="0.00 0.00 249.23 263.00" xmlns="http://www.w3.org/2000/svg" xmlns:xlink="http://www.w3.org/1999/xlink">
<g id="graph0" class="graph" transform="scale(1 1) rotate(0) translate(4 259)">
<title>include/depz/math/vec3.hpp</title>
<polygon fill="white" stroke="transparent" points="-4,4 -4,-259 245.23,-259 245.23,4 -4,4"/>
<!-- Node1 -->
<g id="node1" class="node">
<title>Node1</title>
<g id="a_node1"><a xlink:title="3&#45;D single&#45;precision floating&#45;point vector.">
<polygon fill="#bfbfbf" stroke="black" points="21.23,-235.5 21.23,-254.5 175.23,-254.5 175.23,-235.5 21.23,-235.5"/>
<text text-anchor="middle" x="98.23" y="-242.5" font-family="Helvetica,sans-Serif" font-size="10.00">include/depz/math/vec3.hpp</text>
</a>
</g>
</g>
<!-- Node2 -->
<g id="node2" class="node">
<title>Node2</title>
<g id="a_node2"><a xlink:href="depz_8h.html" target="_top" xlink:title="Single umbrella header that pulls in the whole iStereoLab public API.">
<polygon fill="white" stroke="black" points="25.73,-0.5 25.73,-19.5 138.73,-19.5 138.73,-0.5 25.73,-0.5"/>
<text text-anchor="middle" x="82.23" y="-7.5" font-family="Helvetica,sans-Serif" font-size="10.00">include/depz/depz.h</text>
</a>
</g>
</g>
<!-- Node1&#45;&gt;Node2 -->
<g id="edge1" class="edge">
<title>Node1&#45;&gt;Node2</title>
<path fill="none" stroke="midnightblue" d="M53.74,-231.81C37.44,-224.95 20.69,-214.54 11.23,-199 -27.4,-135.52 47.41,-47.53 73.63,-19.76"/>
<polygon fill="midnightblue" stroke="midnightblue" points="52.63,-235.13 63.22,-235.45 55.14,-228.6 52.63,-235.13"/>
</g>
<!-- Node3 -->
<g id="node3" class="node">
<title>Node3</title>
<g id="a_node3"><a xlink:href="mat4_8hpp.html" target="_top" xlink:title="4×4 single&#45;precision floating&#45;point matrix.">
<polygon fill="white" stroke="black" points="20.23,-179.5 20.23,-198.5 176.23,-198.5 176.23,-179.5 20.23,-179.5"/>
<text text-anchor="middle" x="98.23" y="-186.5" font-family="Helvetica,sans-Serif" font-size="10.00">include/depz/math/mat4.hpp</text>
</a>
</g>
</g>
<!-- Node1&#45;&gt;Node3 -->
<g id="edge2" class="edge">
<title>Node1&#45;&gt;Node3</title>
<path fill="none" stroke="midnightblue" d="M98.23,-224.8C98.23,-215.91 98.23,-205.78 98.23,-198.75"/>
<polygon fill="midnightblue" stroke="midnightblue" points="94.73,-225.08 98.23,-235.08 101.73,-225.08 94.73,-225.08"/>
</g>
<!-- Node4 -->
<g id="node4" class="node">
<title>Node4</title>
<g id="a_node4"><a xlink:href="types_8hpp.html" target="_top" xlink:title="Core SDK&#45;wide data structures and enumerations.">
<polygon fill="white" stroke="black" points="105.73,-123.5 105.73,-142.5 234.73,-142.5 234.73,-123.5 105.73,-123.5"/>
<text text-anchor="middle" x="170.23" y="-130.5" font-family="Helvetica,sans-Serif" font-size="10.00">include/depz/types.hpp</text>
</a>
</g>
</g>
<!-- Node1&#45;&gt;Node4 -->
<g id="edge8" class="edge">
<title>Node1&#45;&gt;Node4</title>
<path fill="none" stroke="midnightblue" d="M142.73,-231.81C159.02,-224.95 175.77,-214.54 185.23,-199 196.19,-180.99 183.99,-155.74 176.01,-142.64"/>
<polygon fill="midnightblue" stroke="midnightblue" points="141.33,-228.6 133.25,-235.45 143.84,-235.13 141.33,-228.6"/>
</g>
<!-- Node3&#45;&gt;Node2 -->
<g id="edge3" class="edge">
<title>Node3&#45;&gt;Node2</title>
<path fill="none" stroke="midnightblue" d="M96.55,-169.35C93.13,-131.6 85.52,-47.36 83.03,-19.87"/>
<polygon fill="midnightblue" stroke="midnightblue" points="93.07,-169.82 97.46,-179.46 100.05,-169.19 93.07,-169.82"/>
</g>
<!-- Node3&#45;&gt;Node4 -->
<g id="edge4" class="edge">
<title>Node3&#45;&gt;Node4</title>
<path fill="none" stroke="midnightblue" d="M118.1,-173.1C131.06,-163.38 147.53,-151.03 158.45,-142.83"/>
<polygon fill="midnightblue" stroke="midnightblue" points="115.7,-170.52 109.8,-179.32 119.9,-176.12 115.7,-170.52"/>
</g>
<!-- Node4&#45;&gt;Node2 -->
<g id="edge5" class="edge">
<title>Node4&#45;&gt;Node2</title>
<path fill="none" stroke="midnightblue" d="M150.24,-116.97C140.37,-108.85 128.77,-98.21 120.23,-87 103.43,-64.94 90.81,-34.29 85.3,-19.57"/>
<polygon fill="midnightblue" stroke="midnightblue" points="148.35,-119.93 158.36,-123.4 152.7,-114.44 148.35,-119.93"/>
</g>
<!-- Node5 -->
<g id="node5" class="node">
<title>Node5</title>
<g id="a_node5"><a xlink:href="depth__utils_8h.html" target="_top" xlink:title="Disparity&#45;to&#45;depth and point&#45;cloud conversion utilities.">
<polygon fill="white" stroke="black" points="129.23,-56.5 129.23,-86.5 241.23,-86.5 241.23,-56.5 129.23,-56.5"/>
<text text-anchor="start" x="137.23" y="-74.5" font-family="Helvetica,sans-Serif" font-size="10.00">include/depz/stereo</text>
<text text-anchor="middle" x="185.23" y="-63.5" font-family="Helvetica,sans-Serif" font-size="10.00">/depth_utils.h</text>
</a>
</g>
</g>
<!-- Node4&#45;&gt;Node5 -->
<g id="edge6" class="edge">
<title>Node4&#45;&gt;Node5</title>
<path fill="none" stroke="midnightblue" d="M174.89,-113.53C177.09,-104.81 179.66,-94.59 181.7,-86.52"/>
<polygon fill="midnightblue" stroke="midnightblue" points="171.43,-112.92 172.38,-123.48 178.22,-114.63 171.43,-112.92"/>
</g>
<!-- Node5&#45;&gt;Node2 -->
<g id="edge7" class="edge">
<title>Node5&#45;&gt;Node2</title>
<path fill="none" stroke="midnightblue" d="M152.1,-51.36C133.64,-40.69 111.55,-27.93 97.22,-19.66"/>
<polygon fill="midnightblue" stroke="midnightblue" points="150.41,-54.43 160.82,-56.4 153.91,-48.37 150.41,-54.43"/>
</g>
</g>
</svg>
